G04 #@! TF.GenerationSoftware,KiCad,Pcbnew,(6.0.11)*
G04 #@! TF.CreationDate,2024-05-31T14:19:49-03:00*
G04 #@! TF.ProjectId,bitmovel,6269746d-6f76-4656-9c2e-6b696361645f,rev?*
G04 #@! TF.SameCoordinates,Original*
G04 #@! TF.FileFunction,Legend,Bot*
G04 #@! TF.FilePolarity,Positive*
%FSLAX46Y46*%
G04 Gerber Fmt 4.6, Leading zero omitted, Abs format (unit mm)*
G04 Created by KiCad (PCBNEW (6.0.11)) date 2024-05-31 14:19:49*
%MOMM*%
%LPD*%
G01*
G04 APERTURE LIST*
%ADD10C,0.500000*%
%ADD11C,0.200000*%
%ADD12C,0.120000*%
G04 APERTURE END LIST*
D10*
X176000000Y-88000000D02*
X176000000Y-94000000D01*
X195000000Y-94000000D02*
X176000000Y-94000000D01*
X137000000Y-123000000D02*
X137000000Y-115000000D01*
X163000000Y-115000000D02*
X163000000Y-123000000D01*
X105000000Y-94000000D02*
X124000000Y-94000000D01*
X137000000Y-59000000D02*
X137000000Y-67000000D01*
X163000000Y-67000000D02*
X163000000Y-59000000D01*
X124000000Y-94000000D02*
X124000000Y-88000000D01*
D11*
G04 #@! TO.C,J3*
X135495238Y-94723809D02*
X135495238Y-93657142D01*
X135495238Y-93809523D02*
X135419047Y-93733333D01*
X135266666Y-93657142D01*
X135038095Y-93657142D01*
X134885714Y-93733333D01*
X134809523Y-93885714D01*
X134809523Y-94723809D01*
X134809523Y-93885714D02*
X134733333Y-93733333D01*
X134580952Y-93657142D01*
X134352380Y-93657142D01*
X134200000Y-93733333D01*
X134123809Y-93885714D01*
X134123809Y-94723809D01*
X133133333Y-94723809D02*
X133285714Y-94647619D01*
X133361904Y-94571428D01*
X133438095Y-94419047D01*
X133438095Y-93961904D01*
X133361904Y-93809523D01*
X133285714Y-93733333D01*
X133133333Y-93657142D01*
X132904761Y-93657142D01*
X132752380Y-93733333D01*
X132676190Y-93809523D01*
X132600000Y-93961904D01*
X132600000Y-94419047D01*
X132676190Y-94571428D01*
X132752380Y-94647619D01*
X132904761Y-94723809D01*
X133133333Y-94723809D01*
X132142857Y-93657142D02*
X131533333Y-93657142D01*
X131914285Y-93123809D02*
X131914285Y-94495238D01*
X131838095Y-94647619D01*
X131685714Y-94723809D01*
X131533333Y-94723809D01*
X130771428Y-94723809D02*
X130923809Y-94647619D01*
X131000000Y-94571428D01*
X131076190Y-94419047D01*
X131076190Y-93961904D01*
X131000000Y-93809523D01*
X130923809Y-93733333D01*
X130771428Y-93657142D01*
X130542857Y-93657142D01*
X130390476Y-93733333D01*
X130314285Y-93809523D01*
X130238095Y-93961904D01*
X130238095Y-94419047D01*
X130314285Y-94571428D01*
X130390476Y-94647619D01*
X130542857Y-94723809D01*
X130771428Y-94723809D01*
X129552380Y-94723809D02*
X129552380Y-93657142D01*
X129552380Y-93961904D02*
X129476190Y-93809523D01*
X129400000Y-93733333D01*
X129247619Y-93657142D01*
X129095238Y-93657142D01*
X127342857Y-94723809D02*
X127342857Y-93123809D01*
X126961904Y-93123809D01*
X126733333Y-93200000D01*
X126580952Y-93352380D01*
X126504761Y-93504761D01*
X126428571Y-93809523D01*
X126428571Y-94038095D01*
X126504761Y-94342857D01*
X126580952Y-94495238D01*
X126733333Y-94647619D01*
X126961904Y-94723809D01*
X127342857Y-94723809D01*
G04 #@! TO.C,J4*
X173419047Y-94723809D02*
X173419047Y-93657142D01*
X173419047Y-93809523D02*
X173342857Y-93733333D01*
X173190476Y-93657142D01*
X172961904Y-93657142D01*
X172809523Y-93733333D01*
X172733333Y-93885714D01*
X172733333Y-94723809D01*
X172733333Y-93885714D02*
X172657142Y-93733333D01*
X172504761Y-93657142D01*
X172276190Y-93657142D01*
X172123809Y-93733333D01*
X172047619Y-93885714D01*
X172047619Y-94723809D01*
X171057142Y-94723809D02*
X171209523Y-94647619D01*
X171285714Y-94571428D01*
X171361904Y-94419047D01*
X171361904Y-93961904D01*
X171285714Y-93809523D01*
X171209523Y-93733333D01*
X171057142Y-93657142D01*
X170828571Y-93657142D01*
X170676190Y-93733333D01*
X170600000Y-93809523D01*
X170523809Y-93961904D01*
X170523809Y-94419047D01*
X170600000Y-94571428D01*
X170676190Y-94647619D01*
X170828571Y-94723809D01*
X171057142Y-94723809D01*
X170066666Y-93657142D02*
X169457142Y-93657142D01*
X169838095Y-93123809D02*
X169838095Y-94495238D01*
X169761904Y-94647619D01*
X169609523Y-94723809D01*
X169457142Y-94723809D01*
X168695238Y-94723809D02*
X168847619Y-94647619D01*
X168923809Y-94571428D01*
X169000000Y-94419047D01*
X169000000Y-93961904D01*
X168923809Y-93809523D01*
X168847619Y-93733333D01*
X168695238Y-93657142D01*
X168466666Y-93657142D01*
X168314285Y-93733333D01*
X168238095Y-93809523D01*
X168161904Y-93961904D01*
X168161904Y-94419047D01*
X168238095Y-94571428D01*
X168314285Y-94647619D01*
X168466666Y-94723809D01*
X168695238Y-94723809D01*
X167476190Y-94723809D02*
X167476190Y-93657142D01*
X167476190Y-93961904D02*
X167400000Y-93809523D01*
X167323809Y-93733333D01*
X167171428Y-93657142D01*
X167019047Y-93657142D01*
X165266666Y-93885714D02*
X164733333Y-93885714D01*
X164504761Y-94723809D02*
X165266666Y-94723809D01*
X165266666Y-93123809D01*
X164504761Y-93123809D01*
D12*
G04 #@! TO.C,J3*
X136000000Y-99500000D02*
X136000000Y-96500000D01*
X135000000Y-95500000D02*
X127000000Y-95500000D01*
X127000000Y-100500000D02*
X135000000Y-100500000D01*
X126000000Y-96500000D02*
X126000000Y-99500000D01*
X126000000Y-99500000D02*
G75*
G03*
X127000000Y-100500000I1000000J0D01*
G01*
X127000000Y-95500000D02*
G75*
G03*
X126000000Y-96500000I0J-1000000D01*
G01*
X135000000Y-100500000D02*
G75*
G03*
X136000000Y-99500000I1J999999D01*
G01*
X136000000Y-96500000D02*
G75*
G03*
X135000000Y-95500000I-999999J1D01*
G01*
G04 #@! TO.C,J4*
X173000000Y-95500000D02*
X165000000Y-95500000D01*
X164000000Y-96500000D02*
X164000000Y-99500000D01*
X165000000Y-100500000D02*
X173000000Y-100500000D01*
X174000000Y-99500000D02*
X174000000Y-96500000D01*
X174000000Y-96500000D02*
G75*
G03*
X173000000Y-95500000I-1000000J0D01*
G01*
X165000000Y-95500000D02*
G75*
G03*
X164000000Y-96500000I-1J-999999D01*
G01*
X164000000Y-99500000D02*
G75*
G03*
X165000000Y-100500000I999999J-1D01*
G01*
X173000000Y-100500000D02*
G75*
G03*
X174000000Y-99500000I0J1000000D01*
G01*
G04 #@! TD*
M02*
