G04 #@! TF.GenerationSoftware,KiCad,Pcbnew,(6.0.11)*
G04 #@! TF.CreationDate,2024-05-31T14:19:49-03:00*
G04 #@! TF.ProjectId,bitmovel,6269746d-6f76-4656-9c2e-6b696361645f,rev?*
G04 #@! TF.SameCoordinates,Original*
G04 #@! TF.FileFunction,Legend,Top*
G04 #@! TF.FilePolarity,Positive*
%FSLAX46Y46*%
G04 Gerber Fmt 4.6, Leading zero omitted, Abs format (unit mm)*
G04 Created by KiCad (PCBNEW (6.0.11)) date 2024-05-31 14:19:49*
%MOMM*%
%LPD*%
G01*
G04 APERTURE LIST*
%ADD10C,0.200000*%
%ADD11C,0.150000*%
%ADD12C,0.120000*%
%ADD13C,0.010000*%
G04 APERTURE END LIST*
D10*
X109230952Y-56014285D02*
X110930952Y-56014285D01*
X109230952Y-56742857D02*
X110121428Y-56742857D01*
X110283333Y-56661904D01*
X110364285Y-56500000D01*
X110364285Y-56257142D01*
X110283333Y-56095238D01*
X110202380Y-56014285D01*
X110364285Y-57309523D02*
X110364285Y-57957142D01*
X110930952Y-57552380D02*
X109473809Y-57552380D01*
X109311904Y-57633333D01*
X109230952Y-57795238D01*
X109230952Y-57957142D01*
X110364285Y-58280952D02*
X110364285Y-58928571D01*
X110930952Y-58523809D02*
X109473809Y-58523809D01*
X109311904Y-58604761D01*
X109230952Y-58766666D01*
X109230952Y-58928571D01*
X110364285Y-59495238D02*
X108664285Y-59495238D01*
X110283333Y-59495238D02*
X110364285Y-59657142D01*
X110364285Y-59980952D01*
X110283333Y-60142857D01*
X110202380Y-60223809D01*
X110040476Y-60304761D01*
X109554761Y-60304761D01*
X109392857Y-60223809D01*
X109311904Y-60142857D01*
X109230952Y-59980952D01*
X109230952Y-59657142D01*
X109311904Y-59495238D01*
X109311904Y-60952380D02*
X109230952Y-61114285D01*
X109230952Y-61438095D01*
X109311904Y-61600000D01*
X109473809Y-61680952D01*
X109554761Y-61680952D01*
X109716666Y-61600000D01*
X109797619Y-61438095D01*
X109797619Y-61195238D01*
X109878571Y-61033333D01*
X110040476Y-60952380D01*
X110121428Y-60952380D01*
X110283333Y-61033333D01*
X110364285Y-61195238D01*
X110364285Y-61438095D01*
X110283333Y-61600000D01*
X109392857Y-62409523D02*
X109311904Y-62490476D01*
X109230952Y-62409523D01*
X109311904Y-62328571D01*
X109392857Y-62409523D01*
X109230952Y-62409523D01*
X110283333Y-62409523D02*
X110202380Y-62490476D01*
X110121428Y-62409523D01*
X110202380Y-62328571D01*
X110283333Y-62409523D01*
X110121428Y-62409523D01*
X111011904Y-64433333D02*
X108826190Y-62976190D01*
X111011904Y-66214285D02*
X108826190Y-64757142D01*
X109311904Y-67428571D02*
X109230952Y-67266666D01*
X109230952Y-66942857D01*
X109311904Y-66780952D01*
X109473809Y-66700000D01*
X110121428Y-66700000D01*
X110283333Y-66780952D01*
X110364285Y-66942857D01*
X110364285Y-67266666D01*
X110283333Y-67428571D01*
X110121428Y-67509523D01*
X109959523Y-67509523D01*
X109797619Y-66700000D01*
X109311904Y-68157142D02*
X109230952Y-68319047D01*
X109230952Y-68642857D01*
X109311904Y-68804761D01*
X109473809Y-68885714D01*
X109554761Y-68885714D01*
X109716666Y-68804761D01*
X109797619Y-68642857D01*
X109797619Y-68400000D01*
X109878571Y-68238095D01*
X110040476Y-68157142D01*
X110121428Y-68157142D01*
X110283333Y-68238095D01*
X110364285Y-68400000D01*
X110364285Y-68642857D01*
X110283333Y-68804761D01*
X109311904Y-70342857D02*
X109230952Y-70180952D01*
X109230952Y-69857142D01*
X109311904Y-69695238D01*
X109392857Y-69614285D01*
X109554761Y-69533333D01*
X110040476Y-69533333D01*
X110202380Y-69614285D01*
X110283333Y-69695238D01*
X110364285Y-69857142D01*
X110364285Y-70180952D01*
X110283333Y-70342857D01*
X109230952Y-71314285D02*
X109311904Y-71152380D01*
X109392857Y-71071428D01*
X109554761Y-70990476D01*
X110040476Y-70990476D01*
X110202380Y-71071428D01*
X110283333Y-71152380D01*
X110364285Y-71314285D01*
X110364285Y-71557142D01*
X110283333Y-71719047D01*
X110202380Y-71800000D01*
X110040476Y-71880952D01*
X109554761Y-71880952D01*
X109392857Y-71800000D01*
X109311904Y-71719047D01*
X109230952Y-71557142D01*
X109230952Y-71314285D01*
X109230952Y-72852380D02*
X109311904Y-72690476D01*
X109473809Y-72609523D01*
X110930952Y-72609523D01*
X109230952Y-74228571D02*
X110121428Y-74228571D01*
X110283333Y-74147619D01*
X110364285Y-73985714D01*
X110364285Y-73661904D01*
X110283333Y-73500000D01*
X109311904Y-74228571D02*
X109230952Y-74066666D01*
X109230952Y-73661904D01*
X109311904Y-73500000D01*
X109473809Y-73419047D01*
X109635714Y-73419047D01*
X109797619Y-73500000D01*
X109878571Y-73661904D01*
X109878571Y-74066666D01*
X109959523Y-74228571D01*
X110364285Y-75766666D02*
X109230952Y-75766666D01*
X111011904Y-75361904D02*
X109797619Y-74957142D01*
X109797619Y-76009523D01*
X110364285Y-76657142D02*
X108664285Y-76657142D01*
X110283333Y-76657142D02*
X110364285Y-76819047D01*
X110364285Y-77142857D01*
X110283333Y-77304761D01*
X110202380Y-77385714D01*
X110040476Y-77466666D01*
X109554761Y-77466666D01*
X109392857Y-77385714D01*
X109311904Y-77304761D01*
X109230952Y-77142857D01*
X109230952Y-76819047D01*
X109311904Y-76657142D01*
X109230952Y-78438095D02*
X109311904Y-78276190D01*
X109392857Y-78195238D01*
X109554761Y-78114285D01*
X110040476Y-78114285D01*
X110202380Y-78195238D01*
X110283333Y-78276190D01*
X110364285Y-78438095D01*
X110364285Y-78680952D01*
X110283333Y-78842857D01*
X110202380Y-78923809D01*
X110040476Y-79004761D01*
X109554761Y-79004761D01*
X109392857Y-78923809D01*
X109311904Y-78842857D01*
X109230952Y-78680952D01*
X109230952Y-78438095D01*
X110364285Y-79733333D02*
X109230952Y-79733333D01*
X110202380Y-79733333D02*
X110283333Y-79814285D01*
X110364285Y-79976190D01*
X110364285Y-80219047D01*
X110283333Y-80380952D01*
X110121428Y-80461904D01*
X109230952Y-80461904D01*
X110364285Y-81028571D02*
X110364285Y-81676190D01*
X110930952Y-81271428D02*
X109473809Y-81271428D01*
X109311904Y-81352380D01*
X109230952Y-81514285D01*
X109230952Y-81676190D01*
X109230952Y-82485714D02*
X109311904Y-82323809D01*
X109392857Y-82242857D01*
X109554761Y-82161904D01*
X110040476Y-82161904D01*
X110202380Y-82242857D01*
X110283333Y-82323809D01*
X110364285Y-82485714D01*
X110364285Y-82728571D01*
X110283333Y-82890476D01*
X110202380Y-82971428D01*
X110040476Y-83052380D01*
X109554761Y-83052380D01*
X109392857Y-82971428D01*
X109311904Y-82890476D01*
X109230952Y-82728571D01*
X109230952Y-82485714D01*
X110364285Y-83619047D02*
X110364285Y-84509523D01*
X109230952Y-83619047D01*
X109230952Y-84509523D01*
X109311904Y-85804761D02*
X109230952Y-85642857D01*
X109230952Y-85319047D01*
X109311904Y-85157142D01*
X109473809Y-85076190D01*
X110121428Y-85076190D01*
X110283333Y-85157142D01*
X110364285Y-85319047D01*
X110364285Y-85642857D01*
X110283333Y-85804761D01*
X110121428Y-85885714D01*
X109959523Y-85885714D01*
X109797619Y-85076190D01*
X109230952Y-86614285D02*
X110364285Y-86614285D01*
X110040476Y-86614285D02*
X110202380Y-86695238D01*
X110283333Y-86776190D01*
X110364285Y-86938095D01*
X110364285Y-87100000D01*
X109230952Y-87909523D02*
X109311904Y-87747619D01*
X109392857Y-87666666D01*
X109554761Y-87585714D01*
X110040476Y-87585714D01*
X110202380Y-87666666D01*
X110283333Y-87747619D01*
X110364285Y-87909523D01*
X110364285Y-88152380D01*
X110283333Y-88314285D01*
X110202380Y-88395238D01*
X110040476Y-88476190D01*
X109554761Y-88476190D01*
X109392857Y-88395238D01*
X109311904Y-88314285D01*
X109230952Y-88152380D01*
X109230952Y-87909523D01*
X109392857Y-89204761D02*
X109311904Y-89285714D01*
X109230952Y-89204761D01*
X109311904Y-89123809D01*
X109392857Y-89204761D01*
X109230952Y-89204761D01*
X110364285Y-89771428D02*
X110364285Y-90419047D01*
X109230952Y-90014285D02*
X110688095Y-90014285D01*
X110850000Y-90095238D01*
X110930952Y-90257142D01*
X110930952Y-90419047D01*
X109311904Y-91633333D02*
X109230952Y-91471428D01*
X109230952Y-91147619D01*
X109311904Y-90985714D01*
X109473809Y-90904761D01*
X110121428Y-90904761D01*
X110283333Y-90985714D01*
X110364285Y-91147619D01*
X110364285Y-91471428D01*
X110283333Y-91633333D01*
X110121428Y-91714285D01*
X109959523Y-91714285D01*
X109797619Y-90904761D01*
X109311904Y-93090476D02*
X109230952Y-92928571D01*
X109230952Y-92604761D01*
X109311904Y-92442857D01*
X109473809Y-92361904D01*
X110121428Y-92361904D01*
X110283333Y-92442857D01*
X110364285Y-92604761D01*
X110364285Y-92928571D01*
X110283333Y-93090476D01*
X110121428Y-93171428D01*
X109959523Y-93171428D01*
X109797619Y-92361904D01*
X109392857Y-93900000D02*
X109311904Y-93980952D01*
X109230952Y-93900000D01*
X109311904Y-93819047D01*
X109392857Y-93900000D01*
X109230952Y-93900000D01*
X110364285Y-95438095D02*
X109230952Y-95438095D01*
X110364285Y-94709523D02*
X109473809Y-94709523D01*
X109311904Y-94790476D01*
X109230952Y-94952380D01*
X109230952Y-95195238D01*
X109311904Y-95357142D01*
X109392857Y-95438095D01*
X110364285Y-96247619D02*
X109230952Y-96247619D01*
X110202380Y-96247619D02*
X110283333Y-96328571D01*
X110364285Y-96490476D01*
X110364285Y-96733333D01*
X110283333Y-96895238D01*
X110121428Y-96976190D01*
X109230952Y-96976190D01*
X109230952Y-97785714D02*
X110364285Y-97785714D01*
X110930952Y-97785714D02*
X110850000Y-97704761D01*
X110769047Y-97785714D01*
X110850000Y-97866666D01*
X110930952Y-97785714D01*
X110769047Y-97785714D01*
X109311904Y-99323809D02*
X109230952Y-99161904D01*
X109230952Y-98838095D01*
X109311904Y-98676190D01*
X109392857Y-98595238D01*
X109554761Y-98514285D01*
X110040476Y-98514285D01*
X110202380Y-98595238D01*
X110283333Y-98676190D01*
X110364285Y-98838095D01*
X110364285Y-99161904D01*
X110283333Y-99323809D01*
X109230952Y-100780952D02*
X110121428Y-100780952D01*
X110283333Y-100700000D01*
X110364285Y-100538095D01*
X110364285Y-100214285D01*
X110283333Y-100052380D01*
X109311904Y-100780952D02*
X109230952Y-100619047D01*
X109230952Y-100214285D01*
X109311904Y-100052380D01*
X109473809Y-99971428D01*
X109635714Y-99971428D01*
X109797619Y-100052380D01*
X109878571Y-100214285D01*
X109878571Y-100619047D01*
X109959523Y-100780952D01*
X109230952Y-101590476D02*
X110364285Y-101590476D01*
X110202380Y-101590476D02*
X110283333Y-101671428D01*
X110364285Y-101833333D01*
X110364285Y-102076190D01*
X110283333Y-102238095D01*
X110121428Y-102319047D01*
X109230952Y-102319047D01*
X110121428Y-102319047D02*
X110283333Y-102400000D01*
X110364285Y-102561904D01*
X110364285Y-102804761D01*
X110283333Y-102966666D01*
X110121428Y-103047619D01*
X109230952Y-103047619D01*
X110364285Y-103857142D02*
X108664285Y-103857142D01*
X110283333Y-103857142D02*
X110364285Y-104019047D01*
X110364285Y-104342857D01*
X110283333Y-104504761D01*
X110202380Y-104585714D01*
X110040476Y-104666666D01*
X109554761Y-104666666D01*
X109392857Y-104585714D01*
X109311904Y-104504761D01*
X109230952Y-104342857D01*
X109230952Y-104019047D01*
X109311904Y-103857142D01*
X109392857Y-105395238D02*
X109311904Y-105476190D01*
X109230952Y-105395238D01*
X109311904Y-105314285D01*
X109392857Y-105395238D01*
X109230952Y-105395238D01*
X109230952Y-106204761D02*
X110930952Y-106204761D01*
X110283333Y-106204761D02*
X110364285Y-106366666D01*
X110364285Y-106690476D01*
X110283333Y-106852380D01*
X110202380Y-106933333D01*
X110040476Y-107014285D01*
X109554761Y-107014285D01*
X109392857Y-106933333D01*
X109311904Y-106852380D01*
X109230952Y-106690476D01*
X109230952Y-106366666D01*
X109311904Y-106204761D01*
X109230952Y-107742857D02*
X110364285Y-107742857D01*
X110040476Y-107742857D02*
X110202380Y-107823809D01*
X110283333Y-107904761D01*
X110364285Y-108066666D01*
X110364285Y-108228571D01*
X187662801Y-117039106D02*
X188942328Y-117645198D01*
X188336236Y-116365671D01*
X188268893Y-115490206D02*
X189144358Y-114614740D01*
X189211702Y-115624893D01*
X189413732Y-115422862D01*
X189615763Y-115355519D01*
X189750450Y-115355519D01*
X189952480Y-115422862D01*
X190289198Y-115759580D01*
X190356541Y-115961610D01*
X190356541Y-116096297D01*
X190289198Y-116298328D01*
X189885137Y-116702389D01*
X189683106Y-116769732D01*
X189548419Y-116769732D01*
D11*
X127073690Y-55904761D02*
X127073690Y-53904761D01*
X127835595Y-53904761D01*
X128026071Y-54000000D01*
X128121309Y-54095238D01*
X128216547Y-54285714D01*
X128216547Y-54571428D01*
X128121309Y-54761904D01*
X128026071Y-54857142D01*
X127835595Y-54952380D01*
X127073690Y-54952380D01*
X129454642Y-53904761D02*
X129645119Y-53904761D01*
X129835595Y-54000000D01*
X129930833Y-54095238D01*
X130026071Y-54285714D01*
X130121309Y-54666666D01*
X130121309Y-55142857D01*
X130026071Y-55523809D01*
X129930833Y-55714285D01*
X129835595Y-55809523D01*
X129645119Y-55904761D01*
X129454642Y-55904761D01*
X129264166Y-55809523D01*
X129168928Y-55714285D01*
X129073690Y-55523809D01*
X128978452Y-55142857D01*
X128978452Y-54666666D01*
X129073690Y-54285714D01*
X129168928Y-54095238D01*
X129264166Y-54000000D01*
X129454642Y-53904761D01*
X137073690Y-55904761D02*
X137073690Y-53904761D01*
X137835595Y-53904761D01*
X138026071Y-54000000D01*
X138121309Y-54095238D01*
X138216547Y-54285714D01*
X138216547Y-54571428D01*
X138121309Y-54761904D01*
X138026071Y-54857142D01*
X137835595Y-54952380D01*
X137073690Y-54952380D01*
X140121309Y-55904761D02*
X138978452Y-55904761D01*
X139549880Y-55904761D02*
X139549880Y-53904761D01*
X139359404Y-54190476D01*
X139168928Y-54380952D01*
X138978452Y-54476190D01*
X148597500Y-55904761D02*
X148597500Y-53904761D01*
X149359404Y-53904761D01*
X149549880Y-54000000D01*
X149645119Y-54095238D01*
X149740357Y-54285714D01*
X149740357Y-54571428D01*
X149645119Y-54761904D01*
X149549880Y-54857142D01*
X149359404Y-54952380D01*
X148597500Y-54952380D01*
X150502261Y-54095238D02*
X150597500Y-54000000D01*
X150787976Y-53904761D01*
X151264166Y-53904761D01*
X151454642Y-54000000D01*
X151549880Y-54095238D01*
X151645119Y-54285714D01*
X151645119Y-54476190D01*
X151549880Y-54761904D01*
X150407023Y-55904761D01*
X151645119Y-55904761D01*
X159930833Y-53904761D02*
X161168928Y-53904761D01*
X160502261Y-54666666D01*
X160787976Y-54666666D01*
X160978452Y-54761904D01*
X161073690Y-54857142D01*
X161168928Y-55047619D01*
X161168928Y-55523809D01*
X161073690Y-55714285D01*
X160978452Y-55809523D01*
X160787976Y-55904761D01*
X160216547Y-55904761D01*
X160026071Y-55809523D01*
X159930833Y-55714285D01*
X161740357Y-53904761D02*
X162407023Y-55904761D01*
X163073690Y-53904761D01*
X169359404Y-54000000D02*
X169168928Y-53904761D01*
X168883214Y-53904761D01*
X168597500Y-54000000D01*
X168407023Y-54190476D01*
X168311785Y-54380952D01*
X168216547Y-54761904D01*
X168216547Y-55047619D01*
X168311785Y-55428571D01*
X168407023Y-55619047D01*
X168597500Y-55809523D01*
X168883214Y-55904761D01*
X169073690Y-55904761D01*
X169359404Y-55809523D01*
X169454642Y-55714285D01*
X169454642Y-55047619D01*
X169073690Y-55047619D01*
X170311785Y-55904761D02*
X170311785Y-53904761D01*
X171454642Y-55904761D01*
X171454642Y-53904761D01*
X172407023Y-55904761D02*
X172407023Y-53904761D01*
X172883214Y-53904761D01*
X173168928Y-54000000D01*
X173359404Y-54190476D01*
X173454642Y-54380952D01*
X173549880Y-54761904D01*
X173549880Y-55047619D01*
X173454642Y-55428571D01*
X173359404Y-55619047D01*
X173168928Y-55809523D01*
X172883214Y-55904761D01*
X172407023Y-55904761D01*
D10*
G04 #@! TO.C,R1*
X171850000Y-110678571D02*
X171350000Y-109964285D01*
X170992857Y-110678571D02*
X170992857Y-109178571D01*
X171564285Y-109178571D01*
X171707142Y-109250000D01*
X171778571Y-109321428D01*
X171850000Y-109464285D01*
X171850000Y-109678571D01*
X171778571Y-109821428D01*
X171707142Y-109892857D01*
X171564285Y-109964285D01*
X170992857Y-109964285D01*
X173278571Y-110678571D02*
X172421428Y-110678571D01*
X172850000Y-110678571D02*
X172850000Y-109178571D01*
X172707142Y-109392857D01*
X172564285Y-109535714D01*
X172421428Y-109607142D01*
G04 #@! TO.C,U2*
X129367142Y-61678571D02*
X129367142Y-62892857D01*
X129438571Y-63035714D01*
X129510000Y-63107142D01*
X129652857Y-63178571D01*
X129938571Y-63178571D01*
X130081428Y-63107142D01*
X130152857Y-63035714D01*
X130224285Y-62892857D01*
X130224285Y-61678571D01*
X130867142Y-61821428D02*
X130938571Y-61750000D01*
X131081428Y-61678571D01*
X131438571Y-61678571D01*
X131581428Y-61750000D01*
X131652857Y-61821428D01*
X131724285Y-61964285D01*
X131724285Y-62107142D01*
X131652857Y-62321428D01*
X130795714Y-63178571D01*
X131724285Y-63178571D01*
G04 #@! TO.C,REF\u002A\u002A*
X126785714Y-99178571D02*
X126785714Y-98178571D01*
X126785714Y-98321428D02*
X126857142Y-98250000D01*
X127000000Y-98178571D01*
X127214285Y-98178571D01*
X127357142Y-98250000D01*
X127428571Y-98392857D01*
X127428571Y-99178571D01*
X127428571Y-98392857D02*
X127500000Y-98250000D01*
X127642857Y-98178571D01*
X127857142Y-98178571D01*
X128000000Y-98250000D01*
X128071428Y-98392857D01*
X128071428Y-99178571D01*
X129000000Y-99178571D02*
X128857142Y-99107142D01*
X128785714Y-99035714D01*
X128714285Y-98892857D01*
X128714285Y-98464285D01*
X128785714Y-98321428D01*
X128857142Y-98250000D01*
X129000000Y-98178571D01*
X129214285Y-98178571D01*
X129357142Y-98250000D01*
X129428571Y-98321428D01*
X129500000Y-98464285D01*
X129500000Y-98892857D01*
X129428571Y-99035714D01*
X129357142Y-99107142D01*
X129214285Y-99178571D01*
X129000000Y-99178571D01*
X129928571Y-98178571D02*
X130500000Y-98178571D01*
X130142857Y-97678571D02*
X130142857Y-98964285D01*
X130214285Y-99107142D01*
X130357142Y-99178571D01*
X130500000Y-99178571D01*
X131214285Y-99178571D02*
X131071428Y-99107142D01*
X131000000Y-99035714D01*
X130928571Y-98892857D01*
X130928571Y-98464285D01*
X131000000Y-98321428D01*
X131071428Y-98250000D01*
X131214285Y-98178571D01*
X131428571Y-98178571D01*
X131571428Y-98250000D01*
X131642857Y-98321428D01*
X131714285Y-98464285D01*
X131714285Y-98892857D01*
X131642857Y-99035714D01*
X131571428Y-99107142D01*
X131428571Y-99178571D01*
X131214285Y-99178571D01*
X132357142Y-99178571D02*
X132357142Y-98178571D01*
X132357142Y-98464285D02*
X132428571Y-98321428D01*
X132500000Y-98250000D01*
X132642857Y-98178571D01*
X132785714Y-98178571D01*
X134428571Y-99178571D02*
X134428571Y-97678571D01*
X134785714Y-97678571D01*
X135000000Y-97750000D01*
X135142857Y-97892857D01*
X135214285Y-98035714D01*
X135285714Y-98321428D01*
X135285714Y-98535714D01*
X135214285Y-98821428D01*
X135142857Y-98964285D01*
X135000000Y-99107142D01*
X134785714Y-99178571D01*
X134428571Y-99178571D01*
X164857142Y-99178571D02*
X164857142Y-98178571D01*
X164857142Y-98321428D02*
X164928571Y-98250000D01*
X165071428Y-98178571D01*
X165285714Y-98178571D01*
X165428571Y-98250000D01*
X165500000Y-98392857D01*
X165500000Y-99178571D01*
X165500000Y-98392857D02*
X165571428Y-98250000D01*
X165714285Y-98178571D01*
X165928571Y-98178571D01*
X166071428Y-98250000D01*
X166142857Y-98392857D01*
X166142857Y-99178571D01*
X167071428Y-99178571D02*
X166928571Y-99107142D01*
X166857142Y-99035714D01*
X166785714Y-98892857D01*
X166785714Y-98464285D01*
X166857142Y-98321428D01*
X166928571Y-98250000D01*
X167071428Y-98178571D01*
X167285714Y-98178571D01*
X167428571Y-98250000D01*
X167500000Y-98321428D01*
X167571428Y-98464285D01*
X167571428Y-98892857D01*
X167500000Y-99035714D01*
X167428571Y-99107142D01*
X167285714Y-99178571D01*
X167071428Y-99178571D01*
X168000000Y-98178571D02*
X168571428Y-98178571D01*
X168214285Y-97678571D02*
X168214285Y-98964285D01*
X168285714Y-99107142D01*
X168428571Y-99178571D01*
X168571428Y-99178571D01*
X169285714Y-99178571D02*
X169142857Y-99107142D01*
X169071428Y-99035714D01*
X169000000Y-98892857D01*
X169000000Y-98464285D01*
X169071428Y-98321428D01*
X169142857Y-98250000D01*
X169285714Y-98178571D01*
X169500000Y-98178571D01*
X169642857Y-98250000D01*
X169714285Y-98321428D01*
X169785714Y-98464285D01*
X169785714Y-98892857D01*
X169714285Y-99035714D01*
X169642857Y-99107142D01*
X169500000Y-99178571D01*
X169285714Y-99178571D01*
X170428571Y-99178571D02*
X170428571Y-98178571D01*
X170428571Y-98464285D02*
X170500000Y-98321428D01*
X170571428Y-98250000D01*
X170714285Y-98178571D01*
X170857142Y-98178571D01*
X172500000Y-98392857D02*
X173000000Y-98392857D01*
X173214285Y-99178571D02*
X172500000Y-99178571D01*
X172500000Y-97678571D01*
X173214285Y-97678571D01*
G04 #@! TO.C,U1*
X164857142Y-85928571D02*
X164857142Y-87142857D01*
X164928571Y-87285714D01*
X165000000Y-87357142D01*
X165142857Y-87428571D01*
X165428571Y-87428571D01*
X165571428Y-87357142D01*
X165642857Y-87285714D01*
X165714285Y-87142857D01*
X165714285Y-85928571D01*
X167214285Y-87428571D02*
X166357142Y-87428571D01*
X166785714Y-87428571D02*
X166785714Y-85928571D01*
X166642857Y-86142857D01*
X166500000Y-86285714D01*
X166357142Y-86357142D01*
G04 #@! TO.C,SW1*
X168200000Y-63107142D02*
X168414285Y-63178571D01*
X168771428Y-63178571D01*
X168914285Y-63107142D01*
X168985714Y-63035714D01*
X169057142Y-62892857D01*
X169057142Y-62750000D01*
X168985714Y-62607142D01*
X168914285Y-62535714D01*
X168771428Y-62464285D01*
X168485714Y-62392857D01*
X168342857Y-62321428D01*
X168271428Y-62250000D01*
X168200000Y-62107142D01*
X168200000Y-61964285D01*
X168271428Y-61821428D01*
X168342857Y-61750000D01*
X168485714Y-61678571D01*
X168842857Y-61678571D01*
X169057142Y-61750000D01*
X169557142Y-61678571D02*
X169914285Y-63178571D01*
X170200000Y-62107142D01*
X170485714Y-63178571D01*
X170842857Y-61678571D01*
X172200000Y-63178571D02*
X171342857Y-63178571D01*
X171771428Y-63178571D02*
X171771428Y-61678571D01*
X171628571Y-61892857D01*
X171485714Y-62035714D01*
X171342857Y-62107142D01*
G04 #@! TO.C,D3*
X175678571Y-73357142D02*
X174178571Y-73357142D01*
X174178571Y-73000000D01*
X174250000Y-72785714D01*
X174392857Y-72642857D01*
X174535714Y-72571428D01*
X174821428Y-72500000D01*
X175035714Y-72500000D01*
X175321428Y-72571428D01*
X175464285Y-72642857D01*
X175607142Y-72785714D01*
X175678571Y-73000000D01*
X175678571Y-73357142D01*
X174178571Y-72000000D02*
X174178571Y-71071428D01*
X174750000Y-71571428D01*
X174750000Y-71357142D01*
X174821428Y-71214285D01*
X174892857Y-71142857D01*
X175035714Y-71071428D01*
X175392857Y-71071428D01*
X175535714Y-71142857D01*
X175607142Y-71214285D01*
X175678571Y-71357142D01*
X175678571Y-71785714D01*
X175607142Y-71928571D01*
X175535714Y-72000000D01*
X162970000Y-73178571D02*
X162970000Y-71678571D01*
X163112857Y-72607142D02*
X163541428Y-73178571D01*
X163541428Y-72178571D02*
X162970000Y-72750000D01*
G04 #@! TO.C,C1*
X176735714Y-77750000D02*
X176807142Y-77821428D01*
X176878571Y-78035714D01*
X176878571Y-78178571D01*
X176807142Y-78392857D01*
X176664285Y-78535714D01*
X176521428Y-78607142D01*
X176235714Y-78678571D01*
X176021428Y-78678571D01*
X175735714Y-78607142D01*
X175592857Y-78535714D01*
X175450000Y-78392857D01*
X175378571Y-78178571D01*
X175378571Y-78035714D01*
X175450000Y-77821428D01*
X175521428Y-77750000D01*
X176878571Y-76321428D02*
X176878571Y-77178571D01*
X176878571Y-76750000D02*
X175378571Y-76750000D01*
X175592857Y-76892857D01*
X175735714Y-77035714D01*
X175807142Y-77178571D01*
G04 #@! TO.C,C2*
X176735714Y-83750000D02*
X176807142Y-83821428D01*
X176878571Y-84035714D01*
X176878571Y-84178571D01*
X176807142Y-84392857D01*
X176664285Y-84535714D01*
X176521428Y-84607142D01*
X176235714Y-84678571D01*
X176021428Y-84678571D01*
X175735714Y-84607142D01*
X175592857Y-84535714D01*
X175450000Y-84392857D01*
X175378571Y-84178571D01*
X175378571Y-84035714D01*
X175450000Y-83821428D01*
X175521428Y-83750000D01*
X175521428Y-83178571D02*
X175450000Y-83107142D01*
X175378571Y-82964285D01*
X175378571Y-82607142D01*
X175450000Y-82464285D01*
X175521428Y-82392857D01*
X175664285Y-82321428D01*
X175807142Y-82321428D01*
X176021428Y-82392857D01*
X176878571Y-83250000D01*
X176878571Y-82321428D01*
G04 #@! TO.C,C3*
X131535714Y-88250000D02*
X131607142Y-88321428D01*
X131678571Y-88535714D01*
X131678571Y-88678571D01*
X131607142Y-88892857D01*
X131464285Y-89035714D01*
X131321428Y-89107142D01*
X131035714Y-89178571D01*
X130821428Y-89178571D01*
X130535714Y-89107142D01*
X130392857Y-89035714D01*
X130250000Y-88892857D01*
X130178571Y-88678571D01*
X130178571Y-88535714D01*
X130250000Y-88321428D01*
X130321428Y-88250000D01*
X130178571Y-87750000D02*
X130178571Y-86821428D01*
X130750000Y-87321428D01*
X130750000Y-87107142D01*
X130821428Y-86964285D01*
X130892857Y-86892857D01*
X131035714Y-86821428D01*
X131392857Y-86821428D01*
X131535714Y-86892857D01*
X131607142Y-86964285D01*
X131678571Y-87107142D01*
X131678571Y-87535714D01*
X131607142Y-87678571D01*
X131535714Y-87750000D01*
G04 #@! TO.C,J1*
X185100000Y-44778571D02*
X185100000Y-45850000D01*
X185028571Y-46064285D01*
X184885714Y-46207142D01*
X184671428Y-46278571D01*
X184528571Y-46278571D01*
X186600000Y-46278571D02*
X185742857Y-46278571D01*
X186171428Y-46278571D02*
X186171428Y-44778571D01*
X186028571Y-44992857D01*
X185885714Y-45135714D01*
X185742857Y-45207142D01*
X189398095Y-59242857D02*
X190921904Y-59242857D01*
X190160000Y-60004761D02*
X190160000Y-58480952D01*
X179238095Y-59242857D02*
X180761904Y-59242857D01*
D11*
X182640476Y-58982142D02*
X182640476Y-59815476D01*
X182342857Y-58505952D02*
X182045238Y-59398809D01*
X182819047Y-59398809D01*
X183295238Y-59696428D02*
X183354761Y-59755952D01*
X183295238Y-59815476D01*
X183235714Y-59755952D01*
X183295238Y-59696428D01*
X183295238Y-59815476D01*
X184485714Y-58565476D02*
X183890476Y-58565476D01*
X183830952Y-59160714D01*
X183890476Y-59101190D01*
X184009523Y-59041666D01*
X184307142Y-59041666D01*
X184426190Y-59101190D01*
X184485714Y-59160714D01*
X184545238Y-59279761D01*
X184545238Y-59577380D01*
X184485714Y-59696428D01*
X184426190Y-59755952D01*
X184307142Y-59815476D01*
X184009523Y-59815476D01*
X183890476Y-59755952D01*
X183830952Y-59696428D01*
X185080952Y-59339285D02*
X186033333Y-59339285D01*
X186509523Y-58565476D02*
X187342857Y-58565476D01*
X186807142Y-59815476D01*
X187640476Y-58565476D02*
X188057142Y-59815476D01*
X188473809Y-58565476D01*
D10*
G04 #@! TO.C,D1*
X177078571Y-119207142D02*
X175578571Y-119207142D01*
X175578571Y-118850000D01*
X175650000Y-118635714D01*
X175792857Y-118492857D01*
X175935714Y-118421428D01*
X176221428Y-118350000D01*
X176435714Y-118350000D01*
X176721428Y-118421428D01*
X176864285Y-118492857D01*
X177007142Y-118635714D01*
X177078571Y-118850000D01*
X177078571Y-119207142D01*
X177078571Y-116921428D02*
X177078571Y-117778571D01*
X177078571Y-117350000D02*
X175578571Y-117350000D01*
X175792857Y-117492857D01*
X175935714Y-117635714D01*
X176007142Y-117778571D01*
X168350000Y-118678571D02*
X168350000Y-117178571D01*
X168492857Y-118107142D02*
X168921428Y-118678571D01*
X168921428Y-117678571D02*
X168350000Y-118250000D01*
G04 #@! TO.C,R2*
X127687600Y-110678571D02*
X127187600Y-109964285D01*
X126830457Y-110678571D02*
X126830457Y-109178571D01*
X127401885Y-109178571D01*
X127544742Y-109250000D01*
X127616171Y-109321428D01*
X127687600Y-109464285D01*
X127687600Y-109678571D01*
X127616171Y-109821428D01*
X127544742Y-109892857D01*
X127401885Y-109964285D01*
X126830457Y-109964285D01*
X128259028Y-109321428D02*
X128330457Y-109250000D01*
X128473314Y-109178571D01*
X128830457Y-109178571D01*
X128973314Y-109250000D01*
X129044742Y-109321428D01*
X129116171Y-109464285D01*
X129116171Y-109607142D01*
X129044742Y-109821428D01*
X128187600Y-110678571D01*
X129116171Y-110678571D01*
G04 #@! TO.C,D2*
X124228571Y-119007142D02*
X122728571Y-119007142D01*
X122728571Y-118650000D01*
X122800000Y-118435714D01*
X122942857Y-118292857D01*
X123085714Y-118221428D01*
X123371428Y-118150000D01*
X123585714Y-118150000D01*
X123871428Y-118221428D01*
X124014285Y-118292857D01*
X124157142Y-118435714D01*
X124228571Y-118650000D01*
X124228571Y-119007142D01*
X122871428Y-117578571D02*
X122800000Y-117507142D01*
X122728571Y-117364285D01*
X122728571Y-117007142D01*
X122800000Y-116864285D01*
X122871428Y-116792857D01*
X123014285Y-116721428D01*
X123157142Y-116721428D01*
X123371428Y-116792857D01*
X124228571Y-117650000D01*
X124228571Y-116721428D01*
X131100000Y-118678571D02*
X131100000Y-117178571D01*
X131242857Y-118107142D02*
X131671428Y-118678571D01*
X131671428Y-117678571D02*
X131100000Y-118250000D01*
G04 #@! TO.C,J6*
X136571428Y-118891857D02*
X135428571Y-118891857D01*
X136000000Y-118320428D02*
X136000000Y-119463285D01*
X136571428Y-116428057D02*
X135428571Y-116428057D01*
G04 #@! TO.C,J7*
X158666571Y-67000000D02*
X157166571Y-67000000D01*
X158666571Y-65428571D02*
X157952285Y-65928571D01*
X158666571Y-66285714D02*
X157166571Y-66285714D01*
X157166571Y-65714285D01*
X157238000Y-65571428D01*
X157309428Y-65500000D01*
X157452285Y-65428571D01*
X157666571Y-65428571D01*
X157809428Y-65500000D01*
X157880857Y-65571428D01*
X157952285Y-65714285D01*
X157952285Y-66285714D01*
X158809428Y-65142857D02*
X158809428Y-64000000D01*
X157880857Y-63642857D02*
X157880857Y-63142857D01*
X158666571Y-62928571D02*
X158666571Y-63642857D01*
X157166571Y-63642857D01*
X157166571Y-62928571D01*
G04 #@! TO.C,J9*
X163428571Y-116439142D02*
X164571428Y-116439142D01*
X164107142Y-119595828D02*
X164107142Y-118452971D01*
X164678571Y-119024400D02*
X163535714Y-119024400D01*
G04 #@! TO.C,J8*
X154348571Y-67071428D02*
X152848571Y-67071428D01*
X154348571Y-65500000D02*
X153634285Y-66000000D01*
X154348571Y-66357142D02*
X152848571Y-66357142D01*
X152848571Y-65785714D01*
X152920000Y-65642857D01*
X152991428Y-65571428D01*
X153134285Y-65500000D01*
X153348571Y-65500000D01*
X153491428Y-65571428D01*
X153562857Y-65642857D01*
X153634285Y-65785714D01*
X153634285Y-66357142D01*
X154491428Y-65214285D02*
X154491428Y-64071428D01*
X154348571Y-63714285D02*
X152848571Y-63714285D01*
X152848571Y-63357142D01*
X152920000Y-63142857D01*
X153062857Y-63000000D01*
X153205714Y-62928571D01*
X153491428Y-62857142D01*
X153705714Y-62857142D01*
X153991428Y-62928571D01*
X154134285Y-63000000D01*
X154277142Y-63142857D01*
X154348571Y-63357142D01*
X154348571Y-63714285D01*
D12*
G04 #@! TO.C,R1*
X175190000Y-111130000D02*
X168650000Y-111130000D01*
X168650000Y-113870000D02*
X175190000Y-113870000D01*
X175960000Y-112500000D02*
X175190000Y-112500000D01*
X168650000Y-111130000D02*
X168650000Y-113870000D01*
X175190000Y-113870000D02*
X175190000Y-111130000D01*
X167880000Y-112500000D02*
X168650000Y-112500000D01*
G04 #@! TO.C,J2*
X127000000Y-57000000D02*
X173000000Y-57000000D01*
X176000000Y-54000000D02*
X176000000Y-45000000D01*
X124000000Y-54000000D02*
X124000000Y-45000000D01*
X173000000Y-57000000D02*
G75*
G03*
X176000000Y-54000000I0J3000000D01*
G01*
X124000000Y-54000000D02*
G75*
G03*
X127000000Y-57000000I3000001J1D01*
G01*
G04 #@! TO.C,U2*
X125370000Y-84170000D02*
X135650000Y-84170000D01*
X133160000Y-84110000D02*
X133160000Y-63670000D01*
X135650000Y-63610000D02*
X125370000Y-63610000D01*
X133160000Y-63670000D02*
X131510000Y-63670000D01*
X135650000Y-84170000D02*
X135650000Y-63610000D01*
X125370000Y-63610000D02*
X125370000Y-84170000D01*
X127860000Y-84110000D02*
X133160000Y-84110000D01*
X129510000Y-63670000D02*
X127860000Y-63670000D01*
X127860000Y-63670000D02*
X127860000Y-84110000D01*
X129510000Y-63670000D02*
G75*
G03*
X131510000Y-63670000I1000000J0D01*
G01*
G04 #@! TO.C,G\u002A\u002A\u002A*
G36*
X150529072Y-101189737D02*
G01*
X150671462Y-101021359D01*
X150680358Y-101012293D01*
X150823902Y-100883757D01*
X150968978Y-100788768D01*
X151120685Y-100724764D01*
X151284125Y-100689181D01*
X151334106Y-100683841D01*
X151514335Y-100686207D01*
X151689173Y-100722777D01*
X151856103Y-100791582D01*
X152012606Y-100890654D01*
X152156163Y-101018023D01*
X152284254Y-101171723D01*
X152394362Y-101349785D01*
X152483968Y-101550240D01*
X152499924Y-101594936D01*
X152557695Y-101813591D01*
X152588357Y-102046595D01*
X152592170Y-102285742D01*
X152569392Y-102522825D01*
X152520280Y-102749638D01*
X152457952Y-102928392D01*
X152368885Y-103108907D01*
X152260693Y-103267486D01*
X152133514Y-103408293D01*
X151998949Y-103527452D01*
X151865114Y-103616196D01*
X151724214Y-103679382D01*
X151670386Y-103696770D01*
X151572204Y-103715884D01*
X151454356Y-103724230D01*
X151331201Y-103721948D01*
X151217097Y-103709176D01*
X151142487Y-103691661D01*
X150956798Y-103613601D01*
X150788833Y-103504555D01*
X150639582Y-103365733D01*
X150510037Y-103198347D01*
X150401191Y-103003609D01*
X150314034Y-102782730D01*
X150269306Y-102624990D01*
X150246224Y-102495834D01*
X150232605Y-102344070D01*
X150228563Y-102182152D01*
X150234214Y-102022535D01*
X150249673Y-101877673D01*
X150261772Y-101811643D01*
X150326411Y-101580708D01*
X150327439Y-101578312D01*
X150728420Y-101578312D01*
X150831389Y-101543314D01*
X150959374Y-101517963D01*
X151094372Y-101523641D01*
X151225958Y-101559556D01*
X151263269Y-101576136D01*
X151347334Y-101630166D01*
X151434805Y-101708062D01*
X151516187Y-101799775D01*
X151581982Y-101895258D01*
X151603848Y-101936510D01*
X151661403Y-102094081D01*
X151695866Y-102268478D01*
X151705811Y-102447420D01*
X151689815Y-102618626D01*
X151685527Y-102640786D01*
X151656753Y-102739193D01*
X151611512Y-102848397D01*
X151556567Y-102954382D01*
X151498679Y-103043135D01*
X151480427Y-103065853D01*
X151417059Y-103128404D01*
X151340593Y-103187540D01*
X151262834Y-103235135D01*
X151195587Y-103263064D01*
X151192893Y-103263754D01*
X151152986Y-103278872D01*
X151148320Y-103296249D01*
X151179196Y-103316469D01*
X151229179Y-103334924D01*
X151354442Y-103357514D01*
X151488752Y-103351057D01*
X151620874Y-103316597D01*
X151673841Y-103293615D01*
X151804699Y-103209787D01*
X151923702Y-103095341D01*
X152027085Y-102955032D01*
X152111081Y-102793614D01*
X152148873Y-102693883D01*
X152205590Y-102474687D01*
X152228488Y-102257994D01*
X152218129Y-102036087D01*
X152203747Y-101938053D01*
X152158246Y-101748100D01*
X152092732Y-101576990D01*
X152009712Y-101426602D01*
X151911696Y-101298815D01*
X151801190Y-101195507D01*
X151680704Y-101118559D01*
X151552745Y-101069847D01*
X151419821Y-101051253D01*
X151284440Y-101064654D01*
X151149111Y-101111930D01*
X151120546Y-101126547D01*
X151044687Y-101178244D01*
X150961682Y-101251763D01*
X150881364Y-101336860D01*
X150813564Y-101423287D01*
X150774757Y-101486872D01*
X150728420Y-101578312D01*
X150327439Y-101578312D01*
X150414783Y-101374796D01*
X150529072Y-101189737D01*
G37*
D13*
X150529072Y-101189737D02*
X150671462Y-101021359D01*
X150680358Y-101012293D01*
X150823902Y-100883757D01*
X150968978Y-100788768D01*
X151120685Y-100724764D01*
X151284125Y-100689181D01*
X151334106Y-100683841D01*
X151514335Y-100686207D01*
X151689173Y-100722777D01*
X151856103Y-100791582D01*
X152012606Y-100890654D01*
X152156163Y-101018023D01*
X152284254Y-101171723D01*
X152394362Y-101349785D01*
X152483968Y-101550240D01*
X152499924Y-101594936D01*
X152557695Y-101813591D01*
X152588357Y-102046595D01*
X152592170Y-102285742D01*
X152569392Y-102522825D01*
X152520280Y-102749638D01*
X152457952Y-102928392D01*
X152368885Y-103108907D01*
X152260693Y-103267486D01*
X152133514Y-103408293D01*
X151998949Y-103527452D01*
X151865114Y-103616196D01*
X151724214Y-103679382D01*
X151670386Y-103696770D01*
X151572204Y-103715884D01*
X151454356Y-103724230D01*
X151331201Y-103721948D01*
X151217097Y-103709176D01*
X151142487Y-103691661D01*
X150956798Y-103613601D01*
X150788833Y-103504555D01*
X150639582Y-103365733D01*
X150510037Y-103198347D01*
X150401191Y-103003609D01*
X150314034Y-102782730D01*
X150269306Y-102624990D01*
X150246224Y-102495834D01*
X150232605Y-102344070D01*
X150228563Y-102182152D01*
X150234214Y-102022535D01*
X150249673Y-101877673D01*
X150261772Y-101811643D01*
X150326411Y-101580708D01*
X150327439Y-101578312D01*
X150728420Y-101578312D01*
X150831389Y-101543314D01*
X150959374Y-101517963D01*
X151094372Y-101523641D01*
X151225958Y-101559556D01*
X151263269Y-101576136D01*
X151347334Y-101630166D01*
X151434805Y-101708062D01*
X151516187Y-101799775D01*
X151581982Y-101895258D01*
X151603848Y-101936510D01*
X151661403Y-102094081D01*
X151695866Y-102268478D01*
X151705811Y-102447420D01*
X151689815Y-102618626D01*
X151685527Y-102640786D01*
X151656753Y-102739193D01*
X151611512Y-102848397D01*
X151556567Y-102954382D01*
X151498679Y-103043135D01*
X151480427Y-103065853D01*
X151417059Y-103128404D01*
X151340593Y-103187540D01*
X151262834Y-103235135D01*
X151195587Y-103263064D01*
X151192893Y-103263754D01*
X151152986Y-103278872D01*
X151148320Y-103296249D01*
X151179196Y-103316469D01*
X151229179Y-103334924D01*
X151354442Y-103357514D01*
X151488752Y-103351057D01*
X151620874Y-103316597D01*
X151673841Y-103293615D01*
X151804699Y-103209787D01*
X151923702Y-103095341D01*
X152027085Y-102955032D01*
X152111081Y-102793614D01*
X152148873Y-102693883D01*
X152205590Y-102474687D01*
X152228488Y-102257994D01*
X152218129Y-102036087D01*
X152203747Y-101938053D01*
X152158246Y-101748100D01*
X152092732Y-101576990D01*
X152009712Y-101426602D01*
X151911696Y-101298815D01*
X151801190Y-101195507D01*
X151680704Y-101118559D01*
X151552745Y-101069847D01*
X151419821Y-101051253D01*
X151284440Y-101064654D01*
X151149111Y-101111930D01*
X151120546Y-101126547D01*
X151044687Y-101178244D01*
X150961682Y-101251763D01*
X150881364Y-101336860D01*
X150813564Y-101423287D01*
X150774757Y-101486872D01*
X150728420Y-101578312D01*
X150327439Y-101578312D01*
X150414783Y-101374796D01*
X150529072Y-101189737D01*
G36*
X147454667Y-101869226D02*
G01*
X147502895Y-101658983D01*
X147574444Y-101458795D01*
X147669111Y-101272447D01*
X147786694Y-101103720D01*
X147926990Y-100956398D01*
X148073086Y-100844860D01*
X148243836Y-100754354D01*
X148419901Y-100699592D01*
X148599939Y-100680651D01*
X148782605Y-100697607D01*
X148966558Y-100750534D01*
X149056572Y-100789533D01*
X149161872Y-100853495D01*
X149272394Y-100943722D01*
X149380699Y-101052473D01*
X149479345Y-101172009D01*
X149560893Y-101294589D01*
X149585632Y-101339929D01*
X149663756Y-101506441D01*
X149720717Y-101661801D01*
X149758954Y-101816667D01*
X149780908Y-101981699D01*
X149789017Y-102167556D01*
X149789116Y-102228929D01*
X149787465Y-102345485D01*
X149783409Y-102436307D01*
X149775801Y-102511926D01*
X149763493Y-102582874D01*
X149745339Y-102659679D01*
X149739979Y-102680174D01*
X149668022Y-102897214D01*
X149573279Y-103095144D01*
X149458111Y-103271247D01*
X149324880Y-103422803D01*
X149175946Y-103547096D01*
X149013672Y-103641407D01*
X148854624Y-103699357D01*
X148774347Y-103713496D01*
X148672394Y-103721333D01*
X148562852Y-103722702D01*
X148459809Y-103717431D01*
X148377352Y-103705354D01*
X148376249Y-103705098D01*
X148278582Y-103672473D01*
X148168478Y-103620003D01*
X148058159Y-103554461D01*
X147959846Y-103482623D01*
X147932784Y-103459291D01*
X147787131Y-103304771D01*
X147666424Y-103130046D01*
X147570459Y-102938899D01*
X147499034Y-102735113D01*
X147451945Y-102522470D01*
X147428989Y-102304753D01*
X147429098Y-102280082D01*
X147799529Y-102280082D01*
X147810914Y-102435997D01*
X147834534Y-102572871D01*
X147839075Y-102590733D01*
X147903386Y-102779608D01*
X147988698Y-102947634D01*
X148092559Y-103091791D01*
X148212519Y-103209056D01*
X148346127Y-103296408D01*
X148444904Y-103337632D01*
X148529568Y-103353572D01*
X148631176Y-103355685D01*
X148733480Y-103344806D01*
X148820235Y-103321773D01*
X148829786Y-103317815D01*
X148873379Y-103297771D01*
X148886930Y-103286328D01*
X148873802Y-103277915D01*
X148857000Y-103272728D01*
X148747099Y-103226339D01*
X148638442Y-103154925D01*
X148567491Y-103091512D01*
X148466023Y-102962280D01*
X148390546Y-102813386D01*
X148341076Y-102650506D01*
X148317629Y-102479316D01*
X148320222Y-102305491D01*
X148348870Y-102134708D01*
X148403592Y-101972643D01*
X148484402Y-101824970D01*
X148563567Y-101725544D01*
X148675339Y-101628880D01*
X148800133Y-101561071D01*
X148932399Y-101523733D01*
X149066583Y-101518482D01*
X149188108Y-101543770D01*
X149242629Y-101560251D01*
X149280384Y-101567746D01*
X149292429Y-101565419D01*
X149281419Y-101536914D01*
X149252127Y-101488604D01*
X149210164Y-101427992D01*
X149161138Y-101362586D01*
X149110659Y-101299890D01*
X149064336Y-101247408D01*
X149030271Y-101214649D01*
X148895953Y-101124825D01*
X148757330Y-101070462D01*
X148616921Y-101051378D01*
X148477245Y-101067395D01*
X148340821Y-101118334D01*
X148210166Y-101204015D01*
X148129035Y-101278766D01*
X148027782Y-101405330D01*
X147939518Y-101558841D01*
X147868613Y-101730997D01*
X147838820Y-101829786D01*
X147813477Y-101963807D01*
X147800381Y-102118295D01*
X147799529Y-102280082D01*
X147429098Y-102280082D01*
X147429965Y-102085744D01*
X147454667Y-101869226D01*
G37*
X147454667Y-101869226D02*
X147502895Y-101658983D01*
X147574444Y-101458795D01*
X147669111Y-101272447D01*
X147786694Y-101103720D01*
X147926990Y-100956398D01*
X148073086Y-100844860D01*
X148243836Y-100754354D01*
X148419901Y-100699592D01*
X148599939Y-100680651D01*
X148782605Y-100697607D01*
X148966558Y-100750534D01*
X149056572Y-100789533D01*
X149161872Y-100853495D01*
X149272394Y-100943722D01*
X149380699Y-101052473D01*
X149479345Y-101172009D01*
X149560893Y-101294589D01*
X149585632Y-101339929D01*
X149663756Y-101506441D01*
X149720717Y-101661801D01*
X149758954Y-101816667D01*
X149780908Y-101981699D01*
X149789017Y-102167556D01*
X149789116Y-102228929D01*
X149787465Y-102345485D01*
X149783409Y-102436307D01*
X149775801Y-102511926D01*
X149763493Y-102582874D01*
X149745339Y-102659679D01*
X149739979Y-102680174D01*
X149668022Y-102897214D01*
X149573279Y-103095144D01*
X149458111Y-103271247D01*
X149324880Y-103422803D01*
X149175946Y-103547096D01*
X149013672Y-103641407D01*
X148854624Y-103699357D01*
X148774347Y-103713496D01*
X148672394Y-103721333D01*
X148562852Y-103722702D01*
X148459809Y-103717431D01*
X148377352Y-103705354D01*
X148376249Y-103705098D01*
X148278582Y-103672473D01*
X148168478Y-103620003D01*
X148058159Y-103554461D01*
X147959846Y-103482623D01*
X147932784Y-103459291D01*
X147787131Y-103304771D01*
X147666424Y-103130046D01*
X147570459Y-102938899D01*
X147499034Y-102735113D01*
X147451945Y-102522470D01*
X147428989Y-102304753D01*
X147429098Y-102280082D01*
X147799529Y-102280082D01*
X147810914Y-102435997D01*
X147834534Y-102572871D01*
X147839075Y-102590733D01*
X147903386Y-102779608D01*
X147988698Y-102947634D01*
X148092559Y-103091791D01*
X148212519Y-103209056D01*
X148346127Y-103296408D01*
X148444904Y-103337632D01*
X148529568Y-103353572D01*
X148631176Y-103355685D01*
X148733480Y-103344806D01*
X148820235Y-103321773D01*
X148829786Y-103317815D01*
X148873379Y-103297771D01*
X148886930Y-103286328D01*
X148873802Y-103277915D01*
X148857000Y-103272728D01*
X148747099Y-103226339D01*
X148638442Y-103154925D01*
X148567491Y-103091512D01*
X148466023Y-102962280D01*
X148390546Y-102813386D01*
X148341076Y-102650506D01*
X148317629Y-102479316D01*
X148320222Y-102305491D01*
X148348870Y-102134708D01*
X148403592Y-101972643D01*
X148484402Y-101824970D01*
X148563567Y-101725544D01*
X148675339Y-101628880D01*
X148800133Y-101561071D01*
X148932399Y-101523733D01*
X149066583Y-101518482D01*
X149188108Y-101543770D01*
X149242629Y-101560251D01*
X149280384Y-101567746D01*
X149292429Y-101565419D01*
X149281419Y-101536914D01*
X149252127Y-101488604D01*
X149210164Y-101427992D01*
X149161138Y-101362586D01*
X149110659Y-101299890D01*
X149064336Y-101247408D01*
X149030271Y-101214649D01*
X148895953Y-101124825D01*
X148757330Y-101070462D01*
X148616921Y-101051378D01*
X148477245Y-101067395D01*
X148340821Y-101118334D01*
X148210166Y-101204015D01*
X148129035Y-101278766D01*
X148027782Y-101405330D01*
X147939518Y-101558841D01*
X147868613Y-101730997D01*
X147838820Y-101829786D01*
X147813477Y-101963807D01*
X147800381Y-102118295D01*
X147799529Y-102280082D01*
X147429098Y-102280082D01*
X147429965Y-102085744D01*
X147454667Y-101869226D01*
G36*
X146684767Y-107257237D02*
G01*
X146780345Y-107296215D01*
X146866222Y-107363840D01*
X146912050Y-107420568D01*
X146951980Y-107508045D01*
X146968833Y-107611473D01*
X146961471Y-107717899D01*
X146943728Y-107781077D01*
X146890068Y-107874270D01*
X146812138Y-107947349D01*
X146717389Y-107997231D01*
X146613276Y-108020833D01*
X146507253Y-108015075D01*
X146434929Y-107991484D01*
X146343260Y-107933236D01*
X146268092Y-107853973D01*
X146215432Y-107762162D01*
X146191284Y-107666273D01*
X146190399Y-107646677D01*
X146205117Y-107531735D01*
X146247326Y-107433789D01*
X146311711Y-107354501D01*
X146392961Y-107295538D01*
X146485762Y-107258563D01*
X146584802Y-107245241D01*
X146684767Y-107257237D01*
G37*
X146684767Y-107257237D02*
X146780345Y-107296215D01*
X146866222Y-107363840D01*
X146912050Y-107420568D01*
X146951980Y-107508045D01*
X146968833Y-107611473D01*
X146961471Y-107717899D01*
X146943728Y-107781077D01*
X146890068Y-107874270D01*
X146812138Y-107947349D01*
X146717389Y-107997231D01*
X146613276Y-108020833D01*
X146507253Y-108015075D01*
X146434929Y-107991484D01*
X146343260Y-107933236D01*
X146268092Y-107853973D01*
X146215432Y-107762162D01*
X146191284Y-107666273D01*
X146190399Y-107646677D01*
X146205117Y-107531735D01*
X146247326Y-107433789D01*
X146311711Y-107354501D01*
X146392961Y-107295538D01*
X146485762Y-107258563D01*
X146584802Y-107245241D01*
X146684767Y-107257237D01*
G36*
X145270194Y-106067181D02*
G01*
X145351224Y-105749972D01*
X145466674Y-105442546D01*
X145616320Y-105146175D01*
X145728238Y-104965433D01*
X145798661Y-104866493D01*
X145878922Y-104764904D01*
X145963632Y-104666517D01*
X146047402Y-104577186D01*
X146124842Y-104502762D01*
X146190564Y-104449098D01*
X146221750Y-104429497D01*
X146265372Y-104397779D01*
X146280444Y-104359054D01*
X146280715Y-104351338D01*
X146278926Y-104322481D01*
X146273845Y-104262081D01*
X146265900Y-104174689D01*
X146255520Y-104064857D01*
X146243133Y-103937137D01*
X146229168Y-103796079D01*
X146217863Y-103683744D01*
X146201288Y-103518897D01*
X146184460Y-103349193D01*
X146168113Y-103182215D01*
X146152984Y-103025547D01*
X146139807Y-102886771D01*
X146129317Y-102773468D01*
X146126035Y-102736929D01*
X146115766Y-102600767D01*
X146107447Y-102449520D01*
X146101189Y-102290140D01*
X146097105Y-102129577D01*
X146095901Y-102026008D01*
X146462143Y-102026008D01*
X146462583Y-102110733D01*
X146464095Y-102193646D01*
X146466970Y-102278734D01*
X146471498Y-102369983D01*
X146477969Y-102471379D01*
X146486673Y-102586909D01*
X146497899Y-102720559D01*
X146511939Y-102876316D01*
X146529082Y-103058166D01*
X146549618Y-103270095D01*
X146561395Y-103390072D01*
X146576576Y-103544457D01*
X146591128Y-103692878D01*
X146604539Y-103830074D01*
X146616296Y-103950789D01*
X146625887Y-104049764D01*
X146632799Y-104121742D01*
X146635868Y-104154309D01*
X146647807Y-104283547D01*
X146940511Y-104292946D01*
X147140673Y-104305230D01*
X147337134Y-104329950D01*
X147535234Y-104368544D01*
X147740311Y-104422447D01*
X147957703Y-104493096D01*
X148192750Y-104581929D01*
X148450791Y-104690382D01*
X148503215Y-104713482D01*
X148757215Y-104826149D01*
X148771097Y-104752182D01*
X148819266Y-104569340D01*
X148889762Y-104413783D01*
X148982070Y-104286205D01*
X149095675Y-104187298D01*
X149230062Y-104117755D01*
X149247072Y-104111586D01*
X149355026Y-104086659D01*
X149475993Y-104078977D01*
X149595983Y-104088202D01*
X149701005Y-104113997D01*
X149723512Y-104123098D01*
X149795106Y-104165651D01*
X149871535Y-104228000D01*
X149943652Y-104300887D01*
X150002307Y-104375055D01*
X150038352Y-104441246D01*
X150038617Y-104441973D01*
X150055911Y-104483060D01*
X150069619Y-104504287D01*
X150071681Y-104505114D01*
X150084247Y-104489697D01*
X150105948Y-104450841D01*
X150123079Y-104415954D01*
X150198599Y-104295244D01*
X150298160Y-104198689D01*
X150416936Y-104128460D01*
X150550102Y-104086725D01*
X150692832Y-104075653D01*
X150834867Y-104096010D01*
X150979283Y-104150577D01*
X151105205Y-104234538D01*
X151209772Y-104344542D01*
X151290125Y-104477238D01*
X151343402Y-104629275D01*
X151358742Y-104709708D01*
X151366189Y-104777551D01*
X151368724Y-104835263D01*
X151366186Y-104867896D01*
X151363030Y-104897351D01*
X151368033Y-104905000D01*
X151388194Y-104897342D01*
X151433108Y-104876731D01*
X151495206Y-104846711D01*
X151539077Y-104824897D01*
X151794815Y-104704135D01*
X152056803Y-104594857D01*
X152318989Y-104499008D01*
X152575320Y-104418533D01*
X152819744Y-104355375D01*
X153046209Y-104311480D01*
X153195087Y-104292864D01*
X153347357Y-104279072D01*
X153386899Y-103934358D01*
X153420272Y-103640674D01*
X153449202Y-103379613D01*
X153473968Y-103147820D01*
X153494848Y-102941940D01*
X153512123Y-102758620D01*
X153526069Y-102594503D01*
X153536967Y-102446235D01*
X153545095Y-102310463D01*
X153550731Y-102183831D01*
X153554155Y-102062984D01*
X153555645Y-101944569D01*
X153555762Y-101902358D01*
X153553967Y-101709534D01*
X153547925Y-101545111D01*
X153536893Y-101401373D01*
X153520122Y-101270604D01*
X153496868Y-101145089D01*
X153472452Y-101040726D01*
X153408364Y-100836770D01*
X153322238Y-100646882D01*
X153212888Y-100470311D01*
X153079126Y-100306307D01*
X152919766Y-100154120D01*
X152733621Y-100013000D01*
X152519504Y-99882198D01*
X152276229Y-99760961D01*
X152002608Y-99648542D01*
X151697455Y-99544189D01*
X151359583Y-99447152D01*
X150987805Y-99356681D01*
X150716529Y-99298834D01*
X150611323Y-99277086D01*
X150535124Y-99259669D01*
X150481271Y-99244236D01*
X150443104Y-99228444D01*
X150413965Y-99209946D01*
X150387192Y-99186398D01*
X150381519Y-99180860D01*
X150355639Y-99154156D01*
X150308126Y-99103905D01*
X150241916Y-99033258D01*
X150159947Y-98945370D01*
X150065158Y-98843391D01*
X149960485Y-98730476D01*
X149848866Y-98609777D01*
X149791358Y-98547479D01*
X149679905Y-98426895D01*
X149576030Y-98314931D01*
X149482308Y-98214335D01*
X149401315Y-98127851D01*
X149335629Y-98058227D01*
X149287825Y-98008207D01*
X149260480Y-97980537D01*
X149254986Y-97975808D01*
X149251015Y-97992110D01*
X149250919Y-98039083D01*
X149254223Y-98111374D01*
X149260449Y-98203631D01*
X149269122Y-98310502D01*
X149279765Y-98426633D01*
X149291902Y-98546671D01*
X149305056Y-98665265D01*
X149318752Y-98777061D01*
X149332512Y-98876707D01*
X149338752Y-98917109D01*
X149349296Y-98987053D01*
X149356175Y-99041746D01*
X149358366Y-99072601D01*
X149357731Y-99076318D01*
X149339203Y-99081098D01*
X149294526Y-99089879D01*
X149233388Y-99100986D01*
X149165479Y-99112745D01*
X149100489Y-99123481D01*
X149048106Y-99131522D01*
X149018021Y-99135192D01*
X149016599Y-99135255D01*
X149002619Y-99120332D01*
X148980930Y-99081852D01*
X148966931Y-99052129D01*
X148883263Y-98906722D01*
X148770088Y-98778578D01*
X148681976Y-98706636D01*
X148626436Y-98668569D01*
X148583019Y-98641747D01*
X148559253Y-98630730D01*
X148557202Y-98631037D01*
X148556609Y-98653676D01*
X148566874Y-98704395D01*
X148586192Y-98777271D01*
X148612757Y-98866380D01*
X148644764Y-98965798D01*
X148680406Y-99069603D01*
X148717879Y-99171869D01*
X148737437Y-99222343D01*
X148772730Y-99312119D01*
X148803269Y-99391003D01*
X148826505Y-99452321D01*
X148839889Y-99489394D01*
X148841951Y-99496089D01*
X148831043Y-99511468D01*
X148791064Y-99533260D01*
X148720113Y-99562315D01*
X148616285Y-99599486D01*
X148593929Y-99607115D01*
X148399080Y-99674823D01*
X148229438Y-99737642D01*
X148075036Y-99799585D01*
X147925902Y-99864665D01*
X147772069Y-99936895D01*
X147759357Y-99943056D01*
X147561907Y-100044703D01*
X147391800Y-100145740D01*
X147240662Y-100251957D01*
X147100121Y-100369143D01*
X146988035Y-100476348D01*
X146908290Y-100558232D01*
X146848237Y-100624784D01*
X146800930Y-100685308D01*
X146759419Y-100749107D01*
X146716756Y-100825484D01*
X146692261Y-100872385D01*
X146616326Y-101036508D01*
X146557086Y-101204414D01*
X146513297Y-101382352D01*
X146483709Y-101576575D01*
X146467078Y-101793330D01*
X146462143Y-102026008D01*
X146095901Y-102026008D01*
X146095305Y-101974783D01*
X146095901Y-101832709D01*
X146099005Y-101710306D01*
X146104729Y-101614524D01*
X146107573Y-101586886D01*
X146121574Y-101470985D01*
X146028388Y-101479939D01*
X145973334Y-101486991D01*
X145934606Y-101495216D01*
X145924347Y-101499748D01*
X145917887Y-101520606D01*
X145907336Y-101570806D01*
X145893931Y-101643798D01*
X145878910Y-101733033D01*
X145871574Y-101779168D01*
X145784976Y-102255740D01*
X145676010Y-102722248D01*
X145546021Y-103174760D01*
X145396351Y-103609345D01*
X145228343Y-104022073D01*
X145043341Y-104409011D01*
X144861550Y-104735072D01*
X144691229Y-104996021D01*
X144502121Y-105244952D01*
X144298597Y-105477302D01*
X144085032Y-105688507D01*
X143865797Y-105874007D01*
X143645267Y-106029237D01*
X143587316Y-106064631D01*
X143314064Y-106207288D01*
X143027746Y-106321311D01*
X142734994Y-106404477D01*
X142442437Y-106454565D01*
X142414848Y-106457527D01*
X142271153Y-106456574D01*
X142143217Y-106423020D01*
X142031218Y-106357035D01*
X141935334Y-106258785D01*
X141855741Y-106128441D01*
X141792618Y-105966170D01*
X141758161Y-105832912D01*
X141738306Y-105707307D01*
X141725596Y-105553666D01*
X141720017Y-105379524D01*
X141721555Y-105192418D01*
X141730194Y-104999884D01*
X141745921Y-104809458D01*
X141760358Y-104687231D01*
X141814401Y-104342220D01*
X141884431Y-103989131D01*
X141969127Y-103631204D01*
X142067165Y-103271681D01*
X142177224Y-102913803D01*
X142297979Y-102560812D01*
X142428109Y-102215950D01*
X142566291Y-101882457D01*
X142711203Y-101563576D01*
X142861522Y-101262548D01*
X143015924Y-100982614D01*
X143173089Y-100727015D01*
X143331692Y-100498994D01*
X143490411Y-100301791D01*
X143595854Y-100188827D01*
X143777616Y-100032026D01*
X143981304Y-99903464D01*
X144207691Y-99802727D01*
X144454761Y-99730041D01*
X144601722Y-99705482D01*
X144771113Y-99692268D01*
X144950903Y-99690383D01*
X145129059Y-99699814D01*
X145293550Y-99720543D01*
X145349038Y-99731180D01*
X145605353Y-99797381D01*
X145856411Y-99886309D01*
X146109322Y-100000891D01*
X146371191Y-100144051D01*
X146413469Y-100169245D01*
X146627866Y-100298358D01*
X146781877Y-100152573D01*
X146958273Y-100002609D01*
X147166691Y-99855338D01*
X147402871Y-99713280D01*
X147662549Y-99578955D01*
X147941464Y-99454881D01*
X148007199Y-99428333D01*
X148097284Y-99393003D01*
X148181194Y-99360788D01*
X148250045Y-99335053D01*
X148294954Y-99319165D01*
X148297645Y-99318293D01*
X148364218Y-99297009D01*
X148310670Y-99139183D01*
X148245706Y-98930342D01*
X148202228Y-98750149D01*
X148180251Y-98598730D01*
X148179790Y-98476207D01*
X148200862Y-98382705D01*
X148214118Y-98355491D01*
X148279309Y-98275809D01*
X148362551Y-98226818D01*
X148459966Y-98210286D01*
X148511399Y-98214433D01*
X148566661Y-98228940D01*
X148634924Y-98256913D01*
X148717434Y-98297381D01*
X148887444Y-98384475D01*
X148885829Y-98029773D01*
X148885547Y-97905905D01*
X148886325Y-97812324D01*
X148888675Y-97743037D01*
X148893108Y-97692048D01*
X148900137Y-97653365D01*
X148910273Y-97620992D01*
X148923339Y-97590423D01*
X148956673Y-97533456D01*
X148996106Y-97486491D01*
X149013255Y-97472495D01*
X149079938Y-97446714D01*
X149160450Y-97440581D01*
X149237837Y-97454536D01*
X149264353Y-97465968D01*
X149286043Y-97484140D01*
X149329816Y-97526423D01*
X149393178Y-97590228D01*
X149473639Y-97672968D01*
X149568707Y-97772054D01*
X149675890Y-97884899D01*
X149792695Y-98008915D01*
X149916632Y-98141513D01*
X149967656Y-98196388D01*
X150095519Y-98333487D01*
X150216112Y-98461592D01*
X150327085Y-98578288D01*
X150426093Y-98681159D01*
X150510788Y-98767793D01*
X150578823Y-98835774D01*
X150627850Y-98882688D01*
X150655523Y-98906120D01*
X150659735Y-98908328D01*
X150690787Y-98914914D01*
X150749896Y-98927417D01*
X150829616Y-98944263D01*
X150922502Y-98963879D01*
X150961572Y-98972126D01*
X151380578Y-99069691D01*
X151765781Y-99178356D01*
X152117058Y-99298065D01*
X152434283Y-99428762D01*
X152717331Y-99570389D01*
X152966078Y-99722892D01*
X153180400Y-99886213D01*
X153352925Y-100052340D01*
X153463234Y-100172723D01*
X153642096Y-100062808D01*
X153936696Y-99899123D01*
X154239164Y-99764507D01*
X154543602Y-99661386D01*
X154735720Y-99613258D01*
X154816401Y-99598679D01*
X154904327Y-99588929D01*
X155008131Y-99583406D01*
X155136450Y-99581505D01*
X155188857Y-99581585D01*
X155307680Y-99582793D01*
X155399440Y-99585777D01*
X155473354Y-99591484D01*
X155538636Y-99600861D01*
X155604500Y-99614857D01*
X155666254Y-99630670D01*
X155875460Y-99695919D01*
X156060867Y-99774918D01*
X156228244Y-99871726D01*
X156383362Y-99990403D01*
X156531993Y-100135008D01*
X156679908Y-100309602D01*
X156736082Y-100383249D01*
X156905863Y-100628331D01*
X157072061Y-100901041D01*
X157233461Y-101197558D01*
X157388849Y-101514061D01*
X157537008Y-101846729D01*
X157676725Y-102191739D01*
X157806783Y-102545270D01*
X157925969Y-102903502D01*
X158033065Y-103262611D01*
X158126858Y-103618777D01*
X158206133Y-103968179D01*
X158269673Y-104306994D01*
X158316265Y-104631402D01*
X158344692Y-104937580D01*
X158353740Y-105221708D01*
X158345223Y-105443846D01*
X158319898Y-105661278D01*
X158279426Y-105846744D01*
X158223222Y-106001513D01*
X158150700Y-106126857D01*
X158061274Y-106224045D01*
X157954357Y-106294347D01*
X157952339Y-106295340D01*
X157890097Y-106322452D01*
X157833310Y-106337120D01*
X157766079Y-106342479D01*
X157713187Y-106342518D01*
X157553032Y-106329877D01*
X157372533Y-106297944D01*
X157180380Y-106249192D01*
X156985261Y-106186093D01*
X156795867Y-106111118D01*
X156641369Y-106037560D01*
X156367576Y-105875066D01*
X156104393Y-105678983D01*
X155853503Y-105450891D01*
X155616585Y-105192370D01*
X155395322Y-104905000D01*
X155320723Y-104796143D01*
X155117369Y-104463298D01*
X154928732Y-104099759D01*
X154755849Y-103708441D01*
X154599757Y-103292258D01*
X154461493Y-102854127D01*
X154342093Y-102396960D01*
X154242594Y-101923673D01*
X154190820Y-101619983D01*
X154177307Y-101532300D01*
X154166096Y-101458124D01*
X154158239Y-101404520D01*
X154154788Y-101378553D01*
X154154715Y-101377426D01*
X154138129Y-101372287D01*
X154094587Y-101368600D01*
X154033411Y-101367144D01*
X154031631Y-101367143D01*
X153908547Y-101367143D01*
X153924116Y-101544036D01*
X153931999Y-101671633D01*
X153934760Y-101819244D01*
X153932278Y-101988738D01*
X153924432Y-102181988D01*
X153911101Y-102400863D01*
X153892165Y-102647234D01*
X153867503Y-102922973D01*
X153836994Y-103229948D01*
X153800517Y-103570032D01*
X153783431Y-103722804D01*
X153767946Y-103862649D01*
X153754362Y-103990920D01*
X153743101Y-104103176D01*
X153734586Y-104194974D01*
X153729237Y-104261874D01*
X153727476Y-104299434D01*
X153728091Y-104305855D01*
X153750242Y-104318180D01*
X153793739Y-104330383D01*
X153805264Y-104332646D01*
X153852981Y-104346232D01*
X153920819Y-104371716D01*
X153996629Y-104404405D01*
X154022814Y-104416687D01*
X154093833Y-104452814D01*
X154150022Y-104487927D01*
X154201173Y-104529835D01*
X154257075Y-104586345D01*
X154311351Y-104646806D01*
X154513026Y-104903135D01*
X154684190Y-105176966D01*
X154824512Y-105465660D01*
X154933660Y-105766576D01*
X155011306Y-106077073D01*
X155057117Y-106394511D01*
X155070764Y-106716249D01*
X155051916Y-107039647D01*
X155000241Y-107362064D01*
X154915411Y-107680859D01*
X154797093Y-107993393D01*
X154744616Y-108107215D01*
X154586612Y-108394240D01*
X154404029Y-108655410D01*
X154198595Y-108889860D01*
X153972039Y-109096726D01*
X153726090Y-109275143D01*
X153462477Y-109424245D01*
X153182929Y-109543169D01*
X152889175Y-109631049D01*
X152582944Y-109687021D01*
X152265965Y-109710219D01*
X151939966Y-109699780D01*
X151638825Y-109660653D01*
X151354010Y-109599124D01*
X151059116Y-109514379D01*
X150765880Y-109410531D01*
X150486038Y-109291693D01*
X150258076Y-109176830D01*
X150144224Y-109114324D01*
X149927564Y-109222933D01*
X149630130Y-109362470D01*
X149344380Y-109475974D01*
X149060614Y-109566730D01*
X148769133Y-109638022D01*
X148612072Y-109668353D01*
X148516792Y-109681251D01*
X148395914Y-109691680D01*
X148259124Y-109699363D01*
X148116108Y-109704025D01*
X147976551Y-109705389D01*
X147850140Y-109703179D01*
X147746562Y-109697118D01*
X147716462Y-109693906D01*
X147406918Y-109637376D01*
X147110689Y-109548079D01*
X146829485Y-109427628D01*
X146565013Y-109277636D01*
X146318984Y-109099715D01*
X146093105Y-108895478D01*
X145889085Y-108666538D01*
X145708633Y-108414508D01*
X145553458Y-108140999D01*
X145425268Y-107847625D01*
X145325773Y-107535998D01*
X145294796Y-107408423D01*
X145235887Y-107064795D01*
X145212300Y-106725864D01*
X145212733Y-106713320D01*
X145583302Y-106713320D01*
X145601466Y-107017574D01*
X145651612Y-107316784D01*
X145733059Y-107607945D01*
X145845130Y-107888053D01*
X145987144Y-108154105D01*
X146158423Y-108403097D01*
X146358288Y-108632024D01*
X146370464Y-108644343D01*
X146573854Y-108829628D01*
X146784103Y-108982139D01*
X147006837Y-109105363D01*
X147247679Y-109202791D01*
X147296715Y-109218917D01*
X147439792Y-109261147D01*
X147574348Y-109293167D01*
X147711687Y-109316950D01*
X147863115Y-109334470D01*
X148031500Y-109347183D01*
X148063372Y-109346616D01*
X148122689Y-109343388D01*
X148200752Y-109338039D01*
X148282210Y-109331660D01*
X148616521Y-109287134D01*
X148956406Y-109209157D01*
X149297264Y-109099112D01*
X149634497Y-108958378D01*
X149804965Y-108874529D01*
X149945572Y-108801671D01*
X149945806Y-108717514D01*
X149945163Y-108676758D01*
X149943210Y-108603917D01*
X149940103Y-108503164D01*
X149935997Y-108378671D01*
X149931050Y-108234609D01*
X149925418Y-108075152D01*
X149919256Y-107904470D01*
X149912721Y-107726736D01*
X149905970Y-107546121D01*
X149899158Y-107366798D01*
X149892442Y-107192939D01*
X149885977Y-107028715D01*
X149879922Y-106878299D01*
X149874430Y-106745862D01*
X149869660Y-106635576D01*
X149868126Y-106602497D01*
X150279784Y-106602497D01*
X150280224Y-106733476D01*
X150281512Y-106884219D01*
X150283599Y-107051425D01*
X150286434Y-107231794D01*
X150289968Y-107422023D01*
X150294153Y-107618813D01*
X150298937Y-107818861D01*
X150304273Y-108018868D01*
X150310111Y-108215531D01*
X150316400Y-108405551D01*
X150319802Y-108499806D01*
X150331037Y-108801682D01*
X150578268Y-108919866D01*
X150719085Y-108986136D01*
X150838092Y-109039321D01*
X150945482Y-109083441D01*
X151051448Y-109122516D01*
X151166184Y-109160564D01*
X151270000Y-109192621D01*
X151576979Y-109272189D01*
X151871512Y-109320840D01*
X152159384Y-109339031D01*
X152446383Y-109327220D01*
X152648857Y-109301506D01*
X152928727Y-109238805D01*
X153193768Y-109143842D01*
X153442569Y-109018070D01*
X153673720Y-108862941D01*
X153885807Y-108679908D01*
X154077420Y-108470423D01*
X154247146Y-108235939D01*
X154393574Y-107977909D01*
X154515291Y-107697785D01*
X154610887Y-107397020D01*
X154647149Y-107245429D01*
X154661810Y-107172116D01*
X154672576Y-107103398D01*
X154680014Y-107031474D01*
X154684692Y-106948542D01*
X154687177Y-106846801D01*
X154688037Y-106718450D01*
X154688065Y-106683000D01*
X154687495Y-106546732D01*
X154685419Y-106439032D01*
X154681282Y-106352195D01*
X154674529Y-106278516D01*
X154664609Y-106210289D01*
X154650967Y-106139811D01*
X154648059Y-106126225D01*
X154569022Y-105834718D01*
X154461873Y-105556846D01*
X154328809Y-105296966D01*
X154172026Y-105059437D01*
X154016200Y-104872382D01*
X153955660Y-104810886D01*
X153903570Y-104769113D01*
X153846360Y-104737945D01*
X153773715Y-104709423D01*
X153715286Y-104689620D01*
X153664142Y-104676094D01*
X153611049Y-104667729D01*
X153546773Y-104663405D01*
X153462079Y-104662003D01*
X153383643Y-104662174D01*
X153218522Y-104668117D01*
X153056922Y-104684988D01*
X152892576Y-104714237D01*
X152719220Y-104757316D01*
X152530587Y-104815678D01*
X152320413Y-104890774D01*
X152204357Y-104935417D01*
X152114941Y-104972068D01*
X152010230Y-105017556D01*
X151895344Y-105069398D01*
X151775402Y-105125110D01*
X151655522Y-105182211D01*
X151540824Y-105238217D01*
X151436428Y-105290646D01*
X151347453Y-105337013D01*
X151279017Y-105374838D01*
X151236239Y-105401635D01*
X151226451Y-105409718D01*
X151204017Y-105438040D01*
X151168303Y-105488369D01*
X151125384Y-105552020D01*
X151103617Y-105585357D01*
X151032683Y-105682542D01*
X150938865Y-105792496D01*
X150829483Y-105907881D01*
X150711860Y-106021362D01*
X150593316Y-106125601D01*
X150481174Y-106213262D01*
X150466811Y-106223506D01*
X150399623Y-106270133D01*
X150342409Y-106308607D01*
X150302250Y-106334237D01*
X150287488Y-106342243D01*
X150284043Y-106361155D01*
X150281644Y-106413036D01*
X150280241Y-106494583D01*
X150279784Y-106602497D01*
X149868126Y-106602497D01*
X149865766Y-106551614D01*
X149862906Y-106498148D01*
X149862387Y-106490260D01*
X149851983Y-106342877D01*
X149694670Y-106236597D01*
X149613432Y-106176246D01*
X149519057Y-106097363D01*
X149417986Y-106006215D01*
X149316664Y-105909070D01*
X149221532Y-105812197D01*
X149139034Y-105721863D01*
X149075612Y-105644336D01*
X149053223Y-105612572D01*
X149007603Y-105539178D01*
X148960615Y-105458475D01*
X148935744Y-105413000D01*
X148915858Y-105376373D01*
X148896561Y-105347414D01*
X148872469Y-105322219D01*
X148838201Y-105296884D01*
X148788371Y-105267505D01*
X148717596Y-105230178D01*
X148620493Y-105180998D01*
X148605271Y-105173337D01*
X148294893Y-105026066D01*
X147997679Y-104902964D01*
X147715185Y-104804381D01*
X147448968Y-104730666D01*
X147200585Y-104682171D01*
X146971594Y-104659245D01*
X146763551Y-104662237D01*
X146578014Y-104691499D01*
X146525643Y-104705857D01*
X146463228Y-104726823D01*
X146414293Y-104749973D01*
X146368723Y-104782065D01*
X146316400Y-104829856D01*
X146269993Y-104876624D01*
X146118153Y-105053759D01*
X145978727Y-105258799D01*
X145856111Y-105484263D01*
X145754698Y-105722668D01*
X145727489Y-105800326D01*
X145645635Y-106101692D01*
X145597799Y-106407024D01*
X145583302Y-106713320D01*
X145212733Y-106713320D01*
X145223811Y-106392902D01*
X145270194Y-106067181D01*
G37*
X145270194Y-106067181D02*
X145351224Y-105749972D01*
X145466674Y-105442546D01*
X145616320Y-105146175D01*
X145728238Y-104965433D01*
X145798661Y-104866493D01*
X145878922Y-104764904D01*
X145963632Y-104666517D01*
X146047402Y-104577186D01*
X146124842Y-104502762D01*
X146190564Y-104449098D01*
X146221750Y-104429497D01*
X146265372Y-104397779D01*
X146280444Y-104359054D01*
X146280715Y-104351338D01*
X146278926Y-104322481D01*
X146273845Y-104262081D01*
X146265900Y-104174689D01*
X146255520Y-104064857D01*
X146243133Y-103937137D01*
X146229168Y-103796079D01*
X146217863Y-103683744D01*
X146201288Y-103518897D01*
X146184460Y-103349193D01*
X146168113Y-103182215D01*
X146152984Y-103025547D01*
X146139807Y-102886771D01*
X146129317Y-102773468D01*
X146126035Y-102736929D01*
X146115766Y-102600767D01*
X146107447Y-102449520D01*
X146101189Y-102290140D01*
X146097105Y-102129577D01*
X146095901Y-102026008D01*
X146462143Y-102026008D01*
X146462583Y-102110733D01*
X146464095Y-102193646D01*
X146466970Y-102278734D01*
X146471498Y-102369983D01*
X146477969Y-102471379D01*
X146486673Y-102586909D01*
X146497899Y-102720559D01*
X146511939Y-102876316D01*
X146529082Y-103058166D01*
X146549618Y-103270095D01*
X146561395Y-103390072D01*
X146576576Y-103544457D01*
X146591128Y-103692878D01*
X146604539Y-103830074D01*
X146616296Y-103950789D01*
X146625887Y-104049764D01*
X146632799Y-104121742D01*
X146635868Y-104154309D01*
X146647807Y-104283547D01*
X146940511Y-104292946D01*
X147140673Y-104305230D01*
X147337134Y-104329950D01*
X147535234Y-104368544D01*
X147740311Y-104422447D01*
X147957703Y-104493096D01*
X148192750Y-104581929D01*
X148450791Y-104690382D01*
X148503215Y-104713482D01*
X148757215Y-104826149D01*
X148771097Y-104752182D01*
X148819266Y-104569340D01*
X148889762Y-104413783D01*
X148982070Y-104286205D01*
X149095675Y-104187298D01*
X149230062Y-104117755D01*
X149247072Y-104111586D01*
X149355026Y-104086659D01*
X149475993Y-104078977D01*
X149595983Y-104088202D01*
X149701005Y-104113997D01*
X149723512Y-104123098D01*
X149795106Y-104165651D01*
X149871535Y-104228000D01*
X149943652Y-104300887D01*
X150002307Y-104375055D01*
X150038352Y-104441246D01*
X150038617Y-104441973D01*
X150055911Y-104483060D01*
X150069619Y-104504287D01*
X150071681Y-104505114D01*
X150084247Y-104489697D01*
X150105948Y-104450841D01*
X150123079Y-104415954D01*
X150198599Y-104295244D01*
X150298160Y-104198689D01*
X150416936Y-104128460D01*
X150550102Y-104086725D01*
X150692832Y-104075653D01*
X150834867Y-104096010D01*
X150979283Y-104150577D01*
X151105205Y-104234538D01*
X151209772Y-104344542D01*
X151290125Y-104477238D01*
X151343402Y-104629275D01*
X151358742Y-104709708D01*
X151366189Y-104777551D01*
X151368724Y-104835263D01*
X151366186Y-104867896D01*
X151363030Y-104897351D01*
X151368033Y-104905000D01*
X151388194Y-104897342D01*
X151433108Y-104876731D01*
X151495206Y-104846711D01*
X151539077Y-104824897D01*
X151794815Y-104704135D01*
X152056803Y-104594857D01*
X152318989Y-104499008D01*
X152575320Y-104418533D01*
X152819744Y-104355375D01*
X153046209Y-104311480D01*
X153195087Y-104292864D01*
X153347357Y-104279072D01*
X153386899Y-103934358D01*
X153420272Y-103640674D01*
X153449202Y-103379613D01*
X153473968Y-103147820D01*
X153494848Y-102941940D01*
X153512123Y-102758620D01*
X153526069Y-102594503D01*
X153536967Y-102446235D01*
X153545095Y-102310463D01*
X153550731Y-102183831D01*
X153554155Y-102062984D01*
X153555645Y-101944569D01*
X153555762Y-101902358D01*
X153553967Y-101709534D01*
X153547925Y-101545111D01*
X153536893Y-101401373D01*
X153520122Y-101270604D01*
X153496868Y-101145089D01*
X153472452Y-101040726D01*
X153408364Y-100836770D01*
X153322238Y-100646882D01*
X153212888Y-100470311D01*
X153079126Y-100306307D01*
X152919766Y-100154120D01*
X152733621Y-100013000D01*
X152519504Y-99882198D01*
X152276229Y-99760961D01*
X152002608Y-99648542D01*
X151697455Y-99544189D01*
X151359583Y-99447152D01*
X150987805Y-99356681D01*
X150716529Y-99298834D01*
X150611323Y-99277086D01*
X150535124Y-99259669D01*
X150481271Y-99244236D01*
X150443104Y-99228444D01*
X150413965Y-99209946D01*
X150387192Y-99186398D01*
X150381519Y-99180860D01*
X150355639Y-99154156D01*
X150308126Y-99103905D01*
X150241916Y-99033258D01*
X150159947Y-98945370D01*
X150065158Y-98843391D01*
X149960485Y-98730476D01*
X149848866Y-98609777D01*
X149791358Y-98547479D01*
X149679905Y-98426895D01*
X149576030Y-98314931D01*
X149482308Y-98214335D01*
X149401315Y-98127851D01*
X149335629Y-98058227D01*
X149287825Y-98008207D01*
X149260480Y-97980537D01*
X149254986Y-97975808D01*
X149251015Y-97992110D01*
X149250919Y-98039083D01*
X149254223Y-98111374D01*
X149260449Y-98203631D01*
X149269122Y-98310502D01*
X149279765Y-98426633D01*
X149291902Y-98546671D01*
X149305056Y-98665265D01*
X149318752Y-98777061D01*
X149332512Y-98876707D01*
X149338752Y-98917109D01*
X149349296Y-98987053D01*
X149356175Y-99041746D01*
X149358366Y-99072601D01*
X149357731Y-99076318D01*
X149339203Y-99081098D01*
X149294526Y-99089879D01*
X149233388Y-99100986D01*
X149165479Y-99112745D01*
X149100489Y-99123481D01*
X149048106Y-99131522D01*
X149018021Y-99135192D01*
X149016599Y-99135255D01*
X149002619Y-99120332D01*
X148980930Y-99081852D01*
X148966931Y-99052129D01*
X148883263Y-98906722D01*
X148770088Y-98778578D01*
X148681976Y-98706636D01*
X148626436Y-98668569D01*
X148583019Y-98641747D01*
X148559253Y-98630730D01*
X148557202Y-98631037D01*
X148556609Y-98653676D01*
X148566874Y-98704395D01*
X148586192Y-98777271D01*
X148612757Y-98866380D01*
X148644764Y-98965798D01*
X148680406Y-99069603D01*
X148717879Y-99171869D01*
X148737437Y-99222343D01*
X148772730Y-99312119D01*
X148803269Y-99391003D01*
X148826505Y-99452321D01*
X148839889Y-99489394D01*
X148841951Y-99496089D01*
X148831043Y-99511468D01*
X148791064Y-99533260D01*
X148720113Y-99562315D01*
X148616285Y-99599486D01*
X148593929Y-99607115D01*
X148399080Y-99674823D01*
X148229438Y-99737642D01*
X148075036Y-99799585D01*
X147925902Y-99864665D01*
X147772069Y-99936895D01*
X147759357Y-99943056D01*
X147561907Y-100044703D01*
X147391800Y-100145740D01*
X147240662Y-100251957D01*
X147100121Y-100369143D01*
X146988035Y-100476348D01*
X146908290Y-100558232D01*
X146848237Y-100624784D01*
X146800930Y-100685308D01*
X146759419Y-100749107D01*
X146716756Y-100825484D01*
X146692261Y-100872385D01*
X146616326Y-101036508D01*
X146557086Y-101204414D01*
X146513297Y-101382352D01*
X146483709Y-101576575D01*
X146467078Y-101793330D01*
X146462143Y-102026008D01*
X146095901Y-102026008D01*
X146095305Y-101974783D01*
X146095901Y-101832709D01*
X146099005Y-101710306D01*
X146104729Y-101614524D01*
X146107573Y-101586886D01*
X146121574Y-101470985D01*
X146028388Y-101479939D01*
X145973334Y-101486991D01*
X145934606Y-101495216D01*
X145924347Y-101499748D01*
X145917887Y-101520606D01*
X145907336Y-101570806D01*
X145893931Y-101643798D01*
X145878910Y-101733033D01*
X145871574Y-101779168D01*
X145784976Y-102255740D01*
X145676010Y-102722248D01*
X145546021Y-103174760D01*
X145396351Y-103609345D01*
X145228343Y-104022073D01*
X145043341Y-104409011D01*
X144861550Y-104735072D01*
X144691229Y-104996021D01*
X144502121Y-105244952D01*
X144298597Y-105477302D01*
X144085032Y-105688507D01*
X143865797Y-105874007D01*
X143645267Y-106029237D01*
X143587316Y-106064631D01*
X143314064Y-106207288D01*
X143027746Y-106321311D01*
X142734994Y-106404477D01*
X142442437Y-106454565D01*
X142414848Y-106457527D01*
X142271153Y-106456574D01*
X142143217Y-106423020D01*
X142031218Y-106357035D01*
X141935334Y-106258785D01*
X141855741Y-106128441D01*
X141792618Y-105966170D01*
X141758161Y-105832912D01*
X141738306Y-105707307D01*
X141725596Y-105553666D01*
X141720017Y-105379524D01*
X141721555Y-105192418D01*
X141730194Y-104999884D01*
X141745921Y-104809458D01*
X141760358Y-104687231D01*
X141814401Y-104342220D01*
X141884431Y-103989131D01*
X141969127Y-103631204D01*
X142067165Y-103271681D01*
X142177224Y-102913803D01*
X142297979Y-102560812D01*
X142428109Y-102215950D01*
X142566291Y-101882457D01*
X142711203Y-101563576D01*
X142861522Y-101262548D01*
X143015924Y-100982614D01*
X143173089Y-100727015D01*
X143331692Y-100498994D01*
X143490411Y-100301791D01*
X143595854Y-100188827D01*
X143777616Y-100032026D01*
X143981304Y-99903464D01*
X144207691Y-99802727D01*
X144454761Y-99730041D01*
X144601722Y-99705482D01*
X144771113Y-99692268D01*
X144950903Y-99690383D01*
X145129059Y-99699814D01*
X145293550Y-99720543D01*
X145349038Y-99731180D01*
X145605353Y-99797381D01*
X145856411Y-99886309D01*
X146109322Y-100000891D01*
X146371191Y-100144051D01*
X146413469Y-100169245D01*
X146627866Y-100298358D01*
X146781877Y-100152573D01*
X146958273Y-100002609D01*
X147166691Y-99855338D01*
X147402871Y-99713280D01*
X147662549Y-99578955D01*
X147941464Y-99454881D01*
X148007199Y-99428333D01*
X148097284Y-99393003D01*
X148181194Y-99360788D01*
X148250045Y-99335053D01*
X148294954Y-99319165D01*
X148297645Y-99318293D01*
X148364218Y-99297009D01*
X148310670Y-99139183D01*
X148245706Y-98930342D01*
X148202228Y-98750149D01*
X148180251Y-98598730D01*
X148179790Y-98476207D01*
X148200862Y-98382705D01*
X148214118Y-98355491D01*
X148279309Y-98275809D01*
X148362551Y-98226818D01*
X148459966Y-98210286D01*
X148511399Y-98214433D01*
X148566661Y-98228940D01*
X148634924Y-98256913D01*
X148717434Y-98297381D01*
X148887444Y-98384475D01*
X148885829Y-98029773D01*
X148885547Y-97905905D01*
X148886325Y-97812324D01*
X148888675Y-97743037D01*
X148893108Y-97692048D01*
X148900137Y-97653365D01*
X148910273Y-97620992D01*
X148923339Y-97590423D01*
X148956673Y-97533456D01*
X148996106Y-97486491D01*
X149013255Y-97472495D01*
X149079938Y-97446714D01*
X149160450Y-97440581D01*
X149237837Y-97454536D01*
X149264353Y-97465968D01*
X149286043Y-97484140D01*
X149329816Y-97526423D01*
X149393178Y-97590228D01*
X149473639Y-97672968D01*
X149568707Y-97772054D01*
X149675890Y-97884899D01*
X149792695Y-98008915D01*
X149916632Y-98141513D01*
X149967656Y-98196388D01*
X150095519Y-98333487D01*
X150216112Y-98461592D01*
X150327085Y-98578288D01*
X150426093Y-98681159D01*
X150510788Y-98767793D01*
X150578823Y-98835774D01*
X150627850Y-98882688D01*
X150655523Y-98906120D01*
X150659735Y-98908328D01*
X150690787Y-98914914D01*
X150749896Y-98927417D01*
X150829616Y-98944263D01*
X150922502Y-98963879D01*
X150961572Y-98972126D01*
X151380578Y-99069691D01*
X151765781Y-99178356D01*
X152117058Y-99298065D01*
X152434283Y-99428762D01*
X152717331Y-99570389D01*
X152966078Y-99722892D01*
X153180400Y-99886213D01*
X153352925Y-100052340D01*
X153463234Y-100172723D01*
X153642096Y-100062808D01*
X153936696Y-99899123D01*
X154239164Y-99764507D01*
X154543602Y-99661386D01*
X154735720Y-99613258D01*
X154816401Y-99598679D01*
X154904327Y-99588929D01*
X155008131Y-99583406D01*
X155136450Y-99581505D01*
X155188857Y-99581585D01*
X155307680Y-99582793D01*
X155399440Y-99585777D01*
X155473354Y-99591484D01*
X155538636Y-99600861D01*
X155604500Y-99614857D01*
X155666254Y-99630670D01*
X155875460Y-99695919D01*
X156060867Y-99774918D01*
X156228244Y-99871726D01*
X156383362Y-99990403D01*
X156531993Y-100135008D01*
X156679908Y-100309602D01*
X156736082Y-100383249D01*
X156905863Y-100628331D01*
X157072061Y-100901041D01*
X157233461Y-101197558D01*
X157388849Y-101514061D01*
X157537008Y-101846729D01*
X157676725Y-102191739D01*
X157806783Y-102545270D01*
X157925969Y-102903502D01*
X158033065Y-103262611D01*
X158126858Y-103618777D01*
X158206133Y-103968179D01*
X158269673Y-104306994D01*
X158316265Y-104631402D01*
X158344692Y-104937580D01*
X158353740Y-105221708D01*
X158345223Y-105443846D01*
X158319898Y-105661278D01*
X158279426Y-105846744D01*
X158223222Y-106001513D01*
X158150700Y-106126857D01*
X158061274Y-106224045D01*
X157954357Y-106294347D01*
X157952339Y-106295340D01*
X157890097Y-106322452D01*
X157833310Y-106337120D01*
X157766079Y-106342479D01*
X157713187Y-106342518D01*
X157553032Y-106329877D01*
X157372533Y-106297944D01*
X157180380Y-106249192D01*
X156985261Y-106186093D01*
X156795867Y-106111118D01*
X156641369Y-106037560D01*
X156367576Y-105875066D01*
X156104393Y-105678983D01*
X155853503Y-105450891D01*
X155616585Y-105192370D01*
X155395322Y-104905000D01*
X155320723Y-104796143D01*
X155117369Y-104463298D01*
X154928732Y-104099759D01*
X154755849Y-103708441D01*
X154599757Y-103292258D01*
X154461493Y-102854127D01*
X154342093Y-102396960D01*
X154242594Y-101923673D01*
X154190820Y-101619983D01*
X154177307Y-101532300D01*
X154166096Y-101458124D01*
X154158239Y-101404520D01*
X154154788Y-101378553D01*
X154154715Y-101377426D01*
X154138129Y-101372287D01*
X154094587Y-101368600D01*
X154033411Y-101367144D01*
X154031631Y-101367143D01*
X153908547Y-101367143D01*
X153924116Y-101544036D01*
X153931999Y-101671633D01*
X153934760Y-101819244D01*
X153932278Y-101988738D01*
X153924432Y-102181988D01*
X153911101Y-102400863D01*
X153892165Y-102647234D01*
X153867503Y-102922973D01*
X153836994Y-103229948D01*
X153800517Y-103570032D01*
X153783431Y-103722804D01*
X153767946Y-103862649D01*
X153754362Y-103990920D01*
X153743101Y-104103176D01*
X153734586Y-104194974D01*
X153729237Y-104261874D01*
X153727476Y-104299434D01*
X153728091Y-104305855D01*
X153750242Y-104318180D01*
X153793739Y-104330383D01*
X153805264Y-104332646D01*
X153852981Y-104346232D01*
X153920819Y-104371716D01*
X153996629Y-104404405D01*
X154022814Y-104416687D01*
X154093833Y-104452814D01*
X154150022Y-104487927D01*
X154201173Y-104529835D01*
X154257075Y-104586345D01*
X154311351Y-104646806D01*
X154513026Y-104903135D01*
X154684190Y-105176966D01*
X154824512Y-105465660D01*
X154933660Y-105766576D01*
X155011306Y-106077073D01*
X155057117Y-106394511D01*
X155070764Y-106716249D01*
X155051916Y-107039647D01*
X155000241Y-107362064D01*
X154915411Y-107680859D01*
X154797093Y-107993393D01*
X154744616Y-108107215D01*
X154586612Y-108394240D01*
X154404029Y-108655410D01*
X154198595Y-108889860D01*
X153972039Y-109096726D01*
X153726090Y-109275143D01*
X153462477Y-109424245D01*
X153182929Y-109543169D01*
X152889175Y-109631049D01*
X152582944Y-109687021D01*
X152265965Y-109710219D01*
X151939966Y-109699780D01*
X151638825Y-109660653D01*
X151354010Y-109599124D01*
X151059116Y-109514379D01*
X150765880Y-109410531D01*
X150486038Y-109291693D01*
X150258076Y-109176830D01*
X150144224Y-109114324D01*
X149927564Y-109222933D01*
X149630130Y-109362470D01*
X149344380Y-109475974D01*
X149060614Y-109566730D01*
X148769133Y-109638022D01*
X148612072Y-109668353D01*
X148516792Y-109681251D01*
X148395914Y-109691680D01*
X148259124Y-109699363D01*
X148116108Y-109704025D01*
X147976551Y-109705389D01*
X147850140Y-109703179D01*
X147746562Y-109697118D01*
X147716462Y-109693906D01*
X147406918Y-109637376D01*
X147110689Y-109548079D01*
X146829485Y-109427628D01*
X146565013Y-109277636D01*
X146318984Y-109099715D01*
X146093105Y-108895478D01*
X145889085Y-108666538D01*
X145708633Y-108414508D01*
X145553458Y-108140999D01*
X145425268Y-107847625D01*
X145325773Y-107535998D01*
X145294796Y-107408423D01*
X145235887Y-107064795D01*
X145212300Y-106725864D01*
X145212733Y-106713320D01*
X145583302Y-106713320D01*
X145601466Y-107017574D01*
X145651612Y-107316784D01*
X145733059Y-107607945D01*
X145845130Y-107888053D01*
X145987144Y-108154105D01*
X146158423Y-108403097D01*
X146358288Y-108632024D01*
X146370464Y-108644343D01*
X146573854Y-108829628D01*
X146784103Y-108982139D01*
X147006837Y-109105363D01*
X147247679Y-109202791D01*
X147296715Y-109218917D01*
X147439792Y-109261147D01*
X147574348Y-109293167D01*
X147711687Y-109316950D01*
X147863115Y-109334470D01*
X148031500Y-109347183D01*
X148063372Y-109346616D01*
X148122689Y-109343388D01*
X148200752Y-109338039D01*
X148282210Y-109331660D01*
X148616521Y-109287134D01*
X148956406Y-109209157D01*
X149297264Y-109099112D01*
X149634497Y-108958378D01*
X149804965Y-108874529D01*
X149945572Y-108801671D01*
X149945806Y-108717514D01*
X149945163Y-108676758D01*
X149943210Y-108603917D01*
X149940103Y-108503164D01*
X149935997Y-108378671D01*
X149931050Y-108234609D01*
X149925418Y-108075152D01*
X149919256Y-107904470D01*
X149912721Y-107726736D01*
X149905970Y-107546121D01*
X149899158Y-107366798D01*
X149892442Y-107192939D01*
X149885977Y-107028715D01*
X149879922Y-106878299D01*
X149874430Y-106745862D01*
X149869660Y-106635576D01*
X149868126Y-106602497D01*
X150279784Y-106602497D01*
X150280224Y-106733476D01*
X150281512Y-106884219D01*
X150283599Y-107051425D01*
X150286434Y-107231794D01*
X150289968Y-107422023D01*
X150294153Y-107618813D01*
X150298937Y-107818861D01*
X150304273Y-108018868D01*
X150310111Y-108215531D01*
X150316400Y-108405551D01*
X150319802Y-108499806D01*
X150331037Y-108801682D01*
X150578268Y-108919866D01*
X150719085Y-108986136D01*
X150838092Y-109039321D01*
X150945482Y-109083441D01*
X151051448Y-109122516D01*
X151166184Y-109160564D01*
X151270000Y-109192621D01*
X151576979Y-109272189D01*
X151871512Y-109320840D01*
X152159384Y-109339031D01*
X152446383Y-109327220D01*
X152648857Y-109301506D01*
X152928727Y-109238805D01*
X153193768Y-109143842D01*
X153442569Y-109018070D01*
X153673720Y-108862941D01*
X153885807Y-108679908D01*
X154077420Y-108470423D01*
X154247146Y-108235939D01*
X154393574Y-107977909D01*
X154515291Y-107697785D01*
X154610887Y-107397020D01*
X154647149Y-107245429D01*
X154661810Y-107172116D01*
X154672576Y-107103398D01*
X154680014Y-107031474D01*
X154684692Y-106948542D01*
X154687177Y-106846801D01*
X154688037Y-106718450D01*
X154688065Y-106683000D01*
X154687495Y-106546732D01*
X154685419Y-106439032D01*
X154681282Y-106352195D01*
X154674529Y-106278516D01*
X154664609Y-106210289D01*
X154650967Y-106139811D01*
X154648059Y-106126225D01*
X154569022Y-105834718D01*
X154461873Y-105556846D01*
X154328809Y-105296966D01*
X154172026Y-105059437D01*
X154016200Y-104872382D01*
X153955660Y-104810886D01*
X153903570Y-104769113D01*
X153846360Y-104737945D01*
X153773715Y-104709423D01*
X153715286Y-104689620D01*
X153664142Y-104676094D01*
X153611049Y-104667729D01*
X153546773Y-104663405D01*
X153462079Y-104662003D01*
X153383643Y-104662174D01*
X153218522Y-104668117D01*
X153056922Y-104684988D01*
X152892576Y-104714237D01*
X152719220Y-104757316D01*
X152530587Y-104815678D01*
X152320413Y-104890774D01*
X152204357Y-104935417D01*
X152114941Y-104972068D01*
X152010230Y-105017556D01*
X151895344Y-105069398D01*
X151775402Y-105125110D01*
X151655522Y-105182211D01*
X151540824Y-105238217D01*
X151436428Y-105290646D01*
X151347453Y-105337013D01*
X151279017Y-105374838D01*
X151236239Y-105401635D01*
X151226451Y-105409718D01*
X151204017Y-105438040D01*
X151168303Y-105488369D01*
X151125384Y-105552020D01*
X151103617Y-105585357D01*
X151032683Y-105682542D01*
X150938865Y-105792496D01*
X150829483Y-105907881D01*
X150711860Y-106021362D01*
X150593316Y-106125601D01*
X150481174Y-106213262D01*
X150466811Y-106223506D01*
X150399623Y-106270133D01*
X150342409Y-106308607D01*
X150302250Y-106334237D01*
X150287488Y-106342243D01*
X150284043Y-106361155D01*
X150281644Y-106413036D01*
X150280241Y-106494583D01*
X150279784Y-106602497D01*
X149868126Y-106602497D01*
X149865766Y-106551614D01*
X149862906Y-106498148D01*
X149862387Y-106490260D01*
X149851983Y-106342877D01*
X149694670Y-106236597D01*
X149613432Y-106176246D01*
X149519057Y-106097363D01*
X149417986Y-106006215D01*
X149316664Y-105909070D01*
X149221532Y-105812197D01*
X149139034Y-105721863D01*
X149075612Y-105644336D01*
X149053223Y-105612572D01*
X149007603Y-105539178D01*
X148960615Y-105458475D01*
X148935744Y-105413000D01*
X148915858Y-105376373D01*
X148896561Y-105347414D01*
X148872469Y-105322219D01*
X148838201Y-105296884D01*
X148788371Y-105267505D01*
X148717596Y-105230178D01*
X148620493Y-105180998D01*
X148605271Y-105173337D01*
X148294893Y-105026066D01*
X147997679Y-104902964D01*
X147715185Y-104804381D01*
X147448968Y-104730666D01*
X147200585Y-104682171D01*
X146971594Y-104659245D01*
X146763551Y-104662237D01*
X146578014Y-104691499D01*
X146525643Y-104705857D01*
X146463228Y-104726823D01*
X146414293Y-104749973D01*
X146368723Y-104782065D01*
X146316400Y-104829856D01*
X146269993Y-104876624D01*
X146118153Y-105053759D01*
X145978727Y-105258799D01*
X145856111Y-105484263D01*
X145754698Y-105722668D01*
X145727489Y-105800326D01*
X145645635Y-106101692D01*
X145597799Y-106407024D01*
X145583302Y-106713320D01*
X145212733Y-106713320D01*
X145223811Y-106392902D01*
X145270194Y-106067181D01*
G36*
X151727682Y-107635864D02*
G01*
X151823004Y-107678195D01*
X151899432Y-107742226D01*
X151955717Y-107822623D01*
X151990610Y-107914052D01*
X152002864Y-108011177D01*
X151991228Y-108108664D01*
X151954456Y-108201179D01*
X151891298Y-108283386D01*
X151800505Y-108349952D01*
X151787072Y-108356947D01*
X151706387Y-108384734D01*
X151616397Y-108396830D01*
X151536194Y-108390750D01*
X151533072Y-108389997D01*
X151419533Y-108344904D01*
X151329638Y-108274455D01*
X151266371Y-108182395D01*
X151232719Y-108072467D01*
X151227912Y-108007429D01*
X151244451Y-107890323D01*
X151291105Y-107789088D01*
X151363643Y-107707956D01*
X151457834Y-107651158D01*
X151569446Y-107622927D01*
X151614715Y-107620569D01*
X151727682Y-107635864D01*
G37*
X151727682Y-107635864D02*
X151823004Y-107678195D01*
X151899432Y-107742226D01*
X151955717Y-107822623D01*
X151990610Y-107914052D01*
X152002864Y-108011177D01*
X151991228Y-108108664D01*
X151954456Y-108201179D01*
X151891298Y-108283386D01*
X151800505Y-108349952D01*
X151787072Y-108356947D01*
X151706387Y-108384734D01*
X151616397Y-108396830D01*
X151536194Y-108390750D01*
X151533072Y-108389997D01*
X151419533Y-108344904D01*
X151329638Y-108274455D01*
X151266371Y-108182395D01*
X151232719Y-108072467D01*
X151227912Y-108007429D01*
X151244451Y-107890323D01*
X151291105Y-107789088D01*
X151363643Y-107707956D01*
X151457834Y-107651158D01*
X151569446Y-107622927D01*
X151614715Y-107620569D01*
X151727682Y-107635864D01*
G36*
X146495801Y-106109890D02*
G01*
X146598257Y-106165536D01*
X146615863Y-106179321D01*
X146691333Y-106262164D01*
X146737401Y-106357255D01*
X146755564Y-106458654D01*
X146747322Y-106560423D01*
X146714172Y-106656621D01*
X146657614Y-106741309D01*
X146579144Y-106808547D01*
X146480262Y-106852396D01*
X146444000Y-106860616D01*
X146385825Y-106868155D01*
X146337583Y-106869740D01*
X146326072Y-106868580D01*
X146203857Y-106832054D01*
X146107890Y-106770804D01*
X146037346Y-106684268D01*
X146026400Y-106664240D01*
X145984932Y-106548705D01*
X145979225Y-106436507D01*
X146009011Y-106329734D01*
X146074023Y-106230475D01*
X146083362Y-106220052D01*
X146175952Y-106143435D01*
X146279193Y-106099257D01*
X146387628Y-106087937D01*
X146495801Y-106109890D01*
G37*
X146495801Y-106109890D02*
X146598257Y-106165536D01*
X146615863Y-106179321D01*
X146691333Y-106262164D01*
X146737401Y-106357255D01*
X146755564Y-106458654D01*
X146747322Y-106560423D01*
X146714172Y-106656621D01*
X146657614Y-106741309D01*
X146579144Y-106808547D01*
X146480262Y-106852396D01*
X146444000Y-106860616D01*
X146385825Y-106868155D01*
X146337583Y-106869740D01*
X146326072Y-106868580D01*
X146203857Y-106832054D01*
X146107890Y-106770804D01*
X146037346Y-106684268D01*
X146026400Y-106664240D01*
X145984932Y-106548705D01*
X145979225Y-106436507D01*
X146009011Y-106329734D01*
X146074023Y-106230475D01*
X146083362Y-106220052D01*
X146175952Y-106143435D01*
X146279193Y-106099257D01*
X146387628Y-106087937D01*
X146495801Y-106109890D01*
G36*
X147452454Y-108202373D02*
G01*
X147549956Y-108247066D01*
X147630086Y-108314903D01*
X147689232Y-108400439D01*
X147723783Y-108498232D01*
X147730126Y-108602840D01*
X147704650Y-108708818D01*
X147698056Y-108724072D01*
X147634588Y-108824438D01*
X147551069Y-108899488D01*
X147453326Y-108946945D01*
X147347185Y-108964532D01*
X147238474Y-108949972D01*
X147178786Y-108926996D01*
X147075623Y-108861340D01*
X147004276Y-108778747D01*
X146963525Y-108677289D01*
X146952000Y-108568646D01*
X146968629Y-108454234D01*
X147015538Y-108354670D01*
X147088264Y-108274340D01*
X147182344Y-108217630D01*
X147293313Y-108188924D01*
X147341191Y-108186266D01*
X147452454Y-108202373D01*
G37*
X147452454Y-108202373D02*
X147549956Y-108247066D01*
X147630086Y-108314903D01*
X147689232Y-108400439D01*
X147723783Y-108498232D01*
X147730126Y-108602840D01*
X147704650Y-108708818D01*
X147698056Y-108724072D01*
X147634588Y-108824438D01*
X147551069Y-108899488D01*
X147453326Y-108946945D01*
X147347185Y-108964532D01*
X147238474Y-108949972D01*
X147178786Y-108926996D01*
X147075623Y-108861340D01*
X147004276Y-108778747D01*
X146963525Y-108677289D01*
X146952000Y-108568646D01*
X146968629Y-108454234D01*
X147015538Y-108354670D01*
X147088264Y-108274340D01*
X147182344Y-108217630D01*
X147293313Y-108188924D01*
X147341191Y-108186266D01*
X147452454Y-108202373D01*
G36*
X153684645Y-106101133D02*
G01*
X153779762Y-106146985D01*
X153858297Y-106216161D01*
X153916950Y-106302881D01*
X153952421Y-106401363D01*
X153961409Y-106505828D01*
X153940614Y-106610494D01*
X153911807Y-106672117D01*
X153842053Y-106763362D01*
X153756373Y-106823248D01*
X153650778Y-106854127D01*
X153594291Y-106859243D01*
X153524693Y-106858935D01*
X153463828Y-106853339D01*
X153429543Y-106845193D01*
X153329154Y-106784722D01*
X153252633Y-106701013D01*
X153203131Y-106600323D01*
X153183800Y-106488911D01*
X153195730Y-106380886D01*
X153236193Y-106288752D01*
X153304123Y-106206365D01*
X153390930Y-106140419D01*
X153488025Y-106097608D01*
X153576248Y-106084387D01*
X153684645Y-106101133D01*
G37*
X153684645Y-106101133D02*
X153779762Y-106146985D01*
X153858297Y-106216161D01*
X153916950Y-106302881D01*
X153952421Y-106401363D01*
X153961409Y-106505828D01*
X153940614Y-106610494D01*
X153911807Y-106672117D01*
X153842053Y-106763362D01*
X153756373Y-106823248D01*
X153650778Y-106854127D01*
X153594291Y-106859243D01*
X153524693Y-106858935D01*
X153463828Y-106853339D01*
X153429543Y-106845193D01*
X153329154Y-106784722D01*
X153252633Y-106701013D01*
X153203131Y-106600323D01*
X153183800Y-106488911D01*
X153195730Y-106380886D01*
X153236193Y-106288752D01*
X153304123Y-106206365D01*
X153390930Y-106140419D01*
X153488025Y-106097608D01*
X153576248Y-106084387D01*
X153684645Y-106101133D01*
G36*
X153448691Y-107254707D02*
G01*
X153551072Y-107290690D01*
X153611685Y-107330913D01*
X153686559Y-107415788D01*
X153731929Y-107515048D01*
X153747679Y-107621790D01*
X153733690Y-107729113D01*
X153689844Y-107830112D01*
X153621625Y-107912819D01*
X153521619Y-107983754D01*
X153414512Y-108019312D01*
X153301527Y-108019229D01*
X153222848Y-107998996D01*
X153125773Y-107947088D01*
X153051722Y-107872794D01*
X153001498Y-107782414D01*
X152975903Y-107682246D01*
X152975741Y-107578592D01*
X153001814Y-107477749D01*
X153054925Y-107386018D01*
X153135076Y-107310259D01*
X153230497Y-107264050D01*
X153338434Y-107245679D01*
X153448691Y-107254707D01*
G37*
X153448691Y-107254707D02*
X153551072Y-107290690D01*
X153611685Y-107330913D01*
X153686559Y-107415788D01*
X153731929Y-107515048D01*
X153747679Y-107621790D01*
X153733690Y-107729113D01*
X153689844Y-107830112D01*
X153621625Y-107912819D01*
X153521619Y-107983754D01*
X153414512Y-108019312D01*
X153301527Y-108019229D01*
X153222848Y-107998996D01*
X153125773Y-107947088D01*
X153051722Y-107872794D01*
X153001498Y-107782414D01*
X152975903Y-107682246D01*
X152975741Y-107578592D01*
X153001814Y-107477749D01*
X153054925Y-107386018D01*
X153135076Y-107310259D01*
X153230497Y-107264050D01*
X153338434Y-107245679D01*
X153448691Y-107254707D01*
G36*
X148379867Y-107623629D02*
G01*
X148480635Y-107650915D01*
X148572713Y-107706184D01*
X148647552Y-107786742D01*
X148676038Y-107830845D01*
X148692632Y-107870467D01*
X148700481Y-107918177D01*
X148702730Y-107986545D01*
X148702786Y-108007429D01*
X148701413Y-108082627D01*
X148695195Y-108134150D01*
X148680987Y-108174566D01*
X148655643Y-108216448D01*
X148647552Y-108228116D01*
X148569062Y-108310442D01*
X148471137Y-108367369D01*
X148362075Y-108395853D01*
X148250174Y-108392850D01*
X148218158Y-108385595D01*
X148138120Y-108348348D01*
X148060611Y-108286534D01*
X147996828Y-108210823D01*
X147960615Y-108140210D01*
X147937263Y-108052778D01*
X147934852Y-107977525D01*
X147953315Y-107897045D01*
X147959634Y-107878431D01*
X148012157Y-107778022D01*
X148086555Y-107701523D01*
X148176714Y-107649747D01*
X148276522Y-107623511D01*
X148379867Y-107623629D01*
G37*
X148379867Y-107623629D02*
X148480635Y-107650915D01*
X148572713Y-107706184D01*
X148647552Y-107786742D01*
X148676038Y-107830845D01*
X148692632Y-107870467D01*
X148700481Y-107918177D01*
X148702730Y-107986545D01*
X148702786Y-108007429D01*
X148701413Y-108082627D01*
X148695195Y-108134150D01*
X148680987Y-108174566D01*
X148655643Y-108216448D01*
X148647552Y-108228116D01*
X148569062Y-108310442D01*
X148471137Y-108367369D01*
X148362075Y-108395853D01*
X148250174Y-108392850D01*
X148218158Y-108385595D01*
X148138120Y-108348348D01*
X148060611Y-108286534D01*
X147996828Y-108210823D01*
X147960615Y-108140210D01*
X147937263Y-108052778D01*
X147934852Y-107977525D01*
X147953315Y-107897045D01*
X147959634Y-107878431D01*
X148012157Y-107778022D01*
X148086555Y-107701523D01*
X148176714Y-107649747D01*
X148276522Y-107623511D01*
X148379867Y-107623629D01*
G36*
X148229876Y-106215024D02*
G01*
X148302767Y-106239434D01*
X148373007Y-106286820D01*
X148401420Y-106311416D01*
X148473232Y-106397794D01*
X148514474Y-106494582D01*
X148527086Y-106596063D01*
X148513003Y-106696522D01*
X148474165Y-106790243D01*
X148412508Y-106871509D01*
X148329970Y-106934606D01*
X148228488Y-106973816D01*
X148173966Y-106982444D01*
X148110060Y-106983927D01*
X148052873Y-106978371D01*
X148036291Y-106974375D01*
X147928043Y-106922707D01*
X147842228Y-106846952D01*
X147783020Y-106752106D01*
X147754592Y-106643167D01*
X147753951Y-106636230D01*
X147760320Y-106518435D01*
X147796926Y-106412991D01*
X147859564Y-106324580D01*
X147944028Y-106257886D01*
X148046113Y-106217589D01*
X148138997Y-106207517D01*
X148229876Y-106215024D01*
G37*
X148229876Y-106215024D02*
X148302767Y-106239434D01*
X148373007Y-106286820D01*
X148401420Y-106311416D01*
X148473232Y-106397794D01*
X148514474Y-106494582D01*
X148527086Y-106596063D01*
X148513003Y-106696522D01*
X148474165Y-106790243D01*
X148412508Y-106871509D01*
X148329970Y-106934606D01*
X148228488Y-106973816D01*
X148173966Y-106982444D01*
X148110060Y-106983927D01*
X148052873Y-106978371D01*
X148036291Y-106974375D01*
X147928043Y-106922707D01*
X147842228Y-106846952D01*
X147783020Y-106752106D01*
X147754592Y-106643167D01*
X147753951Y-106636230D01*
X147760320Y-106518435D01*
X147796926Y-106412991D01*
X147859564Y-106324580D01*
X147944028Y-106257886D01*
X148046113Y-106217589D01*
X148138997Y-106207517D01*
X148229876Y-106215024D01*
G36*
X151896787Y-106215338D02*
G01*
X151970322Y-106240652D01*
X152042023Y-106289771D01*
X152060047Y-106305165D01*
X152133940Y-106391515D01*
X152177374Y-106489261D01*
X152191749Y-106592430D01*
X152178462Y-106695046D01*
X152138914Y-106791135D01*
X152074501Y-106874722D01*
X151986624Y-106939832D01*
X151903541Y-106973705D01*
X151814203Y-106989431D01*
X151729252Y-106979877D01*
X151682714Y-106965544D01*
X151574606Y-106909667D01*
X151492251Y-106830262D01*
X151438375Y-106731114D01*
X151415701Y-106616008D01*
X151415143Y-106593836D01*
X151431717Y-106477794D01*
X151478470Y-106376993D01*
X151550950Y-106295839D01*
X151644706Y-106238741D01*
X151755285Y-106210107D01*
X151805215Y-106207624D01*
X151896787Y-106215338D01*
G37*
X151896787Y-106215338D02*
X151970322Y-106240652D01*
X152042023Y-106289771D01*
X152060047Y-106305165D01*
X152133940Y-106391515D01*
X152177374Y-106489261D01*
X152191749Y-106592430D01*
X152178462Y-106695046D01*
X152138914Y-106791135D01*
X152074501Y-106874722D01*
X151986624Y-106939832D01*
X151903541Y-106973705D01*
X151814203Y-106989431D01*
X151729252Y-106979877D01*
X151682714Y-106965544D01*
X151574606Y-106909667D01*
X151492251Y-106830262D01*
X151438375Y-106731114D01*
X151415701Y-106616008D01*
X151415143Y-106593836D01*
X151431717Y-106477794D01*
X151478470Y-106376993D01*
X151550950Y-106295839D01*
X151644706Y-106238741D01*
X151755285Y-106210107D01*
X151805215Y-106207624D01*
X151896787Y-106215338D01*
G36*
X152693409Y-108193015D02*
G01*
X152766026Y-108217144D01*
X152836361Y-108264574D01*
X152864563Y-108288987D01*
X152936729Y-108376254D01*
X152979014Y-108475845D01*
X152992057Y-108581112D01*
X152976496Y-108685405D01*
X152932973Y-108782074D01*
X152862125Y-108864470D01*
X152805336Y-108905133D01*
X152710119Y-108945158D01*
X152607851Y-108961870D01*
X152511858Y-108953618D01*
X152483487Y-108945008D01*
X152381782Y-108893402D01*
X152306069Y-108821558D01*
X152260347Y-108747600D01*
X152221503Y-108633374D01*
X152217712Y-108520947D01*
X152248150Y-108414667D01*
X152311991Y-108318881D01*
X152348668Y-108282737D01*
X152422167Y-108227329D01*
X152493602Y-108197319D01*
X152578991Y-108186643D01*
X152603500Y-108186285D01*
X152693409Y-108193015D01*
G37*
X152693409Y-108193015D02*
X152766026Y-108217144D01*
X152836361Y-108264574D01*
X152864563Y-108288987D01*
X152936729Y-108376254D01*
X152979014Y-108475845D01*
X152992057Y-108581112D01*
X152976496Y-108685405D01*
X152932973Y-108782074D01*
X152862125Y-108864470D01*
X152805336Y-108905133D01*
X152710119Y-108945158D01*
X152607851Y-108961870D01*
X152511858Y-108953618D01*
X152483487Y-108945008D01*
X152381782Y-108893402D01*
X152306069Y-108821558D01*
X152260347Y-108747600D01*
X152221503Y-108633374D01*
X152217712Y-108520947D01*
X152248150Y-108414667D01*
X152311991Y-108318881D01*
X152348668Y-108282737D01*
X152422167Y-108227329D01*
X152493602Y-108197319D01*
X152578991Y-108186643D01*
X152603500Y-108186285D01*
X152693409Y-108193015D01*
D12*
G04 #@! TO.C,REF\u002A\u002A*
X128400000Y-103330000D02*
X128400000Y-102000000D01*
X131000000Y-100670000D02*
X133600000Y-100670000D01*
X133600000Y-103330000D02*
X133600000Y-100670000D01*
X129730000Y-103330000D02*
X128400000Y-103330000D01*
X131000000Y-103330000D02*
X131000000Y-100670000D01*
X131000000Y-103330000D02*
X133600000Y-103330000D01*
X169000000Y-100670000D02*
X171600000Y-100670000D01*
X166400000Y-103330000D02*
X166400000Y-102000000D01*
X169000000Y-103330000D02*
X171600000Y-103330000D01*
X171600000Y-103330000D02*
X171600000Y-100670000D01*
X167730000Y-103330000D02*
X166400000Y-103330000D01*
X169000000Y-103330000D02*
X169000000Y-100670000D01*
G04 #@! TO.C,U1*
X168271000Y-85580000D02*
X168271000Y-75340000D01*
X163630000Y-82310000D02*
X165140000Y-82310000D01*
X163630000Y-85580000D02*
X163630000Y-75340000D01*
X163630000Y-78609000D02*
X165140000Y-78609000D01*
X163630000Y-75340000D02*
X168271000Y-75340000D01*
X165140000Y-85580000D02*
X165140000Y-75340000D01*
X163630000Y-85580000D02*
X168271000Y-85580000D01*
G04 #@! TO.C,SW1*
X175700000Y-63600000D02*
X175700000Y-69600000D01*
X163700000Y-63600000D02*
X175700000Y-63600000D01*
X163700000Y-69600000D02*
X163700000Y-63600000D01*
X175700000Y-69600000D02*
X163700000Y-69600000D01*
G04 #@! TO.C,D3*
X171530000Y-73970000D02*
X171530000Y-73640000D01*
X167110000Y-71030000D02*
X167110000Y-73970000D01*
X166090000Y-73970000D02*
X171530000Y-73970000D01*
X166870000Y-71030000D02*
X166870000Y-73970000D01*
X171530000Y-71030000D02*
X171530000Y-71360000D01*
X166990000Y-71030000D02*
X166990000Y-73970000D01*
X166090000Y-73640000D02*
X166090000Y-73970000D01*
X166090000Y-71030000D02*
X171530000Y-71030000D01*
X166090000Y-71360000D02*
X166090000Y-71030000D01*
G04 #@! TO.C,C1*
X173291000Y-78540000D02*
X173291000Y-79942000D01*
X174211000Y-75599000D02*
X174211000Y-76460000D01*
X174291000Y-75674000D02*
X174291000Y-76460000D01*
X173130000Y-75009000D02*
X173130000Y-76460000D01*
X173050000Y-74989000D02*
X173050000Y-76460000D01*
X174611000Y-78540000D02*
X174611000Y-78943000D01*
X173931000Y-75378000D02*
X173931000Y-76460000D01*
X173331000Y-75072000D02*
X173331000Y-76460000D01*
X174491000Y-75895000D02*
X174491000Y-76460000D01*
X173731000Y-75253000D02*
X173731000Y-76460000D01*
X174731000Y-78540000D02*
X174731000Y-78751000D01*
X174651000Y-78540000D02*
X174651000Y-78883000D01*
X174891000Y-76585000D02*
X174891000Y-78415000D01*
X172570000Y-74922000D02*
X172570000Y-80078000D01*
X173771000Y-78540000D02*
X173771000Y-79724000D01*
X172490000Y-74920000D02*
X172490000Y-80080000D01*
X174771000Y-76322000D02*
X174771000Y-78678000D01*
X173251000Y-78540000D02*
X173251000Y-79955000D01*
X173411000Y-75102000D02*
X173411000Y-76460000D01*
X172890000Y-78540000D02*
X172890000Y-80043000D01*
X174971000Y-76823000D02*
X174971000Y-78177000D01*
X174531000Y-78540000D02*
X174531000Y-79054000D01*
X174411000Y-78540000D02*
X174411000Y-79199000D01*
X175011000Y-76982000D02*
X175011000Y-78018000D01*
X173691000Y-75232000D02*
X173691000Y-76460000D01*
X172690000Y-74931000D02*
X172690000Y-76460000D01*
X172730000Y-78540000D02*
X172730000Y-80065000D01*
X174571000Y-78540000D02*
X174571000Y-79000000D01*
X174211000Y-78540000D02*
X174211000Y-79401000D01*
X174011000Y-78540000D02*
X174011000Y-79565000D01*
X173010000Y-78540000D02*
X173010000Y-80020000D01*
X173851000Y-78540000D02*
X173851000Y-79675000D01*
X174051000Y-75465000D02*
X174051000Y-76460000D01*
X174251000Y-75636000D02*
X174251000Y-76460000D01*
X173611000Y-75190000D02*
X173611000Y-76460000D01*
X173050000Y-78540000D02*
X173050000Y-80011000D01*
X173451000Y-78540000D02*
X173451000Y-79882000D01*
X174251000Y-78540000D02*
X174251000Y-79364000D01*
X173451000Y-75118000D02*
X173451000Y-76460000D01*
X174051000Y-78540000D02*
X174051000Y-79535000D01*
X172930000Y-78540000D02*
X172930000Y-80036000D01*
X174451000Y-78540000D02*
X174451000Y-79153000D01*
X173691000Y-78540000D02*
X173691000Y-79768000D01*
X174651000Y-76117000D02*
X174651000Y-76460000D01*
X173371000Y-75086000D02*
X173371000Y-76460000D01*
X174171000Y-78540000D02*
X174171000Y-79437000D01*
X172690000Y-78540000D02*
X172690000Y-80069000D01*
X173171000Y-78540000D02*
X173171000Y-79980000D01*
X172810000Y-78540000D02*
X172810000Y-80056000D01*
X172970000Y-74972000D02*
X172970000Y-76460000D01*
X173891000Y-78540000D02*
X173891000Y-79649000D01*
X172890000Y-74957000D02*
X172890000Y-76460000D01*
X173651000Y-75210000D02*
X173651000Y-76460000D01*
X175051000Y-77216000D02*
X175051000Y-77784000D01*
X174091000Y-78540000D02*
X174091000Y-79504000D01*
X173090000Y-78540000D02*
X173090000Y-80001000D01*
X174531000Y-75946000D02*
X174531000Y-76460000D01*
X173171000Y-75020000D02*
X173171000Y-76460000D01*
X172650000Y-74927000D02*
X172650000Y-80073000D01*
X174011000Y-75435000D02*
X174011000Y-76460000D01*
X172850000Y-78540000D02*
X172850000Y-80050000D01*
X173010000Y-74980000D02*
X173010000Y-76460000D01*
X173411000Y-78540000D02*
X173411000Y-79898000D01*
X174331000Y-78540000D02*
X174331000Y-79285000D01*
X174411000Y-75801000D02*
X174411000Y-76460000D01*
X173811000Y-75300000D02*
X173811000Y-76460000D01*
X174371000Y-78540000D02*
X174371000Y-79243000D01*
X172610000Y-74924000D02*
X172610000Y-80076000D01*
X174451000Y-75847000D02*
X174451000Y-76460000D01*
X174131000Y-75529000D02*
X174131000Y-76460000D01*
X173971000Y-75405000D02*
X173971000Y-76460000D01*
X173611000Y-78540000D02*
X173611000Y-79810000D01*
X174851000Y-76489000D02*
X174851000Y-78511000D01*
X169645225Y-76025000D02*
X170145225Y-76025000D01*
X172770000Y-74939000D02*
X172770000Y-76460000D01*
X173491000Y-75135000D02*
X173491000Y-76460000D01*
X174291000Y-78540000D02*
X174291000Y-79326000D01*
X173531000Y-78540000D02*
X173531000Y-79848000D01*
X172730000Y-74935000D02*
X172730000Y-76460000D01*
X172530000Y-74921000D02*
X172530000Y-80079000D01*
X172930000Y-74964000D02*
X172930000Y-76460000D01*
X174691000Y-76181000D02*
X174691000Y-76460000D01*
X169895225Y-75775000D02*
X169895225Y-76275000D01*
X174931000Y-76695000D02*
X174931000Y-78305000D01*
X173211000Y-75032000D02*
X173211000Y-76460000D01*
X172810000Y-74944000D02*
X172810000Y-76460000D01*
X173090000Y-74999000D02*
X173090000Y-76460000D01*
X174611000Y-76057000D02*
X174611000Y-76460000D01*
X173971000Y-78540000D02*
X173971000Y-79595000D01*
X173291000Y-75058000D02*
X173291000Y-76460000D01*
X174171000Y-75563000D02*
X174171000Y-76460000D01*
X174331000Y-75715000D02*
X174331000Y-76460000D01*
X173531000Y-75152000D02*
X173531000Y-76460000D01*
X173931000Y-78540000D02*
X173931000Y-79622000D01*
X174131000Y-78540000D02*
X174131000Y-79471000D01*
X173491000Y-78540000D02*
X173491000Y-79865000D01*
X174371000Y-75757000D02*
X174371000Y-76460000D01*
X174731000Y-76249000D02*
X174731000Y-76460000D01*
X173811000Y-78540000D02*
X173811000Y-79700000D01*
X174571000Y-76000000D02*
X174571000Y-76460000D01*
X173571000Y-78540000D02*
X173571000Y-79829000D01*
X174811000Y-76402000D02*
X174811000Y-78598000D01*
X172770000Y-78540000D02*
X172770000Y-80061000D01*
X173331000Y-78540000D02*
X173331000Y-79928000D01*
X172850000Y-74950000D02*
X172850000Y-76460000D01*
X173891000Y-75351000D02*
X173891000Y-76460000D01*
X173731000Y-78540000D02*
X173731000Y-79747000D01*
X172970000Y-78540000D02*
X172970000Y-80028000D01*
X174091000Y-75496000D02*
X174091000Y-76460000D01*
X173851000Y-75325000D02*
X173851000Y-76460000D01*
X174691000Y-78540000D02*
X174691000Y-78819000D01*
X173571000Y-75171000D02*
X173571000Y-76460000D01*
X173371000Y-78540000D02*
X173371000Y-79914000D01*
X174491000Y-78540000D02*
X174491000Y-79105000D01*
X173651000Y-78540000D02*
X173651000Y-79790000D01*
X173771000Y-75276000D02*
X173771000Y-76460000D01*
X173130000Y-78540000D02*
X173130000Y-79991000D01*
X173251000Y-75045000D02*
X173251000Y-76460000D01*
X173211000Y-78540000D02*
X173211000Y-79968000D01*
X172450000Y-74920000D02*
X172450000Y-80080000D01*
X175070000Y-77500000D02*
G75*
G03*
X175070000Y-77500000I-2620000J0D01*
G01*
G04 #@! TO.C,C2*
X174251000Y-84540000D02*
X174251000Y-85364000D01*
X173851000Y-81325000D02*
X173851000Y-82460000D01*
X172690000Y-80931000D02*
X172690000Y-82460000D01*
X174571000Y-82000000D02*
X174571000Y-82460000D01*
X174971000Y-82823000D02*
X174971000Y-84177000D01*
X173211000Y-81032000D02*
X173211000Y-82460000D01*
X173371000Y-84540000D02*
X173371000Y-85914000D01*
X173090000Y-84540000D02*
X173090000Y-86001000D01*
X173171000Y-81020000D02*
X173171000Y-82460000D01*
X174211000Y-84540000D02*
X174211000Y-85401000D01*
X174931000Y-82695000D02*
X174931000Y-84305000D01*
X173531000Y-84540000D02*
X173531000Y-85848000D01*
X173050000Y-80989000D02*
X173050000Y-82460000D01*
X174371000Y-81757000D02*
X174371000Y-82460000D01*
X173211000Y-84540000D02*
X173211000Y-85968000D01*
X169895225Y-81775000D02*
X169895225Y-82275000D01*
X173611000Y-84540000D02*
X173611000Y-85810000D01*
X174011000Y-84540000D02*
X174011000Y-85565000D01*
X174011000Y-81435000D02*
X174011000Y-82460000D01*
X173130000Y-84540000D02*
X173130000Y-85991000D01*
X173171000Y-84540000D02*
X173171000Y-85980000D01*
X174731000Y-82249000D02*
X174731000Y-82460000D01*
X172650000Y-80927000D02*
X172650000Y-86073000D01*
X174331000Y-84540000D02*
X174331000Y-85285000D01*
X173771000Y-81276000D02*
X173771000Y-82460000D01*
X173771000Y-84540000D02*
X173771000Y-85724000D01*
X174611000Y-84540000D02*
X174611000Y-84943000D01*
X173010000Y-80980000D02*
X173010000Y-82460000D01*
X174051000Y-81465000D02*
X174051000Y-82460000D01*
X174651000Y-82117000D02*
X174651000Y-82460000D01*
X172810000Y-84540000D02*
X172810000Y-86056000D01*
X173971000Y-84540000D02*
X173971000Y-85595000D01*
X172570000Y-80922000D02*
X172570000Y-86078000D01*
X174211000Y-81599000D02*
X174211000Y-82460000D01*
X173571000Y-81171000D02*
X173571000Y-82460000D01*
X174851000Y-82489000D02*
X174851000Y-84511000D01*
X173371000Y-81086000D02*
X173371000Y-82460000D01*
X174131000Y-81529000D02*
X174131000Y-82460000D01*
X173130000Y-81009000D02*
X173130000Y-82460000D01*
X173331000Y-84540000D02*
X173331000Y-85928000D01*
X173971000Y-81405000D02*
X173971000Y-82460000D01*
X172730000Y-80935000D02*
X172730000Y-82460000D01*
X173291000Y-84540000D02*
X173291000Y-85942000D01*
X174531000Y-81946000D02*
X174531000Y-82460000D01*
X173731000Y-81253000D02*
X173731000Y-82460000D01*
X172490000Y-80920000D02*
X172490000Y-86080000D01*
X174091000Y-81496000D02*
X174091000Y-82460000D01*
X173891000Y-84540000D02*
X173891000Y-85649000D01*
X172930000Y-84540000D02*
X172930000Y-86036000D01*
X173651000Y-81210000D02*
X173651000Y-82460000D01*
X173291000Y-81058000D02*
X173291000Y-82460000D01*
X172930000Y-80964000D02*
X172930000Y-82460000D01*
X174571000Y-84540000D02*
X174571000Y-85000000D01*
X175011000Y-82982000D02*
X175011000Y-84018000D01*
X174291000Y-81674000D02*
X174291000Y-82460000D01*
X173651000Y-84540000D02*
X173651000Y-85790000D01*
X172890000Y-80957000D02*
X172890000Y-82460000D01*
X174451000Y-84540000D02*
X174451000Y-85153000D01*
X174771000Y-82322000D02*
X174771000Y-84678000D01*
X173891000Y-81351000D02*
X173891000Y-82460000D01*
X174451000Y-81847000D02*
X174451000Y-82460000D01*
X174091000Y-84540000D02*
X174091000Y-85504000D01*
X174691000Y-82181000D02*
X174691000Y-82460000D01*
X173491000Y-84540000D02*
X173491000Y-85865000D01*
X174171000Y-81563000D02*
X174171000Y-82460000D01*
X172850000Y-80950000D02*
X172850000Y-82460000D01*
X169645225Y-82025000D02*
X170145225Y-82025000D01*
X174491000Y-84540000D02*
X174491000Y-85105000D01*
X173491000Y-81135000D02*
X173491000Y-82460000D01*
X174051000Y-84540000D02*
X174051000Y-85535000D01*
X174611000Y-82057000D02*
X174611000Y-82460000D01*
X173451000Y-84540000D02*
X173451000Y-85882000D01*
X173090000Y-80999000D02*
X173090000Y-82460000D01*
X173251000Y-84540000D02*
X173251000Y-85955000D01*
X173251000Y-81045000D02*
X173251000Y-82460000D01*
X174371000Y-84540000D02*
X174371000Y-85243000D01*
X172530000Y-80921000D02*
X172530000Y-86079000D01*
X172450000Y-80920000D02*
X172450000Y-86080000D01*
X172970000Y-80972000D02*
X172970000Y-82460000D01*
X172810000Y-80944000D02*
X172810000Y-82460000D01*
X173731000Y-84540000D02*
X173731000Y-85747000D01*
X174491000Y-81895000D02*
X174491000Y-82460000D01*
X173531000Y-81152000D02*
X173531000Y-82460000D01*
X173811000Y-84540000D02*
X173811000Y-85700000D01*
X173931000Y-81378000D02*
X173931000Y-82460000D01*
X173851000Y-84540000D02*
X173851000Y-85675000D01*
X172690000Y-84540000D02*
X172690000Y-86069000D01*
X172890000Y-84540000D02*
X172890000Y-86043000D01*
X173331000Y-81072000D02*
X173331000Y-82460000D01*
X173451000Y-81118000D02*
X173451000Y-82460000D01*
X173571000Y-84540000D02*
X173571000Y-85829000D01*
X173931000Y-84540000D02*
X173931000Y-85622000D01*
X172770000Y-84540000D02*
X172770000Y-86061000D01*
X174331000Y-81715000D02*
X174331000Y-82460000D01*
X173411000Y-84540000D02*
X173411000Y-85898000D01*
X172970000Y-84540000D02*
X172970000Y-86028000D01*
X174291000Y-84540000D02*
X174291000Y-85326000D01*
X174691000Y-84540000D02*
X174691000Y-84819000D01*
X174651000Y-84540000D02*
X174651000Y-84883000D01*
X174131000Y-84540000D02*
X174131000Y-85471000D01*
X175051000Y-83216000D02*
X175051000Y-83784000D01*
X172610000Y-80924000D02*
X172610000Y-86076000D01*
X174891000Y-82585000D02*
X174891000Y-84415000D01*
X173691000Y-81232000D02*
X173691000Y-82460000D01*
X174411000Y-84540000D02*
X174411000Y-85199000D01*
X172730000Y-84540000D02*
X172730000Y-86065000D01*
X174251000Y-81636000D02*
X174251000Y-82460000D01*
X173050000Y-84540000D02*
X173050000Y-86011000D01*
X173010000Y-84540000D02*
X173010000Y-86020000D01*
X172770000Y-80939000D02*
X172770000Y-82460000D01*
X173811000Y-81300000D02*
X173811000Y-82460000D01*
X174531000Y-84540000D02*
X174531000Y-85054000D01*
X174171000Y-84540000D02*
X174171000Y-85437000D01*
X173691000Y-84540000D02*
X173691000Y-85768000D01*
X172850000Y-84540000D02*
X172850000Y-86050000D01*
X173411000Y-81102000D02*
X173411000Y-82460000D01*
X174731000Y-84540000D02*
X174731000Y-84751000D01*
X174411000Y-81801000D02*
X174411000Y-82460000D01*
X174811000Y-82402000D02*
X174811000Y-84598000D01*
X173611000Y-81190000D02*
X173611000Y-82460000D01*
X175070000Y-83500000D02*
G75*
G03*
X175070000Y-83500000I-2620000J0D01*
G01*
G04 #@! TO.C,C3*
X129211000Y-86301000D02*
X129211000Y-86960000D01*
X128691000Y-89040000D02*
X128691000Y-90149000D01*
X127530000Y-89040000D02*
X127530000Y-90565000D01*
X127971000Y-85520000D02*
X127971000Y-86960000D01*
X128091000Y-85558000D02*
X128091000Y-86960000D01*
X127530000Y-85435000D02*
X127530000Y-86960000D01*
X127850000Y-89040000D02*
X127850000Y-90511000D01*
X129011000Y-86099000D02*
X129011000Y-86960000D01*
X128811000Y-89040000D02*
X128811000Y-90065000D01*
X128931000Y-86029000D02*
X128931000Y-86960000D01*
X128011000Y-89040000D02*
X128011000Y-90468000D01*
X129291000Y-86395000D02*
X129291000Y-86960000D01*
X127770000Y-85472000D02*
X127770000Y-86960000D01*
X128531000Y-89040000D02*
X128531000Y-90247000D01*
X127610000Y-85444000D02*
X127610000Y-86960000D01*
X129571000Y-86822000D02*
X129571000Y-89178000D01*
X128291000Y-85635000D02*
X128291000Y-86960000D01*
X128491000Y-85732000D02*
X128491000Y-86960000D01*
X129651000Y-86989000D02*
X129651000Y-89011000D01*
X129611000Y-86902000D02*
X129611000Y-89098000D01*
X127690000Y-89040000D02*
X127690000Y-90543000D01*
X129131000Y-86215000D02*
X129131000Y-86960000D01*
X129051000Y-89040000D02*
X129051000Y-89864000D01*
X129451000Y-89040000D02*
X129451000Y-89383000D01*
X129011000Y-89040000D02*
X129011000Y-89901000D01*
X128371000Y-89040000D02*
X128371000Y-90329000D01*
X129691000Y-87085000D02*
X129691000Y-88915000D01*
X129531000Y-86749000D02*
X129531000Y-86960000D01*
X124695225Y-86275000D02*
X124695225Y-86775000D01*
X128971000Y-86063000D02*
X128971000Y-86960000D01*
X128771000Y-89040000D02*
X128771000Y-90095000D01*
X128731000Y-85878000D02*
X128731000Y-86960000D01*
X129091000Y-89040000D02*
X129091000Y-89826000D01*
X128571000Y-89040000D02*
X128571000Y-90224000D01*
X128131000Y-85572000D02*
X128131000Y-86960000D01*
X129131000Y-89040000D02*
X129131000Y-89785000D01*
X129411000Y-89040000D02*
X129411000Y-89443000D01*
X127730000Y-89040000D02*
X127730000Y-90536000D01*
X129851000Y-87716000D02*
X129851000Y-88284000D01*
X128371000Y-85671000D02*
X128371000Y-86960000D01*
X129171000Y-89040000D02*
X129171000Y-89743000D01*
X129371000Y-86500000D02*
X129371000Y-86960000D01*
X128451000Y-85710000D02*
X128451000Y-86960000D01*
X128251000Y-85618000D02*
X128251000Y-86960000D01*
X129731000Y-87195000D02*
X129731000Y-88805000D01*
X127971000Y-89040000D02*
X127971000Y-90480000D01*
X128411000Y-89040000D02*
X128411000Y-90310000D01*
X128651000Y-89040000D02*
X128651000Y-90175000D01*
X128931000Y-89040000D02*
X128931000Y-89971000D01*
X127490000Y-89040000D02*
X127490000Y-90569000D01*
X128331000Y-85652000D02*
X128331000Y-86960000D01*
X128291000Y-89040000D02*
X128291000Y-90365000D01*
X128571000Y-85776000D02*
X128571000Y-86960000D01*
X128891000Y-85996000D02*
X128891000Y-86960000D01*
X128771000Y-85905000D02*
X128771000Y-86960000D01*
X129051000Y-86136000D02*
X129051000Y-86960000D01*
X127810000Y-85480000D02*
X127810000Y-86960000D01*
X128731000Y-89040000D02*
X128731000Y-90122000D01*
X128211000Y-89040000D02*
X128211000Y-90398000D01*
X128971000Y-89040000D02*
X128971000Y-89937000D01*
X129251000Y-89040000D02*
X129251000Y-89653000D01*
X129331000Y-89040000D02*
X129331000Y-89554000D01*
X124445225Y-86525000D02*
X124945225Y-86525000D01*
X127570000Y-85439000D02*
X127570000Y-86960000D01*
X129251000Y-86347000D02*
X129251000Y-86960000D01*
X128691000Y-85851000D02*
X128691000Y-86960000D01*
X129531000Y-89040000D02*
X129531000Y-89251000D01*
X129811000Y-87482000D02*
X129811000Y-88518000D01*
X128611000Y-89040000D02*
X128611000Y-90200000D01*
X129411000Y-86557000D02*
X129411000Y-86960000D01*
X129451000Y-86617000D02*
X129451000Y-86960000D01*
X127690000Y-85457000D02*
X127690000Y-86960000D01*
X128651000Y-85825000D02*
X128651000Y-86960000D01*
X129291000Y-89040000D02*
X129291000Y-89605000D01*
X127290000Y-85420000D02*
X127290000Y-90580000D01*
X128051000Y-85545000D02*
X128051000Y-86960000D01*
X128131000Y-89040000D02*
X128131000Y-90428000D01*
X127250000Y-85420000D02*
X127250000Y-90580000D01*
X127490000Y-85431000D02*
X127490000Y-86960000D01*
X127570000Y-89040000D02*
X127570000Y-90561000D01*
X128451000Y-89040000D02*
X128451000Y-90290000D01*
X129211000Y-89040000D02*
X129211000Y-89699000D01*
X128011000Y-85532000D02*
X128011000Y-86960000D01*
X128171000Y-89040000D02*
X128171000Y-90414000D01*
X128491000Y-89040000D02*
X128491000Y-90268000D01*
X127890000Y-85499000D02*
X127890000Y-86960000D01*
X128171000Y-85586000D02*
X128171000Y-86960000D01*
X128531000Y-85753000D02*
X128531000Y-86960000D01*
X127930000Y-85509000D02*
X127930000Y-86960000D01*
X128811000Y-85935000D02*
X128811000Y-86960000D01*
X128251000Y-89040000D02*
X128251000Y-90382000D01*
X127850000Y-85489000D02*
X127850000Y-86960000D01*
X127770000Y-89040000D02*
X127770000Y-90528000D01*
X128331000Y-89040000D02*
X128331000Y-90348000D01*
X128851000Y-89040000D02*
X128851000Y-90035000D01*
X127810000Y-89040000D02*
X127810000Y-90520000D01*
X128851000Y-85965000D02*
X128851000Y-86960000D01*
X128051000Y-89040000D02*
X128051000Y-90455000D01*
X129491000Y-89040000D02*
X129491000Y-89319000D01*
X127450000Y-85427000D02*
X127450000Y-90573000D01*
X128211000Y-85602000D02*
X128211000Y-86960000D01*
X127410000Y-85424000D02*
X127410000Y-90576000D01*
X128891000Y-89040000D02*
X128891000Y-90004000D01*
X127370000Y-85422000D02*
X127370000Y-90578000D01*
X127650000Y-85450000D02*
X127650000Y-86960000D01*
X128091000Y-89040000D02*
X128091000Y-90442000D01*
X129371000Y-89040000D02*
X129371000Y-89500000D01*
X127930000Y-89040000D02*
X127930000Y-90491000D01*
X129491000Y-86681000D02*
X129491000Y-86960000D01*
X129091000Y-86174000D02*
X129091000Y-86960000D01*
X128411000Y-85690000D02*
X128411000Y-86960000D01*
X127730000Y-85464000D02*
X127730000Y-86960000D01*
X128611000Y-85800000D02*
X128611000Y-86960000D01*
X127330000Y-85421000D02*
X127330000Y-90579000D01*
X127890000Y-89040000D02*
X127890000Y-90501000D01*
X129171000Y-86257000D02*
X129171000Y-86960000D01*
X129771000Y-87323000D02*
X129771000Y-88677000D01*
X127610000Y-89040000D02*
X127610000Y-90556000D01*
X127650000Y-89040000D02*
X127650000Y-90550000D01*
X129331000Y-86446000D02*
X129331000Y-86960000D01*
X129870000Y-88000000D02*
G75*
G03*
X129870000Y-88000000I-2620000J0D01*
G01*
G04 #@! TO.C,J1*
X178080000Y-58000000D02*
X192080000Y-58000000D01*
X192080000Y-58000000D02*
X192080000Y-44000000D01*
X178080000Y-44000000D02*
X178080000Y-58000000D01*
X192080000Y-44000000D02*
X178080000Y-44000000D01*
G04 #@! TO.C,D1*
X169410000Y-116455000D02*
X169410000Y-119545000D01*
X174960000Y-118000462D02*
G75*
G03*
X169410000Y-116455170I-2990000J462D01*
G01*
X169410000Y-119544830D02*
G75*
G03*
X174960000Y-117999538I2560000J1544830D01*
G01*
X174470000Y-118000000D02*
G75*
G03*
X174470000Y-118000000I-2500000J0D01*
G01*
G04 #@! TO.C,R2*
X132157600Y-112500000D02*
X131387600Y-112500000D01*
X131387600Y-111130000D02*
X124847600Y-111130000D01*
X124077600Y-112500000D02*
X124847600Y-112500000D01*
X131387600Y-113870000D02*
X131387600Y-111130000D01*
X124847600Y-111130000D02*
X124847600Y-113870000D01*
X124847600Y-113870000D02*
X131387600Y-113870000D01*
G04 #@! TO.C,D2*
X130540000Y-119545000D02*
X130540000Y-116455000D01*
X124990000Y-117999538D02*
G75*
G03*
X130540000Y-119544830I2990000J-462D01*
G01*
X130540000Y-116455170D02*
G75*
G03*
X124990000Y-118000462I-2560000J-1544830D01*
G01*
X130480000Y-118000000D02*
G75*
G03*
X130480000Y-118000000I-2500000J0D01*
G01*
G04 #@! TO.C,G\u002A\u002A\u002A*
G36*
X157518104Y-111996693D02*
G01*
X157622195Y-111700992D01*
X157772564Y-111456681D01*
X157803951Y-111420281D01*
X158006539Y-111260951D01*
X158249825Y-111167927D01*
X158512843Y-111141199D01*
X158774628Y-111180759D01*
X159014217Y-111286599D01*
X159177557Y-111420845D01*
X159254758Y-111524918D01*
X159340178Y-111670768D01*
X159381300Y-111753505D01*
X159424433Y-111856587D01*
X159453826Y-111958862D01*
X159472033Y-112080877D01*
X159481609Y-112243178D01*
X159485110Y-112466310D01*
X159485383Y-112590552D01*
X159484434Y-112839730D01*
X159479424Y-113019422D01*
X159467114Y-113150690D01*
X159444263Y-113254598D01*
X159407631Y-113352208D01*
X159353978Y-113464583D01*
X159349554Y-113473440D01*
X159190620Y-113723912D01*
X158999634Y-113894140D01*
X158765504Y-113991972D01*
X158575537Y-114021185D01*
X158333688Y-114018588D01*
X158135218Y-113976517D01*
X158134121Y-113976110D01*
X157988589Y-113905552D01*
X157860327Y-113817694D01*
X157846662Y-113805552D01*
X157680108Y-113593214D01*
X157557826Y-113320350D01*
X157480150Y-113005613D01*
X157447416Y-112667657D01*
X157449410Y-112613190D01*
X158037617Y-112613190D01*
X158050276Y-112938062D01*
X158089577Y-113185148D01*
X158158609Y-113364097D01*
X158260461Y-113484561D01*
X158330838Y-113529010D01*
X158430991Y-113573895D01*
X158504417Y-113580180D01*
X158602168Y-113550041D01*
X158624651Y-113541538D01*
X158752270Y-113445299D01*
X158848076Y-113268544D01*
X158910377Y-113016151D01*
X158937484Y-112693000D01*
X158938436Y-112635828D01*
X158924021Y-112271188D01*
X158874211Y-111986076D01*
X158789388Y-111782042D01*
X158703214Y-111683305D01*
X158547193Y-111604871D01*
X158391470Y-111616827D01*
X158272307Y-111685734D01*
X158174714Y-111789648D01*
X158105989Y-111932431D01*
X158062681Y-112127715D01*
X158041340Y-112389135D01*
X158037617Y-112613190D01*
X157449410Y-112613190D01*
X157459955Y-112325132D01*
X157518104Y-111996693D01*
G37*
G36*
X150829495Y-112913812D02*
G01*
X151016177Y-112784980D01*
X151276080Y-112707545D01*
X151595989Y-112682099D01*
X151772243Y-112680198D01*
X151876701Y-112671782D01*
X151928117Y-112650923D01*
X151945247Y-112611694D01*
X151946881Y-112571200D01*
X151908255Y-112457297D01*
X151822371Y-112362199D01*
X151753335Y-112314209D01*
X151679920Y-112287209D01*
X151577961Y-112277813D01*
X151423296Y-112282637D01*
X151307533Y-112290090D01*
X150917205Y-112317078D01*
X150891635Y-112126437D01*
X150881683Y-112010014D01*
X150900340Y-111935252D01*
X150963493Y-111889795D01*
X151087025Y-111861287D01*
X151259545Y-111840275D01*
X151628707Y-111825159D01*
X151931057Y-111867177D01*
X152171029Y-111967574D01*
X152353056Y-112127592D01*
X152372273Y-112152272D01*
X152406371Y-112204474D01*
X152431680Y-112265958D01*
X152449826Y-112350953D01*
X152462435Y-112473687D01*
X152471133Y-112648391D01*
X152477549Y-112889292D01*
X152481618Y-113108834D01*
X152495678Y-113937722D01*
X152255237Y-113965073D01*
X151909298Y-113999756D01*
X151637123Y-114015891D01*
X151423942Y-114013931D01*
X151261707Y-113995560D01*
X151009106Y-113919046D01*
X150830270Y-113791276D01*
X150721696Y-113608206D01*
X150679877Y-113365790D01*
X150679144Y-113323327D01*
X150679280Y-113322496D01*
X151223555Y-113322496D01*
X151261969Y-113451279D01*
X151323087Y-113516149D01*
X151447608Y-113563983D01*
X151635628Y-113585796D01*
X151685297Y-113586631D01*
X151946881Y-113586631D01*
X151946881Y-113342455D01*
X151937675Y-113181663D01*
X151898280Y-113091152D01*
X151811026Y-113051520D01*
X151674467Y-113043315D01*
X151523493Y-113062000D01*
X151378496Y-113109302D01*
X151275927Y-113172094D01*
X151258032Y-113193296D01*
X151223555Y-113322496D01*
X150679280Y-113322496D01*
X150716872Y-113093457D01*
X150829495Y-112913812D01*
G37*
G36*
X146948912Y-112599046D02*
G01*
X147011658Y-112421541D01*
X147101148Y-112266950D01*
X147266121Y-112068014D01*
X147460546Y-111936513D01*
X147701332Y-111864379D01*
X147988756Y-111843493D01*
X148182650Y-111847156D01*
X148318765Y-111863219D01*
X148429745Y-111899292D01*
X148548238Y-111962988D01*
X148577347Y-111980719D01*
X148807938Y-112172018D01*
X148965395Y-112416401D01*
X149049187Y-112712836D01*
X149063913Y-112927537D01*
X149051459Y-113158837D01*
X149010526Y-113335920D01*
X148969447Y-113430559D01*
X148792009Y-113685094D01*
X148561739Y-113874812D01*
X148293354Y-113993784D01*
X148001572Y-114036082D01*
X147701109Y-113995779D01*
X147625613Y-113971836D01*
X147345940Y-113829845D01*
X147133911Y-113629993D01*
X146993916Y-113377990D01*
X146930343Y-113079547D01*
X146929403Y-113065960D01*
X146925808Y-112902557D01*
X147480407Y-112902557D01*
X147504328Y-113117134D01*
X147572100Y-113309852D01*
X147675808Y-113459966D01*
X147807538Y-113546732D01*
X147839603Y-113555281D01*
X148014962Y-113560538D01*
X148188234Y-113519236D01*
X148297069Y-113457082D01*
X148422510Y-113291643D01*
X148489350Y-113077057D01*
X148494040Y-112836068D01*
X148433032Y-112591423D01*
X148432356Y-112589729D01*
X148324243Y-112418004D01*
X148177306Y-112314831D01*
X148009608Y-112278311D01*
X147839215Y-112306545D01*
X147684191Y-112397634D01*
X147562603Y-112549680D01*
X147508253Y-112686865D01*
X147480407Y-112902557D01*
X146925808Y-112902557D01*
X146923637Y-112803884D01*
X146948912Y-112599046D01*
G37*
G36*
X150091171Y-112077214D02*
G01*
X150092308Y-112404764D01*
X150095198Y-112706384D01*
X150099569Y-112969057D01*
X150105148Y-113179763D01*
X150111666Y-113325486D01*
X150118584Y-113392271D01*
X150186161Y-113484602D01*
X150297350Y-113542362D01*
X150398188Y-113584552D01*
X150432816Y-113640350D01*
X150424486Y-113736722D01*
X150395339Y-113881609D01*
X150357603Y-113958435D01*
X150289682Y-113988753D01*
X150169982Y-113994116D01*
X150166584Y-113994117D01*
X149933427Y-113952602D01*
X149814931Y-113890887D01*
X149741291Y-113838932D01*
X149682648Y-113786244D01*
X149637288Y-113722395D01*
X149603498Y-113636957D01*
X149579566Y-113519504D01*
X149563779Y-113359606D01*
X149554424Y-113146838D01*
X149549787Y-112870770D01*
X149548156Y-112520976D01*
X149547905Y-112265350D01*
X149547110Y-111884686D01*
X149546847Y-111584636D01*
X149549645Y-111355287D01*
X149558033Y-111186721D01*
X149574538Y-111069025D01*
X149601691Y-110992283D01*
X149642018Y-110946578D01*
X149698049Y-110921996D01*
X149772313Y-110908622D01*
X149867338Y-110896539D01*
X149898128Y-110892019D01*
X150090553Y-110862094D01*
X150091171Y-112077214D01*
G37*
G36*
X146493219Y-111871391D02*
G01*
X146615186Y-111906924D01*
X146668411Y-111944640D01*
X146672969Y-112004368D01*
X146665105Y-112041177D01*
X146621800Y-112206185D01*
X146581333Y-112298100D01*
X146528036Y-112332470D01*
X146446242Y-112324844D01*
X146393134Y-112311073D01*
X146174999Y-112279960D01*
X145961334Y-112299500D01*
X145783126Y-112365025D01*
X145717810Y-112412811D01*
X145602187Y-112578271D01*
X145539596Y-112789133D01*
X145531404Y-113016430D01*
X145578978Y-113231195D01*
X145671634Y-113391030D01*
X145816669Y-113492952D01*
X146027339Y-113545231D01*
X146292124Y-113545619D01*
X146398088Y-113532682D01*
X146528409Y-113515283D01*
X146614665Y-113508231D01*
X146633307Y-113510015D01*
X146649151Y-113556899D01*
X146675817Y-113661758D01*
X146688148Y-113715151D01*
X146711247Y-113837316D01*
X146702491Y-113901693D01*
X146653300Y-113938003D01*
X146619914Y-113951503D01*
X146453204Y-113991773D01*
X146234931Y-114014128D01*
X146002524Y-114017397D01*
X145793412Y-114000412D01*
X145695981Y-113980377D01*
X145418007Y-113861716D01*
X145207183Y-113682427D01*
X145063853Y-113443011D01*
X144988359Y-113143969D01*
X144975768Y-112930124D01*
X145001478Y-112630309D01*
X145083009Y-112387697D01*
X145228720Y-112182375D01*
X145330049Y-112085937D01*
X145591586Y-111920154D01*
X145893559Y-111832871D01*
X146229143Y-111825346D01*
X146493219Y-111871391D01*
G37*
G36*
X144046475Y-111830596D02*
G01*
X144227970Y-111850671D01*
X144382856Y-111878930D01*
X144484445Y-111911151D01*
X144504019Y-111924042D01*
X144510373Y-111977428D01*
X144501336Y-112085963D01*
X144495170Y-112128464D01*
X144465768Y-112312332D01*
X144074083Y-112286956D01*
X143875755Y-112277064D01*
X143747769Y-112279830D01*
X143670540Y-112297269D01*
X143624485Y-112331392D01*
X143622841Y-112333341D01*
X143578207Y-112432210D01*
X143616285Y-112525921D01*
X143739753Y-112617742D01*
X143923700Y-112700548D01*
X144183221Y-112808550D01*
X144368755Y-112908288D01*
X144494972Y-113009924D01*
X144576544Y-113123622D01*
X144596645Y-113166662D01*
X144645328Y-113387172D01*
X144608305Y-113594940D01*
X144490415Y-113778142D01*
X144296501Y-113924955D01*
X144283290Y-113931966D01*
X144146919Y-113975435D01*
X143950282Y-114004594D01*
X143722732Y-114018104D01*
X143493620Y-114014625D01*
X143292301Y-113992820D01*
X143231194Y-113979954D01*
X143004813Y-113923285D01*
X143015875Y-113743639D01*
X143029470Y-113586680D01*
X143057740Y-113505083D01*
X143118793Y-113483721D01*
X143230740Y-113507469D01*
X143280868Y-113522305D01*
X143509386Y-113573106D01*
X143718227Y-113586757D01*
X143891465Y-113565537D01*
X144013176Y-113511726D01*
X144067432Y-113427607D01*
X144068806Y-113409476D01*
X144059748Y-113349078D01*
X144023014Y-113296718D01*
X143944263Y-113242503D01*
X143809155Y-113176538D01*
X143605447Y-113089799D01*
X143355225Y-112971518D01*
X143183858Y-112851318D01*
X143080226Y-112717036D01*
X143033213Y-112556507D01*
X143027451Y-112457355D01*
X143067392Y-112234290D01*
X143182870Y-112054459D01*
X143367364Y-111922800D01*
X143614354Y-111844253D01*
X143865062Y-111822930D01*
X144046475Y-111830596D01*
G37*
G36*
X142597326Y-111662388D02*
G01*
X141929501Y-111674918D01*
X141261676Y-111687447D01*
X141261676Y-112270990D01*
X141861587Y-112283623D01*
X142461497Y-112296256D01*
X142461497Y-112749019D01*
X141861587Y-112761652D01*
X141261676Y-112774286D01*
X141261676Y-113496078D01*
X142710517Y-113496078D01*
X142710517Y-113994117D01*
X141713018Y-113994117D01*
X141367714Y-113992856D01*
X141104183Y-113988746D01*
X140913675Y-113981297D01*
X140787444Y-113970019D01*
X140716738Y-113954421D01*
X140693600Y-113936999D01*
X140688433Y-113878687D01*
X140684507Y-113741635D01*
X140681905Y-113537652D01*
X140680711Y-113278544D01*
X140681009Y-112976116D01*
X140682884Y-112642177D01*
X140683702Y-112544753D01*
X140695722Y-111209625D01*
X141660241Y-111197399D01*
X142624760Y-111185172D01*
X142597326Y-111662388D01*
G37*
G36*
X156819479Y-113372565D02*
G01*
X156964074Y-113464563D01*
X156970316Y-113471063D01*
X157059518Y-113619205D01*
X157062318Y-113770888D01*
X156979300Y-113910431D01*
X156953046Y-113934991D01*
X156798112Y-114024093D01*
X156643474Y-114022803D01*
X156505930Y-113947660D01*
X156388717Y-113820604D01*
X156358680Y-113685754D01*
X156402588Y-113549104D01*
X156514081Y-113418224D01*
X156661263Y-113358248D01*
X156819479Y-113372565D01*
G37*
G36*
X154094479Y-112570968D02*
G01*
X154265389Y-112305011D01*
X154467993Y-112020816D01*
X154694635Y-111730249D01*
X154937656Y-111445174D01*
X154956022Y-111424688D01*
X155070594Y-111300762D01*
X155154760Y-111229736D01*
X155238333Y-111196888D01*
X155351130Y-111187492D01*
X155437351Y-111186987D01*
X155704813Y-111186987D01*
X155704813Y-112885723D01*
X155851961Y-112885286D01*
X155940990Y-112890190D01*
X155986188Y-112921516D01*
X156005457Y-113003139D01*
X156012909Y-113099910D01*
X156026708Y-113314973D01*
X155704813Y-113314973D01*
X155704813Y-113994117D01*
X155161497Y-113994117D01*
X155161497Y-113314973D01*
X153848485Y-113314973D01*
X153848485Y-113140776D01*
X153878370Y-113000715D01*
X153938768Y-112862210D01*
X154440356Y-112862210D01*
X155161497Y-112862210D01*
X155161497Y-111856272D01*
X154978966Y-112076264D01*
X154855658Y-112235245D01*
X154719374Y-112426445D01*
X154618395Y-112579233D01*
X154440356Y-112862210D01*
X153938768Y-112862210D01*
X153962920Y-112806824D01*
X154094479Y-112570968D01*
G37*
G04 #@! TO.C,J7*
X159318000Y-60960000D02*
X159318000Y-61020000D01*
X156658000Y-58360000D02*
X157988000Y-58360000D01*
X156658000Y-60960000D02*
X156658000Y-61020000D01*
X156658000Y-59690000D02*
X156658000Y-58360000D01*
X156658000Y-60960000D02*
X159318000Y-60960000D01*
X156658000Y-61020000D02*
X159318000Y-61020000D01*
G04 #@! TO.C,J8*
X152340000Y-59690000D02*
X152340000Y-58360000D01*
X152340000Y-60960000D02*
X152340000Y-61020000D01*
X155000000Y-60960000D02*
X155000000Y-61020000D01*
X152340000Y-60960000D02*
X155000000Y-60960000D01*
X152340000Y-58360000D02*
X153670000Y-58360000D01*
X152340000Y-61020000D02*
X155000000Y-61020000D01*
G04 #@! TD*
M02*
