G04 #@! TF.GenerationSoftware,KiCad,Pcbnew,(6.0.11)*
G04 #@! TF.CreationDate,2024-05-31T14:19:49-03:00*
G04 #@! TF.ProjectId,bitmovel,6269746d-6f76-4656-9c2e-6b696361645f,rev?*
G04 #@! TF.SameCoordinates,Original*
G04 #@! TF.FileFunction,Copper,L2,Bot*
G04 #@! TF.FilePolarity,Positive*
%FSLAX46Y46*%
G04 Gerber Fmt 4.6, Leading zero omitted, Abs format (unit mm)*
G04 Created by KiCad (PCBNEW (6.0.11)) date 2024-05-31 14:19:49*
%MOMM*%
%LPD*%
G01*
G04 APERTURE LIST*
G04 Aperture macros list*
%AMRoundRect*
0 Rectangle with rounded corners*
0 $1 Rounding radius*
0 $2 $3 $4 $5 $6 $7 $8 $9 X,Y pos of 4 corners*
0 Add a 4 corners polygon primitive as box body*
4,1,4,$2,$3,$4,$5,$6,$7,$8,$9,$2,$3,0*
0 Add four circle primitives for the rounded corners*
1,1,$1+$1,$2,$3*
1,1,$1+$1,$4,$5*
1,1,$1+$1,$6,$7*
1,1,$1+$1,$8,$9*
0 Add four rect primitives between the rounded corners*
20,1,$1+$1,$2,$3,$4,$5,0*
20,1,$1+$1,$4,$5,$6,$7,0*
20,1,$1+$1,$6,$7,$8,$9,0*
20,1,$1+$1,$8,$9,$2,$3,0*%
G04 Aperture macros list end*
G04 #@! TA.AperFunction,ComponentPad*
%ADD10C,1.600000*%
G04 #@! TD*
G04 #@! TA.AperFunction,ComponentPad*
%ADD11O,1.600000X1.600000*%
G04 #@! TD*
G04 #@! TA.AperFunction,ComponentPad*
%ADD12C,4.200000*%
G04 #@! TD*
G04 #@! TA.AperFunction,ConnectorPad*
%ADD13R,3.000000X7.000000*%
G04 #@! TD*
G04 #@! TA.AperFunction,ConnectorPad*
%ADD14R,0.800000X5.000000*%
G04 #@! TD*
G04 #@! TA.AperFunction,ComponentPad*
%ADD15C,1.800000*%
G04 #@! TD*
G04 #@! TA.AperFunction,ComponentPad*
%ADD16C,1.905000*%
G04 #@! TD*
G04 #@! TA.AperFunction,WasherPad*
%ADD17RoundRect,0.400000X0.000000X0.600000X0.000000X0.600000X0.000000X-0.600000X0.000000X-0.600000X0*%
G04 #@! TD*
G04 #@! TA.AperFunction,ComponentPad*
%ADD18C,2.000000*%
G04 #@! TD*
G04 #@! TA.AperFunction,ComponentPad*
%ADD19C,1.700000*%
G04 #@! TD*
G04 #@! TA.AperFunction,ComponentPad*
%ADD20O,1.700000X1.700000*%
G04 #@! TD*
G04 #@! TA.AperFunction,SMDPad,CuDef*
%ADD21RoundRect,0.750000X0.750000X0.750000X-0.750000X0.750000X-0.750000X-0.750000X0.750000X-0.750000X0*%
G04 #@! TD*
G04 #@! TA.AperFunction,SMDPad,CuDef*
%ADD22RoundRect,0.750000X-0.750000X-0.750000X0.750000X-0.750000X0.750000X0.750000X-0.750000X0.750000X0*%
G04 #@! TD*
G04 #@! TA.AperFunction,Conductor*
%ADD23C,0.800000*%
G04 #@! TD*
G04 APERTURE END LIST*
D10*
G04 #@! TO.P,R1,1*
G04 #@! TO.N,/Vin*
X177000000Y-112500000D03*
D11*
G04 #@! TO.P,R1,2*
G04 #@! TO.N,Net-(D1-Pad2)*
X166840000Y-112500000D03*
G04 #@! TD*
D12*
G04 #@! TO.P,J2,*
G04 #@! TO.N,*
X138500000Y-50000000D03*
X150000000Y-50000000D03*
X128500000Y-50000000D03*
X161500000Y-50000000D03*
X171500000Y-50000000D03*
D13*
G04 #@! TO.P,J2,1,Pin_1*
G04 #@! TO.N,Net-(J2-Pad1)*
X128500000Y-53500000D03*
G04 #@! TO.P,J2,2,Pin_2*
G04 #@! TO.N,Net-(J2-Pad2)*
X138500000Y-53500000D03*
D14*
G04 #@! TO.P,J2,3,Pin_3*
G04 #@! TO.N,Net-(J2-Pad3)*
X141710000Y-54500000D03*
D13*
G04 #@! TO.P,J2,4,Pin_4*
G04 #@! TO.N,Net-(J2-Pad4)*
X150000000Y-53500000D03*
D14*
G04 #@! TO.P,J2,5,Pin_5*
G04 #@! TO.N,Net-(J2-Pad5)*
X153210000Y-54500000D03*
G04 #@! TO.P,J2,6,Pin_6*
G04 #@! TO.N,Net-(J2-Pad6)*
X155750000Y-54500000D03*
D13*
G04 #@! TO.P,J2,7,Pin_7*
G04 #@! TO.N,/3.3V*
X161500000Y-53500000D03*
G04 #@! TO.P,J2,8,Pin_8*
G04 #@! TO.N,GND*
X171500000Y-53500000D03*
D14*
G04 #@! TO.P,J2,9,Pin_9*
G04 #@! TO.N,Net-(J2-Pad9)*
X154480000Y-54500000D03*
G04 #@! TO.P,J2,10,Pin_10*
G04 #@! TO.N,Net-(J2-Pad10)*
X157020000Y-54500000D03*
G04 #@! TD*
D10*
G04 #@! TO.P,U2,1,EN1\u002C2*
G04 #@! TO.N,Net-(J2-Pad3)*
X126700000Y-65000000D03*
D11*
G04 #@! TO.P,U2,2,1A*
G04 #@! TO.N,Net-(J2-Pad2)*
X126700000Y-67540000D03*
G04 #@! TO.P,U2,3,1Y*
G04 #@! TO.N,Net-(J3-Pad1)*
X126700000Y-70080000D03*
G04 #@! TO.P,U2,4,GND*
G04 #@! TO.N,GND*
X126700000Y-72620000D03*
G04 #@! TO.P,U2,5,GND*
X126700000Y-75160000D03*
G04 #@! TO.P,U2,6,2Y*
G04 #@! TO.N,Net-(J3-Pad2)*
X126700000Y-77700000D03*
G04 #@! TO.P,U2,7,2A*
G04 #@! TO.N,Net-(J2-Pad1)*
X126700000Y-80240000D03*
G04 #@! TO.P,U2,8,VCC2*
G04 #@! TO.N,/Vin*
X126700000Y-82780000D03*
G04 #@! TO.P,U2,9,EN3\u002C4*
G04 #@! TO.N,Net-(J2-Pad6)*
X134320000Y-82780000D03*
G04 #@! TO.P,U2,10,3A*
G04 #@! TO.N,Net-(J2-Pad5)*
X134320000Y-80240000D03*
G04 #@! TO.P,U2,11,3Y*
G04 #@! TO.N,Net-(J4-Pad1)*
X134320000Y-77700000D03*
G04 #@! TO.P,U2,12,GND*
G04 #@! TO.N,GND*
X134320000Y-75160000D03*
G04 #@! TO.P,U2,13,GND*
X134320000Y-72620000D03*
G04 #@! TO.P,U2,14,4Y*
G04 #@! TO.N,Net-(J4-Pad2)*
X134320000Y-70080000D03*
G04 #@! TO.P,U2,15,4A*
G04 #@! TO.N,Net-(J2-Pad4)*
X134320000Y-67540000D03*
G04 #@! TO.P,U2,16,VCC1*
G04 #@! TO.N,/Vin*
X134320000Y-65000000D03*
G04 #@! TD*
D15*
G04 #@! TO.P,REF\u002A\u002A,1*
G04 #@! TO.N,Net-(J3-Pad2)*
X129730000Y-102000000D03*
G04 #@! TO.P,REF\u002A\u002A,2*
G04 #@! TO.N,Net-(J3-Pad1)*
X132270000Y-102000000D03*
G04 #@! TD*
G04 #@! TO.P,REF\u002A\u002A,1*
G04 #@! TO.N,Net-(J4-Pad1)*
X167730000Y-102000000D03*
G04 #@! TO.P,REF\u002A\u002A,2*
G04 #@! TO.N,Net-(J4-Pad2)*
X170270000Y-102000000D03*
G04 #@! TD*
D16*
G04 #@! TO.P,U1,1,GND*
G04 #@! TO.N,GND*
X166900000Y-83000000D03*
G04 #@! TO.P,U1,2,VO*
G04 #@! TO.N,/3.3V*
X166900000Y-80460000D03*
G04 #@! TO.P,U1,3,VI*
G04 #@! TO.N,/Vin*
X166900000Y-77920000D03*
G04 #@! TD*
D17*
G04 #@! TO.P,SW1,*
G04 #@! TO.N,*
X163700000Y-66600000D03*
X175700000Y-66600000D03*
D18*
G04 #@! TO.P,SW1,1,A*
G04 #@! TO.N,Net-(J1-Pad2)*
X172700000Y-66600000D03*
G04 #@! TO.P,SW1,2,B*
G04 #@! TO.N,Net-(D3-Pad2)*
X169700000Y-66600000D03*
G04 #@! TO.P,SW1,3*
G04 #@! TO.N,N/C*
X166700000Y-66600000D03*
G04 #@! TD*
G04 #@! TO.P,D3,1,K*
G04 #@! TO.N,/Vin*
X165000000Y-72500000D03*
G04 #@! TO.P,D3,2,A*
G04 #@! TO.N,Net-(D3-Pad2)*
X172620000Y-72500000D03*
G04 #@! TD*
D10*
G04 #@! TO.P,C1,1*
G04 #@! TO.N,/Vin*
X171200000Y-77500000D03*
G04 #@! TO.P,C1,2*
G04 #@! TO.N,GND*
X173700000Y-77500000D03*
G04 #@! TD*
G04 #@! TO.P,C2,1*
G04 #@! TO.N,/3.3V*
X171200000Y-83500000D03*
G04 #@! TO.P,C2,2*
G04 #@! TO.N,GND*
X173700000Y-83500000D03*
G04 #@! TD*
G04 #@! TO.P,C3,1*
G04 #@! TO.N,/Vin*
X126000000Y-88000000D03*
G04 #@! TO.P,C3,2*
G04 #@! TO.N,GND*
X128500000Y-88000000D03*
G04 #@! TD*
D18*
G04 #@! TO.P,J1,1,Pin_1*
G04 #@! TO.N,GND*
X180000000Y-56300000D03*
G04 #@! TO.P,J1,2,Pin_2*
G04 #@! TO.N,Net-(J1-Pad2)*
X190160000Y-56300000D03*
G04 #@! TD*
D10*
G04 #@! TO.P,D1,1,K*
G04 #@! TO.N,GND*
X170700000Y-118000000D03*
G04 #@! TO.P,D1,2,A*
G04 #@! TO.N,Net-(D1-Pad2)*
X173240000Y-118000000D03*
G04 #@! TD*
G04 #@! TO.P,R2,1*
G04 #@! TO.N,/Vin*
X123037600Y-112500000D03*
D11*
G04 #@! TO.P,R2,2*
G04 #@! TO.N,Net-(D2-Pad2)*
X133197600Y-112500000D03*
G04 #@! TD*
D10*
G04 #@! TO.P,D2,1,K*
G04 #@! TO.N,GND*
X129250000Y-118000000D03*
G04 #@! TO.P,D2,2,A*
G04 #@! TO.N,Net-(D2-Pad2)*
X126710000Y-118000000D03*
G04 #@! TD*
D19*
G04 #@! TO.P,J6,1,Pin_1*
G04 #@! TO.N,/Vin*
X134000000Y-119000000D03*
D20*
G04 #@! TO.P,J6,2,Pin_2*
G04 #@! TO.N,GND*
X134000000Y-116460000D03*
G04 #@! TD*
D19*
G04 #@! TO.P,J7,1,Pin_1*
G04 #@! TO.N,Net-(J2-Pad10)*
X157988000Y-59690000D03*
G04 #@! TD*
G04 #@! TO.P,J9,1,Pin_1*
G04 #@! TO.N,/Vin*
X166000000Y-119000000D03*
D20*
G04 #@! TO.P,J9,2,Pin_2*
G04 #@! TO.N,GND*
X166000000Y-116460000D03*
G04 #@! TD*
D19*
G04 #@! TO.P,J8,1,Pin_1*
G04 #@! TO.N,Net-(J2-Pad9)*
X153670000Y-59690000D03*
G04 #@! TD*
D21*
G04 #@! TO.P,J3,1,Pin_1*
G04 #@! TO.N,Net-(J3-Pad1)*
X133500000Y-98000000D03*
G04 #@! TO.P,J3,2,Pin_2*
G04 #@! TO.N,Net-(J3-Pad2)*
X128500000Y-98000000D03*
G04 #@! TD*
D22*
G04 #@! TO.P,J4,1,Pin_1*
G04 #@! TO.N,Net-(J4-Pad1)*
X166500000Y-98000000D03*
G04 #@! TO.P,J4,2,Pin_2*
G04 #@! TO.N,Net-(J4-Pad2)*
X171500000Y-98000000D03*
G04 #@! TD*
D23*
G04 #@! TO.N,Net-(J2-Pad6)*
X134320000Y-82780000D02*
X137880000Y-82780000D01*
X137880000Y-82780000D02*
X162600000Y-107500000D01*
X155750000Y-61420000D02*
X155750000Y-54500000D01*
X166400000Y-88700000D02*
X154500000Y-76800000D01*
X173500000Y-88700000D02*
X166400000Y-88700000D01*
X162600000Y-107500000D02*
X174000000Y-107500000D01*
X174000000Y-107500000D02*
X178200000Y-103300000D01*
X154500000Y-62670000D02*
X155750000Y-61420000D01*
X178200000Y-93400000D02*
X173500000Y-88700000D01*
X154500000Y-76800000D02*
X154500000Y-62670000D01*
X178200000Y-103300000D02*
X178200000Y-93400000D01*
G04 #@! TO.N,Net-(J2-Pad5)*
X153200000Y-55010000D02*
X153200000Y-57620000D01*
X153210000Y-55000000D02*
X153200000Y-55010000D01*
X172400000Y-91400000D02*
X175400000Y-94400000D01*
X163900000Y-104800000D02*
X139340000Y-80240000D01*
X151400000Y-77700000D02*
X165100000Y-91400000D01*
X151400000Y-59420000D02*
X151400000Y-77700000D01*
X139340000Y-80240000D02*
X134320000Y-80240000D01*
X153200000Y-57620000D02*
X151400000Y-59420000D01*
X165100000Y-91400000D02*
X172400000Y-91400000D01*
X172700000Y-104800000D02*
X163900000Y-104800000D01*
X175400000Y-94400000D02*
X175400000Y-102100000D01*
X175400000Y-102100000D02*
X172700000Y-104800000D01*
G04 #@! TO.N,Net-(J2-Pad4)*
X150000000Y-57600000D02*
X150000000Y-55000000D01*
X140060000Y-67540000D02*
X150000000Y-57600000D01*
X134320000Y-67540000D02*
X140060000Y-67540000D01*
G04 #@! TO.N,Net-(J2-Pad3)*
X138300000Y-62000000D02*
X141710000Y-58590000D01*
X126700000Y-65000000D02*
X129200000Y-65000000D01*
X132200000Y-62000000D02*
X138300000Y-62000000D01*
X129200000Y-65000000D02*
X132200000Y-62000000D01*
X141710000Y-58590000D02*
X141710000Y-54500000D01*
G04 #@! TO.N,Net-(J2-Pad2)*
X137100000Y-59000000D02*
X131100000Y-59000000D01*
X124940000Y-67540000D02*
X126700000Y-67540000D01*
X131100000Y-59000000D02*
X128600000Y-61500000D01*
X138500000Y-53500000D02*
X138500000Y-57600000D01*
X123700000Y-63100000D02*
X123700000Y-66300000D01*
X125300000Y-61500000D02*
X123700000Y-63100000D01*
X138500000Y-57600000D02*
X137100000Y-59000000D01*
X128600000Y-61500000D02*
X125300000Y-61500000D01*
X123700000Y-66300000D02*
X124940000Y-67540000D01*
G04 #@! TO.N,Net-(J2-Pad1)*
X128500000Y-57500000D02*
X127500000Y-58500000D01*
X112700000Y-77000000D02*
X112700000Y-96000000D01*
X128500000Y-53500000D02*
X128500000Y-57500000D01*
X112700000Y-96000000D02*
X123430800Y-106730800D01*
X138100000Y-101700000D02*
X138100000Y-95000000D01*
X120900000Y-61900000D02*
X120900000Y-68800000D01*
X138100000Y-95000000D02*
X137200000Y-94100000D01*
X123100000Y-92100000D02*
X123100000Y-82060000D01*
X124300000Y-58500000D02*
X120900000Y-61900000D01*
X123430800Y-106730800D02*
X133069200Y-106730800D01*
X127500000Y-58500000D02*
X124300000Y-58500000D01*
X137200000Y-94100000D02*
X125100000Y-94100000D01*
X133069200Y-106730800D02*
X138100000Y-101700000D01*
X125100000Y-94100000D02*
X123100000Y-92100000D01*
X123100000Y-82060000D02*
X124920000Y-80240000D01*
X124920000Y-80240000D02*
X126700000Y-80240000D01*
X120900000Y-68800000D02*
X112700000Y-77000000D01*
G04 #@! TO.N,/Vin*
X165050000Y-76050000D02*
X165000000Y-76050000D01*
X163444400Y-63855600D02*
X161700000Y-65600000D01*
X170780000Y-77920000D02*
X171200000Y-77500000D01*
X186300000Y-59978400D02*
X182422800Y-63855600D01*
X126680000Y-82800000D02*
X126700000Y-82800000D01*
X126700000Y-82780000D02*
X127620000Y-82780000D01*
X161700000Y-65600000D02*
X161700000Y-69200000D01*
X134493000Y-109448600D02*
X140900000Y-103041600D01*
X174900000Y-121300000D02*
X177000000Y-119200000D01*
X192600000Y-96400000D02*
X192600000Y-49700000D01*
X166000000Y-119000000D02*
X166000000Y-121172400D01*
X134000000Y-121223800D02*
X133923800Y-121300000D01*
X126000000Y-83480000D02*
X126680000Y-82800000D01*
X166900000Y-77900000D02*
X165050000Y-76050000D01*
X161700000Y-69200000D02*
X165000000Y-72500000D01*
X133923800Y-121300000D02*
X124800000Y-121300000D01*
X127600000Y-91300000D02*
X126000000Y-89700000D01*
X165000000Y-76050000D02*
X165000000Y-72500000D01*
X187600000Y-48400000D02*
X186300000Y-49700000D01*
X123000000Y-119500000D02*
X123000000Y-112537600D01*
X129400000Y-68800000D02*
X133200000Y-65000000D01*
X192600000Y-49700000D02*
X191300000Y-48400000D01*
X165872400Y-121300000D02*
X133923800Y-121300000D01*
X123000000Y-112537600D02*
X126089000Y-109448600D01*
X124800000Y-121300000D02*
X123000000Y-119500000D01*
X129400000Y-81000000D02*
X129400000Y-68800000D01*
X166900000Y-77920000D02*
X166900000Y-77900000D01*
X177000000Y-112000000D02*
X192600000Y-96400000D01*
X166900000Y-77920000D02*
X170780000Y-77920000D01*
X133200000Y-65000000D02*
X134320000Y-65000000D01*
X191300000Y-48400000D02*
X187600000Y-48400000D01*
X127620000Y-82780000D02*
X129400000Y-81000000D01*
X140900000Y-103041600D02*
X140900000Y-93900000D01*
X126089000Y-109448600D02*
X134493000Y-109448600D01*
X140900000Y-93900000D02*
X138300000Y-91300000D01*
X165872400Y-121300000D02*
X174900000Y-121300000D01*
X126000000Y-89700000D02*
X126000000Y-83480000D01*
X134000000Y-119000000D02*
X134000000Y-121223800D01*
X138300000Y-91300000D02*
X127600000Y-91300000D01*
X186300000Y-49700000D02*
X186300000Y-59978400D01*
X182422800Y-63855600D02*
X163444400Y-63855600D01*
X177000000Y-119200000D02*
X177000000Y-112000000D01*
X166000000Y-121172400D02*
X165872400Y-121300000D01*
G04 #@! TO.N,/3.3V*
X178604000Y-45000000D02*
X183800000Y-50196000D01*
X164400000Y-48600000D02*
X168000000Y-45000000D01*
X164400000Y-51400000D02*
X164400000Y-48600000D01*
X162300000Y-53500000D02*
X164400000Y-51400000D01*
X159300000Y-74300000D02*
X165400000Y-80400000D01*
X166900000Y-80460000D02*
X168160000Y-80460000D01*
X166840000Y-80400000D02*
X166900000Y-80460000D01*
X183800000Y-50196000D02*
X183800000Y-58465200D01*
X162433000Y-61849000D02*
X159300000Y-64982000D01*
X161500000Y-53500000D02*
X161500000Y-55000000D01*
X180416200Y-61849000D02*
X162433000Y-61849000D01*
X168160000Y-80460000D02*
X171200000Y-83500000D01*
X159300000Y-64982000D02*
X159300000Y-74300000D01*
X168000000Y-45000000D02*
X178604000Y-45000000D01*
X165400000Y-80400000D02*
X166840000Y-80400000D01*
X183800000Y-58465200D02*
X180416200Y-61849000D01*
X161500000Y-53500000D02*
X162300000Y-53500000D01*
G04 #@! TO.N,Net-(J3-Pad2)*
X120300000Y-93300000D02*
X120300000Y-80200000D01*
X128500000Y-98000000D02*
X128500000Y-100770000D01*
X128500000Y-98000000D02*
X125000000Y-98000000D01*
X120300000Y-80200000D02*
X122800000Y-77700000D01*
X128500000Y-100770000D02*
X129730000Y-102000000D01*
X125000000Y-98000000D02*
X120300000Y-93300000D01*
X122800000Y-77700000D02*
X126700000Y-77700000D01*
G04 #@! TO.N,Net-(J3-Pad1)*
X115500000Y-94800000D02*
X115500000Y-78200000D01*
X132270000Y-103518200D02*
X131394200Y-104394000D01*
X115500000Y-78200000D02*
X123620000Y-70080000D01*
X125094000Y-104394000D02*
X115500000Y-94800000D01*
X123620000Y-70080000D02*
X126700000Y-70080000D01*
X133500000Y-100770000D02*
X132270000Y-102000000D01*
X133500000Y-98000000D02*
X133500000Y-100770000D01*
X132270000Y-102000000D02*
X132270000Y-103518200D01*
X131394200Y-104394000D02*
X125094000Y-104394000D01*
G04 #@! TO.N,Net-(J4-Pad2)*
X170350000Y-94100000D02*
X163800000Y-94100000D01*
X139780000Y-70080000D02*
X134320000Y-70080000D01*
X171500000Y-98000000D02*
X171500000Y-100835000D01*
X171500000Y-95250000D02*
X170350000Y-94100000D01*
X171500000Y-98000000D02*
X171500000Y-95250000D01*
X163800000Y-94100000D02*
X139780000Y-70080000D01*
X170335000Y-102000000D02*
X170270000Y-102000000D01*
X171500000Y-100835000D02*
X170335000Y-102000000D01*
G04 #@! TO.N,Net-(J4-Pad1)*
X140700000Y-77700000D02*
X134320000Y-77700000D01*
X166500000Y-98000000D02*
X166500000Y-100800000D01*
X166500000Y-98000000D02*
X161000000Y-98000000D01*
X167700000Y-102000000D02*
X167730000Y-102000000D01*
X161000000Y-98000000D02*
X140700000Y-77700000D01*
X166500000Y-100800000D02*
X167700000Y-102000000D01*
G04 #@! TO.N,Net-(D1-Pad2)*
X173240000Y-116115400D02*
X169624600Y-112500000D01*
X169624600Y-112500000D02*
X166840000Y-112500000D01*
X173240000Y-118000000D02*
X173240000Y-116115400D01*
G04 #@! TO.N,Net-(D2-Pad2)*
X126710000Y-118000000D02*
X126710000Y-114690000D01*
X128900000Y-112500000D02*
X133197600Y-112500000D01*
X126710000Y-114690000D02*
X128900000Y-112500000D01*
G04 #@! TO.N,Net-(D3-Pad2)*
X172620000Y-72500000D02*
X169700000Y-69580000D01*
X169700000Y-69580000D02*
X169700000Y-66800000D01*
G04 #@! TO.N,Net-(J1-Pad2)*
X190160000Y-60004600D02*
X190160000Y-56300000D01*
X172700000Y-66600000D02*
X174781600Y-68681600D01*
X181483000Y-68681600D02*
X190160000Y-60004600D01*
X174781600Y-68681600D02*
X181483000Y-68681600D01*
G04 #@! TO.N,Net-(J2-Pad9)*
X154480000Y-58880000D02*
X154480000Y-54500000D01*
X153670000Y-59690000D02*
X154480000Y-58880000D01*
G04 #@! TO.N,Net-(J2-Pad10)*
X157020000Y-58722000D02*
X157020000Y-54500000D01*
X157988000Y-59690000D02*
X157020000Y-58722000D01*
G04 #@! TD*
G04 #@! TA.AperFunction,NonConductor*
G36*
X189943678Y-44001045D02*
G01*
X189946684Y-44000837D01*
X189985963Y-44005243D01*
X190014538Y-44002844D01*
X190027257Y-44004317D01*
X190027375Y-44001766D01*
X190322889Y-44015428D01*
X190414767Y-44023941D01*
X190565910Y-44045025D01*
X190689161Y-44062218D01*
X190779860Y-44079173D01*
X191049559Y-44142605D01*
X191138301Y-44167854D01*
X191401009Y-44255904D01*
X191487019Y-44289225D01*
X191740496Y-44401146D01*
X191823079Y-44442268D01*
X192065121Y-44577086D01*
X192143567Y-44625657D01*
X192372132Y-44782228D01*
X192445765Y-44837832D01*
X192658912Y-45014827D01*
X192727104Y-45076992D01*
X192923008Y-45272896D01*
X192985173Y-45341088D01*
X193162168Y-45554235D01*
X193217767Y-45627860D01*
X193294625Y-45740059D01*
X193391397Y-45917514D01*
X193450470Y-46110824D01*
X193469420Y-46312068D01*
X193447473Y-46513007D01*
X193385526Y-46705415D01*
X193286115Y-46881414D01*
X193153311Y-47033800D01*
X192992551Y-47156333D01*
X192810415Y-47243997D01*
X192614361Y-47293203D01*
X192412416Y-47301936D01*
X192212846Y-47269839D01*
X192023823Y-47198226D01*
X191964170Y-47165834D01*
X191937490Y-47150149D01*
X191937483Y-47150146D01*
X191907324Y-47132416D01*
X191898116Y-47128928D01*
X191889567Y-47124061D01*
X191793533Y-47089202D01*
X191780649Y-47084423D01*
X191685067Y-47048211D01*
X191675410Y-47046325D01*
X191666156Y-47042966D01*
X191631787Y-47036751D01*
X191631779Y-47036749D01*
X191628331Y-47036126D01*
X191628321Y-47036125D01*
X191627208Y-47035923D01*
X191627203Y-47035922D01*
X191565697Y-47024800D01*
X191551983Y-47022221D01*
X191481317Y-47008421D01*
X191481312Y-47008420D01*
X191451800Y-47002657D01*
X191441959Y-47002425D01*
X191432275Y-47000674D01*
X191407381Y-46999500D01*
X191329604Y-46999500D01*
X191306070Y-46999223D01*
X191214193Y-46997058D01*
X191214215Y-46996144D01*
X191197555Y-46995473D01*
X191197555Y-46999500D01*
X187685280Y-46999500D01*
X187628230Y-46997483D01*
X187622587Y-46997562D01*
X187580375Y-46994573D01*
X187511237Y-47001413D01*
X187478764Y-47004625D01*
X187464882Y-47005901D01*
X187398011Y-47011575D01*
X187398009Y-47011575D01*
X187363177Y-47014531D01*
X187353654Y-47017003D01*
X187343856Y-47017972D01*
X187310139Y-47027228D01*
X187310137Y-47027228D01*
X187275454Y-47036749D01*
X187252807Y-47042966D01*
X187245390Y-47045002D01*
X187231975Y-47048584D01*
X187133126Y-47074240D01*
X187124150Y-47078284D01*
X187114662Y-47080888D01*
X187082974Y-47095698D01*
X187082968Y-47095700D01*
X187022166Y-47124117D01*
X187009537Y-47129913D01*
X186916424Y-47171857D01*
X186908262Y-47177352D01*
X186899344Y-47181520D01*
X186870634Y-47201437D01*
X186870627Y-47201441D01*
X186815418Y-47239741D01*
X186803903Y-47247611D01*
X186796098Y-47252866D01*
X186719268Y-47304591D01*
X186712148Y-47311383D01*
X186704060Y-47316994D01*
X186685627Y-47333767D01*
X186630608Y-47388786D01*
X186613770Y-47405231D01*
X186547295Y-47468645D01*
X186546664Y-47467983D01*
X186534408Y-47479290D01*
X186537256Y-47482138D01*
X185508400Y-48510994D01*
X185351742Y-48638731D01*
X185172579Y-48732318D01*
X184978243Y-48787925D01*
X184776693Y-48803273D01*
X184576178Y-48777736D01*
X184384909Y-48712358D01*
X184210715Y-48609816D01*
X184095600Y-48510994D01*
X181290506Y-45705900D01*
X181162769Y-45549242D01*
X181069182Y-45370079D01*
X181013575Y-45175743D01*
X180998227Y-44974193D01*
X181023764Y-44773678D01*
X181089142Y-44582409D01*
X181191684Y-44408215D01*
X181327192Y-44258228D01*
X181490118Y-44138590D01*
X181673791Y-44054197D01*
X181870694Y-44008505D01*
X181996906Y-44000500D01*
X189943678Y-44000500D01*
X189943678Y-44001045D01*
G37*
G04 #@! TD.AperFunction*
G04 #@! TA.AperFunction,NonConductor*
G36*
X177811191Y-46420950D02*
G01*
X178004055Y-46481461D01*
X178180791Y-46579557D01*
X178316494Y-46693100D01*
X179260224Y-47636830D01*
X179387961Y-47793488D01*
X179481548Y-47972651D01*
X179537155Y-48166987D01*
X179552503Y-48368537D01*
X179526966Y-48569052D01*
X179461588Y-48760321D01*
X179359046Y-48934515D01*
X179223538Y-49084502D01*
X179069089Y-49199093D01*
X179019252Y-49229098D01*
X178995531Y-49247598D01*
X178995529Y-49247599D01*
X178908761Y-49315268D01*
X178757737Y-49433049D01*
X178522618Y-49666940D01*
X178317301Y-49927383D01*
X178144760Y-50210607D01*
X178132305Y-50238000D01*
X178132303Y-50238004D01*
X178063959Y-50388320D01*
X178007494Y-50512507D01*
X177951498Y-50689564D01*
X177871364Y-50875128D01*
X177755513Y-51040768D01*
X177608690Y-51179698D01*
X177508799Y-51241645D01*
X177511661Y-51243637D01*
X177650925Y-51390142D01*
X177757847Y-51561682D01*
X177828050Y-51751234D01*
X177844612Y-51827305D01*
X177900608Y-52143265D01*
X177997294Y-52460500D01*
X178009455Y-52488007D01*
X178009457Y-52488013D01*
X178076131Y-52638826D01*
X178131391Y-52763821D01*
X178300957Y-53048836D01*
X178503536Y-53311415D01*
X178524635Y-53332848D01*
X178629893Y-53439773D01*
X178756396Y-53597429D01*
X178848573Y-53777323D01*
X178902651Y-53972089D01*
X178916416Y-54173754D01*
X178889304Y-54374062D01*
X178822426Y-54564812D01*
X178718518Y-54738194D01*
X178607532Y-54863443D01*
X178516588Y-54950199D01*
X178341199Y-55172680D01*
X178198907Y-55417654D01*
X178092552Y-55680232D01*
X178024255Y-55955177D01*
X177995380Y-56237002D01*
X178006502Y-56520084D01*
X178057400Y-56798775D01*
X178068578Y-56832279D01*
X178068578Y-56832280D01*
X178102229Y-56933144D01*
X178147058Y-57067514D01*
X178162845Y-57099108D01*
X178225147Y-57223794D01*
X178273687Y-57320939D01*
X178434761Y-57553993D01*
X178627065Y-57762027D01*
X178654459Y-57784329D01*
X178751113Y-57863017D01*
X178846764Y-57940889D01*
X178877023Y-57959107D01*
X178877028Y-57959110D01*
X179059203Y-58068789D01*
X179059209Y-58068792D01*
X179089472Y-58087012D01*
X179137441Y-58107324D01*
X179317833Y-58183710D01*
X179317836Y-58183711D01*
X179350348Y-58197478D01*
X179624186Y-58270085D01*
X179659269Y-58274237D01*
X179659272Y-58274238D01*
X179716168Y-58280972D01*
X179913468Y-58324916D01*
X180097883Y-58407677D01*
X180261863Y-58525867D01*
X180398695Y-58674646D01*
X180502777Y-58847923D01*
X180569849Y-59038606D01*
X180597163Y-59238886D01*
X180583602Y-59440565D01*
X180529721Y-59635386D01*
X180437725Y-59815372D01*
X180305147Y-59979447D01*
X180128694Y-60155900D01*
X179972036Y-60283637D01*
X179792873Y-60377224D01*
X179598537Y-60432831D01*
X179422294Y-60448500D01*
X162518282Y-60448500D01*
X162461230Y-60446483D01*
X162455585Y-60446562D01*
X162413375Y-60443573D01*
X162371276Y-60447738D01*
X162371268Y-60447738D01*
X162311807Y-60453621D01*
X162297925Y-60454897D01*
X162230984Y-60460577D01*
X162230980Y-60460578D01*
X162196177Y-60463531D01*
X162186648Y-60466004D01*
X162176856Y-60466973D01*
X162138672Y-60477455D01*
X162138671Y-60477455D01*
X162078454Y-60493985D01*
X162064978Y-60497583D01*
X161999967Y-60514456D01*
X161999960Y-60514459D01*
X161966126Y-60523240D01*
X161957149Y-60527284D01*
X161947662Y-60529888D01*
X161915998Y-60544687D01*
X161915997Y-60544687D01*
X161855172Y-60573114D01*
X161842505Y-60578927D01*
X161749424Y-60620857D01*
X161741259Y-60626354D01*
X161732343Y-60630521D01*
X161703636Y-60650436D01*
X161703634Y-60650437D01*
X161648469Y-60688706D01*
X161636956Y-60696575D01*
X161552268Y-60753591D01*
X161545144Y-60760387D01*
X161537060Y-60765995D01*
X161518627Y-60782767D01*
X161510290Y-60791104D01*
X161501768Y-60799233D01*
X161500483Y-60797886D01*
X161494055Y-60803002D01*
X161360885Y-60911588D01*
X161181722Y-61005175D01*
X160987386Y-61060782D01*
X160785836Y-61076130D01*
X160585321Y-61050593D01*
X160394052Y-60985215D01*
X160219858Y-60882673D01*
X160069871Y-60747165D01*
X159950233Y-60584239D01*
X159865840Y-60400566D01*
X159820148Y-60203663D01*
X159815027Y-60001594D01*
X159821034Y-59944463D01*
X159836172Y-59831762D01*
X159836172Y-59831757D01*
X159839566Y-59806491D01*
X159843227Y-59690000D01*
X159824719Y-59428596D01*
X159777605Y-59209761D01*
X159755271Y-59008866D01*
X159773834Y-58807586D01*
X159832535Y-58614163D01*
X159928970Y-58436515D01*
X160059191Y-58281917D01*
X160217867Y-58156696D01*
X160398502Y-58065980D01*
X160593700Y-58013482D01*
X160754227Y-58000500D01*
X163057816Y-58000500D01*
X163061549Y-58000167D01*
X163069041Y-58000000D01*
X169930959Y-58000000D01*
X169938451Y-58000167D01*
X169942184Y-58000500D01*
X173057816Y-58000500D01*
X173178087Y-57989766D01*
X173223792Y-57976660D01*
X173223794Y-57976660D01*
X173324827Y-57947689D01*
X173324826Y-57947689D01*
X173373470Y-57933741D01*
X173553596Y-57839573D01*
X173711109Y-57711109D01*
X173839573Y-57553596D01*
X173933741Y-57373470D01*
X173989766Y-57178087D01*
X174000500Y-57057816D01*
X174000500Y-52499000D01*
X174020950Y-52297903D01*
X174081461Y-52105039D01*
X174179557Y-51928303D01*
X174311222Y-51774932D01*
X174471065Y-51651204D01*
X174652542Y-51562186D01*
X174848224Y-51511520D01*
X174999500Y-51500000D01*
X176000000Y-51500000D01*
X176000000Y-51491626D01*
X176039539Y-51440547D01*
X176070955Y-51390144D01*
X176210219Y-51243639D01*
X176352512Y-51144599D01*
X176309072Y-51110816D01*
X176177758Y-50957145D01*
X176080065Y-50780187D01*
X176019993Y-50587185D01*
X176000000Y-50388320D01*
X176000000Y-47399500D01*
X176020450Y-47198403D01*
X176080961Y-47005539D01*
X176179057Y-46828803D01*
X176310722Y-46675432D01*
X176470565Y-46551704D01*
X176652042Y-46462686D01*
X176847724Y-46412020D01*
X176999000Y-46400500D01*
X177610094Y-46400500D01*
X177811191Y-46420950D01*
G37*
G04 #@! TD.AperFunction*
G04 #@! TA.AperFunction,NonConductor*
G36*
X145408691Y-58020450D02*
G01*
X145601555Y-58080961D01*
X145778291Y-58179057D01*
X145931662Y-58310722D01*
X146055390Y-58470565D01*
X146144408Y-58652042D01*
X146195074Y-58847724D01*
X146205312Y-59049599D01*
X146174703Y-59249402D01*
X146104501Y-59438954D01*
X145997579Y-59610494D01*
X145913994Y-59705400D01*
X139772494Y-65846900D01*
X139615836Y-65974637D01*
X139436673Y-66068224D01*
X139242337Y-66123831D01*
X139066094Y-66139500D01*
X137120214Y-66139500D01*
X136919117Y-66119050D01*
X136726253Y-66058539D01*
X136549517Y-65960443D01*
X136396146Y-65828778D01*
X136272418Y-65668935D01*
X136183400Y-65487458D01*
X136132734Y-65291776D01*
X136122828Y-65096440D01*
X136123075Y-65094495D01*
X136125549Y-65000000D01*
X136122887Y-64964175D01*
X136108464Y-64770084D01*
X136108463Y-64770079D01*
X136105717Y-64733123D01*
X136097539Y-64696982D01*
X136097538Y-64696975D01*
X136080115Y-64619978D01*
X136055679Y-64419326D01*
X136072133Y-64217863D01*
X136128805Y-64023835D01*
X136223375Y-63845188D01*
X136351970Y-63689234D01*
X136509326Y-63562359D01*
X136689001Y-63469756D01*
X136883638Y-63415217D01*
X137054482Y-63400500D01*
X138214718Y-63400500D01*
X138271770Y-63402517D01*
X138277415Y-63402438D01*
X138319625Y-63405427D01*
X138361724Y-63401262D01*
X138361732Y-63401262D01*
X138421193Y-63395379D01*
X138435075Y-63394103D01*
X138502016Y-63388423D01*
X138502020Y-63388422D01*
X138536823Y-63385469D01*
X138546352Y-63382996D01*
X138556144Y-63382027D01*
X138594329Y-63371545D01*
X138654546Y-63355015D01*
X138668022Y-63351417D01*
X138733033Y-63334544D01*
X138733040Y-63334541D01*
X138766874Y-63325760D01*
X138775851Y-63321716D01*
X138785338Y-63319112D01*
X138817003Y-63304313D01*
X138877828Y-63275886D01*
X138890497Y-63270072D01*
X138890779Y-63269945D01*
X138983576Y-63228143D01*
X138991741Y-63222646D01*
X139000657Y-63218479D01*
X139030438Y-63197819D01*
X139084531Y-63160294D01*
X139096044Y-63152425D01*
X139155778Y-63112209D01*
X139180732Y-63095409D01*
X139187856Y-63088613D01*
X139195940Y-63083005D01*
X139214373Y-63066233D01*
X139269392Y-63011214D01*
X139286231Y-62994768D01*
X139352705Y-62931355D01*
X139353336Y-62932017D01*
X139365592Y-62920710D01*
X139362744Y-62917862D01*
X142640003Y-59640603D01*
X142681770Y-59601689D01*
X142685706Y-59597642D01*
X142717664Y-59569910D01*
X142744490Y-59537194D01*
X142744495Y-59537188D01*
X142782418Y-59490937D01*
X142791346Y-59480202D01*
X142834588Y-59428942D01*
X142834590Y-59428940D01*
X142857133Y-59402216D01*
X142862120Y-59393732D01*
X142868362Y-59386120D01*
X142918892Y-59297352D01*
X142925788Y-59285430D01*
X142977583Y-59197324D01*
X142981070Y-59188121D01*
X142985939Y-59179567D01*
X142997855Y-59146740D01*
X142997857Y-59146735D01*
X142999179Y-59143091D01*
X143020795Y-59083541D01*
X143025648Y-59070457D01*
X143061789Y-58975067D01*
X143063675Y-58965410D01*
X143067034Y-58956156D01*
X143074078Y-58917203D01*
X143085200Y-58855697D01*
X143087776Y-58841995D01*
X143090117Y-58830008D01*
X143094506Y-58807533D01*
X143153117Y-58614086D01*
X143249470Y-58436394D01*
X143379620Y-58281736D01*
X143538239Y-58156442D01*
X143718832Y-58065643D01*
X143914006Y-58013056D01*
X144074986Y-58000000D01*
X145207594Y-58000000D01*
X145408691Y-58020450D01*
G37*
G04 #@! TD.AperFunction*
G04 #@! TA.AperFunction,NonConductor*
G36*
X180717191Y-65276550D02*
G01*
X180910055Y-65337061D01*
X181086791Y-65435157D01*
X181240162Y-65566822D01*
X181363890Y-65726665D01*
X181452908Y-65908142D01*
X181503574Y-66103824D01*
X181513812Y-66305699D01*
X181483203Y-66505502D01*
X181413001Y-66695054D01*
X181306079Y-66866594D01*
X181222494Y-66961500D01*
X181195494Y-66988500D01*
X181038836Y-67116237D01*
X180859673Y-67209824D01*
X180665337Y-67265431D01*
X180489094Y-67281100D01*
X178099500Y-67281100D01*
X177898403Y-67260650D01*
X177705539Y-67200139D01*
X177528803Y-67102043D01*
X177375432Y-66970378D01*
X177251704Y-66810535D01*
X177162686Y-66629058D01*
X177112020Y-66433376D01*
X177100500Y-66282100D01*
X177100500Y-66255100D01*
X177120950Y-66054003D01*
X177181461Y-65861139D01*
X177279557Y-65684403D01*
X177411222Y-65531032D01*
X177571065Y-65407304D01*
X177752542Y-65318286D01*
X177948224Y-65267620D01*
X178099500Y-65256100D01*
X180516094Y-65256100D01*
X180717191Y-65276550D01*
G37*
G04 #@! TD.AperFunction*
G04 #@! TA.AperFunction,NonConductor*
G36*
X165302856Y-68163664D02*
G01*
X165496202Y-68222620D01*
X165624920Y-68287943D01*
X165789472Y-68387012D01*
X165897038Y-68432560D01*
X166017833Y-68483710D01*
X166017836Y-68483711D01*
X166050348Y-68497478D01*
X166324186Y-68570085D01*
X166359266Y-68574237D01*
X166359271Y-68574238D01*
X166570442Y-68599232D01*
X166570445Y-68599232D01*
X166605523Y-68603384D01*
X166640832Y-68602552D01*
X166640836Y-68602552D01*
X166796601Y-68598881D01*
X166888745Y-68596709D01*
X167134221Y-68555851D01*
X167335941Y-68543006D01*
X167536123Y-68571030D01*
X167726566Y-68638777D01*
X167899474Y-68743473D01*
X168047767Y-68880833D01*
X168165374Y-69045231D01*
X168247480Y-69229938D01*
X168290725Y-69427393D01*
X168297142Y-69527351D01*
X168297562Y-69557415D01*
X168294573Y-69599625D01*
X168298739Y-69641732D01*
X168304621Y-69701193D01*
X168305897Y-69715075D01*
X168311399Y-69779910D01*
X168314531Y-69816823D01*
X168317004Y-69826352D01*
X168317973Y-69836144D01*
X168328455Y-69874328D01*
X168328455Y-69874329D01*
X168344985Y-69934546D01*
X168348583Y-69948022D01*
X168365456Y-70013033D01*
X168365459Y-70013040D01*
X168374240Y-70046874D01*
X168378284Y-70055851D01*
X168380888Y-70065338D01*
X168395687Y-70097002D01*
X168395687Y-70097003D01*
X168424114Y-70157828D01*
X168429927Y-70170495D01*
X168471857Y-70263576D01*
X168477354Y-70271741D01*
X168481521Y-70280657D01*
X168501436Y-70309364D01*
X168501437Y-70309366D01*
X168539706Y-70364531D01*
X168547575Y-70376044D01*
X168604591Y-70460732D01*
X168611387Y-70467856D01*
X168616995Y-70475940D01*
X168633767Y-70494373D01*
X168688786Y-70549392D01*
X168705232Y-70566231D01*
X168768645Y-70632705D01*
X168767983Y-70633336D01*
X168779290Y-70645592D01*
X168782138Y-70642744D01*
X170354089Y-72214695D01*
X170481826Y-72371353D01*
X170575413Y-72550516D01*
X170630434Y-72741614D01*
X170677400Y-72998775D01*
X170767058Y-73267514D01*
X170793032Y-73319496D01*
X170874399Y-73482337D01*
X170893687Y-73520939D01*
X171054761Y-73753993D01*
X171148903Y-73855836D01*
X171217117Y-73929629D01*
X171247065Y-73962027D01*
X171274458Y-73984328D01*
X171300207Y-74008508D01*
X171299012Y-74009780D01*
X171412434Y-74123032D01*
X171523793Y-74291725D01*
X171598915Y-74479381D01*
X171634724Y-74678319D01*
X171629754Y-74880392D01*
X171584209Y-75077328D01*
X171499954Y-75261065D01*
X171380437Y-75424080D01*
X171230552Y-75559700D01*
X171056435Y-75662372D01*
X170852212Y-75730150D01*
X170824605Y-75733907D01*
X170789017Y-75744280D01*
X170789016Y-75744280D01*
X170603264Y-75798421D01*
X170603261Y-75798422D01*
X170567683Y-75808792D01*
X170523990Y-75828935D01*
X170358306Y-75905316D01*
X170358303Y-75905318D01*
X170324652Y-75920831D01*
X170100851Y-76067562D01*
X170073204Y-76092238D01*
X170073200Y-76092241D01*
X169901197Y-76245760D01*
X169899907Y-76244314D01*
X169780835Y-76344915D01*
X169603332Y-76441615D01*
X169409997Y-76500605D01*
X169216618Y-76519500D01*
X168621874Y-76519500D01*
X168420777Y-76499050D01*
X168227913Y-76438539D01*
X168051177Y-76340443D01*
X168015813Y-76314660D01*
X167974981Y-76283498D01*
X167733671Y-76148359D01*
X167700731Y-76135615D01*
X167700728Y-76135614D01*
X167508667Y-76061311D01*
X167508665Y-76061310D01*
X167475728Y-76048568D01*
X167206297Y-75986117D01*
X167206646Y-75984610D01*
X167049818Y-75943155D01*
X166868794Y-75853218D01*
X166709580Y-75728683D01*
X166695116Y-75714510D01*
X166693100Y-75712494D01*
X166565363Y-75555836D01*
X166471776Y-75376673D01*
X166416169Y-75182337D01*
X166400500Y-75006094D01*
X166400500Y-74304875D01*
X166420950Y-74103778D01*
X166481461Y-73910914D01*
X166579557Y-73734178D01*
X166591293Y-73717676D01*
X166599840Y-73705912D01*
X166622573Y-73678868D01*
X166670293Y-73602352D01*
X166753795Y-73468461D01*
X166753799Y-73468454D01*
X166772489Y-73438485D01*
X166887040Y-73179376D01*
X166943279Y-72979969D01*
X166954353Y-72940702D01*
X166954353Y-72940700D01*
X166963939Y-72906712D01*
X167001652Y-72625933D01*
X167005610Y-72500000D01*
X166996501Y-72371353D01*
X166988096Y-72252642D01*
X166988096Y-72252639D01*
X166985601Y-72217407D01*
X166948933Y-72047091D01*
X166933409Y-71974982D01*
X166933408Y-71974980D01*
X166925975Y-71940453D01*
X166827920Y-71674663D01*
X166693393Y-71425340D01*
X166525078Y-71197460D01*
X166326334Y-70995570D01*
X166101126Y-70823696D01*
X166070307Y-70806437D01*
X166070303Y-70806434D01*
X165884767Y-70702530D01*
X165884768Y-70702530D01*
X165853947Y-70685270D01*
X165718075Y-70632705D01*
X165622675Y-70595797D01*
X165622669Y-70595795D01*
X165589730Y-70583052D01*
X165555326Y-70575077D01*
X165555321Y-70575076D01*
X165348150Y-70527056D01*
X165348146Y-70527055D01*
X165313747Y-70519082D01*
X165278565Y-70516035D01*
X165264183Y-70513757D01*
X165068761Y-70462101D01*
X164887737Y-70372163D01*
X164714063Y-70233457D01*
X164360838Y-69880232D01*
X164233101Y-69723574D01*
X164139514Y-69544411D01*
X164083907Y-69350075D01*
X164068559Y-69148525D01*
X164094096Y-68948010D01*
X164159474Y-68756741D01*
X164262016Y-68582547D01*
X164397524Y-68432560D01*
X164481949Y-68364927D01*
X164512216Y-68347134D01*
X164538308Y-68325123D01*
X164708304Y-68228968D01*
X164900675Y-68166904D01*
X165101601Y-68144835D01*
X165302856Y-68163664D01*
G37*
G04 #@! TD.AperFunction*
G04 #@! TA.AperFunction,NonConductor*
G36*
X138987191Y-71500950D02*
G01*
X139180055Y-71561461D01*
X139356791Y-71659557D01*
X139492494Y-71773100D01*
X142672843Y-74953449D01*
X142800580Y-75110107D01*
X142894167Y-75289270D01*
X142949774Y-75483606D01*
X142965122Y-75685156D01*
X142939585Y-75885671D01*
X142874207Y-76076940D01*
X142771665Y-76251134D01*
X142636157Y-76401121D01*
X142473231Y-76520759D01*
X142289558Y-76605152D01*
X142092655Y-76650844D01*
X141890586Y-76655965D01*
X141691622Y-76620304D01*
X141503909Y-76545323D01*
X141472239Y-76528044D01*
X141407478Y-76491180D01*
X141395400Y-76484193D01*
X141337493Y-76450151D01*
X141337488Y-76450149D01*
X141307324Y-76432416D01*
X141298116Y-76428928D01*
X141289567Y-76424061D01*
X141193533Y-76389202D01*
X141180649Y-76384423D01*
X141085067Y-76348211D01*
X141075410Y-76346325D01*
X141066156Y-76342966D01*
X141031787Y-76336751D01*
X141031779Y-76336749D01*
X141028331Y-76336126D01*
X141028321Y-76336125D01*
X141027208Y-76335923D01*
X141027203Y-76335922D01*
X140965697Y-76324800D01*
X140951983Y-76322221D01*
X140881317Y-76308421D01*
X140881312Y-76308420D01*
X140851800Y-76302657D01*
X140841959Y-76302425D01*
X140832275Y-76300674D01*
X140807381Y-76299500D01*
X140729604Y-76299500D01*
X140706070Y-76299223D01*
X140614193Y-76297058D01*
X140614215Y-76296144D01*
X140597555Y-76295473D01*
X140597555Y-76299500D01*
X137120214Y-76299500D01*
X136919117Y-76279050D01*
X136726253Y-76218539D01*
X136549517Y-76120443D01*
X136396146Y-75988778D01*
X136272418Y-75828935D01*
X136183400Y-75647458D01*
X136132734Y-75451776D01*
X136122828Y-75256440D01*
X136123075Y-75254495D01*
X136125549Y-75160000D01*
X136122037Y-75112736D01*
X136108464Y-74930084D01*
X136108463Y-74930079D01*
X136105717Y-74893123D01*
X136079181Y-74775851D01*
X136054834Y-74668253D01*
X136054833Y-74668248D01*
X136046655Y-74632109D01*
X135949662Y-74382691D01*
X135931263Y-74350499D01*
X135916748Y-74320068D01*
X135848632Y-74129756D01*
X135820219Y-73929629D01*
X135832673Y-73727879D01*
X135885484Y-73532765D01*
X135907581Y-73479682D01*
X135926139Y-73438485D01*
X136016661Y-73237534D01*
X136089302Y-72979969D01*
X136094298Y-72940702D01*
X136119912Y-72739358D01*
X136123075Y-72714495D01*
X136125549Y-72620000D01*
X136123692Y-72595016D01*
X136123692Y-72594999D01*
X136120610Y-72553529D01*
X136126101Y-72351469D01*
X136172154Y-72154651D01*
X136256884Y-71971133D01*
X136376822Y-71808426D01*
X136527056Y-71673194D01*
X136701438Y-71570972D01*
X136892827Y-71505945D01*
X137093388Y-71480776D01*
X137116863Y-71480500D01*
X138786094Y-71480500D01*
X138987191Y-71500950D01*
G37*
G04 #@! TD.AperFunction*
G04 #@! TA.AperFunction,NonConductor*
G36*
X149226322Y-61019764D02*
G01*
X149417591Y-61085142D01*
X149591785Y-61187684D01*
X149741772Y-61323192D01*
X149861410Y-61486118D01*
X149945803Y-61669791D01*
X149991495Y-61866694D01*
X149999500Y-61992906D01*
X149999500Y-75907094D01*
X149979050Y-76108191D01*
X149918539Y-76301055D01*
X149820443Y-76477791D01*
X149688778Y-76631162D01*
X149528935Y-76754890D01*
X149347458Y-76843908D01*
X149151776Y-76894574D01*
X148949901Y-76904812D01*
X148750098Y-76874203D01*
X148560546Y-76804001D01*
X148389006Y-76697079D01*
X148294100Y-76613494D01*
X141337006Y-69656400D01*
X141209269Y-69499742D01*
X141115682Y-69320579D01*
X141060075Y-69126243D01*
X141044727Y-68924693D01*
X141070264Y-68724178D01*
X141135642Y-68532909D01*
X141238184Y-68358715D01*
X141337006Y-68243600D01*
X148294100Y-61286506D01*
X148450758Y-61158769D01*
X148629921Y-61065182D01*
X148824257Y-61009575D01*
X149025807Y-60994227D01*
X149226322Y-61019764D01*
G37*
G04 #@! TD.AperFunction*
G04 #@! TA.AperFunction,NonConductor*
G36*
X158611946Y-61544278D02*
G01*
X158802389Y-61612027D01*
X158975295Y-61716724D01*
X159123587Y-61854085D01*
X159241193Y-62018484D01*
X159323298Y-62203192D01*
X159366540Y-62400647D01*
X159369151Y-62602764D01*
X159331022Y-62801270D01*
X159253714Y-62988037D01*
X159140393Y-63155418D01*
X159080454Y-63220940D01*
X158369997Y-63931397D01*
X158328233Y-63970308D01*
X158324295Y-63974357D01*
X158292336Y-64002090D01*
X158227554Y-64081097D01*
X158218687Y-64091758D01*
X158152866Y-64169785D01*
X158147878Y-64178270D01*
X158141638Y-64185880D01*
X158091119Y-64274630D01*
X158084193Y-64286600D01*
X158050151Y-64344507D01*
X158050149Y-64344512D01*
X158032416Y-64374676D01*
X158028928Y-64383884D01*
X158024061Y-64392433D01*
X157989202Y-64488467D01*
X157984423Y-64501351D01*
X157948211Y-64596933D01*
X157946325Y-64606590D01*
X157942966Y-64615844D01*
X157936751Y-64650213D01*
X157936749Y-64650221D01*
X157936126Y-64653669D01*
X157935923Y-64654792D01*
X157935922Y-64654797D01*
X157924800Y-64716303D01*
X157922221Y-64730017D01*
X157914397Y-64770084D01*
X157902657Y-64830200D01*
X157902425Y-64840041D01*
X157900674Y-64849725D01*
X157899500Y-64874619D01*
X157899500Y-64952396D01*
X157899223Y-64975930D01*
X157898223Y-65018367D01*
X157897816Y-65021611D01*
X157897929Y-65023463D01*
X157895472Y-65084445D01*
X157899500Y-65084445D01*
X157899500Y-74214718D01*
X157897005Y-74285277D01*
X157896144Y-74297442D01*
X157894573Y-74319625D01*
X157898738Y-74361724D01*
X157898738Y-74361732D01*
X157904621Y-74421193D01*
X157905897Y-74435075D01*
X157909657Y-74479381D01*
X157914531Y-74536823D01*
X157917004Y-74546352D01*
X157917973Y-74556144D01*
X157928455Y-74594328D01*
X157928455Y-74594329D01*
X157944985Y-74654546D01*
X157948583Y-74668022D01*
X157965456Y-74733033D01*
X157965459Y-74733040D01*
X157974240Y-74766874D01*
X157978284Y-74775851D01*
X157980888Y-74785338D01*
X157995687Y-74817002D01*
X157995687Y-74817003D01*
X158024098Y-74877793D01*
X158029914Y-74890466D01*
X158071857Y-74983576D01*
X158077354Y-74991741D01*
X158081521Y-75000657D01*
X158101436Y-75029364D01*
X158101437Y-75029366D01*
X158139706Y-75084531D01*
X158147575Y-75096044D01*
X158204591Y-75180732D01*
X158211387Y-75187856D01*
X158216995Y-75195940D01*
X158233767Y-75214373D01*
X158288786Y-75269392D01*
X158305232Y-75286231D01*
X158368645Y-75352705D01*
X158367983Y-75353336D01*
X158379290Y-75365592D01*
X158382138Y-75362744D01*
X164349397Y-81330003D01*
X164388308Y-81371767D01*
X164392357Y-81375705D01*
X164420090Y-81407664D01*
X164499097Y-81472446D01*
X164509758Y-81481313D01*
X164587785Y-81547134D01*
X164596270Y-81552122D01*
X164603880Y-81558362D01*
X164607033Y-81560157D01*
X164736519Y-81669993D01*
X164861190Y-81829102D01*
X164951280Y-82010050D01*
X165003101Y-82205428D01*
X165014532Y-82407239D01*
X164986068Y-82603376D01*
X164971167Y-82663365D01*
X164967567Y-82698496D01*
X164967567Y-82698499D01*
X164949721Y-82872676D01*
X164942977Y-82938498D01*
X164940209Y-82938214D01*
X164920348Y-83086930D01*
X164853808Y-83277798D01*
X164750209Y-83451364D01*
X164613791Y-83600524D01*
X164450140Y-83719169D01*
X164265956Y-83802443D01*
X164068780Y-83846937D01*
X163866683Y-83850828D01*
X163667940Y-83813958D01*
X163480687Y-83737836D01*
X163312590Y-83625578D01*
X163242198Y-83561592D01*
X156193100Y-76512494D01*
X156065363Y-76355836D01*
X155971776Y-76176673D01*
X155916169Y-75982337D01*
X155900500Y-75806094D01*
X155900500Y-74351644D01*
X155906012Y-74297442D01*
X155900969Y-74259459D01*
X155900500Y-74228841D01*
X155900500Y-65063319D01*
X155902427Y-65044368D01*
X155900500Y-64994833D01*
X155900500Y-63663906D01*
X155920950Y-63462809D01*
X155981461Y-63269945D01*
X156079557Y-63093209D01*
X156193100Y-62957506D01*
X156680003Y-62470603D01*
X156721767Y-62431692D01*
X156725705Y-62427643D01*
X156757664Y-62399910D01*
X156822446Y-62320903D01*
X156831313Y-62310242D01*
X156874592Y-62258937D01*
X156897134Y-62232215D01*
X156902122Y-62223730D01*
X156908362Y-62216120D01*
X156958882Y-62127369D01*
X156965806Y-62115401D01*
X157014068Y-62033305D01*
X157133611Y-61870308D01*
X157283517Y-61734712D01*
X157457651Y-61632068D01*
X157648882Y-61566577D01*
X157849381Y-61540922D01*
X157884811Y-61541297D01*
X157900607Y-61543167D01*
X158162592Y-61536993D01*
X158210037Y-61529096D01*
X158411764Y-61516252D01*
X158611946Y-61544278D01*
G37*
G04 #@! TD.AperFunction*
G04 #@! TA.AperFunction,NonConductor*
G36*
X124175556Y-72170530D02*
G01*
X124366825Y-72235908D01*
X124541019Y-72338450D01*
X124691006Y-72473958D01*
X124810644Y-72636884D01*
X124895037Y-72820557D01*
X124929538Y-72948777D01*
X124952884Y-73066148D01*
X124952887Y-73066157D01*
X124960118Y-73102512D01*
X124972645Y-73137402D01*
X125020730Y-73271329D01*
X125050549Y-73354383D01*
X125068094Y-73387036D01*
X125083403Y-73415528D01*
X125160571Y-73602352D01*
X125198553Y-73800886D01*
X125195793Y-74003002D01*
X125152403Y-74200424D01*
X125100584Y-74324907D01*
X125091244Y-74340298D01*
X124987755Y-74587091D01*
X124921881Y-74846470D01*
X124895070Y-75112736D01*
X124896848Y-75149759D01*
X124896848Y-75149770D01*
X124901786Y-75252568D01*
X124891009Y-75454415D01*
X124839821Y-75649961D01*
X124750317Y-75831199D01*
X124626163Y-75990711D01*
X124472440Y-76121965D01*
X124295443Y-76219589D01*
X124102418Y-76279584D01*
X123903937Y-76299500D01*
X122885282Y-76299500D01*
X122828230Y-76297483D01*
X122822585Y-76297562D01*
X122780375Y-76294573D01*
X122718705Y-76300674D01*
X122678764Y-76304625D01*
X122664882Y-76305901D01*
X122598011Y-76311575D01*
X122598009Y-76311575D01*
X122563177Y-76314531D01*
X122553654Y-76317003D01*
X122543856Y-76317972D01*
X122510139Y-76327228D01*
X122510137Y-76327228D01*
X122475454Y-76336749D01*
X122445707Y-76344915D01*
X122445390Y-76345002D01*
X122431975Y-76348584D01*
X122333126Y-76374240D01*
X122324150Y-76378284D01*
X122314662Y-76380888D01*
X122282977Y-76395696D01*
X122282967Y-76395700D01*
X122222213Y-76424095D01*
X122209542Y-76429910D01*
X122148265Y-76457513D01*
X122148260Y-76457516D01*
X122116424Y-76471857D01*
X122108257Y-76477355D01*
X122099344Y-76481521D01*
X122042783Y-76520759D01*
X122015453Y-76539718D01*
X122003987Y-76547555D01*
X121919268Y-76604591D01*
X121912148Y-76611383D01*
X121904060Y-76616994D01*
X121885627Y-76633767D01*
X121830608Y-76688786D01*
X121813770Y-76705231D01*
X121747295Y-76768645D01*
X121746664Y-76767983D01*
X121734408Y-76779290D01*
X121737256Y-76782138D01*
X119369997Y-79149397D01*
X119328233Y-79188308D01*
X119324295Y-79192357D01*
X119292336Y-79220090D01*
X119227554Y-79299097D01*
X119218687Y-79309758D01*
X119208244Y-79322138D01*
X119152866Y-79387785D01*
X119147878Y-79396270D01*
X119141638Y-79403880D01*
X119091119Y-79492630D01*
X119084193Y-79504600D01*
X119050151Y-79562507D01*
X119050149Y-79562512D01*
X119032416Y-79592676D01*
X119028928Y-79601884D01*
X119024061Y-79610433D01*
X118989202Y-79706467D01*
X118984423Y-79719351D01*
X118948211Y-79814933D01*
X118946325Y-79824590D01*
X118942966Y-79833844D01*
X118936751Y-79868213D01*
X118936749Y-79868221D01*
X118936126Y-79871669D01*
X118935923Y-79872792D01*
X118935922Y-79872797D01*
X118924800Y-79934303D01*
X118922221Y-79948017D01*
X118908421Y-80018683D01*
X118902657Y-80048200D01*
X118902425Y-80058041D01*
X118900674Y-80067725D01*
X118899500Y-80092619D01*
X118899500Y-80170396D01*
X118899223Y-80193930D01*
X118898223Y-80236367D01*
X118897816Y-80239611D01*
X118897929Y-80241463D01*
X118895472Y-80302445D01*
X118899500Y-80302445D01*
X118899500Y-93214718D01*
X118897005Y-93285277D01*
X118896005Y-93299400D01*
X118861403Y-93498551D01*
X118787421Y-93686659D01*
X118677087Y-93856025D01*
X118534918Y-93999714D01*
X118366736Y-94111843D01*
X118179425Y-94187821D01*
X117980653Y-94224539D01*
X117778559Y-94220493D01*
X117581417Y-94175849D01*
X117397297Y-94092434D01*
X117233737Y-93973663D01*
X117097433Y-93824400D01*
X116993967Y-93650754D01*
X116927573Y-93459835D01*
X116900969Y-93259459D01*
X116900500Y-93228841D01*
X116900500Y-80281319D01*
X116902427Y-80262368D01*
X116900500Y-80212833D01*
X116900500Y-79193906D01*
X116920950Y-78992809D01*
X116981461Y-78799945D01*
X117079557Y-78623209D01*
X117193100Y-78487506D01*
X123243334Y-72437272D01*
X123399992Y-72309535D01*
X123579155Y-72215948D01*
X123773491Y-72160341D01*
X123975041Y-72144993D01*
X124175556Y-72170530D01*
G37*
G04 #@! TD.AperFunction*
G04 #@! TA.AperFunction,NonConductor*
G36*
X190426322Y-62384364D02*
G01*
X190617591Y-62449742D01*
X190791785Y-62552284D01*
X190941772Y-62687792D01*
X191061410Y-62850718D01*
X191145803Y-63034391D01*
X191191495Y-63231294D01*
X191199500Y-63357506D01*
X191199500Y-95406094D01*
X191179050Y-95607191D01*
X191118539Y-95800055D01*
X191020443Y-95976791D01*
X190906900Y-96112494D01*
X176121580Y-110897814D01*
X175962927Y-111026863D01*
X175900851Y-111067562D01*
X175873204Y-111092238D01*
X175873200Y-111092241D01*
X175728853Y-111221076D01*
X175701197Y-111245760D01*
X175677493Y-111274261D01*
X175677492Y-111274262D01*
X175553781Y-111423008D01*
X175553778Y-111423012D01*
X175530075Y-111451512D01*
X175510847Y-111483199D01*
X175510844Y-111483203D01*
X175483519Y-111528233D01*
X175391244Y-111680298D01*
X175287755Y-111927091D01*
X175221881Y-112186470D01*
X175195070Y-112452736D01*
X175207909Y-112720041D01*
X175215141Y-112756397D01*
X175252518Y-112944302D01*
X175260118Y-112982512D01*
X175350549Y-113234383D01*
X175368093Y-113267034D01*
X175477215Y-113470121D01*
X175473570Y-113472079D01*
X175533860Y-113591995D01*
X175586446Y-113787169D01*
X175599500Y-113948140D01*
X175599500Y-114082494D01*
X175579050Y-114283591D01*
X175518539Y-114476455D01*
X175420443Y-114653191D01*
X175288778Y-114806562D01*
X175128935Y-114930290D01*
X174947458Y-115019308D01*
X174751776Y-115069974D01*
X174549901Y-115080212D01*
X174350098Y-115049603D01*
X174160546Y-114979401D01*
X173989006Y-114872479D01*
X173894100Y-114788894D01*
X170675203Y-111569997D01*
X170636292Y-111528233D01*
X170632243Y-111524295D01*
X170604510Y-111492336D01*
X170525503Y-111427554D01*
X170514842Y-111418687D01*
X170463537Y-111375408D01*
X170436815Y-111352866D01*
X170428330Y-111347878D01*
X170420720Y-111341638D01*
X170331970Y-111291119D01*
X170320000Y-111284193D01*
X170262093Y-111250151D01*
X170262088Y-111250149D01*
X170231924Y-111232416D01*
X170222716Y-111228928D01*
X170214167Y-111224061D01*
X170118133Y-111189202D01*
X170105249Y-111184423D01*
X170009667Y-111148211D01*
X170000010Y-111146325D01*
X169990756Y-111142966D01*
X169956387Y-111136751D01*
X169956379Y-111136749D01*
X169952931Y-111136126D01*
X169952921Y-111136125D01*
X169951808Y-111135923D01*
X169951803Y-111135922D01*
X169890297Y-111124800D01*
X169876583Y-111122221D01*
X169805917Y-111108421D01*
X169805912Y-111108420D01*
X169776400Y-111102657D01*
X169766559Y-111102425D01*
X169756875Y-111100674D01*
X169731981Y-111099500D01*
X169654204Y-111099500D01*
X169630670Y-111099223D01*
X169538793Y-111097058D01*
X169538815Y-111096144D01*
X169522155Y-111095473D01*
X169522155Y-111099500D01*
X168286832Y-111099500D01*
X168085735Y-111079050D01*
X167892871Y-111018539D01*
X167783737Y-110963260D01*
X167756385Y-110944286D01*
X167516371Y-110825924D01*
X167497466Y-110819873D01*
X167329833Y-110731465D01*
X167173680Y-110603112D01*
X167046560Y-110445953D01*
X166953679Y-110266422D01*
X166898839Y-110071869D01*
X166884284Y-109870260D01*
X166910611Y-109669847D01*
X166976742Y-109478837D01*
X167079969Y-109305048D01*
X167216066Y-109155597D01*
X167379462Y-109036600D01*
X167563467Y-108952932D01*
X167760548Y-108908015D01*
X167882856Y-108900500D01*
X173914718Y-108900500D01*
X173971770Y-108902517D01*
X173977415Y-108902438D01*
X174019625Y-108905427D01*
X174061724Y-108901262D01*
X174061732Y-108901262D01*
X174121193Y-108895379D01*
X174135075Y-108894103D01*
X174202016Y-108888423D01*
X174202020Y-108888422D01*
X174236823Y-108885469D01*
X174246352Y-108882996D01*
X174256144Y-108882027D01*
X174321887Y-108863980D01*
X174354546Y-108855015D01*
X174368022Y-108851417D01*
X174433033Y-108834544D01*
X174433040Y-108834541D01*
X174466874Y-108825760D01*
X174475851Y-108821716D01*
X174485338Y-108819112D01*
X174517003Y-108804313D01*
X174577828Y-108775886D01*
X174590497Y-108770072D01*
X174600327Y-108765644D01*
X174683576Y-108728143D01*
X174691741Y-108722646D01*
X174700657Y-108718479D01*
X174729366Y-108698563D01*
X174784531Y-108660294D01*
X174796044Y-108652425D01*
X174855778Y-108612209D01*
X174880732Y-108595409D01*
X174887856Y-108588613D01*
X174895940Y-108583005D01*
X174914373Y-108566233D01*
X174969392Y-108511214D01*
X174986231Y-108494768D01*
X175052705Y-108431355D01*
X175053336Y-108432017D01*
X175065592Y-108420710D01*
X175062744Y-108417862D01*
X179130003Y-104350603D01*
X179171767Y-104311692D01*
X179175705Y-104307643D01*
X179207664Y-104279910D01*
X179272446Y-104200903D01*
X179281313Y-104190242D01*
X179324592Y-104138937D01*
X179347134Y-104112215D01*
X179352122Y-104103730D01*
X179358362Y-104096120D01*
X179408881Y-104007370D01*
X179415807Y-103995400D01*
X179449849Y-103937493D01*
X179449851Y-103937488D01*
X179467584Y-103907324D01*
X179471072Y-103898116D01*
X179475939Y-103889567D01*
X179510798Y-103793533D01*
X179515577Y-103780649D01*
X179551789Y-103685067D01*
X179553675Y-103675410D01*
X179557034Y-103666156D01*
X179563249Y-103631787D01*
X179563251Y-103631779D01*
X179563874Y-103628331D01*
X179563875Y-103628321D01*
X179569957Y-103594691D01*
X179575200Y-103565697D01*
X179577779Y-103551983D01*
X179591579Y-103481317D01*
X179591580Y-103481312D01*
X179597343Y-103451800D01*
X179597575Y-103441959D01*
X179599326Y-103432275D01*
X179600500Y-103407381D01*
X179600500Y-103329604D01*
X179600777Y-103306070D01*
X179602942Y-103214193D01*
X179603856Y-103214215D01*
X179604527Y-103197555D01*
X179600500Y-103197555D01*
X179600500Y-93485280D01*
X179602517Y-93428230D01*
X179602438Y-93422587D01*
X179605427Y-93380375D01*
X179595375Y-93278764D01*
X179594099Y-93264882D01*
X179588425Y-93198011D01*
X179588425Y-93198009D01*
X179585469Y-93163177D01*
X179582997Y-93153654D01*
X179582028Y-93143856D01*
X179572661Y-93109731D01*
X179554998Y-93045390D01*
X179551416Y-93031975D01*
X179525760Y-92933126D01*
X179521716Y-92924150D01*
X179519112Y-92914662D01*
X179504302Y-92882974D01*
X179504300Y-92882968D01*
X179475883Y-92822166D01*
X179470066Y-92809491D01*
X179466016Y-92800500D01*
X179428143Y-92716424D01*
X179422648Y-92708262D01*
X179418480Y-92699344D01*
X179398563Y-92670634D01*
X179398559Y-92670627D01*
X179360259Y-92615418D01*
X179352389Y-92603903D01*
X179321729Y-92558362D01*
X179295409Y-92519268D01*
X179288617Y-92512148D01*
X179283006Y-92504060D01*
X179266233Y-92485627D01*
X179211214Y-92430608D01*
X179194768Y-92413769D01*
X179131355Y-92347295D01*
X179132017Y-92346664D01*
X179120710Y-92334408D01*
X179117862Y-92337256D01*
X174550603Y-87769997D01*
X174511692Y-87728233D01*
X174507643Y-87724295D01*
X174479910Y-87692336D01*
X174400903Y-87627554D01*
X174390242Y-87618687D01*
X174338937Y-87575408D01*
X174312215Y-87552866D01*
X174303730Y-87547878D01*
X174296120Y-87541638D01*
X174207370Y-87491119D01*
X174195400Y-87484193D01*
X174137493Y-87450151D01*
X174137488Y-87450149D01*
X174107324Y-87432416D01*
X174098116Y-87428928D01*
X174089567Y-87424061D01*
X173993533Y-87389202D01*
X173980649Y-87384423D01*
X173885067Y-87348211D01*
X173875410Y-87346325D01*
X173866156Y-87342966D01*
X173831787Y-87336751D01*
X173831779Y-87336749D01*
X173828331Y-87336126D01*
X173828321Y-87336125D01*
X173827208Y-87335923D01*
X173827203Y-87335922D01*
X173765697Y-87324800D01*
X173751983Y-87322221D01*
X173681317Y-87308421D01*
X173681312Y-87308420D01*
X173651800Y-87302657D01*
X173641959Y-87302425D01*
X173632275Y-87300674D01*
X173607381Y-87299500D01*
X173529604Y-87299500D01*
X173506070Y-87299223D01*
X173414193Y-87297058D01*
X173414215Y-87296144D01*
X173397555Y-87295473D01*
X173397555Y-87299500D01*
X171286186Y-87299500D01*
X171244404Y-87295251D01*
X171230304Y-87297576D01*
X171168332Y-87299500D01*
X167393906Y-87299500D01*
X167192809Y-87279050D01*
X166999945Y-87218539D01*
X166823209Y-87120443D01*
X166687506Y-87006900D01*
X166336556Y-86655950D01*
X166208819Y-86499292D01*
X166115232Y-86320129D01*
X166059625Y-86125793D01*
X166044277Y-85924243D01*
X166069814Y-85723728D01*
X166135192Y-85532459D01*
X166237734Y-85358265D01*
X166373242Y-85208278D01*
X166536168Y-85088640D01*
X166719841Y-85004247D01*
X166916744Y-84958555D01*
X167019419Y-84950827D01*
X167084263Y-84949299D01*
X167119102Y-84943500D01*
X167119105Y-84943500D01*
X167322239Y-84909690D01*
X167322245Y-84909689D01*
X167357083Y-84903890D01*
X167620784Y-84820492D01*
X167652623Y-84805203D01*
X167652626Y-84805202D01*
X167838262Y-84716061D01*
X167838264Y-84716060D01*
X167870103Y-84700771D01*
X167947973Y-84648740D01*
X168070701Y-84566736D01*
X168070706Y-84566732D01*
X168100065Y-84547115D01*
X168266064Y-84398434D01*
X168429496Y-84279503D01*
X168613532Y-84195902D01*
X168810629Y-84151059D01*
X169012719Y-84146808D01*
X169211527Y-84183325D01*
X169398915Y-84259114D01*
X169567211Y-84371073D01*
X169709525Y-84514618D01*
X169733023Y-84544859D01*
X169815154Y-84654844D01*
X169815159Y-84654849D01*
X169837335Y-84684547D01*
X170027390Y-84872950D01*
X170243205Y-85031192D01*
X170480039Y-85155797D01*
X170732690Y-85244026D01*
X170769106Y-85250940D01*
X170769110Y-85250941D01*
X170959182Y-85287028D01*
X170959188Y-85287029D01*
X170995606Y-85293943D01*
X171200730Y-85302002D01*
X171207551Y-85302270D01*
X171221019Y-85304176D01*
X171233826Y-85303302D01*
X171263013Y-85304449D01*
X171299855Y-85300414D01*
X171299860Y-85300414D01*
X171422084Y-85287028D01*
X171529035Y-85275315D01*
X171787829Y-85207180D01*
X172033710Y-85101542D01*
X172034504Y-85103391D01*
X172178655Y-85046044D01*
X172377669Y-85010661D01*
X172579731Y-85016064D01*
X172776569Y-85062031D01*
X172917284Y-85122780D01*
X172980039Y-85155797D01*
X173232690Y-85244026D01*
X173269106Y-85250940D01*
X173269110Y-85250941D01*
X173459182Y-85287028D01*
X173459188Y-85287029D01*
X173495606Y-85293943D01*
X173703453Y-85302109D01*
X173725978Y-85302994D01*
X173725979Y-85302994D01*
X173763013Y-85304449D01*
X173799855Y-85300414D01*
X173799859Y-85300414D01*
X173896024Y-85289882D01*
X174029035Y-85275315D01*
X174287829Y-85207180D01*
X174533710Y-85101542D01*
X174565223Y-85082041D01*
X174565229Y-85082038D01*
X174729757Y-84980224D01*
X174761275Y-84960720D01*
X174889198Y-84852425D01*
X174937239Y-84811756D01*
X174937241Y-84811754D01*
X174965526Y-84787809D01*
X175056085Y-84684547D01*
X175117536Y-84614476D01*
X175117539Y-84614472D01*
X175141976Y-84586607D01*
X175286747Y-84361534D01*
X175376182Y-84162996D01*
X175381435Y-84151335D01*
X175381436Y-84151332D01*
X175396661Y-84117534D01*
X175469302Y-83859969D01*
X175475156Y-83813958D01*
X175499912Y-83619358D01*
X175503075Y-83594495D01*
X175505549Y-83500000D01*
X175496083Y-83372619D01*
X175488464Y-83270084D01*
X175488463Y-83270079D01*
X175485717Y-83233123D01*
X175456633Y-83104590D01*
X175434834Y-83008253D01*
X175434833Y-83008248D01*
X175426655Y-82972109D01*
X175329662Y-82722691D01*
X175298281Y-82667785D01*
X175215259Y-82522527D01*
X175215257Y-82522524D01*
X175196868Y-82490350D01*
X175031190Y-82280189D01*
X174836269Y-82096825D01*
X174616385Y-81944286D01*
X174376371Y-81825924D01*
X174188410Y-81765757D01*
X174156799Y-81755638D01*
X174156795Y-81755637D01*
X174121497Y-81744338D01*
X174084920Y-81738381D01*
X174084915Y-81738380D01*
X173893950Y-81707280D01*
X173893946Y-81707280D01*
X173857364Y-81701322D01*
X173730187Y-81699657D01*
X173626846Y-81698304D01*
X173626842Y-81698304D01*
X173589774Y-81697819D01*
X173553044Y-81702818D01*
X173553040Y-81702818D01*
X173396320Y-81724147D01*
X173324605Y-81733907D01*
X173245259Y-81757034D01*
X173103264Y-81798421D01*
X173103261Y-81798422D01*
X173067683Y-81808792D01*
X173034026Y-81824308D01*
X173034021Y-81824310D01*
X172866737Y-81901429D01*
X172675551Y-81967049D01*
X172475069Y-81992841D01*
X172273499Y-81977747D01*
X172079093Y-81922387D01*
X172006650Y-81890170D01*
X171909621Y-81842320D01*
X171909609Y-81842315D01*
X171876371Y-81825924D01*
X171752054Y-81786130D01*
X171656800Y-81755638D01*
X171656792Y-81755636D01*
X171621497Y-81744338D01*
X171617619Y-81743706D01*
X171449761Y-81684902D01*
X171276352Y-81581039D01*
X171167341Y-81486735D01*
X170682627Y-81002021D01*
X170554890Y-80845363D01*
X170461303Y-80666200D01*
X170405696Y-80471864D01*
X170390348Y-80270314D01*
X170415885Y-80069799D01*
X170481263Y-79878530D01*
X170583805Y-79704336D01*
X170719313Y-79554349D01*
X170882239Y-79434711D01*
X171065912Y-79350318D01*
X171280269Y-79302559D01*
X171529035Y-79275315D01*
X171787829Y-79207180D01*
X172033710Y-79101542D01*
X172034504Y-79103391D01*
X172178655Y-79046044D01*
X172377669Y-79010661D01*
X172579731Y-79016064D01*
X172776569Y-79062031D01*
X172917284Y-79122780D01*
X172980039Y-79155797D01*
X173232690Y-79244026D01*
X173269106Y-79250940D01*
X173269110Y-79250941D01*
X173459182Y-79287028D01*
X173459188Y-79287029D01*
X173495606Y-79293943D01*
X173701366Y-79302027D01*
X173725978Y-79302994D01*
X173725979Y-79302994D01*
X173763013Y-79304449D01*
X173799855Y-79300414D01*
X173799859Y-79300414D01*
X173896024Y-79289882D01*
X174029035Y-79275315D01*
X174287829Y-79207180D01*
X174533710Y-79101542D01*
X174565223Y-79082041D01*
X174565229Y-79082038D01*
X174729757Y-78980224D01*
X174761275Y-78960720D01*
X174965526Y-78787809D01*
X175109877Y-78623209D01*
X175117536Y-78614476D01*
X175117539Y-78614472D01*
X175141976Y-78586607D01*
X175286747Y-78361534D01*
X175396661Y-78117534D01*
X175469302Y-77859969D01*
X175475032Y-77814933D01*
X175499912Y-77619358D01*
X175503075Y-77594495D01*
X175505549Y-77500000D01*
X175497210Y-77387785D01*
X175488464Y-77270084D01*
X175488463Y-77270079D01*
X175485717Y-77233123D01*
X175456147Y-77102445D01*
X175434834Y-77008253D01*
X175434833Y-77008248D01*
X175426655Y-76972109D01*
X175329662Y-76722691D01*
X175300928Y-76672417D01*
X175215259Y-76522527D01*
X175215257Y-76522524D01*
X175196868Y-76490350D01*
X175031190Y-76280189D01*
X174836269Y-76096825D01*
X174772815Y-76052805D01*
X174646845Y-75965417D01*
X174616385Y-75944286D01*
X174376371Y-75825924D01*
X174341068Y-75814623D01*
X174341062Y-75814621D01*
X174217198Y-75774972D01*
X174031908Y-75694189D01*
X173866672Y-75577761D01*
X173728256Y-75430454D01*
X173622326Y-75258300D01*
X173553219Y-75068346D01*
X173523764Y-74868369D01*
X173535167Y-74666557D01*
X173586960Y-74471171D01*
X173677025Y-74290210D01*
X173801673Y-74131084D01*
X173855239Y-74079382D01*
X174033969Y-73919297D01*
X174060281Y-73895730D01*
X174093816Y-73855836D01*
X174219845Y-73705906D01*
X174242573Y-73678868D01*
X174312125Y-73567345D01*
X174373795Y-73468461D01*
X174373799Y-73468454D01*
X174392489Y-73438485D01*
X174507040Y-73179376D01*
X174563279Y-72979969D01*
X174574353Y-72940702D01*
X174574353Y-72940700D01*
X174583939Y-72906712D01*
X174621652Y-72625933D01*
X174625610Y-72500000D01*
X174616501Y-72371353D01*
X174608096Y-72252642D01*
X174608096Y-72252639D01*
X174605601Y-72217407D01*
X174568933Y-72047091D01*
X174553409Y-71974982D01*
X174553408Y-71974980D01*
X174545975Y-71940453D01*
X174447920Y-71674663D01*
X174431147Y-71643577D01*
X174383612Y-71555478D01*
X174306117Y-71368789D01*
X174267789Y-71170321D01*
X174270197Y-70968201D01*
X174313242Y-70770703D01*
X174395162Y-70585913D01*
X174512603Y-70421396D01*
X174660757Y-70283887D01*
X174833558Y-70179016D01*
X175023933Y-70111077D01*
X175224087Y-70082850D01*
X175262797Y-70082100D01*
X181397718Y-70082100D01*
X181454770Y-70084117D01*
X181460415Y-70084038D01*
X181502625Y-70087027D01*
X181544724Y-70082862D01*
X181544732Y-70082862D01*
X181604193Y-70076979D01*
X181618075Y-70075703D01*
X181685016Y-70070023D01*
X181685020Y-70070022D01*
X181719823Y-70067069D01*
X181729352Y-70064596D01*
X181739144Y-70063627D01*
X181777329Y-70053145D01*
X181837546Y-70036615D01*
X181851022Y-70033017D01*
X181916033Y-70016144D01*
X181916040Y-70016141D01*
X181949874Y-70007360D01*
X181958851Y-70003316D01*
X181968338Y-70000712D01*
X182000003Y-69985913D01*
X182060828Y-69957486D01*
X182073497Y-69951672D01*
X182111515Y-69934546D01*
X182166576Y-69909743D01*
X182174741Y-69904246D01*
X182183657Y-69900079D01*
X182212366Y-69880163D01*
X182267531Y-69841894D01*
X182279044Y-69834025D01*
X182338778Y-69793809D01*
X182363732Y-69777009D01*
X182370856Y-69770213D01*
X182378940Y-69764605D01*
X182397373Y-69747833D01*
X182452392Y-69692814D01*
X182469231Y-69676368D01*
X182535705Y-69612955D01*
X182536336Y-69613617D01*
X182548592Y-69602310D01*
X182545744Y-69599462D01*
X189494100Y-62651106D01*
X189650758Y-62523369D01*
X189829921Y-62429782D01*
X190024257Y-62374175D01*
X190225807Y-62358827D01*
X190426322Y-62384364D01*
G37*
G04 #@! TD.AperFunction*
G04 #@! TA.AperFunction,NonConductor*
G36*
X131813662Y-113920950D02*
G01*
X132006526Y-113981461D01*
X132183262Y-114079557D01*
X132336633Y-114211222D01*
X132460361Y-114371065D01*
X132549379Y-114552542D01*
X132600045Y-114748224D01*
X132610283Y-114950099D01*
X132579674Y-115149902D01*
X132509472Y-115339454D01*
X132464610Y-115416646D01*
X132465578Y-115417208D01*
X132361413Y-115596541D01*
X132333955Y-115643813D01*
X132320696Y-115676549D01*
X132320695Y-115676550D01*
X132290603Y-115750843D01*
X132235574Y-115886703D01*
X132227063Y-115920968D01*
X132227061Y-115920973D01*
X132183641Y-116095775D01*
X132172399Y-116141032D01*
X132170274Y-116161772D01*
X132118288Y-116346640D01*
X132025518Y-116526229D01*
X131898497Y-116683467D01*
X131742424Y-116811917D01*
X131563688Y-116906321D01*
X131369609Y-116962813D01*
X131168130Y-116979080D01*
X130967501Y-116954458D01*
X130775935Y-116889953D01*
X130601276Y-116788206D01*
X130504384Y-116707937D01*
X130494179Y-116698337D01*
X130386269Y-116596825D01*
X130166385Y-116444286D01*
X129926371Y-116325924D01*
X129768590Y-116275418D01*
X129706799Y-116255638D01*
X129706795Y-116255637D01*
X129671497Y-116244338D01*
X129634920Y-116238381D01*
X129634911Y-116238379D01*
X129441599Y-116206897D01*
X129416094Y-116202744D01*
X129220899Y-116150236D01*
X129040269Y-116059511D01*
X128881600Y-115934282D01*
X128751386Y-115779677D01*
X128654961Y-115602025D01*
X128596270Y-115408599D01*
X128577716Y-115207318D01*
X128600061Y-115006422D01*
X128662387Y-114814137D01*
X128762145Y-114638334D01*
X128870272Y-114510334D01*
X129187506Y-114193100D01*
X129344164Y-114065363D01*
X129523327Y-113971776D01*
X129717663Y-113916169D01*
X129893906Y-113900500D01*
X131612565Y-113900500D01*
X131813662Y-113920950D01*
G37*
G04 #@! TD.AperFunction*
G04 #@! TA.AperFunction,NonConductor*
G36*
X132008485Y-80426160D02*
G01*
X132198717Y-80494498D01*
X132371298Y-80599731D01*
X132519164Y-80737550D01*
X132636259Y-80902313D01*
X132665360Y-80959931D01*
X132670549Y-80974383D01*
X132688093Y-81007034D01*
X132703403Y-81035528D01*
X132780571Y-81222352D01*
X132818553Y-81420886D01*
X132815793Y-81623002D01*
X132772403Y-81820424D01*
X132720584Y-81944907D01*
X132711244Y-81960298D01*
X132607755Y-82207091D01*
X132541881Y-82466470D01*
X132515070Y-82732736D01*
X132516848Y-82769756D01*
X132516848Y-82769761D01*
X132521791Y-82872676D01*
X132527909Y-83000041D01*
X132546784Y-83094933D01*
X132571895Y-83221170D01*
X132580118Y-83262512D01*
X132607236Y-83338041D01*
X132656412Y-83475007D01*
X132670549Y-83514383D01*
X132797215Y-83750121D01*
X132957335Y-83964547D01*
X133147390Y-84152950D01*
X133363205Y-84311192D01*
X133600039Y-84435797D01*
X133852690Y-84524026D01*
X133889106Y-84530940D01*
X133889110Y-84530941D01*
X134079182Y-84567028D01*
X134079188Y-84567029D01*
X134115606Y-84573943D01*
X134323783Y-84582122D01*
X134345978Y-84582994D01*
X134345979Y-84582994D01*
X134383013Y-84584449D01*
X134419855Y-84580414D01*
X134419859Y-84580414D01*
X134516024Y-84569882D01*
X134649035Y-84555315D01*
X134907829Y-84487180D01*
X135153710Y-84381542D01*
X135185227Y-84362039D01*
X135185232Y-84362036D01*
X135237001Y-84330000D01*
X135418765Y-84241568D01*
X135614609Y-84191536D01*
X135762691Y-84180500D01*
X136886094Y-84180500D01*
X137087191Y-84200950D01*
X137280055Y-84261461D01*
X137456791Y-84359557D01*
X137592494Y-84473100D01*
X161549397Y-108430003D01*
X161588311Y-108471770D01*
X161592358Y-108475706D01*
X161620090Y-108507664D01*
X161652806Y-108534490D01*
X161652812Y-108534495D01*
X161699063Y-108572418D01*
X161709791Y-108581340D01*
X161787784Y-108647133D01*
X161796268Y-108652120D01*
X161803880Y-108658362D01*
X161892648Y-108708892D01*
X161904570Y-108715788D01*
X161992676Y-108767583D01*
X162001879Y-108771070D01*
X162010433Y-108775939D01*
X162043260Y-108787855D01*
X162043265Y-108787857D01*
X162046225Y-108788931D01*
X162047650Y-108789448D01*
X162106459Y-108810795D01*
X162119485Y-108815627D01*
X162214933Y-108851789D01*
X162224590Y-108853675D01*
X162233844Y-108857034D01*
X162268224Y-108863251D01*
X162268225Y-108863251D01*
X162271669Y-108863874D01*
X162271679Y-108863875D01*
X162272792Y-108864077D01*
X162272797Y-108864078D01*
X162334303Y-108875200D01*
X162348017Y-108877779D01*
X162418683Y-108891579D01*
X162418688Y-108891580D01*
X162448200Y-108897343D01*
X162458041Y-108897575D01*
X162467725Y-108899326D01*
X162492619Y-108900500D01*
X162570396Y-108900500D01*
X162593930Y-108900777D01*
X162685807Y-108902942D01*
X162685785Y-108903856D01*
X162702445Y-108904527D01*
X162702445Y-108900500D01*
X165794943Y-108900500D01*
X165996040Y-108920950D01*
X166188904Y-108981461D01*
X166365640Y-109079557D01*
X166519011Y-109211222D01*
X166642739Y-109371065D01*
X166731757Y-109552542D01*
X166782423Y-109748224D01*
X166792661Y-109950099D01*
X166762052Y-110149902D01*
X166691850Y-110339454D01*
X166584928Y-110510994D01*
X166445664Y-110657499D01*
X166279760Y-110772972D01*
X166206707Y-110806674D01*
X166207683Y-110808792D01*
X165998306Y-110905316D01*
X165998303Y-110905318D01*
X165964652Y-110920831D01*
X165740851Y-111067562D01*
X165713204Y-111092238D01*
X165713200Y-111092241D01*
X165568853Y-111221076D01*
X165541197Y-111245760D01*
X165517493Y-111274261D01*
X165517492Y-111274262D01*
X165393781Y-111423008D01*
X165393778Y-111423012D01*
X165370075Y-111451512D01*
X165350847Y-111483199D01*
X165350844Y-111483203D01*
X165323519Y-111528233D01*
X165231244Y-111680298D01*
X165127755Y-111927091D01*
X165061881Y-112186470D01*
X165035070Y-112452736D01*
X165047909Y-112720041D01*
X165055141Y-112756397D01*
X165092518Y-112944302D01*
X165100118Y-112982512D01*
X165190549Y-113234383D01*
X165317215Y-113470121D01*
X165339382Y-113499806D01*
X165430179Y-113680388D01*
X165482769Y-113875561D01*
X165494995Y-114077325D01*
X165466355Y-114277420D01*
X165398024Y-114467654D01*
X165292797Y-114640239D01*
X165154982Y-114788109D01*
X165037418Y-114874642D01*
X165030647Y-114878159D01*
X164957697Y-114930290D01*
X164846175Y-115009984D01*
X164846171Y-115009987D01*
X164817434Y-115030523D01*
X164627816Y-115211409D01*
X164465578Y-115417208D01*
X164447832Y-115447760D01*
X164361413Y-115596541D01*
X164333955Y-115643813D01*
X164320696Y-115676549D01*
X164320695Y-115676550D01*
X164290603Y-115750843D01*
X164235574Y-115886703D01*
X164227063Y-115920968D01*
X164227061Y-115920973D01*
X164180913Y-116106755D01*
X164172399Y-116141032D01*
X164168799Y-116176170D01*
X164154613Y-116314623D01*
X164145688Y-116401726D01*
X164155977Y-116663582D01*
X164162324Y-116698333D01*
X164162324Y-116698337D01*
X164177273Y-116780189D01*
X164203058Y-116921376D01*
X164214237Y-116954885D01*
X164214238Y-116954887D01*
X164274813Y-117136452D01*
X164285994Y-117169965D01*
X164301784Y-117201566D01*
X164301787Y-117201573D01*
X164341475Y-117281001D01*
X164413068Y-117470032D01*
X164445144Y-117669605D01*
X164436390Y-117871549D01*
X164387163Y-118067598D01*
X164348353Y-118159024D01*
X164333955Y-118183813D01*
X164235574Y-118426703D01*
X164227063Y-118460968D01*
X164227061Y-118460973D01*
X164180913Y-118646755D01*
X164172399Y-118681032D01*
X164168799Y-118716170D01*
X164153905Y-118861534D01*
X164145688Y-118941726D01*
X164146027Y-118950354D01*
X164121735Y-119132244D01*
X164055193Y-119323112D01*
X163951592Y-119496678D01*
X163815174Y-119645836D01*
X163651522Y-119764481D01*
X163467338Y-119847753D01*
X163270161Y-119892245D01*
X163149986Y-119899500D01*
X136849683Y-119899500D01*
X136648586Y-119879050D01*
X136455722Y-119818539D01*
X136278986Y-119720443D01*
X136125615Y-119588778D01*
X136001887Y-119428935D01*
X135912869Y-119247458D01*
X135862203Y-119051776D01*
X135853178Y-118971056D01*
X135839214Y-118773838D01*
X135836719Y-118738596D01*
X135810655Y-118617534D01*
X135788997Y-118516935D01*
X135788995Y-118516928D01*
X135781563Y-118482408D01*
X135690860Y-118236547D01*
X135674090Y-118205467D01*
X135659550Y-118173264D01*
X135660585Y-118172797D01*
X135596835Y-118019224D01*
X135558505Y-117820757D01*
X135560911Y-117618637D01*
X135603954Y-117421139D01*
X135639819Y-117327589D01*
X135731264Y-117120744D01*
X135731265Y-117120742D01*
X135745547Y-117088436D01*
X135773211Y-116990350D01*
X135807092Y-116870216D01*
X135807092Y-116870215D01*
X135816681Y-116836216D01*
X135851566Y-116576491D01*
X135855227Y-116460000D01*
X135836719Y-116198596D01*
X135791449Y-115988325D01*
X135788997Y-115976935D01*
X135788995Y-115976928D01*
X135781563Y-115942408D01*
X135758015Y-115878577D01*
X135703085Y-115729684D01*
X135703084Y-115729683D01*
X135690860Y-115696547D01*
X135601680Y-115531268D01*
X135583190Y-115497000D01*
X135583189Y-115496999D01*
X135566420Y-115465920D01*
X135541237Y-115431824D01*
X135431709Y-115283535D01*
X135410726Y-115255126D01*
X135226884Y-115068374D01*
X135018562Y-114909388D01*
X134987738Y-114892126D01*
X134979667Y-114886824D01*
X134822815Y-114759326D01*
X134694839Y-114602864D01*
X134600979Y-114423843D01*
X134545076Y-114229593D01*
X134529420Y-114028065D01*
X134554652Y-113827512D01*
X134619738Y-113636143D01*
X134687933Y-113511428D01*
X134784347Y-113361534D01*
X134894261Y-113117534D01*
X134966902Y-112859969D01*
X135000675Y-112594495D01*
X135003149Y-112500000D01*
X134983317Y-112233123D01*
X134924255Y-111972109D01*
X134867253Y-111825528D01*
X134813427Y-111630692D01*
X134799923Y-111429010D01*
X134827294Y-111228737D01*
X134894419Y-111038074D01*
X134998551Y-110864826D01*
X135135425Y-110716085D01*
X135228898Y-110642632D01*
X135277594Y-110608850D01*
X135289029Y-110601035D01*
X135373732Y-110544009D01*
X135380856Y-110537213D01*
X135388940Y-110531605D01*
X135407373Y-110514833D01*
X135462392Y-110459814D01*
X135479231Y-110443368D01*
X135545705Y-110379955D01*
X135546336Y-110380617D01*
X135558592Y-110369310D01*
X135555744Y-110366462D01*
X141830003Y-104092203D01*
X141871770Y-104053289D01*
X141875706Y-104049242D01*
X141907664Y-104021510D01*
X141934490Y-103988794D01*
X141934495Y-103988788D01*
X141972418Y-103942537D01*
X141981346Y-103931802D01*
X142024588Y-103880542D01*
X142024590Y-103880540D01*
X142047133Y-103853816D01*
X142052120Y-103845332D01*
X142058362Y-103837720D01*
X142108892Y-103748952D01*
X142115788Y-103737030D01*
X142167583Y-103648924D01*
X142171070Y-103639721D01*
X142175939Y-103631167D01*
X142187855Y-103598340D01*
X142187857Y-103598335D01*
X142189179Y-103594691D01*
X142195061Y-103578488D01*
X142210795Y-103535141D01*
X142215648Y-103522057D01*
X142251789Y-103426667D01*
X142253675Y-103417011D01*
X142257034Y-103407756D01*
X142275213Y-103307223D01*
X142277783Y-103293559D01*
X142291583Y-103222892D01*
X142291583Y-103222888D01*
X142297342Y-103193400D01*
X142297574Y-103183565D01*
X142299326Y-103173875D01*
X142300500Y-103148981D01*
X142300500Y-103071192D01*
X142300777Y-103047654D01*
X142302942Y-102955793D01*
X142303856Y-102955815D01*
X142304527Y-102939155D01*
X142300500Y-102939155D01*
X142300500Y-93985282D01*
X142302517Y-93928230D01*
X142302438Y-93922585D01*
X142305427Y-93880375D01*
X142301262Y-93838276D01*
X142301262Y-93838268D01*
X142295379Y-93778807D01*
X142294103Y-93764925D01*
X142288423Y-93697984D01*
X142288422Y-93697980D01*
X142285469Y-93663177D01*
X142282996Y-93653648D01*
X142282027Y-93643856D01*
X142257949Y-93556144D01*
X142255015Y-93545454D01*
X142251417Y-93531978D01*
X142234544Y-93466967D01*
X142234541Y-93466960D01*
X142225760Y-93433126D01*
X142221716Y-93424149D01*
X142219112Y-93414662D01*
X142204313Y-93382997D01*
X142175886Y-93322172D01*
X142170072Y-93309503D01*
X142153098Y-93271823D01*
X142128143Y-93216424D01*
X142122646Y-93208259D01*
X142118479Y-93199343D01*
X142060291Y-93115466D01*
X142052419Y-93103947D01*
X142012200Y-93044207D01*
X142012193Y-93044198D01*
X141995409Y-93019268D01*
X141988616Y-93012147D01*
X141983005Y-93004059D01*
X141966233Y-92985627D01*
X141911214Y-92930608D01*
X141894768Y-92913769D01*
X141831355Y-92847295D01*
X141832017Y-92846664D01*
X141820710Y-92834408D01*
X141817862Y-92837256D01*
X139350603Y-90369997D01*
X139311692Y-90328233D01*
X139307643Y-90324295D01*
X139279910Y-90292336D01*
X139200903Y-90227554D01*
X139190242Y-90218687D01*
X139164542Y-90197007D01*
X139112215Y-90152866D01*
X139103730Y-90147878D01*
X139096120Y-90141638D01*
X139007370Y-90091119D01*
X138995400Y-90084193D01*
X138937493Y-90050151D01*
X138937488Y-90050149D01*
X138907324Y-90032416D01*
X138898116Y-90028928D01*
X138889567Y-90024061D01*
X138793533Y-89989202D01*
X138780649Y-89984423D01*
X138685067Y-89948211D01*
X138675410Y-89946325D01*
X138666156Y-89942966D01*
X138631787Y-89936751D01*
X138631779Y-89936749D01*
X138628331Y-89936126D01*
X138628321Y-89936125D01*
X138627208Y-89935923D01*
X138627203Y-89935922D01*
X138565697Y-89924800D01*
X138551983Y-89922221D01*
X138481317Y-89908421D01*
X138481312Y-89908420D01*
X138451800Y-89902657D01*
X138441959Y-89902425D01*
X138432275Y-89900674D01*
X138407381Y-89899500D01*
X138329604Y-89899500D01*
X138306070Y-89899223D01*
X138214193Y-89897058D01*
X138214215Y-89896144D01*
X138197555Y-89895473D01*
X138197555Y-89899500D01*
X131153861Y-89899500D01*
X130952764Y-89879050D01*
X130759900Y-89818539D01*
X130583164Y-89720443D01*
X130429793Y-89588778D01*
X130306065Y-89428935D01*
X130217047Y-89247458D01*
X130166381Y-89051776D01*
X130156143Y-88849901D01*
X130186752Y-88650098D01*
X130196851Y-88617588D01*
X130196661Y-88617534D01*
X130259241Y-88395642D01*
X130269302Y-88359969D01*
X130303075Y-88094495D01*
X130305549Y-88000000D01*
X130285717Y-87733123D01*
X130259823Y-87618687D01*
X130234834Y-87508253D01*
X130234833Y-87508248D01*
X130226655Y-87472109D01*
X130129662Y-87222691D01*
X130111263Y-87190499D01*
X130015259Y-87022527D01*
X130015257Y-87022524D01*
X129996868Y-86990350D01*
X129831190Y-86780189D01*
X129636269Y-86596825D01*
X129416385Y-86444286D01*
X129176371Y-86325924D01*
X129018590Y-86275418D01*
X128956799Y-86255638D01*
X128956795Y-86255637D01*
X128921497Y-86244338D01*
X128884920Y-86238381D01*
X128884915Y-86238380D01*
X128693950Y-86207280D01*
X128693946Y-86207280D01*
X128657364Y-86201322D01*
X128389774Y-86197819D01*
X128389832Y-86193401D01*
X128258530Y-86188114D01*
X128062331Y-86139492D01*
X127879935Y-86052370D01*
X127718810Y-85930316D01*
X127585553Y-85778327D01*
X127485620Y-85602624D01*
X127423100Y-85410401D01*
X127400500Y-85199110D01*
X127400500Y-85051541D01*
X127420950Y-84850444D01*
X127481461Y-84657580D01*
X127579557Y-84480844D01*
X127711222Y-84327473D01*
X127871065Y-84203745D01*
X128053838Y-84114334D01*
X128086874Y-84105760D01*
X128095851Y-84101716D01*
X128105338Y-84099112D01*
X128137003Y-84084313D01*
X128197828Y-84055886D01*
X128210497Y-84050072D01*
X128303576Y-84008143D01*
X128311741Y-84002646D01*
X128320657Y-83998479D01*
X128369570Y-83964547D01*
X128404531Y-83940294D01*
X128416044Y-83932425D01*
X128475778Y-83892209D01*
X128500732Y-83875409D01*
X128507856Y-83868613D01*
X128515940Y-83863005D01*
X128534373Y-83846233D01*
X128589392Y-83791214D01*
X128606231Y-83774768D01*
X128672705Y-83711355D01*
X128673336Y-83712017D01*
X128685592Y-83700710D01*
X128682744Y-83697862D01*
X130330003Y-82050603D01*
X130371767Y-82011692D01*
X130375705Y-82007643D01*
X130407664Y-81979910D01*
X130472446Y-81900903D01*
X130481313Y-81890242D01*
X130524592Y-81838937D01*
X130547134Y-81812215D01*
X130552122Y-81803730D01*
X130558362Y-81796120D01*
X130608933Y-81707280D01*
X130615807Y-81695400D01*
X130649849Y-81637493D01*
X130649851Y-81637488D01*
X130667584Y-81607324D01*
X130671072Y-81598116D01*
X130675939Y-81589567D01*
X130710798Y-81493533D01*
X130715577Y-81480649D01*
X130751789Y-81385067D01*
X130753675Y-81375410D01*
X130757034Y-81366156D01*
X130763249Y-81331787D01*
X130763251Y-81331779D01*
X130763874Y-81328331D01*
X130763875Y-81328321D01*
X130764078Y-81327203D01*
X130775200Y-81265697D01*
X130777780Y-81251977D01*
X130787111Y-81204198D01*
X130845726Y-81010749D01*
X130942083Y-80833059D01*
X131072236Y-80678403D01*
X131230857Y-80553112D01*
X131411451Y-80462316D01*
X131606626Y-80409733D01*
X131808391Y-80397514D01*
X132008485Y-80426160D01*
G37*
G04 #@! TD.AperFunction*
G04 #@! TA.AperFunction,NonConductor*
G36*
X193226322Y-98419764D02*
G01*
X193417591Y-98485142D01*
X193591785Y-98587684D01*
X193741772Y-98723192D01*
X193861410Y-98886118D01*
X193945803Y-99069791D01*
X193991495Y-99266694D01*
X193999500Y-99392906D01*
X193999500Y-112943678D01*
X193998956Y-112943678D01*
X193999163Y-112946678D01*
X193994757Y-112985963D01*
X193997938Y-113023854D01*
X193997129Y-113030843D01*
X193998529Y-113030887D01*
X193982728Y-113533706D01*
X193978787Y-113596343D01*
X193932815Y-114082676D01*
X193931492Y-114096670D01*
X193923629Y-114158920D01*
X193845344Y-114653191D01*
X193845005Y-114655333D01*
X193833247Y-114716971D01*
X193723641Y-115207318D01*
X193723611Y-115207454D01*
X193708004Y-115268237D01*
X193600128Y-115639550D01*
X193567794Y-115750843D01*
X193548406Y-115810516D01*
X193395976Y-116233907D01*
X193378156Y-116283403D01*
X193355053Y-116341753D01*
X193155459Y-116802989D01*
X193128737Y-116859776D01*
X192900577Y-117307565D01*
X192870343Y-117362561D01*
X192614509Y-117795152D01*
X192580881Y-117848141D01*
X192298389Y-118263815D01*
X192261515Y-118314568D01*
X191953457Y-118711715D01*
X191913495Y-118760020D01*
X191581109Y-119137039D01*
X191538162Y-119182773D01*
X191182773Y-119538162D01*
X191137039Y-119581109D01*
X190760020Y-119913495D01*
X190711715Y-119953457D01*
X190314568Y-120261515D01*
X190263815Y-120298389D01*
X189848141Y-120580881D01*
X189795152Y-120614509D01*
X189362561Y-120870343D01*
X189307565Y-120900577D01*
X188859776Y-121128737D01*
X188802989Y-121155459D01*
X188341753Y-121355053D01*
X188283406Y-121378155D01*
X187810516Y-121548406D01*
X187750847Y-121567793D01*
X187268241Y-121708003D01*
X187207459Y-121723610D01*
X186716971Y-121833247D01*
X186655342Y-121845003D01*
X186158920Y-121923629D01*
X186096684Y-121931490D01*
X185623594Y-121976211D01*
X185596343Y-121978787D01*
X185533706Y-121982728D01*
X185043996Y-121998117D01*
X185043913Y-121995471D01*
X185030534Y-121996607D01*
X185014037Y-121994757D01*
X184965359Y-121998845D01*
X184939814Y-121998488D01*
X184915677Y-121999500D01*
X178592906Y-121999500D01*
X178391809Y-121979050D01*
X178198945Y-121918539D01*
X178022209Y-121820443D01*
X177868838Y-121688778D01*
X177745110Y-121528935D01*
X177656092Y-121347458D01*
X177605426Y-121151776D01*
X177595188Y-120949901D01*
X177625797Y-120750098D01*
X177695999Y-120560546D01*
X177802921Y-120389006D01*
X177886506Y-120294100D01*
X177930003Y-120250603D01*
X177971770Y-120211689D01*
X177975706Y-120207642D01*
X178007664Y-120179910D01*
X178034490Y-120147194D01*
X178034495Y-120147188D01*
X178072418Y-120100937D01*
X178081346Y-120090202D01*
X178124588Y-120038942D01*
X178124590Y-120038940D01*
X178147133Y-120012216D01*
X178152120Y-120003732D01*
X178158362Y-119996120D01*
X178208892Y-119907352D01*
X178215788Y-119895430D01*
X178267583Y-119807324D01*
X178271070Y-119798121D01*
X178275939Y-119789567D01*
X178287855Y-119756740D01*
X178287857Y-119756735D01*
X178289179Y-119753091D01*
X178305844Y-119707180D01*
X178310795Y-119693541D01*
X178315648Y-119680457D01*
X178332842Y-119635075D01*
X178351789Y-119585067D01*
X178353675Y-119575411D01*
X178357034Y-119566156D01*
X178375213Y-119465623D01*
X178377783Y-119451959D01*
X178391583Y-119381292D01*
X178391583Y-119381288D01*
X178397342Y-119351800D01*
X178397574Y-119341965D01*
X178399326Y-119332275D01*
X178400500Y-119307381D01*
X178400500Y-119229592D01*
X178400777Y-119206054D01*
X178402942Y-119114193D01*
X178403856Y-119114215D01*
X178404527Y-119097555D01*
X178400500Y-119097555D01*
X178400500Y-113944635D01*
X178420950Y-113743538D01*
X178481461Y-113550674D01*
X178559300Y-113404205D01*
X178566697Y-113392705D01*
X178586747Y-113361534D01*
X178696661Y-113117534D01*
X178769302Y-112859969D01*
X178803075Y-112594495D01*
X178803854Y-112564742D01*
X178804440Y-112560170D01*
X178805644Y-112544435D01*
X178806450Y-112544497D01*
X178829561Y-112364249D01*
X178895101Y-112173035D01*
X178997790Y-111998928D01*
X179096112Y-111884494D01*
X192294100Y-98686506D01*
X192450758Y-98558769D01*
X192629921Y-98465182D01*
X192824257Y-98409575D01*
X193025807Y-98394227D01*
X193226322Y-98419764D01*
G37*
G04 #@! TD.AperFunction*
G04 #@! TA.AperFunction,NonConductor*
G36*
X122602097Y-44020950D02*
G01*
X122794961Y-44081461D01*
X122971697Y-44179557D01*
X123125068Y-44311222D01*
X123248796Y-44471065D01*
X123337814Y-44652542D01*
X123388480Y-44848224D01*
X123400000Y-44999500D01*
X123400000Y-55400000D01*
X123412596Y-55450383D01*
X123478627Y-55714507D01*
X123500000Y-55800000D01*
X123692313Y-56280781D01*
X123748010Y-56475085D01*
X123763454Y-56676629D01*
X123738012Y-56877155D01*
X123672725Y-57068456D01*
X123570266Y-57242698D01*
X123434830Y-57392749D01*
X123427054Y-57399349D01*
X123419268Y-57404591D01*
X123412144Y-57411387D01*
X123404060Y-57416995D01*
X123385627Y-57433767D01*
X123330608Y-57488786D01*
X123313770Y-57505231D01*
X123247295Y-57568645D01*
X123246664Y-57567983D01*
X123234408Y-57579290D01*
X123237256Y-57582138D01*
X119969997Y-60849397D01*
X119928233Y-60888308D01*
X119924295Y-60892357D01*
X119892336Y-60920090D01*
X119827554Y-60999097D01*
X119818687Y-61009758D01*
X119752866Y-61087785D01*
X119747878Y-61096270D01*
X119741638Y-61103880D01*
X119691119Y-61192630D01*
X119684193Y-61204600D01*
X119650151Y-61262507D01*
X119650149Y-61262512D01*
X119632416Y-61292676D01*
X119628928Y-61301884D01*
X119624061Y-61310433D01*
X119589202Y-61406467D01*
X119584423Y-61419351D01*
X119548211Y-61514933D01*
X119546325Y-61524590D01*
X119542966Y-61533844D01*
X119536751Y-61568213D01*
X119536749Y-61568221D01*
X119536126Y-61571669D01*
X119535923Y-61572792D01*
X119535922Y-61572797D01*
X119524800Y-61634303D01*
X119522221Y-61648017D01*
X119514005Y-61690090D01*
X119502657Y-61748200D01*
X119502425Y-61758041D01*
X119500674Y-61767725D01*
X119499500Y-61792619D01*
X119499500Y-61870396D01*
X119499223Y-61893930D01*
X119497058Y-61985807D01*
X119496144Y-61985785D01*
X119495473Y-62002445D01*
X119499500Y-62002445D01*
X119499500Y-67806094D01*
X119479050Y-68007191D01*
X119418539Y-68200055D01*
X119320443Y-68376791D01*
X119206900Y-68512494D01*
X111769997Y-75949397D01*
X111728233Y-75988308D01*
X111724295Y-75992357D01*
X111692336Y-76020090D01*
X111627554Y-76099097D01*
X111618687Y-76109758D01*
X111552866Y-76187785D01*
X111547878Y-76196270D01*
X111541638Y-76203880D01*
X111491119Y-76292630D01*
X111484193Y-76304600D01*
X111450151Y-76362507D01*
X111450149Y-76362512D01*
X111432416Y-76392676D01*
X111428928Y-76401884D01*
X111424061Y-76410433D01*
X111389202Y-76506467D01*
X111384423Y-76519351D01*
X111348211Y-76614933D01*
X111346325Y-76624590D01*
X111342966Y-76633844D01*
X111336751Y-76668213D01*
X111336749Y-76668221D01*
X111336126Y-76671669D01*
X111335923Y-76672792D01*
X111335922Y-76672797D01*
X111324800Y-76734303D01*
X111322221Y-76748017D01*
X111311135Y-76804787D01*
X111302657Y-76848200D01*
X111302425Y-76858041D01*
X111300674Y-76867725D01*
X111299500Y-76892619D01*
X111299500Y-76970396D01*
X111299223Y-76993930D01*
X111297058Y-77085807D01*
X111296144Y-77085785D01*
X111295473Y-77102445D01*
X111299500Y-77102445D01*
X111299500Y-95914718D01*
X111297483Y-95971770D01*
X111297562Y-95977415D01*
X111294573Y-96019625D01*
X111298738Y-96061724D01*
X111298738Y-96061732D01*
X111304621Y-96121193D01*
X111305897Y-96135075D01*
X111314531Y-96236823D01*
X111317004Y-96246352D01*
X111317973Y-96256144D01*
X111328455Y-96294328D01*
X111328455Y-96294329D01*
X111344985Y-96354546D01*
X111348583Y-96368022D01*
X111365456Y-96433033D01*
X111365459Y-96433040D01*
X111374240Y-96466874D01*
X111378284Y-96475851D01*
X111380888Y-96485338D01*
X111395687Y-96517002D01*
X111395687Y-96517003D01*
X111424114Y-96577828D01*
X111429927Y-96590495D01*
X111471857Y-96683576D01*
X111477354Y-96691741D01*
X111481521Y-96700657D01*
X111501436Y-96729364D01*
X111501437Y-96729366D01*
X111539706Y-96784531D01*
X111547575Y-96796044D01*
X111604591Y-96880732D01*
X111611387Y-96887856D01*
X111616995Y-96895940D01*
X111633767Y-96914373D01*
X111688786Y-96969392D01*
X111705232Y-96986231D01*
X111768645Y-97052705D01*
X111767983Y-97053336D01*
X111779290Y-97065592D01*
X111782138Y-97062744D01*
X122380197Y-107660803D01*
X122419108Y-107702567D01*
X122423157Y-107706505D01*
X122450890Y-107738464D01*
X122529897Y-107803246D01*
X122540558Y-107812113D01*
X122618585Y-107877934D01*
X122627070Y-107882922D01*
X122634680Y-107889162D01*
X122723430Y-107939681D01*
X122735400Y-107946607D01*
X122793369Y-107980685D01*
X122823476Y-107998384D01*
X122832684Y-108001873D01*
X122841233Y-108006739D01*
X122874047Y-108018650D01*
X122874053Y-108018653D01*
X122937152Y-108041557D01*
X122950169Y-108046384D01*
X123045733Y-108082590D01*
X123055395Y-108084477D01*
X123064644Y-108087834D01*
X123099004Y-108094047D01*
X123099007Y-108094048D01*
X123102496Y-108094679D01*
X123102505Y-108094680D01*
X123165089Y-108105997D01*
X123178727Y-108108561D01*
X123235535Y-108119655D01*
X123428979Y-108178266D01*
X123606670Y-108274620D01*
X123761328Y-108404770D01*
X123886621Y-108563389D01*
X123977419Y-108743982D01*
X124030006Y-108939157D01*
X124042228Y-109140921D01*
X124013585Y-109341016D01*
X123945249Y-109531248D01*
X123840019Y-109703831D01*
X123750461Y-109806533D01*
X123070315Y-110486679D01*
X122913657Y-110614416D01*
X122734494Y-110708003D01*
X122643462Y-110739369D01*
X122440873Y-110798418D01*
X122440866Y-110798421D01*
X122405283Y-110808792D01*
X122307161Y-110854027D01*
X122195906Y-110905316D01*
X122195903Y-110905318D01*
X122162252Y-110920831D01*
X121938451Y-111067562D01*
X121910804Y-111092238D01*
X121910800Y-111092241D01*
X121766453Y-111221076D01*
X121738797Y-111245760D01*
X121715093Y-111274261D01*
X121715092Y-111274262D01*
X121591381Y-111423008D01*
X121591378Y-111423012D01*
X121567675Y-111451512D01*
X121548447Y-111483199D01*
X121548444Y-111483203D01*
X121521119Y-111528233D01*
X121428844Y-111680298D01*
X121325355Y-111927091D01*
X121259481Y-112186470D01*
X121232670Y-112452736D01*
X121245509Y-112720041D01*
X121252741Y-112756397D01*
X121290118Y-112944302D01*
X121297718Y-112982512D01*
X121388149Y-113234383D01*
X121405693Y-113267034D01*
X121405696Y-113267040D01*
X121480511Y-113406279D01*
X121557680Y-113593103D01*
X121595662Y-113791637D01*
X121599500Y-113879123D01*
X121599500Y-119414718D01*
X121597483Y-119471770D01*
X121597562Y-119477415D01*
X121594573Y-119519625D01*
X121598738Y-119561724D01*
X121598738Y-119561732D01*
X121604621Y-119621193D01*
X121605897Y-119635075D01*
X121614531Y-119736823D01*
X121617004Y-119746352D01*
X121617973Y-119756144D01*
X121628455Y-119794328D01*
X121628455Y-119794329D01*
X121644985Y-119854546D01*
X121648583Y-119868022D01*
X121665456Y-119933033D01*
X121665459Y-119933040D01*
X121674240Y-119966874D01*
X121678284Y-119975851D01*
X121680888Y-119985338D01*
X121695687Y-120017002D01*
X121695687Y-120017003D01*
X121724114Y-120077828D01*
X121729927Y-120090495D01*
X121771857Y-120183576D01*
X121777354Y-120191741D01*
X121781521Y-120200657D01*
X121801436Y-120229364D01*
X121801437Y-120229366D01*
X121839706Y-120284531D01*
X121847575Y-120296044D01*
X121904591Y-120380732D01*
X121911387Y-120387856D01*
X121916995Y-120395940D01*
X121917180Y-120396143D01*
X122014952Y-120548331D01*
X122087738Y-120736906D01*
X122121074Y-120936272D01*
X122113596Y-121138268D01*
X122065609Y-121334624D01*
X121979079Y-121517300D01*
X121857547Y-121678819D01*
X121705990Y-121812567D01*
X121530611Y-121913069D01*
X121338592Y-121976211D01*
X121124141Y-121999500D01*
X115056322Y-121999500D01*
X115056322Y-121998956D01*
X115053322Y-121999163D01*
X115014037Y-121994757D01*
X114976146Y-121997938D01*
X114969157Y-121997129D01*
X114969113Y-121998529D01*
X114466294Y-121982728D01*
X114403657Y-121978787D01*
X114376406Y-121976211D01*
X113903316Y-121931490D01*
X113841080Y-121923629D01*
X113344658Y-121845003D01*
X113283029Y-121833247D01*
X112792541Y-121723610D01*
X112731759Y-121708003D01*
X112249153Y-121567793D01*
X112189484Y-121548406D01*
X111716594Y-121378155D01*
X111658247Y-121355053D01*
X111197011Y-121155459D01*
X111140224Y-121128737D01*
X110692435Y-120900577D01*
X110637439Y-120870343D01*
X110204848Y-120614509D01*
X110151859Y-120580881D01*
X109736185Y-120298389D01*
X109685432Y-120261515D01*
X109288285Y-119953457D01*
X109239980Y-119913495D01*
X108862961Y-119581109D01*
X108817227Y-119538162D01*
X108461838Y-119182773D01*
X108418891Y-119137039D01*
X108086505Y-118760020D01*
X108046543Y-118711715D01*
X107738485Y-118314568D01*
X107701611Y-118263815D01*
X107419119Y-117848141D01*
X107385491Y-117795152D01*
X107129657Y-117362561D01*
X107099423Y-117307565D01*
X106871263Y-116859776D01*
X106844541Y-116802989D01*
X106644947Y-116341753D01*
X106621844Y-116283403D01*
X106604024Y-116233907D01*
X106451594Y-115810516D01*
X106432206Y-115750843D01*
X106399873Y-115639550D01*
X106291996Y-115268237D01*
X106276389Y-115207454D01*
X106276359Y-115207318D01*
X106166753Y-114716971D01*
X106154995Y-114655333D01*
X106154656Y-114653191D01*
X106076371Y-114158920D01*
X106068508Y-114096670D01*
X106067186Y-114082676D01*
X106021213Y-113596343D01*
X106017272Y-113533706D01*
X106003594Y-113098441D01*
X106004944Y-113028110D01*
X106004949Y-113028071D01*
X106005341Y-113000000D01*
X106002617Y-112972222D01*
X106001449Y-112944349D01*
X106002582Y-112944302D01*
X106000500Y-112901768D01*
X106000500Y-48104255D01*
X106002478Y-48047635D01*
X106004949Y-48028071D01*
X106005341Y-48000000D01*
X106004107Y-47987413D01*
X106004255Y-47918780D01*
X106015428Y-47677111D01*
X106023942Y-47585228D01*
X106031808Y-47528843D01*
X106050186Y-47397090D01*
X106062218Y-47310839D01*
X106079173Y-47220140D01*
X106142605Y-46950441D01*
X106167854Y-46861699D01*
X106255904Y-46598991D01*
X106289225Y-46512981D01*
X106401146Y-46259504D01*
X106442268Y-46176921D01*
X106577086Y-45934879D01*
X106625658Y-45856432D01*
X106705380Y-45740052D01*
X106782228Y-45627868D01*
X106837832Y-45554235D01*
X107014827Y-45341088D01*
X107076992Y-45272896D01*
X107272896Y-45076992D01*
X107341088Y-45014827D01*
X107554235Y-44837832D01*
X107627868Y-44782228D01*
X107856433Y-44625657D01*
X107934879Y-44577086D01*
X108176921Y-44442268D01*
X108259504Y-44401146D01*
X108512981Y-44289225D01*
X108598991Y-44255904D01*
X108861699Y-44167854D01*
X108950441Y-44142605D01*
X109220140Y-44079173D01*
X109310839Y-44062218D01*
X109434090Y-44045025D01*
X109585233Y-44023941D01*
X109677110Y-44015428D01*
X109960117Y-44002344D01*
X109960310Y-44006519D01*
X109980557Y-44004637D01*
X109985963Y-44005243D01*
X110034645Y-44001155D01*
X110060190Y-44001512D01*
X110084323Y-44000500D01*
X122401000Y-44000500D01*
X122602097Y-44020950D01*
G37*
G04 #@! TD.AperFunction*
G04 #@! TA.AperFunction,Conductor*
G04 #@! TO.N,GND*
G36*
X178008055Y-46420691D02*
G01*
X178101479Y-46478536D01*
X178111469Y-46488075D01*
X179972950Y-48349556D01*
X180035048Y-48440209D01*
X180060206Y-48547172D01*
X180045025Y-48656001D01*
X179991556Y-48751996D01*
X179907020Y-48822194D01*
X179850191Y-48846532D01*
X179605991Y-48922359D01*
X179597784Y-48926039D01*
X179597778Y-48926041D01*
X179434290Y-48999344D01*
X179303375Y-49058042D01*
X179019252Y-49229098D01*
X178757737Y-49433049D01*
X178522618Y-49666940D01*
X178317301Y-49927383D01*
X178144760Y-50210607D01*
X178007494Y-50512507D01*
X177907491Y-50828712D01*
X177846201Y-51154641D01*
X177824511Y-51485572D01*
X177825006Y-51494566D01*
X177825006Y-51494567D01*
X177837330Y-51718494D01*
X177842735Y-51816712D01*
X177900608Y-52143265D01*
X177997294Y-52460500D01*
X178131391Y-52763821D01*
X178300957Y-53048836D01*
X178306454Y-53055961D01*
X178306458Y-53055967D01*
X178344059Y-53104704D01*
X178503536Y-53311415D01*
X178736193Y-53547756D01*
X178995558Y-53754434D01*
X179277874Y-53928455D01*
X179286055Y-53932226D01*
X179286054Y-53932226D01*
X179570877Y-54063532D01*
X179570881Y-54063534D01*
X179579051Y-54067300D01*
X179587618Y-54070059D01*
X179587621Y-54070060D01*
X179619451Y-54080310D01*
X179894728Y-54168957D01*
X179903569Y-54170668D01*
X179903571Y-54170668D01*
X180094955Y-54207696D01*
X180197164Y-54248036D01*
X180249009Y-54295903D01*
X180294941Y-54266919D01*
X180402776Y-54245810D01*
X180426430Y-54246546D01*
X180465907Y-54249341D01*
X180477009Y-54250127D01*
X180477013Y-54250127D01*
X180482279Y-54250500D01*
X180663386Y-54250500D01*
X180667861Y-54250230D01*
X180667868Y-54250230D01*
X180829966Y-54240458D01*
X180911040Y-54235570D01*
X180919898Y-54233952D01*
X180919900Y-54233952D01*
X181228426Y-54177605D01*
X181228427Y-54177605D01*
X181237285Y-54175987D01*
X181455903Y-54108104D01*
X181545415Y-54080310D01*
X181545422Y-54080307D01*
X181554009Y-54077641D01*
X181562216Y-54073961D01*
X181562222Y-54073959D01*
X181848411Y-53945641D01*
X181848413Y-53945640D01*
X181856625Y-53941958D01*
X181864330Y-53937319D01*
X181864338Y-53937315D01*
X181946279Y-53887982D01*
X182049229Y-53849569D01*
X182159102Y-53850939D01*
X182261061Y-53891908D01*
X182341336Y-53966942D01*
X182389084Y-54065908D01*
X182399500Y-54144140D01*
X182399500Y-57761244D01*
X182379309Y-57869255D01*
X182321464Y-57962679D01*
X182311925Y-57972669D01*
X179923669Y-60360925D01*
X179833016Y-60423023D01*
X179726053Y-60448181D01*
X179712244Y-60448500D01*
X162493527Y-60448500D01*
X162472408Y-60447753D01*
X162413375Y-60443573D01*
X162400771Y-60444820D01*
X162400768Y-60444820D01*
X162347737Y-60450067D01*
X162306914Y-60454105D01*
X162302808Y-60454483D01*
X162258509Y-60458242D01*
X162208796Y-60462460D01*
X162208794Y-60462460D01*
X162196177Y-60463531D01*
X162186648Y-60466004D01*
X162176856Y-60466973D01*
X162164657Y-60470322D01*
X162164650Y-60470323D01*
X162073705Y-60495288D01*
X162069672Y-60496365D01*
X162032188Y-60506094D01*
X161966126Y-60523240D01*
X161957149Y-60527284D01*
X161947662Y-60529888D01*
X161850691Y-60575209D01*
X161847005Y-60576900D01*
X161760975Y-60615653D01*
X161760969Y-60615656D01*
X161749424Y-60620857D01*
X161741259Y-60626354D01*
X161732343Y-60630521D01*
X161644386Y-60691539D01*
X161641073Y-60693803D01*
X161552268Y-60753591D01*
X161545144Y-60760387D01*
X161537060Y-60765995D01*
X161518627Y-60782767D01*
X161457781Y-60843613D01*
X161452742Y-60848534D01*
X161380295Y-60917645D01*
X161372731Y-60927812D01*
X161372244Y-60928362D01*
X161359731Y-60941663D01*
X158352501Y-63948893D01*
X158337040Y-63963298D01*
X158292336Y-64002090D01*
X158284312Y-64011876D01*
X158224499Y-64084823D01*
X158221830Y-64088032D01*
X158152866Y-64169785D01*
X158147878Y-64178270D01*
X158141638Y-64185880D01*
X158088744Y-64278802D01*
X158086653Y-64282415D01*
X158038839Y-64363750D01*
X158032416Y-64374676D01*
X158028928Y-64383884D01*
X158024061Y-64392433D01*
X158019742Y-64404331D01*
X158019738Y-64404340D01*
X157987563Y-64492979D01*
X157986113Y-64496889D01*
X157952696Y-64585094D01*
X157948211Y-64596933D01*
X157946325Y-64606590D01*
X157942966Y-64615844D01*
X157923920Y-64721175D01*
X157923159Y-64725218D01*
X157902657Y-64830200D01*
X157902425Y-64840041D01*
X157900674Y-64849725D01*
X157899500Y-64874619D01*
X157899500Y-64960653D01*
X157899417Y-64967697D01*
X157897058Y-65067807D01*
X157898895Y-65080325D01*
X157898942Y-65081089D01*
X157899500Y-65099339D01*
X157899500Y-74239473D01*
X157898753Y-74260591D01*
X157894573Y-74319625D01*
X157895820Y-74332229D01*
X157895820Y-74332232D01*
X157905103Y-74426061D01*
X157905483Y-74430192D01*
X157914531Y-74536823D01*
X157917004Y-74546352D01*
X157917973Y-74556144D01*
X157921322Y-74568343D01*
X157921323Y-74568350D01*
X157946288Y-74659295D01*
X157947365Y-74663328D01*
X157974240Y-74766874D01*
X157978284Y-74775851D01*
X157980888Y-74785338D01*
X158026209Y-74882309D01*
X158027900Y-74885995D01*
X158066653Y-74972025D01*
X158066656Y-74972031D01*
X158071857Y-74983576D01*
X158077354Y-74991741D01*
X158081521Y-75000657D01*
X158088736Y-75011057D01*
X158142514Y-75088577D01*
X158144803Y-75091927D01*
X158204591Y-75180732D01*
X158211387Y-75187856D01*
X158216995Y-75195940D01*
X158233767Y-75214373D01*
X158294613Y-75275219D01*
X158299534Y-75280258D01*
X158368645Y-75352705D01*
X158378812Y-75360269D01*
X158379362Y-75360756D01*
X158392663Y-75373269D01*
X164366893Y-81347499D01*
X164381298Y-81362960D01*
X164420090Y-81407664D01*
X164429876Y-81415688D01*
X164502823Y-81475501D01*
X164506032Y-81478170D01*
X164540606Y-81507335D01*
X164587785Y-81547134D01*
X164596270Y-81552122D01*
X164603880Y-81558362D01*
X164696802Y-81611256D01*
X164700415Y-81613347D01*
X164781756Y-81661165D01*
X164781762Y-81661168D01*
X164792676Y-81667584D01*
X164801884Y-81671073D01*
X164810433Y-81675939D01*
X164911030Y-81712455D01*
X164914817Y-81713860D01*
X165003089Y-81747303D01*
X165003092Y-81747304D01*
X165014933Y-81751790D01*
X165024595Y-81753677D01*
X165033844Y-81757034D01*
X165112934Y-81771335D01*
X165139055Y-81776059D01*
X165143156Y-81776830D01*
X165235766Y-81794915D01*
X165235770Y-81794915D01*
X165248201Y-81797343D01*
X165258041Y-81797575D01*
X165267725Y-81799326D01*
X165283441Y-81800067D01*
X165289097Y-81800334D01*
X165289101Y-81800334D01*
X165292619Y-81800500D01*
X165349926Y-81800500D01*
X165457937Y-81820691D01*
X165553940Y-81881120D01*
X165559664Y-81887313D01*
X165567858Y-81893984D01*
X165575572Y-81901228D01*
X165574578Y-81902286D01*
X165637873Y-81977018D01*
X165673804Y-82080859D01*
X165669797Y-82190668D01*
X165638063Y-82272739D01*
X165627565Y-82291218D01*
X165537336Y-82485599D01*
X165528887Y-82508563D01*
X165471615Y-82715081D01*
X165467035Y-82739091D01*
X165444261Y-82952186D01*
X165443664Y-82976646D01*
X165455999Y-83190586D01*
X165459404Y-83214815D01*
X165506519Y-83423878D01*
X165513832Y-83447214D01*
X165594457Y-83645768D01*
X165605491Y-83667612D01*
X165665321Y-83765246D01*
X165681256Y-83782888D01*
X165697174Y-83771491D01*
X166688575Y-82780090D01*
X166779228Y-82717992D01*
X166886191Y-82692834D01*
X166995020Y-82708015D01*
X167091015Y-82761484D01*
X167111425Y-82780090D01*
X168101568Y-83770233D01*
X168121434Y-83783842D01*
X168125573Y-83781536D01*
X168132286Y-83774338D01*
X168142141Y-83760622D01*
X168154739Y-83739656D01*
X168249693Y-83547532D01*
X168258696Y-83524793D01*
X168320994Y-83319744D01*
X168326165Y-83295830D01*
X168327189Y-83288052D01*
X168361308Y-83183601D01*
X168430854Y-83098528D01*
X168526437Y-83044324D01*
X168635145Y-83028308D01*
X168742299Y-83052643D01*
X168835055Y-83115661D01*
X169335946Y-83616552D01*
X169398044Y-83707205D01*
X169417776Y-83769644D01*
X169460118Y-83982512D01*
X169463865Y-83992948D01*
X169463866Y-83992952D01*
X169545287Y-84219726D01*
X169550549Y-84234383D01*
X169677215Y-84470121D01*
X169683849Y-84479006D01*
X169683851Y-84479008D01*
X169830696Y-84675657D01*
X169830700Y-84675661D01*
X169837335Y-84684547D01*
X169845211Y-84692354D01*
X169845214Y-84692358D01*
X170019509Y-84865138D01*
X170019513Y-84865141D01*
X170027390Y-84872950D01*
X170243205Y-85031192D01*
X170480039Y-85155797D01*
X170732690Y-85244026D01*
X170851885Y-85266656D01*
X170984707Y-85291874D01*
X170984711Y-85291874D01*
X170995606Y-85293943D01*
X171097163Y-85297933D01*
X171251929Y-85304014D01*
X171251935Y-85304014D01*
X171263013Y-85304449D01*
X171402918Y-85289127D01*
X171518015Y-85276522D01*
X171518017Y-85276522D01*
X171529035Y-85275315D01*
X171539751Y-85272494D01*
X171539755Y-85272493D01*
X171777104Y-85210004D01*
X171777108Y-85210003D01*
X171787829Y-85207180D01*
X172033710Y-85101542D01*
X172261275Y-84960720D01*
X172465526Y-84787809D01*
X172595881Y-84639168D01*
X172682278Y-84571274D01*
X172787367Y-84539175D01*
X172896956Y-84547205D01*
X172992181Y-84591387D01*
X173036823Y-84622646D01*
X173059348Y-84635651D01*
X173241842Y-84720749D01*
X173266286Y-84729646D01*
X173460786Y-84781762D01*
X173486402Y-84786279D01*
X173686992Y-84803828D01*
X173713008Y-84803828D01*
X173913598Y-84786279D01*
X173939214Y-84781762D01*
X174133714Y-84729646D01*
X174158158Y-84720749D01*
X174340646Y-84635654D01*
X174358732Y-84625211D01*
X174373881Y-84609748D01*
X174372635Y-84606152D01*
X174365597Y-84596932D01*
X173480090Y-83711425D01*
X173417992Y-83620772D01*
X173392834Y-83513809D01*
X173394722Y-83500276D01*
X174137316Y-83500276D01*
X174144489Y-83513154D01*
X174791469Y-84160134D01*
X174811335Y-84173743D01*
X174814657Y-84171892D01*
X174822522Y-84163354D01*
X174822643Y-84163181D01*
X174835654Y-84140646D01*
X174920749Y-83958158D01*
X174929646Y-83933714D01*
X174981762Y-83739214D01*
X174986279Y-83713598D01*
X175003828Y-83513008D01*
X175003828Y-83486992D01*
X174986279Y-83286402D01*
X174981762Y-83260786D01*
X174929646Y-83066286D01*
X174920749Y-83041842D01*
X174835654Y-82859354D01*
X174825211Y-82841268D01*
X174809748Y-82826119D01*
X174806152Y-82827365D01*
X174796932Y-82834403D01*
X174150925Y-83480410D01*
X174137316Y-83500276D01*
X173394722Y-83500276D01*
X173408015Y-83404980D01*
X173461484Y-83308985D01*
X173480090Y-83288575D01*
X174360134Y-82408531D01*
X174373743Y-82388665D01*
X174371892Y-82385343D01*
X174363354Y-82377478D01*
X174363181Y-82377357D01*
X174340646Y-82364346D01*
X174158158Y-82279251D01*
X174133714Y-82270354D01*
X173939214Y-82218238D01*
X173913598Y-82213721D01*
X173713008Y-82196172D01*
X173686992Y-82196172D01*
X173486402Y-82213721D01*
X173460786Y-82218238D01*
X173266286Y-82270354D01*
X173241842Y-82279251D01*
X173059348Y-82364349D01*
X173036827Y-82377352D01*
X172991795Y-82408883D01*
X172891736Y-82454295D01*
X172782029Y-82460496D01*
X172677490Y-82426647D01*
X172585488Y-82349065D01*
X172538063Y-82288907D01*
X172538061Y-82288905D01*
X172531190Y-82280189D01*
X172465335Y-82218238D01*
X172344349Y-82104426D01*
X172344350Y-82104426D01*
X172336269Y-82096825D01*
X172116385Y-81944286D01*
X172106439Y-81939381D01*
X172106432Y-81939377D01*
X171886321Y-81830831D01*
X171876371Y-81825924D01*
X171723002Y-81776830D01*
X171632070Y-81747722D01*
X171632064Y-81747721D01*
X171621497Y-81744338D01*
X171517943Y-81727474D01*
X171481884Y-81721601D01*
X171378523Y-81684311D01*
X171318520Y-81637914D01*
X169511531Y-79830925D01*
X169449433Y-79740272D01*
X169424275Y-79633309D01*
X169439456Y-79524480D01*
X169492925Y-79428485D01*
X169577461Y-79358287D01*
X169681647Y-79323367D01*
X169722956Y-79320500D01*
X170719473Y-79320500D01*
X170740591Y-79321247D01*
X170799625Y-79325427D01*
X170812229Y-79324180D01*
X170812232Y-79324180D01*
X170865263Y-79318933D01*
X170906086Y-79314895D01*
X170910192Y-79314517D01*
X170954491Y-79310758D01*
X171004204Y-79306540D01*
X171004206Y-79306540D01*
X171016823Y-79305469D01*
X171026352Y-79302996D01*
X171036144Y-79302027D01*
X171038397Y-79301408D01*
X171093791Y-79297800D01*
X171263013Y-79304449D01*
X171402918Y-79289127D01*
X171518015Y-79276522D01*
X171518017Y-79276522D01*
X171529035Y-79275315D01*
X171539751Y-79272494D01*
X171539755Y-79272493D01*
X171777104Y-79210004D01*
X171777108Y-79210003D01*
X171787829Y-79207180D01*
X172033710Y-79101542D01*
X172261275Y-78960720D01*
X172328328Y-78903956D01*
X172457060Y-78794976D01*
X172465526Y-78787809D01*
X172595881Y-78639168D01*
X172682278Y-78571274D01*
X172787367Y-78539175D01*
X172896956Y-78547205D01*
X172992181Y-78591387D01*
X173036823Y-78622646D01*
X173059348Y-78635651D01*
X173241842Y-78720749D01*
X173266286Y-78729646D01*
X173460786Y-78781762D01*
X173486402Y-78786279D01*
X173686992Y-78803828D01*
X173713008Y-78803828D01*
X173913598Y-78786279D01*
X173939214Y-78781762D01*
X174133714Y-78729646D01*
X174158158Y-78720749D01*
X174340646Y-78635654D01*
X174358732Y-78625211D01*
X174373881Y-78609748D01*
X174372635Y-78606152D01*
X174365597Y-78596932D01*
X173480090Y-77711425D01*
X173417992Y-77620772D01*
X173392834Y-77513809D01*
X173394722Y-77500276D01*
X174137316Y-77500276D01*
X174144489Y-77513154D01*
X174791469Y-78160134D01*
X174811335Y-78173743D01*
X174814657Y-78171892D01*
X174822522Y-78163354D01*
X174822643Y-78163181D01*
X174835654Y-78140646D01*
X174920749Y-77958158D01*
X174929646Y-77933714D01*
X174981762Y-77739214D01*
X174986279Y-77713598D01*
X175003828Y-77513008D01*
X175003828Y-77486992D01*
X174986279Y-77286402D01*
X174981762Y-77260786D01*
X174929646Y-77066286D01*
X174920749Y-77041842D01*
X174835654Y-76859354D01*
X174825211Y-76841268D01*
X174809748Y-76826119D01*
X174806152Y-76827365D01*
X174796932Y-76834403D01*
X174150925Y-77480410D01*
X174137316Y-77500276D01*
X173394722Y-77500276D01*
X173408015Y-77404980D01*
X173461484Y-77308985D01*
X173480090Y-77288575D01*
X174360134Y-76408531D01*
X174373743Y-76388665D01*
X174371892Y-76385343D01*
X174363354Y-76377478D01*
X174363181Y-76377357D01*
X174340646Y-76364346D01*
X174158158Y-76279251D01*
X174133714Y-76270354D01*
X173939214Y-76218238D01*
X173913598Y-76213721D01*
X173713008Y-76196172D01*
X173686992Y-76196172D01*
X173486402Y-76213721D01*
X173460786Y-76218238D01*
X173266286Y-76270354D01*
X173241842Y-76279251D01*
X173059348Y-76364349D01*
X173036827Y-76377352D01*
X172991795Y-76408883D01*
X172891736Y-76454295D01*
X172782029Y-76460496D01*
X172677490Y-76426647D01*
X172585488Y-76349065D01*
X172538063Y-76288907D01*
X172538061Y-76288905D01*
X172531190Y-76280189D01*
X172503655Y-76254286D01*
X172344349Y-76104426D01*
X172344350Y-76104426D01*
X172336269Y-76096825D01*
X172116385Y-75944286D01*
X172106439Y-75939381D01*
X172106432Y-75939377D01*
X171886321Y-75830831D01*
X171876371Y-75825924D01*
X171791373Y-75798716D01*
X171632070Y-75747722D01*
X171632064Y-75747721D01*
X171621497Y-75744338D01*
X171357364Y-75701322D01*
X171261333Y-75700065D01*
X171100878Y-75697964D01*
X171100873Y-75697964D01*
X171089774Y-75697819D01*
X171078775Y-75699316D01*
X171078774Y-75699316D01*
X170835601Y-75732410D01*
X170835594Y-75732411D01*
X170824605Y-75733907D01*
X170813950Y-75737012D01*
X170813948Y-75737013D01*
X170788817Y-75744338D01*
X170567683Y-75808792D01*
X170324652Y-75920831D01*
X170315374Y-75926914D01*
X170129822Y-76048568D01*
X170100851Y-76067562D01*
X169901197Y-76245760D01*
X169815990Y-76348211D01*
X169763193Y-76411692D01*
X169678603Y-76481825D01*
X169574390Y-76516664D01*
X169533309Y-76519500D01*
X168384063Y-76519500D01*
X168276052Y-76499309D01*
X168195538Y-76450378D01*
X168194841Y-76451291D01*
X167983383Y-76289910D01*
X167983381Y-76289908D01*
X167974981Y-76283498D01*
X167855911Y-76216816D01*
X167742895Y-76153524D01*
X167742888Y-76153521D01*
X167733671Y-76148359D01*
X167723816Y-76144546D01*
X167723811Y-76144544D01*
X167598445Y-76096044D01*
X167475728Y-76048568D01*
X167206297Y-75986117D01*
X167052576Y-75972804D01*
X166946710Y-75943369D01*
X166866950Y-75886344D01*
X166488075Y-75507469D01*
X166425977Y-75416816D01*
X166400819Y-75309853D01*
X166400500Y-75296044D01*
X166400500Y-74052030D01*
X166420691Y-73944019D01*
X166470621Y-73859636D01*
X166481856Y-73846271D01*
X166622573Y-73678868D01*
X166772489Y-73438485D01*
X166887040Y-73179376D01*
X166963939Y-72906712D01*
X167001652Y-72625933D01*
X167002640Y-72594515D01*
X167005370Y-72507631D01*
X167005610Y-72500000D01*
X166998164Y-72394830D01*
X166986348Y-72227956D01*
X166986348Y-72227955D01*
X166985601Y-72217407D01*
X166925975Y-71940453D01*
X166852478Y-71741230D01*
X166831578Y-71684578D01*
X166831577Y-71684576D01*
X166827920Y-71674663D01*
X166812575Y-71646224D01*
X166698418Y-71434652D01*
X166698414Y-71434646D01*
X166693393Y-71425340D01*
X166687108Y-71416831D01*
X166687105Y-71416826D01*
X166531362Y-71205967D01*
X166531357Y-71205962D01*
X166525078Y-71197460D01*
X166421981Y-71092731D01*
X166333749Y-71003102D01*
X166333746Y-71003100D01*
X166326334Y-70995570D01*
X166101126Y-70823696D01*
X166049787Y-70794945D01*
X165863171Y-70690435D01*
X165863164Y-70690432D01*
X165853947Y-70685270D01*
X165844092Y-70681458D01*
X165844087Y-70681455D01*
X165694372Y-70623535D01*
X165589730Y-70583052D01*
X165313747Y-70519082D01*
X165222719Y-70511198D01*
X165078476Y-70498705D01*
X164972610Y-70469269D01*
X164892851Y-70412245D01*
X163591282Y-69110676D01*
X163529184Y-69020023D01*
X163504026Y-68913060D01*
X163519207Y-68804231D01*
X163572676Y-68708236D01*
X163657212Y-68638038D01*
X163761398Y-68603118D01*
X163792926Y-68600500D01*
X163793506Y-68600500D01*
X163851800Y-68597343D01*
X163863941Y-68594972D01*
X164072646Y-68554215D01*
X164072650Y-68554214D01*
X164085067Y-68551789D01*
X164096902Y-68547305D01*
X164096906Y-68547304D01*
X164295481Y-68472070D01*
X164295482Y-68472070D01*
X164307324Y-68467583D01*
X164512216Y-68347134D01*
X164568328Y-68299800D01*
X164684205Y-68202049D01*
X164693884Y-68193884D01*
X164835866Y-68025574D01*
X164920941Y-67956035D01*
X165025394Y-67921924D01*
X165135117Y-67927849D01*
X165235289Y-67973011D01*
X165283970Y-68015407D01*
X165327065Y-68062027D01*
X165335258Y-68068697D01*
X165335259Y-68068698D01*
X165520976Y-68219894D01*
X165546764Y-68240889D01*
X165789472Y-68387012D01*
X165799204Y-68391133D01*
X165799206Y-68391134D01*
X165931935Y-68447337D01*
X166050348Y-68497478D01*
X166060565Y-68500187D01*
X166249171Y-68550195D01*
X166324186Y-68570085D01*
X166506490Y-68591662D01*
X166595019Y-68602141D01*
X166595023Y-68602141D01*
X166605523Y-68603384D01*
X166616093Y-68603135D01*
X166616095Y-68603135D01*
X166738237Y-68600256D01*
X166888745Y-68596709D01*
X167029697Y-68573248D01*
X167157777Y-68551930D01*
X167157779Y-68551930D01*
X167168200Y-68550195D01*
X167438314Y-68464769D01*
X167447834Y-68460198D01*
X167447838Y-68460196D01*
X167684168Y-68346712D01*
X167684171Y-68346710D01*
X167693697Y-68342136D01*
X167745580Y-68307469D01*
X167834385Y-68248132D01*
X167935411Y-68204913D01*
X168045227Y-68201106D01*
X168149003Y-68237227D01*
X168232722Y-68308397D01*
X168285079Y-68405004D01*
X168299500Y-68496742D01*
X168299500Y-69519473D01*
X168298753Y-69540591D01*
X168294573Y-69599625D01*
X168295820Y-69612229D01*
X168295820Y-69612232D01*
X168299018Y-69644560D01*
X168302496Y-69679706D01*
X168305103Y-69706061D01*
X168305485Y-69710217D01*
X168311153Y-69777009D01*
X168314531Y-69816823D01*
X168317004Y-69826352D01*
X168317973Y-69836144D01*
X168321322Y-69848343D01*
X168321323Y-69848350D01*
X168346288Y-69939295D01*
X168347365Y-69943328D01*
X168351252Y-69958302D01*
X168374240Y-70046874D01*
X168378284Y-70055851D01*
X168380888Y-70065338D01*
X168426209Y-70162309D01*
X168427900Y-70165995D01*
X168466653Y-70252025D01*
X168466656Y-70252031D01*
X168471857Y-70263576D01*
X168477354Y-70271741D01*
X168481521Y-70280657D01*
X168488736Y-70291057D01*
X168542514Y-70368577D01*
X168544803Y-70371927D01*
X168604591Y-70460732D01*
X168611387Y-70467856D01*
X168616995Y-70475940D01*
X168633767Y-70494373D01*
X168694613Y-70555219D01*
X168699534Y-70560258D01*
X168768645Y-70632705D01*
X168778812Y-70640269D01*
X168779362Y-70640756D01*
X168792663Y-70653269D01*
X170534224Y-72394830D01*
X170596322Y-72485483D01*
X170621568Y-72594515D01*
X170626502Y-72720084D01*
X170677400Y-72998775D01*
X170680745Y-73008801D01*
X170734258Y-73169199D01*
X170767058Y-73267514D01*
X170893687Y-73520939D01*
X170899699Y-73529638D01*
X170899701Y-73529641D01*
X171033732Y-73723566D01*
X171054761Y-73753993D01*
X171061931Y-73761749D01*
X171061933Y-73761752D01*
X171119970Y-73824536D01*
X171247065Y-73962027D01*
X171255258Y-73968697D01*
X171255259Y-73968698D01*
X171443538Y-74121980D01*
X171466764Y-74140889D01*
X171709472Y-74287012D01*
X171719204Y-74291133D01*
X171719206Y-74291134D01*
X171815413Y-74331872D01*
X171970348Y-74397478D01*
X171980565Y-74400187D01*
X172169171Y-74450195D01*
X172244186Y-74470085D01*
X172426490Y-74491662D01*
X172515019Y-74502141D01*
X172515023Y-74502141D01*
X172525523Y-74503384D01*
X172536093Y-74503135D01*
X172536095Y-74503135D01*
X172658237Y-74500256D01*
X172808745Y-74496709D01*
X172949697Y-74473248D01*
X173077777Y-74451930D01*
X173077779Y-74451930D01*
X173088200Y-74450195D01*
X173358314Y-74364769D01*
X173367834Y-74360198D01*
X173367838Y-74360196D01*
X173604168Y-74246712D01*
X173604171Y-74246710D01*
X173613697Y-74242136D01*
X173849253Y-74084743D01*
X174060281Y-73895730D01*
X174242573Y-73678868D01*
X174392489Y-73438485D01*
X174507040Y-73179376D01*
X174583939Y-72906712D01*
X174621652Y-72625933D01*
X174622640Y-72594515D01*
X174625370Y-72507631D01*
X174625610Y-72500000D01*
X174618164Y-72394830D01*
X174606348Y-72227956D01*
X174606348Y-72227955D01*
X174605601Y-72217407D01*
X174545975Y-71940453D01*
X174472478Y-71741230D01*
X174451578Y-71684578D01*
X174451577Y-71684576D01*
X174447920Y-71674663D01*
X174432575Y-71646224D01*
X174318418Y-71434652D01*
X174318414Y-71434646D01*
X174313393Y-71425340D01*
X174307108Y-71416831D01*
X174307105Y-71416826D01*
X174151362Y-71205967D01*
X174151357Y-71205962D01*
X174145078Y-71197460D01*
X174041981Y-71092731D01*
X173953749Y-71003102D01*
X173953746Y-71003100D01*
X173946334Y-70995570D01*
X173721126Y-70823696D01*
X173669787Y-70794945D01*
X173483171Y-70690435D01*
X173483164Y-70690432D01*
X173473947Y-70685270D01*
X173464092Y-70681458D01*
X173464087Y-70681455D01*
X173314372Y-70623535D01*
X173209730Y-70583052D01*
X172933747Y-70519082D01*
X172842719Y-70511198D01*
X172698476Y-70498705D01*
X172592610Y-70469269D01*
X172512851Y-70412245D01*
X171188075Y-69087469D01*
X171125977Y-68996816D01*
X171100819Y-68889853D01*
X171100500Y-68876044D01*
X171100500Y-68501235D01*
X171120691Y-68393224D01*
X171178536Y-68299800D01*
X171266224Y-68233581D01*
X171371912Y-68203510D01*
X171481325Y-68213649D01*
X171553718Y-68245076D01*
X171658894Y-68308397D01*
X171780415Y-68381559D01*
X171789472Y-68387012D01*
X171799204Y-68391133D01*
X171799206Y-68391134D01*
X171931935Y-68447337D01*
X172050348Y-68497478D01*
X172060565Y-68500187D01*
X172249171Y-68550195D01*
X172324186Y-68570085D01*
X172482802Y-68588859D01*
X172595018Y-68602141D01*
X172595023Y-68602141D01*
X172605523Y-68603384D01*
X172613301Y-68603201D01*
X172719197Y-68628213D01*
X172809591Y-68690197D01*
X173748493Y-69629099D01*
X173762898Y-69644560D01*
X173801690Y-69689264D01*
X173811476Y-69697288D01*
X173884423Y-69757101D01*
X173887632Y-69759770D01*
X173969385Y-69828734D01*
X173977870Y-69833722D01*
X173985480Y-69839962D01*
X174078402Y-69892856D01*
X174082015Y-69894947D01*
X174163356Y-69942765D01*
X174163362Y-69942768D01*
X174174276Y-69949184D01*
X174183484Y-69952673D01*
X174192033Y-69957539D01*
X174292630Y-69994055D01*
X174296417Y-69995460D01*
X174384689Y-70028903D01*
X174384692Y-70028904D01*
X174396533Y-70033390D01*
X174406195Y-70035277D01*
X174415444Y-70038634D01*
X174427903Y-70040887D01*
X174520674Y-70057663D01*
X174524773Y-70058434D01*
X174617363Y-70076515D01*
X174617371Y-70076516D01*
X174629800Y-70078943D01*
X174639641Y-70079175D01*
X174649325Y-70080926D01*
X174665041Y-70081667D01*
X174670697Y-70081934D01*
X174670701Y-70081934D01*
X174674219Y-70082100D01*
X174760253Y-70082100D01*
X174767297Y-70082183D01*
X174854756Y-70084244D01*
X174854757Y-70084244D01*
X174867407Y-70084542D01*
X174879925Y-70082705D01*
X174880689Y-70082658D01*
X174898939Y-70082100D01*
X181422473Y-70082100D01*
X181443591Y-70082847D01*
X181502625Y-70087027D01*
X181515229Y-70085780D01*
X181515232Y-70085780D01*
X181584338Y-70078943D01*
X181609086Y-70076495D01*
X181613192Y-70076117D01*
X181657491Y-70072358D01*
X181707204Y-70068140D01*
X181707206Y-70068140D01*
X181719823Y-70067069D01*
X181729352Y-70064596D01*
X181739144Y-70063627D01*
X181751343Y-70060278D01*
X181751350Y-70060277D01*
X181842295Y-70035312D01*
X181846328Y-70034235D01*
X181883812Y-70024506D01*
X181949874Y-70007360D01*
X181958851Y-70003316D01*
X181968338Y-70000712D01*
X182065309Y-69955391D01*
X182068995Y-69953700D01*
X182155025Y-69914947D01*
X182155031Y-69914944D01*
X182166576Y-69909743D01*
X182174741Y-69904246D01*
X182183657Y-69900079D01*
X182271614Y-69839061D01*
X182274927Y-69836797D01*
X182363732Y-69777009D01*
X182370856Y-69770213D01*
X182378940Y-69764605D01*
X182397373Y-69747833D01*
X182458219Y-69686987D01*
X182463259Y-69682065D01*
X182526535Y-69621703D01*
X182526536Y-69621701D01*
X182535705Y-69612955D01*
X182543269Y-69602788D01*
X182543756Y-69602238D01*
X182556269Y-69588937D01*
X190689075Y-61456131D01*
X190779728Y-61394033D01*
X190886691Y-61368875D01*
X190995520Y-61384056D01*
X191091515Y-61437525D01*
X191161713Y-61522061D01*
X191196633Y-61626247D01*
X191199500Y-61667556D01*
X191199500Y-95696044D01*
X191179309Y-95804055D01*
X191121464Y-95897479D01*
X191111925Y-95907469D01*
X176070647Y-110948747D01*
X176023162Y-110987371D01*
X175900851Y-111067562D01*
X175701197Y-111245760D01*
X175530075Y-111451512D01*
X175391244Y-111680298D01*
X175386958Y-111690520D01*
X175386954Y-111690527D01*
X175373467Y-111722691D01*
X175287755Y-111927091D01*
X175285025Y-111937839D01*
X175285023Y-111937846D01*
X175273572Y-111982935D01*
X175221881Y-112186470D01*
X175195070Y-112452736D01*
X175195602Y-112463815D01*
X175195602Y-112463819D01*
X175207377Y-112708967D01*
X175207909Y-112720041D01*
X175260118Y-112982512D01*
X175263865Y-112992948D01*
X175263866Y-112992952D01*
X175308596Y-113117534D01*
X175350549Y-113234383D01*
X175477215Y-113470121D01*
X175483850Y-113479006D01*
X175483851Y-113479008D01*
X175540075Y-113554301D01*
X175588523Y-113652926D01*
X175599500Y-113733200D01*
X175599500Y-117592695D01*
X175579309Y-117700706D01*
X175521464Y-117794130D01*
X175433776Y-117860349D01*
X175328088Y-117890420D01*
X175218675Y-117880281D01*
X175120312Y-117831302D01*
X175046285Y-117750098D01*
X175008873Y-117658684D01*
X174969105Y-117482935D01*
X174969104Y-117482931D01*
X174966655Y-117472109D01*
X174957820Y-117449388D01*
X174873685Y-117233036D01*
X174873685Y-117233035D01*
X174869662Y-117222691D01*
X174736868Y-116990350D01*
X174704689Y-116949531D01*
X174653677Y-116852208D01*
X174640500Y-116764423D01*
X174640500Y-116175929D01*
X174641247Y-116154812D01*
X174644532Y-116108412D01*
X174645427Y-116095775D01*
X174634889Y-115989257D01*
X174634512Y-115985152D01*
X174626540Y-115891193D01*
X174626539Y-115891187D01*
X174625469Y-115878577D01*
X174622997Y-115869054D01*
X174622028Y-115859256D01*
X174618677Y-115847049D01*
X174618675Y-115847038D01*
X174593708Y-115756088D01*
X174592630Y-115752052D01*
X174568943Y-115660788D01*
X174568941Y-115660783D01*
X174565760Y-115648526D01*
X174561716Y-115639550D01*
X174559112Y-115630062D01*
X174513780Y-115533067D01*
X174512081Y-115529364D01*
X174473345Y-115443373D01*
X174468143Y-115431824D01*
X174462648Y-115423662D01*
X174458480Y-115414744D01*
X174451265Y-115404344D01*
X174451260Y-115404335D01*
X174397487Y-115326823D01*
X174395130Y-115323375D01*
X174375276Y-115293885D01*
X174335409Y-115234668D01*
X174328617Y-115227548D01*
X174323006Y-115219460D01*
X174306233Y-115201027D01*
X174245387Y-115140181D01*
X174240465Y-115135141D01*
X174180103Y-115071865D01*
X174180101Y-115071864D01*
X174171355Y-115062695D01*
X174161188Y-115055131D01*
X174160638Y-115054644D01*
X174147337Y-115042131D01*
X170657707Y-111552501D01*
X170643302Y-111537040D01*
X170612804Y-111501894D01*
X170604510Y-111492336D01*
X170566288Y-111460996D01*
X170521777Y-111424499D01*
X170518568Y-111421830D01*
X170446489Y-111361027D01*
X170436815Y-111352866D01*
X170428330Y-111347878D01*
X170420720Y-111341638D01*
X170327780Y-111288734D01*
X170324185Y-111286653D01*
X170242850Y-111238839D01*
X170242849Y-111238838D01*
X170231924Y-111232416D01*
X170222716Y-111228928D01*
X170214167Y-111224061D01*
X170202269Y-111219742D01*
X170202260Y-111219738D01*
X170113621Y-111187563D01*
X170109711Y-111186113D01*
X170021506Y-111152696D01*
X170021502Y-111152695D01*
X170009667Y-111148211D01*
X170000010Y-111146325D01*
X169990756Y-111142966D01*
X169885390Y-111123913D01*
X169881382Y-111123159D01*
X169776400Y-111102657D01*
X169766559Y-111102425D01*
X169756875Y-111100674D01*
X169741159Y-111099933D01*
X169735503Y-111099666D01*
X169735499Y-111099666D01*
X169731981Y-111099500D01*
X169645947Y-111099500D01*
X169638903Y-111099417D01*
X169551444Y-111097356D01*
X169551443Y-111097356D01*
X169538793Y-111097058D01*
X169526275Y-111098895D01*
X169525511Y-111098942D01*
X169507261Y-111099500D01*
X168073682Y-111099500D01*
X167965671Y-111079309D01*
X167903253Y-111046172D01*
X167818492Y-110987371D01*
X167756385Y-110944286D01*
X167746439Y-110939381D01*
X167746432Y-110939377D01*
X167532887Y-110834069D01*
X167516371Y-110825924D01*
X167356426Y-110774725D01*
X167272070Y-110747722D01*
X167272064Y-110747721D01*
X167261497Y-110744338D01*
X166997364Y-110701322D01*
X166901333Y-110700065D01*
X166740878Y-110697964D01*
X166740873Y-110697964D01*
X166729774Y-110697819D01*
X166718775Y-110699316D01*
X166718774Y-110699316D01*
X166475601Y-110732410D01*
X166475594Y-110732411D01*
X166464605Y-110733907D01*
X166453950Y-110737012D01*
X166453948Y-110737013D01*
X166233610Y-110801235D01*
X166207683Y-110808792D01*
X165964652Y-110920831D01*
X165740851Y-111067562D01*
X165541197Y-111245760D01*
X165370075Y-111451512D01*
X165231244Y-111680298D01*
X165226958Y-111690520D01*
X165226954Y-111690527D01*
X165213467Y-111722691D01*
X165127755Y-111927091D01*
X165125025Y-111937839D01*
X165125023Y-111937846D01*
X165113572Y-111982935D01*
X165061881Y-112186470D01*
X165035070Y-112452736D01*
X165035602Y-112463815D01*
X165035602Y-112463819D01*
X165047377Y-112708967D01*
X165047909Y-112720041D01*
X165100118Y-112982512D01*
X165103865Y-112992948D01*
X165103866Y-112992952D01*
X165148596Y-113117534D01*
X165190549Y-113234383D01*
X165317215Y-113470121D01*
X165323849Y-113479006D01*
X165323851Y-113479008D01*
X165470696Y-113675657D01*
X165470700Y-113675661D01*
X165477335Y-113684547D01*
X165485211Y-113692354D01*
X165485214Y-113692358D01*
X165659509Y-113865138D01*
X165659513Y-113865141D01*
X165667390Y-113872950D01*
X165883205Y-114031192D01*
X166120039Y-114155797D01*
X166372690Y-114244026D01*
X166491885Y-114266656D01*
X166624707Y-114291874D01*
X166624711Y-114291874D01*
X166635606Y-114293943D01*
X166737163Y-114297933D01*
X166891929Y-114304014D01*
X166891935Y-114304014D01*
X166903013Y-114304449D01*
X167042918Y-114289127D01*
X167158015Y-114276522D01*
X167158017Y-114276522D01*
X167169035Y-114275315D01*
X167179751Y-114272494D01*
X167179755Y-114272493D01*
X167417104Y-114210004D01*
X167417108Y-114210003D01*
X167427829Y-114207180D01*
X167673710Y-114101542D01*
X167901275Y-113960720D01*
X167905969Y-113956747D01*
X168003419Y-113910450D01*
X168079913Y-113900500D01*
X168920644Y-113900500D01*
X169028655Y-113920691D01*
X169122079Y-113978536D01*
X169132069Y-113988075D01*
X171411031Y-116267037D01*
X171473129Y-116357690D01*
X171498287Y-116464653D01*
X171483106Y-116573482D01*
X171429637Y-116669477D01*
X171345101Y-116739675D01*
X171240915Y-116774595D01*
X171122219Y-116767274D01*
X170939214Y-116718237D01*
X170913598Y-116713721D01*
X170713008Y-116696172D01*
X170686992Y-116696172D01*
X170486402Y-116713721D01*
X170460786Y-116718238D01*
X170266286Y-116770354D01*
X170241842Y-116779251D01*
X170059354Y-116864346D01*
X170041268Y-116874789D01*
X170026119Y-116890252D01*
X170027365Y-116893848D01*
X170034403Y-116903068D01*
X170919910Y-117788575D01*
X170982008Y-117879228D01*
X171007166Y-117986191D01*
X170991985Y-118095020D01*
X170938516Y-118191015D01*
X170919910Y-118211425D01*
X170039866Y-119091469D01*
X170026257Y-119111335D01*
X170028108Y-119114657D01*
X170036646Y-119122522D01*
X170036819Y-119122643D01*
X170059354Y-119135654D01*
X170241842Y-119220749D01*
X170266286Y-119229646D01*
X170460786Y-119281762D01*
X170486402Y-119286279D01*
X170673390Y-119302638D01*
X170693471Y-119308240D01*
X170697728Y-119306591D01*
X170726610Y-119302638D01*
X170913598Y-119286279D01*
X170939214Y-119281762D01*
X171133714Y-119229646D01*
X171158158Y-119220749D01*
X171340652Y-119135651D01*
X171363177Y-119122646D01*
X171432890Y-119073832D01*
X171532948Y-119028418D01*
X171642655Y-119022217D01*
X171747194Y-119056064D01*
X171832447Y-119125390D01*
X171843961Y-119139855D01*
X171877335Y-119184547D01*
X171885211Y-119192354D01*
X171885214Y-119192358D01*
X171922829Y-119229646D01*
X172067390Y-119372950D01*
X172070661Y-119375348D01*
X172137898Y-119458644D01*
X172171368Y-119563304D01*
X172164771Y-119672988D01*
X172118997Y-119772882D01*
X172040228Y-119849495D01*
X171939102Y-119892480D01*
X171874691Y-119899500D01*
X170752669Y-119899500D01*
X170703339Y-119890278D01*
X170676448Y-119898079D01*
X170647331Y-119899500D01*
X168064090Y-119899500D01*
X167956079Y-119879309D01*
X167862655Y-119821464D01*
X167796436Y-119733776D01*
X167766365Y-119628088D01*
X167776316Y-119519339D01*
X167795860Y-119450042D01*
X167816681Y-119376216D01*
X167818088Y-119365743D01*
X167850551Y-119124051D01*
X167850552Y-119124043D01*
X167851566Y-119116491D01*
X167852353Y-119091469D01*
X167854987Y-119007631D01*
X167855227Y-119000000D01*
X167853112Y-118970121D01*
X167837466Y-118749145D01*
X167837466Y-118749144D01*
X167836719Y-118738596D01*
X167781563Y-118482408D01*
X167764795Y-118436955D01*
X167694518Y-118246463D01*
X167690860Y-118236547D01*
X167570244Y-118013008D01*
X169396172Y-118013008D01*
X169413721Y-118213598D01*
X169418238Y-118239214D01*
X169470354Y-118433714D01*
X169479251Y-118458158D01*
X169564346Y-118640646D01*
X169574789Y-118658732D01*
X169590252Y-118673881D01*
X169593848Y-118672635D01*
X169603068Y-118665597D01*
X170249075Y-118019590D01*
X170262684Y-117999724D01*
X170255511Y-117986846D01*
X169608531Y-117339866D01*
X169588665Y-117326257D01*
X169585343Y-117328108D01*
X169577478Y-117336646D01*
X169577357Y-117336819D01*
X169564346Y-117359354D01*
X169479251Y-117541842D01*
X169470354Y-117566286D01*
X169418238Y-117760786D01*
X169413721Y-117786402D01*
X169396172Y-117986992D01*
X169396172Y-118013008D01*
X167570244Y-118013008D01*
X167566420Y-118005920D01*
X167473622Y-117880281D01*
X167417001Y-117803621D01*
X167416997Y-117803616D01*
X167410726Y-117795126D01*
X167226884Y-117608374D01*
X167218481Y-117601961D01*
X167218473Y-117601954D01*
X167205446Y-117592012D01*
X167131832Y-117510433D01*
X167092660Y-117407770D01*
X167093218Y-117297890D01*
X167133432Y-117195631D01*
X167141919Y-117182822D01*
X167166116Y-117148266D01*
X167179116Y-117125749D01*
X167267915Y-116935321D01*
X167276809Y-116910886D01*
X167308728Y-116791761D01*
X167310501Y-116768785D01*
X167289354Y-116765000D01*
X164711809Y-116765000D01*
X164689154Y-116769235D01*
X164690971Y-116790639D01*
X164723191Y-116910886D01*
X164732085Y-116935321D01*
X164820884Y-117125749D01*
X164833888Y-117148272D01*
X164857242Y-117181625D01*
X164902656Y-117281683D01*
X164908859Y-117391390D01*
X164875011Y-117495929D01*
X164815376Y-117568365D01*
X164817434Y-117570523D01*
X164680967Y-117700706D01*
X164627816Y-117751409D01*
X164465578Y-117957208D01*
X164333955Y-118183813D01*
X164329986Y-118193612D01*
X164329985Y-118193614D01*
X164239540Y-118416910D01*
X164239538Y-118416917D01*
X164235574Y-118426703D01*
X164233029Y-118436950D01*
X164233027Y-118436955D01*
X164177938Y-118658732D01*
X164172399Y-118681032D01*
X164171322Y-118691545D01*
X164152263Y-118877560D01*
X164145688Y-118941726D01*
X164146103Y-118952293D01*
X164146103Y-118952300D01*
X164149094Y-119028418D01*
X164155977Y-119203582D01*
X164157877Y-119213983D01*
X164157877Y-119213987D01*
X164158575Y-119217807D01*
X164203058Y-119461376D01*
X164216919Y-119502924D01*
X164217904Y-119505875D01*
X164232933Y-119614725D01*
X164207627Y-119721653D01*
X164145402Y-119812219D01*
X164054663Y-119874191D01*
X163947665Y-119899200D01*
X163934272Y-119899500D01*
X136064090Y-119899500D01*
X135956079Y-119879309D01*
X135862655Y-119821464D01*
X135796436Y-119733776D01*
X135766365Y-119628088D01*
X135776316Y-119519339D01*
X135795860Y-119450042D01*
X135816681Y-119376216D01*
X135818088Y-119365743D01*
X135850551Y-119124051D01*
X135850552Y-119124043D01*
X135851566Y-119116491D01*
X135852353Y-119091469D01*
X135854987Y-119007631D01*
X135855227Y-119000000D01*
X135853112Y-118970121D01*
X135837466Y-118749145D01*
X135837466Y-118749144D01*
X135836719Y-118738596D01*
X135781563Y-118482408D01*
X135764795Y-118436955D01*
X135694518Y-118246463D01*
X135690860Y-118236547D01*
X135566420Y-118005920D01*
X135473622Y-117880281D01*
X135417001Y-117803621D01*
X135416997Y-117803616D01*
X135410726Y-117795126D01*
X135226884Y-117608374D01*
X135218481Y-117601961D01*
X135218473Y-117601954D01*
X135205446Y-117592012D01*
X135131832Y-117510433D01*
X135092660Y-117407770D01*
X135093218Y-117297890D01*
X135133432Y-117195631D01*
X135141919Y-117182822D01*
X135166116Y-117148266D01*
X135179116Y-117125749D01*
X135267915Y-116935321D01*
X135276809Y-116910886D01*
X135308728Y-116791761D01*
X135310501Y-116768785D01*
X135289354Y-116765000D01*
X132711809Y-116765000D01*
X132689154Y-116769235D01*
X132690971Y-116790639D01*
X132723191Y-116910886D01*
X132732085Y-116935321D01*
X132820884Y-117125749D01*
X132833888Y-117148272D01*
X132857242Y-117181625D01*
X132902656Y-117281683D01*
X132908859Y-117391390D01*
X132875011Y-117495929D01*
X132815376Y-117568365D01*
X132817434Y-117570523D01*
X132680967Y-117700706D01*
X132627816Y-117751409D01*
X132465578Y-117957208D01*
X132333955Y-118183813D01*
X132329986Y-118193612D01*
X132329985Y-118193614D01*
X132239540Y-118416910D01*
X132239538Y-118416917D01*
X132235574Y-118426703D01*
X132233029Y-118436950D01*
X132233027Y-118436955D01*
X132177938Y-118658732D01*
X132172399Y-118681032D01*
X132171322Y-118691545D01*
X132152263Y-118877560D01*
X132145688Y-118941726D01*
X132146103Y-118952293D01*
X132146103Y-118952300D01*
X132149094Y-119028418D01*
X132155977Y-119203582D01*
X132157877Y-119213983D01*
X132157877Y-119213987D01*
X132158575Y-119217807D01*
X132203058Y-119461376D01*
X132216919Y-119502924D01*
X132217904Y-119505875D01*
X132232933Y-119614725D01*
X132207627Y-119721653D01*
X132145402Y-119812219D01*
X132054663Y-119874191D01*
X131947665Y-119899200D01*
X131934272Y-119899500D01*
X129302669Y-119899500D01*
X129253339Y-119890278D01*
X129226448Y-119898079D01*
X129197331Y-119899500D01*
X128068920Y-119899500D01*
X127960909Y-119879309D01*
X127867485Y-119821464D01*
X127801266Y-119733776D01*
X127771195Y-119628088D01*
X127781334Y-119518675D01*
X127830313Y-119420312D01*
X127875729Y-119372293D01*
X127883467Y-119365743D01*
X127975526Y-119287809D01*
X127982841Y-119279468D01*
X127982847Y-119279462D01*
X128121100Y-119121816D01*
X128207497Y-119053922D01*
X128312586Y-119021823D01*
X128422174Y-119029854D01*
X128517398Y-119074034D01*
X128586825Y-119122647D01*
X128609348Y-119135651D01*
X128791842Y-119220749D01*
X128816286Y-119229646D01*
X129010786Y-119281762D01*
X129036402Y-119286279D01*
X129223390Y-119302638D01*
X129243471Y-119308240D01*
X129247728Y-119306591D01*
X129276610Y-119302638D01*
X129463598Y-119286279D01*
X129489214Y-119281762D01*
X129683714Y-119229646D01*
X129708158Y-119220749D01*
X129890646Y-119135654D01*
X129908732Y-119125211D01*
X129923881Y-119109748D01*
X129922635Y-119106152D01*
X129915597Y-119096932D01*
X129030090Y-118211425D01*
X128967992Y-118120772D01*
X128942834Y-118013809D01*
X128944722Y-118000276D01*
X129687316Y-118000276D01*
X129694489Y-118013154D01*
X130341469Y-118660134D01*
X130361335Y-118673743D01*
X130364657Y-118671892D01*
X130372522Y-118663354D01*
X130372643Y-118663181D01*
X130385654Y-118640646D01*
X130470749Y-118458158D01*
X130479646Y-118433714D01*
X130531762Y-118239214D01*
X130536279Y-118213598D01*
X130553828Y-118013008D01*
X130553828Y-117986992D01*
X130536279Y-117786402D01*
X130531762Y-117760786D01*
X130479646Y-117566286D01*
X130470749Y-117541842D01*
X130385654Y-117359354D01*
X130375211Y-117341268D01*
X130359748Y-117326119D01*
X130356152Y-117327365D01*
X130346932Y-117334403D01*
X129700925Y-117980410D01*
X129687316Y-118000276D01*
X128944722Y-118000276D01*
X128958015Y-117904980D01*
X129011484Y-117808985D01*
X129030090Y-117788575D01*
X129910134Y-116908531D01*
X129923743Y-116888665D01*
X129921892Y-116885343D01*
X129913354Y-116877478D01*
X129913181Y-116877357D01*
X129890646Y-116864346D01*
X129708158Y-116779251D01*
X129683714Y-116770354D01*
X129489214Y-116718238D01*
X129463598Y-116713721D01*
X129263008Y-116696172D01*
X129236992Y-116696172D01*
X129036402Y-116713721D01*
X129010786Y-116718238D01*
X128816286Y-116770354D01*
X128791842Y-116779251D01*
X128609348Y-116864349D01*
X128586823Y-116877354D01*
X128580996Y-116881434D01*
X128480937Y-116926846D01*
X128371230Y-116933046D01*
X128266691Y-116899196D01*
X128181440Y-116829869D01*
X128126989Y-116734426D01*
X128110500Y-116636505D01*
X128110500Y-116151215D01*
X132689499Y-116151215D01*
X132710646Y-116155000D01*
X133667292Y-116155000D01*
X133690966Y-116150575D01*
X133695000Y-116136397D01*
X133695000Y-116127292D01*
X134305000Y-116127292D01*
X134309425Y-116150966D01*
X134323603Y-116155000D01*
X135288191Y-116155000D01*
X135308439Y-116151215D01*
X164689499Y-116151215D01*
X164710646Y-116155000D01*
X165667292Y-116155000D01*
X165690966Y-116150575D01*
X165695000Y-116136397D01*
X165695000Y-116127292D01*
X166305000Y-116127292D01*
X166309425Y-116150966D01*
X166323603Y-116155000D01*
X167288191Y-116155000D01*
X167310846Y-116150765D01*
X167309029Y-116129361D01*
X167276809Y-116009114D01*
X167267915Y-115984679D01*
X167179116Y-115794251D01*
X167166115Y-115771732D01*
X167045597Y-115599615D01*
X167028879Y-115579691D01*
X166880304Y-115431116D01*
X166860390Y-115414406D01*
X166688273Y-115293888D01*
X166665748Y-115280883D01*
X166475321Y-115192085D01*
X166450886Y-115183191D01*
X166331761Y-115151272D01*
X166308785Y-115149499D01*
X166305000Y-115170646D01*
X166305000Y-116127292D01*
X165695000Y-116127292D01*
X165695000Y-115171809D01*
X165690765Y-115149154D01*
X165669361Y-115150971D01*
X165549114Y-115183191D01*
X165524679Y-115192085D01*
X165334251Y-115280884D01*
X165311732Y-115293885D01*
X165139615Y-115414403D01*
X165119691Y-115431121D01*
X164971121Y-115579691D01*
X164954403Y-115599615D01*
X164833885Y-115771732D01*
X164820884Y-115794251D01*
X164732085Y-115984679D01*
X164723191Y-116009114D01*
X164691272Y-116128239D01*
X164689499Y-116151215D01*
X135308439Y-116151215D01*
X135310846Y-116150765D01*
X135309029Y-116129361D01*
X135276809Y-116009114D01*
X135267915Y-115984679D01*
X135179116Y-115794251D01*
X135166115Y-115771732D01*
X135045597Y-115599615D01*
X135028879Y-115579691D01*
X134880304Y-115431116D01*
X134860390Y-115414406D01*
X134688273Y-115293888D01*
X134665748Y-115280883D01*
X134475321Y-115192085D01*
X134450886Y-115183191D01*
X134331761Y-115151272D01*
X134308785Y-115149499D01*
X134305000Y-115170646D01*
X134305000Y-116127292D01*
X133695000Y-116127292D01*
X133695000Y-115171809D01*
X133690765Y-115149154D01*
X133669361Y-115150971D01*
X133549114Y-115183191D01*
X133524679Y-115192085D01*
X133334251Y-115280884D01*
X133311732Y-115293885D01*
X133139615Y-115414403D01*
X133119691Y-115431121D01*
X132971121Y-115579691D01*
X132954403Y-115599615D01*
X132833885Y-115771732D01*
X132820884Y-115794251D01*
X132732085Y-115984679D01*
X132723191Y-116009114D01*
X132691272Y-116128239D01*
X132689499Y-116151215D01*
X128110500Y-116151215D01*
X128110500Y-115393956D01*
X128130691Y-115285945D01*
X128188536Y-115192521D01*
X128198075Y-115182531D01*
X129392531Y-113988075D01*
X129483184Y-113925977D01*
X129590147Y-113900819D01*
X129603956Y-113900500D01*
X131964691Y-113900500D01*
X132072702Y-113920691D01*
X132141492Y-113958373D01*
X132231852Y-114024628D01*
X132231857Y-114024631D01*
X132240805Y-114031192D01*
X132250626Y-114036359D01*
X132250629Y-114036361D01*
X132317893Y-114071750D01*
X132477639Y-114155797D01*
X132730290Y-114244026D01*
X132849485Y-114266656D01*
X132982307Y-114291874D01*
X132982311Y-114291874D01*
X132993206Y-114293943D01*
X133094763Y-114297933D01*
X133249529Y-114304014D01*
X133249535Y-114304014D01*
X133260613Y-114304449D01*
X133400518Y-114289127D01*
X133515615Y-114276522D01*
X133515617Y-114276522D01*
X133526635Y-114275315D01*
X133537351Y-114272494D01*
X133537355Y-114272493D01*
X133774704Y-114210004D01*
X133774708Y-114210003D01*
X133785429Y-114207180D01*
X134031310Y-114101542D01*
X134258875Y-113960720D01*
X134318257Y-113910450D01*
X134454660Y-113794976D01*
X134463126Y-113787809D01*
X134639576Y-113586607D01*
X134784347Y-113361534D01*
X134894261Y-113117534D01*
X134913116Y-113050681D01*
X134963890Y-112870650D01*
X134963891Y-112870645D01*
X134966902Y-112859969D01*
X135000675Y-112594495D01*
X135003149Y-112500000D01*
X134983317Y-112233123D01*
X134975257Y-112197503D01*
X134926705Y-111982935D01*
X134926704Y-111982931D01*
X134924255Y-111972109D01*
X134827262Y-111722691D01*
X134694468Y-111490350D01*
X134553465Y-111311489D01*
X134502451Y-111214166D01*
X134490040Y-111104987D01*
X134517907Y-110998697D01*
X134582289Y-110909651D01*
X134674490Y-110849876D01*
X134727383Y-110834276D01*
X134729823Y-110834069D01*
X134739352Y-110831596D01*
X134749144Y-110830627D01*
X134761343Y-110827278D01*
X134761350Y-110827277D01*
X134852295Y-110802312D01*
X134856328Y-110801235D01*
X134893812Y-110791506D01*
X134959874Y-110774360D01*
X134968851Y-110770316D01*
X134978338Y-110767712D01*
X135075309Y-110722391D01*
X135078995Y-110720700D01*
X135165025Y-110681947D01*
X135165031Y-110681944D01*
X135176576Y-110676743D01*
X135184741Y-110671246D01*
X135193657Y-110667079D01*
X135281576Y-110606087D01*
X135284978Y-110603762D01*
X135373732Y-110544009D01*
X135380856Y-110537213D01*
X135388940Y-110531605D01*
X135407373Y-110514833D01*
X135468219Y-110453987D01*
X135473259Y-110449065D01*
X135536535Y-110388703D01*
X135536536Y-110388701D01*
X135545705Y-110379955D01*
X135553269Y-110369788D01*
X135553756Y-110369238D01*
X135566269Y-110355937D01*
X141847499Y-104074707D01*
X141862960Y-104060302D01*
X141898106Y-104029804D01*
X141907664Y-104021510D01*
X141915687Y-104011725D01*
X141915692Y-104011720D01*
X141975513Y-103938762D01*
X141978184Y-103935550D01*
X142038964Y-103863500D01*
X142038965Y-103863499D01*
X142047133Y-103853816D01*
X142052120Y-103845332D01*
X142058362Y-103837720D01*
X142092909Y-103777030D01*
X142111315Y-103744696D01*
X142113406Y-103741082D01*
X142123321Y-103724216D01*
X142167583Y-103648924D01*
X142171070Y-103639721D01*
X142175939Y-103631167D01*
X142212484Y-103530487D01*
X142213863Y-103526770D01*
X142251789Y-103426667D01*
X142253675Y-103417011D01*
X142257034Y-103407756D01*
X142276070Y-103302484D01*
X142276841Y-103298382D01*
X142294916Y-103205825D01*
X142294917Y-103205820D01*
X142297342Y-103193400D01*
X142297574Y-103183565D01*
X142299326Y-103173875D01*
X142300500Y-103148981D01*
X142300500Y-103062930D01*
X142300583Y-103055885D01*
X142302644Y-102968443D01*
X142302644Y-102968441D01*
X142302942Y-102955793D01*
X142301105Y-102943275D01*
X142301058Y-102942512D01*
X142300500Y-102924262D01*
X142300500Y-93960527D01*
X142301247Y-93939408D01*
X142304532Y-93893011D01*
X142305427Y-93880375D01*
X142294895Y-93773914D01*
X142294515Y-93769783D01*
X142286540Y-93675796D01*
X142286540Y-93675794D01*
X142285469Y-93663177D01*
X142282996Y-93653648D01*
X142282027Y-93643856D01*
X142278678Y-93631657D01*
X142278677Y-93631650D01*
X142253712Y-93540705D01*
X142252635Y-93536672D01*
X142232872Y-93460529D01*
X142225760Y-93433126D01*
X142221716Y-93424149D01*
X142219112Y-93414662D01*
X142173791Y-93317691D01*
X142172100Y-93314005D01*
X142133347Y-93227975D01*
X142133344Y-93227969D01*
X142128143Y-93216424D01*
X142122646Y-93208259D01*
X142118479Y-93199343D01*
X142057497Y-93111439D01*
X142055140Y-93107990D01*
X142002479Y-93029769D01*
X142002477Y-93029766D01*
X141995409Y-93019268D01*
X141988616Y-93012147D01*
X141983005Y-93004059D01*
X141975617Y-92995940D01*
X141968603Y-92988231D01*
X141968592Y-92988219D01*
X141966233Y-92985627D01*
X141905387Y-92924781D01*
X141900465Y-92919741D01*
X141840103Y-92856465D01*
X141840101Y-92856464D01*
X141831355Y-92847295D01*
X141821188Y-92839731D01*
X141820638Y-92839244D01*
X141807337Y-92826731D01*
X139333107Y-90352501D01*
X139318702Y-90337040D01*
X139288204Y-90301894D01*
X139279910Y-90292336D01*
X139197177Y-90224499D01*
X139193968Y-90221830D01*
X139139462Y-90175851D01*
X139112215Y-90152866D01*
X139103730Y-90147878D01*
X139096120Y-90141638D01*
X139003180Y-90088734D01*
X138999585Y-90086653D01*
X138918250Y-90038839D01*
X138918249Y-90038838D01*
X138907324Y-90032416D01*
X138898116Y-90028928D01*
X138889567Y-90024061D01*
X138877669Y-90019742D01*
X138877660Y-90019738D01*
X138789021Y-89987563D01*
X138785111Y-89986113D01*
X138696906Y-89952696D01*
X138696902Y-89952695D01*
X138685067Y-89948211D01*
X138675410Y-89946325D01*
X138666156Y-89942966D01*
X138560790Y-89923913D01*
X138556782Y-89923159D01*
X138451800Y-89902657D01*
X138441959Y-89902425D01*
X138432275Y-89900674D01*
X138416559Y-89899933D01*
X138410903Y-89899666D01*
X138410899Y-89899666D01*
X138407381Y-89899500D01*
X138321347Y-89899500D01*
X138314303Y-89899417D01*
X138226844Y-89897356D01*
X138226843Y-89897356D01*
X138214193Y-89897058D01*
X138201675Y-89898895D01*
X138200911Y-89898942D01*
X138182661Y-89899500D01*
X128552669Y-89899500D01*
X128444658Y-89879309D01*
X128351234Y-89821464D01*
X128285015Y-89733776D01*
X128254944Y-89628088D01*
X128265083Y-89518675D01*
X128314062Y-89420312D01*
X128395266Y-89346285D01*
X128497728Y-89306591D01*
X128526610Y-89302638D01*
X128713598Y-89286279D01*
X128739214Y-89281762D01*
X128933714Y-89229646D01*
X128958158Y-89220749D01*
X129140646Y-89135654D01*
X129158732Y-89125211D01*
X129173881Y-89109748D01*
X129172635Y-89106152D01*
X129165597Y-89096932D01*
X128280090Y-88211425D01*
X128217992Y-88120772D01*
X128192834Y-88013809D01*
X128194722Y-88000276D01*
X128937316Y-88000276D01*
X128944489Y-88013154D01*
X129591469Y-88660134D01*
X129611335Y-88673743D01*
X129614657Y-88671892D01*
X129622522Y-88663354D01*
X129622643Y-88663181D01*
X129635654Y-88640646D01*
X129720749Y-88458158D01*
X129729646Y-88433714D01*
X129781762Y-88239214D01*
X129786279Y-88213598D01*
X129803828Y-88013008D01*
X129803828Y-87986992D01*
X129786279Y-87786402D01*
X129781762Y-87760786D01*
X129729646Y-87566286D01*
X129720749Y-87541842D01*
X129635654Y-87359354D01*
X129625211Y-87341268D01*
X129609748Y-87326119D01*
X129606152Y-87327365D01*
X129596932Y-87334403D01*
X128950925Y-87980410D01*
X128937316Y-88000276D01*
X128194722Y-88000276D01*
X128208015Y-87904980D01*
X128261484Y-87808985D01*
X128280090Y-87788575D01*
X129160134Y-86908531D01*
X129173743Y-86888665D01*
X129171892Y-86885343D01*
X129163354Y-86877478D01*
X129163181Y-86877357D01*
X129140646Y-86864346D01*
X128958158Y-86779251D01*
X128933714Y-86770354D01*
X128739214Y-86718238D01*
X128713598Y-86713721D01*
X128513008Y-86696172D01*
X128486992Y-86696172D01*
X128286402Y-86713721D01*
X128260786Y-86718238D01*
X128066286Y-86770354D01*
X128041842Y-86779251D01*
X127859348Y-86864349D01*
X127849001Y-86870323D01*
X127745365Y-86906843D01*
X127635535Y-86903460D01*
X127534343Y-86860629D01*
X127455457Y-86784137D01*
X127409531Y-86684313D01*
X127400500Y-86611382D01*
X127400500Y-84630567D01*
X127420691Y-84522556D01*
X127478536Y-84429132D01*
X127542159Y-84376313D01*
X127761275Y-84240720D01*
X127793336Y-84213579D01*
X127888816Y-84159203D01*
X127907360Y-84153458D01*
X127954032Y-84140646D01*
X127979297Y-84133711D01*
X127983328Y-84132635D01*
X128020812Y-84122906D01*
X128086874Y-84105760D01*
X128095851Y-84101716D01*
X128105338Y-84099112D01*
X128202309Y-84053791D01*
X128205995Y-84052100D01*
X128292025Y-84013347D01*
X128292031Y-84013344D01*
X128303576Y-84008143D01*
X128311741Y-84002646D01*
X128320657Y-83998479D01*
X128408614Y-83937461D01*
X128411927Y-83935197D01*
X128500732Y-83875409D01*
X128507856Y-83868613D01*
X128515940Y-83863005D01*
X128534373Y-83846233D01*
X128595219Y-83785387D01*
X128600259Y-83780465D01*
X128663535Y-83720103D01*
X128663536Y-83720101D01*
X128672705Y-83711355D01*
X128680269Y-83701188D01*
X128680756Y-83700638D01*
X128693269Y-83687337D01*
X130347499Y-82033107D01*
X130362960Y-82018702D01*
X130398106Y-81988204D01*
X130407664Y-81979910D01*
X130440899Y-81939377D01*
X130475501Y-81897177D01*
X130478170Y-81893968D01*
X130531430Y-81830831D01*
X130547134Y-81812215D01*
X130552122Y-81803730D01*
X130558362Y-81796120D01*
X130611266Y-81703180D01*
X130613347Y-81699585D01*
X130661161Y-81618250D01*
X130661162Y-81618249D01*
X130667584Y-81607324D01*
X130671072Y-81598116D01*
X130675939Y-81589567D01*
X130680258Y-81577669D01*
X130680262Y-81577660D01*
X130712437Y-81489021D01*
X130713887Y-81485111D01*
X130747304Y-81396906D01*
X130747305Y-81396902D01*
X130751789Y-81385067D01*
X130753675Y-81375410D01*
X130757034Y-81366156D01*
X130776087Y-81260790D01*
X130776853Y-81256718D01*
X130797343Y-81151800D01*
X130797575Y-81141959D01*
X130799326Y-81132275D01*
X130800500Y-81107381D01*
X130800500Y-81021347D01*
X130800583Y-81014303D01*
X130802644Y-80926844D01*
X130802644Y-80926843D01*
X130802942Y-80914193D01*
X130801105Y-80901675D01*
X130801058Y-80900911D01*
X130800500Y-80882661D01*
X130800500Y-72929235D01*
X133060918Y-72929235D01*
X133062735Y-72950640D01*
X133090354Y-73053714D01*
X133099251Y-73078158D01*
X133184349Y-73260652D01*
X133197354Y-73283177D01*
X133312854Y-73448128D01*
X133329564Y-73468042D01*
X133471958Y-73610436D01*
X133491872Y-73627146D01*
X133517476Y-73645074D01*
X133594372Y-73723566D01*
X133637722Y-73824536D01*
X133641669Y-73934347D01*
X133605681Y-74038169D01*
X133534619Y-74121980D01*
X133517476Y-74134926D01*
X133491872Y-74152854D01*
X133471958Y-74169564D01*
X133329564Y-74311958D01*
X133312854Y-74331872D01*
X133197354Y-74496823D01*
X133184349Y-74519348D01*
X133099251Y-74701842D01*
X133090354Y-74726286D01*
X133063036Y-74828239D01*
X133061263Y-74851215D01*
X133082411Y-74855000D01*
X133987292Y-74855000D01*
X134010966Y-74850575D01*
X134015000Y-74836397D01*
X134015000Y-73895865D01*
X134018833Y-73895865D01*
X134018787Y-73884135D01*
X134621167Y-73884135D01*
X134621213Y-73895865D01*
X134625000Y-73895865D01*
X134625000Y-74827292D01*
X134629425Y-74850966D01*
X134643603Y-74855000D01*
X135556427Y-74855000D01*
X135579082Y-74850765D01*
X135577265Y-74829360D01*
X135549646Y-74726286D01*
X135540749Y-74701842D01*
X135455651Y-74519348D01*
X135442646Y-74496823D01*
X135327146Y-74331872D01*
X135310436Y-74311958D01*
X135168042Y-74169564D01*
X135148128Y-74152854D01*
X135122524Y-74134926D01*
X135045628Y-74056434D01*
X135002278Y-73955464D01*
X134998331Y-73845653D01*
X135034319Y-73741831D01*
X135105381Y-73658020D01*
X135122524Y-73645074D01*
X135148128Y-73627146D01*
X135168042Y-73610436D01*
X135310436Y-73468042D01*
X135327146Y-73448128D01*
X135442646Y-73283177D01*
X135455651Y-73260652D01*
X135540749Y-73078158D01*
X135549646Y-73053714D01*
X135576964Y-72951761D01*
X135578737Y-72928785D01*
X135557589Y-72925000D01*
X134652708Y-72925000D01*
X134629034Y-72929425D01*
X134625000Y-72943603D01*
X134625000Y-73884135D01*
X134621167Y-73884135D01*
X134018787Y-73884135D01*
X134015000Y-73884135D01*
X134015000Y-72952708D01*
X134010575Y-72929034D01*
X133996397Y-72925000D01*
X133083573Y-72925000D01*
X133060918Y-72929235D01*
X130800500Y-72929235D01*
X130800500Y-69503956D01*
X130820691Y-69395945D01*
X130878536Y-69302521D01*
X130888075Y-69292531D01*
X132135152Y-68045454D01*
X132225805Y-67983356D01*
X132332768Y-67958198D01*
X132441597Y-67973379D01*
X132537592Y-68026848D01*
X132607790Y-68111384D01*
X132627988Y-68155840D01*
X132670549Y-68274383D01*
X132797215Y-68510121D01*
X132803849Y-68519006D01*
X132803851Y-68519008D01*
X132886338Y-68629471D01*
X132934786Y-68728096D01*
X132944335Y-68837562D01*
X132913695Y-68943086D01*
X132876649Y-68999560D01*
X132857167Y-69022984D01*
X132857163Y-69022990D01*
X132850075Y-69031512D01*
X132711244Y-69260298D01*
X132706958Y-69270520D01*
X132706954Y-69270527D01*
X132693538Y-69302521D01*
X132607755Y-69507091D01*
X132605025Y-69517839D01*
X132605023Y-69517846D01*
X132544611Y-69755720D01*
X132541881Y-69766470D01*
X132540770Y-69777502D01*
X132540770Y-69777503D01*
X132538081Y-69804204D01*
X132515070Y-70032736D01*
X132515602Y-70043815D01*
X132515602Y-70043819D01*
X132526964Y-70280362D01*
X132527909Y-70300041D01*
X132580118Y-70562512D01*
X132583865Y-70572948D01*
X132583866Y-70572952D01*
X132626441Y-70691531D01*
X132670549Y-70814383D01*
X132797215Y-71050121D01*
X132803849Y-71059006D01*
X132803851Y-71059008D01*
X132950696Y-71255657D01*
X132950700Y-71255661D01*
X132957335Y-71264547D01*
X132965211Y-71272354D01*
X132965214Y-71272358D01*
X133139509Y-71445138D01*
X133139513Y-71445141D01*
X133147390Y-71452950D01*
X133156339Y-71459511D01*
X133156344Y-71459516D01*
X133177606Y-71475106D01*
X133252773Y-71555257D01*
X133293909Y-71657148D01*
X133295460Y-71767020D01*
X133257217Y-71870032D01*
X133245732Y-71887732D01*
X133197353Y-71956825D01*
X133184349Y-71979348D01*
X133099251Y-72161842D01*
X133090354Y-72186286D01*
X133063036Y-72288239D01*
X133061263Y-72311215D01*
X133082411Y-72315000D01*
X135556427Y-72315000D01*
X135579082Y-72310765D01*
X135577265Y-72289360D01*
X135549646Y-72186286D01*
X135540749Y-72161842D01*
X135455651Y-71979348D01*
X135442646Y-71956823D01*
X135438566Y-71950996D01*
X135393154Y-71850937D01*
X135386954Y-71741230D01*
X135420804Y-71636691D01*
X135490131Y-71551440D01*
X135585574Y-71496989D01*
X135683495Y-71480500D01*
X139076044Y-71480500D01*
X139184055Y-71500691D01*
X139277479Y-71558536D01*
X139287469Y-71568075D01*
X162766893Y-95047499D01*
X162781298Y-95062960D01*
X162820090Y-95107664D01*
X162829875Y-95115687D01*
X162829882Y-95115694D01*
X162890583Y-95165466D01*
X162961305Y-95249564D01*
X162996871Y-95353532D01*
X163000000Y-95396678D01*
X163000000Y-96300500D01*
X162979809Y-96408511D01*
X162921964Y-96501935D01*
X162834276Y-96568154D01*
X162728588Y-96598225D01*
X162701000Y-96599500D01*
X161703956Y-96599500D01*
X161595945Y-96579309D01*
X161502521Y-96521464D01*
X161492531Y-96511925D01*
X141733107Y-76752501D01*
X141718702Y-76737040D01*
X141688204Y-76701894D01*
X141679910Y-76692336D01*
X141641688Y-76660996D01*
X141597177Y-76624499D01*
X141593968Y-76621830D01*
X141521889Y-76561027D01*
X141512215Y-76552866D01*
X141503730Y-76547878D01*
X141496120Y-76541638D01*
X141403180Y-76488734D01*
X141399585Y-76486653D01*
X141318250Y-76438839D01*
X141318249Y-76438838D01*
X141307324Y-76432416D01*
X141298116Y-76428928D01*
X141289567Y-76424061D01*
X141277669Y-76419742D01*
X141277660Y-76419738D01*
X141189021Y-76387563D01*
X141185111Y-76386113D01*
X141096906Y-76352696D01*
X141096902Y-76352695D01*
X141085067Y-76348211D01*
X141075410Y-76346325D01*
X141066156Y-76342966D01*
X140960790Y-76323913D01*
X140956782Y-76323159D01*
X140851800Y-76302657D01*
X140841959Y-76302425D01*
X140832275Y-76300674D01*
X140816559Y-76299933D01*
X140810903Y-76299666D01*
X140810899Y-76299666D01*
X140807381Y-76299500D01*
X140721347Y-76299500D01*
X140714303Y-76299417D01*
X140626844Y-76297356D01*
X140626843Y-76297356D01*
X140614193Y-76297058D01*
X140601675Y-76298895D01*
X140600911Y-76298942D01*
X140582661Y-76299500D01*
X135683495Y-76299500D01*
X135575484Y-76279309D01*
X135482060Y-76221464D01*
X135415841Y-76133776D01*
X135385770Y-76028088D01*
X135395909Y-75918675D01*
X135438566Y-75829004D01*
X135442646Y-75823177D01*
X135455651Y-75800652D01*
X135540749Y-75618158D01*
X135549646Y-75593714D01*
X135576964Y-75491761D01*
X135578737Y-75468785D01*
X135557589Y-75465000D01*
X133083573Y-75465000D01*
X133060918Y-75469235D01*
X133062735Y-75490640D01*
X133090354Y-75593714D01*
X133099251Y-75618158D01*
X133184349Y-75800652D01*
X133197353Y-75823175D01*
X133245482Y-75891911D01*
X133290895Y-75991970D01*
X133297096Y-76101677D01*
X133263248Y-76206216D01*
X133199654Y-76286481D01*
X133040818Y-76428248D01*
X133021197Y-76445760D01*
X132850075Y-76651512D01*
X132711244Y-76880298D01*
X132706958Y-76890520D01*
X132706954Y-76890527D01*
X132630372Y-77073156D01*
X132607755Y-77127091D01*
X132605025Y-77137839D01*
X132605023Y-77137846D01*
X132544611Y-77375720D01*
X132541881Y-77386470D01*
X132515070Y-77652736D01*
X132515602Y-77663815D01*
X132515602Y-77663819D01*
X132524675Y-77852705D01*
X132527909Y-77920041D01*
X132580118Y-78182512D01*
X132583865Y-78192948D01*
X132583866Y-78192952D01*
X132644394Y-78361534D01*
X132670549Y-78434383D01*
X132797215Y-78670121D01*
X132803849Y-78679006D01*
X132803851Y-78679008D01*
X132886338Y-78789471D01*
X132934786Y-78888096D01*
X132944335Y-78997562D01*
X132913695Y-79103086D01*
X132876649Y-79159560D01*
X132857167Y-79182984D01*
X132857163Y-79182990D01*
X132850075Y-79191512D01*
X132711244Y-79420298D01*
X132706958Y-79430520D01*
X132706954Y-79430527D01*
X132629747Y-79614645D01*
X132607755Y-79667091D01*
X132605025Y-79677839D01*
X132605023Y-79677846D01*
X132567755Y-79824590D01*
X132541881Y-79926470D01*
X132515070Y-80192736D01*
X132515602Y-80203815D01*
X132515602Y-80203819D01*
X132519540Y-80285807D01*
X132527909Y-80460041D01*
X132580118Y-80722512D01*
X132583865Y-80732948D01*
X132583866Y-80732952D01*
X132653481Y-80926844D01*
X132670549Y-80974383D01*
X132797215Y-81210121D01*
X132803849Y-81219006D01*
X132803851Y-81219008D01*
X132886338Y-81329471D01*
X132934786Y-81428096D01*
X132944335Y-81537562D01*
X132913695Y-81643086D01*
X132876649Y-81699560D01*
X132857167Y-81722984D01*
X132857163Y-81722990D01*
X132850075Y-81731512D01*
X132711244Y-81960298D01*
X132706958Y-81970520D01*
X132706954Y-81970527D01*
X132614642Y-82190668D01*
X132607755Y-82207091D01*
X132605025Y-82217839D01*
X132605023Y-82217846D01*
X132554746Y-82415815D01*
X132541881Y-82466470D01*
X132515070Y-82732736D01*
X132515602Y-82743815D01*
X132515602Y-82743819D01*
X132521791Y-82872676D01*
X132527909Y-83000041D01*
X132580118Y-83262512D01*
X132583865Y-83272948D01*
X132583866Y-83272952D01*
X132660715Y-83486992D01*
X132670549Y-83514383D01*
X132797215Y-83750121D01*
X132803849Y-83759006D01*
X132803851Y-83759008D01*
X132950696Y-83955657D01*
X132950700Y-83955661D01*
X132957335Y-83964547D01*
X132965211Y-83972354D01*
X132965214Y-83972358D01*
X133139509Y-84145138D01*
X133139513Y-84145141D01*
X133147390Y-84152950D01*
X133363205Y-84311192D01*
X133600039Y-84435797D01*
X133610511Y-84439454D01*
X133634053Y-84447675D01*
X133852690Y-84524026D01*
X133932481Y-84539175D01*
X134104707Y-84571874D01*
X134104711Y-84571874D01*
X134115606Y-84573943D01*
X134217163Y-84577933D01*
X134371929Y-84584014D01*
X134371935Y-84584014D01*
X134383013Y-84584449D01*
X134522918Y-84569127D01*
X134638015Y-84556522D01*
X134638017Y-84556522D01*
X134649035Y-84555315D01*
X134659751Y-84552494D01*
X134659755Y-84552493D01*
X134897104Y-84490004D01*
X134897108Y-84490003D01*
X134907829Y-84487180D01*
X135153710Y-84381542D01*
X135381275Y-84240720D01*
X135385969Y-84236747D01*
X135483419Y-84190450D01*
X135559913Y-84180500D01*
X137176044Y-84180500D01*
X137284055Y-84200691D01*
X137377479Y-84258536D01*
X137387469Y-84268075D01*
X161566893Y-108447499D01*
X161581298Y-108462960D01*
X161620090Y-108507664D01*
X161629875Y-108515687D01*
X161629880Y-108515692D01*
X161702838Y-108575513D01*
X161706019Y-108578158D01*
X161787784Y-108647133D01*
X161796268Y-108652120D01*
X161803880Y-108658362D01*
X161814888Y-108664628D01*
X161896904Y-108711315D01*
X161900514Y-108713404D01*
X161992676Y-108767583D01*
X162001879Y-108771070D01*
X162010433Y-108775939D01*
X162111113Y-108812484D01*
X162114830Y-108813863D01*
X162214933Y-108851789D01*
X162224590Y-108853675D01*
X162233844Y-108857034D01*
X162339210Y-108876087D01*
X162343218Y-108876841D01*
X162448200Y-108897343D01*
X162458041Y-108897575D01*
X162467725Y-108899326D01*
X162483441Y-108900067D01*
X162489097Y-108900334D01*
X162489101Y-108900334D01*
X162492619Y-108900500D01*
X162578653Y-108900500D01*
X162585697Y-108900583D01*
X162673156Y-108902644D01*
X162673157Y-108902644D01*
X162685807Y-108902942D01*
X162698325Y-108901105D01*
X162699089Y-108901058D01*
X162717339Y-108900500D01*
X173939473Y-108900500D01*
X173960591Y-108901247D01*
X174019625Y-108905427D01*
X174032229Y-108904180D01*
X174032232Y-108904180D01*
X174101338Y-108897343D01*
X174126086Y-108894895D01*
X174130192Y-108894517D01*
X174174491Y-108890758D01*
X174224204Y-108886540D01*
X174224206Y-108886540D01*
X174236823Y-108885469D01*
X174246352Y-108882996D01*
X174256144Y-108882027D01*
X174268343Y-108878678D01*
X174268350Y-108878677D01*
X174359295Y-108853712D01*
X174363328Y-108852635D01*
X174400812Y-108842906D01*
X174466874Y-108825760D01*
X174475851Y-108821716D01*
X174485338Y-108819112D01*
X174582309Y-108773791D01*
X174585995Y-108772100D01*
X174672025Y-108733347D01*
X174672031Y-108733344D01*
X174683576Y-108728143D01*
X174691741Y-108722646D01*
X174700657Y-108718479D01*
X174788614Y-108657461D01*
X174791927Y-108655197D01*
X174880732Y-108595409D01*
X174887856Y-108588613D01*
X174895940Y-108583005D01*
X174914373Y-108566233D01*
X174975219Y-108505387D01*
X174980259Y-108500465D01*
X175043535Y-108440103D01*
X175043536Y-108440101D01*
X175052705Y-108431355D01*
X175060269Y-108421188D01*
X175060756Y-108420638D01*
X175073269Y-108407337D01*
X179147499Y-104333107D01*
X179162960Y-104318702D01*
X179198106Y-104288204D01*
X179207664Y-104279910D01*
X179275501Y-104197177D01*
X179278170Y-104193968D01*
X179338973Y-104121889D01*
X179347134Y-104112215D01*
X179352122Y-104103730D01*
X179358362Y-104096120D01*
X179411266Y-104003180D01*
X179413347Y-103999585D01*
X179461161Y-103918250D01*
X179461162Y-103918249D01*
X179467584Y-103907324D01*
X179471072Y-103898116D01*
X179475939Y-103889567D01*
X179480258Y-103877669D01*
X179480262Y-103877660D01*
X179512437Y-103789021D01*
X179513887Y-103785111D01*
X179547304Y-103696906D01*
X179547305Y-103696902D01*
X179551789Y-103685067D01*
X179553675Y-103675410D01*
X179557034Y-103666156D01*
X179576087Y-103560790D01*
X179576853Y-103556718D01*
X179597343Y-103451800D01*
X179597575Y-103441959D01*
X179599326Y-103432275D01*
X179600500Y-103407381D01*
X179600500Y-103321347D01*
X179600583Y-103314303D01*
X179602644Y-103226844D01*
X179602644Y-103226843D01*
X179602942Y-103214193D01*
X179601105Y-103201675D01*
X179601058Y-103200911D01*
X179600500Y-103182661D01*
X179600500Y-93460529D01*
X179601247Y-93439412D01*
X179604532Y-93393012D01*
X179605427Y-93380375D01*
X179594889Y-93273857D01*
X179594512Y-93269752D01*
X179586540Y-93175793D01*
X179586539Y-93175787D01*
X179585469Y-93163177D01*
X179582997Y-93153654D01*
X179582028Y-93143856D01*
X179578677Y-93131649D01*
X179578675Y-93131638D01*
X179553708Y-93040688D01*
X179552630Y-93036652D01*
X179528943Y-92945388D01*
X179528941Y-92945383D01*
X179525760Y-92933126D01*
X179521716Y-92924150D01*
X179519112Y-92914662D01*
X179473780Y-92817667D01*
X179472081Y-92813964D01*
X179466016Y-92800500D01*
X179428143Y-92716424D01*
X179422648Y-92708262D01*
X179418480Y-92699344D01*
X179411265Y-92688944D01*
X179411260Y-92688935D01*
X179357487Y-92611423D01*
X179355130Y-92607975D01*
X179327459Y-92566874D01*
X179295409Y-92519268D01*
X179288617Y-92512148D01*
X179283006Y-92504060D01*
X179266233Y-92485627D01*
X179205387Y-92424781D01*
X179200465Y-92419741D01*
X179140103Y-92356465D01*
X179140101Y-92356464D01*
X179131355Y-92347295D01*
X179121188Y-92339731D01*
X179120638Y-92339244D01*
X179107337Y-92326731D01*
X174533107Y-87752501D01*
X174518702Y-87737040D01*
X174488204Y-87701894D01*
X174479910Y-87692336D01*
X174397177Y-87624499D01*
X174393968Y-87621830D01*
X174359394Y-87592665D01*
X174312215Y-87552866D01*
X174303730Y-87547878D01*
X174296120Y-87541638D01*
X174203180Y-87488734D01*
X174199585Y-87486653D01*
X174118250Y-87438839D01*
X174118249Y-87438838D01*
X174107324Y-87432416D01*
X174098116Y-87428928D01*
X174089567Y-87424061D01*
X174077669Y-87419742D01*
X174077660Y-87419738D01*
X173989021Y-87387563D01*
X173985111Y-87386113D01*
X173896906Y-87352696D01*
X173896902Y-87352695D01*
X173885067Y-87348211D01*
X173875410Y-87346325D01*
X173866156Y-87342966D01*
X173760790Y-87323913D01*
X173756782Y-87323159D01*
X173651800Y-87302657D01*
X173641959Y-87302425D01*
X173632275Y-87300674D01*
X173616559Y-87299933D01*
X173610903Y-87299666D01*
X173610899Y-87299666D01*
X173607381Y-87299500D01*
X173521347Y-87299500D01*
X173514303Y-87299417D01*
X173426844Y-87297356D01*
X173426843Y-87297356D01*
X173414193Y-87297058D01*
X173401675Y-87298895D01*
X173400911Y-87298942D01*
X173382661Y-87299500D01*
X167103956Y-87299500D01*
X166995945Y-87279309D01*
X166902521Y-87221464D01*
X166892531Y-87211925D01*
X163901124Y-84220518D01*
X166116845Y-84220518D01*
X166132941Y-84234167D01*
X166259643Y-84308206D01*
X166281716Y-84318781D01*
X166481916Y-84395230D01*
X166505396Y-84402052D01*
X166715410Y-84444780D01*
X166739690Y-84447675D01*
X166953853Y-84455528D01*
X166978290Y-84454418D01*
X167190854Y-84427188D01*
X167214777Y-84422104D01*
X167420053Y-84360517D01*
X167442817Y-84351596D01*
X167635273Y-84257313D01*
X167656280Y-84244790D01*
X167667096Y-84237075D01*
X167683797Y-84219726D01*
X167682296Y-84215514D01*
X167675984Y-84207319D01*
X166919590Y-83450925D01*
X166899724Y-83437316D01*
X166886846Y-83444489D01*
X166129952Y-84201383D01*
X166116845Y-84220518D01*
X163901124Y-84220518D01*
X155988075Y-76307469D01*
X155925977Y-76216816D01*
X155900819Y-76109853D01*
X155900500Y-76096044D01*
X155900500Y-63373956D01*
X155920691Y-63265945D01*
X155978536Y-63172521D01*
X155988075Y-63162531D01*
X156697499Y-62453107D01*
X156712960Y-62438702D01*
X156748106Y-62408204D01*
X156757664Y-62399910D01*
X156825501Y-62317177D01*
X156828170Y-62313968D01*
X156888973Y-62241889D01*
X156897134Y-62232215D01*
X156902122Y-62223730D01*
X156908362Y-62216120D01*
X156961266Y-62123180D01*
X156963347Y-62119585D01*
X157011165Y-62038244D01*
X157011168Y-62038238D01*
X157017584Y-62027324D01*
X157021073Y-62018116D01*
X157025939Y-62009567D01*
X157062455Y-61908970D01*
X157063860Y-61905183D01*
X157097303Y-61816911D01*
X157097304Y-61816908D01*
X157101790Y-61805067D01*
X157103677Y-61795405D01*
X157107034Y-61786156D01*
X157121022Y-61708802D01*
X157160111Y-61606108D01*
X157233658Y-61524469D01*
X157331730Y-61474911D01*
X157441082Y-61464127D01*
X157491881Y-61472996D01*
X157630143Y-61509656D01*
X157630147Y-61509657D01*
X157640365Y-61512366D01*
X157900607Y-61543167D01*
X158162592Y-61536993D01*
X158181511Y-61533844D01*
X158410659Y-61495704D01*
X158410661Y-61495703D01*
X158421094Y-61493967D01*
X158431172Y-61490780D01*
X158431175Y-61490779D01*
X158540730Y-61456131D01*
X158670955Y-61414946D01*
X158714507Y-61394033D01*
X158897644Y-61306092D01*
X158897645Y-61306092D01*
X158907188Y-61301509D01*
X159125082Y-61155917D01*
X159200738Y-61088154D01*
X159312408Y-60988133D01*
X159320287Y-60981076D01*
X159360055Y-60933767D01*
X159482107Y-60788568D01*
X159488910Y-60780475D01*
X159505677Y-60753591D01*
X159585029Y-60626354D01*
X159627586Y-60558116D01*
X159733547Y-60318436D01*
X159804681Y-60066216D01*
X159806088Y-60055743D01*
X159838551Y-59814051D01*
X159838552Y-59814043D01*
X159839566Y-59806491D01*
X159843227Y-59690000D01*
X159824719Y-59428596D01*
X159795547Y-59293096D01*
X159771789Y-59182745D01*
X159771787Y-59182738D01*
X159769563Y-59172408D01*
X159678860Y-58926547D01*
X159554420Y-58695920D01*
X159398726Y-58485126D01*
X159399614Y-58484470D01*
X159349833Y-58397939D01*
X159333145Y-58289332D01*
X159356818Y-58182030D01*
X159417654Y-58090525D01*
X159507438Y-58027177D01*
X159614042Y-58000539D01*
X159631989Y-58000000D01*
X159930959Y-58000000D01*
X159938449Y-58000167D01*
X159942184Y-58000500D01*
X163057816Y-58000500D01*
X163061551Y-58000167D01*
X163069041Y-58000000D01*
X170000000Y-58000000D01*
X170000000Y-57799000D01*
X170020191Y-57690989D01*
X170078036Y-57597565D01*
X170134078Y-57555244D01*
X179182119Y-57555244D01*
X179198215Y-57568893D01*
X179339051Y-57651191D01*
X179361120Y-57661765D01*
X179568614Y-57740999D01*
X179592106Y-57747824D01*
X179809761Y-57792107D01*
X179834045Y-57795003D01*
X180056015Y-57803142D01*
X180080451Y-57802033D01*
X180300759Y-57773810D01*
X180324692Y-57768723D01*
X180537442Y-57704895D01*
X180560205Y-57695974D01*
X180759680Y-57598253D01*
X180780687Y-57585730D01*
X180801152Y-57571132D01*
X180817854Y-57553783D01*
X180816353Y-57549570D01*
X180810045Y-57541380D01*
X180019590Y-56750925D01*
X179999724Y-56737316D01*
X179986846Y-56744489D01*
X179195226Y-57536109D01*
X179182119Y-57555244D01*
X170134078Y-57555244D01*
X170165724Y-57531346D01*
X170271412Y-57501275D01*
X170299000Y-57500000D01*
X171167292Y-57500000D01*
X171190966Y-57495575D01*
X171195000Y-57481397D01*
X171195000Y-57472292D01*
X171805000Y-57472292D01*
X171809425Y-57495966D01*
X171823603Y-57500000D01*
X173039248Y-57500000D01*
X173055370Y-57499127D01*
X173089833Y-57495383D01*
X173126028Y-57486777D01*
X173222632Y-57450562D01*
X173259630Y-57430306D01*
X173340142Y-57369965D01*
X173369965Y-57340142D01*
X173430306Y-57259630D01*
X173450562Y-57222632D01*
X173486777Y-57126028D01*
X173495383Y-57089833D01*
X173499127Y-57055370D01*
X173500000Y-57039248D01*
X173500000Y-56275481D01*
X178496015Y-56275481D01*
X178508801Y-56497229D01*
X178512203Y-56521439D01*
X178561037Y-56738133D01*
X178568349Y-56761465D01*
X178651913Y-56967258D01*
X178662947Y-56989101D01*
X178730776Y-57099789D01*
X178746713Y-57117433D01*
X178762628Y-57106037D01*
X179549075Y-56319590D01*
X179562306Y-56300276D01*
X180437316Y-56300276D01*
X180444489Y-56313154D01*
X181235606Y-57104271D01*
X181255472Y-57117880D01*
X181259612Y-57115574D01*
X181266321Y-57108379D01*
X181282997Y-57085171D01*
X181295594Y-57064205D01*
X181394007Y-56865082D01*
X181403014Y-56842332D01*
X181467582Y-56629815D01*
X181472751Y-56605909D01*
X181502306Y-56381410D01*
X181503538Y-56365579D01*
X181504947Y-56307951D01*
X181504489Y-56292075D01*
X181485935Y-56066400D01*
X181481940Y-56042268D01*
X181427829Y-55826843D01*
X181419950Y-55803696D01*
X181331378Y-55599995D01*
X181319822Y-55578444D01*
X181269298Y-55500345D01*
X181252727Y-55482876D01*
X181251780Y-55483165D01*
X181238173Y-55493162D01*
X180450925Y-56280410D01*
X180437316Y-56300276D01*
X179562306Y-56300276D01*
X179562684Y-56299724D01*
X179555511Y-56286846D01*
X178765188Y-55496523D01*
X178745322Y-55482914D01*
X178742817Y-55484309D01*
X178733822Y-55494196D01*
X178698204Y-55546410D01*
X178686121Y-55567680D01*
X178592604Y-55769145D01*
X178584156Y-55792106D01*
X178524801Y-56006132D01*
X178520215Y-56030168D01*
X178496612Y-56251021D01*
X178496015Y-56275481D01*
X173500000Y-56275481D01*
X173500000Y-55044738D01*
X179180839Y-55044738D01*
X179183112Y-55050656D01*
X179187326Y-55055991D01*
X179980410Y-55849075D01*
X180000276Y-55862684D01*
X180013154Y-55855511D01*
X180806510Y-55062155D01*
X180819213Y-55043611D01*
X180801596Y-55029038D01*
X180627736Y-54933062D01*
X180605419Y-54923033D01*
X180396056Y-54848893D01*
X180372393Y-54842640D01*
X180352885Y-54839165D01*
X180250089Y-54800345D01*
X180194254Y-54750308D01*
X180144408Y-54780738D01*
X180034505Y-54800230D01*
X179907277Y-54798675D01*
X179882878Y-54800381D01*
X179663312Y-54833980D01*
X179639524Y-54839647D01*
X179428394Y-54908655D01*
X179405854Y-54918130D01*
X179208833Y-55020693D01*
X179194756Y-55029557D01*
X179180839Y-55044738D01*
X173500000Y-55044738D01*
X173500000Y-53832708D01*
X173495575Y-53809034D01*
X173481397Y-53805000D01*
X171832708Y-53805000D01*
X171809034Y-53809425D01*
X171805000Y-53823603D01*
X171805000Y-57472292D01*
X171195000Y-57472292D01*
X171195000Y-53494000D01*
X171215191Y-53385989D01*
X171273036Y-53292565D01*
X171360724Y-53226346D01*
X171466412Y-53196275D01*
X171494000Y-53195000D01*
X173472292Y-53195000D01*
X173495966Y-53190575D01*
X173500000Y-53176397D01*
X173500000Y-52507444D01*
X173520191Y-52399433D01*
X173578036Y-52306009D01*
X173605214Y-52279743D01*
X173635166Y-52254252D01*
X173635170Y-52254248D01*
X173641534Y-52248832D01*
X173749004Y-52134389D01*
X173873146Y-52002191D01*
X173878863Y-51996103D01*
X174086541Y-51718494D01*
X174090759Y-51711305D01*
X174090770Y-51711288D01*
X174128079Y-51647696D01*
X174200151Y-51564752D01*
X174297319Y-51513444D01*
X174385970Y-51500000D01*
X176000000Y-51500000D01*
X176000000Y-46699500D01*
X176020191Y-46591489D01*
X176078036Y-46498065D01*
X176165724Y-46431846D01*
X176271412Y-46401775D01*
X176299000Y-46400500D01*
X177900044Y-46400500D01*
X178008055Y-46420691D01*
G37*
G04 #@! TD.AperFunction*
G04 #@! TA.AperFunction,Conductor*
G36*
X125444516Y-71500691D02*
G01*
X125537940Y-71558536D01*
X125604159Y-71646224D01*
X125634230Y-71751912D01*
X125624091Y-71861325D01*
X125581434Y-71950996D01*
X125577354Y-71956823D01*
X125564349Y-71979348D01*
X125479251Y-72161842D01*
X125470354Y-72186286D01*
X125443036Y-72288239D01*
X125441263Y-72311215D01*
X125462411Y-72315000D01*
X126706000Y-72315000D01*
X126814011Y-72335191D01*
X126907435Y-72393036D01*
X126973654Y-72480724D01*
X127003725Y-72586412D01*
X127005000Y-72614000D01*
X127005000Y-73884135D01*
X127001167Y-73884135D01*
X127001213Y-73895865D01*
X127005000Y-73895865D01*
X127005000Y-75166000D01*
X126984809Y-75274011D01*
X126926964Y-75367435D01*
X126839276Y-75433654D01*
X126733588Y-75463725D01*
X126706000Y-75465000D01*
X125463573Y-75465000D01*
X125440918Y-75469235D01*
X125442735Y-75490640D01*
X125470354Y-75593714D01*
X125479251Y-75618158D01*
X125564349Y-75800652D01*
X125577354Y-75823177D01*
X125581434Y-75829004D01*
X125626846Y-75929063D01*
X125633046Y-76038770D01*
X125599196Y-76143309D01*
X125529869Y-76228560D01*
X125434426Y-76283011D01*
X125336505Y-76299500D01*
X122860527Y-76299500D01*
X122839408Y-76298753D01*
X122780375Y-76294573D01*
X122767770Y-76295820D01*
X122767769Y-76295820D01*
X122757611Y-76296825D01*
X122673857Y-76305111D01*
X122669790Y-76305484D01*
X122636398Y-76308318D01*
X122575793Y-76313460D01*
X122575787Y-76313461D01*
X122563177Y-76314531D01*
X122553654Y-76317003D01*
X122543856Y-76317972D01*
X122531649Y-76321323D01*
X122531638Y-76321325D01*
X122440688Y-76346292D01*
X122436652Y-76347370D01*
X122345388Y-76371057D01*
X122345383Y-76371059D01*
X122333126Y-76374240D01*
X122324150Y-76378284D01*
X122314662Y-76380888D01*
X122303185Y-76386252D01*
X122217784Y-76426165D01*
X122214028Y-76427890D01*
X122116424Y-76471857D01*
X122108257Y-76477355D01*
X122099344Y-76481521D01*
X122088949Y-76488732D01*
X122088946Y-76488734D01*
X122011450Y-76542494D01*
X122008006Y-76544848D01*
X121929775Y-76597517D01*
X121919268Y-76604591D01*
X121912148Y-76611383D01*
X121904060Y-76616994D01*
X121885627Y-76633767D01*
X121824781Y-76694613D01*
X121819741Y-76699535D01*
X121778188Y-76739175D01*
X121747295Y-76768645D01*
X121739731Y-76778812D01*
X121739244Y-76779362D01*
X121726731Y-76792663D01*
X119352501Y-79166893D01*
X119337040Y-79181298D01*
X119307214Y-79207180D01*
X119292336Y-79220090D01*
X119284312Y-79229876D01*
X119224499Y-79302823D01*
X119221830Y-79306032D01*
X119208995Y-79321247D01*
X119152866Y-79387785D01*
X119147878Y-79396270D01*
X119141638Y-79403880D01*
X119088744Y-79496802D01*
X119086653Y-79500415D01*
X119038839Y-79581750D01*
X119032416Y-79592676D01*
X119028928Y-79601884D01*
X119024061Y-79610433D01*
X119019742Y-79622331D01*
X119019738Y-79622340D01*
X118987563Y-79710979D01*
X118986113Y-79714889D01*
X118952696Y-79803094D01*
X118948211Y-79814933D01*
X118946325Y-79824590D01*
X118942966Y-79833844D01*
X118928161Y-79915720D01*
X118923920Y-79939175D01*
X118923159Y-79943218D01*
X118902657Y-80048200D01*
X118902425Y-80058041D01*
X118900674Y-80067725D01*
X118899500Y-80092619D01*
X118899500Y-80178653D01*
X118899417Y-80185697D01*
X118897058Y-80285807D01*
X118898895Y-80298325D01*
X118898942Y-80299089D01*
X118899500Y-80317339D01*
X118899500Y-93239473D01*
X118898753Y-93260591D01*
X118894573Y-93319625D01*
X118895820Y-93332229D01*
X118895820Y-93332232D01*
X118905103Y-93426061D01*
X118905483Y-93430192D01*
X118914531Y-93536823D01*
X118917004Y-93546352D01*
X118917973Y-93556144D01*
X118921322Y-93568343D01*
X118921323Y-93568350D01*
X118946288Y-93659295D01*
X118947365Y-93663328D01*
X118974240Y-93766874D01*
X118978284Y-93775851D01*
X118980888Y-93785338D01*
X119026209Y-93882309D01*
X119027900Y-93885995D01*
X119066653Y-93972025D01*
X119066656Y-93972031D01*
X119071857Y-93983576D01*
X119077354Y-93991741D01*
X119081521Y-94000657D01*
X119088736Y-94011057D01*
X119142514Y-94088577D01*
X119144803Y-94091927D01*
X119204591Y-94180732D01*
X119211387Y-94187856D01*
X119216995Y-94195940D01*
X119233767Y-94214373D01*
X119294613Y-94275219D01*
X119299535Y-94280259D01*
X119337889Y-94320464D01*
X119368645Y-94352705D01*
X119378812Y-94360269D01*
X119379362Y-94360756D01*
X119392663Y-94373269D01*
X123966893Y-98947499D01*
X123981298Y-98962960D01*
X124020090Y-99007664D01*
X124029876Y-99015688D01*
X124102823Y-99075501D01*
X124106032Y-99078170D01*
X124187785Y-99147134D01*
X124196270Y-99152122D01*
X124203880Y-99158362D01*
X124296802Y-99211256D01*
X124300415Y-99213347D01*
X124381756Y-99261165D01*
X124381762Y-99261168D01*
X124392676Y-99267584D01*
X124401884Y-99271073D01*
X124410433Y-99275939D01*
X124511030Y-99312455D01*
X124514817Y-99313860D01*
X124603089Y-99347303D01*
X124603092Y-99347304D01*
X124614933Y-99351790D01*
X124624595Y-99353677D01*
X124633844Y-99357034D01*
X124712934Y-99371335D01*
X124739055Y-99376059D01*
X124743147Y-99376828D01*
X124749926Y-99378152D01*
X124758298Y-99379787D01*
X124860437Y-99420301D01*
X124941045Y-99494977D01*
X124989233Y-99593729D01*
X125000000Y-99673245D01*
X125000000Y-101500000D01*
X127143964Y-101500000D01*
X127251975Y-101520191D01*
X127345399Y-101578036D01*
X127391989Y-101632014D01*
X127404591Y-101650732D01*
X127411387Y-101657856D01*
X127416995Y-101665940D01*
X127433767Y-101684373D01*
X127494613Y-101745219D01*
X127499535Y-101750259D01*
X127559205Y-101812809D01*
X127568645Y-101822705D01*
X127578812Y-101830269D01*
X127579362Y-101830756D01*
X127592663Y-101843269D01*
X127748400Y-101999006D01*
X127810498Y-102089659D01*
X127833304Y-102188156D01*
X127834578Y-102188015D01*
X127835737Y-102198512D01*
X127836152Y-102209083D01*
X127838052Y-102219484D01*
X127838052Y-102219488D01*
X127842156Y-102241959D01*
X127884505Y-102473843D01*
X127887852Y-102483875D01*
X127887853Y-102483879D01*
X127926552Y-102599873D01*
X127941583Y-102708722D01*
X127916277Y-102815651D01*
X127854053Y-102906217D01*
X127763315Y-102968190D01*
X127656316Y-102993200D01*
X127642921Y-102993500D01*
X125797956Y-102993500D01*
X125689945Y-102973309D01*
X125596521Y-102915464D01*
X125586531Y-102905925D01*
X124661429Y-101980823D01*
X124607650Y-101902314D01*
X124603721Y-101901196D01*
X124525575Y-101844969D01*
X116988075Y-94307469D01*
X116925977Y-94216816D01*
X116900819Y-94109853D01*
X116900500Y-94096044D01*
X116900500Y-78903956D01*
X116920691Y-78795945D01*
X116978536Y-78702521D01*
X116988075Y-78692531D01*
X122751371Y-72929235D01*
X125440918Y-72929235D01*
X125442735Y-72950640D01*
X125470354Y-73053714D01*
X125479251Y-73078158D01*
X125564349Y-73260652D01*
X125577354Y-73283177D01*
X125692854Y-73448128D01*
X125709564Y-73468042D01*
X125851958Y-73610436D01*
X125871872Y-73627146D01*
X125897476Y-73645074D01*
X125974372Y-73723566D01*
X126017722Y-73824536D01*
X126021669Y-73934347D01*
X125985681Y-74038169D01*
X125914619Y-74121980D01*
X125897476Y-74134926D01*
X125871872Y-74152854D01*
X125851958Y-74169564D01*
X125709564Y-74311958D01*
X125692854Y-74331872D01*
X125577354Y-74496823D01*
X125564349Y-74519348D01*
X125479251Y-74701842D01*
X125470354Y-74726286D01*
X125443036Y-74828239D01*
X125441263Y-74851215D01*
X125462411Y-74855000D01*
X126367292Y-74855000D01*
X126390966Y-74850575D01*
X126395000Y-74836397D01*
X126395000Y-73895865D01*
X126398833Y-73895865D01*
X126398787Y-73884135D01*
X126395000Y-73884135D01*
X126395000Y-72952708D01*
X126390575Y-72929034D01*
X126376397Y-72925000D01*
X125463573Y-72925000D01*
X125440918Y-72929235D01*
X122751371Y-72929235D01*
X124112531Y-71568075D01*
X124203184Y-71505977D01*
X124310147Y-71480819D01*
X124323956Y-71480500D01*
X125336505Y-71480500D01*
X125444516Y-71500691D01*
G37*
G04 #@! TD.AperFunction*
G04 #@! TD*
M02*
