M48
; DRILL file {KiCad (5.1.9)-1} date 03/30/21 00:22:40
; FORMAT={-:-/ absolute / inch / decimal}
; #@! TF.CreationDate,2021-03-30T00:22:40-03:00
; #@! TF.GenerationSoftware,Kicad,Pcbnew,(5.1.9)-1
; #@! TF.FileFunction,Plated,1,2,PTH
FMAT,2
INCH
T1C0.0315
T2C0.0394
T3C0.1260
%
G90
G05
T1
X4.8425Y-4.4685
X4.9606Y-3.4646
X4.9882Y-2.5591
X4.9882Y-2.6591
X4.9882Y-2.7591
X4.9882Y-2.8591
X4.9882Y-2.9591
X4.9882Y-3.0591
X4.9882Y-3.1591
X4.9882Y-3.2591
X4.9886Y-4.6457
X5.0591Y-3.4646
X5.0886Y-4.6457
X5.2425Y-4.4685
X5.2882Y-2.5591
X5.2882Y-2.6591
X5.2882Y-2.7591
X5.2882Y-2.8591
X5.2882Y-2.9591
X5.2882Y-3.0591
X5.2882Y-3.1591
X5.2882Y-3.2591
X6.5685Y-4.4685
X6.7205Y-4.6457
X6.7402Y-3.0512
X6.7402Y-3.2874
X6.8205Y-4.6457
X6.8386Y-3.0512
X6.8386Y-3.2874
X6.9685Y-4.4685
T2
X5.1075Y-4.0157
X5.2075Y-4.0157
X6.4961Y-2.8543
X6.563Y-2.622
X6.5709Y-3.0677
X6.5709Y-3.1677
X6.5709Y-3.2677
X6.6035Y-4.0157
X6.6811Y-2.622
X6.7035Y-4.0157
X6.7961Y-2.8543
X6.7992Y-2.622
X7.0866Y-2.2165
X7.4866Y-2.2165
T3
X5.0591Y-1.9685
X5.4528Y-1.9685
X5.9055Y-1.9685
X6.3583Y-1.9685
X6.752Y-1.9685
T0
M30
