%TF.GenerationSoftware,KiCad,Pcbnew,(6.0.11)*%
%TF.CreationDate,2024-03-11T20:00:13-03:00*%
%TF.ProjectId,bitmovel,6269746d-6f76-4656-9c2e-6b696361645f,rev?*%
%TF.SameCoordinates,Original*%
%TF.FileFunction,Legend,Top*%
%TF.FilePolarity,Positive*%
%FSLAX46Y46*%
G04 Gerber Fmt 4.6, Leading zero omitted, Abs format (unit mm)*
G04 Created by KiCad (PCBNEW (6.0.11)) date 2024-03-11 20:00:13*
%MOMM*%
%LPD*%
G01*
G04 APERTURE LIST*
%ADD10C,0.200000*%
%ADD11C,0.150000*%
%ADD12C,0.120000*%
%ADD13C,0.010000*%
G04 APERTURE END LIST*
D10*
X109230952Y-56014285D02*
X110930952Y-56014285D01*
X109230952Y-56742857D02*
X110121428Y-56742857D01*
X110283333Y-56661904D01*
X110364285Y-56500000D01*
X110364285Y-56257142D01*
X110283333Y-56095238D01*
X110202380Y-56014285D01*
X110364285Y-57309523D02*
X110364285Y-57957142D01*
X110930952Y-57552380D02*
X109473809Y-57552380D01*
X109311904Y-57633333D01*
X109230952Y-57795238D01*
X109230952Y-57957142D01*
X110364285Y-58280952D02*
X110364285Y-58928571D01*
X110930952Y-58523809D02*
X109473809Y-58523809D01*
X109311904Y-58604761D01*
X109230952Y-58766666D01*
X109230952Y-58928571D01*
X110364285Y-59495238D02*
X108664285Y-59495238D01*
X110283333Y-59495238D02*
X110364285Y-59657142D01*
X110364285Y-59980952D01*
X110283333Y-60142857D01*
X110202380Y-60223809D01*
X110040476Y-60304761D01*
X109554761Y-60304761D01*
X109392857Y-60223809D01*
X109311904Y-60142857D01*
X109230952Y-59980952D01*
X109230952Y-59657142D01*
X109311904Y-59495238D01*
X109311904Y-60952380D02*
X109230952Y-61114285D01*
X109230952Y-61438095D01*
X109311904Y-61600000D01*
X109473809Y-61680952D01*
X109554761Y-61680952D01*
X109716666Y-61600000D01*
X109797619Y-61438095D01*
X109797619Y-61195238D01*
X109878571Y-61033333D01*
X110040476Y-60952380D01*
X110121428Y-60952380D01*
X110283333Y-61033333D01*
X110364285Y-61195238D01*
X110364285Y-61438095D01*
X110283333Y-61600000D01*
X109392857Y-62409523D02*
X109311904Y-62490476D01*
X109230952Y-62409523D01*
X109311904Y-62328571D01*
X109392857Y-62409523D01*
X109230952Y-62409523D01*
X110283333Y-62409523D02*
X110202380Y-62490476D01*
X110121428Y-62409523D01*
X110202380Y-62328571D01*
X110283333Y-62409523D01*
X110121428Y-62409523D01*
X111011904Y-64433333D02*
X108826190Y-62976190D01*
X111011904Y-66214285D02*
X108826190Y-64757142D01*
X109311904Y-67428571D02*
X109230952Y-67266666D01*
X109230952Y-66942857D01*
X109311904Y-66780952D01*
X109473809Y-66700000D01*
X110121428Y-66700000D01*
X110283333Y-66780952D01*
X110364285Y-66942857D01*
X110364285Y-67266666D01*
X110283333Y-67428571D01*
X110121428Y-67509523D01*
X109959523Y-67509523D01*
X109797619Y-66700000D01*
X109311904Y-68157142D02*
X109230952Y-68319047D01*
X109230952Y-68642857D01*
X109311904Y-68804761D01*
X109473809Y-68885714D01*
X109554761Y-68885714D01*
X109716666Y-68804761D01*
X109797619Y-68642857D01*
X109797619Y-68400000D01*
X109878571Y-68238095D01*
X110040476Y-68157142D01*
X110121428Y-68157142D01*
X110283333Y-68238095D01*
X110364285Y-68400000D01*
X110364285Y-68642857D01*
X110283333Y-68804761D01*
X109311904Y-70342857D02*
X109230952Y-70180952D01*
X109230952Y-69857142D01*
X109311904Y-69695238D01*
X109392857Y-69614285D01*
X109554761Y-69533333D01*
X110040476Y-69533333D01*
X110202380Y-69614285D01*
X110283333Y-69695238D01*
X110364285Y-69857142D01*
X110364285Y-70180952D01*
X110283333Y-70342857D01*
X109230952Y-71314285D02*
X109311904Y-71152380D01*
X109392857Y-71071428D01*
X109554761Y-70990476D01*
X110040476Y-70990476D01*
X110202380Y-71071428D01*
X110283333Y-71152380D01*
X110364285Y-71314285D01*
X110364285Y-71557142D01*
X110283333Y-71719047D01*
X110202380Y-71800000D01*
X110040476Y-71880952D01*
X109554761Y-71880952D01*
X109392857Y-71800000D01*
X109311904Y-71719047D01*
X109230952Y-71557142D01*
X109230952Y-71314285D01*
X109230952Y-72852380D02*
X109311904Y-72690476D01*
X109473809Y-72609523D01*
X110930952Y-72609523D01*
X109230952Y-74228571D02*
X110121428Y-74228571D01*
X110283333Y-74147619D01*
X110364285Y-73985714D01*
X110364285Y-73661904D01*
X110283333Y-73500000D01*
X109311904Y-74228571D02*
X109230952Y-74066666D01*
X109230952Y-73661904D01*
X109311904Y-73500000D01*
X109473809Y-73419047D01*
X109635714Y-73419047D01*
X109797619Y-73500000D01*
X109878571Y-73661904D01*
X109878571Y-74066666D01*
X109959523Y-74228571D01*
X110364285Y-75766666D02*
X109230952Y-75766666D01*
X111011904Y-75361904D02*
X109797619Y-74957142D01*
X109797619Y-76009523D01*
X110364285Y-76657142D02*
X108664285Y-76657142D01*
X110283333Y-76657142D02*
X110364285Y-76819047D01*
X110364285Y-77142857D01*
X110283333Y-77304761D01*
X110202380Y-77385714D01*
X110040476Y-77466666D01*
X109554761Y-77466666D01*
X109392857Y-77385714D01*
X109311904Y-77304761D01*
X109230952Y-77142857D01*
X109230952Y-76819047D01*
X109311904Y-76657142D01*
X109230952Y-78438095D02*
X109311904Y-78276190D01*
X109392857Y-78195238D01*
X109554761Y-78114285D01*
X110040476Y-78114285D01*
X110202380Y-78195238D01*
X110283333Y-78276190D01*
X110364285Y-78438095D01*
X110364285Y-78680952D01*
X110283333Y-78842857D01*
X110202380Y-78923809D01*
X110040476Y-79004761D01*
X109554761Y-79004761D01*
X109392857Y-78923809D01*
X109311904Y-78842857D01*
X109230952Y-78680952D01*
X109230952Y-78438095D01*
X110364285Y-79733333D02*
X109230952Y-79733333D01*
X110202380Y-79733333D02*
X110283333Y-79814285D01*
X110364285Y-79976190D01*
X110364285Y-80219047D01*
X110283333Y-80380952D01*
X110121428Y-80461904D01*
X109230952Y-80461904D01*
X110364285Y-81028571D02*
X110364285Y-81676190D01*
X110930952Y-81271428D02*
X109473809Y-81271428D01*
X109311904Y-81352380D01*
X109230952Y-81514285D01*
X109230952Y-81676190D01*
X109230952Y-82485714D02*
X109311904Y-82323809D01*
X109392857Y-82242857D01*
X109554761Y-82161904D01*
X110040476Y-82161904D01*
X110202380Y-82242857D01*
X110283333Y-82323809D01*
X110364285Y-82485714D01*
X110364285Y-82728571D01*
X110283333Y-82890476D01*
X110202380Y-82971428D01*
X110040476Y-83052380D01*
X109554761Y-83052380D01*
X109392857Y-82971428D01*
X109311904Y-82890476D01*
X109230952Y-82728571D01*
X109230952Y-82485714D01*
X110364285Y-83619047D02*
X110364285Y-84509523D01*
X109230952Y-83619047D01*
X109230952Y-84509523D01*
X109311904Y-85804761D02*
X109230952Y-85642857D01*
X109230952Y-85319047D01*
X109311904Y-85157142D01*
X109473809Y-85076190D01*
X110121428Y-85076190D01*
X110283333Y-85157142D01*
X110364285Y-85319047D01*
X110364285Y-85642857D01*
X110283333Y-85804761D01*
X110121428Y-85885714D01*
X109959523Y-85885714D01*
X109797619Y-85076190D01*
X109230952Y-86614285D02*
X110364285Y-86614285D01*
X110040476Y-86614285D02*
X110202380Y-86695238D01*
X110283333Y-86776190D01*
X110364285Y-86938095D01*
X110364285Y-87100000D01*
X109230952Y-87909523D02*
X109311904Y-87747619D01*
X109392857Y-87666666D01*
X109554761Y-87585714D01*
X110040476Y-87585714D01*
X110202380Y-87666666D01*
X110283333Y-87747619D01*
X110364285Y-87909523D01*
X110364285Y-88152380D01*
X110283333Y-88314285D01*
X110202380Y-88395238D01*
X110040476Y-88476190D01*
X109554761Y-88476190D01*
X109392857Y-88395238D01*
X109311904Y-88314285D01*
X109230952Y-88152380D01*
X109230952Y-87909523D01*
X109392857Y-89204761D02*
X109311904Y-89285714D01*
X109230952Y-89204761D01*
X109311904Y-89123809D01*
X109392857Y-89204761D01*
X109230952Y-89204761D01*
X110364285Y-89771428D02*
X110364285Y-90419047D01*
X109230952Y-90014285D02*
X110688095Y-90014285D01*
X110850000Y-90095238D01*
X110930952Y-90257142D01*
X110930952Y-90419047D01*
X109311904Y-91633333D02*
X109230952Y-91471428D01*
X109230952Y-91147619D01*
X109311904Y-90985714D01*
X109473809Y-90904761D01*
X110121428Y-90904761D01*
X110283333Y-90985714D01*
X110364285Y-91147619D01*
X110364285Y-91471428D01*
X110283333Y-91633333D01*
X110121428Y-91714285D01*
X109959523Y-91714285D01*
X109797619Y-90904761D01*
X109311904Y-93090476D02*
X109230952Y-92928571D01*
X109230952Y-92604761D01*
X109311904Y-92442857D01*
X109473809Y-92361904D01*
X110121428Y-92361904D01*
X110283333Y-92442857D01*
X110364285Y-92604761D01*
X110364285Y-92928571D01*
X110283333Y-93090476D01*
X110121428Y-93171428D01*
X109959523Y-93171428D01*
X109797619Y-92361904D01*
X109392857Y-93900000D02*
X109311904Y-93980952D01*
X109230952Y-93900000D01*
X109311904Y-93819047D01*
X109392857Y-93900000D01*
X109230952Y-93900000D01*
X110364285Y-95438095D02*
X109230952Y-95438095D01*
X110364285Y-94709523D02*
X109473809Y-94709523D01*
X109311904Y-94790476D01*
X109230952Y-94952380D01*
X109230952Y-95195238D01*
X109311904Y-95357142D01*
X109392857Y-95438095D01*
X110364285Y-96247619D02*
X109230952Y-96247619D01*
X110202380Y-96247619D02*
X110283333Y-96328571D01*
X110364285Y-96490476D01*
X110364285Y-96733333D01*
X110283333Y-96895238D01*
X110121428Y-96976190D01*
X109230952Y-96976190D01*
X109230952Y-97785714D02*
X110364285Y-97785714D01*
X110930952Y-97785714D02*
X110850000Y-97704761D01*
X110769047Y-97785714D01*
X110850000Y-97866666D01*
X110930952Y-97785714D01*
X110769047Y-97785714D01*
X109311904Y-99323809D02*
X109230952Y-99161904D01*
X109230952Y-98838095D01*
X109311904Y-98676190D01*
X109392857Y-98595238D01*
X109554761Y-98514285D01*
X110040476Y-98514285D01*
X110202380Y-98595238D01*
X110283333Y-98676190D01*
X110364285Y-98838095D01*
X110364285Y-99161904D01*
X110283333Y-99323809D01*
X109230952Y-100780952D02*
X110121428Y-100780952D01*
X110283333Y-100700000D01*
X110364285Y-100538095D01*
X110364285Y-100214285D01*
X110283333Y-100052380D01*
X109311904Y-100780952D02*
X109230952Y-100619047D01*
X109230952Y-100214285D01*
X109311904Y-100052380D01*
X109473809Y-99971428D01*
X109635714Y-99971428D01*
X109797619Y-100052380D01*
X109878571Y-100214285D01*
X109878571Y-100619047D01*
X109959523Y-100780952D01*
X109230952Y-101590476D02*
X110364285Y-101590476D01*
X110202380Y-101590476D02*
X110283333Y-101671428D01*
X110364285Y-101833333D01*
X110364285Y-102076190D01*
X110283333Y-102238095D01*
X110121428Y-102319047D01*
X109230952Y-102319047D01*
X110121428Y-102319047D02*
X110283333Y-102400000D01*
X110364285Y-102561904D01*
X110364285Y-102804761D01*
X110283333Y-102966666D01*
X110121428Y-103047619D01*
X109230952Y-103047619D01*
X110364285Y-103857142D02*
X108664285Y-103857142D01*
X110283333Y-103857142D02*
X110364285Y-104019047D01*
X110364285Y-104342857D01*
X110283333Y-104504761D01*
X110202380Y-104585714D01*
X110040476Y-104666666D01*
X109554761Y-104666666D01*
X109392857Y-104585714D01*
X109311904Y-104504761D01*
X109230952Y-104342857D01*
X109230952Y-104019047D01*
X109311904Y-103857142D01*
X109392857Y-105395238D02*
X109311904Y-105476190D01*
X109230952Y-105395238D01*
X109311904Y-105314285D01*
X109392857Y-105395238D01*
X109230952Y-105395238D01*
X109230952Y-106204761D02*
X110930952Y-106204761D01*
X110283333Y-106204761D02*
X110364285Y-106366666D01*
X110364285Y-106690476D01*
X110283333Y-106852380D01*
X110202380Y-106933333D01*
X110040476Y-107014285D01*
X109554761Y-107014285D01*
X109392857Y-106933333D01*
X109311904Y-106852380D01*
X109230952Y-106690476D01*
X109230952Y-106366666D01*
X109311904Y-106204761D01*
X109230952Y-107742857D02*
X110364285Y-107742857D01*
X110040476Y-107742857D02*
X110202380Y-107823809D01*
X110283333Y-107904761D01*
X110364285Y-108066666D01*
X110364285Y-108228571D01*
X187662801Y-117039106D02*
X188942328Y-117645198D01*
X188336236Y-116365671D01*
X188470923Y-115557549D02*
X188470923Y-115422862D01*
X188538267Y-115220832D01*
X188874984Y-114884114D01*
X189077015Y-114816771D01*
X189211702Y-114816771D01*
X189413732Y-114884114D01*
X189548419Y-115018801D01*
X189683106Y-115288175D01*
X189683106Y-116904419D01*
X190558572Y-116028954D01*
D11*
X127073690Y-55904761D02*
X127073690Y-53904761D01*
X127835595Y-53904761D01*
X128026071Y-54000000D01*
X128121309Y-54095238D01*
X128216547Y-54285714D01*
X128216547Y-54571428D01*
X128121309Y-54761904D01*
X128026071Y-54857142D01*
X127835595Y-54952380D01*
X127073690Y-54952380D01*
X129454642Y-53904761D02*
X129645119Y-53904761D01*
X129835595Y-54000000D01*
X129930833Y-54095238D01*
X130026071Y-54285714D01*
X130121309Y-54666666D01*
X130121309Y-55142857D01*
X130026071Y-55523809D01*
X129930833Y-55714285D01*
X129835595Y-55809523D01*
X129645119Y-55904761D01*
X129454642Y-55904761D01*
X129264166Y-55809523D01*
X129168928Y-55714285D01*
X129073690Y-55523809D01*
X128978452Y-55142857D01*
X128978452Y-54666666D01*
X129073690Y-54285714D01*
X129168928Y-54095238D01*
X129264166Y-54000000D01*
X129454642Y-53904761D01*
X137073690Y-55904761D02*
X137073690Y-53904761D01*
X137835595Y-53904761D01*
X138026071Y-54000000D01*
X138121309Y-54095238D01*
X138216547Y-54285714D01*
X138216547Y-54571428D01*
X138121309Y-54761904D01*
X138026071Y-54857142D01*
X137835595Y-54952380D01*
X137073690Y-54952380D01*
X140121309Y-55904761D02*
X138978452Y-55904761D01*
X139549880Y-55904761D02*
X139549880Y-53904761D01*
X139359404Y-54190476D01*
X139168928Y-54380952D01*
X138978452Y-54476190D01*
X148597500Y-55904761D02*
X148597500Y-53904761D01*
X149359404Y-53904761D01*
X149549880Y-54000000D01*
X149645119Y-54095238D01*
X149740357Y-54285714D01*
X149740357Y-54571428D01*
X149645119Y-54761904D01*
X149549880Y-54857142D01*
X149359404Y-54952380D01*
X148597500Y-54952380D01*
X150502261Y-54095238D02*
X150597500Y-54000000D01*
X150787976Y-53904761D01*
X151264166Y-53904761D01*
X151454642Y-54000000D01*
X151549880Y-54095238D01*
X151645119Y-54285714D01*
X151645119Y-54476190D01*
X151549880Y-54761904D01*
X150407023Y-55904761D01*
X151645119Y-55904761D01*
X159930833Y-53904761D02*
X161168928Y-53904761D01*
X160502261Y-54666666D01*
X160787976Y-54666666D01*
X160978452Y-54761904D01*
X161073690Y-54857142D01*
X161168928Y-55047619D01*
X161168928Y-55523809D01*
X161073690Y-55714285D01*
X160978452Y-55809523D01*
X160787976Y-55904761D01*
X160216547Y-55904761D01*
X160026071Y-55809523D01*
X159930833Y-55714285D01*
X161740357Y-53904761D02*
X162407023Y-55904761D01*
X163073690Y-53904761D01*
X169359404Y-54000000D02*
X169168928Y-53904761D01*
X168883214Y-53904761D01*
X168597500Y-54000000D01*
X168407023Y-54190476D01*
X168311785Y-54380952D01*
X168216547Y-54761904D01*
X168216547Y-55047619D01*
X168311785Y-55428571D01*
X168407023Y-55619047D01*
X168597500Y-55809523D01*
X168883214Y-55904761D01*
X169073690Y-55904761D01*
X169359404Y-55809523D01*
X169454642Y-55714285D01*
X169454642Y-55047619D01*
X169073690Y-55047619D01*
X170311785Y-55904761D02*
X170311785Y-53904761D01*
X171454642Y-55904761D01*
X171454642Y-53904761D01*
X172407023Y-55904761D02*
X172407023Y-53904761D01*
X172883214Y-53904761D01*
X173168928Y-54000000D01*
X173359404Y-54190476D01*
X173454642Y-54380952D01*
X173549880Y-54761904D01*
X173549880Y-55047619D01*
X173454642Y-55428571D01*
X173359404Y-55619047D01*
X173168928Y-55809523D01*
X172883214Y-55904761D01*
X172407023Y-55904761D01*
D10*
%TO.C,R1*%
X171850000Y-110678571D02*
X171350000Y-109964285D01*
X170992857Y-110678571D02*
X170992857Y-109178571D01*
X171564285Y-109178571D01*
X171707142Y-109250000D01*
X171778571Y-109321428D01*
X171850000Y-109464285D01*
X171850000Y-109678571D01*
X171778571Y-109821428D01*
X171707142Y-109892857D01*
X171564285Y-109964285D01*
X170992857Y-109964285D01*
X173278571Y-110678571D02*
X172421428Y-110678571D01*
X172850000Y-110678571D02*
X172850000Y-109178571D01*
X172707142Y-109392857D01*
X172564285Y-109535714D01*
X172421428Y-109607142D01*
%TO.C,U2*%
X129367142Y-61678571D02*
X129367142Y-62892857D01*
X129438571Y-63035714D01*
X129510000Y-63107142D01*
X129652857Y-63178571D01*
X129938571Y-63178571D01*
X130081428Y-63107142D01*
X130152857Y-63035714D01*
X130224285Y-62892857D01*
X130224285Y-61678571D01*
X130867142Y-61821428D02*
X130938571Y-61750000D01*
X131081428Y-61678571D01*
X131438571Y-61678571D01*
X131581428Y-61750000D01*
X131652857Y-61821428D01*
X131724285Y-61964285D01*
X131724285Y-62107142D01*
X131652857Y-62321428D01*
X130795714Y-63178571D01*
X131724285Y-63178571D01*
%TO.C,REF\u002A\u002A*%
X126785714Y-99178571D02*
X126785714Y-98178571D01*
X126785714Y-98321428D02*
X126857142Y-98250000D01*
X127000000Y-98178571D01*
X127214285Y-98178571D01*
X127357142Y-98250000D01*
X127428571Y-98392857D01*
X127428571Y-99178571D01*
X127428571Y-98392857D02*
X127500000Y-98250000D01*
X127642857Y-98178571D01*
X127857142Y-98178571D01*
X128000000Y-98250000D01*
X128071428Y-98392857D01*
X128071428Y-99178571D01*
X129000000Y-99178571D02*
X128857142Y-99107142D01*
X128785714Y-99035714D01*
X128714285Y-98892857D01*
X128714285Y-98464285D01*
X128785714Y-98321428D01*
X128857142Y-98250000D01*
X129000000Y-98178571D01*
X129214285Y-98178571D01*
X129357142Y-98250000D01*
X129428571Y-98321428D01*
X129500000Y-98464285D01*
X129500000Y-98892857D01*
X129428571Y-99035714D01*
X129357142Y-99107142D01*
X129214285Y-99178571D01*
X129000000Y-99178571D01*
X129928571Y-98178571D02*
X130500000Y-98178571D01*
X130142857Y-97678571D02*
X130142857Y-98964285D01*
X130214285Y-99107142D01*
X130357142Y-99178571D01*
X130500000Y-99178571D01*
X131214285Y-99178571D02*
X131071428Y-99107142D01*
X131000000Y-99035714D01*
X130928571Y-98892857D01*
X130928571Y-98464285D01*
X131000000Y-98321428D01*
X131071428Y-98250000D01*
X131214285Y-98178571D01*
X131428571Y-98178571D01*
X131571428Y-98250000D01*
X131642857Y-98321428D01*
X131714285Y-98464285D01*
X131714285Y-98892857D01*
X131642857Y-99035714D01*
X131571428Y-99107142D01*
X131428571Y-99178571D01*
X131214285Y-99178571D01*
X132357142Y-99178571D02*
X132357142Y-98178571D01*
X132357142Y-98464285D02*
X132428571Y-98321428D01*
X132500000Y-98250000D01*
X132642857Y-98178571D01*
X132785714Y-98178571D01*
X134428571Y-99178571D02*
X134428571Y-97678571D01*
X134785714Y-97678571D01*
X135000000Y-97750000D01*
X135142857Y-97892857D01*
X135214285Y-98035714D01*
X135285714Y-98321428D01*
X135285714Y-98535714D01*
X135214285Y-98821428D01*
X135142857Y-98964285D01*
X135000000Y-99107142D01*
X134785714Y-99178571D01*
X134428571Y-99178571D01*
X164857142Y-99178571D02*
X164857142Y-98178571D01*
X164857142Y-98321428D02*
X164928571Y-98250000D01*
X165071428Y-98178571D01*
X165285714Y-98178571D01*
X165428571Y-98250000D01*
X165500000Y-98392857D01*
X165500000Y-99178571D01*
X165500000Y-98392857D02*
X165571428Y-98250000D01*
X165714285Y-98178571D01*
X165928571Y-98178571D01*
X166071428Y-98250000D01*
X166142857Y-98392857D01*
X166142857Y-99178571D01*
X167071428Y-99178571D02*
X166928571Y-99107142D01*
X166857142Y-99035714D01*
X166785714Y-98892857D01*
X166785714Y-98464285D01*
X166857142Y-98321428D01*
X166928571Y-98250000D01*
X167071428Y-98178571D01*
X167285714Y-98178571D01*
X167428571Y-98250000D01*
X167500000Y-98321428D01*
X167571428Y-98464285D01*
X167571428Y-98892857D01*
X167500000Y-99035714D01*
X167428571Y-99107142D01*
X167285714Y-99178571D01*
X167071428Y-99178571D01*
X168000000Y-98178571D02*
X168571428Y-98178571D01*
X168214285Y-97678571D02*
X168214285Y-98964285D01*
X168285714Y-99107142D01*
X168428571Y-99178571D01*
X168571428Y-99178571D01*
X169285714Y-99178571D02*
X169142857Y-99107142D01*
X169071428Y-99035714D01*
X169000000Y-98892857D01*
X169000000Y-98464285D01*
X169071428Y-98321428D01*
X169142857Y-98250000D01*
X169285714Y-98178571D01*
X169500000Y-98178571D01*
X169642857Y-98250000D01*
X169714285Y-98321428D01*
X169785714Y-98464285D01*
X169785714Y-98892857D01*
X169714285Y-99035714D01*
X169642857Y-99107142D01*
X169500000Y-99178571D01*
X169285714Y-99178571D01*
X170428571Y-99178571D02*
X170428571Y-98178571D01*
X170428571Y-98464285D02*
X170500000Y-98321428D01*
X170571428Y-98250000D01*
X170714285Y-98178571D01*
X170857142Y-98178571D01*
X172500000Y-98392857D02*
X173000000Y-98392857D01*
X173214285Y-99178571D02*
X172500000Y-99178571D01*
X172500000Y-97678571D01*
X173214285Y-97678571D01*
%TO.C,U1*%
X164857142Y-85928571D02*
X164857142Y-87142857D01*
X164928571Y-87285714D01*
X165000000Y-87357142D01*
X165142857Y-87428571D01*
X165428571Y-87428571D01*
X165571428Y-87357142D01*
X165642857Y-87285714D01*
X165714285Y-87142857D01*
X165714285Y-85928571D01*
X167214285Y-87428571D02*
X166357142Y-87428571D01*
X166785714Y-87428571D02*
X166785714Y-85928571D01*
X166642857Y-86142857D01*
X166500000Y-86285714D01*
X166357142Y-86357142D01*
%TO.C,SW1*%
X168200000Y-63107142D02*
X168414285Y-63178571D01*
X168771428Y-63178571D01*
X168914285Y-63107142D01*
X168985714Y-63035714D01*
X169057142Y-62892857D01*
X169057142Y-62750000D01*
X168985714Y-62607142D01*
X168914285Y-62535714D01*
X168771428Y-62464285D01*
X168485714Y-62392857D01*
X168342857Y-62321428D01*
X168271428Y-62250000D01*
X168200000Y-62107142D01*
X168200000Y-61964285D01*
X168271428Y-61821428D01*
X168342857Y-61750000D01*
X168485714Y-61678571D01*
X168842857Y-61678571D01*
X169057142Y-61750000D01*
X169557142Y-61678571D02*
X169914285Y-63178571D01*
X170200000Y-62107142D01*
X170485714Y-63178571D01*
X170842857Y-61678571D01*
X172200000Y-63178571D02*
X171342857Y-63178571D01*
X171771428Y-63178571D02*
X171771428Y-61678571D01*
X171628571Y-61892857D01*
X171485714Y-62035714D01*
X171342857Y-62107142D01*
%TO.C,D3*%
X175678571Y-73357142D02*
X174178571Y-73357142D01*
X174178571Y-73000000D01*
X174250000Y-72785714D01*
X174392857Y-72642857D01*
X174535714Y-72571428D01*
X174821428Y-72500000D01*
X175035714Y-72500000D01*
X175321428Y-72571428D01*
X175464285Y-72642857D01*
X175607142Y-72785714D01*
X175678571Y-73000000D01*
X175678571Y-73357142D01*
X174178571Y-72000000D02*
X174178571Y-71071428D01*
X174750000Y-71571428D01*
X174750000Y-71357142D01*
X174821428Y-71214285D01*
X174892857Y-71142857D01*
X175035714Y-71071428D01*
X175392857Y-71071428D01*
X175535714Y-71142857D01*
X175607142Y-71214285D01*
X175678571Y-71357142D01*
X175678571Y-71785714D01*
X175607142Y-71928571D01*
X175535714Y-72000000D01*
X162827142Y-73178571D02*
X162827142Y-71678571D01*
X163684285Y-73178571D02*
X163041428Y-72321428D01*
X163684285Y-71678571D02*
X162827142Y-72535714D01*
%TO.C,C1*%
X176735714Y-77750000D02*
X176807142Y-77821428D01*
X176878571Y-78035714D01*
X176878571Y-78178571D01*
X176807142Y-78392857D01*
X176664285Y-78535714D01*
X176521428Y-78607142D01*
X176235714Y-78678571D01*
X176021428Y-78678571D01*
X175735714Y-78607142D01*
X175592857Y-78535714D01*
X175450000Y-78392857D01*
X175378571Y-78178571D01*
X175378571Y-78035714D01*
X175450000Y-77821428D01*
X175521428Y-77750000D01*
X176878571Y-76321428D02*
X176878571Y-77178571D01*
X176878571Y-76750000D02*
X175378571Y-76750000D01*
X175592857Y-76892857D01*
X175735714Y-77035714D01*
X175807142Y-77178571D01*
%TO.C,C2*%
X176735714Y-83750000D02*
X176807142Y-83821428D01*
X176878571Y-84035714D01*
X176878571Y-84178571D01*
X176807142Y-84392857D01*
X176664285Y-84535714D01*
X176521428Y-84607142D01*
X176235714Y-84678571D01*
X176021428Y-84678571D01*
X175735714Y-84607142D01*
X175592857Y-84535714D01*
X175450000Y-84392857D01*
X175378571Y-84178571D01*
X175378571Y-84035714D01*
X175450000Y-83821428D01*
X175521428Y-83750000D01*
X175521428Y-83178571D02*
X175450000Y-83107142D01*
X175378571Y-82964285D01*
X175378571Y-82607142D01*
X175450000Y-82464285D01*
X175521428Y-82392857D01*
X175664285Y-82321428D01*
X175807142Y-82321428D01*
X176021428Y-82392857D01*
X176878571Y-83250000D01*
X176878571Y-82321428D01*
%TO.C,C3*%
X131535714Y-88250000D02*
X131607142Y-88321428D01*
X131678571Y-88535714D01*
X131678571Y-88678571D01*
X131607142Y-88892857D01*
X131464285Y-89035714D01*
X131321428Y-89107142D01*
X131035714Y-89178571D01*
X130821428Y-89178571D01*
X130535714Y-89107142D01*
X130392857Y-89035714D01*
X130250000Y-88892857D01*
X130178571Y-88678571D01*
X130178571Y-88535714D01*
X130250000Y-88321428D01*
X130321428Y-88250000D01*
X130178571Y-87750000D02*
X130178571Y-86821428D01*
X130750000Y-87321428D01*
X130750000Y-87107142D01*
X130821428Y-86964285D01*
X130892857Y-86892857D01*
X131035714Y-86821428D01*
X131392857Y-86821428D01*
X131535714Y-86892857D01*
X131607142Y-86964285D01*
X131678571Y-87107142D01*
X131678571Y-87535714D01*
X131607142Y-87678571D01*
X131535714Y-87750000D01*
%TO.C,J1*%
X185100000Y-44778571D02*
X185100000Y-45850000D01*
X185028571Y-46064285D01*
X184885714Y-46207142D01*
X184671428Y-46278571D01*
X184528571Y-46278571D01*
X186600000Y-46278571D02*
X185742857Y-46278571D01*
X186171428Y-46278571D02*
X186171428Y-44778571D01*
X186028571Y-44992857D01*
X185885714Y-45135714D01*
X185742857Y-45207142D01*
X189398095Y-59242857D02*
X190921904Y-59242857D01*
X190160000Y-60004761D02*
X190160000Y-58480952D01*
X179238095Y-59242857D02*
X180761904Y-59242857D01*
D11*
X182640476Y-58982142D02*
X182640476Y-59815476D01*
X182342857Y-58505952D02*
X182045238Y-59398809D01*
X182819047Y-59398809D01*
X183295238Y-59696428D02*
X183354761Y-59755952D01*
X183295238Y-59815476D01*
X183235714Y-59755952D01*
X183295238Y-59696428D01*
X183295238Y-59815476D01*
X184485714Y-58565476D02*
X183890476Y-58565476D01*
X183830952Y-59160714D01*
X183890476Y-59101190D01*
X184009523Y-59041666D01*
X184307142Y-59041666D01*
X184426190Y-59101190D01*
X184485714Y-59160714D01*
X184545238Y-59279761D01*
X184545238Y-59577380D01*
X184485714Y-59696428D01*
X184426190Y-59755952D01*
X184307142Y-59815476D01*
X184009523Y-59815476D01*
X183890476Y-59755952D01*
X183830952Y-59696428D01*
X185080952Y-59339285D02*
X186033333Y-59339285D01*
X186509523Y-58565476D02*
X187342857Y-58565476D01*
X186807142Y-59815476D01*
X187640476Y-58565476D02*
X188057142Y-59815476D01*
X188473809Y-58565476D01*
D10*
%TO.C,D1*%
X177078571Y-119207142D02*
X175578571Y-119207142D01*
X175578571Y-118850000D01*
X175650000Y-118635714D01*
X175792857Y-118492857D01*
X175935714Y-118421428D01*
X176221428Y-118350000D01*
X176435714Y-118350000D01*
X176721428Y-118421428D01*
X176864285Y-118492857D01*
X177007142Y-118635714D01*
X177078571Y-118850000D01*
X177078571Y-119207142D01*
X177078571Y-116921428D02*
X177078571Y-117778571D01*
X177078571Y-117350000D02*
X175578571Y-117350000D01*
X175792857Y-117492857D01*
X175935714Y-117635714D01*
X176007142Y-117778571D01*
X168207142Y-118678571D02*
X168207142Y-117178571D01*
X169064285Y-118678571D02*
X168421428Y-117821428D01*
X169064285Y-117178571D02*
X168207142Y-118035714D01*
%TO.C,R2*%
X127687600Y-110678571D02*
X127187600Y-109964285D01*
X126830457Y-110678571D02*
X126830457Y-109178571D01*
X127401885Y-109178571D01*
X127544742Y-109250000D01*
X127616171Y-109321428D01*
X127687600Y-109464285D01*
X127687600Y-109678571D01*
X127616171Y-109821428D01*
X127544742Y-109892857D01*
X127401885Y-109964285D01*
X126830457Y-109964285D01*
X128259028Y-109321428D02*
X128330457Y-109250000D01*
X128473314Y-109178571D01*
X128830457Y-109178571D01*
X128973314Y-109250000D01*
X129044742Y-109321428D01*
X129116171Y-109464285D01*
X129116171Y-109607142D01*
X129044742Y-109821428D01*
X128187600Y-110678571D01*
X129116171Y-110678571D01*
%TO.C,D2*%
X124228571Y-119007142D02*
X122728571Y-119007142D01*
X122728571Y-118650000D01*
X122800000Y-118435714D01*
X122942857Y-118292857D01*
X123085714Y-118221428D01*
X123371428Y-118150000D01*
X123585714Y-118150000D01*
X123871428Y-118221428D01*
X124014285Y-118292857D01*
X124157142Y-118435714D01*
X124228571Y-118650000D01*
X124228571Y-119007142D01*
X122871428Y-117578571D02*
X122800000Y-117507142D01*
X122728571Y-117364285D01*
X122728571Y-117007142D01*
X122800000Y-116864285D01*
X122871428Y-116792857D01*
X123014285Y-116721428D01*
X123157142Y-116721428D01*
X123371428Y-116792857D01*
X124228571Y-117650000D01*
X124228571Y-116721428D01*
X130957142Y-118678571D02*
X130957142Y-117178571D01*
X131814285Y-118678571D02*
X131171428Y-117821428D01*
X131814285Y-117178571D02*
X130957142Y-118035714D01*
D11*
%TO.C,J6*%
X136194752Y-118927571D02*
X135432847Y-118927571D01*
X135813800Y-118546619D02*
X135813800Y-119308523D01*
D10*
X136461428Y-116428057D02*
X135318571Y-116428057D01*
%TO.C,J9*%
X163461771Y-116439142D02*
X164604628Y-116439142D01*
D11*
X163901428Y-119405352D02*
X163901428Y-118643447D01*
X164282380Y-119024400D02*
X163520476Y-119024400D01*
D12*
%TO.C,R1*%
X175190000Y-111130000D02*
X168650000Y-111130000D01*
X168650000Y-113870000D02*
X175190000Y-113870000D01*
X175960000Y-112500000D02*
X175190000Y-112500000D01*
X168650000Y-111130000D02*
X168650000Y-113870000D01*
X175190000Y-113870000D02*
X175190000Y-111130000D01*
X167880000Y-112500000D02*
X168650000Y-112500000D01*
%TO.C,J2*%
X127000000Y-57000000D02*
X173000000Y-57000000D01*
X176000000Y-54000000D02*
X176000000Y-45000000D01*
X124000000Y-54000000D02*
X124000000Y-45000000D01*
X173000000Y-57000000D02*
G75*
G03*
X176000000Y-54000000I0J3000000D01*
G01*
X124000000Y-54000000D02*
G75*
G03*
X127000000Y-57000000I3000001J1D01*
G01*
%TO.C,U2*%
X125370000Y-84170000D02*
X135650000Y-84170000D01*
X133160000Y-84110000D02*
X133160000Y-63670000D01*
X135650000Y-63610000D02*
X125370000Y-63610000D01*
X133160000Y-63670000D02*
X131510000Y-63670000D01*
X135650000Y-84170000D02*
X135650000Y-63610000D01*
X125370000Y-63610000D02*
X125370000Y-84170000D01*
X127860000Y-84110000D02*
X133160000Y-84110000D01*
X129510000Y-63670000D02*
X127860000Y-63670000D01*
X127860000Y-63670000D02*
X127860000Y-84110000D01*
X129510000Y-63670000D02*
G75*
G03*
X131510000Y-63670000I1000000J0D01*
G01*
%TO.C,G\u002A\u002A\u002A*%
G36*
X150529072Y-103189737D02*
G01*
X150671462Y-103021359D01*
X150680358Y-103012293D01*
X150823902Y-102883757D01*
X150968978Y-102788768D01*
X151120685Y-102724764D01*
X151284125Y-102689181D01*
X151334106Y-102683841D01*
X151514335Y-102686207D01*
X151689173Y-102722777D01*
X151856103Y-102791582D01*
X152012606Y-102890654D01*
X152156163Y-103018023D01*
X152284254Y-103171723D01*
X152394362Y-103349785D01*
X152483968Y-103550240D01*
X152499924Y-103594936D01*
X152557695Y-103813591D01*
X152588357Y-104046595D01*
X152592170Y-104285742D01*
X152569392Y-104522825D01*
X152520280Y-104749638D01*
X152457952Y-104928392D01*
X152368885Y-105108907D01*
X152260693Y-105267486D01*
X152133514Y-105408293D01*
X151998949Y-105527452D01*
X151865114Y-105616196D01*
X151724214Y-105679382D01*
X151670386Y-105696770D01*
X151572204Y-105715884D01*
X151454356Y-105724230D01*
X151331201Y-105721948D01*
X151217097Y-105709176D01*
X151142487Y-105691661D01*
X150956798Y-105613601D01*
X150788833Y-105504555D01*
X150639582Y-105365733D01*
X150510037Y-105198347D01*
X150401191Y-105003609D01*
X150314034Y-104782730D01*
X150269306Y-104624990D01*
X150246224Y-104495834D01*
X150232605Y-104344070D01*
X150228563Y-104182152D01*
X150234214Y-104022535D01*
X150249673Y-103877673D01*
X150261772Y-103811643D01*
X150326411Y-103580708D01*
X150327439Y-103578312D01*
X150728420Y-103578312D01*
X150831389Y-103543314D01*
X150959374Y-103517963D01*
X151094372Y-103523641D01*
X151225958Y-103559556D01*
X151263269Y-103576136D01*
X151347334Y-103630166D01*
X151434805Y-103708062D01*
X151516187Y-103799775D01*
X151581982Y-103895258D01*
X151603848Y-103936510D01*
X151661403Y-104094081D01*
X151695866Y-104268478D01*
X151705811Y-104447420D01*
X151689815Y-104618626D01*
X151685527Y-104640786D01*
X151656753Y-104739193D01*
X151611512Y-104848397D01*
X151556567Y-104954382D01*
X151498679Y-105043135D01*
X151480427Y-105065853D01*
X151417059Y-105128404D01*
X151340593Y-105187540D01*
X151262834Y-105235135D01*
X151195587Y-105263064D01*
X151192893Y-105263754D01*
X151152986Y-105278872D01*
X151148320Y-105296249D01*
X151179196Y-105316469D01*
X151229179Y-105334924D01*
X151354442Y-105357514D01*
X151488752Y-105351057D01*
X151620874Y-105316597D01*
X151673841Y-105293615D01*
X151804699Y-105209787D01*
X151923702Y-105095341D01*
X152027085Y-104955032D01*
X152111081Y-104793614D01*
X152148873Y-104693883D01*
X152205590Y-104474687D01*
X152228488Y-104257994D01*
X152218129Y-104036087D01*
X152203747Y-103938053D01*
X152158246Y-103748100D01*
X152092732Y-103576990D01*
X152009712Y-103426602D01*
X151911696Y-103298815D01*
X151801190Y-103195507D01*
X151680704Y-103118559D01*
X151552745Y-103069847D01*
X151419821Y-103051253D01*
X151284440Y-103064654D01*
X151149111Y-103111930D01*
X151120546Y-103126547D01*
X151044687Y-103178244D01*
X150961682Y-103251763D01*
X150881364Y-103336860D01*
X150813564Y-103423287D01*
X150774757Y-103486872D01*
X150728420Y-103578312D01*
X150327439Y-103578312D01*
X150414783Y-103374796D01*
X150529072Y-103189737D01*
G37*
D13*
X150529072Y-103189737D02*
X150671462Y-103021359D01*
X150680358Y-103012293D01*
X150823902Y-102883757D01*
X150968978Y-102788768D01*
X151120685Y-102724764D01*
X151284125Y-102689181D01*
X151334106Y-102683841D01*
X151514335Y-102686207D01*
X151689173Y-102722777D01*
X151856103Y-102791582D01*
X152012606Y-102890654D01*
X152156163Y-103018023D01*
X152284254Y-103171723D01*
X152394362Y-103349785D01*
X152483968Y-103550240D01*
X152499924Y-103594936D01*
X152557695Y-103813591D01*
X152588357Y-104046595D01*
X152592170Y-104285742D01*
X152569392Y-104522825D01*
X152520280Y-104749638D01*
X152457952Y-104928392D01*
X152368885Y-105108907D01*
X152260693Y-105267486D01*
X152133514Y-105408293D01*
X151998949Y-105527452D01*
X151865114Y-105616196D01*
X151724214Y-105679382D01*
X151670386Y-105696770D01*
X151572204Y-105715884D01*
X151454356Y-105724230D01*
X151331201Y-105721948D01*
X151217097Y-105709176D01*
X151142487Y-105691661D01*
X150956798Y-105613601D01*
X150788833Y-105504555D01*
X150639582Y-105365733D01*
X150510037Y-105198347D01*
X150401191Y-105003609D01*
X150314034Y-104782730D01*
X150269306Y-104624990D01*
X150246224Y-104495834D01*
X150232605Y-104344070D01*
X150228563Y-104182152D01*
X150234214Y-104022535D01*
X150249673Y-103877673D01*
X150261772Y-103811643D01*
X150326411Y-103580708D01*
X150327439Y-103578312D01*
X150728420Y-103578312D01*
X150831389Y-103543314D01*
X150959374Y-103517963D01*
X151094372Y-103523641D01*
X151225958Y-103559556D01*
X151263269Y-103576136D01*
X151347334Y-103630166D01*
X151434805Y-103708062D01*
X151516187Y-103799775D01*
X151581982Y-103895258D01*
X151603848Y-103936510D01*
X151661403Y-104094081D01*
X151695866Y-104268478D01*
X151705811Y-104447420D01*
X151689815Y-104618626D01*
X151685527Y-104640786D01*
X151656753Y-104739193D01*
X151611512Y-104848397D01*
X151556567Y-104954382D01*
X151498679Y-105043135D01*
X151480427Y-105065853D01*
X151417059Y-105128404D01*
X151340593Y-105187540D01*
X151262834Y-105235135D01*
X151195587Y-105263064D01*
X151192893Y-105263754D01*
X151152986Y-105278872D01*
X151148320Y-105296249D01*
X151179196Y-105316469D01*
X151229179Y-105334924D01*
X151354442Y-105357514D01*
X151488752Y-105351057D01*
X151620874Y-105316597D01*
X151673841Y-105293615D01*
X151804699Y-105209787D01*
X151923702Y-105095341D01*
X152027085Y-104955032D01*
X152111081Y-104793614D01*
X152148873Y-104693883D01*
X152205590Y-104474687D01*
X152228488Y-104257994D01*
X152218129Y-104036087D01*
X152203747Y-103938053D01*
X152158246Y-103748100D01*
X152092732Y-103576990D01*
X152009712Y-103426602D01*
X151911696Y-103298815D01*
X151801190Y-103195507D01*
X151680704Y-103118559D01*
X151552745Y-103069847D01*
X151419821Y-103051253D01*
X151284440Y-103064654D01*
X151149111Y-103111930D01*
X151120546Y-103126547D01*
X151044687Y-103178244D01*
X150961682Y-103251763D01*
X150881364Y-103336860D01*
X150813564Y-103423287D01*
X150774757Y-103486872D01*
X150728420Y-103578312D01*
X150327439Y-103578312D01*
X150414783Y-103374796D01*
X150529072Y-103189737D01*
G36*
X147454667Y-103869226D02*
G01*
X147502895Y-103658983D01*
X147574444Y-103458795D01*
X147669111Y-103272447D01*
X147786694Y-103103720D01*
X147926990Y-102956398D01*
X148073086Y-102844860D01*
X148243836Y-102754354D01*
X148419901Y-102699592D01*
X148599939Y-102680651D01*
X148782605Y-102697607D01*
X148966558Y-102750534D01*
X149056572Y-102789533D01*
X149161872Y-102853495D01*
X149272394Y-102943722D01*
X149380699Y-103052473D01*
X149479345Y-103172009D01*
X149560893Y-103294589D01*
X149585632Y-103339929D01*
X149663756Y-103506441D01*
X149720717Y-103661801D01*
X149758954Y-103816667D01*
X149780908Y-103981699D01*
X149789017Y-104167556D01*
X149789116Y-104228929D01*
X149787465Y-104345485D01*
X149783409Y-104436307D01*
X149775801Y-104511926D01*
X149763493Y-104582874D01*
X149745339Y-104659679D01*
X149739979Y-104680174D01*
X149668022Y-104897214D01*
X149573279Y-105095144D01*
X149458111Y-105271247D01*
X149324880Y-105422803D01*
X149175946Y-105547096D01*
X149013672Y-105641407D01*
X148854624Y-105699357D01*
X148774347Y-105713496D01*
X148672394Y-105721333D01*
X148562852Y-105722702D01*
X148459809Y-105717431D01*
X148377352Y-105705354D01*
X148376249Y-105705098D01*
X148278582Y-105672473D01*
X148168478Y-105620003D01*
X148058159Y-105554461D01*
X147959846Y-105482623D01*
X147932784Y-105459291D01*
X147787131Y-105304771D01*
X147666424Y-105130046D01*
X147570459Y-104938899D01*
X147499034Y-104735113D01*
X147451945Y-104522470D01*
X147428989Y-104304753D01*
X147429098Y-104280082D01*
X147799529Y-104280082D01*
X147810914Y-104435997D01*
X147834534Y-104572871D01*
X147839075Y-104590733D01*
X147903386Y-104779608D01*
X147988698Y-104947634D01*
X148092559Y-105091791D01*
X148212519Y-105209056D01*
X148346127Y-105296408D01*
X148444904Y-105337632D01*
X148529568Y-105353572D01*
X148631176Y-105355685D01*
X148733480Y-105344806D01*
X148820235Y-105321773D01*
X148829786Y-105317815D01*
X148873379Y-105297771D01*
X148886930Y-105286328D01*
X148873802Y-105277915D01*
X148857000Y-105272728D01*
X148747099Y-105226339D01*
X148638442Y-105154925D01*
X148567491Y-105091512D01*
X148466023Y-104962280D01*
X148390546Y-104813386D01*
X148341076Y-104650506D01*
X148317629Y-104479316D01*
X148320222Y-104305491D01*
X148348870Y-104134708D01*
X148403592Y-103972643D01*
X148484402Y-103824970D01*
X148563567Y-103725544D01*
X148675339Y-103628880D01*
X148800133Y-103561071D01*
X148932399Y-103523733D01*
X149066583Y-103518482D01*
X149188108Y-103543770D01*
X149242629Y-103560251D01*
X149280384Y-103567746D01*
X149292429Y-103565419D01*
X149281419Y-103536914D01*
X149252127Y-103488604D01*
X149210164Y-103427992D01*
X149161138Y-103362586D01*
X149110659Y-103299890D01*
X149064336Y-103247408D01*
X149030271Y-103214649D01*
X148895953Y-103124825D01*
X148757330Y-103070462D01*
X148616921Y-103051378D01*
X148477245Y-103067395D01*
X148340821Y-103118334D01*
X148210166Y-103204015D01*
X148129035Y-103278766D01*
X148027782Y-103405330D01*
X147939518Y-103558841D01*
X147868613Y-103730997D01*
X147838820Y-103829786D01*
X147813477Y-103963807D01*
X147800381Y-104118295D01*
X147799529Y-104280082D01*
X147429098Y-104280082D01*
X147429965Y-104085744D01*
X147454667Y-103869226D01*
G37*
X147454667Y-103869226D02*
X147502895Y-103658983D01*
X147574444Y-103458795D01*
X147669111Y-103272447D01*
X147786694Y-103103720D01*
X147926990Y-102956398D01*
X148073086Y-102844860D01*
X148243836Y-102754354D01*
X148419901Y-102699592D01*
X148599939Y-102680651D01*
X148782605Y-102697607D01*
X148966558Y-102750534D01*
X149056572Y-102789533D01*
X149161872Y-102853495D01*
X149272394Y-102943722D01*
X149380699Y-103052473D01*
X149479345Y-103172009D01*
X149560893Y-103294589D01*
X149585632Y-103339929D01*
X149663756Y-103506441D01*
X149720717Y-103661801D01*
X149758954Y-103816667D01*
X149780908Y-103981699D01*
X149789017Y-104167556D01*
X149789116Y-104228929D01*
X149787465Y-104345485D01*
X149783409Y-104436307D01*
X149775801Y-104511926D01*
X149763493Y-104582874D01*
X149745339Y-104659679D01*
X149739979Y-104680174D01*
X149668022Y-104897214D01*
X149573279Y-105095144D01*
X149458111Y-105271247D01*
X149324880Y-105422803D01*
X149175946Y-105547096D01*
X149013672Y-105641407D01*
X148854624Y-105699357D01*
X148774347Y-105713496D01*
X148672394Y-105721333D01*
X148562852Y-105722702D01*
X148459809Y-105717431D01*
X148377352Y-105705354D01*
X148376249Y-105705098D01*
X148278582Y-105672473D01*
X148168478Y-105620003D01*
X148058159Y-105554461D01*
X147959846Y-105482623D01*
X147932784Y-105459291D01*
X147787131Y-105304771D01*
X147666424Y-105130046D01*
X147570459Y-104938899D01*
X147499034Y-104735113D01*
X147451945Y-104522470D01*
X147428989Y-104304753D01*
X147429098Y-104280082D01*
X147799529Y-104280082D01*
X147810914Y-104435997D01*
X147834534Y-104572871D01*
X147839075Y-104590733D01*
X147903386Y-104779608D01*
X147988698Y-104947634D01*
X148092559Y-105091791D01*
X148212519Y-105209056D01*
X148346127Y-105296408D01*
X148444904Y-105337632D01*
X148529568Y-105353572D01*
X148631176Y-105355685D01*
X148733480Y-105344806D01*
X148820235Y-105321773D01*
X148829786Y-105317815D01*
X148873379Y-105297771D01*
X148886930Y-105286328D01*
X148873802Y-105277915D01*
X148857000Y-105272728D01*
X148747099Y-105226339D01*
X148638442Y-105154925D01*
X148567491Y-105091512D01*
X148466023Y-104962280D01*
X148390546Y-104813386D01*
X148341076Y-104650506D01*
X148317629Y-104479316D01*
X148320222Y-104305491D01*
X148348870Y-104134708D01*
X148403592Y-103972643D01*
X148484402Y-103824970D01*
X148563567Y-103725544D01*
X148675339Y-103628880D01*
X148800133Y-103561071D01*
X148932399Y-103523733D01*
X149066583Y-103518482D01*
X149188108Y-103543770D01*
X149242629Y-103560251D01*
X149280384Y-103567746D01*
X149292429Y-103565419D01*
X149281419Y-103536914D01*
X149252127Y-103488604D01*
X149210164Y-103427992D01*
X149161138Y-103362586D01*
X149110659Y-103299890D01*
X149064336Y-103247408D01*
X149030271Y-103214649D01*
X148895953Y-103124825D01*
X148757330Y-103070462D01*
X148616921Y-103051378D01*
X148477245Y-103067395D01*
X148340821Y-103118334D01*
X148210166Y-103204015D01*
X148129035Y-103278766D01*
X148027782Y-103405330D01*
X147939518Y-103558841D01*
X147868613Y-103730997D01*
X147838820Y-103829786D01*
X147813477Y-103963807D01*
X147800381Y-104118295D01*
X147799529Y-104280082D01*
X147429098Y-104280082D01*
X147429965Y-104085744D01*
X147454667Y-103869226D01*
G36*
X146684767Y-109257237D02*
G01*
X146780345Y-109296215D01*
X146866222Y-109363840D01*
X146912050Y-109420568D01*
X146951980Y-109508045D01*
X146968833Y-109611473D01*
X146961471Y-109717899D01*
X146943728Y-109781077D01*
X146890068Y-109874270D01*
X146812138Y-109947349D01*
X146717389Y-109997231D01*
X146613276Y-110020833D01*
X146507253Y-110015075D01*
X146434929Y-109991484D01*
X146343260Y-109933236D01*
X146268092Y-109853973D01*
X146215432Y-109762162D01*
X146191284Y-109666273D01*
X146190399Y-109646677D01*
X146205117Y-109531735D01*
X146247326Y-109433789D01*
X146311711Y-109354501D01*
X146392961Y-109295538D01*
X146485762Y-109258563D01*
X146584802Y-109245241D01*
X146684767Y-109257237D01*
G37*
X146684767Y-109257237D02*
X146780345Y-109296215D01*
X146866222Y-109363840D01*
X146912050Y-109420568D01*
X146951980Y-109508045D01*
X146968833Y-109611473D01*
X146961471Y-109717899D01*
X146943728Y-109781077D01*
X146890068Y-109874270D01*
X146812138Y-109947349D01*
X146717389Y-109997231D01*
X146613276Y-110020833D01*
X146507253Y-110015075D01*
X146434929Y-109991484D01*
X146343260Y-109933236D01*
X146268092Y-109853973D01*
X146215432Y-109762162D01*
X146191284Y-109666273D01*
X146190399Y-109646677D01*
X146205117Y-109531735D01*
X146247326Y-109433789D01*
X146311711Y-109354501D01*
X146392961Y-109295538D01*
X146485762Y-109258563D01*
X146584802Y-109245241D01*
X146684767Y-109257237D01*
G36*
X145270194Y-108067181D02*
G01*
X145351224Y-107749972D01*
X145466674Y-107442546D01*
X145616320Y-107146175D01*
X145728238Y-106965433D01*
X145798661Y-106866493D01*
X145878922Y-106764904D01*
X145963632Y-106666517D01*
X146047402Y-106577186D01*
X146124842Y-106502762D01*
X146190564Y-106449098D01*
X146221750Y-106429497D01*
X146265372Y-106397779D01*
X146280444Y-106359054D01*
X146280715Y-106351338D01*
X146278926Y-106322481D01*
X146273845Y-106262081D01*
X146265900Y-106174689D01*
X146255520Y-106064857D01*
X146243133Y-105937137D01*
X146229168Y-105796079D01*
X146217863Y-105683744D01*
X146201288Y-105518897D01*
X146184460Y-105349193D01*
X146168113Y-105182215D01*
X146152984Y-105025547D01*
X146139807Y-104886771D01*
X146129317Y-104773468D01*
X146126035Y-104736929D01*
X146115766Y-104600767D01*
X146107447Y-104449520D01*
X146101189Y-104290140D01*
X146097105Y-104129577D01*
X146095901Y-104026008D01*
X146462143Y-104026008D01*
X146462583Y-104110733D01*
X146464095Y-104193646D01*
X146466970Y-104278734D01*
X146471498Y-104369983D01*
X146477969Y-104471379D01*
X146486673Y-104586909D01*
X146497899Y-104720559D01*
X146511939Y-104876316D01*
X146529082Y-105058166D01*
X146549618Y-105270095D01*
X146561395Y-105390072D01*
X146576576Y-105544457D01*
X146591128Y-105692878D01*
X146604539Y-105830074D01*
X146616296Y-105950789D01*
X146625887Y-106049764D01*
X146632799Y-106121742D01*
X146635868Y-106154309D01*
X146647807Y-106283547D01*
X146940511Y-106292946D01*
X147140673Y-106305230D01*
X147337134Y-106329950D01*
X147535234Y-106368544D01*
X147740311Y-106422447D01*
X147957703Y-106493096D01*
X148192750Y-106581929D01*
X148450791Y-106690382D01*
X148503215Y-106713482D01*
X148757215Y-106826149D01*
X148771097Y-106752182D01*
X148819266Y-106569340D01*
X148889762Y-106413783D01*
X148982070Y-106286205D01*
X149095675Y-106187298D01*
X149230062Y-106117755D01*
X149247072Y-106111586D01*
X149355026Y-106086659D01*
X149475993Y-106078977D01*
X149595983Y-106088202D01*
X149701005Y-106113997D01*
X149723512Y-106123098D01*
X149795106Y-106165651D01*
X149871535Y-106228000D01*
X149943652Y-106300887D01*
X150002307Y-106375055D01*
X150038352Y-106441246D01*
X150038617Y-106441973D01*
X150055911Y-106483060D01*
X150069619Y-106504287D01*
X150071681Y-106505114D01*
X150084247Y-106489697D01*
X150105948Y-106450841D01*
X150123079Y-106415954D01*
X150198599Y-106295244D01*
X150298160Y-106198689D01*
X150416936Y-106128460D01*
X150550102Y-106086725D01*
X150692832Y-106075653D01*
X150834867Y-106096010D01*
X150979283Y-106150577D01*
X151105205Y-106234538D01*
X151209772Y-106344542D01*
X151290125Y-106477238D01*
X151343402Y-106629275D01*
X151358742Y-106709708D01*
X151366189Y-106777551D01*
X151368724Y-106835263D01*
X151366186Y-106867896D01*
X151363030Y-106897351D01*
X151368033Y-106905000D01*
X151388194Y-106897342D01*
X151433108Y-106876731D01*
X151495206Y-106846711D01*
X151539077Y-106824897D01*
X151794815Y-106704135D01*
X152056803Y-106594857D01*
X152318989Y-106499008D01*
X152575320Y-106418533D01*
X152819744Y-106355375D01*
X153046209Y-106311480D01*
X153195087Y-106292864D01*
X153347357Y-106279072D01*
X153386899Y-105934358D01*
X153420272Y-105640674D01*
X153449202Y-105379613D01*
X153473968Y-105147820D01*
X153494848Y-104941940D01*
X153512123Y-104758620D01*
X153526069Y-104594503D01*
X153536967Y-104446235D01*
X153545095Y-104310463D01*
X153550731Y-104183831D01*
X153554155Y-104062984D01*
X153555645Y-103944569D01*
X153555762Y-103902358D01*
X153553967Y-103709534D01*
X153547925Y-103545111D01*
X153536893Y-103401373D01*
X153520122Y-103270604D01*
X153496868Y-103145089D01*
X153472452Y-103040726D01*
X153408364Y-102836770D01*
X153322238Y-102646882D01*
X153212888Y-102470311D01*
X153079126Y-102306307D01*
X152919766Y-102154120D01*
X152733621Y-102013000D01*
X152519504Y-101882198D01*
X152276229Y-101760961D01*
X152002608Y-101648542D01*
X151697455Y-101544189D01*
X151359583Y-101447152D01*
X150987805Y-101356681D01*
X150716529Y-101298834D01*
X150611323Y-101277086D01*
X150535124Y-101259669D01*
X150481271Y-101244236D01*
X150443104Y-101228444D01*
X150413965Y-101209946D01*
X150387192Y-101186398D01*
X150381519Y-101180860D01*
X150355639Y-101154156D01*
X150308126Y-101103905D01*
X150241916Y-101033258D01*
X150159947Y-100945370D01*
X150065158Y-100843391D01*
X149960485Y-100730476D01*
X149848866Y-100609777D01*
X149791358Y-100547479D01*
X149679905Y-100426895D01*
X149576030Y-100314931D01*
X149482308Y-100214335D01*
X149401315Y-100127851D01*
X149335629Y-100058227D01*
X149287825Y-100008207D01*
X149260480Y-99980537D01*
X149254986Y-99975808D01*
X149251015Y-99992110D01*
X149250919Y-100039083D01*
X149254223Y-100111374D01*
X149260449Y-100203631D01*
X149269122Y-100310502D01*
X149279765Y-100426633D01*
X149291902Y-100546671D01*
X149305056Y-100665265D01*
X149318752Y-100777061D01*
X149332512Y-100876707D01*
X149338752Y-100917109D01*
X149349296Y-100987053D01*
X149356175Y-101041746D01*
X149358366Y-101072601D01*
X149357731Y-101076318D01*
X149339203Y-101081098D01*
X149294526Y-101089879D01*
X149233388Y-101100986D01*
X149165479Y-101112745D01*
X149100489Y-101123481D01*
X149048106Y-101131522D01*
X149018021Y-101135192D01*
X149016599Y-101135255D01*
X149002619Y-101120332D01*
X148980930Y-101081852D01*
X148966931Y-101052129D01*
X148883263Y-100906722D01*
X148770088Y-100778578D01*
X148681976Y-100706636D01*
X148626436Y-100668569D01*
X148583019Y-100641747D01*
X148559253Y-100630730D01*
X148557202Y-100631037D01*
X148556609Y-100653676D01*
X148566874Y-100704395D01*
X148586192Y-100777271D01*
X148612757Y-100866380D01*
X148644764Y-100965798D01*
X148680406Y-101069603D01*
X148717879Y-101171869D01*
X148737437Y-101222343D01*
X148772730Y-101312119D01*
X148803269Y-101391003D01*
X148826505Y-101452321D01*
X148839889Y-101489394D01*
X148841951Y-101496089D01*
X148831043Y-101511468D01*
X148791064Y-101533260D01*
X148720113Y-101562315D01*
X148616285Y-101599486D01*
X148593929Y-101607115D01*
X148399080Y-101674823D01*
X148229438Y-101737642D01*
X148075036Y-101799585D01*
X147925902Y-101864665D01*
X147772069Y-101936895D01*
X147759357Y-101943056D01*
X147561907Y-102044703D01*
X147391800Y-102145740D01*
X147240662Y-102251957D01*
X147100121Y-102369143D01*
X146988035Y-102476348D01*
X146908290Y-102558232D01*
X146848237Y-102624784D01*
X146800930Y-102685308D01*
X146759419Y-102749107D01*
X146716756Y-102825484D01*
X146692261Y-102872385D01*
X146616326Y-103036508D01*
X146557086Y-103204414D01*
X146513297Y-103382352D01*
X146483709Y-103576575D01*
X146467078Y-103793330D01*
X146462143Y-104026008D01*
X146095901Y-104026008D01*
X146095305Y-103974783D01*
X146095901Y-103832709D01*
X146099005Y-103710306D01*
X146104729Y-103614524D01*
X146107573Y-103586886D01*
X146121574Y-103470985D01*
X146028388Y-103479939D01*
X145973334Y-103486991D01*
X145934606Y-103495216D01*
X145924347Y-103499748D01*
X145917887Y-103520606D01*
X145907336Y-103570806D01*
X145893931Y-103643798D01*
X145878910Y-103733033D01*
X145871574Y-103779168D01*
X145784976Y-104255740D01*
X145676010Y-104722248D01*
X145546021Y-105174760D01*
X145396351Y-105609345D01*
X145228343Y-106022073D01*
X145043341Y-106409011D01*
X144861550Y-106735072D01*
X144691229Y-106996021D01*
X144502121Y-107244952D01*
X144298597Y-107477302D01*
X144085032Y-107688507D01*
X143865797Y-107874007D01*
X143645267Y-108029237D01*
X143587316Y-108064631D01*
X143314064Y-108207288D01*
X143027746Y-108321311D01*
X142734994Y-108404477D01*
X142442437Y-108454565D01*
X142414848Y-108457527D01*
X142271153Y-108456574D01*
X142143217Y-108423020D01*
X142031218Y-108357035D01*
X141935334Y-108258785D01*
X141855741Y-108128441D01*
X141792618Y-107966170D01*
X141758161Y-107832912D01*
X141738306Y-107707307D01*
X141725596Y-107553666D01*
X141720017Y-107379524D01*
X141721555Y-107192418D01*
X141730194Y-106999884D01*
X141745921Y-106809458D01*
X141760358Y-106687231D01*
X141814401Y-106342220D01*
X141884431Y-105989131D01*
X141969127Y-105631204D01*
X142067165Y-105271681D01*
X142177224Y-104913803D01*
X142297979Y-104560812D01*
X142428109Y-104215950D01*
X142566291Y-103882457D01*
X142711203Y-103563576D01*
X142861522Y-103262548D01*
X143015924Y-102982614D01*
X143173089Y-102727015D01*
X143331692Y-102498994D01*
X143490411Y-102301791D01*
X143595854Y-102188827D01*
X143777616Y-102032026D01*
X143981304Y-101903464D01*
X144207691Y-101802727D01*
X144454761Y-101730041D01*
X144601722Y-101705482D01*
X144771113Y-101692268D01*
X144950903Y-101690383D01*
X145129059Y-101699814D01*
X145293550Y-101720543D01*
X145349038Y-101731180D01*
X145605353Y-101797381D01*
X145856411Y-101886309D01*
X146109322Y-102000891D01*
X146371191Y-102144051D01*
X146413469Y-102169245D01*
X146627866Y-102298358D01*
X146781877Y-102152573D01*
X146958273Y-102002609D01*
X147166691Y-101855338D01*
X147402871Y-101713280D01*
X147662549Y-101578955D01*
X147941464Y-101454881D01*
X148007199Y-101428333D01*
X148097284Y-101393003D01*
X148181194Y-101360788D01*
X148250045Y-101335053D01*
X148294954Y-101319165D01*
X148297645Y-101318293D01*
X148364218Y-101297009D01*
X148310670Y-101139183D01*
X148245706Y-100930342D01*
X148202228Y-100750149D01*
X148180251Y-100598730D01*
X148179790Y-100476207D01*
X148200862Y-100382705D01*
X148214118Y-100355491D01*
X148279309Y-100275809D01*
X148362551Y-100226818D01*
X148459966Y-100210286D01*
X148511399Y-100214433D01*
X148566661Y-100228940D01*
X148634924Y-100256913D01*
X148717434Y-100297381D01*
X148887444Y-100384475D01*
X148885829Y-100029773D01*
X148885547Y-99905905D01*
X148886325Y-99812324D01*
X148888675Y-99743037D01*
X148893108Y-99692048D01*
X148900137Y-99653365D01*
X148910273Y-99620992D01*
X148923339Y-99590423D01*
X148956673Y-99533456D01*
X148996106Y-99486491D01*
X149013255Y-99472495D01*
X149079938Y-99446714D01*
X149160450Y-99440581D01*
X149237837Y-99454536D01*
X149264353Y-99465968D01*
X149286043Y-99484140D01*
X149329816Y-99526423D01*
X149393178Y-99590228D01*
X149473639Y-99672968D01*
X149568707Y-99772054D01*
X149675890Y-99884899D01*
X149792695Y-100008915D01*
X149916632Y-100141513D01*
X149967656Y-100196388D01*
X150095519Y-100333487D01*
X150216112Y-100461592D01*
X150327085Y-100578288D01*
X150426093Y-100681159D01*
X150510788Y-100767793D01*
X150578823Y-100835774D01*
X150627850Y-100882688D01*
X150655523Y-100906120D01*
X150659735Y-100908328D01*
X150690787Y-100914914D01*
X150749896Y-100927417D01*
X150829616Y-100944263D01*
X150922502Y-100963879D01*
X150961572Y-100972126D01*
X151380578Y-101069691D01*
X151765781Y-101178356D01*
X152117058Y-101298065D01*
X152434283Y-101428762D01*
X152717331Y-101570389D01*
X152966078Y-101722892D01*
X153180400Y-101886213D01*
X153352925Y-102052340D01*
X153463234Y-102172723D01*
X153642096Y-102062808D01*
X153936696Y-101899123D01*
X154239164Y-101764507D01*
X154543602Y-101661386D01*
X154735720Y-101613258D01*
X154816401Y-101598679D01*
X154904327Y-101588929D01*
X155008131Y-101583406D01*
X155136450Y-101581505D01*
X155188857Y-101581585D01*
X155307680Y-101582793D01*
X155399440Y-101585777D01*
X155473354Y-101591484D01*
X155538636Y-101600861D01*
X155604500Y-101614857D01*
X155666254Y-101630670D01*
X155875460Y-101695919D01*
X156060867Y-101774918D01*
X156228244Y-101871726D01*
X156383362Y-101990403D01*
X156531993Y-102135008D01*
X156679908Y-102309602D01*
X156736082Y-102383249D01*
X156905863Y-102628331D01*
X157072061Y-102901041D01*
X157233461Y-103197558D01*
X157388849Y-103514061D01*
X157537008Y-103846729D01*
X157676725Y-104191739D01*
X157806783Y-104545270D01*
X157925969Y-104903502D01*
X158033065Y-105262611D01*
X158126858Y-105618777D01*
X158206133Y-105968179D01*
X158269673Y-106306994D01*
X158316265Y-106631402D01*
X158344692Y-106937580D01*
X158353740Y-107221708D01*
X158345223Y-107443846D01*
X158319898Y-107661278D01*
X158279426Y-107846744D01*
X158223222Y-108001513D01*
X158150700Y-108126857D01*
X158061274Y-108224045D01*
X157954357Y-108294347D01*
X157952339Y-108295340D01*
X157890097Y-108322452D01*
X157833310Y-108337120D01*
X157766079Y-108342479D01*
X157713187Y-108342518D01*
X157553032Y-108329877D01*
X157372533Y-108297944D01*
X157180380Y-108249192D01*
X156985261Y-108186093D01*
X156795867Y-108111118D01*
X156641369Y-108037560D01*
X156367576Y-107875066D01*
X156104393Y-107678983D01*
X155853503Y-107450891D01*
X155616585Y-107192370D01*
X155395322Y-106905000D01*
X155320723Y-106796143D01*
X155117369Y-106463298D01*
X154928732Y-106099759D01*
X154755849Y-105708441D01*
X154599757Y-105292258D01*
X154461493Y-104854127D01*
X154342093Y-104396960D01*
X154242594Y-103923673D01*
X154190820Y-103619983D01*
X154177307Y-103532300D01*
X154166096Y-103458124D01*
X154158239Y-103404520D01*
X154154788Y-103378553D01*
X154154715Y-103377426D01*
X154138129Y-103372287D01*
X154094587Y-103368600D01*
X154033411Y-103367144D01*
X154031631Y-103367143D01*
X153908547Y-103367143D01*
X153924116Y-103544036D01*
X153931999Y-103671633D01*
X153934760Y-103819244D01*
X153932278Y-103988738D01*
X153924432Y-104181988D01*
X153911101Y-104400863D01*
X153892165Y-104647234D01*
X153867503Y-104922973D01*
X153836994Y-105229948D01*
X153800517Y-105570032D01*
X153783431Y-105722804D01*
X153767946Y-105862649D01*
X153754362Y-105990920D01*
X153743101Y-106103176D01*
X153734586Y-106194974D01*
X153729237Y-106261874D01*
X153727476Y-106299434D01*
X153728091Y-106305855D01*
X153750242Y-106318180D01*
X153793739Y-106330383D01*
X153805264Y-106332646D01*
X153852981Y-106346232D01*
X153920819Y-106371716D01*
X153996629Y-106404405D01*
X154022814Y-106416687D01*
X154093833Y-106452814D01*
X154150022Y-106487927D01*
X154201173Y-106529835D01*
X154257075Y-106586345D01*
X154311351Y-106646806D01*
X154513026Y-106903135D01*
X154684190Y-107176966D01*
X154824512Y-107465660D01*
X154933660Y-107766576D01*
X155011306Y-108077073D01*
X155057117Y-108394511D01*
X155070764Y-108716249D01*
X155051916Y-109039647D01*
X155000241Y-109362064D01*
X154915411Y-109680859D01*
X154797093Y-109993393D01*
X154744616Y-110107215D01*
X154586612Y-110394240D01*
X154404029Y-110655410D01*
X154198595Y-110889860D01*
X153972039Y-111096726D01*
X153726090Y-111275143D01*
X153462477Y-111424245D01*
X153182929Y-111543169D01*
X152889175Y-111631049D01*
X152582944Y-111687021D01*
X152265965Y-111710219D01*
X151939966Y-111699780D01*
X151638825Y-111660653D01*
X151354010Y-111599124D01*
X151059116Y-111514379D01*
X150765880Y-111410531D01*
X150486038Y-111291693D01*
X150258076Y-111176830D01*
X150144224Y-111114324D01*
X149927564Y-111222933D01*
X149630130Y-111362470D01*
X149344380Y-111475974D01*
X149060614Y-111566730D01*
X148769133Y-111638022D01*
X148612072Y-111668353D01*
X148516792Y-111681251D01*
X148395914Y-111691680D01*
X148259124Y-111699363D01*
X148116108Y-111704025D01*
X147976551Y-111705389D01*
X147850140Y-111703179D01*
X147746562Y-111697118D01*
X147716462Y-111693906D01*
X147406918Y-111637376D01*
X147110689Y-111548079D01*
X146829485Y-111427628D01*
X146565013Y-111277636D01*
X146318984Y-111099715D01*
X146093105Y-110895478D01*
X145889085Y-110666538D01*
X145708633Y-110414508D01*
X145553458Y-110140999D01*
X145425268Y-109847625D01*
X145325773Y-109535998D01*
X145294796Y-109408423D01*
X145235887Y-109064795D01*
X145212300Y-108725864D01*
X145212733Y-108713320D01*
X145583302Y-108713320D01*
X145601466Y-109017574D01*
X145651612Y-109316784D01*
X145733059Y-109607945D01*
X145845130Y-109888053D01*
X145987144Y-110154105D01*
X146158423Y-110403097D01*
X146358288Y-110632024D01*
X146370464Y-110644343D01*
X146573854Y-110829628D01*
X146784103Y-110982139D01*
X147006837Y-111105363D01*
X147247679Y-111202791D01*
X147296715Y-111218917D01*
X147439792Y-111261147D01*
X147574348Y-111293167D01*
X147711687Y-111316950D01*
X147863115Y-111334470D01*
X148031500Y-111347183D01*
X148063372Y-111346616D01*
X148122689Y-111343388D01*
X148200752Y-111338039D01*
X148282210Y-111331660D01*
X148616521Y-111287134D01*
X148956406Y-111209157D01*
X149297264Y-111099112D01*
X149634497Y-110958378D01*
X149804965Y-110874529D01*
X149945572Y-110801671D01*
X149945806Y-110717514D01*
X149945163Y-110676758D01*
X149943210Y-110603917D01*
X149940103Y-110503164D01*
X149935997Y-110378671D01*
X149931050Y-110234609D01*
X149925418Y-110075152D01*
X149919256Y-109904470D01*
X149912721Y-109726736D01*
X149905970Y-109546121D01*
X149899158Y-109366798D01*
X149892442Y-109192939D01*
X149885977Y-109028715D01*
X149879922Y-108878299D01*
X149874430Y-108745862D01*
X149869660Y-108635576D01*
X149868126Y-108602497D01*
X150279784Y-108602497D01*
X150280224Y-108733476D01*
X150281512Y-108884219D01*
X150283599Y-109051425D01*
X150286434Y-109231794D01*
X150289968Y-109422023D01*
X150294153Y-109618813D01*
X150298937Y-109818861D01*
X150304273Y-110018868D01*
X150310111Y-110215531D01*
X150316400Y-110405551D01*
X150319802Y-110499806D01*
X150331037Y-110801682D01*
X150578268Y-110919866D01*
X150719085Y-110986136D01*
X150838092Y-111039321D01*
X150945482Y-111083441D01*
X151051448Y-111122516D01*
X151166184Y-111160564D01*
X151270000Y-111192621D01*
X151576979Y-111272189D01*
X151871512Y-111320840D01*
X152159384Y-111339031D01*
X152446383Y-111327220D01*
X152648857Y-111301506D01*
X152928727Y-111238805D01*
X153193768Y-111143842D01*
X153442569Y-111018070D01*
X153673720Y-110862941D01*
X153885807Y-110679908D01*
X154077420Y-110470423D01*
X154247146Y-110235939D01*
X154393574Y-109977909D01*
X154515291Y-109697785D01*
X154610887Y-109397020D01*
X154647149Y-109245429D01*
X154661810Y-109172116D01*
X154672576Y-109103398D01*
X154680014Y-109031474D01*
X154684692Y-108948542D01*
X154687177Y-108846801D01*
X154688037Y-108718450D01*
X154688065Y-108683000D01*
X154687495Y-108546732D01*
X154685419Y-108439032D01*
X154681282Y-108352195D01*
X154674529Y-108278516D01*
X154664609Y-108210289D01*
X154650967Y-108139811D01*
X154648059Y-108126225D01*
X154569022Y-107834718D01*
X154461873Y-107556846D01*
X154328809Y-107296966D01*
X154172026Y-107059437D01*
X154016200Y-106872382D01*
X153955660Y-106810886D01*
X153903570Y-106769113D01*
X153846360Y-106737945D01*
X153773715Y-106709423D01*
X153715286Y-106689620D01*
X153664142Y-106676094D01*
X153611049Y-106667729D01*
X153546773Y-106663405D01*
X153462079Y-106662003D01*
X153383643Y-106662174D01*
X153218522Y-106668117D01*
X153056922Y-106684988D01*
X152892576Y-106714237D01*
X152719220Y-106757316D01*
X152530587Y-106815678D01*
X152320413Y-106890774D01*
X152204357Y-106935417D01*
X152114941Y-106972068D01*
X152010230Y-107017556D01*
X151895344Y-107069398D01*
X151775402Y-107125110D01*
X151655522Y-107182211D01*
X151540824Y-107238217D01*
X151436428Y-107290646D01*
X151347453Y-107337013D01*
X151279017Y-107374838D01*
X151236239Y-107401635D01*
X151226451Y-107409718D01*
X151204017Y-107438040D01*
X151168303Y-107488369D01*
X151125384Y-107552020D01*
X151103617Y-107585357D01*
X151032683Y-107682542D01*
X150938865Y-107792496D01*
X150829483Y-107907881D01*
X150711860Y-108021362D01*
X150593316Y-108125601D01*
X150481174Y-108213262D01*
X150466811Y-108223506D01*
X150399623Y-108270133D01*
X150342409Y-108308607D01*
X150302250Y-108334237D01*
X150287488Y-108342243D01*
X150284043Y-108361155D01*
X150281644Y-108413036D01*
X150280241Y-108494583D01*
X150279784Y-108602497D01*
X149868126Y-108602497D01*
X149865766Y-108551614D01*
X149862906Y-108498148D01*
X149862387Y-108490260D01*
X149851983Y-108342877D01*
X149694670Y-108236597D01*
X149613432Y-108176246D01*
X149519057Y-108097363D01*
X149417986Y-108006215D01*
X149316664Y-107909070D01*
X149221532Y-107812197D01*
X149139034Y-107721863D01*
X149075612Y-107644336D01*
X149053223Y-107612572D01*
X149007603Y-107539178D01*
X148960615Y-107458475D01*
X148935744Y-107413000D01*
X148915858Y-107376373D01*
X148896561Y-107347414D01*
X148872469Y-107322219D01*
X148838201Y-107296884D01*
X148788371Y-107267505D01*
X148717596Y-107230178D01*
X148620493Y-107180998D01*
X148605271Y-107173337D01*
X148294893Y-107026066D01*
X147997679Y-106902964D01*
X147715185Y-106804381D01*
X147448968Y-106730666D01*
X147200585Y-106682171D01*
X146971594Y-106659245D01*
X146763551Y-106662237D01*
X146578014Y-106691499D01*
X146525643Y-106705857D01*
X146463228Y-106726823D01*
X146414293Y-106749973D01*
X146368723Y-106782065D01*
X146316400Y-106829856D01*
X146269993Y-106876624D01*
X146118153Y-107053759D01*
X145978727Y-107258799D01*
X145856111Y-107484263D01*
X145754698Y-107722668D01*
X145727489Y-107800326D01*
X145645635Y-108101692D01*
X145597799Y-108407024D01*
X145583302Y-108713320D01*
X145212733Y-108713320D01*
X145223811Y-108392902D01*
X145270194Y-108067181D01*
G37*
X145270194Y-108067181D02*
X145351224Y-107749972D01*
X145466674Y-107442546D01*
X145616320Y-107146175D01*
X145728238Y-106965433D01*
X145798661Y-106866493D01*
X145878922Y-106764904D01*
X145963632Y-106666517D01*
X146047402Y-106577186D01*
X146124842Y-106502762D01*
X146190564Y-106449098D01*
X146221750Y-106429497D01*
X146265372Y-106397779D01*
X146280444Y-106359054D01*
X146280715Y-106351338D01*
X146278926Y-106322481D01*
X146273845Y-106262081D01*
X146265900Y-106174689D01*
X146255520Y-106064857D01*
X146243133Y-105937137D01*
X146229168Y-105796079D01*
X146217863Y-105683744D01*
X146201288Y-105518897D01*
X146184460Y-105349193D01*
X146168113Y-105182215D01*
X146152984Y-105025547D01*
X146139807Y-104886771D01*
X146129317Y-104773468D01*
X146126035Y-104736929D01*
X146115766Y-104600767D01*
X146107447Y-104449520D01*
X146101189Y-104290140D01*
X146097105Y-104129577D01*
X146095901Y-104026008D01*
X146462143Y-104026008D01*
X146462583Y-104110733D01*
X146464095Y-104193646D01*
X146466970Y-104278734D01*
X146471498Y-104369983D01*
X146477969Y-104471379D01*
X146486673Y-104586909D01*
X146497899Y-104720559D01*
X146511939Y-104876316D01*
X146529082Y-105058166D01*
X146549618Y-105270095D01*
X146561395Y-105390072D01*
X146576576Y-105544457D01*
X146591128Y-105692878D01*
X146604539Y-105830074D01*
X146616296Y-105950789D01*
X146625887Y-106049764D01*
X146632799Y-106121742D01*
X146635868Y-106154309D01*
X146647807Y-106283547D01*
X146940511Y-106292946D01*
X147140673Y-106305230D01*
X147337134Y-106329950D01*
X147535234Y-106368544D01*
X147740311Y-106422447D01*
X147957703Y-106493096D01*
X148192750Y-106581929D01*
X148450791Y-106690382D01*
X148503215Y-106713482D01*
X148757215Y-106826149D01*
X148771097Y-106752182D01*
X148819266Y-106569340D01*
X148889762Y-106413783D01*
X148982070Y-106286205D01*
X149095675Y-106187298D01*
X149230062Y-106117755D01*
X149247072Y-106111586D01*
X149355026Y-106086659D01*
X149475993Y-106078977D01*
X149595983Y-106088202D01*
X149701005Y-106113997D01*
X149723512Y-106123098D01*
X149795106Y-106165651D01*
X149871535Y-106228000D01*
X149943652Y-106300887D01*
X150002307Y-106375055D01*
X150038352Y-106441246D01*
X150038617Y-106441973D01*
X150055911Y-106483060D01*
X150069619Y-106504287D01*
X150071681Y-106505114D01*
X150084247Y-106489697D01*
X150105948Y-106450841D01*
X150123079Y-106415954D01*
X150198599Y-106295244D01*
X150298160Y-106198689D01*
X150416936Y-106128460D01*
X150550102Y-106086725D01*
X150692832Y-106075653D01*
X150834867Y-106096010D01*
X150979283Y-106150577D01*
X151105205Y-106234538D01*
X151209772Y-106344542D01*
X151290125Y-106477238D01*
X151343402Y-106629275D01*
X151358742Y-106709708D01*
X151366189Y-106777551D01*
X151368724Y-106835263D01*
X151366186Y-106867896D01*
X151363030Y-106897351D01*
X151368033Y-106905000D01*
X151388194Y-106897342D01*
X151433108Y-106876731D01*
X151495206Y-106846711D01*
X151539077Y-106824897D01*
X151794815Y-106704135D01*
X152056803Y-106594857D01*
X152318989Y-106499008D01*
X152575320Y-106418533D01*
X152819744Y-106355375D01*
X153046209Y-106311480D01*
X153195087Y-106292864D01*
X153347357Y-106279072D01*
X153386899Y-105934358D01*
X153420272Y-105640674D01*
X153449202Y-105379613D01*
X153473968Y-105147820D01*
X153494848Y-104941940D01*
X153512123Y-104758620D01*
X153526069Y-104594503D01*
X153536967Y-104446235D01*
X153545095Y-104310463D01*
X153550731Y-104183831D01*
X153554155Y-104062984D01*
X153555645Y-103944569D01*
X153555762Y-103902358D01*
X153553967Y-103709534D01*
X153547925Y-103545111D01*
X153536893Y-103401373D01*
X153520122Y-103270604D01*
X153496868Y-103145089D01*
X153472452Y-103040726D01*
X153408364Y-102836770D01*
X153322238Y-102646882D01*
X153212888Y-102470311D01*
X153079126Y-102306307D01*
X152919766Y-102154120D01*
X152733621Y-102013000D01*
X152519504Y-101882198D01*
X152276229Y-101760961D01*
X152002608Y-101648542D01*
X151697455Y-101544189D01*
X151359583Y-101447152D01*
X150987805Y-101356681D01*
X150716529Y-101298834D01*
X150611323Y-101277086D01*
X150535124Y-101259669D01*
X150481271Y-101244236D01*
X150443104Y-101228444D01*
X150413965Y-101209946D01*
X150387192Y-101186398D01*
X150381519Y-101180860D01*
X150355639Y-101154156D01*
X150308126Y-101103905D01*
X150241916Y-101033258D01*
X150159947Y-100945370D01*
X150065158Y-100843391D01*
X149960485Y-100730476D01*
X149848866Y-100609777D01*
X149791358Y-100547479D01*
X149679905Y-100426895D01*
X149576030Y-100314931D01*
X149482308Y-100214335D01*
X149401315Y-100127851D01*
X149335629Y-100058227D01*
X149287825Y-100008207D01*
X149260480Y-99980537D01*
X149254986Y-99975808D01*
X149251015Y-99992110D01*
X149250919Y-100039083D01*
X149254223Y-100111374D01*
X149260449Y-100203631D01*
X149269122Y-100310502D01*
X149279765Y-100426633D01*
X149291902Y-100546671D01*
X149305056Y-100665265D01*
X149318752Y-100777061D01*
X149332512Y-100876707D01*
X149338752Y-100917109D01*
X149349296Y-100987053D01*
X149356175Y-101041746D01*
X149358366Y-101072601D01*
X149357731Y-101076318D01*
X149339203Y-101081098D01*
X149294526Y-101089879D01*
X149233388Y-101100986D01*
X149165479Y-101112745D01*
X149100489Y-101123481D01*
X149048106Y-101131522D01*
X149018021Y-101135192D01*
X149016599Y-101135255D01*
X149002619Y-101120332D01*
X148980930Y-101081852D01*
X148966931Y-101052129D01*
X148883263Y-100906722D01*
X148770088Y-100778578D01*
X148681976Y-100706636D01*
X148626436Y-100668569D01*
X148583019Y-100641747D01*
X148559253Y-100630730D01*
X148557202Y-100631037D01*
X148556609Y-100653676D01*
X148566874Y-100704395D01*
X148586192Y-100777271D01*
X148612757Y-100866380D01*
X148644764Y-100965798D01*
X148680406Y-101069603D01*
X148717879Y-101171869D01*
X148737437Y-101222343D01*
X148772730Y-101312119D01*
X148803269Y-101391003D01*
X148826505Y-101452321D01*
X148839889Y-101489394D01*
X148841951Y-101496089D01*
X148831043Y-101511468D01*
X148791064Y-101533260D01*
X148720113Y-101562315D01*
X148616285Y-101599486D01*
X148593929Y-101607115D01*
X148399080Y-101674823D01*
X148229438Y-101737642D01*
X148075036Y-101799585D01*
X147925902Y-101864665D01*
X147772069Y-101936895D01*
X147759357Y-101943056D01*
X147561907Y-102044703D01*
X147391800Y-102145740D01*
X147240662Y-102251957D01*
X147100121Y-102369143D01*
X146988035Y-102476348D01*
X146908290Y-102558232D01*
X146848237Y-102624784D01*
X146800930Y-102685308D01*
X146759419Y-102749107D01*
X146716756Y-102825484D01*
X146692261Y-102872385D01*
X146616326Y-103036508D01*
X146557086Y-103204414D01*
X146513297Y-103382352D01*
X146483709Y-103576575D01*
X146467078Y-103793330D01*
X146462143Y-104026008D01*
X146095901Y-104026008D01*
X146095305Y-103974783D01*
X146095901Y-103832709D01*
X146099005Y-103710306D01*
X146104729Y-103614524D01*
X146107573Y-103586886D01*
X146121574Y-103470985D01*
X146028388Y-103479939D01*
X145973334Y-103486991D01*
X145934606Y-103495216D01*
X145924347Y-103499748D01*
X145917887Y-103520606D01*
X145907336Y-103570806D01*
X145893931Y-103643798D01*
X145878910Y-103733033D01*
X145871574Y-103779168D01*
X145784976Y-104255740D01*
X145676010Y-104722248D01*
X145546021Y-105174760D01*
X145396351Y-105609345D01*
X145228343Y-106022073D01*
X145043341Y-106409011D01*
X144861550Y-106735072D01*
X144691229Y-106996021D01*
X144502121Y-107244952D01*
X144298597Y-107477302D01*
X144085032Y-107688507D01*
X143865797Y-107874007D01*
X143645267Y-108029237D01*
X143587316Y-108064631D01*
X143314064Y-108207288D01*
X143027746Y-108321311D01*
X142734994Y-108404477D01*
X142442437Y-108454565D01*
X142414848Y-108457527D01*
X142271153Y-108456574D01*
X142143217Y-108423020D01*
X142031218Y-108357035D01*
X141935334Y-108258785D01*
X141855741Y-108128441D01*
X141792618Y-107966170D01*
X141758161Y-107832912D01*
X141738306Y-107707307D01*
X141725596Y-107553666D01*
X141720017Y-107379524D01*
X141721555Y-107192418D01*
X141730194Y-106999884D01*
X141745921Y-106809458D01*
X141760358Y-106687231D01*
X141814401Y-106342220D01*
X141884431Y-105989131D01*
X141969127Y-105631204D01*
X142067165Y-105271681D01*
X142177224Y-104913803D01*
X142297979Y-104560812D01*
X142428109Y-104215950D01*
X142566291Y-103882457D01*
X142711203Y-103563576D01*
X142861522Y-103262548D01*
X143015924Y-102982614D01*
X143173089Y-102727015D01*
X143331692Y-102498994D01*
X143490411Y-102301791D01*
X143595854Y-102188827D01*
X143777616Y-102032026D01*
X143981304Y-101903464D01*
X144207691Y-101802727D01*
X144454761Y-101730041D01*
X144601722Y-101705482D01*
X144771113Y-101692268D01*
X144950903Y-101690383D01*
X145129059Y-101699814D01*
X145293550Y-101720543D01*
X145349038Y-101731180D01*
X145605353Y-101797381D01*
X145856411Y-101886309D01*
X146109322Y-102000891D01*
X146371191Y-102144051D01*
X146413469Y-102169245D01*
X146627866Y-102298358D01*
X146781877Y-102152573D01*
X146958273Y-102002609D01*
X147166691Y-101855338D01*
X147402871Y-101713280D01*
X147662549Y-101578955D01*
X147941464Y-101454881D01*
X148007199Y-101428333D01*
X148097284Y-101393003D01*
X148181194Y-101360788D01*
X148250045Y-101335053D01*
X148294954Y-101319165D01*
X148297645Y-101318293D01*
X148364218Y-101297009D01*
X148310670Y-101139183D01*
X148245706Y-100930342D01*
X148202228Y-100750149D01*
X148180251Y-100598730D01*
X148179790Y-100476207D01*
X148200862Y-100382705D01*
X148214118Y-100355491D01*
X148279309Y-100275809D01*
X148362551Y-100226818D01*
X148459966Y-100210286D01*
X148511399Y-100214433D01*
X148566661Y-100228940D01*
X148634924Y-100256913D01*
X148717434Y-100297381D01*
X148887444Y-100384475D01*
X148885829Y-100029773D01*
X148885547Y-99905905D01*
X148886325Y-99812324D01*
X148888675Y-99743037D01*
X148893108Y-99692048D01*
X148900137Y-99653365D01*
X148910273Y-99620992D01*
X148923339Y-99590423D01*
X148956673Y-99533456D01*
X148996106Y-99486491D01*
X149013255Y-99472495D01*
X149079938Y-99446714D01*
X149160450Y-99440581D01*
X149237837Y-99454536D01*
X149264353Y-99465968D01*
X149286043Y-99484140D01*
X149329816Y-99526423D01*
X149393178Y-99590228D01*
X149473639Y-99672968D01*
X149568707Y-99772054D01*
X149675890Y-99884899D01*
X149792695Y-100008915D01*
X149916632Y-100141513D01*
X149967656Y-100196388D01*
X150095519Y-100333487D01*
X150216112Y-100461592D01*
X150327085Y-100578288D01*
X150426093Y-100681159D01*
X150510788Y-100767793D01*
X150578823Y-100835774D01*
X150627850Y-100882688D01*
X150655523Y-100906120D01*
X150659735Y-100908328D01*
X150690787Y-100914914D01*
X150749896Y-100927417D01*
X150829616Y-100944263D01*
X150922502Y-100963879D01*
X150961572Y-100972126D01*
X151380578Y-101069691D01*
X151765781Y-101178356D01*
X152117058Y-101298065D01*
X152434283Y-101428762D01*
X152717331Y-101570389D01*
X152966078Y-101722892D01*
X153180400Y-101886213D01*
X153352925Y-102052340D01*
X153463234Y-102172723D01*
X153642096Y-102062808D01*
X153936696Y-101899123D01*
X154239164Y-101764507D01*
X154543602Y-101661386D01*
X154735720Y-101613258D01*
X154816401Y-101598679D01*
X154904327Y-101588929D01*
X155008131Y-101583406D01*
X155136450Y-101581505D01*
X155188857Y-101581585D01*
X155307680Y-101582793D01*
X155399440Y-101585777D01*
X155473354Y-101591484D01*
X155538636Y-101600861D01*
X155604500Y-101614857D01*
X155666254Y-101630670D01*
X155875460Y-101695919D01*
X156060867Y-101774918D01*
X156228244Y-101871726D01*
X156383362Y-101990403D01*
X156531993Y-102135008D01*
X156679908Y-102309602D01*
X156736082Y-102383249D01*
X156905863Y-102628331D01*
X157072061Y-102901041D01*
X157233461Y-103197558D01*
X157388849Y-103514061D01*
X157537008Y-103846729D01*
X157676725Y-104191739D01*
X157806783Y-104545270D01*
X157925969Y-104903502D01*
X158033065Y-105262611D01*
X158126858Y-105618777D01*
X158206133Y-105968179D01*
X158269673Y-106306994D01*
X158316265Y-106631402D01*
X158344692Y-106937580D01*
X158353740Y-107221708D01*
X158345223Y-107443846D01*
X158319898Y-107661278D01*
X158279426Y-107846744D01*
X158223222Y-108001513D01*
X158150700Y-108126857D01*
X158061274Y-108224045D01*
X157954357Y-108294347D01*
X157952339Y-108295340D01*
X157890097Y-108322452D01*
X157833310Y-108337120D01*
X157766079Y-108342479D01*
X157713187Y-108342518D01*
X157553032Y-108329877D01*
X157372533Y-108297944D01*
X157180380Y-108249192D01*
X156985261Y-108186093D01*
X156795867Y-108111118D01*
X156641369Y-108037560D01*
X156367576Y-107875066D01*
X156104393Y-107678983D01*
X155853503Y-107450891D01*
X155616585Y-107192370D01*
X155395322Y-106905000D01*
X155320723Y-106796143D01*
X155117369Y-106463298D01*
X154928732Y-106099759D01*
X154755849Y-105708441D01*
X154599757Y-105292258D01*
X154461493Y-104854127D01*
X154342093Y-104396960D01*
X154242594Y-103923673D01*
X154190820Y-103619983D01*
X154177307Y-103532300D01*
X154166096Y-103458124D01*
X154158239Y-103404520D01*
X154154788Y-103378553D01*
X154154715Y-103377426D01*
X154138129Y-103372287D01*
X154094587Y-103368600D01*
X154033411Y-103367144D01*
X154031631Y-103367143D01*
X153908547Y-103367143D01*
X153924116Y-103544036D01*
X153931999Y-103671633D01*
X153934760Y-103819244D01*
X153932278Y-103988738D01*
X153924432Y-104181988D01*
X153911101Y-104400863D01*
X153892165Y-104647234D01*
X153867503Y-104922973D01*
X153836994Y-105229948D01*
X153800517Y-105570032D01*
X153783431Y-105722804D01*
X153767946Y-105862649D01*
X153754362Y-105990920D01*
X153743101Y-106103176D01*
X153734586Y-106194974D01*
X153729237Y-106261874D01*
X153727476Y-106299434D01*
X153728091Y-106305855D01*
X153750242Y-106318180D01*
X153793739Y-106330383D01*
X153805264Y-106332646D01*
X153852981Y-106346232D01*
X153920819Y-106371716D01*
X153996629Y-106404405D01*
X154022814Y-106416687D01*
X154093833Y-106452814D01*
X154150022Y-106487927D01*
X154201173Y-106529835D01*
X154257075Y-106586345D01*
X154311351Y-106646806D01*
X154513026Y-106903135D01*
X154684190Y-107176966D01*
X154824512Y-107465660D01*
X154933660Y-107766576D01*
X155011306Y-108077073D01*
X155057117Y-108394511D01*
X155070764Y-108716249D01*
X155051916Y-109039647D01*
X155000241Y-109362064D01*
X154915411Y-109680859D01*
X154797093Y-109993393D01*
X154744616Y-110107215D01*
X154586612Y-110394240D01*
X154404029Y-110655410D01*
X154198595Y-110889860D01*
X153972039Y-111096726D01*
X153726090Y-111275143D01*
X153462477Y-111424245D01*
X153182929Y-111543169D01*
X152889175Y-111631049D01*
X152582944Y-111687021D01*
X152265965Y-111710219D01*
X151939966Y-111699780D01*
X151638825Y-111660653D01*
X151354010Y-111599124D01*
X151059116Y-111514379D01*
X150765880Y-111410531D01*
X150486038Y-111291693D01*
X150258076Y-111176830D01*
X150144224Y-111114324D01*
X149927564Y-111222933D01*
X149630130Y-111362470D01*
X149344380Y-111475974D01*
X149060614Y-111566730D01*
X148769133Y-111638022D01*
X148612072Y-111668353D01*
X148516792Y-111681251D01*
X148395914Y-111691680D01*
X148259124Y-111699363D01*
X148116108Y-111704025D01*
X147976551Y-111705389D01*
X147850140Y-111703179D01*
X147746562Y-111697118D01*
X147716462Y-111693906D01*
X147406918Y-111637376D01*
X147110689Y-111548079D01*
X146829485Y-111427628D01*
X146565013Y-111277636D01*
X146318984Y-111099715D01*
X146093105Y-110895478D01*
X145889085Y-110666538D01*
X145708633Y-110414508D01*
X145553458Y-110140999D01*
X145425268Y-109847625D01*
X145325773Y-109535998D01*
X145294796Y-109408423D01*
X145235887Y-109064795D01*
X145212300Y-108725864D01*
X145212733Y-108713320D01*
X145583302Y-108713320D01*
X145601466Y-109017574D01*
X145651612Y-109316784D01*
X145733059Y-109607945D01*
X145845130Y-109888053D01*
X145987144Y-110154105D01*
X146158423Y-110403097D01*
X146358288Y-110632024D01*
X146370464Y-110644343D01*
X146573854Y-110829628D01*
X146784103Y-110982139D01*
X147006837Y-111105363D01*
X147247679Y-111202791D01*
X147296715Y-111218917D01*
X147439792Y-111261147D01*
X147574348Y-111293167D01*
X147711687Y-111316950D01*
X147863115Y-111334470D01*
X148031500Y-111347183D01*
X148063372Y-111346616D01*
X148122689Y-111343388D01*
X148200752Y-111338039D01*
X148282210Y-111331660D01*
X148616521Y-111287134D01*
X148956406Y-111209157D01*
X149297264Y-111099112D01*
X149634497Y-110958378D01*
X149804965Y-110874529D01*
X149945572Y-110801671D01*
X149945806Y-110717514D01*
X149945163Y-110676758D01*
X149943210Y-110603917D01*
X149940103Y-110503164D01*
X149935997Y-110378671D01*
X149931050Y-110234609D01*
X149925418Y-110075152D01*
X149919256Y-109904470D01*
X149912721Y-109726736D01*
X149905970Y-109546121D01*
X149899158Y-109366798D01*
X149892442Y-109192939D01*
X149885977Y-109028715D01*
X149879922Y-108878299D01*
X149874430Y-108745862D01*
X149869660Y-108635576D01*
X149868126Y-108602497D01*
X150279784Y-108602497D01*
X150280224Y-108733476D01*
X150281512Y-108884219D01*
X150283599Y-109051425D01*
X150286434Y-109231794D01*
X150289968Y-109422023D01*
X150294153Y-109618813D01*
X150298937Y-109818861D01*
X150304273Y-110018868D01*
X150310111Y-110215531D01*
X150316400Y-110405551D01*
X150319802Y-110499806D01*
X150331037Y-110801682D01*
X150578268Y-110919866D01*
X150719085Y-110986136D01*
X150838092Y-111039321D01*
X150945482Y-111083441D01*
X151051448Y-111122516D01*
X151166184Y-111160564D01*
X151270000Y-111192621D01*
X151576979Y-111272189D01*
X151871512Y-111320840D01*
X152159384Y-111339031D01*
X152446383Y-111327220D01*
X152648857Y-111301506D01*
X152928727Y-111238805D01*
X153193768Y-111143842D01*
X153442569Y-111018070D01*
X153673720Y-110862941D01*
X153885807Y-110679908D01*
X154077420Y-110470423D01*
X154247146Y-110235939D01*
X154393574Y-109977909D01*
X154515291Y-109697785D01*
X154610887Y-109397020D01*
X154647149Y-109245429D01*
X154661810Y-109172116D01*
X154672576Y-109103398D01*
X154680014Y-109031474D01*
X154684692Y-108948542D01*
X154687177Y-108846801D01*
X154688037Y-108718450D01*
X154688065Y-108683000D01*
X154687495Y-108546732D01*
X154685419Y-108439032D01*
X154681282Y-108352195D01*
X154674529Y-108278516D01*
X154664609Y-108210289D01*
X154650967Y-108139811D01*
X154648059Y-108126225D01*
X154569022Y-107834718D01*
X154461873Y-107556846D01*
X154328809Y-107296966D01*
X154172026Y-107059437D01*
X154016200Y-106872382D01*
X153955660Y-106810886D01*
X153903570Y-106769113D01*
X153846360Y-106737945D01*
X153773715Y-106709423D01*
X153715286Y-106689620D01*
X153664142Y-106676094D01*
X153611049Y-106667729D01*
X153546773Y-106663405D01*
X153462079Y-106662003D01*
X153383643Y-106662174D01*
X153218522Y-106668117D01*
X153056922Y-106684988D01*
X152892576Y-106714237D01*
X152719220Y-106757316D01*
X152530587Y-106815678D01*
X152320413Y-106890774D01*
X152204357Y-106935417D01*
X152114941Y-106972068D01*
X152010230Y-107017556D01*
X151895344Y-107069398D01*
X151775402Y-107125110D01*
X151655522Y-107182211D01*
X151540824Y-107238217D01*
X151436428Y-107290646D01*
X151347453Y-107337013D01*
X151279017Y-107374838D01*
X151236239Y-107401635D01*
X151226451Y-107409718D01*
X151204017Y-107438040D01*
X151168303Y-107488369D01*
X151125384Y-107552020D01*
X151103617Y-107585357D01*
X151032683Y-107682542D01*
X150938865Y-107792496D01*
X150829483Y-107907881D01*
X150711860Y-108021362D01*
X150593316Y-108125601D01*
X150481174Y-108213262D01*
X150466811Y-108223506D01*
X150399623Y-108270133D01*
X150342409Y-108308607D01*
X150302250Y-108334237D01*
X150287488Y-108342243D01*
X150284043Y-108361155D01*
X150281644Y-108413036D01*
X150280241Y-108494583D01*
X150279784Y-108602497D01*
X149868126Y-108602497D01*
X149865766Y-108551614D01*
X149862906Y-108498148D01*
X149862387Y-108490260D01*
X149851983Y-108342877D01*
X149694670Y-108236597D01*
X149613432Y-108176246D01*
X149519057Y-108097363D01*
X149417986Y-108006215D01*
X149316664Y-107909070D01*
X149221532Y-107812197D01*
X149139034Y-107721863D01*
X149075612Y-107644336D01*
X149053223Y-107612572D01*
X149007603Y-107539178D01*
X148960615Y-107458475D01*
X148935744Y-107413000D01*
X148915858Y-107376373D01*
X148896561Y-107347414D01*
X148872469Y-107322219D01*
X148838201Y-107296884D01*
X148788371Y-107267505D01*
X148717596Y-107230178D01*
X148620493Y-107180998D01*
X148605271Y-107173337D01*
X148294893Y-107026066D01*
X147997679Y-106902964D01*
X147715185Y-106804381D01*
X147448968Y-106730666D01*
X147200585Y-106682171D01*
X146971594Y-106659245D01*
X146763551Y-106662237D01*
X146578014Y-106691499D01*
X146525643Y-106705857D01*
X146463228Y-106726823D01*
X146414293Y-106749973D01*
X146368723Y-106782065D01*
X146316400Y-106829856D01*
X146269993Y-106876624D01*
X146118153Y-107053759D01*
X145978727Y-107258799D01*
X145856111Y-107484263D01*
X145754698Y-107722668D01*
X145727489Y-107800326D01*
X145645635Y-108101692D01*
X145597799Y-108407024D01*
X145583302Y-108713320D01*
X145212733Y-108713320D01*
X145223811Y-108392902D01*
X145270194Y-108067181D01*
G36*
X151727682Y-109635864D02*
G01*
X151823004Y-109678195D01*
X151899432Y-109742226D01*
X151955717Y-109822623D01*
X151990610Y-109914052D01*
X152002864Y-110011177D01*
X151991228Y-110108664D01*
X151954456Y-110201179D01*
X151891298Y-110283386D01*
X151800505Y-110349952D01*
X151787072Y-110356947D01*
X151706387Y-110384734D01*
X151616397Y-110396830D01*
X151536194Y-110390750D01*
X151533072Y-110389997D01*
X151419533Y-110344904D01*
X151329638Y-110274455D01*
X151266371Y-110182395D01*
X151232719Y-110072467D01*
X151227912Y-110007429D01*
X151244451Y-109890323D01*
X151291105Y-109789088D01*
X151363643Y-109707956D01*
X151457834Y-109651158D01*
X151569446Y-109622927D01*
X151614715Y-109620569D01*
X151727682Y-109635864D01*
G37*
X151727682Y-109635864D02*
X151823004Y-109678195D01*
X151899432Y-109742226D01*
X151955717Y-109822623D01*
X151990610Y-109914052D01*
X152002864Y-110011177D01*
X151991228Y-110108664D01*
X151954456Y-110201179D01*
X151891298Y-110283386D01*
X151800505Y-110349952D01*
X151787072Y-110356947D01*
X151706387Y-110384734D01*
X151616397Y-110396830D01*
X151536194Y-110390750D01*
X151533072Y-110389997D01*
X151419533Y-110344904D01*
X151329638Y-110274455D01*
X151266371Y-110182395D01*
X151232719Y-110072467D01*
X151227912Y-110007429D01*
X151244451Y-109890323D01*
X151291105Y-109789088D01*
X151363643Y-109707956D01*
X151457834Y-109651158D01*
X151569446Y-109622927D01*
X151614715Y-109620569D01*
X151727682Y-109635864D01*
G36*
X146495801Y-108109890D02*
G01*
X146598257Y-108165536D01*
X146615863Y-108179321D01*
X146691333Y-108262164D01*
X146737401Y-108357255D01*
X146755564Y-108458654D01*
X146747322Y-108560423D01*
X146714172Y-108656621D01*
X146657614Y-108741309D01*
X146579144Y-108808547D01*
X146480262Y-108852396D01*
X146444000Y-108860616D01*
X146385825Y-108868155D01*
X146337583Y-108869740D01*
X146326072Y-108868580D01*
X146203857Y-108832054D01*
X146107890Y-108770804D01*
X146037346Y-108684268D01*
X146026400Y-108664240D01*
X145984932Y-108548705D01*
X145979225Y-108436507D01*
X146009011Y-108329734D01*
X146074023Y-108230475D01*
X146083362Y-108220052D01*
X146175952Y-108143435D01*
X146279193Y-108099257D01*
X146387628Y-108087937D01*
X146495801Y-108109890D01*
G37*
X146495801Y-108109890D02*
X146598257Y-108165536D01*
X146615863Y-108179321D01*
X146691333Y-108262164D01*
X146737401Y-108357255D01*
X146755564Y-108458654D01*
X146747322Y-108560423D01*
X146714172Y-108656621D01*
X146657614Y-108741309D01*
X146579144Y-108808547D01*
X146480262Y-108852396D01*
X146444000Y-108860616D01*
X146385825Y-108868155D01*
X146337583Y-108869740D01*
X146326072Y-108868580D01*
X146203857Y-108832054D01*
X146107890Y-108770804D01*
X146037346Y-108684268D01*
X146026400Y-108664240D01*
X145984932Y-108548705D01*
X145979225Y-108436507D01*
X146009011Y-108329734D01*
X146074023Y-108230475D01*
X146083362Y-108220052D01*
X146175952Y-108143435D01*
X146279193Y-108099257D01*
X146387628Y-108087937D01*
X146495801Y-108109890D01*
G36*
X147452454Y-110202373D02*
G01*
X147549956Y-110247066D01*
X147630086Y-110314903D01*
X147689232Y-110400439D01*
X147723783Y-110498232D01*
X147730126Y-110602840D01*
X147704650Y-110708818D01*
X147698056Y-110724072D01*
X147634588Y-110824438D01*
X147551069Y-110899488D01*
X147453326Y-110946945D01*
X147347185Y-110964532D01*
X147238474Y-110949972D01*
X147178786Y-110926996D01*
X147075623Y-110861340D01*
X147004276Y-110778747D01*
X146963525Y-110677289D01*
X146952000Y-110568646D01*
X146968629Y-110454234D01*
X147015538Y-110354670D01*
X147088264Y-110274340D01*
X147182344Y-110217630D01*
X147293313Y-110188924D01*
X147341191Y-110186266D01*
X147452454Y-110202373D01*
G37*
X147452454Y-110202373D02*
X147549956Y-110247066D01*
X147630086Y-110314903D01*
X147689232Y-110400439D01*
X147723783Y-110498232D01*
X147730126Y-110602840D01*
X147704650Y-110708818D01*
X147698056Y-110724072D01*
X147634588Y-110824438D01*
X147551069Y-110899488D01*
X147453326Y-110946945D01*
X147347185Y-110964532D01*
X147238474Y-110949972D01*
X147178786Y-110926996D01*
X147075623Y-110861340D01*
X147004276Y-110778747D01*
X146963525Y-110677289D01*
X146952000Y-110568646D01*
X146968629Y-110454234D01*
X147015538Y-110354670D01*
X147088264Y-110274340D01*
X147182344Y-110217630D01*
X147293313Y-110188924D01*
X147341191Y-110186266D01*
X147452454Y-110202373D01*
G36*
X153684645Y-108101133D02*
G01*
X153779762Y-108146985D01*
X153858297Y-108216161D01*
X153916950Y-108302881D01*
X153952421Y-108401363D01*
X153961409Y-108505828D01*
X153940614Y-108610494D01*
X153911807Y-108672117D01*
X153842053Y-108763362D01*
X153756373Y-108823248D01*
X153650778Y-108854127D01*
X153594291Y-108859243D01*
X153524693Y-108858935D01*
X153463828Y-108853339D01*
X153429543Y-108845193D01*
X153329154Y-108784722D01*
X153252633Y-108701013D01*
X153203131Y-108600323D01*
X153183800Y-108488911D01*
X153195730Y-108380886D01*
X153236193Y-108288752D01*
X153304123Y-108206365D01*
X153390930Y-108140419D01*
X153488025Y-108097608D01*
X153576248Y-108084387D01*
X153684645Y-108101133D01*
G37*
X153684645Y-108101133D02*
X153779762Y-108146985D01*
X153858297Y-108216161D01*
X153916950Y-108302881D01*
X153952421Y-108401363D01*
X153961409Y-108505828D01*
X153940614Y-108610494D01*
X153911807Y-108672117D01*
X153842053Y-108763362D01*
X153756373Y-108823248D01*
X153650778Y-108854127D01*
X153594291Y-108859243D01*
X153524693Y-108858935D01*
X153463828Y-108853339D01*
X153429543Y-108845193D01*
X153329154Y-108784722D01*
X153252633Y-108701013D01*
X153203131Y-108600323D01*
X153183800Y-108488911D01*
X153195730Y-108380886D01*
X153236193Y-108288752D01*
X153304123Y-108206365D01*
X153390930Y-108140419D01*
X153488025Y-108097608D01*
X153576248Y-108084387D01*
X153684645Y-108101133D01*
G36*
X153448691Y-109254707D02*
G01*
X153551072Y-109290690D01*
X153611685Y-109330913D01*
X153686559Y-109415788D01*
X153731929Y-109515048D01*
X153747679Y-109621790D01*
X153733690Y-109729113D01*
X153689844Y-109830112D01*
X153621625Y-109912819D01*
X153521619Y-109983754D01*
X153414512Y-110019312D01*
X153301527Y-110019229D01*
X153222848Y-109998996D01*
X153125773Y-109947088D01*
X153051722Y-109872794D01*
X153001498Y-109782414D01*
X152975903Y-109682246D01*
X152975741Y-109578592D01*
X153001814Y-109477749D01*
X153054925Y-109386018D01*
X153135076Y-109310259D01*
X153230497Y-109264050D01*
X153338434Y-109245679D01*
X153448691Y-109254707D01*
G37*
X153448691Y-109254707D02*
X153551072Y-109290690D01*
X153611685Y-109330913D01*
X153686559Y-109415788D01*
X153731929Y-109515048D01*
X153747679Y-109621790D01*
X153733690Y-109729113D01*
X153689844Y-109830112D01*
X153621625Y-109912819D01*
X153521619Y-109983754D01*
X153414512Y-110019312D01*
X153301527Y-110019229D01*
X153222848Y-109998996D01*
X153125773Y-109947088D01*
X153051722Y-109872794D01*
X153001498Y-109782414D01*
X152975903Y-109682246D01*
X152975741Y-109578592D01*
X153001814Y-109477749D01*
X153054925Y-109386018D01*
X153135076Y-109310259D01*
X153230497Y-109264050D01*
X153338434Y-109245679D01*
X153448691Y-109254707D01*
G36*
X148379867Y-109623629D02*
G01*
X148480635Y-109650915D01*
X148572713Y-109706184D01*
X148647552Y-109786742D01*
X148676038Y-109830845D01*
X148692632Y-109870467D01*
X148700481Y-109918177D01*
X148702730Y-109986545D01*
X148702786Y-110007429D01*
X148701413Y-110082627D01*
X148695195Y-110134150D01*
X148680987Y-110174566D01*
X148655643Y-110216448D01*
X148647552Y-110228116D01*
X148569062Y-110310442D01*
X148471137Y-110367369D01*
X148362075Y-110395853D01*
X148250174Y-110392850D01*
X148218158Y-110385595D01*
X148138120Y-110348348D01*
X148060611Y-110286534D01*
X147996828Y-110210823D01*
X147960615Y-110140210D01*
X147937263Y-110052778D01*
X147934852Y-109977525D01*
X147953315Y-109897045D01*
X147959634Y-109878431D01*
X148012157Y-109778022D01*
X148086555Y-109701523D01*
X148176714Y-109649747D01*
X148276522Y-109623511D01*
X148379867Y-109623629D01*
G37*
X148379867Y-109623629D02*
X148480635Y-109650915D01*
X148572713Y-109706184D01*
X148647552Y-109786742D01*
X148676038Y-109830845D01*
X148692632Y-109870467D01*
X148700481Y-109918177D01*
X148702730Y-109986545D01*
X148702786Y-110007429D01*
X148701413Y-110082627D01*
X148695195Y-110134150D01*
X148680987Y-110174566D01*
X148655643Y-110216448D01*
X148647552Y-110228116D01*
X148569062Y-110310442D01*
X148471137Y-110367369D01*
X148362075Y-110395853D01*
X148250174Y-110392850D01*
X148218158Y-110385595D01*
X148138120Y-110348348D01*
X148060611Y-110286534D01*
X147996828Y-110210823D01*
X147960615Y-110140210D01*
X147937263Y-110052778D01*
X147934852Y-109977525D01*
X147953315Y-109897045D01*
X147959634Y-109878431D01*
X148012157Y-109778022D01*
X148086555Y-109701523D01*
X148176714Y-109649747D01*
X148276522Y-109623511D01*
X148379867Y-109623629D01*
G36*
X148229876Y-108215024D02*
G01*
X148302767Y-108239434D01*
X148373007Y-108286820D01*
X148401420Y-108311416D01*
X148473232Y-108397794D01*
X148514474Y-108494582D01*
X148527086Y-108596063D01*
X148513003Y-108696522D01*
X148474165Y-108790243D01*
X148412508Y-108871509D01*
X148329970Y-108934606D01*
X148228488Y-108973816D01*
X148173966Y-108982444D01*
X148110060Y-108983927D01*
X148052873Y-108978371D01*
X148036291Y-108974375D01*
X147928043Y-108922707D01*
X147842228Y-108846952D01*
X147783020Y-108752106D01*
X147754592Y-108643167D01*
X147753951Y-108636230D01*
X147760320Y-108518435D01*
X147796926Y-108412991D01*
X147859564Y-108324580D01*
X147944028Y-108257886D01*
X148046113Y-108217589D01*
X148138997Y-108207517D01*
X148229876Y-108215024D01*
G37*
X148229876Y-108215024D02*
X148302767Y-108239434D01*
X148373007Y-108286820D01*
X148401420Y-108311416D01*
X148473232Y-108397794D01*
X148514474Y-108494582D01*
X148527086Y-108596063D01*
X148513003Y-108696522D01*
X148474165Y-108790243D01*
X148412508Y-108871509D01*
X148329970Y-108934606D01*
X148228488Y-108973816D01*
X148173966Y-108982444D01*
X148110060Y-108983927D01*
X148052873Y-108978371D01*
X148036291Y-108974375D01*
X147928043Y-108922707D01*
X147842228Y-108846952D01*
X147783020Y-108752106D01*
X147754592Y-108643167D01*
X147753951Y-108636230D01*
X147760320Y-108518435D01*
X147796926Y-108412991D01*
X147859564Y-108324580D01*
X147944028Y-108257886D01*
X148046113Y-108217589D01*
X148138997Y-108207517D01*
X148229876Y-108215024D01*
G36*
X151896787Y-108215338D02*
G01*
X151970322Y-108240652D01*
X152042023Y-108289771D01*
X152060047Y-108305165D01*
X152133940Y-108391515D01*
X152177374Y-108489261D01*
X152191749Y-108592430D01*
X152178462Y-108695046D01*
X152138914Y-108791135D01*
X152074501Y-108874722D01*
X151986624Y-108939832D01*
X151903541Y-108973705D01*
X151814203Y-108989431D01*
X151729252Y-108979877D01*
X151682714Y-108965544D01*
X151574606Y-108909667D01*
X151492251Y-108830262D01*
X151438375Y-108731114D01*
X151415701Y-108616008D01*
X151415143Y-108593836D01*
X151431717Y-108477794D01*
X151478470Y-108376993D01*
X151550950Y-108295839D01*
X151644706Y-108238741D01*
X151755285Y-108210107D01*
X151805215Y-108207624D01*
X151896787Y-108215338D01*
G37*
X151896787Y-108215338D02*
X151970322Y-108240652D01*
X152042023Y-108289771D01*
X152060047Y-108305165D01*
X152133940Y-108391515D01*
X152177374Y-108489261D01*
X152191749Y-108592430D01*
X152178462Y-108695046D01*
X152138914Y-108791135D01*
X152074501Y-108874722D01*
X151986624Y-108939832D01*
X151903541Y-108973705D01*
X151814203Y-108989431D01*
X151729252Y-108979877D01*
X151682714Y-108965544D01*
X151574606Y-108909667D01*
X151492251Y-108830262D01*
X151438375Y-108731114D01*
X151415701Y-108616008D01*
X151415143Y-108593836D01*
X151431717Y-108477794D01*
X151478470Y-108376993D01*
X151550950Y-108295839D01*
X151644706Y-108238741D01*
X151755285Y-108210107D01*
X151805215Y-108207624D01*
X151896787Y-108215338D01*
G36*
X152693409Y-110193015D02*
G01*
X152766026Y-110217144D01*
X152836361Y-110264574D01*
X152864563Y-110288987D01*
X152936729Y-110376254D01*
X152979014Y-110475845D01*
X152992057Y-110581112D01*
X152976496Y-110685405D01*
X152932973Y-110782074D01*
X152862125Y-110864470D01*
X152805336Y-110905133D01*
X152710119Y-110945158D01*
X152607851Y-110961870D01*
X152511858Y-110953618D01*
X152483487Y-110945008D01*
X152381782Y-110893402D01*
X152306069Y-110821558D01*
X152260347Y-110747600D01*
X152221503Y-110633374D01*
X152217712Y-110520947D01*
X152248150Y-110414667D01*
X152311991Y-110318881D01*
X152348668Y-110282737D01*
X152422167Y-110227329D01*
X152493602Y-110197319D01*
X152578991Y-110186643D01*
X152603500Y-110186285D01*
X152693409Y-110193015D01*
G37*
X152693409Y-110193015D02*
X152766026Y-110217144D01*
X152836361Y-110264574D01*
X152864563Y-110288987D01*
X152936729Y-110376254D01*
X152979014Y-110475845D01*
X152992057Y-110581112D01*
X152976496Y-110685405D01*
X152932973Y-110782074D01*
X152862125Y-110864470D01*
X152805336Y-110905133D01*
X152710119Y-110945158D01*
X152607851Y-110961870D01*
X152511858Y-110953618D01*
X152483487Y-110945008D01*
X152381782Y-110893402D01*
X152306069Y-110821558D01*
X152260347Y-110747600D01*
X152221503Y-110633374D01*
X152217712Y-110520947D01*
X152248150Y-110414667D01*
X152311991Y-110318881D01*
X152348668Y-110282737D01*
X152422167Y-110227329D01*
X152493602Y-110197319D01*
X152578991Y-110186643D01*
X152603500Y-110186285D01*
X152693409Y-110193015D01*
D12*
%TO.C,REF\u002A\u002A*%
X128400000Y-103330000D02*
X128400000Y-102000000D01*
X131000000Y-100670000D02*
X133600000Y-100670000D01*
X133600000Y-103330000D02*
X133600000Y-100670000D01*
X129730000Y-103330000D02*
X128400000Y-103330000D01*
X131000000Y-103330000D02*
X131000000Y-100670000D01*
X131000000Y-103330000D02*
X133600000Y-103330000D01*
X169000000Y-100670000D02*
X171600000Y-100670000D01*
X166400000Y-103330000D02*
X166400000Y-102000000D01*
X169000000Y-103330000D02*
X171600000Y-103330000D01*
X171600000Y-103330000D02*
X171600000Y-100670000D01*
X167730000Y-103330000D02*
X166400000Y-103330000D01*
X169000000Y-103330000D02*
X169000000Y-100670000D01*
%TO.C,U1*%
X168271000Y-85580000D02*
X168271000Y-75340000D01*
X163630000Y-82310000D02*
X165140000Y-82310000D01*
X163630000Y-85580000D02*
X163630000Y-75340000D01*
X163630000Y-78609000D02*
X165140000Y-78609000D01*
X163630000Y-75340000D02*
X168271000Y-75340000D01*
X165140000Y-85580000D02*
X165140000Y-75340000D01*
X163630000Y-85580000D02*
X168271000Y-85580000D01*
%TO.C,SW1*%
X175700000Y-63600000D02*
X175700000Y-69600000D01*
X163700000Y-63600000D02*
X175700000Y-63600000D01*
X163700000Y-69600000D02*
X163700000Y-63600000D01*
X175700000Y-69600000D02*
X163700000Y-69600000D01*
%TO.C,D3*%
X171530000Y-73970000D02*
X171530000Y-73640000D01*
X167110000Y-71030000D02*
X167110000Y-73970000D01*
X166090000Y-73970000D02*
X171530000Y-73970000D01*
X166870000Y-71030000D02*
X166870000Y-73970000D01*
X171530000Y-71030000D02*
X171530000Y-71360000D01*
X166990000Y-71030000D02*
X166990000Y-73970000D01*
X166090000Y-73640000D02*
X166090000Y-73970000D01*
X166090000Y-71030000D02*
X171530000Y-71030000D01*
X166090000Y-71360000D02*
X166090000Y-71030000D01*
%TO.C,C1*%
X173291000Y-78540000D02*
X173291000Y-79942000D01*
X174211000Y-75599000D02*
X174211000Y-76460000D01*
X174291000Y-75674000D02*
X174291000Y-76460000D01*
X173130000Y-75009000D02*
X173130000Y-76460000D01*
X173050000Y-74989000D02*
X173050000Y-76460000D01*
X174611000Y-78540000D02*
X174611000Y-78943000D01*
X173931000Y-75378000D02*
X173931000Y-76460000D01*
X173331000Y-75072000D02*
X173331000Y-76460000D01*
X174491000Y-75895000D02*
X174491000Y-76460000D01*
X173731000Y-75253000D02*
X173731000Y-76460000D01*
X174731000Y-78540000D02*
X174731000Y-78751000D01*
X174651000Y-78540000D02*
X174651000Y-78883000D01*
X174891000Y-76585000D02*
X174891000Y-78415000D01*
X172570000Y-74922000D02*
X172570000Y-80078000D01*
X173771000Y-78540000D02*
X173771000Y-79724000D01*
X172490000Y-74920000D02*
X172490000Y-80080000D01*
X174771000Y-76322000D02*
X174771000Y-78678000D01*
X173251000Y-78540000D02*
X173251000Y-79955000D01*
X173411000Y-75102000D02*
X173411000Y-76460000D01*
X172890000Y-78540000D02*
X172890000Y-80043000D01*
X174971000Y-76823000D02*
X174971000Y-78177000D01*
X174531000Y-78540000D02*
X174531000Y-79054000D01*
X174411000Y-78540000D02*
X174411000Y-79199000D01*
X175011000Y-76982000D02*
X175011000Y-78018000D01*
X173691000Y-75232000D02*
X173691000Y-76460000D01*
X172690000Y-74931000D02*
X172690000Y-76460000D01*
X172730000Y-78540000D02*
X172730000Y-80065000D01*
X174571000Y-78540000D02*
X174571000Y-79000000D01*
X174211000Y-78540000D02*
X174211000Y-79401000D01*
X174011000Y-78540000D02*
X174011000Y-79565000D01*
X173010000Y-78540000D02*
X173010000Y-80020000D01*
X173851000Y-78540000D02*
X173851000Y-79675000D01*
X174051000Y-75465000D02*
X174051000Y-76460000D01*
X174251000Y-75636000D02*
X174251000Y-76460000D01*
X173611000Y-75190000D02*
X173611000Y-76460000D01*
X173050000Y-78540000D02*
X173050000Y-80011000D01*
X173451000Y-78540000D02*
X173451000Y-79882000D01*
X174251000Y-78540000D02*
X174251000Y-79364000D01*
X173451000Y-75118000D02*
X173451000Y-76460000D01*
X174051000Y-78540000D02*
X174051000Y-79535000D01*
X172930000Y-78540000D02*
X172930000Y-80036000D01*
X174451000Y-78540000D02*
X174451000Y-79153000D01*
X173691000Y-78540000D02*
X173691000Y-79768000D01*
X174651000Y-76117000D02*
X174651000Y-76460000D01*
X173371000Y-75086000D02*
X173371000Y-76460000D01*
X174171000Y-78540000D02*
X174171000Y-79437000D01*
X172690000Y-78540000D02*
X172690000Y-80069000D01*
X173171000Y-78540000D02*
X173171000Y-79980000D01*
X172810000Y-78540000D02*
X172810000Y-80056000D01*
X172970000Y-74972000D02*
X172970000Y-76460000D01*
X173891000Y-78540000D02*
X173891000Y-79649000D01*
X172890000Y-74957000D02*
X172890000Y-76460000D01*
X173651000Y-75210000D02*
X173651000Y-76460000D01*
X175051000Y-77216000D02*
X175051000Y-77784000D01*
X174091000Y-78540000D02*
X174091000Y-79504000D01*
X173090000Y-78540000D02*
X173090000Y-80001000D01*
X174531000Y-75946000D02*
X174531000Y-76460000D01*
X173171000Y-75020000D02*
X173171000Y-76460000D01*
X172650000Y-74927000D02*
X172650000Y-80073000D01*
X174011000Y-75435000D02*
X174011000Y-76460000D01*
X172850000Y-78540000D02*
X172850000Y-80050000D01*
X173010000Y-74980000D02*
X173010000Y-76460000D01*
X173411000Y-78540000D02*
X173411000Y-79898000D01*
X174331000Y-78540000D02*
X174331000Y-79285000D01*
X174411000Y-75801000D02*
X174411000Y-76460000D01*
X173811000Y-75300000D02*
X173811000Y-76460000D01*
X174371000Y-78540000D02*
X174371000Y-79243000D01*
X172610000Y-74924000D02*
X172610000Y-80076000D01*
X174451000Y-75847000D02*
X174451000Y-76460000D01*
X174131000Y-75529000D02*
X174131000Y-76460000D01*
X173971000Y-75405000D02*
X173971000Y-76460000D01*
X173611000Y-78540000D02*
X173611000Y-79810000D01*
X174851000Y-76489000D02*
X174851000Y-78511000D01*
X169645225Y-76025000D02*
X170145225Y-76025000D01*
X172770000Y-74939000D02*
X172770000Y-76460000D01*
X173491000Y-75135000D02*
X173491000Y-76460000D01*
X174291000Y-78540000D02*
X174291000Y-79326000D01*
X173531000Y-78540000D02*
X173531000Y-79848000D01*
X172730000Y-74935000D02*
X172730000Y-76460000D01*
X172530000Y-74921000D02*
X172530000Y-80079000D01*
X172930000Y-74964000D02*
X172930000Y-76460000D01*
X174691000Y-76181000D02*
X174691000Y-76460000D01*
X169895225Y-75775000D02*
X169895225Y-76275000D01*
X174931000Y-76695000D02*
X174931000Y-78305000D01*
X173211000Y-75032000D02*
X173211000Y-76460000D01*
X172810000Y-74944000D02*
X172810000Y-76460000D01*
X173090000Y-74999000D02*
X173090000Y-76460000D01*
X174611000Y-76057000D02*
X174611000Y-76460000D01*
X173971000Y-78540000D02*
X173971000Y-79595000D01*
X173291000Y-75058000D02*
X173291000Y-76460000D01*
X174171000Y-75563000D02*
X174171000Y-76460000D01*
X174331000Y-75715000D02*
X174331000Y-76460000D01*
X173531000Y-75152000D02*
X173531000Y-76460000D01*
X173931000Y-78540000D02*
X173931000Y-79622000D01*
X174131000Y-78540000D02*
X174131000Y-79471000D01*
X173491000Y-78540000D02*
X173491000Y-79865000D01*
X174371000Y-75757000D02*
X174371000Y-76460000D01*
X174731000Y-76249000D02*
X174731000Y-76460000D01*
X173811000Y-78540000D02*
X173811000Y-79700000D01*
X174571000Y-76000000D02*
X174571000Y-76460000D01*
X173571000Y-78540000D02*
X173571000Y-79829000D01*
X174811000Y-76402000D02*
X174811000Y-78598000D01*
X172770000Y-78540000D02*
X172770000Y-80061000D01*
X173331000Y-78540000D02*
X173331000Y-79928000D01*
X172850000Y-74950000D02*
X172850000Y-76460000D01*
X173891000Y-75351000D02*
X173891000Y-76460000D01*
X173731000Y-78540000D02*
X173731000Y-79747000D01*
X172970000Y-78540000D02*
X172970000Y-80028000D01*
X174091000Y-75496000D02*
X174091000Y-76460000D01*
X173851000Y-75325000D02*
X173851000Y-76460000D01*
X174691000Y-78540000D02*
X174691000Y-78819000D01*
X173571000Y-75171000D02*
X173571000Y-76460000D01*
X173371000Y-78540000D02*
X173371000Y-79914000D01*
X174491000Y-78540000D02*
X174491000Y-79105000D01*
X173651000Y-78540000D02*
X173651000Y-79790000D01*
X173771000Y-75276000D02*
X173771000Y-76460000D01*
X173130000Y-78540000D02*
X173130000Y-79991000D01*
X173251000Y-75045000D02*
X173251000Y-76460000D01*
X173211000Y-78540000D02*
X173211000Y-79968000D01*
X172450000Y-74920000D02*
X172450000Y-80080000D01*
X175070000Y-77500000D02*
G75*
G03*
X175070000Y-77500000I-2620000J0D01*
G01*
%TO.C,C2*%
X174251000Y-84540000D02*
X174251000Y-85364000D01*
X173851000Y-81325000D02*
X173851000Y-82460000D01*
X172690000Y-80931000D02*
X172690000Y-82460000D01*
X174571000Y-82000000D02*
X174571000Y-82460000D01*
X174971000Y-82823000D02*
X174971000Y-84177000D01*
X173211000Y-81032000D02*
X173211000Y-82460000D01*
X173371000Y-84540000D02*
X173371000Y-85914000D01*
X173090000Y-84540000D02*
X173090000Y-86001000D01*
X173171000Y-81020000D02*
X173171000Y-82460000D01*
X174211000Y-84540000D02*
X174211000Y-85401000D01*
X174931000Y-82695000D02*
X174931000Y-84305000D01*
X173531000Y-84540000D02*
X173531000Y-85848000D01*
X173050000Y-80989000D02*
X173050000Y-82460000D01*
X174371000Y-81757000D02*
X174371000Y-82460000D01*
X173211000Y-84540000D02*
X173211000Y-85968000D01*
X169895225Y-81775000D02*
X169895225Y-82275000D01*
X173611000Y-84540000D02*
X173611000Y-85810000D01*
X174011000Y-84540000D02*
X174011000Y-85565000D01*
X174011000Y-81435000D02*
X174011000Y-82460000D01*
X173130000Y-84540000D02*
X173130000Y-85991000D01*
X173171000Y-84540000D02*
X173171000Y-85980000D01*
X174731000Y-82249000D02*
X174731000Y-82460000D01*
X172650000Y-80927000D02*
X172650000Y-86073000D01*
X174331000Y-84540000D02*
X174331000Y-85285000D01*
X173771000Y-81276000D02*
X173771000Y-82460000D01*
X173771000Y-84540000D02*
X173771000Y-85724000D01*
X174611000Y-84540000D02*
X174611000Y-84943000D01*
X173010000Y-80980000D02*
X173010000Y-82460000D01*
X174051000Y-81465000D02*
X174051000Y-82460000D01*
X174651000Y-82117000D02*
X174651000Y-82460000D01*
X172810000Y-84540000D02*
X172810000Y-86056000D01*
X173971000Y-84540000D02*
X173971000Y-85595000D01*
X172570000Y-80922000D02*
X172570000Y-86078000D01*
X174211000Y-81599000D02*
X174211000Y-82460000D01*
X173571000Y-81171000D02*
X173571000Y-82460000D01*
X174851000Y-82489000D02*
X174851000Y-84511000D01*
X173371000Y-81086000D02*
X173371000Y-82460000D01*
X174131000Y-81529000D02*
X174131000Y-82460000D01*
X173130000Y-81009000D02*
X173130000Y-82460000D01*
X173331000Y-84540000D02*
X173331000Y-85928000D01*
X173971000Y-81405000D02*
X173971000Y-82460000D01*
X172730000Y-80935000D02*
X172730000Y-82460000D01*
X173291000Y-84540000D02*
X173291000Y-85942000D01*
X174531000Y-81946000D02*
X174531000Y-82460000D01*
X173731000Y-81253000D02*
X173731000Y-82460000D01*
X172490000Y-80920000D02*
X172490000Y-86080000D01*
X174091000Y-81496000D02*
X174091000Y-82460000D01*
X173891000Y-84540000D02*
X173891000Y-85649000D01*
X172930000Y-84540000D02*
X172930000Y-86036000D01*
X173651000Y-81210000D02*
X173651000Y-82460000D01*
X173291000Y-81058000D02*
X173291000Y-82460000D01*
X172930000Y-80964000D02*
X172930000Y-82460000D01*
X174571000Y-84540000D02*
X174571000Y-85000000D01*
X175011000Y-82982000D02*
X175011000Y-84018000D01*
X174291000Y-81674000D02*
X174291000Y-82460000D01*
X173651000Y-84540000D02*
X173651000Y-85790000D01*
X172890000Y-80957000D02*
X172890000Y-82460000D01*
X174451000Y-84540000D02*
X174451000Y-85153000D01*
X174771000Y-82322000D02*
X174771000Y-84678000D01*
X173891000Y-81351000D02*
X173891000Y-82460000D01*
X174451000Y-81847000D02*
X174451000Y-82460000D01*
X174091000Y-84540000D02*
X174091000Y-85504000D01*
X174691000Y-82181000D02*
X174691000Y-82460000D01*
X173491000Y-84540000D02*
X173491000Y-85865000D01*
X174171000Y-81563000D02*
X174171000Y-82460000D01*
X172850000Y-80950000D02*
X172850000Y-82460000D01*
X169645225Y-82025000D02*
X170145225Y-82025000D01*
X174491000Y-84540000D02*
X174491000Y-85105000D01*
X173491000Y-81135000D02*
X173491000Y-82460000D01*
X174051000Y-84540000D02*
X174051000Y-85535000D01*
X174611000Y-82057000D02*
X174611000Y-82460000D01*
X173451000Y-84540000D02*
X173451000Y-85882000D01*
X173090000Y-80999000D02*
X173090000Y-82460000D01*
X173251000Y-84540000D02*
X173251000Y-85955000D01*
X173251000Y-81045000D02*
X173251000Y-82460000D01*
X174371000Y-84540000D02*
X174371000Y-85243000D01*
X172530000Y-80921000D02*
X172530000Y-86079000D01*
X172450000Y-80920000D02*
X172450000Y-86080000D01*
X172970000Y-80972000D02*
X172970000Y-82460000D01*
X172810000Y-80944000D02*
X172810000Y-82460000D01*
X173731000Y-84540000D02*
X173731000Y-85747000D01*
X174491000Y-81895000D02*
X174491000Y-82460000D01*
X173531000Y-81152000D02*
X173531000Y-82460000D01*
X173811000Y-84540000D02*
X173811000Y-85700000D01*
X173931000Y-81378000D02*
X173931000Y-82460000D01*
X173851000Y-84540000D02*
X173851000Y-85675000D01*
X172690000Y-84540000D02*
X172690000Y-86069000D01*
X172890000Y-84540000D02*
X172890000Y-86043000D01*
X173331000Y-81072000D02*
X173331000Y-82460000D01*
X173451000Y-81118000D02*
X173451000Y-82460000D01*
X173571000Y-84540000D02*
X173571000Y-85829000D01*
X173931000Y-84540000D02*
X173931000Y-85622000D01*
X172770000Y-84540000D02*
X172770000Y-86061000D01*
X174331000Y-81715000D02*
X174331000Y-82460000D01*
X173411000Y-84540000D02*
X173411000Y-85898000D01*
X172970000Y-84540000D02*
X172970000Y-86028000D01*
X174291000Y-84540000D02*
X174291000Y-85326000D01*
X174691000Y-84540000D02*
X174691000Y-84819000D01*
X174651000Y-84540000D02*
X174651000Y-84883000D01*
X174131000Y-84540000D02*
X174131000Y-85471000D01*
X175051000Y-83216000D02*
X175051000Y-83784000D01*
X172610000Y-80924000D02*
X172610000Y-86076000D01*
X174891000Y-82585000D02*
X174891000Y-84415000D01*
X173691000Y-81232000D02*
X173691000Y-82460000D01*
X174411000Y-84540000D02*
X174411000Y-85199000D01*
X172730000Y-84540000D02*
X172730000Y-86065000D01*
X174251000Y-81636000D02*
X174251000Y-82460000D01*
X173050000Y-84540000D02*
X173050000Y-86011000D01*
X173010000Y-84540000D02*
X173010000Y-86020000D01*
X172770000Y-80939000D02*
X172770000Y-82460000D01*
X173811000Y-81300000D02*
X173811000Y-82460000D01*
X174531000Y-84540000D02*
X174531000Y-85054000D01*
X174171000Y-84540000D02*
X174171000Y-85437000D01*
X173691000Y-84540000D02*
X173691000Y-85768000D01*
X172850000Y-84540000D02*
X172850000Y-86050000D01*
X173411000Y-81102000D02*
X173411000Y-82460000D01*
X174731000Y-84540000D02*
X174731000Y-84751000D01*
X174411000Y-81801000D02*
X174411000Y-82460000D01*
X174811000Y-82402000D02*
X174811000Y-84598000D01*
X173611000Y-81190000D02*
X173611000Y-82460000D01*
X175070000Y-83500000D02*
G75*
G03*
X175070000Y-83500000I-2620000J0D01*
G01*
%TO.C,C3*%
X129211000Y-86301000D02*
X129211000Y-86960000D01*
X128691000Y-89040000D02*
X128691000Y-90149000D01*
X127530000Y-89040000D02*
X127530000Y-90565000D01*
X127971000Y-85520000D02*
X127971000Y-86960000D01*
X128091000Y-85558000D02*
X128091000Y-86960000D01*
X127530000Y-85435000D02*
X127530000Y-86960000D01*
X127850000Y-89040000D02*
X127850000Y-90511000D01*
X129011000Y-86099000D02*
X129011000Y-86960000D01*
X128811000Y-89040000D02*
X128811000Y-90065000D01*
X128931000Y-86029000D02*
X128931000Y-86960000D01*
X128011000Y-89040000D02*
X128011000Y-90468000D01*
X129291000Y-86395000D02*
X129291000Y-86960000D01*
X127770000Y-85472000D02*
X127770000Y-86960000D01*
X128531000Y-89040000D02*
X128531000Y-90247000D01*
X127610000Y-85444000D02*
X127610000Y-86960000D01*
X129571000Y-86822000D02*
X129571000Y-89178000D01*
X128291000Y-85635000D02*
X128291000Y-86960000D01*
X128491000Y-85732000D02*
X128491000Y-86960000D01*
X129651000Y-86989000D02*
X129651000Y-89011000D01*
X129611000Y-86902000D02*
X129611000Y-89098000D01*
X127690000Y-89040000D02*
X127690000Y-90543000D01*
X129131000Y-86215000D02*
X129131000Y-86960000D01*
X129051000Y-89040000D02*
X129051000Y-89864000D01*
X129451000Y-89040000D02*
X129451000Y-89383000D01*
X129011000Y-89040000D02*
X129011000Y-89901000D01*
X128371000Y-89040000D02*
X128371000Y-90329000D01*
X129691000Y-87085000D02*
X129691000Y-88915000D01*
X129531000Y-86749000D02*
X129531000Y-86960000D01*
X124695225Y-86275000D02*
X124695225Y-86775000D01*
X128971000Y-86063000D02*
X128971000Y-86960000D01*
X128771000Y-89040000D02*
X128771000Y-90095000D01*
X128731000Y-85878000D02*
X128731000Y-86960000D01*
X129091000Y-89040000D02*
X129091000Y-89826000D01*
X128571000Y-89040000D02*
X128571000Y-90224000D01*
X128131000Y-85572000D02*
X128131000Y-86960000D01*
X129131000Y-89040000D02*
X129131000Y-89785000D01*
X129411000Y-89040000D02*
X129411000Y-89443000D01*
X127730000Y-89040000D02*
X127730000Y-90536000D01*
X129851000Y-87716000D02*
X129851000Y-88284000D01*
X128371000Y-85671000D02*
X128371000Y-86960000D01*
X129171000Y-89040000D02*
X129171000Y-89743000D01*
X129371000Y-86500000D02*
X129371000Y-86960000D01*
X128451000Y-85710000D02*
X128451000Y-86960000D01*
X128251000Y-85618000D02*
X128251000Y-86960000D01*
X129731000Y-87195000D02*
X129731000Y-88805000D01*
X127971000Y-89040000D02*
X127971000Y-90480000D01*
X128411000Y-89040000D02*
X128411000Y-90310000D01*
X128651000Y-89040000D02*
X128651000Y-90175000D01*
X128931000Y-89040000D02*
X128931000Y-89971000D01*
X127490000Y-89040000D02*
X127490000Y-90569000D01*
X128331000Y-85652000D02*
X128331000Y-86960000D01*
X128291000Y-89040000D02*
X128291000Y-90365000D01*
X128571000Y-85776000D02*
X128571000Y-86960000D01*
X128891000Y-85996000D02*
X128891000Y-86960000D01*
X128771000Y-85905000D02*
X128771000Y-86960000D01*
X129051000Y-86136000D02*
X129051000Y-86960000D01*
X127810000Y-85480000D02*
X127810000Y-86960000D01*
X128731000Y-89040000D02*
X128731000Y-90122000D01*
X128211000Y-89040000D02*
X128211000Y-90398000D01*
X128971000Y-89040000D02*
X128971000Y-89937000D01*
X129251000Y-89040000D02*
X129251000Y-89653000D01*
X129331000Y-89040000D02*
X129331000Y-89554000D01*
X124445225Y-86525000D02*
X124945225Y-86525000D01*
X127570000Y-85439000D02*
X127570000Y-86960000D01*
X129251000Y-86347000D02*
X129251000Y-86960000D01*
X128691000Y-85851000D02*
X128691000Y-86960000D01*
X129531000Y-89040000D02*
X129531000Y-89251000D01*
X129811000Y-87482000D02*
X129811000Y-88518000D01*
X128611000Y-89040000D02*
X128611000Y-90200000D01*
X129411000Y-86557000D02*
X129411000Y-86960000D01*
X129451000Y-86617000D02*
X129451000Y-86960000D01*
X127690000Y-85457000D02*
X127690000Y-86960000D01*
X128651000Y-85825000D02*
X128651000Y-86960000D01*
X129291000Y-89040000D02*
X129291000Y-89605000D01*
X127290000Y-85420000D02*
X127290000Y-90580000D01*
X128051000Y-85545000D02*
X128051000Y-86960000D01*
X128131000Y-89040000D02*
X128131000Y-90428000D01*
X127250000Y-85420000D02*
X127250000Y-90580000D01*
X127490000Y-85431000D02*
X127490000Y-86960000D01*
X127570000Y-89040000D02*
X127570000Y-90561000D01*
X128451000Y-89040000D02*
X128451000Y-90290000D01*
X129211000Y-89040000D02*
X129211000Y-89699000D01*
X128011000Y-85532000D02*
X128011000Y-86960000D01*
X128171000Y-89040000D02*
X128171000Y-90414000D01*
X128491000Y-89040000D02*
X128491000Y-90268000D01*
X127890000Y-85499000D02*
X127890000Y-86960000D01*
X128171000Y-85586000D02*
X128171000Y-86960000D01*
X128531000Y-85753000D02*
X128531000Y-86960000D01*
X127930000Y-85509000D02*
X127930000Y-86960000D01*
X128811000Y-85935000D02*
X128811000Y-86960000D01*
X128251000Y-89040000D02*
X128251000Y-90382000D01*
X127850000Y-85489000D02*
X127850000Y-86960000D01*
X127770000Y-89040000D02*
X127770000Y-90528000D01*
X128331000Y-89040000D02*
X128331000Y-90348000D01*
X128851000Y-89040000D02*
X128851000Y-90035000D01*
X127810000Y-89040000D02*
X127810000Y-90520000D01*
X128851000Y-85965000D02*
X128851000Y-86960000D01*
X128051000Y-89040000D02*
X128051000Y-90455000D01*
X129491000Y-89040000D02*
X129491000Y-89319000D01*
X127450000Y-85427000D02*
X127450000Y-90573000D01*
X128211000Y-85602000D02*
X128211000Y-86960000D01*
X127410000Y-85424000D02*
X127410000Y-90576000D01*
X128891000Y-89040000D02*
X128891000Y-90004000D01*
X127370000Y-85422000D02*
X127370000Y-90578000D01*
X127650000Y-85450000D02*
X127650000Y-86960000D01*
X128091000Y-89040000D02*
X128091000Y-90442000D01*
X129371000Y-89040000D02*
X129371000Y-89500000D01*
X127930000Y-89040000D02*
X127930000Y-90491000D01*
X129491000Y-86681000D02*
X129491000Y-86960000D01*
X129091000Y-86174000D02*
X129091000Y-86960000D01*
X128411000Y-85690000D02*
X128411000Y-86960000D01*
X127730000Y-85464000D02*
X127730000Y-86960000D01*
X128611000Y-85800000D02*
X128611000Y-86960000D01*
X127330000Y-85421000D02*
X127330000Y-90579000D01*
X127890000Y-89040000D02*
X127890000Y-90501000D01*
X129171000Y-86257000D02*
X129171000Y-86960000D01*
X129771000Y-87323000D02*
X129771000Y-88677000D01*
X127610000Y-89040000D02*
X127610000Y-90556000D01*
X127650000Y-89040000D02*
X127650000Y-90550000D01*
X129331000Y-86446000D02*
X129331000Y-86960000D01*
X129870000Y-88000000D02*
G75*
G03*
X129870000Y-88000000I-2620000J0D01*
G01*
%TO.C,J1*%
X178080000Y-58000000D02*
X192080000Y-58000000D01*
X192080000Y-58000000D02*
X192080000Y-44000000D01*
X178080000Y-44000000D02*
X178080000Y-58000000D01*
X192080000Y-44000000D02*
X178080000Y-44000000D01*
%TO.C,D1*%
X169410000Y-116455000D02*
X169410000Y-119545000D01*
X174960000Y-118000462D02*
G75*
G03*
X169410000Y-116455170I-2990000J462D01*
G01*
X169410000Y-119544830D02*
G75*
G03*
X174960000Y-117999538I2560000J1544830D01*
G01*
X174470000Y-118000000D02*
G75*
G03*
X174470000Y-118000000I-2500000J0D01*
G01*
%TO.C,R2*%
X132157600Y-112500000D02*
X131387600Y-112500000D01*
X131387600Y-111130000D02*
X124847600Y-111130000D01*
X124077600Y-112500000D02*
X124847600Y-112500000D01*
X131387600Y-113870000D02*
X131387600Y-111130000D01*
X124847600Y-111130000D02*
X124847600Y-113870000D01*
X124847600Y-113870000D02*
X131387600Y-113870000D01*
%TO.C,D2*%
X130540000Y-119545000D02*
X130540000Y-116455000D01*
X124990000Y-117999538D02*
G75*
G03*
X130540000Y-119544830I2990000J-462D01*
G01*
X130540000Y-116455170D02*
G75*
G03*
X124990000Y-118000462I-2560000J-1544830D01*
G01*
X130480000Y-118000000D02*
G75*
G03*
X130480000Y-118000000I-2500000J0D01*
G01*
%TO.C,G\u002A\u002A\u002A*%
G36*
X157518104Y-113996693D02*
G01*
X157622195Y-113700992D01*
X157772564Y-113456681D01*
X157803951Y-113420281D01*
X158006539Y-113260951D01*
X158249825Y-113167927D01*
X158512843Y-113141199D01*
X158774628Y-113180759D01*
X159014217Y-113286599D01*
X159177557Y-113420845D01*
X159254758Y-113524918D01*
X159340178Y-113670768D01*
X159381300Y-113753505D01*
X159424433Y-113856587D01*
X159453826Y-113958862D01*
X159472033Y-114080877D01*
X159481609Y-114243178D01*
X159485110Y-114466310D01*
X159485383Y-114590552D01*
X159484434Y-114839730D01*
X159479424Y-115019422D01*
X159467114Y-115150690D01*
X159444263Y-115254598D01*
X159407631Y-115352208D01*
X159353978Y-115464583D01*
X159349554Y-115473440D01*
X159190620Y-115723912D01*
X158999634Y-115894140D01*
X158765504Y-115991972D01*
X158575537Y-116021185D01*
X158333688Y-116018588D01*
X158135218Y-115976517D01*
X158134121Y-115976110D01*
X157988589Y-115905552D01*
X157860327Y-115817694D01*
X157846662Y-115805552D01*
X157680108Y-115593214D01*
X157557826Y-115320350D01*
X157480150Y-115005613D01*
X157447416Y-114667657D01*
X157449410Y-114613190D01*
X158037617Y-114613190D01*
X158050276Y-114938062D01*
X158089577Y-115185148D01*
X158158609Y-115364097D01*
X158260461Y-115484561D01*
X158330838Y-115529010D01*
X158430991Y-115573895D01*
X158504417Y-115580180D01*
X158602168Y-115550041D01*
X158624651Y-115541538D01*
X158752270Y-115445299D01*
X158848076Y-115268544D01*
X158910377Y-115016151D01*
X158937484Y-114693000D01*
X158938436Y-114635828D01*
X158924021Y-114271188D01*
X158874211Y-113986076D01*
X158789388Y-113782042D01*
X158703214Y-113683305D01*
X158547193Y-113604871D01*
X158391470Y-113616827D01*
X158272307Y-113685734D01*
X158174714Y-113789648D01*
X158105989Y-113932431D01*
X158062681Y-114127715D01*
X158041340Y-114389135D01*
X158037617Y-114613190D01*
X157449410Y-114613190D01*
X157459955Y-114325132D01*
X157518104Y-113996693D01*
G37*
G36*
X150829495Y-114913812D02*
G01*
X151016177Y-114784980D01*
X151276080Y-114707545D01*
X151595989Y-114682099D01*
X151772243Y-114680198D01*
X151876701Y-114671782D01*
X151928117Y-114650923D01*
X151945247Y-114611694D01*
X151946881Y-114571200D01*
X151908255Y-114457297D01*
X151822371Y-114362199D01*
X151753335Y-114314209D01*
X151679920Y-114287209D01*
X151577961Y-114277813D01*
X151423296Y-114282637D01*
X151307533Y-114290090D01*
X150917205Y-114317078D01*
X150891635Y-114126437D01*
X150881683Y-114010014D01*
X150900340Y-113935252D01*
X150963493Y-113889795D01*
X151087025Y-113861287D01*
X151259545Y-113840275D01*
X151628707Y-113825159D01*
X151931057Y-113867177D01*
X152171029Y-113967574D01*
X152353056Y-114127592D01*
X152372273Y-114152272D01*
X152406371Y-114204474D01*
X152431680Y-114265958D01*
X152449826Y-114350953D01*
X152462435Y-114473687D01*
X152471133Y-114648391D01*
X152477549Y-114889292D01*
X152481618Y-115108834D01*
X152495678Y-115937722D01*
X152255237Y-115965073D01*
X151909298Y-115999756D01*
X151637123Y-116015891D01*
X151423942Y-116013931D01*
X151261707Y-115995560D01*
X151009106Y-115919046D01*
X150830270Y-115791276D01*
X150721696Y-115608206D01*
X150679877Y-115365790D01*
X150679144Y-115323327D01*
X150679280Y-115322496D01*
X151223555Y-115322496D01*
X151261969Y-115451279D01*
X151323087Y-115516149D01*
X151447608Y-115563983D01*
X151635628Y-115585796D01*
X151685297Y-115586631D01*
X151946881Y-115586631D01*
X151946881Y-115342455D01*
X151937675Y-115181663D01*
X151898280Y-115091152D01*
X151811026Y-115051520D01*
X151674467Y-115043315D01*
X151523493Y-115062000D01*
X151378496Y-115109302D01*
X151275927Y-115172094D01*
X151258032Y-115193296D01*
X151223555Y-115322496D01*
X150679280Y-115322496D01*
X150716872Y-115093457D01*
X150829495Y-114913812D01*
G37*
G36*
X146948912Y-114599046D02*
G01*
X147011658Y-114421541D01*
X147101148Y-114266950D01*
X147266121Y-114068014D01*
X147460546Y-113936513D01*
X147701332Y-113864379D01*
X147988756Y-113843493D01*
X148182650Y-113847156D01*
X148318765Y-113863219D01*
X148429745Y-113899292D01*
X148548238Y-113962988D01*
X148577347Y-113980719D01*
X148807938Y-114172018D01*
X148965395Y-114416401D01*
X149049187Y-114712836D01*
X149063913Y-114927537D01*
X149051459Y-115158837D01*
X149010526Y-115335920D01*
X148969447Y-115430559D01*
X148792009Y-115685094D01*
X148561739Y-115874812D01*
X148293354Y-115993784D01*
X148001572Y-116036082D01*
X147701109Y-115995779D01*
X147625613Y-115971836D01*
X147345940Y-115829845D01*
X147133911Y-115629993D01*
X146993916Y-115377990D01*
X146930343Y-115079547D01*
X146929403Y-115065960D01*
X146925808Y-114902557D01*
X147480407Y-114902557D01*
X147504328Y-115117134D01*
X147572100Y-115309852D01*
X147675808Y-115459966D01*
X147807538Y-115546732D01*
X147839603Y-115555281D01*
X148014962Y-115560538D01*
X148188234Y-115519236D01*
X148297069Y-115457082D01*
X148422510Y-115291643D01*
X148489350Y-115077057D01*
X148494040Y-114836068D01*
X148433032Y-114591423D01*
X148432356Y-114589729D01*
X148324243Y-114418004D01*
X148177306Y-114314831D01*
X148009608Y-114278311D01*
X147839215Y-114306545D01*
X147684191Y-114397634D01*
X147562603Y-114549680D01*
X147508253Y-114686865D01*
X147480407Y-114902557D01*
X146925808Y-114902557D01*
X146923637Y-114803884D01*
X146948912Y-114599046D01*
G37*
G36*
X150091171Y-114077214D02*
G01*
X150092308Y-114404764D01*
X150095198Y-114706384D01*
X150099569Y-114969057D01*
X150105148Y-115179763D01*
X150111666Y-115325486D01*
X150118584Y-115392271D01*
X150186161Y-115484602D01*
X150297350Y-115542362D01*
X150398188Y-115584552D01*
X150432816Y-115640350D01*
X150424486Y-115736722D01*
X150395339Y-115881609D01*
X150357603Y-115958435D01*
X150289682Y-115988753D01*
X150169982Y-115994116D01*
X150166584Y-115994117D01*
X149933427Y-115952602D01*
X149814931Y-115890887D01*
X149741291Y-115838932D01*
X149682648Y-115786244D01*
X149637288Y-115722395D01*
X149603498Y-115636957D01*
X149579566Y-115519504D01*
X149563779Y-115359606D01*
X149554424Y-115146838D01*
X149549787Y-114870770D01*
X149548156Y-114520976D01*
X149547905Y-114265350D01*
X149547110Y-113884686D01*
X149546847Y-113584636D01*
X149549645Y-113355287D01*
X149558033Y-113186721D01*
X149574538Y-113069025D01*
X149601691Y-112992283D01*
X149642018Y-112946578D01*
X149698049Y-112921996D01*
X149772313Y-112908622D01*
X149867338Y-112896539D01*
X149898128Y-112892019D01*
X150090553Y-112862094D01*
X150091171Y-114077214D01*
G37*
G36*
X146493219Y-113871391D02*
G01*
X146615186Y-113906924D01*
X146668411Y-113944640D01*
X146672969Y-114004368D01*
X146665105Y-114041177D01*
X146621800Y-114206185D01*
X146581333Y-114298100D01*
X146528036Y-114332470D01*
X146446242Y-114324844D01*
X146393134Y-114311073D01*
X146174999Y-114279960D01*
X145961334Y-114299500D01*
X145783126Y-114365025D01*
X145717810Y-114412811D01*
X145602187Y-114578271D01*
X145539596Y-114789133D01*
X145531404Y-115016430D01*
X145578978Y-115231195D01*
X145671634Y-115391030D01*
X145816669Y-115492952D01*
X146027339Y-115545231D01*
X146292124Y-115545619D01*
X146398088Y-115532682D01*
X146528409Y-115515283D01*
X146614665Y-115508231D01*
X146633307Y-115510015D01*
X146649151Y-115556899D01*
X146675817Y-115661758D01*
X146688148Y-115715151D01*
X146711247Y-115837316D01*
X146702491Y-115901693D01*
X146653300Y-115938003D01*
X146619914Y-115951503D01*
X146453204Y-115991773D01*
X146234931Y-116014128D01*
X146002524Y-116017397D01*
X145793412Y-116000412D01*
X145695981Y-115980377D01*
X145418007Y-115861716D01*
X145207183Y-115682427D01*
X145063853Y-115443011D01*
X144988359Y-115143969D01*
X144975768Y-114930124D01*
X145001478Y-114630309D01*
X145083009Y-114387697D01*
X145228720Y-114182375D01*
X145330049Y-114085937D01*
X145591586Y-113920154D01*
X145893559Y-113832871D01*
X146229143Y-113825346D01*
X146493219Y-113871391D01*
G37*
G36*
X144046475Y-113830596D02*
G01*
X144227970Y-113850671D01*
X144382856Y-113878930D01*
X144484445Y-113911151D01*
X144504019Y-113924042D01*
X144510373Y-113977428D01*
X144501336Y-114085963D01*
X144495170Y-114128464D01*
X144465768Y-114312332D01*
X144074083Y-114286956D01*
X143875755Y-114277064D01*
X143747769Y-114279830D01*
X143670540Y-114297269D01*
X143624485Y-114331392D01*
X143622841Y-114333341D01*
X143578207Y-114432210D01*
X143616285Y-114525921D01*
X143739753Y-114617742D01*
X143923700Y-114700548D01*
X144183221Y-114808550D01*
X144368755Y-114908288D01*
X144494972Y-115009924D01*
X144576544Y-115123622D01*
X144596645Y-115166662D01*
X144645328Y-115387172D01*
X144608305Y-115594940D01*
X144490415Y-115778142D01*
X144296501Y-115924955D01*
X144283290Y-115931966D01*
X144146919Y-115975435D01*
X143950282Y-116004594D01*
X143722732Y-116018104D01*
X143493620Y-116014625D01*
X143292301Y-115992820D01*
X143231194Y-115979954D01*
X143004813Y-115923285D01*
X143015875Y-115743639D01*
X143029470Y-115586680D01*
X143057740Y-115505083D01*
X143118793Y-115483721D01*
X143230740Y-115507469D01*
X143280868Y-115522305D01*
X143509386Y-115573106D01*
X143718227Y-115586757D01*
X143891465Y-115565537D01*
X144013176Y-115511726D01*
X144067432Y-115427607D01*
X144068806Y-115409476D01*
X144059748Y-115349078D01*
X144023014Y-115296718D01*
X143944263Y-115242503D01*
X143809155Y-115176538D01*
X143605447Y-115089799D01*
X143355225Y-114971518D01*
X143183858Y-114851318D01*
X143080226Y-114717036D01*
X143033213Y-114556507D01*
X143027451Y-114457355D01*
X143067392Y-114234290D01*
X143182870Y-114054459D01*
X143367364Y-113922800D01*
X143614354Y-113844253D01*
X143865062Y-113822930D01*
X144046475Y-113830596D01*
G37*
G36*
X142597326Y-113662388D02*
G01*
X141929501Y-113674918D01*
X141261676Y-113687447D01*
X141261676Y-114270990D01*
X141861587Y-114283623D01*
X142461497Y-114296256D01*
X142461497Y-114749019D01*
X141861587Y-114761652D01*
X141261676Y-114774286D01*
X141261676Y-115496078D01*
X142710517Y-115496078D01*
X142710517Y-115994117D01*
X141713018Y-115994117D01*
X141367714Y-115992856D01*
X141104183Y-115988746D01*
X140913675Y-115981297D01*
X140787444Y-115970019D01*
X140716738Y-115954421D01*
X140693600Y-115936999D01*
X140688433Y-115878687D01*
X140684507Y-115741635D01*
X140681905Y-115537652D01*
X140680711Y-115278544D01*
X140681009Y-114976116D01*
X140682884Y-114642177D01*
X140683702Y-114544753D01*
X140695722Y-113209625D01*
X141660241Y-113197399D01*
X142624760Y-113185172D01*
X142597326Y-113662388D01*
G37*
G36*
X156819479Y-115372565D02*
G01*
X156964074Y-115464563D01*
X156970316Y-115471063D01*
X157059518Y-115619205D01*
X157062318Y-115770888D01*
X156979300Y-115910431D01*
X156953046Y-115934991D01*
X156798112Y-116024093D01*
X156643474Y-116022803D01*
X156505930Y-115947660D01*
X156388717Y-115820604D01*
X156358680Y-115685754D01*
X156402588Y-115549104D01*
X156514081Y-115418224D01*
X156661263Y-115358248D01*
X156819479Y-115372565D01*
G37*
G36*
X154094479Y-114570968D02*
G01*
X154265389Y-114305011D01*
X154467993Y-114020816D01*
X154694635Y-113730249D01*
X154937656Y-113445174D01*
X154956022Y-113424688D01*
X155070594Y-113300762D01*
X155154760Y-113229736D01*
X155238333Y-113196888D01*
X155351130Y-113187492D01*
X155437351Y-113186987D01*
X155704813Y-113186987D01*
X155704813Y-114885723D01*
X155851961Y-114885286D01*
X155940990Y-114890190D01*
X155986188Y-114921516D01*
X156005457Y-115003139D01*
X156012909Y-115099910D01*
X156026708Y-115314973D01*
X155704813Y-115314973D01*
X155704813Y-115994117D01*
X155161497Y-115994117D01*
X155161497Y-115314973D01*
X153848485Y-115314973D01*
X153848485Y-115140776D01*
X153878370Y-115000715D01*
X153938768Y-114862210D01*
X154440356Y-114862210D01*
X155161497Y-114862210D01*
X155161497Y-113856272D01*
X154978966Y-114076264D01*
X154855658Y-114235245D01*
X154719374Y-114426445D01*
X154618395Y-114579233D01*
X154440356Y-114862210D01*
X153938768Y-114862210D01*
X153962920Y-114806824D01*
X154094479Y-114570968D01*
G37*
%TO.C,J7*%
X156658000Y-61020000D02*
X159318000Y-61020000D01*
X156658000Y-60960000D02*
X159318000Y-60960000D01*
X156658000Y-59690000D02*
X156658000Y-58360000D01*
X156658000Y-60960000D02*
X156658000Y-61020000D01*
X156658000Y-58360000D02*
X157988000Y-58360000D01*
X159318000Y-60960000D02*
X159318000Y-61020000D01*
%TO.C,J8*%
X152340000Y-59690000D02*
X152340000Y-58360000D01*
X152340000Y-60960000D02*
X152340000Y-61020000D01*
X155000000Y-60960000D02*
X155000000Y-61020000D01*
X152340000Y-60960000D02*
X155000000Y-60960000D01*
X152340000Y-58360000D02*
X153670000Y-58360000D01*
X152340000Y-61020000D02*
X155000000Y-61020000D01*
%TD*%
M02*
