%TF.GenerationSoftware,KiCad,Pcbnew,(5.1.9)-1*%
%TF.CreationDate,2021-03-30T00:22:34-03:00*%
%TF.ProjectId,bitmovel,6269746d-6f76-4656-9c2e-6b696361645f,rev?*%
%TF.SameCoordinates,Original*%
%TF.FileFunction,Soldermask,Top*%
%TF.FilePolarity,Negative*%
%FSLAX46Y46*%
G04 Gerber Fmt 4.6, Leading zero omitted, Abs format (unit mm)*
G04 Created by KiCad (PCBNEW (5.1.9)-1) date 2021-03-30 00:22:34*
%MOMM*%
%LPD*%
G01*
G04 APERTURE LIST*
%ADD10O,1.600000X1.600000*%
%ADD11C,1.600000*%
%ADD12C,1.905000*%
%ADD13C,2.000000*%
%ADD14C,4.200000*%
%ADD15C,3.500000*%
%ADD16C,1.800000*%
G04 APERTURE END LIST*
D10*
%TO.C,U2*%
X134320000Y-65000000D03*
X126700000Y-82780000D03*
X134320000Y-67540000D03*
X126700000Y-80240000D03*
X134320000Y-70080000D03*
X126700000Y-77700000D03*
X134320000Y-72620000D03*
X126700000Y-75160000D03*
X134320000Y-75160000D03*
X126700000Y-72620000D03*
X134320000Y-77700000D03*
X126700000Y-70080000D03*
X134320000Y-80240000D03*
X126700000Y-67540000D03*
X134320000Y-82780000D03*
D11*
X126700000Y-65000000D03*
%TD*%
D12*
%TO.C,U1*%
X166900000Y-77920000D03*
X166900000Y-80460000D03*
X166900000Y-83000000D03*
%TD*%
D13*
%TO.C,SW1*%
X172700000Y-66600000D03*
X169700000Y-66600000D03*
X166700000Y-66600000D03*
G36*
G01*
X176100000Y-66000000D02*
X176100000Y-67200000D01*
G75*
G02*
X175700000Y-67600000I-400000J0D01*
G01*
X175700000Y-67600000D01*
G75*
G02*
X175300000Y-67200000I0J400000D01*
G01*
X175300000Y-66000000D01*
G75*
G02*
X175700000Y-65600000I400000J0D01*
G01*
X175700000Y-65600000D01*
G75*
G02*
X176100000Y-66000000I0J-400000D01*
G01*
G37*
G36*
G01*
X164100000Y-66000000D02*
X164100000Y-67200000D01*
G75*
G02*
X163700000Y-67600000I-400000J0D01*
G01*
X163700000Y-67600000D01*
G75*
G02*
X163300000Y-67200000I0J400000D01*
G01*
X163300000Y-66000000D01*
G75*
G02*
X163700000Y-65600000I400000J0D01*
G01*
X163700000Y-65600000D01*
G75*
G02*
X164100000Y-66000000I0J-400000D01*
G01*
G37*
%TD*%
D10*
%TO.C,R2*%
X133160000Y-113500000D03*
D11*
X123000000Y-113500000D03*
%TD*%
D10*
%TO.C,R1*%
X166840000Y-113500000D03*
D11*
X177000000Y-113500000D03*
%TD*%
D14*
%TO.C,J2*%
X150000000Y-50000000D03*
X161500000Y-50000000D03*
X171500000Y-50000000D03*
X138500000Y-50000000D03*
X128500000Y-50000000D03*
%TD*%
D15*
%TO.C,J1*%
X189580000Y-51500000D03*
X180580000Y-51500000D03*
D13*
X190160000Y-56300000D03*
X180000000Y-56300000D03*
%TD*%
%TO.C,D3*%
X165000000Y-72500000D03*
X172620000Y-72500000D03*
%TD*%
D11*
%TO.C,D2*%
X126710000Y-118000000D03*
X129250000Y-118000000D03*
%TD*%
%TO.C,D1*%
X173240000Y-118000000D03*
X170700000Y-118000000D03*
%TD*%
%TO.C,C3*%
X128500000Y-88000000D03*
X126000000Y-88000000D03*
%TD*%
%TO.C,C2*%
X173700000Y-83500000D03*
X171200000Y-83500000D03*
%TD*%
%TO.C,C1*%
X173700000Y-77500000D03*
X171200000Y-77500000D03*
%TD*%
D16*
%TO.C,REF\u002A\u002A*%
X170270000Y-102000000D03*
X167730000Y-102000000D03*
%TD*%
%TO.C,REF\u002A\u002A*%
X132270000Y-102000000D03*
X129730000Y-102000000D03*
%TD*%
M02*
