%TF.GenerationSoftware,KiCad,Pcbnew,(5.1.9)-1*%
%TF.CreationDate,2021-03-30T00:22:34-03:00*%
%TF.ProjectId,bitmovel,6269746d-6f76-4656-9c2e-6b696361645f,rev?*%
%TF.SameCoordinates,Original*%
%TF.FileFunction,Legend,Top*%
%TF.FilePolarity,Positive*%
%FSLAX46Y46*%
G04 Gerber Fmt 4.6, Leading zero omitted, Abs format (unit mm)*
G04 Created by KiCad (PCBNEW (5.1.9)-1) date 2021-03-30 00:22:34*
%MOMM*%
%LPD*%
G01*
G04 APERTURE LIST*
%ADD10C,0.200000*%
%ADD11C,0.400000*%
%ADD12C,0.150000*%
%ADD13C,0.120000*%
%ADD14C,0.010000*%
G04 APERTURE END LIST*
D10*
X109328571Y-58404761D02*
X107995238Y-58785714D01*
X108947619Y-59166666D01*
X107995238Y-59547619D01*
X109328571Y-59928571D01*
X109328571Y-60500000D02*
X107995238Y-60880952D01*
X108947619Y-61261904D01*
X107995238Y-61642857D01*
X109328571Y-62023809D01*
X109328571Y-62595238D02*
X107995238Y-62976190D01*
X108947619Y-63357142D01*
X107995238Y-63738095D01*
X109328571Y-64119047D01*
X108185714Y-64880952D02*
X108090476Y-64976190D01*
X107995238Y-64880952D01*
X108090476Y-64785714D01*
X108185714Y-64880952D01*
X107995238Y-64880952D01*
X108090476Y-66595238D02*
X107995238Y-66404761D01*
X107995238Y-66023809D01*
X108090476Y-65833333D01*
X108280952Y-65738095D01*
X109042857Y-65738095D01*
X109233333Y-65833333D01*
X109328571Y-66023809D01*
X109328571Y-66404761D01*
X109233333Y-66595238D01*
X109042857Y-66690476D01*
X108852380Y-66690476D01*
X108661904Y-65738095D01*
X108090476Y-67452380D02*
X107995238Y-67642857D01*
X107995238Y-68023809D01*
X108090476Y-68214285D01*
X108280952Y-68309523D01*
X108376190Y-68309523D01*
X108566666Y-68214285D01*
X108661904Y-68023809D01*
X108661904Y-67738095D01*
X108757142Y-67547619D01*
X108947619Y-67452380D01*
X109042857Y-67452380D01*
X109233333Y-67547619D01*
X109328571Y-67738095D01*
X109328571Y-68023809D01*
X109233333Y-68214285D01*
X108090476Y-70023809D02*
X107995238Y-69833333D01*
X107995238Y-69452380D01*
X108090476Y-69261904D01*
X108185714Y-69166666D01*
X108376190Y-69071428D01*
X108947619Y-69071428D01*
X109138095Y-69166666D01*
X109233333Y-69261904D01*
X109328571Y-69452380D01*
X109328571Y-69833333D01*
X109233333Y-70023809D01*
X107995238Y-71166666D02*
X108090476Y-70976190D01*
X108185714Y-70880952D01*
X108376190Y-70785714D01*
X108947619Y-70785714D01*
X109138095Y-70880952D01*
X109233333Y-70976190D01*
X109328571Y-71166666D01*
X109328571Y-71452380D01*
X109233333Y-71642857D01*
X109138095Y-71738095D01*
X108947619Y-71833333D01*
X108376190Y-71833333D01*
X108185714Y-71738095D01*
X108090476Y-71642857D01*
X107995238Y-71452380D01*
X107995238Y-71166666D01*
X107995238Y-72976190D02*
X108090476Y-72785714D01*
X108280952Y-72690476D01*
X109995238Y-72690476D01*
X107995238Y-74595238D02*
X109042857Y-74595238D01*
X109233333Y-74500000D01*
X109328571Y-74309523D01*
X109328571Y-73928571D01*
X109233333Y-73738095D01*
X108090476Y-74595238D02*
X107995238Y-74404761D01*
X107995238Y-73928571D01*
X108090476Y-73738095D01*
X108280952Y-73642857D01*
X108471428Y-73642857D01*
X108661904Y-73738095D01*
X108757142Y-73928571D01*
X108757142Y-74404761D01*
X108852380Y-74595238D01*
X109328571Y-76404761D02*
X107995238Y-76404761D01*
X110090476Y-75928571D02*
X108661904Y-75452380D01*
X108661904Y-76690476D01*
X109328571Y-77452380D02*
X107328571Y-77452380D01*
X109233333Y-77452380D02*
X109328571Y-77642857D01*
X109328571Y-78023809D01*
X109233333Y-78214285D01*
X109138095Y-78309523D01*
X108947619Y-78404761D01*
X108376190Y-78404761D01*
X108185714Y-78309523D01*
X108090476Y-78214285D01*
X107995238Y-78023809D01*
X107995238Y-77642857D01*
X108090476Y-77452380D01*
X107995238Y-79547619D02*
X108090476Y-79357142D01*
X108185714Y-79261904D01*
X108376190Y-79166666D01*
X108947619Y-79166666D01*
X109138095Y-79261904D01*
X109233333Y-79357142D01*
X109328571Y-79547619D01*
X109328571Y-79833333D01*
X109233333Y-80023809D01*
X109138095Y-80119047D01*
X108947619Y-80214285D01*
X108376190Y-80214285D01*
X108185714Y-80119047D01*
X108090476Y-80023809D01*
X107995238Y-79833333D01*
X107995238Y-79547619D01*
X109328571Y-81071428D02*
X107995238Y-81071428D01*
X109138095Y-81071428D02*
X109233333Y-81166666D01*
X109328571Y-81357142D01*
X109328571Y-81642857D01*
X109233333Y-81833333D01*
X109042857Y-81928571D01*
X107995238Y-81928571D01*
X109328571Y-82595238D02*
X109328571Y-83357142D01*
X109995238Y-82880952D02*
X108280952Y-82880952D01*
X108090476Y-82976190D01*
X107995238Y-83166666D01*
X107995238Y-83357142D01*
X107995238Y-84309523D02*
X108090476Y-84119047D01*
X108185714Y-84023809D01*
X108376190Y-83928571D01*
X108947619Y-83928571D01*
X109138095Y-84023809D01*
X109233333Y-84119047D01*
X109328571Y-84309523D01*
X109328571Y-84595238D01*
X109233333Y-84785714D01*
X109138095Y-84880952D01*
X108947619Y-84976190D01*
X108376190Y-84976190D01*
X108185714Y-84880952D01*
X108090476Y-84785714D01*
X107995238Y-84595238D01*
X107995238Y-84309523D01*
X109328571Y-85642857D02*
X109328571Y-86690476D01*
X107995238Y-85642857D01*
X107995238Y-86690476D01*
X108090476Y-88214285D02*
X107995238Y-88023809D01*
X107995238Y-87642857D01*
X108090476Y-87452380D01*
X108280952Y-87357142D01*
X109042857Y-87357142D01*
X109233333Y-87452380D01*
X109328571Y-87642857D01*
X109328571Y-88023809D01*
X109233333Y-88214285D01*
X109042857Y-88309523D01*
X108852380Y-88309523D01*
X108661904Y-87357142D01*
X107995238Y-89166666D02*
X109328571Y-89166666D01*
X108947619Y-89166666D02*
X109138095Y-89261904D01*
X109233333Y-89357142D01*
X109328571Y-89547619D01*
X109328571Y-89738095D01*
X107995238Y-90690476D02*
X108090476Y-90499999D01*
X108185714Y-90404761D01*
X108376190Y-90309523D01*
X108947619Y-90309523D01*
X109138095Y-90404761D01*
X109233333Y-90499999D01*
X109328571Y-90690476D01*
X109328571Y-90976190D01*
X109233333Y-91166666D01*
X109138095Y-91261904D01*
X108947619Y-91357142D01*
X108376190Y-91357142D01*
X108185714Y-91261904D01*
X108090476Y-91166666D01*
X107995238Y-90976190D01*
X107995238Y-90690476D01*
X108185714Y-92214285D02*
X108090476Y-92309523D01*
X107995238Y-92214285D01*
X108090476Y-92119047D01*
X108185714Y-92214285D01*
X107995238Y-92214285D01*
X108090476Y-94023809D02*
X107995238Y-93833333D01*
X107995238Y-93452380D01*
X108090476Y-93261904D01*
X108185714Y-93166666D01*
X108376190Y-93071428D01*
X108947619Y-93071428D01*
X109138095Y-93166666D01*
X109233333Y-93261904D01*
X109328571Y-93452380D01*
X109328571Y-93833333D01*
X109233333Y-94023809D01*
X107995238Y-95166666D02*
X108090476Y-94976190D01*
X108185714Y-94880952D01*
X108376190Y-94785714D01*
X108947619Y-94785714D01*
X109138095Y-94880952D01*
X109233333Y-94976190D01*
X109328571Y-95166666D01*
X109328571Y-95452380D01*
X109233333Y-95642857D01*
X109138095Y-95738095D01*
X108947619Y-95833333D01*
X108376190Y-95833333D01*
X108185714Y-95738095D01*
X108090476Y-95642857D01*
X107995238Y-95452380D01*
X107995238Y-95166666D01*
X107995238Y-96690476D02*
X109328571Y-96690476D01*
X109138095Y-96690476D02*
X109233333Y-96785714D01*
X109328571Y-96976190D01*
X109328571Y-97261904D01*
X109233333Y-97452380D01*
X109042857Y-97547619D01*
X107995238Y-97547619D01*
X109042857Y-97547619D02*
X109233333Y-97642857D01*
X109328571Y-97833333D01*
X109328571Y-98119047D01*
X109233333Y-98309523D01*
X109042857Y-98404761D01*
X107995238Y-98404761D01*
X108185714Y-99357142D02*
X108090476Y-99452380D01*
X107995238Y-99357142D01*
X108090476Y-99261904D01*
X108185714Y-99357142D01*
X107995238Y-99357142D01*
X107995238Y-100309523D02*
X109995238Y-100309523D01*
X109233333Y-100309523D02*
X109328571Y-100499999D01*
X109328571Y-100880952D01*
X109233333Y-101071428D01*
X109138095Y-101166666D01*
X108947619Y-101261904D01*
X108376190Y-101261904D01*
X108185714Y-101166666D01*
X108090476Y-101071428D01*
X107995238Y-100880952D01*
X107995238Y-100499999D01*
X108090476Y-100309523D01*
X107995238Y-102119047D02*
X109328571Y-102119047D01*
X108947619Y-102119047D02*
X109138095Y-102214285D01*
X109233333Y-102309523D01*
X109328571Y-102499999D01*
X109328571Y-102690476D01*
D11*
X140535714Y-118821428D02*
X141369047Y-118821428D01*
X141726190Y-120130952D02*
X140535714Y-120130952D01*
X140535714Y-117630952D01*
X141726190Y-117630952D01*
X142678571Y-120011904D02*
X142916666Y-120130952D01*
X143392857Y-120130952D01*
X143630952Y-120011904D01*
X143750000Y-119773809D01*
X143750000Y-119654761D01*
X143630952Y-119416666D01*
X143392857Y-119297619D01*
X143035714Y-119297619D01*
X142797619Y-119178571D01*
X142678571Y-118940476D01*
X142678571Y-118821428D01*
X142797619Y-118583333D01*
X143035714Y-118464285D01*
X143392857Y-118464285D01*
X143630952Y-118583333D01*
X145892857Y-120011904D02*
X145654761Y-120130952D01*
X145178571Y-120130952D01*
X144940476Y-120011904D01*
X144821428Y-119892857D01*
X144702380Y-119654761D01*
X144702380Y-118940476D01*
X144821428Y-118702380D01*
X144940476Y-118583333D01*
X145178571Y-118464285D01*
X145654761Y-118464285D01*
X145892857Y-118583333D01*
X147321428Y-120130952D02*
X147083333Y-120011904D01*
X146964285Y-119892857D01*
X146845238Y-119654761D01*
X146845238Y-118940476D01*
X146964285Y-118702380D01*
X147083333Y-118583333D01*
X147321428Y-118464285D01*
X147678571Y-118464285D01*
X147916666Y-118583333D01*
X148035714Y-118702380D01*
X148154761Y-118940476D01*
X148154761Y-119654761D01*
X148035714Y-119892857D01*
X147916666Y-120011904D01*
X147678571Y-120130952D01*
X147321428Y-120130952D01*
X149583333Y-120130952D02*
X149345238Y-120011904D01*
X149226190Y-119773809D01*
X149226190Y-117630952D01*
X151607142Y-120130952D02*
X151607142Y-118821428D01*
X151488095Y-118583333D01*
X151250000Y-118464285D01*
X150773809Y-118464285D01*
X150535714Y-118583333D01*
X151607142Y-120011904D02*
X151369047Y-120130952D01*
X150773809Y-120130952D01*
X150535714Y-120011904D01*
X150416666Y-119773809D01*
X150416666Y-119535714D01*
X150535714Y-119297619D01*
X150773809Y-119178571D01*
X151369047Y-119178571D01*
X151607142Y-119059523D01*
X155773809Y-118464285D02*
X155773809Y-120130952D01*
X155178571Y-117511904D02*
X154583333Y-119297619D01*
X156130952Y-119297619D01*
X157083333Y-119892857D02*
X157202380Y-120011904D01*
X157083333Y-120130952D01*
X156964285Y-120011904D01*
X157083333Y-119892857D01*
X157083333Y-120130952D01*
X158750000Y-117630952D02*
X158988095Y-117630952D01*
X159226190Y-117750000D01*
X159345238Y-117869047D01*
X159464285Y-118107142D01*
X159583333Y-118583333D01*
X159583333Y-119178571D01*
X159464285Y-119654761D01*
X159345238Y-119892857D01*
X159226190Y-120011904D01*
X158988095Y-120130952D01*
X158750000Y-120130952D01*
X158511904Y-120011904D01*
X158392857Y-119892857D01*
X158273809Y-119654761D01*
X158154761Y-119178571D01*
X158154761Y-118583333D01*
X158273809Y-118107142D01*
X158392857Y-117869047D01*
X158511904Y-117750000D01*
X158750000Y-117630952D01*
D12*
X127073690Y-55904761D02*
X127073690Y-53904761D01*
X127835595Y-53904761D01*
X128026071Y-54000000D01*
X128121309Y-54095238D01*
X128216547Y-54285714D01*
X128216547Y-54571428D01*
X128121309Y-54761904D01*
X128026071Y-54857142D01*
X127835595Y-54952380D01*
X127073690Y-54952380D01*
X129454642Y-53904761D02*
X129645119Y-53904761D01*
X129835595Y-54000000D01*
X129930833Y-54095238D01*
X130026071Y-54285714D01*
X130121309Y-54666666D01*
X130121309Y-55142857D01*
X130026071Y-55523809D01*
X129930833Y-55714285D01*
X129835595Y-55809523D01*
X129645119Y-55904761D01*
X129454642Y-55904761D01*
X129264166Y-55809523D01*
X129168928Y-55714285D01*
X129073690Y-55523809D01*
X128978452Y-55142857D01*
X128978452Y-54666666D01*
X129073690Y-54285714D01*
X129168928Y-54095238D01*
X129264166Y-54000000D01*
X129454642Y-53904761D01*
X137073690Y-55904761D02*
X137073690Y-53904761D01*
X137835595Y-53904761D01*
X138026071Y-54000000D01*
X138121309Y-54095238D01*
X138216547Y-54285714D01*
X138216547Y-54571428D01*
X138121309Y-54761904D01*
X138026071Y-54857142D01*
X137835595Y-54952380D01*
X137073690Y-54952380D01*
X140121309Y-55904761D02*
X138978452Y-55904761D01*
X139549880Y-55904761D02*
X139549880Y-53904761D01*
X139359404Y-54190476D01*
X139168928Y-54380952D01*
X138978452Y-54476190D01*
X148597500Y-55904761D02*
X148597500Y-53904761D01*
X149359404Y-53904761D01*
X149549880Y-54000000D01*
X149645119Y-54095238D01*
X149740357Y-54285714D01*
X149740357Y-54571428D01*
X149645119Y-54761904D01*
X149549880Y-54857142D01*
X149359404Y-54952380D01*
X148597500Y-54952380D01*
X150502261Y-54095238D02*
X150597500Y-54000000D01*
X150787976Y-53904761D01*
X151264166Y-53904761D01*
X151454642Y-54000000D01*
X151549880Y-54095238D01*
X151645119Y-54285714D01*
X151645119Y-54476190D01*
X151549880Y-54761904D01*
X150407023Y-55904761D01*
X151645119Y-55904761D01*
X159930833Y-53904761D02*
X161168928Y-53904761D01*
X160502261Y-54666666D01*
X160787976Y-54666666D01*
X160978452Y-54761904D01*
X161073690Y-54857142D01*
X161168928Y-55047619D01*
X161168928Y-55523809D01*
X161073690Y-55714285D01*
X160978452Y-55809523D01*
X160787976Y-55904761D01*
X160216547Y-55904761D01*
X160026071Y-55809523D01*
X159930833Y-55714285D01*
X161740357Y-53904761D02*
X162407023Y-55904761D01*
X163073690Y-53904761D01*
X169359404Y-54000000D02*
X169168928Y-53904761D01*
X168883214Y-53904761D01*
X168597500Y-54000000D01*
X168407023Y-54190476D01*
X168311785Y-54380952D01*
X168216547Y-54761904D01*
X168216547Y-55047619D01*
X168311785Y-55428571D01*
X168407023Y-55619047D01*
X168597500Y-55809523D01*
X168883214Y-55904761D01*
X169073690Y-55904761D01*
X169359404Y-55809523D01*
X169454642Y-55714285D01*
X169454642Y-55047619D01*
X169073690Y-55047619D01*
X170311785Y-55904761D02*
X170311785Y-53904761D01*
X171454642Y-55904761D01*
X171454642Y-53904761D01*
X172407023Y-55904761D02*
X172407023Y-53904761D01*
X172883214Y-53904761D01*
X173168928Y-54000000D01*
X173359404Y-54190476D01*
X173454642Y-54380952D01*
X173549880Y-54761904D01*
X173549880Y-55047619D01*
X173454642Y-55428571D01*
X173359404Y-55619047D01*
X173168928Y-55809523D01*
X172883214Y-55904761D01*
X172407023Y-55904761D01*
D13*
%TO.C,U2*%
X131510000Y-63670000D02*
G75*
G02*
X129510000Y-63670000I-1000000J0D01*
G01*
X135650000Y-63610000D02*
X125370000Y-63610000D01*
X135650000Y-84170000D02*
X135650000Y-63610000D01*
X125370000Y-84170000D02*
X135650000Y-84170000D01*
X125370000Y-63610000D02*
X125370000Y-84170000D01*
X133160000Y-63670000D02*
X131510000Y-63670000D01*
X133160000Y-84110000D02*
X133160000Y-63670000D01*
X127860000Y-84110000D02*
X133160000Y-84110000D01*
X127860000Y-63670000D02*
X127860000Y-84110000D01*
X129510000Y-63670000D02*
X127860000Y-63670000D01*
%TO.C,U1*%
X163630000Y-78609000D02*
X165140000Y-78609000D01*
X163630000Y-82310000D02*
X165140000Y-82310000D01*
X165140000Y-85580000D02*
X165140000Y-75340000D01*
X163630000Y-75340000D02*
X168271000Y-75340000D01*
X163630000Y-85580000D02*
X168271000Y-85580000D01*
X168271000Y-85580000D02*
X168271000Y-75340000D01*
X163630000Y-85580000D02*
X163630000Y-75340000D01*
%TO.C,SW1*%
X175700000Y-63600000D02*
X175700000Y-69600000D01*
X163700000Y-63600000D02*
X175700000Y-63600000D01*
X163700000Y-69600000D02*
X163700000Y-63600000D01*
X175700000Y-69600000D02*
X163700000Y-69600000D01*
%TO.C,R2*%
X132120000Y-113500000D02*
X131350000Y-113500000D01*
X124040000Y-113500000D02*
X124810000Y-113500000D01*
X131350000Y-112130000D02*
X124810000Y-112130000D01*
X131350000Y-114870000D02*
X131350000Y-112130000D01*
X124810000Y-114870000D02*
X131350000Y-114870000D01*
X124810000Y-112130000D02*
X124810000Y-114870000D01*
%TO.C,R1*%
X167880000Y-113500000D02*
X168650000Y-113500000D01*
X175960000Y-113500000D02*
X175190000Y-113500000D01*
X168650000Y-114870000D02*
X175190000Y-114870000D01*
X168650000Y-112130000D02*
X168650000Y-114870000D01*
X175190000Y-112130000D02*
X168650000Y-112130000D01*
X175190000Y-114870000D02*
X175190000Y-112130000D01*
%TO.C,J2*%
X176000000Y-54000000D02*
G75*
G02*
X173000000Y-57000000I-3000000J0D01*
G01*
X127000000Y-57000000D02*
G75*
G02*
X124000000Y-54000000I0J3000000D01*
G01*
X127000000Y-57000000D02*
X173000000Y-57000000D01*
X176000000Y-54000000D02*
X176000000Y-45000000D01*
X124000000Y-54000000D02*
X124000000Y-45000000D01*
%TO.C,J1*%
X192080000Y-58000000D02*
X192080000Y-44000000D01*
X178080000Y-44000000D02*
X178080000Y-58000000D01*
X192080000Y-44000000D02*
X178080000Y-44000000D01*
X178080000Y-58000000D02*
X192080000Y-58000000D01*
%TO.C,D3*%
X166870000Y-71030000D02*
X166870000Y-73970000D01*
X167110000Y-71030000D02*
X167110000Y-73970000D01*
X166990000Y-71030000D02*
X166990000Y-73970000D01*
X171530000Y-73970000D02*
X171530000Y-73640000D01*
X166090000Y-73970000D02*
X171530000Y-73970000D01*
X166090000Y-73640000D02*
X166090000Y-73970000D01*
X171530000Y-71030000D02*
X171530000Y-71360000D01*
X166090000Y-71030000D02*
X171530000Y-71030000D01*
X166090000Y-71360000D02*
X166090000Y-71030000D01*
%TO.C,D2*%
X124990000Y-118000462D02*
G75*
G02*
X130540000Y-116455170I2990000J462D01*
G01*
X124990000Y-117999538D02*
G75*
G03*
X130540000Y-119544830I2990000J-462D01*
G01*
X130540000Y-119545000D02*
X130540000Y-116455000D01*
X130480000Y-118000000D02*
G75*
G03*
X130480000Y-118000000I-2500000J0D01*
G01*
%TO.C,D1*%
X174960000Y-117999538D02*
G75*
G02*
X169410000Y-119544830I-2990000J-462D01*
G01*
X174960000Y-118000462D02*
G75*
G03*
X169410000Y-116455170I-2990000J462D01*
G01*
X169410000Y-116455000D02*
X169410000Y-119545000D01*
X174470000Y-118000000D02*
G75*
G03*
X174470000Y-118000000I-2500000J0D01*
G01*
%TO.C,C3*%
X129870000Y-88000000D02*
G75*
G03*
X129870000Y-88000000I-2620000J0D01*
G01*
X127250000Y-85420000D02*
X127250000Y-90580000D01*
X127290000Y-85420000D02*
X127290000Y-90580000D01*
X127330000Y-85421000D02*
X127330000Y-90579000D01*
X127370000Y-85422000D02*
X127370000Y-90578000D01*
X127410000Y-85424000D02*
X127410000Y-90576000D01*
X127450000Y-85427000D02*
X127450000Y-90573000D01*
X127490000Y-85431000D02*
X127490000Y-86960000D01*
X127490000Y-89040000D02*
X127490000Y-90569000D01*
X127530000Y-85435000D02*
X127530000Y-86960000D01*
X127530000Y-89040000D02*
X127530000Y-90565000D01*
X127570000Y-85439000D02*
X127570000Y-86960000D01*
X127570000Y-89040000D02*
X127570000Y-90561000D01*
X127610000Y-85444000D02*
X127610000Y-86960000D01*
X127610000Y-89040000D02*
X127610000Y-90556000D01*
X127650000Y-85450000D02*
X127650000Y-86960000D01*
X127650000Y-89040000D02*
X127650000Y-90550000D01*
X127690000Y-85457000D02*
X127690000Y-86960000D01*
X127690000Y-89040000D02*
X127690000Y-90543000D01*
X127730000Y-85464000D02*
X127730000Y-86960000D01*
X127730000Y-89040000D02*
X127730000Y-90536000D01*
X127770000Y-85472000D02*
X127770000Y-86960000D01*
X127770000Y-89040000D02*
X127770000Y-90528000D01*
X127810000Y-85480000D02*
X127810000Y-86960000D01*
X127810000Y-89040000D02*
X127810000Y-90520000D01*
X127850000Y-85489000D02*
X127850000Y-86960000D01*
X127850000Y-89040000D02*
X127850000Y-90511000D01*
X127890000Y-85499000D02*
X127890000Y-86960000D01*
X127890000Y-89040000D02*
X127890000Y-90501000D01*
X127930000Y-85509000D02*
X127930000Y-86960000D01*
X127930000Y-89040000D02*
X127930000Y-90491000D01*
X127971000Y-85520000D02*
X127971000Y-86960000D01*
X127971000Y-89040000D02*
X127971000Y-90480000D01*
X128011000Y-85532000D02*
X128011000Y-86960000D01*
X128011000Y-89040000D02*
X128011000Y-90468000D01*
X128051000Y-85545000D02*
X128051000Y-86960000D01*
X128051000Y-89040000D02*
X128051000Y-90455000D01*
X128091000Y-85558000D02*
X128091000Y-86960000D01*
X128091000Y-89040000D02*
X128091000Y-90442000D01*
X128131000Y-85572000D02*
X128131000Y-86960000D01*
X128131000Y-89040000D02*
X128131000Y-90428000D01*
X128171000Y-85586000D02*
X128171000Y-86960000D01*
X128171000Y-89040000D02*
X128171000Y-90414000D01*
X128211000Y-85602000D02*
X128211000Y-86960000D01*
X128211000Y-89040000D02*
X128211000Y-90398000D01*
X128251000Y-85618000D02*
X128251000Y-86960000D01*
X128251000Y-89040000D02*
X128251000Y-90382000D01*
X128291000Y-85635000D02*
X128291000Y-86960000D01*
X128291000Y-89040000D02*
X128291000Y-90365000D01*
X128331000Y-85652000D02*
X128331000Y-86960000D01*
X128331000Y-89040000D02*
X128331000Y-90348000D01*
X128371000Y-85671000D02*
X128371000Y-86960000D01*
X128371000Y-89040000D02*
X128371000Y-90329000D01*
X128411000Y-85690000D02*
X128411000Y-86960000D01*
X128411000Y-89040000D02*
X128411000Y-90310000D01*
X128451000Y-85710000D02*
X128451000Y-86960000D01*
X128451000Y-89040000D02*
X128451000Y-90290000D01*
X128491000Y-85732000D02*
X128491000Y-86960000D01*
X128491000Y-89040000D02*
X128491000Y-90268000D01*
X128531000Y-85753000D02*
X128531000Y-86960000D01*
X128531000Y-89040000D02*
X128531000Y-90247000D01*
X128571000Y-85776000D02*
X128571000Y-86960000D01*
X128571000Y-89040000D02*
X128571000Y-90224000D01*
X128611000Y-85800000D02*
X128611000Y-86960000D01*
X128611000Y-89040000D02*
X128611000Y-90200000D01*
X128651000Y-85825000D02*
X128651000Y-86960000D01*
X128651000Y-89040000D02*
X128651000Y-90175000D01*
X128691000Y-85851000D02*
X128691000Y-86960000D01*
X128691000Y-89040000D02*
X128691000Y-90149000D01*
X128731000Y-85878000D02*
X128731000Y-86960000D01*
X128731000Y-89040000D02*
X128731000Y-90122000D01*
X128771000Y-85905000D02*
X128771000Y-86960000D01*
X128771000Y-89040000D02*
X128771000Y-90095000D01*
X128811000Y-85935000D02*
X128811000Y-86960000D01*
X128811000Y-89040000D02*
X128811000Y-90065000D01*
X128851000Y-85965000D02*
X128851000Y-86960000D01*
X128851000Y-89040000D02*
X128851000Y-90035000D01*
X128891000Y-85996000D02*
X128891000Y-86960000D01*
X128891000Y-89040000D02*
X128891000Y-90004000D01*
X128931000Y-86029000D02*
X128931000Y-86960000D01*
X128931000Y-89040000D02*
X128931000Y-89971000D01*
X128971000Y-86063000D02*
X128971000Y-86960000D01*
X128971000Y-89040000D02*
X128971000Y-89937000D01*
X129011000Y-86099000D02*
X129011000Y-86960000D01*
X129011000Y-89040000D02*
X129011000Y-89901000D01*
X129051000Y-86136000D02*
X129051000Y-86960000D01*
X129051000Y-89040000D02*
X129051000Y-89864000D01*
X129091000Y-86174000D02*
X129091000Y-86960000D01*
X129091000Y-89040000D02*
X129091000Y-89826000D01*
X129131000Y-86215000D02*
X129131000Y-86960000D01*
X129131000Y-89040000D02*
X129131000Y-89785000D01*
X129171000Y-86257000D02*
X129171000Y-86960000D01*
X129171000Y-89040000D02*
X129171000Y-89743000D01*
X129211000Y-86301000D02*
X129211000Y-86960000D01*
X129211000Y-89040000D02*
X129211000Y-89699000D01*
X129251000Y-86347000D02*
X129251000Y-86960000D01*
X129251000Y-89040000D02*
X129251000Y-89653000D01*
X129291000Y-86395000D02*
X129291000Y-86960000D01*
X129291000Y-89040000D02*
X129291000Y-89605000D01*
X129331000Y-86446000D02*
X129331000Y-86960000D01*
X129331000Y-89040000D02*
X129331000Y-89554000D01*
X129371000Y-86500000D02*
X129371000Y-86960000D01*
X129371000Y-89040000D02*
X129371000Y-89500000D01*
X129411000Y-86557000D02*
X129411000Y-86960000D01*
X129411000Y-89040000D02*
X129411000Y-89443000D01*
X129451000Y-86617000D02*
X129451000Y-86960000D01*
X129451000Y-89040000D02*
X129451000Y-89383000D01*
X129491000Y-86681000D02*
X129491000Y-86960000D01*
X129491000Y-89040000D02*
X129491000Y-89319000D01*
X129531000Y-86749000D02*
X129531000Y-86960000D01*
X129531000Y-89040000D02*
X129531000Y-89251000D01*
X129571000Y-86822000D02*
X129571000Y-89178000D01*
X129611000Y-86902000D02*
X129611000Y-89098000D01*
X129651000Y-86989000D02*
X129651000Y-89011000D01*
X129691000Y-87085000D02*
X129691000Y-88915000D01*
X129731000Y-87195000D02*
X129731000Y-88805000D01*
X129771000Y-87323000D02*
X129771000Y-88677000D01*
X129811000Y-87482000D02*
X129811000Y-88518000D01*
X129851000Y-87716000D02*
X129851000Y-88284000D01*
X124445225Y-86525000D02*
X124945225Y-86525000D01*
X124695225Y-86275000D02*
X124695225Y-86775000D01*
%TO.C,C2*%
X175070000Y-83500000D02*
G75*
G03*
X175070000Y-83500000I-2620000J0D01*
G01*
X172450000Y-80920000D02*
X172450000Y-86080000D01*
X172490000Y-80920000D02*
X172490000Y-86080000D01*
X172530000Y-80921000D02*
X172530000Y-86079000D01*
X172570000Y-80922000D02*
X172570000Y-86078000D01*
X172610000Y-80924000D02*
X172610000Y-86076000D01*
X172650000Y-80927000D02*
X172650000Y-86073000D01*
X172690000Y-80931000D02*
X172690000Y-82460000D01*
X172690000Y-84540000D02*
X172690000Y-86069000D01*
X172730000Y-80935000D02*
X172730000Y-82460000D01*
X172730000Y-84540000D02*
X172730000Y-86065000D01*
X172770000Y-80939000D02*
X172770000Y-82460000D01*
X172770000Y-84540000D02*
X172770000Y-86061000D01*
X172810000Y-80944000D02*
X172810000Y-82460000D01*
X172810000Y-84540000D02*
X172810000Y-86056000D01*
X172850000Y-80950000D02*
X172850000Y-82460000D01*
X172850000Y-84540000D02*
X172850000Y-86050000D01*
X172890000Y-80957000D02*
X172890000Y-82460000D01*
X172890000Y-84540000D02*
X172890000Y-86043000D01*
X172930000Y-80964000D02*
X172930000Y-82460000D01*
X172930000Y-84540000D02*
X172930000Y-86036000D01*
X172970000Y-80972000D02*
X172970000Y-82460000D01*
X172970000Y-84540000D02*
X172970000Y-86028000D01*
X173010000Y-80980000D02*
X173010000Y-82460000D01*
X173010000Y-84540000D02*
X173010000Y-86020000D01*
X173050000Y-80989000D02*
X173050000Y-82460000D01*
X173050000Y-84540000D02*
X173050000Y-86011000D01*
X173090000Y-80999000D02*
X173090000Y-82460000D01*
X173090000Y-84540000D02*
X173090000Y-86001000D01*
X173130000Y-81009000D02*
X173130000Y-82460000D01*
X173130000Y-84540000D02*
X173130000Y-85991000D01*
X173171000Y-81020000D02*
X173171000Y-82460000D01*
X173171000Y-84540000D02*
X173171000Y-85980000D01*
X173211000Y-81032000D02*
X173211000Y-82460000D01*
X173211000Y-84540000D02*
X173211000Y-85968000D01*
X173251000Y-81045000D02*
X173251000Y-82460000D01*
X173251000Y-84540000D02*
X173251000Y-85955000D01*
X173291000Y-81058000D02*
X173291000Y-82460000D01*
X173291000Y-84540000D02*
X173291000Y-85942000D01*
X173331000Y-81072000D02*
X173331000Y-82460000D01*
X173331000Y-84540000D02*
X173331000Y-85928000D01*
X173371000Y-81086000D02*
X173371000Y-82460000D01*
X173371000Y-84540000D02*
X173371000Y-85914000D01*
X173411000Y-81102000D02*
X173411000Y-82460000D01*
X173411000Y-84540000D02*
X173411000Y-85898000D01*
X173451000Y-81118000D02*
X173451000Y-82460000D01*
X173451000Y-84540000D02*
X173451000Y-85882000D01*
X173491000Y-81135000D02*
X173491000Y-82460000D01*
X173491000Y-84540000D02*
X173491000Y-85865000D01*
X173531000Y-81152000D02*
X173531000Y-82460000D01*
X173531000Y-84540000D02*
X173531000Y-85848000D01*
X173571000Y-81171000D02*
X173571000Y-82460000D01*
X173571000Y-84540000D02*
X173571000Y-85829000D01*
X173611000Y-81190000D02*
X173611000Y-82460000D01*
X173611000Y-84540000D02*
X173611000Y-85810000D01*
X173651000Y-81210000D02*
X173651000Y-82460000D01*
X173651000Y-84540000D02*
X173651000Y-85790000D01*
X173691000Y-81232000D02*
X173691000Y-82460000D01*
X173691000Y-84540000D02*
X173691000Y-85768000D01*
X173731000Y-81253000D02*
X173731000Y-82460000D01*
X173731000Y-84540000D02*
X173731000Y-85747000D01*
X173771000Y-81276000D02*
X173771000Y-82460000D01*
X173771000Y-84540000D02*
X173771000Y-85724000D01*
X173811000Y-81300000D02*
X173811000Y-82460000D01*
X173811000Y-84540000D02*
X173811000Y-85700000D01*
X173851000Y-81325000D02*
X173851000Y-82460000D01*
X173851000Y-84540000D02*
X173851000Y-85675000D01*
X173891000Y-81351000D02*
X173891000Y-82460000D01*
X173891000Y-84540000D02*
X173891000Y-85649000D01*
X173931000Y-81378000D02*
X173931000Y-82460000D01*
X173931000Y-84540000D02*
X173931000Y-85622000D01*
X173971000Y-81405000D02*
X173971000Y-82460000D01*
X173971000Y-84540000D02*
X173971000Y-85595000D01*
X174011000Y-81435000D02*
X174011000Y-82460000D01*
X174011000Y-84540000D02*
X174011000Y-85565000D01*
X174051000Y-81465000D02*
X174051000Y-82460000D01*
X174051000Y-84540000D02*
X174051000Y-85535000D01*
X174091000Y-81496000D02*
X174091000Y-82460000D01*
X174091000Y-84540000D02*
X174091000Y-85504000D01*
X174131000Y-81529000D02*
X174131000Y-82460000D01*
X174131000Y-84540000D02*
X174131000Y-85471000D01*
X174171000Y-81563000D02*
X174171000Y-82460000D01*
X174171000Y-84540000D02*
X174171000Y-85437000D01*
X174211000Y-81599000D02*
X174211000Y-82460000D01*
X174211000Y-84540000D02*
X174211000Y-85401000D01*
X174251000Y-81636000D02*
X174251000Y-82460000D01*
X174251000Y-84540000D02*
X174251000Y-85364000D01*
X174291000Y-81674000D02*
X174291000Y-82460000D01*
X174291000Y-84540000D02*
X174291000Y-85326000D01*
X174331000Y-81715000D02*
X174331000Y-82460000D01*
X174331000Y-84540000D02*
X174331000Y-85285000D01*
X174371000Y-81757000D02*
X174371000Y-82460000D01*
X174371000Y-84540000D02*
X174371000Y-85243000D01*
X174411000Y-81801000D02*
X174411000Y-82460000D01*
X174411000Y-84540000D02*
X174411000Y-85199000D01*
X174451000Y-81847000D02*
X174451000Y-82460000D01*
X174451000Y-84540000D02*
X174451000Y-85153000D01*
X174491000Y-81895000D02*
X174491000Y-82460000D01*
X174491000Y-84540000D02*
X174491000Y-85105000D01*
X174531000Y-81946000D02*
X174531000Y-82460000D01*
X174531000Y-84540000D02*
X174531000Y-85054000D01*
X174571000Y-82000000D02*
X174571000Y-82460000D01*
X174571000Y-84540000D02*
X174571000Y-85000000D01*
X174611000Y-82057000D02*
X174611000Y-82460000D01*
X174611000Y-84540000D02*
X174611000Y-84943000D01*
X174651000Y-82117000D02*
X174651000Y-82460000D01*
X174651000Y-84540000D02*
X174651000Y-84883000D01*
X174691000Y-82181000D02*
X174691000Y-82460000D01*
X174691000Y-84540000D02*
X174691000Y-84819000D01*
X174731000Y-82249000D02*
X174731000Y-82460000D01*
X174731000Y-84540000D02*
X174731000Y-84751000D01*
X174771000Y-82322000D02*
X174771000Y-84678000D01*
X174811000Y-82402000D02*
X174811000Y-84598000D01*
X174851000Y-82489000D02*
X174851000Y-84511000D01*
X174891000Y-82585000D02*
X174891000Y-84415000D01*
X174931000Y-82695000D02*
X174931000Y-84305000D01*
X174971000Y-82823000D02*
X174971000Y-84177000D01*
X175011000Y-82982000D02*
X175011000Y-84018000D01*
X175051000Y-83216000D02*
X175051000Y-83784000D01*
X169645225Y-82025000D02*
X170145225Y-82025000D01*
X169895225Y-81775000D02*
X169895225Y-82275000D01*
%TO.C,C1*%
X175070000Y-77500000D02*
G75*
G03*
X175070000Y-77500000I-2620000J0D01*
G01*
X172450000Y-74920000D02*
X172450000Y-80080000D01*
X172490000Y-74920000D02*
X172490000Y-80080000D01*
X172530000Y-74921000D02*
X172530000Y-80079000D01*
X172570000Y-74922000D02*
X172570000Y-80078000D01*
X172610000Y-74924000D02*
X172610000Y-80076000D01*
X172650000Y-74927000D02*
X172650000Y-80073000D01*
X172690000Y-74931000D02*
X172690000Y-76460000D01*
X172690000Y-78540000D02*
X172690000Y-80069000D01*
X172730000Y-74935000D02*
X172730000Y-76460000D01*
X172730000Y-78540000D02*
X172730000Y-80065000D01*
X172770000Y-74939000D02*
X172770000Y-76460000D01*
X172770000Y-78540000D02*
X172770000Y-80061000D01*
X172810000Y-74944000D02*
X172810000Y-76460000D01*
X172810000Y-78540000D02*
X172810000Y-80056000D01*
X172850000Y-74950000D02*
X172850000Y-76460000D01*
X172850000Y-78540000D02*
X172850000Y-80050000D01*
X172890000Y-74957000D02*
X172890000Y-76460000D01*
X172890000Y-78540000D02*
X172890000Y-80043000D01*
X172930000Y-74964000D02*
X172930000Y-76460000D01*
X172930000Y-78540000D02*
X172930000Y-80036000D01*
X172970000Y-74972000D02*
X172970000Y-76460000D01*
X172970000Y-78540000D02*
X172970000Y-80028000D01*
X173010000Y-74980000D02*
X173010000Y-76460000D01*
X173010000Y-78540000D02*
X173010000Y-80020000D01*
X173050000Y-74989000D02*
X173050000Y-76460000D01*
X173050000Y-78540000D02*
X173050000Y-80011000D01*
X173090000Y-74999000D02*
X173090000Y-76460000D01*
X173090000Y-78540000D02*
X173090000Y-80001000D01*
X173130000Y-75009000D02*
X173130000Y-76460000D01*
X173130000Y-78540000D02*
X173130000Y-79991000D01*
X173171000Y-75020000D02*
X173171000Y-76460000D01*
X173171000Y-78540000D02*
X173171000Y-79980000D01*
X173211000Y-75032000D02*
X173211000Y-76460000D01*
X173211000Y-78540000D02*
X173211000Y-79968000D01*
X173251000Y-75045000D02*
X173251000Y-76460000D01*
X173251000Y-78540000D02*
X173251000Y-79955000D01*
X173291000Y-75058000D02*
X173291000Y-76460000D01*
X173291000Y-78540000D02*
X173291000Y-79942000D01*
X173331000Y-75072000D02*
X173331000Y-76460000D01*
X173331000Y-78540000D02*
X173331000Y-79928000D01*
X173371000Y-75086000D02*
X173371000Y-76460000D01*
X173371000Y-78540000D02*
X173371000Y-79914000D01*
X173411000Y-75102000D02*
X173411000Y-76460000D01*
X173411000Y-78540000D02*
X173411000Y-79898000D01*
X173451000Y-75118000D02*
X173451000Y-76460000D01*
X173451000Y-78540000D02*
X173451000Y-79882000D01*
X173491000Y-75135000D02*
X173491000Y-76460000D01*
X173491000Y-78540000D02*
X173491000Y-79865000D01*
X173531000Y-75152000D02*
X173531000Y-76460000D01*
X173531000Y-78540000D02*
X173531000Y-79848000D01*
X173571000Y-75171000D02*
X173571000Y-76460000D01*
X173571000Y-78540000D02*
X173571000Y-79829000D01*
X173611000Y-75190000D02*
X173611000Y-76460000D01*
X173611000Y-78540000D02*
X173611000Y-79810000D01*
X173651000Y-75210000D02*
X173651000Y-76460000D01*
X173651000Y-78540000D02*
X173651000Y-79790000D01*
X173691000Y-75232000D02*
X173691000Y-76460000D01*
X173691000Y-78540000D02*
X173691000Y-79768000D01*
X173731000Y-75253000D02*
X173731000Y-76460000D01*
X173731000Y-78540000D02*
X173731000Y-79747000D01*
X173771000Y-75276000D02*
X173771000Y-76460000D01*
X173771000Y-78540000D02*
X173771000Y-79724000D01*
X173811000Y-75300000D02*
X173811000Y-76460000D01*
X173811000Y-78540000D02*
X173811000Y-79700000D01*
X173851000Y-75325000D02*
X173851000Y-76460000D01*
X173851000Y-78540000D02*
X173851000Y-79675000D01*
X173891000Y-75351000D02*
X173891000Y-76460000D01*
X173891000Y-78540000D02*
X173891000Y-79649000D01*
X173931000Y-75378000D02*
X173931000Y-76460000D01*
X173931000Y-78540000D02*
X173931000Y-79622000D01*
X173971000Y-75405000D02*
X173971000Y-76460000D01*
X173971000Y-78540000D02*
X173971000Y-79595000D01*
X174011000Y-75435000D02*
X174011000Y-76460000D01*
X174011000Y-78540000D02*
X174011000Y-79565000D01*
X174051000Y-75465000D02*
X174051000Y-76460000D01*
X174051000Y-78540000D02*
X174051000Y-79535000D01*
X174091000Y-75496000D02*
X174091000Y-76460000D01*
X174091000Y-78540000D02*
X174091000Y-79504000D01*
X174131000Y-75529000D02*
X174131000Y-76460000D01*
X174131000Y-78540000D02*
X174131000Y-79471000D01*
X174171000Y-75563000D02*
X174171000Y-76460000D01*
X174171000Y-78540000D02*
X174171000Y-79437000D01*
X174211000Y-75599000D02*
X174211000Y-76460000D01*
X174211000Y-78540000D02*
X174211000Y-79401000D01*
X174251000Y-75636000D02*
X174251000Y-76460000D01*
X174251000Y-78540000D02*
X174251000Y-79364000D01*
X174291000Y-75674000D02*
X174291000Y-76460000D01*
X174291000Y-78540000D02*
X174291000Y-79326000D01*
X174331000Y-75715000D02*
X174331000Y-76460000D01*
X174331000Y-78540000D02*
X174331000Y-79285000D01*
X174371000Y-75757000D02*
X174371000Y-76460000D01*
X174371000Y-78540000D02*
X174371000Y-79243000D01*
X174411000Y-75801000D02*
X174411000Y-76460000D01*
X174411000Y-78540000D02*
X174411000Y-79199000D01*
X174451000Y-75847000D02*
X174451000Y-76460000D01*
X174451000Y-78540000D02*
X174451000Y-79153000D01*
X174491000Y-75895000D02*
X174491000Y-76460000D01*
X174491000Y-78540000D02*
X174491000Y-79105000D01*
X174531000Y-75946000D02*
X174531000Y-76460000D01*
X174531000Y-78540000D02*
X174531000Y-79054000D01*
X174571000Y-76000000D02*
X174571000Y-76460000D01*
X174571000Y-78540000D02*
X174571000Y-79000000D01*
X174611000Y-76057000D02*
X174611000Y-76460000D01*
X174611000Y-78540000D02*
X174611000Y-78943000D01*
X174651000Y-76117000D02*
X174651000Y-76460000D01*
X174651000Y-78540000D02*
X174651000Y-78883000D01*
X174691000Y-76181000D02*
X174691000Y-76460000D01*
X174691000Y-78540000D02*
X174691000Y-78819000D01*
X174731000Y-76249000D02*
X174731000Y-76460000D01*
X174731000Y-78540000D02*
X174731000Y-78751000D01*
X174771000Y-76322000D02*
X174771000Y-78678000D01*
X174811000Y-76402000D02*
X174811000Y-78598000D01*
X174851000Y-76489000D02*
X174851000Y-78511000D01*
X174891000Y-76585000D02*
X174891000Y-78415000D01*
X174931000Y-76695000D02*
X174931000Y-78305000D01*
X174971000Y-76823000D02*
X174971000Y-78177000D01*
X175011000Y-76982000D02*
X175011000Y-78018000D01*
X175051000Y-77216000D02*
X175051000Y-77784000D01*
X169645225Y-76025000D02*
X170145225Y-76025000D01*
X169895225Y-75775000D02*
X169895225Y-76275000D01*
%TO.C,REF\u002A\u002A*%
X166400000Y-103330000D02*
X166400000Y-102000000D01*
X167730000Y-103330000D02*
X166400000Y-103330000D01*
X169000000Y-103330000D02*
X169000000Y-100670000D01*
X169000000Y-100670000D02*
X171600000Y-100670000D01*
X169000000Y-103330000D02*
X171600000Y-103330000D01*
X171600000Y-103330000D02*
X171600000Y-100670000D01*
X128400000Y-103330000D02*
X128400000Y-102000000D01*
X129730000Y-103330000D02*
X128400000Y-103330000D01*
X131000000Y-103330000D02*
X131000000Y-100670000D01*
X131000000Y-100670000D02*
X133600000Y-100670000D01*
X131000000Y-103330000D02*
X133600000Y-103330000D01*
X133600000Y-103330000D02*
X133600000Y-100670000D01*
D14*
%TO.C,G\u002A\u002A\u002A*%
G36*
X149237837Y-104454536D02*
G01*
X149264353Y-104465968D01*
X149286043Y-104484140D01*
X149329816Y-104526423D01*
X149393178Y-104590228D01*
X149473639Y-104672968D01*
X149568707Y-104772054D01*
X149675890Y-104884899D01*
X149792695Y-105008915D01*
X149916632Y-105141513D01*
X149967656Y-105196388D01*
X150095519Y-105333487D01*
X150216112Y-105461592D01*
X150327085Y-105578288D01*
X150426093Y-105681159D01*
X150510788Y-105767793D01*
X150578823Y-105835774D01*
X150627850Y-105882688D01*
X150655523Y-105906120D01*
X150659735Y-105908328D01*
X150690787Y-105914914D01*
X150749896Y-105927417D01*
X150829616Y-105944263D01*
X150922502Y-105963879D01*
X150961572Y-105972126D01*
X151380578Y-106069691D01*
X151765781Y-106178356D01*
X152117058Y-106298065D01*
X152434283Y-106428762D01*
X152717331Y-106570389D01*
X152966078Y-106722892D01*
X153180400Y-106886213D01*
X153352925Y-107052340D01*
X153463234Y-107172723D01*
X153642096Y-107062808D01*
X153936696Y-106899123D01*
X154239164Y-106764507D01*
X154543602Y-106661386D01*
X154735720Y-106613258D01*
X154816401Y-106598679D01*
X154904327Y-106588929D01*
X155008131Y-106583406D01*
X155136450Y-106581505D01*
X155188857Y-106581585D01*
X155307680Y-106582793D01*
X155399440Y-106585777D01*
X155473354Y-106591484D01*
X155538636Y-106600861D01*
X155604500Y-106614857D01*
X155666254Y-106630670D01*
X155875460Y-106695919D01*
X156060867Y-106774918D01*
X156228244Y-106871726D01*
X156383362Y-106990403D01*
X156531993Y-107135008D01*
X156679908Y-107309602D01*
X156736082Y-107383249D01*
X156905863Y-107628331D01*
X157072061Y-107901041D01*
X157233461Y-108197558D01*
X157388849Y-108514061D01*
X157537008Y-108846729D01*
X157676725Y-109191739D01*
X157806783Y-109545270D01*
X157925969Y-109903502D01*
X158033065Y-110262611D01*
X158126858Y-110618777D01*
X158206133Y-110968179D01*
X158269673Y-111306994D01*
X158316265Y-111631402D01*
X158344692Y-111937580D01*
X158353740Y-112221708D01*
X158345223Y-112443846D01*
X158319898Y-112661278D01*
X158279426Y-112846744D01*
X158223222Y-113001513D01*
X158150700Y-113126857D01*
X158061274Y-113224045D01*
X157954357Y-113294347D01*
X157952339Y-113295340D01*
X157890097Y-113322452D01*
X157833310Y-113337120D01*
X157766079Y-113342479D01*
X157713187Y-113342518D01*
X157553032Y-113329877D01*
X157372533Y-113297944D01*
X157180380Y-113249192D01*
X156985261Y-113186093D01*
X156795867Y-113111118D01*
X156641369Y-113037560D01*
X156367576Y-112875066D01*
X156104393Y-112678983D01*
X155853503Y-112450891D01*
X155616585Y-112192370D01*
X155395322Y-111905000D01*
X155320723Y-111796143D01*
X155117369Y-111463298D01*
X154928732Y-111099759D01*
X154755849Y-110708441D01*
X154599757Y-110292258D01*
X154461493Y-109854127D01*
X154342093Y-109396960D01*
X154242594Y-108923673D01*
X154190820Y-108619983D01*
X154177307Y-108532300D01*
X154166096Y-108458124D01*
X154158239Y-108404520D01*
X154154788Y-108378553D01*
X154154715Y-108377426D01*
X154138129Y-108372287D01*
X154094587Y-108368600D01*
X154033411Y-108367144D01*
X154031631Y-108367143D01*
X153908547Y-108367143D01*
X153924116Y-108544036D01*
X153931999Y-108671633D01*
X153934760Y-108819244D01*
X153932278Y-108988738D01*
X153924432Y-109181988D01*
X153911101Y-109400863D01*
X153892165Y-109647234D01*
X153867503Y-109922973D01*
X153836994Y-110229948D01*
X153800517Y-110570032D01*
X153783431Y-110722804D01*
X153767946Y-110862649D01*
X153754362Y-110990920D01*
X153743101Y-111103176D01*
X153734586Y-111194974D01*
X153729237Y-111261874D01*
X153727476Y-111299434D01*
X153728091Y-111305855D01*
X153750242Y-111318180D01*
X153793739Y-111330383D01*
X153805264Y-111332646D01*
X153852981Y-111346232D01*
X153920819Y-111371716D01*
X153996629Y-111404405D01*
X154022814Y-111416687D01*
X154093833Y-111452814D01*
X154150022Y-111487927D01*
X154201173Y-111529835D01*
X154257075Y-111586345D01*
X154311351Y-111646806D01*
X154513026Y-111903135D01*
X154684190Y-112176966D01*
X154824512Y-112465660D01*
X154933660Y-112766576D01*
X155011306Y-113077073D01*
X155057117Y-113394511D01*
X155070764Y-113716249D01*
X155051916Y-114039647D01*
X155000241Y-114362064D01*
X154915411Y-114680859D01*
X154797093Y-114993393D01*
X154744616Y-115107215D01*
X154586612Y-115394240D01*
X154404029Y-115655410D01*
X154198595Y-115889860D01*
X153972039Y-116096726D01*
X153726090Y-116275143D01*
X153462477Y-116424245D01*
X153182929Y-116543169D01*
X152889175Y-116631049D01*
X152582944Y-116687021D01*
X152265965Y-116710219D01*
X151939966Y-116699780D01*
X151638825Y-116660653D01*
X151354010Y-116599124D01*
X151059116Y-116514379D01*
X150765880Y-116410531D01*
X150486038Y-116291693D01*
X150258076Y-116176830D01*
X150144224Y-116114324D01*
X149927564Y-116222933D01*
X149630130Y-116362470D01*
X149344380Y-116475974D01*
X149060614Y-116566730D01*
X148769133Y-116638022D01*
X148612072Y-116668353D01*
X148516792Y-116681251D01*
X148395914Y-116691680D01*
X148259124Y-116699363D01*
X148116108Y-116704025D01*
X147976551Y-116705389D01*
X147850140Y-116703179D01*
X147746562Y-116697118D01*
X147716462Y-116693906D01*
X147406918Y-116637376D01*
X147110689Y-116548079D01*
X146829485Y-116427628D01*
X146565013Y-116277636D01*
X146318984Y-116099715D01*
X146093105Y-115895478D01*
X145889085Y-115666538D01*
X145708633Y-115414508D01*
X145553458Y-115140999D01*
X145425268Y-114847625D01*
X145325773Y-114535998D01*
X145294796Y-114408423D01*
X145235887Y-114064795D01*
X145212300Y-113725864D01*
X145212733Y-113713320D01*
X145583302Y-113713320D01*
X145601466Y-114017574D01*
X145651612Y-114316784D01*
X145733059Y-114607945D01*
X145845130Y-114888053D01*
X145987144Y-115154105D01*
X146158423Y-115403097D01*
X146358288Y-115632024D01*
X146370464Y-115644343D01*
X146573854Y-115829628D01*
X146784103Y-115982139D01*
X147006837Y-116105363D01*
X147247679Y-116202791D01*
X147296715Y-116218917D01*
X147439792Y-116261147D01*
X147574348Y-116293167D01*
X147711687Y-116316950D01*
X147863115Y-116334470D01*
X148031500Y-116347183D01*
X148063372Y-116346616D01*
X148122689Y-116343388D01*
X148200752Y-116338039D01*
X148282210Y-116331660D01*
X148616521Y-116287134D01*
X148956406Y-116209157D01*
X149297264Y-116099112D01*
X149634497Y-115958378D01*
X149804965Y-115874529D01*
X149945572Y-115801671D01*
X149945806Y-115717514D01*
X149945163Y-115676758D01*
X149943210Y-115603917D01*
X149940103Y-115503164D01*
X149935997Y-115378671D01*
X149931050Y-115234609D01*
X149925418Y-115075152D01*
X149919256Y-114904470D01*
X149912721Y-114726736D01*
X149905970Y-114546121D01*
X149899158Y-114366798D01*
X149892442Y-114192939D01*
X149885977Y-114028715D01*
X149879922Y-113878299D01*
X149874430Y-113745862D01*
X149869660Y-113635576D01*
X149868126Y-113602497D01*
X150279784Y-113602497D01*
X150280224Y-113733476D01*
X150281512Y-113884219D01*
X150283599Y-114051425D01*
X150286434Y-114231794D01*
X150289968Y-114422023D01*
X150294153Y-114618813D01*
X150298937Y-114818861D01*
X150304273Y-115018868D01*
X150310111Y-115215531D01*
X150316400Y-115405551D01*
X150319802Y-115499806D01*
X150331037Y-115801682D01*
X150578268Y-115919866D01*
X150719085Y-115986136D01*
X150838092Y-116039321D01*
X150945482Y-116083441D01*
X151051448Y-116122516D01*
X151166184Y-116160564D01*
X151270000Y-116192621D01*
X151576979Y-116272189D01*
X151871512Y-116320840D01*
X152159384Y-116339031D01*
X152446383Y-116327220D01*
X152648857Y-116301506D01*
X152928727Y-116238805D01*
X153193768Y-116143842D01*
X153442569Y-116018070D01*
X153673720Y-115862941D01*
X153885807Y-115679908D01*
X154077420Y-115470423D01*
X154247146Y-115235939D01*
X154393574Y-114977909D01*
X154515291Y-114697785D01*
X154610887Y-114397020D01*
X154647149Y-114245429D01*
X154661810Y-114172116D01*
X154672576Y-114103398D01*
X154680014Y-114031474D01*
X154684692Y-113948542D01*
X154687177Y-113846801D01*
X154688037Y-113718450D01*
X154688065Y-113683000D01*
X154687495Y-113546732D01*
X154685419Y-113439032D01*
X154681282Y-113352195D01*
X154674529Y-113278516D01*
X154664609Y-113210289D01*
X154650967Y-113139811D01*
X154648059Y-113126225D01*
X154569022Y-112834718D01*
X154461873Y-112556846D01*
X154328809Y-112296966D01*
X154172026Y-112059437D01*
X154016200Y-111872382D01*
X153955660Y-111810886D01*
X153903570Y-111769113D01*
X153846360Y-111737945D01*
X153773715Y-111709423D01*
X153715286Y-111689620D01*
X153664142Y-111676094D01*
X153611049Y-111667729D01*
X153546773Y-111663405D01*
X153462079Y-111662003D01*
X153383643Y-111662174D01*
X153218522Y-111668117D01*
X153056922Y-111684988D01*
X152892576Y-111714237D01*
X152719220Y-111757316D01*
X152530587Y-111815678D01*
X152320413Y-111890774D01*
X152204357Y-111935417D01*
X152114941Y-111972068D01*
X152010230Y-112017556D01*
X151895344Y-112069398D01*
X151775402Y-112125110D01*
X151655522Y-112182211D01*
X151540824Y-112238217D01*
X151436428Y-112290646D01*
X151347453Y-112337013D01*
X151279017Y-112374838D01*
X151236239Y-112401635D01*
X151226451Y-112409718D01*
X151204017Y-112438040D01*
X151168303Y-112488369D01*
X151125384Y-112552020D01*
X151103617Y-112585357D01*
X151032683Y-112682542D01*
X150938865Y-112792496D01*
X150829483Y-112907881D01*
X150711860Y-113021362D01*
X150593316Y-113125601D01*
X150481174Y-113213262D01*
X150466811Y-113223506D01*
X150399623Y-113270133D01*
X150342409Y-113308607D01*
X150302250Y-113334237D01*
X150287488Y-113342243D01*
X150284043Y-113361155D01*
X150281644Y-113413036D01*
X150280241Y-113494583D01*
X150279784Y-113602497D01*
X149868126Y-113602497D01*
X149865766Y-113551614D01*
X149862906Y-113498148D01*
X149862387Y-113490260D01*
X149851983Y-113342877D01*
X149694670Y-113236597D01*
X149613432Y-113176246D01*
X149519057Y-113097363D01*
X149417986Y-113006215D01*
X149316664Y-112909070D01*
X149221532Y-112812197D01*
X149139034Y-112721863D01*
X149075612Y-112644336D01*
X149053223Y-112612572D01*
X149007603Y-112539178D01*
X148960615Y-112458475D01*
X148935744Y-112413000D01*
X148915858Y-112376373D01*
X148896561Y-112347414D01*
X148872469Y-112322219D01*
X148838201Y-112296884D01*
X148788371Y-112267505D01*
X148717596Y-112230178D01*
X148620493Y-112180998D01*
X148605271Y-112173337D01*
X148294893Y-112026066D01*
X147997679Y-111902964D01*
X147715185Y-111804381D01*
X147448968Y-111730666D01*
X147200585Y-111682171D01*
X146971594Y-111659245D01*
X146763551Y-111662237D01*
X146578014Y-111691499D01*
X146525643Y-111705857D01*
X146463228Y-111726823D01*
X146414293Y-111749973D01*
X146368723Y-111782065D01*
X146316400Y-111829856D01*
X146269993Y-111876624D01*
X146118153Y-112053759D01*
X145978727Y-112258799D01*
X145856111Y-112484263D01*
X145754698Y-112722668D01*
X145727489Y-112800326D01*
X145645635Y-113101692D01*
X145597799Y-113407024D01*
X145583302Y-113713320D01*
X145212733Y-113713320D01*
X145223811Y-113392902D01*
X145270194Y-113067181D01*
X145351224Y-112749972D01*
X145466674Y-112442546D01*
X145616320Y-112146175D01*
X145728238Y-111965433D01*
X145798661Y-111866493D01*
X145878922Y-111764904D01*
X145963632Y-111666517D01*
X146047402Y-111577186D01*
X146124842Y-111502762D01*
X146190564Y-111449098D01*
X146221750Y-111429497D01*
X146265372Y-111397779D01*
X146280444Y-111359054D01*
X146280715Y-111351338D01*
X146278926Y-111322481D01*
X146273845Y-111262081D01*
X146265900Y-111174689D01*
X146255520Y-111064857D01*
X146243133Y-110937137D01*
X146229168Y-110796079D01*
X146217863Y-110683744D01*
X146201288Y-110518897D01*
X146184460Y-110349193D01*
X146168113Y-110182215D01*
X146152984Y-110025547D01*
X146139807Y-109886771D01*
X146129317Y-109773468D01*
X146126035Y-109736929D01*
X146115766Y-109600767D01*
X146107447Y-109449520D01*
X146101189Y-109290140D01*
X146097105Y-109129577D01*
X146095901Y-109026008D01*
X146462143Y-109026008D01*
X146462583Y-109110733D01*
X146464095Y-109193646D01*
X146466970Y-109278734D01*
X146471498Y-109369983D01*
X146477969Y-109471379D01*
X146486673Y-109586909D01*
X146497899Y-109720559D01*
X146511939Y-109876316D01*
X146529082Y-110058166D01*
X146549618Y-110270095D01*
X146561395Y-110390072D01*
X146576576Y-110544457D01*
X146591128Y-110692878D01*
X146604539Y-110830074D01*
X146616296Y-110950789D01*
X146625887Y-111049764D01*
X146632799Y-111121742D01*
X146635868Y-111154309D01*
X146647807Y-111283547D01*
X146940511Y-111292946D01*
X147140673Y-111305230D01*
X147337134Y-111329950D01*
X147535234Y-111368544D01*
X147740311Y-111422447D01*
X147957703Y-111493096D01*
X148192750Y-111581929D01*
X148450791Y-111690382D01*
X148503215Y-111713482D01*
X148757215Y-111826149D01*
X148771097Y-111752182D01*
X148819266Y-111569340D01*
X148889762Y-111413783D01*
X148982070Y-111286205D01*
X149095675Y-111187298D01*
X149230062Y-111117755D01*
X149247072Y-111111586D01*
X149355026Y-111086659D01*
X149475993Y-111078977D01*
X149595983Y-111088202D01*
X149701005Y-111113997D01*
X149723512Y-111123098D01*
X149795106Y-111165651D01*
X149871535Y-111228000D01*
X149943652Y-111300887D01*
X150002307Y-111375055D01*
X150038352Y-111441246D01*
X150038617Y-111441973D01*
X150055911Y-111483060D01*
X150069619Y-111504287D01*
X150071681Y-111505114D01*
X150084247Y-111489697D01*
X150105948Y-111450841D01*
X150123079Y-111415954D01*
X150198599Y-111295244D01*
X150298160Y-111198689D01*
X150416936Y-111128460D01*
X150550102Y-111086725D01*
X150692832Y-111075653D01*
X150834867Y-111096010D01*
X150979283Y-111150577D01*
X151105205Y-111234538D01*
X151209772Y-111344542D01*
X151290125Y-111477238D01*
X151343402Y-111629275D01*
X151358742Y-111709708D01*
X151366189Y-111777551D01*
X151368724Y-111835263D01*
X151366186Y-111867896D01*
X151363030Y-111897351D01*
X151368033Y-111905000D01*
X151388194Y-111897342D01*
X151433108Y-111876731D01*
X151495206Y-111846711D01*
X151539077Y-111824897D01*
X151794815Y-111704135D01*
X152056803Y-111594857D01*
X152318989Y-111499008D01*
X152575320Y-111418533D01*
X152819744Y-111355375D01*
X153046209Y-111311480D01*
X153195087Y-111292864D01*
X153347357Y-111279072D01*
X153386899Y-110934358D01*
X153420272Y-110640674D01*
X153449202Y-110379613D01*
X153473968Y-110147820D01*
X153494848Y-109941940D01*
X153512123Y-109758620D01*
X153526069Y-109594503D01*
X153536967Y-109446235D01*
X153545095Y-109310463D01*
X153550731Y-109183831D01*
X153554155Y-109062984D01*
X153555645Y-108944569D01*
X153555762Y-108902358D01*
X153553967Y-108709534D01*
X153547925Y-108545111D01*
X153536893Y-108401373D01*
X153520122Y-108270604D01*
X153496868Y-108145089D01*
X153472452Y-108040726D01*
X153408364Y-107836770D01*
X153322238Y-107646882D01*
X153212888Y-107470311D01*
X153079126Y-107306307D01*
X152919766Y-107154120D01*
X152733621Y-107013000D01*
X152519504Y-106882198D01*
X152276229Y-106760961D01*
X152002608Y-106648542D01*
X151697455Y-106544189D01*
X151359583Y-106447152D01*
X150987805Y-106356681D01*
X150716529Y-106298834D01*
X150611323Y-106277086D01*
X150535124Y-106259669D01*
X150481271Y-106244236D01*
X150443104Y-106228444D01*
X150413965Y-106209946D01*
X150387192Y-106186398D01*
X150381519Y-106180860D01*
X150355639Y-106154156D01*
X150308126Y-106103905D01*
X150241916Y-106033258D01*
X150159947Y-105945370D01*
X150065158Y-105843391D01*
X149960485Y-105730476D01*
X149848866Y-105609777D01*
X149791358Y-105547479D01*
X149679905Y-105426895D01*
X149576030Y-105314931D01*
X149482308Y-105214335D01*
X149401315Y-105127851D01*
X149335629Y-105058227D01*
X149287825Y-105008207D01*
X149260480Y-104980537D01*
X149254986Y-104975808D01*
X149251015Y-104992110D01*
X149250919Y-105039083D01*
X149254223Y-105111374D01*
X149260449Y-105203631D01*
X149269122Y-105310502D01*
X149279765Y-105426633D01*
X149291902Y-105546671D01*
X149305056Y-105665265D01*
X149318752Y-105777061D01*
X149332512Y-105876707D01*
X149338752Y-105917109D01*
X149349296Y-105987053D01*
X149356175Y-106041746D01*
X149358366Y-106072601D01*
X149357731Y-106076318D01*
X149339203Y-106081098D01*
X149294526Y-106089879D01*
X149233388Y-106100986D01*
X149165479Y-106112745D01*
X149100489Y-106123481D01*
X149048106Y-106131522D01*
X149018021Y-106135192D01*
X149016599Y-106135255D01*
X149002619Y-106120332D01*
X148980930Y-106081852D01*
X148966931Y-106052129D01*
X148883263Y-105906722D01*
X148770088Y-105778578D01*
X148681976Y-105706636D01*
X148626436Y-105668569D01*
X148583019Y-105641747D01*
X148559253Y-105630730D01*
X148557202Y-105631037D01*
X148556609Y-105653676D01*
X148566874Y-105704395D01*
X148586192Y-105777271D01*
X148612757Y-105866380D01*
X148644764Y-105965798D01*
X148680406Y-106069603D01*
X148717879Y-106171869D01*
X148737437Y-106222343D01*
X148772730Y-106312119D01*
X148803269Y-106391003D01*
X148826505Y-106452321D01*
X148839889Y-106489394D01*
X148841951Y-106496089D01*
X148831043Y-106511468D01*
X148791064Y-106533260D01*
X148720113Y-106562315D01*
X148616285Y-106599486D01*
X148593929Y-106607115D01*
X148399080Y-106674823D01*
X148229438Y-106737642D01*
X148075036Y-106799585D01*
X147925902Y-106864665D01*
X147772069Y-106936895D01*
X147759357Y-106943056D01*
X147561907Y-107044703D01*
X147391800Y-107145740D01*
X147240662Y-107251957D01*
X147100121Y-107369143D01*
X146988035Y-107476348D01*
X146908290Y-107558232D01*
X146848237Y-107624784D01*
X146800930Y-107685308D01*
X146759419Y-107749107D01*
X146716756Y-107825484D01*
X146692261Y-107872385D01*
X146616326Y-108036508D01*
X146557086Y-108204414D01*
X146513297Y-108382352D01*
X146483709Y-108576575D01*
X146467078Y-108793330D01*
X146462143Y-109026008D01*
X146095901Y-109026008D01*
X146095305Y-108974783D01*
X146095901Y-108832709D01*
X146099005Y-108710306D01*
X146104729Y-108614524D01*
X146107573Y-108586886D01*
X146121574Y-108470985D01*
X146028388Y-108479939D01*
X145973334Y-108486991D01*
X145934606Y-108495216D01*
X145924347Y-108499748D01*
X145917887Y-108520606D01*
X145907336Y-108570806D01*
X145893931Y-108643798D01*
X145878910Y-108733033D01*
X145871574Y-108779168D01*
X145784976Y-109255740D01*
X145676010Y-109722248D01*
X145546021Y-110174760D01*
X145396351Y-110609345D01*
X145228343Y-111022073D01*
X145043341Y-111409011D01*
X144861550Y-111735072D01*
X144691229Y-111996021D01*
X144502121Y-112244952D01*
X144298597Y-112477302D01*
X144085032Y-112688507D01*
X143865797Y-112874007D01*
X143645267Y-113029237D01*
X143587316Y-113064631D01*
X143314064Y-113207288D01*
X143027746Y-113321311D01*
X142734994Y-113404477D01*
X142442437Y-113454565D01*
X142414848Y-113457527D01*
X142271153Y-113456574D01*
X142143217Y-113423020D01*
X142031218Y-113357035D01*
X141935334Y-113258785D01*
X141855741Y-113128441D01*
X141792618Y-112966170D01*
X141758161Y-112832912D01*
X141738306Y-112707307D01*
X141725596Y-112553666D01*
X141720017Y-112379524D01*
X141721555Y-112192418D01*
X141730194Y-111999884D01*
X141745921Y-111809458D01*
X141760358Y-111687231D01*
X141814401Y-111342220D01*
X141884431Y-110989131D01*
X141969127Y-110631204D01*
X142067165Y-110271681D01*
X142177224Y-109913803D01*
X142297979Y-109560812D01*
X142428109Y-109215950D01*
X142566291Y-108882457D01*
X142711203Y-108563576D01*
X142861522Y-108262548D01*
X143015924Y-107982614D01*
X143173089Y-107727015D01*
X143331692Y-107498994D01*
X143490411Y-107301791D01*
X143595854Y-107188827D01*
X143777616Y-107032026D01*
X143981304Y-106903464D01*
X144207691Y-106802727D01*
X144454761Y-106730041D01*
X144601722Y-106705482D01*
X144771113Y-106692268D01*
X144950903Y-106690383D01*
X145129059Y-106699814D01*
X145293550Y-106720543D01*
X145349038Y-106731180D01*
X145605353Y-106797381D01*
X145856411Y-106886309D01*
X146109322Y-107000891D01*
X146371191Y-107144051D01*
X146413469Y-107169245D01*
X146627866Y-107298358D01*
X146781877Y-107152573D01*
X146958273Y-107002609D01*
X147166691Y-106855338D01*
X147402871Y-106713280D01*
X147662549Y-106578955D01*
X147941464Y-106454881D01*
X148007199Y-106428333D01*
X148097284Y-106393003D01*
X148181194Y-106360788D01*
X148250045Y-106335053D01*
X148294954Y-106319165D01*
X148297645Y-106318293D01*
X148364218Y-106297009D01*
X148310670Y-106139183D01*
X148245706Y-105930342D01*
X148202228Y-105750149D01*
X148180251Y-105598730D01*
X148179790Y-105476207D01*
X148200862Y-105382705D01*
X148214118Y-105355491D01*
X148279309Y-105275809D01*
X148362551Y-105226818D01*
X148459966Y-105210286D01*
X148511399Y-105214433D01*
X148566661Y-105228940D01*
X148634924Y-105256913D01*
X148717434Y-105297381D01*
X148887444Y-105384475D01*
X148885829Y-105029773D01*
X148885547Y-104905905D01*
X148886325Y-104812324D01*
X148888675Y-104743037D01*
X148893108Y-104692048D01*
X148900137Y-104653365D01*
X148910273Y-104620992D01*
X148923339Y-104590423D01*
X148956673Y-104533456D01*
X148996106Y-104486491D01*
X149013255Y-104472495D01*
X149079938Y-104446714D01*
X149160450Y-104440581D01*
X149237837Y-104454536D01*
G37*
X149237837Y-104454536D02*
X149264353Y-104465968D01*
X149286043Y-104484140D01*
X149329816Y-104526423D01*
X149393178Y-104590228D01*
X149473639Y-104672968D01*
X149568707Y-104772054D01*
X149675890Y-104884899D01*
X149792695Y-105008915D01*
X149916632Y-105141513D01*
X149967656Y-105196388D01*
X150095519Y-105333487D01*
X150216112Y-105461592D01*
X150327085Y-105578288D01*
X150426093Y-105681159D01*
X150510788Y-105767793D01*
X150578823Y-105835774D01*
X150627850Y-105882688D01*
X150655523Y-105906120D01*
X150659735Y-105908328D01*
X150690787Y-105914914D01*
X150749896Y-105927417D01*
X150829616Y-105944263D01*
X150922502Y-105963879D01*
X150961572Y-105972126D01*
X151380578Y-106069691D01*
X151765781Y-106178356D01*
X152117058Y-106298065D01*
X152434283Y-106428762D01*
X152717331Y-106570389D01*
X152966078Y-106722892D01*
X153180400Y-106886213D01*
X153352925Y-107052340D01*
X153463234Y-107172723D01*
X153642096Y-107062808D01*
X153936696Y-106899123D01*
X154239164Y-106764507D01*
X154543602Y-106661386D01*
X154735720Y-106613258D01*
X154816401Y-106598679D01*
X154904327Y-106588929D01*
X155008131Y-106583406D01*
X155136450Y-106581505D01*
X155188857Y-106581585D01*
X155307680Y-106582793D01*
X155399440Y-106585777D01*
X155473354Y-106591484D01*
X155538636Y-106600861D01*
X155604500Y-106614857D01*
X155666254Y-106630670D01*
X155875460Y-106695919D01*
X156060867Y-106774918D01*
X156228244Y-106871726D01*
X156383362Y-106990403D01*
X156531993Y-107135008D01*
X156679908Y-107309602D01*
X156736082Y-107383249D01*
X156905863Y-107628331D01*
X157072061Y-107901041D01*
X157233461Y-108197558D01*
X157388849Y-108514061D01*
X157537008Y-108846729D01*
X157676725Y-109191739D01*
X157806783Y-109545270D01*
X157925969Y-109903502D01*
X158033065Y-110262611D01*
X158126858Y-110618777D01*
X158206133Y-110968179D01*
X158269673Y-111306994D01*
X158316265Y-111631402D01*
X158344692Y-111937580D01*
X158353740Y-112221708D01*
X158345223Y-112443846D01*
X158319898Y-112661278D01*
X158279426Y-112846744D01*
X158223222Y-113001513D01*
X158150700Y-113126857D01*
X158061274Y-113224045D01*
X157954357Y-113294347D01*
X157952339Y-113295340D01*
X157890097Y-113322452D01*
X157833310Y-113337120D01*
X157766079Y-113342479D01*
X157713187Y-113342518D01*
X157553032Y-113329877D01*
X157372533Y-113297944D01*
X157180380Y-113249192D01*
X156985261Y-113186093D01*
X156795867Y-113111118D01*
X156641369Y-113037560D01*
X156367576Y-112875066D01*
X156104393Y-112678983D01*
X155853503Y-112450891D01*
X155616585Y-112192370D01*
X155395322Y-111905000D01*
X155320723Y-111796143D01*
X155117369Y-111463298D01*
X154928732Y-111099759D01*
X154755849Y-110708441D01*
X154599757Y-110292258D01*
X154461493Y-109854127D01*
X154342093Y-109396960D01*
X154242594Y-108923673D01*
X154190820Y-108619983D01*
X154177307Y-108532300D01*
X154166096Y-108458124D01*
X154158239Y-108404520D01*
X154154788Y-108378553D01*
X154154715Y-108377426D01*
X154138129Y-108372287D01*
X154094587Y-108368600D01*
X154033411Y-108367144D01*
X154031631Y-108367143D01*
X153908547Y-108367143D01*
X153924116Y-108544036D01*
X153931999Y-108671633D01*
X153934760Y-108819244D01*
X153932278Y-108988738D01*
X153924432Y-109181988D01*
X153911101Y-109400863D01*
X153892165Y-109647234D01*
X153867503Y-109922973D01*
X153836994Y-110229948D01*
X153800517Y-110570032D01*
X153783431Y-110722804D01*
X153767946Y-110862649D01*
X153754362Y-110990920D01*
X153743101Y-111103176D01*
X153734586Y-111194974D01*
X153729237Y-111261874D01*
X153727476Y-111299434D01*
X153728091Y-111305855D01*
X153750242Y-111318180D01*
X153793739Y-111330383D01*
X153805264Y-111332646D01*
X153852981Y-111346232D01*
X153920819Y-111371716D01*
X153996629Y-111404405D01*
X154022814Y-111416687D01*
X154093833Y-111452814D01*
X154150022Y-111487927D01*
X154201173Y-111529835D01*
X154257075Y-111586345D01*
X154311351Y-111646806D01*
X154513026Y-111903135D01*
X154684190Y-112176966D01*
X154824512Y-112465660D01*
X154933660Y-112766576D01*
X155011306Y-113077073D01*
X155057117Y-113394511D01*
X155070764Y-113716249D01*
X155051916Y-114039647D01*
X155000241Y-114362064D01*
X154915411Y-114680859D01*
X154797093Y-114993393D01*
X154744616Y-115107215D01*
X154586612Y-115394240D01*
X154404029Y-115655410D01*
X154198595Y-115889860D01*
X153972039Y-116096726D01*
X153726090Y-116275143D01*
X153462477Y-116424245D01*
X153182929Y-116543169D01*
X152889175Y-116631049D01*
X152582944Y-116687021D01*
X152265965Y-116710219D01*
X151939966Y-116699780D01*
X151638825Y-116660653D01*
X151354010Y-116599124D01*
X151059116Y-116514379D01*
X150765880Y-116410531D01*
X150486038Y-116291693D01*
X150258076Y-116176830D01*
X150144224Y-116114324D01*
X149927564Y-116222933D01*
X149630130Y-116362470D01*
X149344380Y-116475974D01*
X149060614Y-116566730D01*
X148769133Y-116638022D01*
X148612072Y-116668353D01*
X148516792Y-116681251D01*
X148395914Y-116691680D01*
X148259124Y-116699363D01*
X148116108Y-116704025D01*
X147976551Y-116705389D01*
X147850140Y-116703179D01*
X147746562Y-116697118D01*
X147716462Y-116693906D01*
X147406918Y-116637376D01*
X147110689Y-116548079D01*
X146829485Y-116427628D01*
X146565013Y-116277636D01*
X146318984Y-116099715D01*
X146093105Y-115895478D01*
X145889085Y-115666538D01*
X145708633Y-115414508D01*
X145553458Y-115140999D01*
X145425268Y-114847625D01*
X145325773Y-114535998D01*
X145294796Y-114408423D01*
X145235887Y-114064795D01*
X145212300Y-113725864D01*
X145212733Y-113713320D01*
X145583302Y-113713320D01*
X145601466Y-114017574D01*
X145651612Y-114316784D01*
X145733059Y-114607945D01*
X145845130Y-114888053D01*
X145987144Y-115154105D01*
X146158423Y-115403097D01*
X146358288Y-115632024D01*
X146370464Y-115644343D01*
X146573854Y-115829628D01*
X146784103Y-115982139D01*
X147006837Y-116105363D01*
X147247679Y-116202791D01*
X147296715Y-116218917D01*
X147439792Y-116261147D01*
X147574348Y-116293167D01*
X147711687Y-116316950D01*
X147863115Y-116334470D01*
X148031500Y-116347183D01*
X148063372Y-116346616D01*
X148122689Y-116343388D01*
X148200752Y-116338039D01*
X148282210Y-116331660D01*
X148616521Y-116287134D01*
X148956406Y-116209157D01*
X149297264Y-116099112D01*
X149634497Y-115958378D01*
X149804965Y-115874529D01*
X149945572Y-115801671D01*
X149945806Y-115717514D01*
X149945163Y-115676758D01*
X149943210Y-115603917D01*
X149940103Y-115503164D01*
X149935997Y-115378671D01*
X149931050Y-115234609D01*
X149925418Y-115075152D01*
X149919256Y-114904470D01*
X149912721Y-114726736D01*
X149905970Y-114546121D01*
X149899158Y-114366798D01*
X149892442Y-114192939D01*
X149885977Y-114028715D01*
X149879922Y-113878299D01*
X149874430Y-113745862D01*
X149869660Y-113635576D01*
X149868126Y-113602497D01*
X150279784Y-113602497D01*
X150280224Y-113733476D01*
X150281512Y-113884219D01*
X150283599Y-114051425D01*
X150286434Y-114231794D01*
X150289968Y-114422023D01*
X150294153Y-114618813D01*
X150298937Y-114818861D01*
X150304273Y-115018868D01*
X150310111Y-115215531D01*
X150316400Y-115405551D01*
X150319802Y-115499806D01*
X150331037Y-115801682D01*
X150578268Y-115919866D01*
X150719085Y-115986136D01*
X150838092Y-116039321D01*
X150945482Y-116083441D01*
X151051448Y-116122516D01*
X151166184Y-116160564D01*
X151270000Y-116192621D01*
X151576979Y-116272189D01*
X151871512Y-116320840D01*
X152159384Y-116339031D01*
X152446383Y-116327220D01*
X152648857Y-116301506D01*
X152928727Y-116238805D01*
X153193768Y-116143842D01*
X153442569Y-116018070D01*
X153673720Y-115862941D01*
X153885807Y-115679908D01*
X154077420Y-115470423D01*
X154247146Y-115235939D01*
X154393574Y-114977909D01*
X154515291Y-114697785D01*
X154610887Y-114397020D01*
X154647149Y-114245429D01*
X154661810Y-114172116D01*
X154672576Y-114103398D01*
X154680014Y-114031474D01*
X154684692Y-113948542D01*
X154687177Y-113846801D01*
X154688037Y-113718450D01*
X154688065Y-113683000D01*
X154687495Y-113546732D01*
X154685419Y-113439032D01*
X154681282Y-113352195D01*
X154674529Y-113278516D01*
X154664609Y-113210289D01*
X154650967Y-113139811D01*
X154648059Y-113126225D01*
X154569022Y-112834718D01*
X154461873Y-112556846D01*
X154328809Y-112296966D01*
X154172026Y-112059437D01*
X154016200Y-111872382D01*
X153955660Y-111810886D01*
X153903570Y-111769113D01*
X153846360Y-111737945D01*
X153773715Y-111709423D01*
X153715286Y-111689620D01*
X153664142Y-111676094D01*
X153611049Y-111667729D01*
X153546773Y-111663405D01*
X153462079Y-111662003D01*
X153383643Y-111662174D01*
X153218522Y-111668117D01*
X153056922Y-111684988D01*
X152892576Y-111714237D01*
X152719220Y-111757316D01*
X152530587Y-111815678D01*
X152320413Y-111890774D01*
X152204357Y-111935417D01*
X152114941Y-111972068D01*
X152010230Y-112017556D01*
X151895344Y-112069398D01*
X151775402Y-112125110D01*
X151655522Y-112182211D01*
X151540824Y-112238217D01*
X151436428Y-112290646D01*
X151347453Y-112337013D01*
X151279017Y-112374838D01*
X151236239Y-112401635D01*
X151226451Y-112409718D01*
X151204017Y-112438040D01*
X151168303Y-112488369D01*
X151125384Y-112552020D01*
X151103617Y-112585357D01*
X151032683Y-112682542D01*
X150938865Y-112792496D01*
X150829483Y-112907881D01*
X150711860Y-113021362D01*
X150593316Y-113125601D01*
X150481174Y-113213262D01*
X150466811Y-113223506D01*
X150399623Y-113270133D01*
X150342409Y-113308607D01*
X150302250Y-113334237D01*
X150287488Y-113342243D01*
X150284043Y-113361155D01*
X150281644Y-113413036D01*
X150280241Y-113494583D01*
X150279784Y-113602497D01*
X149868126Y-113602497D01*
X149865766Y-113551614D01*
X149862906Y-113498148D01*
X149862387Y-113490260D01*
X149851983Y-113342877D01*
X149694670Y-113236597D01*
X149613432Y-113176246D01*
X149519057Y-113097363D01*
X149417986Y-113006215D01*
X149316664Y-112909070D01*
X149221532Y-112812197D01*
X149139034Y-112721863D01*
X149075612Y-112644336D01*
X149053223Y-112612572D01*
X149007603Y-112539178D01*
X148960615Y-112458475D01*
X148935744Y-112413000D01*
X148915858Y-112376373D01*
X148896561Y-112347414D01*
X148872469Y-112322219D01*
X148838201Y-112296884D01*
X148788371Y-112267505D01*
X148717596Y-112230178D01*
X148620493Y-112180998D01*
X148605271Y-112173337D01*
X148294893Y-112026066D01*
X147997679Y-111902964D01*
X147715185Y-111804381D01*
X147448968Y-111730666D01*
X147200585Y-111682171D01*
X146971594Y-111659245D01*
X146763551Y-111662237D01*
X146578014Y-111691499D01*
X146525643Y-111705857D01*
X146463228Y-111726823D01*
X146414293Y-111749973D01*
X146368723Y-111782065D01*
X146316400Y-111829856D01*
X146269993Y-111876624D01*
X146118153Y-112053759D01*
X145978727Y-112258799D01*
X145856111Y-112484263D01*
X145754698Y-112722668D01*
X145727489Y-112800326D01*
X145645635Y-113101692D01*
X145597799Y-113407024D01*
X145583302Y-113713320D01*
X145212733Y-113713320D01*
X145223811Y-113392902D01*
X145270194Y-113067181D01*
X145351224Y-112749972D01*
X145466674Y-112442546D01*
X145616320Y-112146175D01*
X145728238Y-111965433D01*
X145798661Y-111866493D01*
X145878922Y-111764904D01*
X145963632Y-111666517D01*
X146047402Y-111577186D01*
X146124842Y-111502762D01*
X146190564Y-111449098D01*
X146221750Y-111429497D01*
X146265372Y-111397779D01*
X146280444Y-111359054D01*
X146280715Y-111351338D01*
X146278926Y-111322481D01*
X146273845Y-111262081D01*
X146265900Y-111174689D01*
X146255520Y-111064857D01*
X146243133Y-110937137D01*
X146229168Y-110796079D01*
X146217863Y-110683744D01*
X146201288Y-110518897D01*
X146184460Y-110349193D01*
X146168113Y-110182215D01*
X146152984Y-110025547D01*
X146139807Y-109886771D01*
X146129317Y-109773468D01*
X146126035Y-109736929D01*
X146115766Y-109600767D01*
X146107447Y-109449520D01*
X146101189Y-109290140D01*
X146097105Y-109129577D01*
X146095901Y-109026008D01*
X146462143Y-109026008D01*
X146462583Y-109110733D01*
X146464095Y-109193646D01*
X146466970Y-109278734D01*
X146471498Y-109369983D01*
X146477969Y-109471379D01*
X146486673Y-109586909D01*
X146497899Y-109720559D01*
X146511939Y-109876316D01*
X146529082Y-110058166D01*
X146549618Y-110270095D01*
X146561395Y-110390072D01*
X146576576Y-110544457D01*
X146591128Y-110692878D01*
X146604539Y-110830074D01*
X146616296Y-110950789D01*
X146625887Y-111049764D01*
X146632799Y-111121742D01*
X146635868Y-111154309D01*
X146647807Y-111283547D01*
X146940511Y-111292946D01*
X147140673Y-111305230D01*
X147337134Y-111329950D01*
X147535234Y-111368544D01*
X147740311Y-111422447D01*
X147957703Y-111493096D01*
X148192750Y-111581929D01*
X148450791Y-111690382D01*
X148503215Y-111713482D01*
X148757215Y-111826149D01*
X148771097Y-111752182D01*
X148819266Y-111569340D01*
X148889762Y-111413783D01*
X148982070Y-111286205D01*
X149095675Y-111187298D01*
X149230062Y-111117755D01*
X149247072Y-111111586D01*
X149355026Y-111086659D01*
X149475993Y-111078977D01*
X149595983Y-111088202D01*
X149701005Y-111113997D01*
X149723512Y-111123098D01*
X149795106Y-111165651D01*
X149871535Y-111228000D01*
X149943652Y-111300887D01*
X150002307Y-111375055D01*
X150038352Y-111441246D01*
X150038617Y-111441973D01*
X150055911Y-111483060D01*
X150069619Y-111504287D01*
X150071681Y-111505114D01*
X150084247Y-111489697D01*
X150105948Y-111450841D01*
X150123079Y-111415954D01*
X150198599Y-111295244D01*
X150298160Y-111198689D01*
X150416936Y-111128460D01*
X150550102Y-111086725D01*
X150692832Y-111075653D01*
X150834867Y-111096010D01*
X150979283Y-111150577D01*
X151105205Y-111234538D01*
X151209772Y-111344542D01*
X151290125Y-111477238D01*
X151343402Y-111629275D01*
X151358742Y-111709708D01*
X151366189Y-111777551D01*
X151368724Y-111835263D01*
X151366186Y-111867896D01*
X151363030Y-111897351D01*
X151368033Y-111905000D01*
X151388194Y-111897342D01*
X151433108Y-111876731D01*
X151495206Y-111846711D01*
X151539077Y-111824897D01*
X151794815Y-111704135D01*
X152056803Y-111594857D01*
X152318989Y-111499008D01*
X152575320Y-111418533D01*
X152819744Y-111355375D01*
X153046209Y-111311480D01*
X153195087Y-111292864D01*
X153347357Y-111279072D01*
X153386899Y-110934358D01*
X153420272Y-110640674D01*
X153449202Y-110379613D01*
X153473968Y-110147820D01*
X153494848Y-109941940D01*
X153512123Y-109758620D01*
X153526069Y-109594503D01*
X153536967Y-109446235D01*
X153545095Y-109310463D01*
X153550731Y-109183831D01*
X153554155Y-109062984D01*
X153555645Y-108944569D01*
X153555762Y-108902358D01*
X153553967Y-108709534D01*
X153547925Y-108545111D01*
X153536893Y-108401373D01*
X153520122Y-108270604D01*
X153496868Y-108145089D01*
X153472452Y-108040726D01*
X153408364Y-107836770D01*
X153322238Y-107646882D01*
X153212888Y-107470311D01*
X153079126Y-107306307D01*
X152919766Y-107154120D01*
X152733621Y-107013000D01*
X152519504Y-106882198D01*
X152276229Y-106760961D01*
X152002608Y-106648542D01*
X151697455Y-106544189D01*
X151359583Y-106447152D01*
X150987805Y-106356681D01*
X150716529Y-106298834D01*
X150611323Y-106277086D01*
X150535124Y-106259669D01*
X150481271Y-106244236D01*
X150443104Y-106228444D01*
X150413965Y-106209946D01*
X150387192Y-106186398D01*
X150381519Y-106180860D01*
X150355639Y-106154156D01*
X150308126Y-106103905D01*
X150241916Y-106033258D01*
X150159947Y-105945370D01*
X150065158Y-105843391D01*
X149960485Y-105730476D01*
X149848866Y-105609777D01*
X149791358Y-105547479D01*
X149679905Y-105426895D01*
X149576030Y-105314931D01*
X149482308Y-105214335D01*
X149401315Y-105127851D01*
X149335629Y-105058227D01*
X149287825Y-105008207D01*
X149260480Y-104980537D01*
X149254986Y-104975808D01*
X149251015Y-104992110D01*
X149250919Y-105039083D01*
X149254223Y-105111374D01*
X149260449Y-105203631D01*
X149269122Y-105310502D01*
X149279765Y-105426633D01*
X149291902Y-105546671D01*
X149305056Y-105665265D01*
X149318752Y-105777061D01*
X149332512Y-105876707D01*
X149338752Y-105917109D01*
X149349296Y-105987053D01*
X149356175Y-106041746D01*
X149358366Y-106072601D01*
X149357731Y-106076318D01*
X149339203Y-106081098D01*
X149294526Y-106089879D01*
X149233388Y-106100986D01*
X149165479Y-106112745D01*
X149100489Y-106123481D01*
X149048106Y-106131522D01*
X149018021Y-106135192D01*
X149016599Y-106135255D01*
X149002619Y-106120332D01*
X148980930Y-106081852D01*
X148966931Y-106052129D01*
X148883263Y-105906722D01*
X148770088Y-105778578D01*
X148681976Y-105706636D01*
X148626436Y-105668569D01*
X148583019Y-105641747D01*
X148559253Y-105630730D01*
X148557202Y-105631037D01*
X148556609Y-105653676D01*
X148566874Y-105704395D01*
X148586192Y-105777271D01*
X148612757Y-105866380D01*
X148644764Y-105965798D01*
X148680406Y-106069603D01*
X148717879Y-106171869D01*
X148737437Y-106222343D01*
X148772730Y-106312119D01*
X148803269Y-106391003D01*
X148826505Y-106452321D01*
X148839889Y-106489394D01*
X148841951Y-106496089D01*
X148831043Y-106511468D01*
X148791064Y-106533260D01*
X148720113Y-106562315D01*
X148616285Y-106599486D01*
X148593929Y-106607115D01*
X148399080Y-106674823D01*
X148229438Y-106737642D01*
X148075036Y-106799585D01*
X147925902Y-106864665D01*
X147772069Y-106936895D01*
X147759357Y-106943056D01*
X147561907Y-107044703D01*
X147391800Y-107145740D01*
X147240662Y-107251957D01*
X147100121Y-107369143D01*
X146988035Y-107476348D01*
X146908290Y-107558232D01*
X146848237Y-107624784D01*
X146800930Y-107685308D01*
X146759419Y-107749107D01*
X146716756Y-107825484D01*
X146692261Y-107872385D01*
X146616326Y-108036508D01*
X146557086Y-108204414D01*
X146513297Y-108382352D01*
X146483709Y-108576575D01*
X146467078Y-108793330D01*
X146462143Y-109026008D01*
X146095901Y-109026008D01*
X146095305Y-108974783D01*
X146095901Y-108832709D01*
X146099005Y-108710306D01*
X146104729Y-108614524D01*
X146107573Y-108586886D01*
X146121574Y-108470985D01*
X146028388Y-108479939D01*
X145973334Y-108486991D01*
X145934606Y-108495216D01*
X145924347Y-108499748D01*
X145917887Y-108520606D01*
X145907336Y-108570806D01*
X145893931Y-108643798D01*
X145878910Y-108733033D01*
X145871574Y-108779168D01*
X145784976Y-109255740D01*
X145676010Y-109722248D01*
X145546021Y-110174760D01*
X145396351Y-110609345D01*
X145228343Y-111022073D01*
X145043341Y-111409011D01*
X144861550Y-111735072D01*
X144691229Y-111996021D01*
X144502121Y-112244952D01*
X144298597Y-112477302D01*
X144085032Y-112688507D01*
X143865797Y-112874007D01*
X143645267Y-113029237D01*
X143587316Y-113064631D01*
X143314064Y-113207288D01*
X143027746Y-113321311D01*
X142734994Y-113404477D01*
X142442437Y-113454565D01*
X142414848Y-113457527D01*
X142271153Y-113456574D01*
X142143217Y-113423020D01*
X142031218Y-113357035D01*
X141935334Y-113258785D01*
X141855741Y-113128441D01*
X141792618Y-112966170D01*
X141758161Y-112832912D01*
X141738306Y-112707307D01*
X141725596Y-112553666D01*
X141720017Y-112379524D01*
X141721555Y-112192418D01*
X141730194Y-111999884D01*
X141745921Y-111809458D01*
X141760358Y-111687231D01*
X141814401Y-111342220D01*
X141884431Y-110989131D01*
X141969127Y-110631204D01*
X142067165Y-110271681D01*
X142177224Y-109913803D01*
X142297979Y-109560812D01*
X142428109Y-109215950D01*
X142566291Y-108882457D01*
X142711203Y-108563576D01*
X142861522Y-108262548D01*
X143015924Y-107982614D01*
X143173089Y-107727015D01*
X143331692Y-107498994D01*
X143490411Y-107301791D01*
X143595854Y-107188827D01*
X143777616Y-107032026D01*
X143981304Y-106903464D01*
X144207691Y-106802727D01*
X144454761Y-106730041D01*
X144601722Y-106705482D01*
X144771113Y-106692268D01*
X144950903Y-106690383D01*
X145129059Y-106699814D01*
X145293550Y-106720543D01*
X145349038Y-106731180D01*
X145605353Y-106797381D01*
X145856411Y-106886309D01*
X146109322Y-107000891D01*
X146371191Y-107144051D01*
X146413469Y-107169245D01*
X146627866Y-107298358D01*
X146781877Y-107152573D01*
X146958273Y-107002609D01*
X147166691Y-106855338D01*
X147402871Y-106713280D01*
X147662549Y-106578955D01*
X147941464Y-106454881D01*
X148007199Y-106428333D01*
X148097284Y-106393003D01*
X148181194Y-106360788D01*
X148250045Y-106335053D01*
X148294954Y-106319165D01*
X148297645Y-106318293D01*
X148364218Y-106297009D01*
X148310670Y-106139183D01*
X148245706Y-105930342D01*
X148202228Y-105750149D01*
X148180251Y-105598730D01*
X148179790Y-105476207D01*
X148200862Y-105382705D01*
X148214118Y-105355491D01*
X148279309Y-105275809D01*
X148362551Y-105226818D01*
X148459966Y-105210286D01*
X148511399Y-105214433D01*
X148566661Y-105228940D01*
X148634924Y-105256913D01*
X148717434Y-105297381D01*
X148887444Y-105384475D01*
X148885829Y-105029773D01*
X148885547Y-104905905D01*
X148886325Y-104812324D01*
X148888675Y-104743037D01*
X148893108Y-104692048D01*
X148900137Y-104653365D01*
X148910273Y-104620992D01*
X148923339Y-104590423D01*
X148956673Y-104533456D01*
X148996106Y-104486491D01*
X149013255Y-104472495D01*
X149079938Y-104446714D01*
X149160450Y-104440581D01*
X149237837Y-104454536D01*
G36*
X147452454Y-115202373D02*
G01*
X147549956Y-115247066D01*
X147630086Y-115314903D01*
X147689232Y-115400439D01*
X147723783Y-115498232D01*
X147730126Y-115602840D01*
X147704650Y-115708818D01*
X147698056Y-115724072D01*
X147634588Y-115824438D01*
X147551069Y-115899488D01*
X147453326Y-115946945D01*
X147347185Y-115964532D01*
X147238474Y-115949972D01*
X147178786Y-115926996D01*
X147075623Y-115861340D01*
X147004276Y-115778747D01*
X146963525Y-115677289D01*
X146952000Y-115568646D01*
X146968629Y-115454234D01*
X147015538Y-115354670D01*
X147088264Y-115274340D01*
X147182344Y-115217630D01*
X147293313Y-115188924D01*
X147341191Y-115186266D01*
X147452454Y-115202373D01*
G37*
X147452454Y-115202373D02*
X147549956Y-115247066D01*
X147630086Y-115314903D01*
X147689232Y-115400439D01*
X147723783Y-115498232D01*
X147730126Y-115602840D01*
X147704650Y-115708818D01*
X147698056Y-115724072D01*
X147634588Y-115824438D01*
X147551069Y-115899488D01*
X147453326Y-115946945D01*
X147347185Y-115964532D01*
X147238474Y-115949972D01*
X147178786Y-115926996D01*
X147075623Y-115861340D01*
X147004276Y-115778747D01*
X146963525Y-115677289D01*
X146952000Y-115568646D01*
X146968629Y-115454234D01*
X147015538Y-115354670D01*
X147088264Y-115274340D01*
X147182344Y-115217630D01*
X147293313Y-115188924D01*
X147341191Y-115186266D01*
X147452454Y-115202373D01*
G36*
X148379867Y-114623629D02*
G01*
X148480635Y-114650915D01*
X148572713Y-114706184D01*
X148647552Y-114786742D01*
X148676038Y-114830845D01*
X148692632Y-114870467D01*
X148700481Y-114918177D01*
X148702730Y-114986545D01*
X148702786Y-115007429D01*
X148701413Y-115082627D01*
X148695195Y-115134150D01*
X148680987Y-115174566D01*
X148655643Y-115216448D01*
X148647552Y-115228116D01*
X148569062Y-115310442D01*
X148471137Y-115367369D01*
X148362075Y-115395853D01*
X148250174Y-115392850D01*
X148218158Y-115385595D01*
X148138120Y-115348348D01*
X148060611Y-115286534D01*
X147996828Y-115210823D01*
X147960615Y-115140210D01*
X147937263Y-115052778D01*
X147934852Y-114977525D01*
X147953315Y-114897045D01*
X147959634Y-114878431D01*
X148012157Y-114778022D01*
X148086555Y-114701523D01*
X148176714Y-114649747D01*
X148276522Y-114623511D01*
X148379867Y-114623629D01*
G37*
X148379867Y-114623629D02*
X148480635Y-114650915D01*
X148572713Y-114706184D01*
X148647552Y-114786742D01*
X148676038Y-114830845D01*
X148692632Y-114870467D01*
X148700481Y-114918177D01*
X148702730Y-114986545D01*
X148702786Y-115007429D01*
X148701413Y-115082627D01*
X148695195Y-115134150D01*
X148680987Y-115174566D01*
X148655643Y-115216448D01*
X148647552Y-115228116D01*
X148569062Y-115310442D01*
X148471137Y-115367369D01*
X148362075Y-115395853D01*
X148250174Y-115392850D01*
X148218158Y-115385595D01*
X148138120Y-115348348D01*
X148060611Y-115286534D01*
X147996828Y-115210823D01*
X147960615Y-115140210D01*
X147937263Y-115052778D01*
X147934852Y-114977525D01*
X147953315Y-114897045D01*
X147959634Y-114878431D01*
X148012157Y-114778022D01*
X148086555Y-114701523D01*
X148176714Y-114649747D01*
X148276522Y-114623511D01*
X148379867Y-114623629D01*
G36*
X146684767Y-114257237D02*
G01*
X146780345Y-114296215D01*
X146866222Y-114363840D01*
X146912050Y-114420568D01*
X146951980Y-114508045D01*
X146968833Y-114611473D01*
X146961471Y-114717899D01*
X146943728Y-114781077D01*
X146890068Y-114874270D01*
X146812138Y-114947349D01*
X146717389Y-114997231D01*
X146613276Y-115020833D01*
X146507253Y-115015075D01*
X146434929Y-114991484D01*
X146343260Y-114933236D01*
X146268092Y-114853973D01*
X146215432Y-114762162D01*
X146191284Y-114666273D01*
X146190399Y-114646677D01*
X146205117Y-114531735D01*
X146247326Y-114433789D01*
X146311711Y-114354501D01*
X146392961Y-114295538D01*
X146485762Y-114258563D01*
X146584802Y-114245241D01*
X146684767Y-114257237D01*
G37*
X146684767Y-114257237D02*
X146780345Y-114296215D01*
X146866222Y-114363840D01*
X146912050Y-114420568D01*
X146951980Y-114508045D01*
X146968833Y-114611473D01*
X146961471Y-114717899D01*
X146943728Y-114781077D01*
X146890068Y-114874270D01*
X146812138Y-114947349D01*
X146717389Y-114997231D01*
X146613276Y-115020833D01*
X146507253Y-115015075D01*
X146434929Y-114991484D01*
X146343260Y-114933236D01*
X146268092Y-114853973D01*
X146215432Y-114762162D01*
X146191284Y-114666273D01*
X146190399Y-114646677D01*
X146205117Y-114531735D01*
X146247326Y-114433789D01*
X146311711Y-114354501D01*
X146392961Y-114295538D01*
X146485762Y-114258563D01*
X146584802Y-114245241D01*
X146684767Y-114257237D01*
G36*
X148229876Y-113215024D02*
G01*
X148302767Y-113239434D01*
X148373007Y-113286820D01*
X148401420Y-113311416D01*
X148473232Y-113397794D01*
X148514474Y-113494582D01*
X148527086Y-113596063D01*
X148513003Y-113696522D01*
X148474165Y-113790243D01*
X148412508Y-113871509D01*
X148329970Y-113934606D01*
X148228488Y-113973816D01*
X148173966Y-113982444D01*
X148110060Y-113983927D01*
X148052873Y-113978371D01*
X148036291Y-113974375D01*
X147928043Y-113922707D01*
X147842228Y-113846952D01*
X147783020Y-113752106D01*
X147754592Y-113643167D01*
X147753951Y-113636230D01*
X147760320Y-113518435D01*
X147796926Y-113412991D01*
X147859564Y-113324580D01*
X147944028Y-113257886D01*
X148046113Y-113217589D01*
X148138997Y-113207517D01*
X148229876Y-113215024D01*
G37*
X148229876Y-113215024D02*
X148302767Y-113239434D01*
X148373007Y-113286820D01*
X148401420Y-113311416D01*
X148473232Y-113397794D01*
X148514474Y-113494582D01*
X148527086Y-113596063D01*
X148513003Y-113696522D01*
X148474165Y-113790243D01*
X148412508Y-113871509D01*
X148329970Y-113934606D01*
X148228488Y-113973816D01*
X148173966Y-113982444D01*
X148110060Y-113983927D01*
X148052873Y-113978371D01*
X148036291Y-113974375D01*
X147928043Y-113922707D01*
X147842228Y-113846952D01*
X147783020Y-113752106D01*
X147754592Y-113643167D01*
X147753951Y-113636230D01*
X147760320Y-113518435D01*
X147796926Y-113412991D01*
X147859564Y-113324580D01*
X147944028Y-113257886D01*
X148046113Y-113217589D01*
X148138997Y-113207517D01*
X148229876Y-113215024D01*
G36*
X146495801Y-113109890D02*
G01*
X146598257Y-113165536D01*
X146615863Y-113179321D01*
X146691333Y-113262164D01*
X146737401Y-113357255D01*
X146755564Y-113458654D01*
X146747322Y-113560423D01*
X146714172Y-113656621D01*
X146657614Y-113741309D01*
X146579144Y-113808547D01*
X146480262Y-113852396D01*
X146444000Y-113860616D01*
X146385825Y-113868155D01*
X146337583Y-113869740D01*
X146326072Y-113868580D01*
X146203857Y-113832054D01*
X146107890Y-113770804D01*
X146037346Y-113684268D01*
X146026400Y-113664240D01*
X145984932Y-113548705D01*
X145979225Y-113436507D01*
X146009011Y-113329734D01*
X146074023Y-113230475D01*
X146083362Y-113220052D01*
X146175952Y-113143435D01*
X146279193Y-113099257D01*
X146387628Y-113087937D01*
X146495801Y-113109890D01*
G37*
X146495801Y-113109890D02*
X146598257Y-113165536D01*
X146615863Y-113179321D01*
X146691333Y-113262164D01*
X146737401Y-113357255D01*
X146755564Y-113458654D01*
X146747322Y-113560423D01*
X146714172Y-113656621D01*
X146657614Y-113741309D01*
X146579144Y-113808547D01*
X146480262Y-113852396D01*
X146444000Y-113860616D01*
X146385825Y-113868155D01*
X146337583Y-113869740D01*
X146326072Y-113868580D01*
X146203857Y-113832054D01*
X146107890Y-113770804D01*
X146037346Y-113684268D01*
X146026400Y-113664240D01*
X145984932Y-113548705D01*
X145979225Y-113436507D01*
X146009011Y-113329734D01*
X146074023Y-113230475D01*
X146083362Y-113220052D01*
X146175952Y-113143435D01*
X146279193Y-113099257D01*
X146387628Y-113087937D01*
X146495801Y-113109890D01*
G36*
X152693409Y-115193015D02*
G01*
X152766026Y-115217144D01*
X152836361Y-115264574D01*
X152864563Y-115288987D01*
X152936729Y-115376254D01*
X152979014Y-115475845D01*
X152992057Y-115581112D01*
X152976496Y-115685405D01*
X152932973Y-115782074D01*
X152862125Y-115864470D01*
X152805336Y-115905133D01*
X152710119Y-115945158D01*
X152607851Y-115961870D01*
X152511858Y-115953618D01*
X152483487Y-115945008D01*
X152381782Y-115893402D01*
X152306069Y-115821558D01*
X152260347Y-115747600D01*
X152221503Y-115633374D01*
X152217712Y-115520947D01*
X152248150Y-115414667D01*
X152311991Y-115318881D01*
X152348668Y-115282737D01*
X152422167Y-115227329D01*
X152493602Y-115197319D01*
X152578991Y-115186643D01*
X152603500Y-115186285D01*
X152693409Y-115193015D01*
G37*
X152693409Y-115193015D02*
X152766026Y-115217144D01*
X152836361Y-115264574D01*
X152864563Y-115288987D01*
X152936729Y-115376254D01*
X152979014Y-115475845D01*
X152992057Y-115581112D01*
X152976496Y-115685405D01*
X152932973Y-115782074D01*
X152862125Y-115864470D01*
X152805336Y-115905133D01*
X152710119Y-115945158D01*
X152607851Y-115961870D01*
X152511858Y-115953618D01*
X152483487Y-115945008D01*
X152381782Y-115893402D01*
X152306069Y-115821558D01*
X152260347Y-115747600D01*
X152221503Y-115633374D01*
X152217712Y-115520947D01*
X152248150Y-115414667D01*
X152311991Y-115318881D01*
X152348668Y-115282737D01*
X152422167Y-115227329D01*
X152493602Y-115197319D01*
X152578991Y-115186643D01*
X152603500Y-115186285D01*
X152693409Y-115193015D01*
G36*
X151727682Y-114635864D02*
G01*
X151823004Y-114678195D01*
X151899432Y-114742226D01*
X151955717Y-114822623D01*
X151990610Y-114914052D01*
X152002864Y-115011177D01*
X151991228Y-115108664D01*
X151954456Y-115201179D01*
X151891298Y-115283386D01*
X151800505Y-115349952D01*
X151787072Y-115356947D01*
X151706387Y-115384734D01*
X151616397Y-115396830D01*
X151536194Y-115390750D01*
X151533072Y-115389997D01*
X151419533Y-115344904D01*
X151329638Y-115274455D01*
X151266371Y-115182395D01*
X151232719Y-115072467D01*
X151227912Y-115007429D01*
X151244451Y-114890323D01*
X151291105Y-114789088D01*
X151363643Y-114707956D01*
X151457834Y-114651158D01*
X151569446Y-114622927D01*
X151614715Y-114620569D01*
X151727682Y-114635864D01*
G37*
X151727682Y-114635864D02*
X151823004Y-114678195D01*
X151899432Y-114742226D01*
X151955717Y-114822623D01*
X151990610Y-114914052D01*
X152002864Y-115011177D01*
X151991228Y-115108664D01*
X151954456Y-115201179D01*
X151891298Y-115283386D01*
X151800505Y-115349952D01*
X151787072Y-115356947D01*
X151706387Y-115384734D01*
X151616397Y-115396830D01*
X151536194Y-115390750D01*
X151533072Y-115389997D01*
X151419533Y-115344904D01*
X151329638Y-115274455D01*
X151266371Y-115182395D01*
X151232719Y-115072467D01*
X151227912Y-115007429D01*
X151244451Y-114890323D01*
X151291105Y-114789088D01*
X151363643Y-114707956D01*
X151457834Y-114651158D01*
X151569446Y-114622927D01*
X151614715Y-114620569D01*
X151727682Y-114635864D01*
G36*
X153448691Y-114254707D02*
G01*
X153551072Y-114290690D01*
X153611685Y-114330913D01*
X153686559Y-114415788D01*
X153731929Y-114515048D01*
X153747679Y-114621790D01*
X153733690Y-114729113D01*
X153689844Y-114830112D01*
X153621625Y-114912819D01*
X153521619Y-114983754D01*
X153414512Y-115019312D01*
X153301527Y-115019229D01*
X153222848Y-114998996D01*
X153125773Y-114947088D01*
X153051722Y-114872794D01*
X153001498Y-114782414D01*
X152975903Y-114682246D01*
X152975741Y-114578592D01*
X153001814Y-114477749D01*
X153054925Y-114386018D01*
X153135076Y-114310259D01*
X153230497Y-114264050D01*
X153338434Y-114245679D01*
X153448691Y-114254707D01*
G37*
X153448691Y-114254707D02*
X153551072Y-114290690D01*
X153611685Y-114330913D01*
X153686559Y-114415788D01*
X153731929Y-114515048D01*
X153747679Y-114621790D01*
X153733690Y-114729113D01*
X153689844Y-114830112D01*
X153621625Y-114912819D01*
X153521619Y-114983754D01*
X153414512Y-115019312D01*
X153301527Y-115019229D01*
X153222848Y-114998996D01*
X153125773Y-114947088D01*
X153051722Y-114872794D01*
X153001498Y-114782414D01*
X152975903Y-114682246D01*
X152975741Y-114578592D01*
X153001814Y-114477749D01*
X153054925Y-114386018D01*
X153135076Y-114310259D01*
X153230497Y-114264050D01*
X153338434Y-114245679D01*
X153448691Y-114254707D01*
G36*
X151896787Y-113215338D02*
G01*
X151970322Y-113240652D01*
X152042023Y-113289771D01*
X152060047Y-113305165D01*
X152133940Y-113391515D01*
X152177374Y-113489261D01*
X152191749Y-113592430D01*
X152178462Y-113695046D01*
X152138914Y-113791135D01*
X152074501Y-113874722D01*
X151986624Y-113939832D01*
X151903541Y-113973705D01*
X151814203Y-113989431D01*
X151729252Y-113979877D01*
X151682714Y-113965544D01*
X151574606Y-113909667D01*
X151492251Y-113830262D01*
X151438375Y-113731114D01*
X151415701Y-113616008D01*
X151415143Y-113593836D01*
X151431717Y-113477794D01*
X151478470Y-113376993D01*
X151550950Y-113295839D01*
X151644706Y-113238741D01*
X151755285Y-113210107D01*
X151805215Y-113207624D01*
X151896787Y-113215338D01*
G37*
X151896787Y-113215338D02*
X151970322Y-113240652D01*
X152042023Y-113289771D01*
X152060047Y-113305165D01*
X152133940Y-113391515D01*
X152177374Y-113489261D01*
X152191749Y-113592430D01*
X152178462Y-113695046D01*
X152138914Y-113791135D01*
X152074501Y-113874722D01*
X151986624Y-113939832D01*
X151903541Y-113973705D01*
X151814203Y-113989431D01*
X151729252Y-113979877D01*
X151682714Y-113965544D01*
X151574606Y-113909667D01*
X151492251Y-113830262D01*
X151438375Y-113731114D01*
X151415701Y-113616008D01*
X151415143Y-113593836D01*
X151431717Y-113477794D01*
X151478470Y-113376993D01*
X151550950Y-113295839D01*
X151644706Y-113238741D01*
X151755285Y-113210107D01*
X151805215Y-113207624D01*
X151896787Y-113215338D01*
G36*
X153684645Y-113101133D02*
G01*
X153779762Y-113146985D01*
X153858297Y-113216161D01*
X153916950Y-113302881D01*
X153952421Y-113401363D01*
X153961409Y-113505828D01*
X153940614Y-113610494D01*
X153911807Y-113672117D01*
X153842053Y-113763362D01*
X153756373Y-113823248D01*
X153650778Y-113854127D01*
X153594291Y-113859243D01*
X153524693Y-113858935D01*
X153463828Y-113853339D01*
X153429543Y-113845193D01*
X153329154Y-113784722D01*
X153252633Y-113701013D01*
X153203131Y-113600323D01*
X153183800Y-113488911D01*
X153195730Y-113380886D01*
X153236193Y-113288752D01*
X153304123Y-113206365D01*
X153390930Y-113140419D01*
X153488025Y-113097608D01*
X153576248Y-113084387D01*
X153684645Y-113101133D01*
G37*
X153684645Y-113101133D02*
X153779762Y-113146985D01*
X153858297Y-113216161D01*
X153916950Y-113302881D01*
X153952421Y-113401363D01*
X153961409Y-113505828D01*
X153940614Y-113610494D01*
X153911807Y-113672117D01*
X153842053Y-113763362D01*
X153756373Y-113823248D01*
X153650778Y-113854127D01*
X153594291Y-113859243D01*
X153524693Y-113858935D01*
X153463828Y-113853339D01*
X153429543Y-113845193D01*
X153329154Y-113784722D01*
X153252633Y-113701013D01*
X153203131Y-113600323D01*
X153183800Y-113488911D01*
X153195730Y-113380886D01*
X153236193Y-113288752D01*
X153304123Y-113206365D01*
X153390930Y-113140419D01*
X153488025Y-113097608D01*
X153576248Y-113084387D01*
X153684645Y-113101133D01*
G36*
X148782605Y-107697607D02*
G01*
X148966558Y-107750534D01*
X149056572Y-107789533D01*
X149161872Y-107853495D01*
X149272394Y-107943722D01*
X149380699Y-108052473D01*
X149479345Y-108172009D01*
X149560893Y-108294589D01*
X149585632Y-108339929D01*
X149663756Y-108506441D01*
X149720717Y-108661801D01*
X149758954Y-108816667D01*
X149780908Y-108981699D01*
X149789017Y-109167556D01*
X149789116Y-109228929D01*
X149787465Y-109345485D01*
X149783409Y-109436307D01*
X149775801Y-109511926D01*
X149763493Y-109582874D01*
X149745339Y-109659679D01*
X149739979Y-109680174D01*
X149668022Y-109897214D01*
X149573279Y-110095144D01*
X149458111Y-110271247D01*
X149324880Y-110422803D01*
X149175946Y-110547096D01*
X149013672Y-110641407D01*
X148854624Y-110699357D01*
X148774347Y-110713496D01*
X148672394Y-110721333D01*
X148562852Y-110722702D01*
X148459809Y-110717431D01*
X148377352Y-110705354D01*
X148376249Y-110705098D01*
X148278582Y-110672473D01*
X148168478Y-110620003D01*
X148058159Y-110554461D01*
X147959846Y-110482623D01*
X147932784Y-110459291D01*
X147787131Y-110304771D01*
X147666424Y-110130046D01*
X147570459Y-109938899D01*
X147499034Y-109735113D01*
X147451945Y-109522470D01*
X147428989Y-109304753D01*
X147429098Y-109280082D01*
X147799529Y-109280082D01*
X147810914Y-109435997D01*
X147834534Y-109572871D01*
X147839075Y-109590733D01*
X147903386Y-109779608D01*
X147988698Y-109947634D01*
X148092559Y-110091791D01*
X148212519Y-110209056D01*
X148346127Y-110296408D01*
X148444904Y-110337632D01*
X148529568Y-110353572D01*
X148631176Y-110355685D01*
X148733480Y-110344806D01*
X148820235Y-110321773D01*
X148829786Y-110317815D01*
X148873379Y-110297771D01*
X148886930Y-110286328D01*
X148873802Y-110277915D01*
X148857000Y-110272728D01*
X148747099Y-110226339D01*
X148638442Y-110154925D01*
X148567491Y-110091512D01*
X148466023Y-109962280D01*
X148390546Y-109813386D01*
X148341076Y-109650506D01*
X148317629Y-109479316D01*
X148320222Y-109305491D01*
X148348870Y-109134708D01*
X148403592Y-108972643D01*
X148484402Y-108824970D01*
X148563567Y-108725544D01*
X148675339Y-108628880D01*
X148800133Y-108561071D01*
X148932399Y-108523733D01*
X149066583Y-108518482D01*
X149188108Y-108543770D01*
X149242629Y-108560251D01*
X149280384Y-108567746D01*
X149292429Y-108565419D01*
X149281419Y-108536914D01*
X149252127Y-108488604D01*
X149210164Y-108427992D01*
X149161138Y-108362586D01*
X149110659Y-108299890D01*
X149064336Y-108247408D01*
X149030271Y-108214649D01*
X148895953Y-108124825D01*
X148757330Y-108070462D01*
X148616921Y-108051378D01*
X148477245Y-108067395D01*
X148340821Y-108118334D01*
X148210166Y-108204015D01*
X148129035Y-108278766D01*
X148027782Y-108405330D01*
X147939518Y-108558841D01*
X147868613Y-108730997D01*
X147838820Y-108829786D01*
X147813477Y-108963807D01*
X147800381Y-109118295D01*
X147799529Y-109280082D01*
X147429098Y-109280082D01*
X147429965Y-109085744D01*
X147454667Y-108869226D01*
X147502895Y-108658983D01*
X147574444Y-108458795D01*
X147669111Y-108272447D01*
X147786694Y-108103720D01*
X147926990Y-107956398D01*
X148073086Y-107844860D01*
X148243836Y-107754354D01*
X148419901Y-107699592D01*
X148599939Y-107680651D01*
X148782605Y-107697607D01*
G37*
X148782605Y-107697607D02*
X148966558Y-107750534D01*
X149056572Y-107789533D01*
X149161872Y-107853495D01*
X149272394Y-107943722D01*
X149380699Y-108052473D01*
X149479345Y-108172009D01*
X149560893Y-108294589D01*
X149585632Y-108339929D01*
X149663756Y-108506441D01*
X149720717Y-108661801D01*
X149758954Y-108816667D01*
X149780908Y-108981699D01*
X149789017Y-109167556D01*
X149789116Y-109228929D01*
X149787465Y-109345485D01*
X149783409Y-109436307D01*
X149775801Y-109511926D01*
X149763493Y-109582874D01*
X149745339Y-109659679D01*
X149739979Y-109680174D01*
X149668022Y-109897214D01*
X149573279Y-110095144D01*
X149458111Y-110271247D01*
X149324880Y-110422803D01*
X149175946Y-110547096D01*
X149013672Y-110641407D01*
X148854624Y-110699357D01*
X148774347Y-110713496D01*
X148672394Y-110721333D01*
X148562852Y-110722702D01*
X148459809Y-110717431D01*
X148377352Y-110705354D01*
X148376249Y-110705098D01*
X148278582Y-110672473D01*
X148168478Y-110620003D01*
X148058159Y-110554461D01*
X147959846Y-110482623D01*
X147932784Y-110459291D01*
X147787131Y-110304771D01*
X147666424Y-110130046D01*
X147570459Y-109938899D01*
X147499034Y-109735113D01*
X147451945Y-109522470D01*
X147428989Y-109304753D01*
X147429098Y-109280082D01*
X147799529Y-109280082D01*
X147810914Y-109435997D01*
X147834534Y-109572871D01*
X147839075Y-109590733D01*
X147903386Y-109779608D01*
X147988698Y-109947634D01*
X148092559Y-110091791D01*
X148212519Y-110209056D01*
X148346127Y-110296408D01*
X148444904Y-110337632D01*
X148529568Y-110353572D01*
X148631176Y-110355685D01*
X148733480Y-110344806D01*
X148820235Y-110321773D01*
X148829786Y-110317815D01*
X148873379Y-110297771D01*
X148886930Y-110286328D01*
X148873802Y-110277915D01*
X148857000Y-110272728D01*
X148747099Y-110226339D01*
X148638442Y-110154925D01*
X148567491Y-110091512D01*
X148466023Y-109962280D01*
X148390546Y-109813386D01*
X148341076Y-109650506D01*
X148317629Y-109479316D01*
X148320222Y-109305491D01*
X148348870Y-109134708D01*
X148403592Y-108972643D01*
X148484402Y-108824970D01*
X148563567Y-108725544D01*
X148675339Y-108628880D01*
X148800133Y-108561071D01*
X148932399Y-108523733D01*
X149066583Y-108518482D01*
X149188108Y-108543770D01*
X149242629Y-108560251D01*
X149280384Y-108567746D01*
X149292429Y-108565419D01*
X149281419Y-108536914D01*
X149252127Y-108488604D01*
X149210164Y-108427992D01*
X149161138Y-108362586D01*
X149110659Y-108299890D01*
X149064336Y-108247408D01*
X149030271Y-108214649D01*
X148895953Y-108124825D01*
X148757330Y-108070462D01*
X148616921Y-108051378D01*
X148477245Y-108067395D01*
X148340821Y-108118334D01*
X148210166Y-108204015D01*
X148129035Y-108278766D01*
X148027782Y-108405330D01*
X147939518Y-108558841D01*
X147868613Y-108730997D01*
X147838820Y-108829786D01*
X147813477Y-108963807D01*
X147800381Y-109118295D01*
X147799529Y-109280082D01*
X147429098Y-109280082D01*
X147429965Y-109085744D01*
X147454667Y-108869226D01*
X147502895Y-108658983D01*
X147574444Y-108458795D01*
X147669111Y-108272447D01*
X147786694Y-108103720D01*
X147926990Y-107956398D01*
X148073086Y-107844860D01*
X148243836Y-107754354D01*
X148419901Y-107699592D01*
X148599939Y-107680651D01*
X148782605Y-107697607D01*
G36*
X151514335Y-107686207D02*
G01*
X151689173Y-107722777D01*
X151856103Y-107791582D01*
X152012606Y-107890654D01*
X152156163Y-108018023D01*
X152284254Y-108171723D01*
X152394362Y-108349785D01*
X152483968Y-108550240D01*
X152499924Y-108594936D01*
X152557695Y-108813591D01*
X152588357Y-109046595D01*
X152592170Y-109285742D01*
X152569392Y-109522825D01*
X152520280Y-109749638D01*
X152457952Y-109928392D01*
X152368885Y-110108907D01*
X152260693Y-110267486D01*
X152133514Y-110408293D01*
X151998949Y-110527452D01*
X151865114Y-110616196D01*
X151724214Y-110679382D01*
X151670386Y-110696770D01*
X151572204Y-110715884D01*
X151454356Y-110724230D01*
X151331201Y-110721948D01*
X151217097Y-110709176D01*
X151142487Y-110691661D01*
X150956798Y-110613601D01*
X150788833Y-110504555D01*
X150639582Y-110365733D01*
X150510037Y-110198347D01*
X150401191Y-110003609D01*
X150314034Y-109782730D01*
X150269306Y-109624990D01*
X150246224Y-109495834D01*
X150232605Y-109344070D01*
X150228563Y-109182152D01*
X150234214Y-109022535D01*
X150249673Y-108877673D01*
X150261772Y-108811643D01*
X150326411Y-108580708D01*
X150327439Y-108578312D01*
X150728420Y-108578312D01*
X150831389Y-108543314D01*
X150959374Y-108517963D01*
X151094372Y-108523641D01*
X151225958Y-108559556D01*
X151263269Y-108576136D01*
X151347334Y-108630166D01*
X151434805Y-108708062D01*
X151516187Y-108799775D01*
X151581982Y-108895258D01*
X151603848Y-108936510D01*
X151661403Y-109094081D01*
X151695866Y-109268478D01*
X151705811Y-109447420D01*
X151689815Y-109618626D01*
X151685527Y-109640786D01*
X151656753Y-109739193D01*
X151611512Y-109848397D01*
X151556567Y-109954382D01*
X151498679Y-110043135D01*
X151480427Y-110065853D01*
X151417059Y-110128404D01*
X151340593Y-110187540D01*
X151262834Y-110235135D01*
X151195587Y-110263064D01*
X151192893Y-110263754D01*
X151152986Y-110278872D01*
X151148320Y-110296249D01*
X151179196Y-110316469D01*
X151229179Y-110334924D01*
X151354442Y-110357514D01*
X151488752Y-110351057D01*
X151620874Y-110316597D01*
X151673841Y-110293615D01*
X151804699Y-110209787D01*
X151923702Y-110095341D01*
X152027085Y-109955032D01*
X152111081Y-109793614D01*
X152148873Y-109693883D01*
X152205590Y-109474687D01*
X152228488Y-109257994D01*
X152218129Y-109036087D01*
X152203747Y-108938053D01*
X152158246Y-108748100D01*
X152092732Y-108576990D01*
X152009712Y-108426602D01*
X151911696Y-108298815D01*
X151801190Y-108195507D01*
X151680704Y-108118559D01*
X151552745Y-108069847D01*
X151419821Y-108051253D01*
X151284440Y-108064654D01*
X151149111Y-108111930D01*
X151120546Y-108126547D01*
X151044687Y-108178244D01*
X150961682Y-108251763D01*
X150881364Y-108336860D01*
X150813564Y-108423287D01*
X150774757Y-108486872D01*
X150728420Y-108578312D01*
X150327439Y-108578312D01*
X150414783Y-108374796D01*
X150529072Y-108189737D01*
X150671462Y-108021359D01*
X150680358Y-108012293D01*
X150823902Y-107883757D01*
X150968978Y-107788768D01*
X151120685Y-107724764D01*
X151284125Y-107689181D01*
X151334106Y-107683841D01*
X151514335Y-107686207D01*
G37*
X151514335Y-107686207D02*
X151689173Y-107722777D01*
X151856103Y-107791582D01*
X152012606Y-107890654D01*
X152156163Y-108018023D01*
X152284254Y-108171723D01*
X152394362Y-108349785D01*
X152483968Y-108550240D01*
X152499924Y-108594936D01*
X152557695Y-108813591D01*
X152588357Y-109046595D01*
X152592170Y-109285742D01*
X152569392Y-109522825D01*
X152520280Y-109749638D01*
X152457952Y-109928392D01*
X152368885Y-110108907D01*
X152260693Y-110267486D01*
X152133514Y-110408293D01*
X151998949Y-110527452D01*
X151865114Y-110616196D01*
X151724214Y-110679382D01*
X151670386Y-110696770D01*
X151572204Y-110715884D01*
X151454356Y-110724230D01*
X151331201Y-110721948D01*
X151217097Y-110709176D01*
X151142487Y-110691661D01*
X150956798Y-110613601D01*
X150788833Y-110504555D01*
X150639582Y-110365733D01*
X150510037Y-110198347D01*
X150401191Y-110003609D01*
X150314034Y-109782730D01*
X150269306Y-109624990D01*
X150246224Y-109495834D01*
X150232605Y-109344070D01*
X150228563Y-109182152D01*
X150234214Y-109022535D01*
X150249673Y-108877673D01*
X150261772Y-108811643D01*
X150326411Y-108580708D01*
X150327439Y-108578312D01*
X150728420Y-108578312D01*
X150831389Y-108543314D01*
X150959374Y-108517963D01*
X151094372Y-108523641D01*
X151225958Y-108559556D01*
X151263269Y-108576136D01*
X151347334Y-108630166D01*
X151434805Y-108708062D01*
X151516187Y-108799775D01*
X151581982Y-108895258D01*
X151603848Y-108936510D01*
X151661403Y-109094081D01*
X151695866Y-109268478D01*
X151705811Y-109447420D01*
X151689815Y-109618626D01*
X151685527Y-109640786D01*
X151656753Y-109739193D01*
X151611512Y-109848397D01*
X151556567Y-109954382D01*
X151498679Y-110043135D01*
X151480427Y-110065853D01*
X151417059Y-110128404D01*
X151340593Y-110187540D01*
X151262834Y-110235135D01*
X151195587Y-110263064D01*
X151192893Y-110263754D01*
X151152986Y-110278872D01*
X151148320Y-110296249D01*
X151179196Y-110316469D01*
X151229179Y-110334924D01*
X151354442Y-110357514D01*
X151488752Y-110351057D01*
X151620874Y-110316597D01*
X151673841Y-110293615D01*
X151804699Y-110209787D01*
X151923702Y-110095341D01*
X152027085Y-109955032D01*
X152111081Y-109793614D01*
X152148873Y-109693883D01*
X152205590Y-109474687D01*
X152228488Y-109257994D01*
X152218129Y-109036087D01*
X152203747Y-108938053D01*
X152158246Y-108748100D01*
X152092732Y-108576990D01*
X152009712Y-108426602D01*
X151911696Y-108298815D01*
X151801190Y-108195507D01*
X151680704Y-108118559D01*
X151552745Y-108069847D01*
X151419821Y-108051253D01*
X151284440Y-108064654D01*
X151149111Y-108111930D01*
X151120546Y-108126547D01*
X151044687Y-108178244D01*
X150961682Y-108251763D01*
X150881364Y-108336860D01*
X150813564Y-108423287D01*
X150774757Y-108486872D01*
X150728420Y-108578312D01*
X150327439Y-108578312D01*
X150414783Y-108374796D01*
X150529072Y-108189737D01*
X150671462Y-108021359D01*
X150680358Y-108012293D01*
X150823902Y-107883757D01*
X150968978Y-107788768D01*
X151120685Y-107724764D01*
X151284125Y-107689181D01*
X151334106Y-107683841D01*
X151514335Y-107686207D01*
%TO.C,U2*%
D10*
X129367142Y-61678571D02*
X129367142Y-62892857D01*
X129438571Y-63035714D01*
X129510000Y-63107142D01*
X129652857Y-63178571D01*
X129938571Y-63178571D01*
X130081428Y-63107142D01*
X130152857Y-63035714D01*
X130224285Y-62892857D01*
X130224285Y-61678571D01*
X130867142Y-61821428D02*
X130938571Y-61750000D01*
X131081428Y-61678571D01*
X131438571Y-61678571D01*
X131581428Y-61750000D01*
X131652857Y-61821428D01*
X131724285Y-61964285D01*
X131724285Y-62107142D01*
X131652857Y-62321428D01*
X130795714Y-63178571D01*
X131724285Y-63178571D01*
%TO.C,U1*%
X164857142Y-85928571D02*
X164857142Y-87142857D01*
X164928571Y-87285714D01*
X165000000Y-87357142D01*
X165142857Y-87428571D01*
X165428571Y-87428571D01*
X165571428Y-87357142D01*
X165642857Y-87285714D01*
X165714285Y-87142857D01*
X165714285Y-85928571D01*
X167214285Y-87428571D02*
X166357142Y-87428571D01*
X166785714Y-87428571D02*
X166785714Y-85928571D01*
X166642857Y-86142857D01*
X166500000Y-86285714D01*
X166357142Y-86357142D01*
%TO.C,SW1*%
X168200000Y-63107142D02*
X168414285Y-63178571D01*
X168771428Y-63178571D01*
X168914285Y-63107142D01*
X168985714Y-63035714D01*
X169057142Y-62892857D01*
X169057142Y-62750000D01*
X168985714Y-62607142D01*
X168914285Y-62535714D01*
X168771428Y-62464285D01*
X168485714Y-62392857D01*
X168342857Y-62321428D01*
X168271428Y-62250000D01*
X168200000Y-62107142D01*
X168200000Y-61964285D01*
X168271428Y-61821428D01*
X168342857Y-61750000D01*
X168485714Y-61678571D01*
X168842857Y-61678571D01*
X169057142Y-61750000D01*
X169557142Y-61678571D02*
X169914285Y-63178571D01*
X170200000Y-62107142D01*
X170485714Y-63178571D01*
X170842857Y-61678571D01*
X172200000Y-63178571D02*
X171342857Y-63178571D01*
X171771428Y-63178571D02*
X171771428Y-61678571D01*
X171628571Y-61892857D01*
X171485714Y-62035714D01*
X171342857Y-62107142D01*
%TO.C,R2*%
X127650000Y-111678571D02*
X127150000Y-110964285D01*
X126792857Y-111678571D02*
X126792857Y-110178571D01*
X127364285Y-110178571D01*
X127507142Y-110250000D01*
X127578571Y-110321428D01*
X127650000Y-110464285D01*
X127650000Y-110678571D01*
X127578571Y-110821428D01*
X127507142Y-110892857D01*
X127364285Y-110964285D01*
X126792857Y-110964285D01*
X128221428Y-110321428D02*
X128292857Y-110250000D01*
X128435714Y-110178571D01*
X128792857Y-110178571D01*
X128935714Y-110250000D01*
X129007142Y-110321428D01*
X129078571Y-110464285D01*
X129078571Y-110607142D01*
X129007142Y-110821428D01*
X128150000Y-111678571D01*
X129078571Y-111678571D01*
%TO.C,R1*%
X171850000Y-111678571D02*
X171350000Y-110964285D01*
X170992857Y-111678571D02*
X170992857Y-110178571D01*
X171564285Y-110178571D01*
X171707142Y-110250000D01*
X171778571Y-110321428D01*
X171850000Y-110464285D01*
X171850000Y-110678571D01*
X171778571Y-110821428D01*
X171707142Y-110892857D01*
X171564285Y-110964285D01*
X170992857Y-110964285D01*
X173278571Y-111678571D02*
X172421428Y-111678571D01*
X172850000Y-111678571D02*
X172850000Y-110178571D01*
X172707142Y-110392857D01*
X172564285Y-110535714D01*
X172421428Y-110607142D01*
%TO.C,J1*%
X185100000Y-44778571D02*
X185100000Y-45850000D01*
X185028571Y-46064285D01*
X184885714Y-46207142D01*
X184671428Y-46278571D01*
X184528571Y-46278571D01*
X186600000Y-46278571D02*
X185742857Y-46278571D01*
X186171428Y-46278571D02*
X186171428Y-44778571D01*
X186028571Y-44992857D01*
X185885714Y-45135714D01*
X185742857Y-45207142D01*
D12*
X182640476Y-58982142D02*
X182640476Y-59815476D01*
X182342857Y-58505952D02*
X182045238Y-59398809D01*
X182819047Y-59398809D01*
X183295238Y-59696428D02*
X183354761Y-59755952D01*
X183295238Y-59815476D01*
X183235714Y-59755952D01*
X183295238Y-59696428D01*
X183295238Y-59815476D01*
X184485714Y-58565476D02*
X183890476Y-58565476D01*
X183830952Y-59160714D01*
X183890476Y-59101190D01*
X184009523Y-59041666D01*
X184307142Y-59041666D01*
X184426190Y-59101190D01*
X184485714Y-59160714D01*
X184545238Y-59279761D01*
X184545238Y-59577380D01*
X184485714Y-59696428D01*
X184426190Y-59755952D01*
X184307142Y-59815476D01*
X184009523Y-59815476D01*
X183890476Y-59755952D01*
X183830952Y-59696428D01*
X185080952Y-59339285D02*
X186033333Y-59339285D01*
X186509523Y-58565476D02*
X187342857Y-58565476D01*
X186807142Y-59815476D01*
X187640476Y-58565476D02*
X188057142Y-59815476D01*
X188473809Y-58565476D01*
D10*
X189398095Y-59242857D02*
X190921904Y-59242857D01*
X190160000Y-60004761D02*
X190160000Y-58480952D01*
X179238095Y-59242857D02*
X180761904Y-59242857D01*
%TO.C,D3*%
X175678571Y-73357142D02*
X174178571Y-73357142D01*
X174178571Y-73000000D01*
X174250000Y-72785714D01*
X174392857Y-72642857D01*
X174535714Y-72571428D01*
X174821428Y-72500000D01*
X175035714Y-72500000D01*
X175321428Y-72571428D01*
X175464285Y-72642857D01*
X175607142Y-72785714D01*
X175678571Y-73000000D01*
X175678571Y-73357142D01*
X174178571Y-72000000D02*
X174178571Y-71071428D01*
X174750000Y-71571428D01*
X174750000Y-71357142D01*
X174821428Y-71214285D01*
X174892857Y-71142857D01*
X175035714Y-71071428D01*
X175392857Y-71071428D01*
X175535714Y-71142857D01*
X175607142Y-71214285D01*
X175678571Y-71357142D01*
X175678571Y-71785714D01*
X175607142Y-71928571D01*
X175535714Y-72000000D01*
X162827142Y-73178571D02*
X162827142Y-71678571D01*
X163684285Y-73178571D02*
X163041428Y-72321428D01*
X163684285Y-71678571D02*
X162827142Y-72535714D01*
%TO.C,D2*%
X124228571Y-119007142D02*
X122728571Y-119007142D01*
X122728571Y-118650000D01*
X122800000Y-118435714D01*
X122942857Y-118292857D01*
X123085714Y-118221428D01*
X123371428Y-118150000D01*
X123585714Y-118150000D01*
X123871428Y-118221428D01*
X124014285Y-118292857D01*
X124157142Y-118435714D01*
X124228571Y-118650000D01*
X124228571Y-119007142D01*
X122871428Y-117578571D02*
X122800000Y-117507142D01*
X122728571Y-117364285D01*
X122728571Y-117007142D01*
X122800000Y-116864285D01*
X122871428Y-116792857D01*
X123014285Y-116721428D01*
X123157142Y-116721428D01*
X123371428Y-116792857D01*
X124228571Y-117650000D01*
X124228571Y-116721428D01*
X130957142Y-118678571D02*
X130957142Y-117178571D01*
X131814285Y-118678571D02*
X131171428Y-117821428D01*
X131814285Y-117178571D02*
X130957142Y-118035714D01*
%TO.C,D1*%
X177078571Y-119207142D02*
X175578571Y-119207142D01*
X175578571Y-118850000D01*
X175650000Y-118635714D01*
X175792857Y-118492857D01*
X175935714Y-118421428D01*
X176221428Y-118350000D01*
X176435714Y-118350000D01*
X176721428Y-118421428D01*
X176864285Y-118492857D01*
X177007142Y-118635714D01*
X177078571Y-118850000D01*
X177078571Y-119207142D01*
X177078571Y-116921428D02*
X177078571Y-117778571D01*
X177078571Y-117350000D02*
X175578571Y-117350000D01*
X175792857Y-117492857D01*
X175935714Y-117635714D01*
X176007142Y-117778571D01*
X168207142Y-118678571D02*
X168207142Y-117178571D01*
X169064285Y-118678571D02*
X168421428Y-117821428D01*
X169064285Y-117178571D02*
X168207142Y-118035714D01*
%TO.C,C3*%
X131535714Y-88250000D02*
X131607142Y-88321428D01*
X131678571Y-88535714D01*
X131678571Y-88678571D01*
X131607142Y-88892857D01*
X131464285Y-89035714D01*
X131321428Y-89107142D01*
X131035714Y-89178571D01*
X130821428Y-89178571D01*
X130535714Y-89107142D01*
X130392857Y-89035714D01*
X130250000Y-88892857D01*
X130178571Y-88678571D01*
X130178571Y-88535714D01*
X130250000Y-88321428D01*
X130321428Y-88250000D01*
X130178571Y-87750000D02*
X130178571Y-86821428D01*
X130750000Y-87321428D01*
X130750000Y-87107142D01*
X130821428Y-86964285D01*
X130892857Y-86892857D01*
X131035714Y-86821428D01*
X131392857Y-86821428D01*
X131535714Y-86892857D01*
X131607142Y-86964285D01*
X131678571Y-87107142D01*
X131678571Y-87535714D01*
X131607142Y-87678571D01*
X131535714Y-87750000D01*
%TO.C,C2*%
X176735714Y-83750000D02*
X176807142Y-83821428D01*
X176878571Y-84035714D01*
X176878571Y-84178571D01*
X176807142Y-84392857D01*
X176664285Y-84535714D01*
X176521428Y-84607142D01*
X176235714Y-84678571D01*
X176021428Y-84678571D01*
X175735714Y-84607142D01*
X175592857Y-84535714D01*
X175450000Y-84392857D01*
X175378571Y-84178571D01*
X175378571Y-84035714D01*
X175450000Y-83821428D01*
X175521428Y-83750000D01*
X175521428Y-83178571D02*
X175450000Y-83107142D01*
X175378571Y-82964285D01*
X175378571Y-82607142D01*
X175450000Y-82464285D01*
X175521428Y-82392857D01*
X175664285Y-82321428D01*
X175807142Y-82321428D01*
X176021428Y-82392857D01*
X176878571Y-83250000D01*
X176878571Y-82321428D01*
%TO.C,C1*%
X176735714Y-77750000D02*
X176807142Y-77821428D01*
X176878571Y-78035714D01*
X176878571Y-78178571D01*
X176807142Y-78392857D01*
X176664285Y-78535714D01*
X176521428Y-78607142D01*
X176235714Y-78678571D01*
X176021428Y-78678571D01*
X175735714Y-78607142D01*
X175592857Y-78535714D01*
X175450000Y-78392857D01*
X175378571Y-78178571D01*
X175378571Y-78035714D01*
X175450000Y-77821428D01*
X175521428Y-77750000D01*
X176878571Y-76321428D02*
X176878571Y-77178571D01*
X176878571Y-76750000D02*
X175378571Y-76750000D01*
X175592857Y-76892857D01*
X175735714Y-77035714D01*
X175807142Y-77178571D01*
%TO.C,REF\u002A\u002A*%
X164857142Y-99178571D02*
X164857142Y-98178571D01*
X164857142Y-98321428D02*
X164928571Y-98250000D01*
X165071428Y-98178571D01*
X165285714Y-98178571D01*
X165428571Y-98250000D01*
X165500000Y-98392857D01*
X165500000Y-99178571D01*
X165500000Y-98392857D02*
X165571428Y-98250000D01*
X165714285Y-98178571D01*
X165928571Y-98178571D01*
X166071428Y-98250000D01*
X166142857Y-98392857D01*
X166142857Y-99178571D01*
X167071428Y-99178571D02*
X166928571Y-99107142D01*
X166857142Y-99035714D01*
X166785714Y-98892857D01*
X166785714Y-98464285D01*
X166857142Y-98321428D01*
X166928571Y-98250000D01*
X167071428Y-98178571D01*
X167285714Y-98178571D01*
X167428571Y-98250000D01*
X167500000Y-98321428D01*
X167571428Y-98464285D01*
X167571428Y-98892857D01*
X167500000Y-99035714D01*
X167428571Y-99107142D01*
X167285714Y-99178571D01*
X167071428Y-99178571D01*
X168000000Y-98178571D02*
X168571428Y-98178571D01*
X168214285Y-97678571D02*
X168214285Y-98964285D01*
X168285714Y-99107142D01*
X168428571Y-99178571D01*
X168571428Y-99178571D01*
X169285714Y-99178571D02*
X169142857Y-99107142D01*
X169071428Y-99035714D01*
X169000000Y-98892857D01*
X169000000Y-98464285D01*
X169071428Y-98321428D01*
X169142857Y-98250000D01*
X169285714Y-98178571D01*
X169500000Y-98178571D01*
X169642857Y-98250000D01*
X169714285Y-98321428D01*
X169785714Y-98464285D01*
X169785714Y-98892857D01*
X169714285Y-99035714D01*
X169642857Y-99107142D01*
X169500000Y-99178571D01*
X169285714Y-99178571D01*
X170428571Y-99178571D02*
X170428571Y-98178571D01*
X170428571Y-98464285D02*
X170500000Y-98321428D01*
X170571428Y-98250000D01*
X170714285Y-98178571D01*
X170857142Y-98178571D01*
X172500000Y-98392857D02*
X173000000Y-98392857D01*
X173214285Y-99178571D02*
X172500000Y-99178571D01*
X172500000Y-97678571D01*
X173214285Y-97678571D01*
X126785714Y-99178571D02*
X126785714Y-98178571D01*
X126785714Y-98321428D02*
X126857142Y-98250000D01*
X127000000Y-98178571D01*
X127214285Y-98178571D01*
X127357142Y-98250000D01*
X127428571Y-98392857D01*
X127428571Y-99178571D01*
X127428571Y-98392857D02*
X127500000Y-98250000D01*
X127642857Y-98178571D01*
X127857142Y-98178571D01*
X128000000Y-98250000D01*
X128071428Y-98392857D01*
X128071428Y-99178571D01*
X129000000Y-99178571D02*
X128857142Y-99107142D01*
X128785714Y-99035714D01*
X128714285Y-98892857D01*
X128714285Y-98464285D01*
X128785714Y-98321428D01*
X128857142Y-98250000D01*
X129000000Y-98178571D01*
X129214285Y-98178571D01*
X129357142Y-98250000D01*
X129428571Y-98321428D01*
X129500000Y-98464285D01*
X129500000Y-98892857D01*
X129428571Y-99035714D01*
X129357142Y-99107142D01*
X129214285Y-99178571D01*
X129000000Y-99178571D01*
X129928571Y-98178571D02*
X130500000Y-98178571D01*
X130142857Y-97678571D02*
X130142857Y-98964285D01*
X130214285Y-99107142D01*
X130357142Y-99178571D01*
X130500000Y-99178571D01*
X131214285Y-99178571D02*
X131071428Y-99107142D01*
X131000000Y-99035714D01*
X130928571Y-98892857D01*
X130928571Y-98464285D01*
X131000000Y-98321428D01*
X131071428Y-98250000D01*
X131214285Y-98178571D01*
X131428571Y-98178571D01*
X131571428Y-98250000D01*
X131642857Y-98321428D01*
X131714285Y-98464285D01*
X131714285Y-98892857D01*
X131642857Y-99035714D01*
X131571428Y-99107142D01*
X131428571Y-99178571D01*
X131214285Y-99178571D01*
X132357142Y-99178571D02*
X132357142Y-98178571D01*
X132357142Y-98464285D02*
X132428571Y-98321428D01*
X132500000Y-98250000D01*
X132642857Y-98178571D01*
X132785714Y-98178571D01*
X134428571Y-99178571D02*
X134428571Y-97678571D01*
X134785714Y-97678571D01*
X135000000Y-97750000D01*
X135142857Y-97892857D01*
X135214285Y-98035714D01*
X135285714Y-98321428D01*
X135285714Y-98535714D01*
X135214285Y-98821428D01*
X135142857Y-98964285D01*
X135000000Y-99107142D01*
X134785714Y-99178571D01*
X134428571Y-99178571D01*
%TD*%
M02*
