M48
; DRILL file {KiCad (6.0.11)} date Mon Mar 11 20:00:59 2024
; FORMAT={-:-/ absolute / inch / decimal}
; #@! TF.CreationDate,2024-03-11T20:00:59-03:00
; #@! TF.GenerationSoftware,Kicad,Pcbnew,(6.0.11)
; #@! TF.FileFunction,Plated,1,2,PTH
FMAT,2
INCH
; #@! TA.AperFunction,Plated,PTH,ComponentDrill
T1C0.0315
; #@! TA.AperFunction,Plated,PTH,ComponentDrill
T2C0.0394
; #@! TA.AperFunction,Plated,PTH,ComponentDrill
T3C0.1260
%
G90
G05
T1
X4.844Y-4.4291
X4.9606Y-3.4646
X4.9882Y-2.5591
X4.9882Y-2.6591
X4.9882Y-2.7591
X4.9882Y-2.8591
X4.9882Y-2.9591
X4.9882Y-3.0591
X4.9882Y-3.1591
X4.9882Y-3.2591
X4.9886Y-4.6457
X5.0591Y-3.4646
X5.0886Y-4.6457
X5.244Y-4.4291
X5.2882Y-2.5591
X5.2882Y-2.6591
X5.2882Y-2.7591
X5.2882Y-2.8591
X5.2882Y-2.9591
X5.2882Y-3.0591
X5.2882Y-3.1591
X5.2882Y-3.2591
X6.5685Y-4.4291
X6.7205Y-4.6457
X6.7402Y-3.0512
X6.7402Y-3.2874
X6.8205Y-4.6457
X6.8386Y-3.0512
X6.8386Y-3.2874
X6.9685Y-4.4291
T2
X5.1075Y-4.0157
X5.2075Y-4.0157
X5.2756Y-4.585
X5.2756Y-4.685
X6.05Y-2.35
X6.22Y-2.35
X6.4961Y-2.8543
X6.5354Y-4.585
X6.5354Y-4.685
X6.563Y-2.622
X6.5709Y-3.0677
X6.5709Y-3.1677
X6.5709Y-3.2677
X6.6035Y-4.0157
X6.6811Y-2.622
X6.7035Y-4.0157
X6.7961Y-2.8543
X6.7992Y-2.622
X7.0866Y-2.2165
X7.4866Y-2.2165
T3
X5.0591Y-1.9685
X5.4528Y-1.9685
X5.9055Y-1.9685
X6.3583Y-1.9685
X6.752Y-1.9685
T0
M30
