%TF.GenerationSoftware,KiCad,Pcbnew,(5.1.9)-1*%
%TF.CreationDate,2021-03-30T00:22:34-03:00*%
%TF.ProjectId,bitmovel,6269746d-6f76-4656-9c2e-6b696361645f,rev?*%
%TF.SameCoordinates,Original*%
%TF.FileFunction,Copper,L1,Top*%
%TF.FilePolarity,Positive*%
%FSLAX46Y46*%
G04 Gerber Fmt 4.6, Leading zero omitted, Abs format (unit mm)*
G04 Created by KiCad (PCBNEW (5.1.9)-1) date 2021-03-30 00:22:34*
%MOMM*%
%LPD*%
G01*
G04 APERTURE LIST*
%TA.AperFunction,ComponentPad*%
%ADD10O,1.600000X1.600000*%
%TD*%
%TA.AperFunction,ComponentPad*%
%ADD11C,1.600000*%
%TD*%
%TA.AperFunction,ComponentPad*%
%ADD12C,1.905000*%
%TD*%
%TA.AperFunction,ComponentPad*%
%ADD13C,2.000000*%
%TD*%
%TA.AperFunction,ComponentPad*%
%ADD14C,4.200000*%
%TD*%
%TA.AperFunction,ComponentPad*%
%ADD15C,1.800000*%
%TD*%
%TA.AperFunction,Conductor*%
%ADD16C,0.500000*%
%TD*%
G04 APERTURE END LIST*
D10*
%TO.P,U2,16*%
%TO.N,/Vin*%
X134320000Y-65000000D03*
%TO.P,U2,8*%
X126700000Y-82780000D03*
%TO.P,U2,15*%
%TO.N,Net-(J2-Pad4)*%
X134320000Y-67540000D03*
%TO.P,U2,7*%
%TO.N,Net-(J2-Pad1)*%
X126700000Y-80240000D03*
%TO.P,U2,14*%
%TO.N,Net-(J4-Pad2)*%
X134320000Y-70080000D03*
%TO.P,U2,6*%
%TO.N,Net-(J3-Pad2)*%
X126700000Y-77700000D03*
%TO.P,U2,13*%
%TO.N,GND*%
X134320000Y-72620000D03*
%TO.P,U2,5*%
X126700000Y-75160000D03*
%TO.P,U2,12*%
X134320000Y-75160000D03*
%TO.P,U2,4*%
X126700000Y-72620000D03*
%TO.P,U2,11*%
%TO.N,Net-(J4-Pad1)*%
X134320000Y-77700000D03*
%TO.P,U2,3*%
%TO.N,Net-(J3-Pad1)*%
X126700000Y-70080000D03*
%TO.P,U2,10*%
%TO.N,Net-(J2-Pad5)*%
X134320000Y-80240000D03*
%TO.P,U2,2*%
%TO.N,Net-(J2-Pad2)*%
X126700000Y-67540000D03*
%TO.P,U2,9*%
%TO.N,Net-(J2-Pad6)*%
X134320000Y-82780000D03*
D11*
%TO.P,U2,1*%
%TO.N,Net-(J2-Pad3)*%
X126700000Y-65000000D03*
%TD*%
D12*
%TO.P,U1,3*%
%TO.N,/Vin*%
X166900000Y-77920000D03*
%TO.P,U1,2*%
%TO.N,/3.3V*%
X166900000Y-80460000D03*
%TO.P,U1,1*%
%TO.N,GND*%
X166900000Y-83000000D03*
%TD*%
D13*
%TO.P,SW1,1*%
%TO.N,Net-(J1-Pad2)*%
X172700000Y-66600000D03*
%TO.P,SW1,2*%
%TO.N,Net-(D3-Pad2)*%
X169700000Y-66600000D03*
%TO.P,SW1,3*%
%TO.N,N/C*%
X166700000Y-66600000D03*
%TO.P,SW1,*%
%TO.N,*%
%TA.AperFunction,WasherPad*%
G36*
G01*
X176100000Y-66000000D02*
X176100000Y-67200000D01*
G75*
G02*
X175700000Y-67600000I-400000J0D01*
G01*
X175700000Y-67600000D01*
G75*
G02*
X175300000Y-67200000I0J400000D01*
G01*
X175300000Y-66000000D01*
G75*
G02*
X175700000Y-65600000I400000J0D01*
G01*
X175700000Y-65600000D01*
G75*
G02*
X176100000Y-66000000I0J-400000D01*
G01*
G37*
%TD.AperFunction*%
%TA.AperFunction,WasherPad*%
G36*
G01*
X164100000Y-66000000D02*
X164100000Y-67200000D01*
G75*
G02*
X163700000Y-67600000I-400000J0D01*
G01*
X163700000Y-67600000D01*
G75*
G02*
X163300000Y-67200000I0J400000D01*
G01*
X163300000Y-66000000D01*
G75*
G02*
X163700000Y-65600000I400000J0D01*
G01*
X163700000Y-65600000D01*
G75*
G02*
X164100000Y-66000000I0J-400000D01*
G01*
G37*
%TD.AperFunction*%
%TD*%
D10*
%TO.P,R2,2*%
%TO.N,Net-(D2-Pad2)*%
X133160000Y-113500000D03*
D11*
%TO.P,R2,1*%
%TO.N,/Vin*%
X123000000Y-113500000D03*
%TD*%
D10*
%TO.P,R1,2*%
%TO.N,Net-(D1-Pad2)*%
X166840000Y-113500000D03*
D11*
%TO.P,R1,1*%
%TO.N,/Vin*%
X177000000Y-113500000D03*
%TD*%
D14*
%TO.P,J2,*%
%TO.N,*%
X150000000Y-50000000D03*
X161500000Y-50000000D03*
X171500000Y-50000000D03*
X138500000Y-50000000D03*
X128500000Y-50000000D03*
%TD*%
D13*
%TO.P,J1,2*%
%TO.N,Net-(J1-Pad2)*%
X190160000Y-56300000D03*
%TO.P,J1,1*%
%TO.N,GND*%
X180000000Y-56300000D03*
%TD*%
%TO.P,D3,1*%
%TO.N,/Vin*%
X165000000Y-72500000D03*
%TO.P,D3,2*%
%TO.N,Net-(D3-Pad2)*%
X172620000Y-72500000D03*
%TD*%
D11*
%TO.P,D2,2*%
%TO.N,Net-(D2-Pad2)*%
X126710000Y-118000000D03*
%TO.P,D2,1*%
%TO.N,GND*%
X129250000Y-118000000D03*
%TD*%
%TO.P,D1,2*%
%TO.N,Net-(D1-Pad2)*%
X173240000Y-118000000D03*
%TO.P,D1,1*%
%TO.N,GND*%
X170700000Y-118000000D03*
%TD*%
%TO.P,C3,2*%
%TO.N,GND*%
X128500000Y-88000000D03*
%TO.P,C3,1*%
%TO.N,/Vin*%
X126000000Y-88000000D03*
%TD*%
%TO.P,C2,2*%
%TO.N,GND*%
X173700000Y-83500000D03*
%TO.P,C2,1*%
%TO.N,/3.3V*%
X171200000Y-83500000D03*
%TD*%
%TO.P,C1,2*%
%TO.N,GND*%
X173700000Y-77500000D03*
%TO.P,C1,1*%
%TO.N,/Vin*%
X171200000Y-77500000D03*
%TD*%
D15*
%TO.P,REF\u002A\u002A,2*%
%TO.N,Net-(J4-Pad2)*%
X170270000Y-102000000D03*
%TO.P,REF\u002A\u002A,1*%
%TO.N,Net-(J4-Pad1)*%
X167730000Y-102000000D03*
%TD*%
%TO.P,REF\u002A\u002A,2*%
%TO.N,Net-(J3-Pad1)*%
X132270000Y-102000000D03*
%TO.P,REF\u002A\u002A,1*%
%TO.N,Net-(J3-Pad2)*%
X129730000Y-102000000D03*
%TD*%
D16*
%TO.N,GND*%
X138139632Y-44294806D02*
X138273946Y-44335357D01*
X138397822Y-44401223D01*
X138506553Y-44489902D01*
X138595984Y-44598005D01*
X138662714Y-44721419D01*
X138704203Y-44855449D01*
X138730465Y-45105316D01*
X138730296Y-45129520D01*
X138732034Y-45147238D01*
X138772835Y-45535430D01*
X138796069Y-45648620D01*
X138817724Y-45762141D01*
X138822869Y-45779179D01*
X138822870Y-45779185D01*
X138822872Y-45779191D01*
X138938294Y-46152058D01*
X138983081Y-46258603D01*
X139026364Y-46365732D01*
X139034720Y-46381447D01*
X139034722Y-46381452D01*
X139034725Y-46381456D01*
X139220373Y-46724806D01*
X139222597Y-46728103D01*
X138829946Y-46650000D01*
X138170054Y-46650000D01*
X137522841Y-46778739D01*
X136913180Y-47031269D01*
X136364500Y-47397885D01*
X135897885Y-47864500D01*
X135531269Y-48413180D01*
X135278739Y-49022841D01*
X135150000Y-49670054D01*
X135150000Y-50329946D01*
X135278739Y-50977159D01*
X135531269Y-51586820D01*
X135897885Y-52135500D01*
X136364500Y-52602115D01*
X136913180Y-52968731D01*
X137522841Y-53221261D01*
X138170054Y-53350000D01*
X138829946Y-53350000D01*
X139477159Y-53221261D01*
X140086820Y-52968731D01*
X140635500Y-52602115D01*
X141102115Y-52135500D01*
X141468731Y-51586820D01*
X141721261Y-50977159D01*
X141850000Y-50329946D01*
X141850000Y-49670054D01*
X141721261Y-49022841D01*
X141468731Y-48413180D01*
X141325504Y-48198825D01*
X141356353Y-48204934D01*
X141469407Y-48228964D01*
X141487112Y-48230825D01*
X141875581Y-48268915D01*
X141937364Y-48275000D01*
X147123598Y-48275000D01*
X147031269Y-48413180D01*
X146778739Y-49022841D01*
X146650000Y-49670054D01*
X146650000Y-50329946D01*
X146778739Y-50977159D01*
X147031269Y-51586820D01*
X147397885Y-52135500D01*
X147864500Y-52602115D01*
X148413180Y-52968731D01*
X149022841Y-53221261D01*
X149670054Y-53350000D01*
X150329946Y-53350000D01*
X150977159Y-53221261D01*
X151586820Y-52968731D01*
X152135500Y-52602115D01*
X152602115Y-52135500D01*
X152968731Y-51586820D01*
X153221261Y-50977159D01*
X153350000Y-50329946D01*
X153350000Y-49670054D01*
X153221261Y-49022841D01*
X152968731Y-48413180D01*
X152876402Y-48275000D01*
X158062636Y-48275000D01*
X158117276Y-48269618D01*
X158129520Y-48269704D01*
X158147238Y-48267966D01*
X158535430Y-48227165D01*
X158648620Y-48203931D01*
X158674366Y-48199019D01*
X158531269Y-48413180D01*
X158278739Y-49022841D01*
X158150000Y-49670054D01*
X158150000Y-50329946D01*
X158278739Y-50977159D01*
X158531269Y-51586820D01*
X158897885Y-52135500D01*
X159364500Y-52602115D01*
X159913180Y-52968731D01*
X160522841Y-53221261D01*
X161170054Y-53350000D01*
X161829946Y-53350000D01*
X162477159Y-53221261D01*
X163086820Y-52968731D01*
X163635500Y-52602115D01*
X164102115Y-52135500D01*
X164468731Y-51586820D01*
X164721261Y-50977159D01*
X164850000Y-50329946D01*
X164850000Y-49670054D01*
X168150000Y-49670054D01*
X168150000Y-50329946D01*
X168278739Y-50977159D01*
X168531269Y-51586820D01*
X168897885Y-52135500D01*
X169364500Y-52602115D01*
X169913180Y-52968731D01*
X170522841Y-53221261D01*
X171170054Y-53350000D01*
X171829946Y-53350000D01*
X172477159Y-53221261D01*
X173086820Y-52968731D01*
X173635500Y-52602115D01*
X174102115Y-52135500D01*
X174468731Y-51586820D01*
X174627082Y-51204526D01*
X177580000Y-51204526D01*
X177580000Y-51795474D01*
X177695288Y-52375068D01*
X177921434Y-52921033D01*
X178249748Y-53412389D01*
X178667611Y-53830252D01*
X179158967Y-54158566D01*
X179704932Y-54384712D01*
X180284526Y-54500000D01*
X180875474Y-54500000D01*
X181455068Y-54384712D01*
X182001033Y-54158566D01*
X182492389Y-53830252D01*
X182910252Y-53412389D01*
X183238566Y-52921033D01*
X183464712Y-52375068D01*
X183580000Y-51795474D01*
X183580000Y-51204526D01*
X186580000Y-51204526D01*
X186580000Y-51795474D01*
X186695288Y-52375068D01*
X186921434Y-52921033D01*
X187249748Y-53412389D01*
X187667611Y-53830252D01*
X188158967Y-54158566D01*
X188704932Y-54384712D01*
X188914231Y-54426344D01*
X188725708Y-54552311D01*
X188412311Y-54865708D01*
X188166076Y-55234225D01*
X187996466Y-55643699D01*
X187910000Y-56078394D01*
X187910000Y-56521606D01*
X187996466Y-56956301D01*
X188166076Y-57365775D01*
X188412311Y-57734292D01*
X188725708Y-58047689D01*
X189094225Y-58293924D01*
X189503699Y-58463534D01*
X189938394Y-58550000D01*
X190381606Y-58550000D01*
X190816301Y-58463534D01*
X191225775Y-58293924D01*
X191594292Y-58047689D01*
X191907689Y-57734292D01*
X192153924Y-57365775D01*
X192323534Y-56956301D01*
X192410000Y-56521606D01*
X192410000Y-56078394D01*
X192323534Y-55643699D01*
X192153924Y-55234225D01*
X191907689Y-54865708D01*
X191594292Y-54552311D01*
X191225775Y-54306076D01*
X190935344Y-54185775D01*
X191001033Y-54158566D01*
X191492389Y-53830252D01*
X191910252Y-53412389D01*
X192238566Y-52921033D01*
X192464712Y-52375068D01*
X192580000Y-51795474D01*
X192580000Y-51204526D01*
X192464712Y-50624932D01*
X192238566Y-50078967D01*
X191910252Y-49587611D01*
X191492389Y-49169748D01*
X191001033Y-48841434D01*
X190455068Y-48615288D01*
X189875474Y-48500000D01*
X189284526Y-48500000D01*
X188704932Y-48615288D01*
X188158967Y-48841434D01*
X187667611Y-49169748D01*
X187249748Y-49587611D01*
X186921434Y-50078967D01*
X186695288Y-50624932D01*
X186580000Y-51204526D01*
X183580000Y-51204526D01*
X183464712Y-50624932D01*
X183238566Y-50078967D01*
X182910252Y-49587611D01*
X182492389Y-49169748D01*
X182001033Y-48841434D01*
X181455068Y-48615288D01*
X180875474Y-48500000D01*
X180284526Y-48500000D01*
X179704932Y-48615288D01*
X179158967Y-48841434D01*
X178667611Y-49169748D01*
X178249748Y-49587611D01*
X177921434Y-50078967D01*
X177695288Y-50624932D01*
X177580000Y-51204526D01*
X174627082Y-51204526D01*
X174721261Y-50977159D01*
X174850000Y-50329946D01*
X174850000Y-49670054D01*
X174721261Y-49022841D01*
X174468731Y-48413180D01*
X174102115Y-47864500D01*
X173635500Y-47397885D01*
X173086820Y-47031269D01*
X172477159Y-46778739D01*
X171829946Y-46650000D01*
X171170054Y-46650000D01*
X170522841Y-46778739D01*
X169913180Y-47031269D01*
X169364500Y-47397885D01*
X168897885Y-47864500D01*
X168531269Y-48413180D01*
X168278739Y-49022841D01*
X168150000Y-49670054D01*
X164850000Y-49670054D01*
X164721261Y-49022841D01*
X164468731Y-48413180D01*
X164102115Y-47864500D01*
X163635500Y-47397885D01*
X163086820Y-47031269D01*
X162477159Y-46778739D01*
X161829946Y-46650000D01*
X161170054Y-46650000D01*
X160778421Y-46727901D01*
X160783132Y-46721021D01*
X160791599Y-46705361D01*
X160974849Y-46360719D01*
X161018884Y-46253883D01*
X161064411Y-46147662D01*
X161069675Y-46130656D01*
X161182492Y-45756984D01*
X161204934Y-45643647D01*
X161228964Y-45530593D01*
X161230825Y-45512888D01*
X161268915Y-45124419D01*
X161268915Y-45124417D01*
X161294806Y-44860368D01*
X161335357Y-44726054D01*
X161401223Y-44602178D01*
X161489902Y-44493447D01*
X161598005Y-44404016D01*
X161721419Y-44337286D01*
X161855449Y-44295797D01*
X162053320Y-44275000D01*
X189943222Y-44275000D01*
X190658740Y-44338858D01*
X191296667Y-44513376D01*
X191893601Y-44798099D01*
X192430678Y-45184028D01*
X192890932Y-45658972D01*
X193259802Y-46207910D01*
X193525634Y-46813493D01*
X193682381Y-47466387D01*
X193725000Y-48046752D01*
X193725001Y-112959917D01*
X193653700Y-114093218D01*
X193448447Y-115169190D01*
X193109956Y-116210958D01*
X192643567Y-117202086D01*
X192056635Y-118126944D01*
X191358412Y-118970949D01*
X190559917Y-119720786D01*
X189673737Y-120364633D01*
X188713845Y-120892338D01*
X187695394Y-121295571D01*
X186634430Y-121567981D01*
X185527764Y-121707785D01*
X184979966Y-121725000D01*
X115040067Y-121725000D01*
X113906782Y-121653700D01*
X112830810Y-121448447D01*
X111789042Y-121109956D01*
X110797914Y-120643567D01*
X109873056Y-120056635D01*
X109029051Y-119358412D01*
X108279214Y-118559917D01*
X107725717Y-117798093D01*
X124660000Y-117798093D01*
X124660000Y-118201907D01*
X124738780Y-118597963D01*
X124893314Y-118971039D01*
X125117661Y-119306799D01*
X125403201Y-119592339D01*
X125738961Y-119816686D01*
X126112037Y-119971220D01*
X126508093Y-120050000D01*
X126911907Y-120050000D01*
X127307963Y-119971220D01*
X127681039Y-119816686D01*
X128016799Y-119592339D01*
X128302339Y-119306799D01*
X128361168Y-119218755D01*
X128375447Y-119288783D01*
X128643681Y-119434637D01*
X128935214Y-119525358D01*
X129238845Y-119557460D01*
X129542905Y-119529710D01*
X129835708Y-119443174D01*
X130106003Y-119301178D01*
X130124553Y-119288783D01*
X130182735Y-119003446D01*
X129250000Y-118070711D01*
X129235858Y-118084853D01*
X129165147Y-118014142D01*
X129179289Y-118000000D01*
X129320711Y-118000000D01*
X130253446Y-118932735D01*
X130538783Y-118874553D01*
X130684637Y-118606319D01*
X130775358Y-118314786D01*
X130807460Y-118011155D01*
X130805424Y-117988845D01*
X169142540Y-117988845D01*
X169170290Y-118292905D01*
X169256826Y-118585708D01*
X169398822Y-118856003D01*
X169411217Y-118874553D01*
X169696554Y-118932735D01*
X170629289Y-118000000D01*
X169696554Y-117067265D01*
X169411217Y-117125447D01*
X169265363Y-117393681D01*
X169174642Y-117685214D01*
X169142540Y-117988845D01*
X130805424Y-117988845D01*
X130779710Y-117707095D01*
X130693174Y-117414292D01*
X130551178Y-117143997D01*
X130538783Y-117125447D01*
X130253446Y-117067265D01*
X129320711Y-118000000D01*
X129179289Y-118000000D01*
X129165147Y-117985858D01*
X129235858Y-117915147D01*
X129250000Y-117929289D01*
X130182735Y-116996554D01*
X169767265Y-116996554D01*
X170700000Y-117929289D01*
X170714142Y-117915147D01*
X170784853Y-117985858D01*
X170770711Y-118000000D01*
X170784853Y-118014142D01*
X170714142Y-118084853D01*
X170700000Y-118070711D01*
X169767265Y-119003446D01*
X169825447Y-119288783D01*
X170093681Y-119434637D01*
X170385214Y-119525358D01*
X170688845Y-119557460D01*
X170992905Y-119529710D01*
X171285708Y-119443174D01*
X171556003Y-119301178D01*
X171574553Y-119288783D01*
X171588832Y-119218755D01*
X171647661Y-119306799D01*
X171933201Y-119592339D01*
X172268961Y-119816686D01*
X172642037Y-119971220D01*
X173038093Y-120050000D01*
X173441907Y-120050000D01*
X173837963Y-119971220D01*
X174211039Y-119816686D01*
X174546799Y-119592339D01*
X174832339Y-119306799D01*
X175056686Y-118971039D01*
X175211220Y-118597963D01*
X175290000Y-118201907D01*
X175290000Y-117798093D01*
X175211220Y-117402037D01*
X175056686Y-117028961D01*
X174832339Y-116693201D01*
X174546799Y-116407661D01*
X174211039Y-116183314D01*
X173837963Y-116028780D01*
X173441907Y-115950000D01*
X173038093Y-115950000D01*
X172642037Y-116028780D01*
X172268961Y-116183314D01*
X171933201Y-116407661D01*
X171647661Y-116693201D01*
X171588832Y-116781245D01*
X171574553Y-116711217D01*
X171306319Y-116565363D01*
X171014786Y-116474642D01*
X170711155Y-116442540D01*
X170407095Y-116470290D01*
X170114292Y-116556826D01*
X169843997Y-116698822D01*
X169825447Y-116711217D01*
X169767265Y-116996554D01*
X130182735Y-116996554D01*
X130124553Y-116711217D01*
X129856319Y-116565363D01*
X129564786Y-116474642D01*
X129261155Y-116442540D01*
X128957095Y-116470290D01*
X128664292Y-116556826D01*
X128393997Y-116698822D01*
X128375447Y-116711217D01*
X128361168Y-116781245D01*
X128302339Y-116693201D01*
X128016799Y-116407661D01*
X127681039Y-116183314D01*
X127307963Y-116028780D01*
X126911907Y-115950000D01*
X126508093Y-115950000D01*
X126112037Y-116028780D01*
X125738961Y-116183314D01*
X125403201Y-116407661D01*
X125117661Y-116693201D01*
X124893314Y-117028961D01*
X124738780Y-117402037D01*
X124660000Y-117798093D01*
X107725717Y-117798093D01*
X107635367Y-117673737D01*
X107107662Y-116713845D01*
X106704429Y-115695394D01*
X106432019Y-114634430D01*
X106292215Y-113527764D01*
X106284998Y-113298093D01*
X120950000Y-113298093D01*
X120950000Y-113701907D01*
X121028780Y-114097963D01*
X121183314Y-114471039D01*
X121407661Y-114806799D01*
X121693201Y-115092339D01*
X122028961Y-115316686D01*
X122402037Y-115471220D01*
X122798093Y-115550000D01*
X123201907Y-115550000D01*
X123597963Y-115471220D01*
X123971039Y-115316686D01*
X124306799Y-115092339D01*
X124592339Y-114806799D01*
X124816686Y-114471039D01*
X124971220Y-114097963D01*
X125050000Y-113701907D01*
X125050000Y-113298093D01*
X131110000Y-113298093D01*
X131110000Y-113701907D01*
X131188780Y-114097963D01*
X131343314Y-114471039D01*
X131567661Y-114806799D01*
X131853201Y-115092339D01*
X132188961Y-115316686D01*
X132562037Y-115471220D01*
X132958093Y-115550000D01*
X133361907Y-115550000D01*
X133757963Y-115471220D01*
X134131039Y-115316686D01*
X134466799Y-115092339D01*
X134752339Y-114806799D01*
X134976686Y-114471039D01*
X135131220Y-114097963D01*
X135210000Y-113701907D01*
X135210000Y-113298093D01*
X164790000Y-113298093D01*
X164790000Y-113701907D01*
X164868780Y-114097963D01*
X165023314Y-114471039D01*
X165247661Y-114806799D01*
X165533201Y-115092339D01*
X165868961Y-115316686D01*
X166242037Y-115471220D01*
X166638093Y-115550000D01*
X167041907Y-115550000D01*
X167437963Y-115471220D01*
X167811039Y-115316686D01*
X168146799Y-115092339D01*
X168432339Y-114806799D01*
X168656686Y-114471039D01*
X168811220Y-114097963D01*
X168890000Y-113701907D01*
X168890000Y-113298093D01*
X174950000Y-113298093D01*
X174950000Y-113701907D01*
X175028780Y-114097963D01*
X175183314Y-114471039D01*
X175407661Y-114806799D01*
X175693201Y-115092339D01*
X176028961Y-115316686D01*
X176402037Y-115471220D01*
X176798093Y-115550000D01*
X177201907Y-115550000D01*
X177597963Y-115471220D01*
X177971039Y-115316686D01*
X178306799Y-115092339D01*
X178592339Y-114806799D01*
X178816686Y-114471039D01*
X178971220Y-114097963D01*
X179050000Y-113701907D01*
X179050000Y-113298093D01*
X178971220Y-112902037D01*
X178816686Y-112528961D01*
X178592339Y-112193201D01*
X178306799Y-111907661D01*
X177971039Y-111683314D01*
X177597963Y-111528780D01*
X177201907Y-111450000D01*
X176798093Y-111450000D01*
X176402037Y-111528780D01*
X176028961Y-111683314D01*
X175693201Y-111907661D01*
X175407661Y-112193201D01*
X175183314Y-112528961D01*
X175028780Y-112902037D01*
X174950000Y-113298093D01*
X168890000Y-113298093D01*
X168811220Y-112902037D01*
X168656686Y-112528961D01*
X168432339Y-112193201D01*
X168146799Y-111907661D01*
X167811039Y-111683314D01*
X167437963Y-111528780D01*
X167041907Y-111450000D01*
X166638093Y-111450000D01*
X166242037Y-111528780D01*
X165868961Y-111683314D01*
X165533201Y-111907661D01*
X165247661Y-112193201D01*
X165023314Y-112528961D01*
X164868780Y-112902037D01*
X164790000Y-113298093D01*
X135210000Y-113298093D01*
X135131220Y-112902037D01*
X134976686Y-112528961D01*
X134752339Y-112193201D01*
X134466799Y-111907661D01*
X134131039Y-111683314D01*
X133757963Y-111528780D01*
X133361907Y-111450000D01*
X132958093Y-111450000D01*
X132562037Y-111528780D01*
X132188961Y-111683314D01*
X131853201Y-111907661D01*
X131567661Y-112193201D01*
X131343314Y-112528961D01*
X131188780Y-112902037D01*
X131110000Y-113298093D01*
X125050000Y-113298093D01*
X124971220Y-112902037D01*
X124816686Y-112528961D01*
X124592339Y-112193201D01*
X124306799Y-111907661D01*
X123971039Y-111683314D01*
X123597963Y-111528780D01*
X123201907Y-111450000D01*
X122798093Y-111450000D01*
X122402037Y-111528780D01*
X122028961Y-111683314D01*
X121693201Y-111907661D01*
X121407661Y-112193201D01*
X121183314Y-112528961D01*
X121028780Y-112902037D01*
X120950000Y-113298093D01*
X106284998Y-113298093D01*
X106275000Y-112979966D01*
X106275000Y-101788243D01*
X127580000Y-101788243D01*
X127580000Y-102211757D01*
X127662623Y-102627132D01*
X127824695Y-103018407D01*
X128059986Y-103370545D01*
X128359455Y-103670014D01*
X128711593Y-103905305D01*
X129102868Y-104067377D01*
X129518243Y-104150000D01*
X129941757Y-104150000D01*
X130357132Y-104067377D01*
X130748407Y-103905305D01*
X131000000Y-103737196D01*
X131251593Y-103905305D01*
X131642868Y-104067377D01*
X132058243Y-104150000D01*
X132481757Y-104150000D01*
X132897132Y-104067377D01*
X133288407Y-103905305D01*
X133640545Y-103670014D01*
X133940014Y-103370545D01*
X134175305Y-103018407D01*
X134337377Y-102627132D01*
X134420000Y-102211757D01*
X134420000Y-101788243D01*
X165580000Y-101788243D01*
X165580000Y-102211757D01*
X165662623Y-102627132D01*
X165824695Y-103018407D01*
X166059986Y-103370545D01*
X166359455Y-103670014D01*
X166711593Y-103905305D01*
X167102868Y-104067377D01*
X167518243Y-104150000D01*
X167941757Y-104150000D01*
X168357132Y-104067377D01*
X168748407Y-103905305D01*
X169000000Y-103737196D01*
X169251593Y-103905305D01*
X169642868Y-104067377D01*
X170058243Y-104150000D01*
X170481757Y-104150000D01*
X170897132Y-104067377D01*
X171288407Y-103905305D01*
X171640545Y-103670014D01*
X171940014Y-103370545D01*
X172175305Y-103018407D01*
X172337377Y-102627132D01*
X172420000Y-102211757D01*
X172420000Y-101788243D01*
X172337377Y-101372868D01*
X172175305Y-100981593D01*
X171940014Y-100629455D01*
X171640545Y-100329986D01*
X171288407Y-100094695D01*
X170897132Y-99932623D01*
X170481757Y-99850000D01*
X170058243Y-99850000D01*
X169642868Y-99932623D01*
X169251593Y-100094695D01*
X169000000Y-100262804D01*
X168748407Y-100094695D01*
X168357132Y-99932623D01*
X167941757Y-99850000D01*
X167518243Y-99850000D01*
X167102868Y-99932623D01*
X166711593Y-100094695D01*
X166359455Y-100329986D01*
X166059986Y-100629455D01*
X165824695Y-100981593D01*
X165662623Y-101372868D01*
X165580000Y-101788243D01*
X134420000Y-101788243D01*
X134337377Y-101372868D01*
X134175305Y-100981593D01*
X133940014Y-100629455D01*
X133640545Y-100329986D01*
X133288407Y-100094695D01*
X132897132Y-99932623D01*
X132481757Y-99850000D01*
X132058243Y-99850000D01*
X131642868Y-99932623D01*
X131251593Y-100094695D01*
X131000000Y-100262804D01*
X130748407Y-100094695D01*
X130357132Y-99932623D01*
X129941757Y-99850000D01*
X129518243Y-99850000D01*
X129102868Y-99932623D01*
X128711593Y-100094695D01*
X128359455Y-100329986D01*
X128059986Y-100629455D01*
X127824695Y-100981593D01*
X127662623Y-101372868D01*
X127580000Y-101788243D01*
X106275000Y-101788243D01*
X106275000Y-87798093D01*
X123950000Y-87798093D01*
X123950000Y-88201907D01*
X124028780Y-88597963D01*
X124183314Y-88971039D01*
X124407661Y-89306799D01*
X124693201Y-89592339D01*
X125028961Y-89816686D01*
X125402037Y-89971220D01*
X125798093Y-90050000D01*
X126201907Y-90050000D01*
X126597963Y-89971220D01*
X126971039Y-89816686D01*
X127306799Y-89592339D01*
X127592339Y-89306799D01*
X127620520Y-89264622D01*
X127625447Y-89288783D01*
X127893681Y-89434637D01*
X128185214Y-89525358D01*
X128488845Y-89557460D01*
X128792905Y-89529710D01*
X129085708Y-89443174D01*
X129356003Y-89301178D01*
X129374553Y-89288783D01*
X129432735Y-89003446D01*
X128500000Y-88070711D01*
X128485858Y-88084853D01*
X128415147Y-88014142D01*
X128429289Y-88000000D01*
X128570711Y-88000000D01*
X129503446Y-88932735D01*
X129788783Y-88874553D01*
X129934637Y-88606319D01*
X130025358Y-88314786D01*
X130057460Y-88011155D01*
X130029710Y-87707095D01*
X129943174Y-87414292D01*
X129801178Y-87143997D01*
X129788783Y-87125447D01*
X129503446Y-87067265D01*
X128570711Y-88000000D01*
X128429289Y-88000000D01*
X128415147Y-87985858D01*
X128485858Y-87915147D01*
X128500000Y-87929289D01*
X129432735Y-86996554D01*
X129374553Y-86711217D01*
X129106319Y-86565363D01*
X128814786Y-86474642D01*
X128511155Y-86442540D01*
X128207095Y-86470290D01*
X127914292Y-86556826D01*
X127643997Y-86698822D01*
X127625447Y-86711217D01*
X127620520Y-86735378D01*
X127592339Y-86693201D01*
X127306799Y-86407661D01*
X126971039Y-86183314D01*
X126597963Y-86028780D01*
X126201907Y-85950000D01*
X125798093Y-85950000D01*
X125402037Y-86028780D01*
X125028961Y-86183314D01*
X124693201Y-86407661D01*
X124407661Y-86693201D01*
X124183314Y-87028961D01*
X124028780Y-87402037D01*
X123950000Y-87798093D01*
X106275000Y-87798093D01*
X106275000Y-77498093D01*
X124650000Y-77498093D01*
X124650000Y-77901907D01*
X124728780Y-78297963D01*
X124883314Y-78671039D01*
X125083073Y-78970000D01*
X124883314Y-79268961D01*
X124728780Y-79642037D01*
X124650000Y-80038093D01*
X124650000Y-80441907D01*
X124728780Y-80837963D01*
X124883314Y-81211039D01*
X125083073Y-81510000D01*
X124883314Y-81808961D01*
X124728780Y-82182037D01*
X124650000Y-82578093D01*
X124650000Y-82981907D01*
X124728780Y-83377963D01*
X124883314Y-83751039D01*
X125107661Y-84086799D01*
X125393201Y-84372339D01*
X125728961Y-84596686D01*
X126102037Y-84751220D01*
X126498093Y-84830000D01*
X126901907Y-84830000D01*
X127297963Y-84751220D01*
X127671039Y-84596686D01*
X128006799Y-84372339D01*
X128292339Y-84086799D01*
X128516686Y-83751039D01*
X128671220Y-83377963D01*
X128750000Y-82981907D01*
X128750000Y-82578093D01*
X128671220Y-82182037D01*
X128516686Y-81808961D01*
X128316927Y-81510000D01*
X128516686Y-81211039D01*
X128671220Y-80837963D01*
X128750000Y-80441907D01*
X128750000Y-80038093D01*
X128671220Y-79642037D01*
X128516686Y-79268961D01*
X128316927Y-78970000D01*
X128516686Y-78671039D01*
X128671220Y-78297963D01*
X128750000Y-77901907D01*
X128750000Y-77498093D01*
X132270000Y-77498093D01*
X132270000Y-77901907D01*
X132348780Y-78297963D01*
X132503314Y-78671039D01*
X132703073Y-78970000D01*
X132503314Y-79268961D01*
X132348780Y-79642037D01*
X132270000Y-80038093D01*
X132270000Y-80441907D01*
X132348780Y-80837963D01*
X132503314Y-81211039D01*
X132703073Y-81510000D01*
X132503314Y-81808961D01*
X132348780Y-82182037D01*
X132270000Y-82578093D01*
X132270000Y-82981907D01*
X132348780Y-83377963D01*
X132503314Y-83751039D01*
X132727661Y-84086799D01*
X133013201Y-84372339D01*
X133348961Y-84596686D01*
X133722037Y-84751220D01*
X134118093Y-84830000D01*
X134521907Y-84830000D01*
X134917963Y-84751220D01*
X135291039Y-84596686D01*
X135626799Y-84372339D01*
X135887271Y-84111867D01*
X165858844Y-84111867D01*
X165935334Y-84412813D01*
X166229496Y-84573864D01*
X166549425Y-84674432D01*
X166882826Y-84710652D01*
X167216888Y-84681132D01*
X167538772Y-84587008D01*
X167836108Y-84431895D01*
X167864666Y-84412813D01*
X167941156Y-84111867D01*
X166900000Y-83070711D01*
X165858844Y-84111867D01*
X135887271Y-84111867D01*
X135912339Y-84086799D01*
X136136686Y-83751039D01*
X136291220Y-83377963D01*
X136370000Y-82981907D01*
X136370000Y-82578093D01*
X136291220Y-82182037D01*
X136136686Y-81808961D01*
X135936927Y-81510000D01*
X136136686Y-81211039D01*
X136291220Y-80837963D01*
X136370000Y-80441907D01*
X136370000Y-80038093D01*
X136291220Y-79642037D01*
X136136686Y-79268961D01*
X135936927Y-78970000D01*
X136136686Y-78671039D01*
X136291220Y-78297963D01*
X136370000Y-77901907D01*
X136370000Y-77703073D01*
X164697500Y-77703073D01*
X164697500Y-78136927D01*
X164782141Y-78562446D01*
X164948170Y-78963275D01*
X165099663Y-79190000D01*
X164948170Y-79416725D01*
X164782141Y-79817554D01*
X164697500Y-80243073D01*
X164697500Y-80676927D01*
X164782141Y-81102446D01*
X164948170Y-81503275D01*
X165189207Y-81864012D01*
X165442376Y-82117181D01*
X165326136Y-82329496D01*
X165225568Y-82649425D01*
X165189348Y-82982826D01*
X165218868Y-83316888D01*
X165312992Y-83638772D01*
X165468105Y-83936108D01*
X165487187Y-83964666D01*
X165788133Y-84041156D01*
X166829289Y-83000000D01*
X166815147Y-82985858D01*
X166885858Y-82915147D01*
X166900000Y-82929289D01*
X166914142Y-82915147D01*
X166984853Y-82985858D01*
X166970711Y-83000000D01*
X168011867Y-84041156D01*
X168312813Y-83964666D01*
X168473864Y-83670504D01*
X168574432Y-83350575D01*
X168580133Y-83298093D01*
X169150000Y-83298093D01*
X169150000Y-83701907D01*
X169228780Y-84097963D01*
X169383314Y-84471039D01*
X169607661Y-84806799D01*
X169893201Y-85092339D01*
X170228961Y-85316686D01*
X170602037Y-85471220D01*
X170998093Y-85550000D01*
X171401907Y-85550000D01*
X171797963Y-85471220D01*
X172171039Y-85316686D01*
X172506799Y-85092339D01*
X172792339Y-84806799D01*
X172820520Y-84764622D01*
X172825447Y-84788783D01*
X173093681Y-84934637D01*
X173385214Y-85025358D01*
X173688845Y-85057460D01*
X173992905Y-85029710D01*
X174285708Y-84943174D01*
X174556003Y-84801178D01*
X174574553Y-84788783D01*
X174632735Y-84503446D01*
X173700000Y-83570711D01*
X173685858Y-83584853D01*
X173615147Y-83514142D01*
X173629289Y-83500000D01*
X173770711Y-83500000D01*
X174703446Y-84432735D01*
X174988783Y-84374553D01*
X175134637Y-84106319D01*
X175225358Y-83814786D01*
X175257460Y-83511155D01*
X175229710Y-83207095D01*
X175143174Y-82914292D01*
X175001178Y-82643997D01*
X174988783Y-82625447D01*
X174703446Y-82567265D01*
X173770711Y-83500000D01*
X173629289Y-83500000D01*
X173615147Y-83485858D01*
X173685858Y-83415147D01*
X173700000Y-83429289D01*
X174632735Y-82496554D01*
X174574553Y-82211217D01*
X174306319Y-82065363D01*
X174014786Y-81974642D01*
X173711155Y-81942540D01*
X173407095Y-81970290D01*
X173114292Y-82056826D01*
X172843997Y-82198822D01*
X172825447Y-82211217D01*
X172820520Y-82235378D01*
X172792339Y-82193201D01*
X172506799Y-81907661D01*
X172171039Y-81683314D01*
X171797963Y-81528780D01*
X171401907Y-81450000D01*
X170998093Y-81450000D01*
X170602037Y-81528780D01*
X170228961Y-81683314D01*
X169893201Y-81907661D01*
X169607661Y-82193201D01*
X169383314Y-82528961D01*
X169228780Y-82902037D01*
X169150000Y-83298093D01*
X168580133Y-83298093D01*
X168610652Y-83017174D01*
X168581132Y-82683112D01*
X168487008Y-82361228D01*
X168358985Y-82115820D01*
X168610793Y-81864012D01*
X168851830Y-81503275D01*
X169017859Y-81102446D01*
X169102500Y-80676927D01*
X169102500Y-80243073D01*
X169017859Y-79817554D01*
X168851830Y-79416725D01*
X168700337Y-79190000D01*
X168851830Y-78963275D01*
X169017859Y-78562446D01*
X169102500Y-78136927D01*
X169102500Y-77703073D01*
X169021945Y-77298093D01*
X169150000Y-77298093D01*
X169150000Y-77701907D01*
X169228780Y-78097963D01*
X169383314Y-78471039D01*
X169607661Y-78806799D01*
X169893201Y-79092339D01*
X170228961Y-79316686D01*
X170602037Y-79471220D01*
X170998093Y-79550000D01*
X171401907Y-79550000D01*
X171797963Y-79471220D01*
X172171039Y-79316686D01*
X172506799Y-79092339D01*
X172792339Y-78806799D01*
X172820520Y-78764622D01*
X172825447Y-78788783D01*
X173093681Y-78934637D01*
X173385214Y-79025358D01*
X173688845Y-79057460D01*
X173992905Y-79029710D01*
X174285708Y-78943174D01*
X174556003Y-78801178D01*
X174574553Y-78788783D01*
X174632735Y-78503446D01*
X173700000Y-77570711D01*
X173685858Y-77584853D01*
X173615147Y-77514142D01*
X173629289Y-77500000D01*
X173770711Y-77500000D01*
X174703446Y-78432735D01*
X174988783Y-78374553D01*
X175134637Y-78106319D01*
X175225358Y-77814786D01*
X175257460Y-77511155D01*
X175229710Y-77207095D01*
X175143174Y-76914292D01*
X175001178Y-76643997D01*
X174988783Y-76625447D01*
X174703446Y-76567265D01*
X173770711Y-77500000D01*
X173629289Y-77500000D01*
X173615147Y-77485858D01*
X173685858Y-77415147D01*
X173700000Y-77429289D01*
X174632735Y-76496554D01*
X174574553Y-76211217D01*
X174306319Y-76065363D01*
X174014786Y-75974642D01*
X173711155Y-75942540D01*
X173407095Y-75970290D01*
X173114292Y-76056826D01*
X172843997Y-76198822D01*
X172825447Y-76211217D01*
X172820520Y-76235378D01*
X172792339Y-76193201D01*
X172506799Y-75907661D01*
X172171039Y-75683314D01*
X171797963Y-75528780D01*
X171401907Y-75450000D01*
X170998093Y-75450000D01*
X170602037Y-75528780D01*
X170228961Y-75683314D01*
X169893201Y-75907661D01*
X169607661Y-76193201D01*
X169383314Y-76528961D01*
X169228780Y-76902037D01*
X169150000Y-77298093D01*
X169021945Y-77298093D01*
X169017859Y-77277554D01*
X168851830Y-76876725D01*
X168610793Y-76515988D01*
X168304012Y-76209207D01*
X167943275Y-75968170D01*
X167542446Y-75802141D01*
X167116927Y-75717500D01*
X166683073Y-75717500D01*
X166257554Y-75802141D01*
X165856725Y-75968170D01*
X165495988Y-76209207D01*
X165189207Y-76515988D01*
X164948170Y-76876725D01*
X164782141Y-77277554D01*
X164697500Y-77703073D01*
X136370000Y-77703073D01*
X136370000Y-77498093D01*
X136291220Y-77102037D01*
X136136686Y-76728961D01*
X135912339Y-76393201D01*
X135626799Y-76107661D01*
X135569857Y-76069614D01*
X135602715Y-76030143D01*
X135747824Y-75763178D01*
X135838063Y-75473033D01*
X135842298Y-75451732D01*
X135681582Y-75210000D01*
X134370000Y-75210000D01*
X134370000Y-75230000D01*
X134270000Y-75230000D01*
X134270000Y-75210000D01*
X132958418Y-75210000D01*
X132797702Y-75451732D01*
X132801937Y-75473033D01*
X132892176Y-75763178D01*
X133037285Y-76030143D01*
X133070143Y-76069614D01*
X133013201Y-76107661D01*
X132727661Y-76393201D01*
X132503314Y-76728961D01*
X132348780Y-77102037D01*
X132270000Y-77498093D01*
X128750000Y-77498093D01*
X128671220Y-77102037D01*
X128516686Y-76728961D01*
X128292339Y-76393201D01*
X128006799Y-76107661D01*
X127949857Y-76069614D01*
X127982715Y-76030143D01*
X128127824Y-75763178D01*
X128218063Y-75473033D01*
X128222298Y-75451732D01*
X128061582Y-75210000D01*
X126750000Y-75210000D01*
X126750000Y-75230000D01*
X126650000Y-75230000D01*
X126650000Y-75210000D01*
X125338418Y-75210000D01*
X125177702Y-75451732D01*
X125181937Y-75473033D01*
X125272176Y-75763178D01*
X125417285Y-76030143D01*
X125450143Y-76069614D01*
X125393201Y-76107661D01*
X125107661Y-76393201D01*
X124883314Y-76728961D01*
X124728780Y-77102037D01*
X124650000Y-77498093D01*
X106275000Y-77498093D01*
X106275000Y-72911732D01*
X125177702Y-72911732D01*
X125181937Y-72933033D01*
X125272176Y-73223178D01*
X125417285Y-73490143D01*
X125611689Y-73723669D01*
X125817285Y-73890000D01*
X125611689Y-74056331D01*
X125417285Y-74289857D01*
X125272176Y-74556822D01*
X125181937Y-74846967D01*
X125177702Y-74868268D01*
X125338418Y-75110000D01*
X126650000Y-75110000D01*
X126650000Y-72670000D01*
X126750000Y-72670000D01*
X126750000Y-75110000D01*
X128061582Y-75110000D01*
X128222298Y-74868268D01*
X128218063Y-74846967D01*
X128127824Y-74556822D01*
X127982715Y-74289857D01*
X127788311Y-74056331D01*
X127582715Y-73890000D01*
X127788311Y-73723669D01*
X127982715Y-73490143D01*
X128127824Y-73223178D01*
X128218063Y-72933033D01*
X128222298Y-72911732D01*
X132797702Y-72911732D01*
X132801937Y-72933033D01*
X132892176Y-73223178D01*
X133037285Y-73490143D01*
X133231689Y-73723669D01*
X133437285Y-73890000D01*
X133231689Y-74056331D01*
X133037285Y-74289857D01*
X132892176Y-74556822D01*
X132801937Y-74846967D01*
X132797702Y-74868268D01*
X132958418Y-75110000D01*
X134270000Y-75110000D01*
X134270000Y-72670000D01*
X134370000Y-72670000D01*
X134370000Y-75110000D01*
X135681582Y-75110000D01*
X135842298Y-74868268D01*
X135838063Y-74846967D01*
X135747824Y-74556822D01*
X135602715Y-74289857D01*
X135408311Y-74056331D01*
X135202715Y-73890000D01*
X135408311Y-73723669D01*
X135602715Y-73490143D01*
X135747824Y-73223178D01*
X135838063Y-72933033D01*
X135842298Y-72911732D01*
X135681582Y-72670000D01*
X134370000Y-72670000D01*
X134270000Y-72670000D01*
X132958418Y-72670000D01*
X132797702Y-72911732D01*
X128222298Y-72911732D01*
X128061582Y-72670000D01*
X126750000Y-72670000D01*
X126650000Y-72670000D01*
X125338418Y-72670000D01*
X125177702Y-72911732D01*
X106275000Y-72911732D01*
X106275000Y-64798093D01*
X124650000Y-64798093D01*
X124650000Y-65201907D01*
X124728780Y-65597963D01*
X124883314Y-65971039D01*
X125083073Y-66270000D01*
X124883314Y-66568961D01*
X124728780Y-66942037D01*
X124650000Y-67338093D01*
X124650000Y-67741907D01*
X124728780Y-68137963D01*
X124883314Y-68511039D01*
X125083073Y-68810000D01*
X124883314Y-69108961D01*
X124728780Y-69482037D01*
X124650000Y-69878093D01*
X124650000Y-70281907D01*
X124728780Y-70677963D01*
X124883314Y-71051039D01*
X125107661Y-71386799D01*
X125393201Y-71672339D01*
X125450143Y-71710386D01*
X125417285Y-71749857D01*
X125272176Y-72016822D01*
X125181937Y-72306967D01*
X125177702Y-72328268D01*
X125338418Y-72570000D01*
X126650000Y-72570000D01*
X126650000Y-72550000D01*
X126750000Y-72550000D01*
X126750000Y-72570000D01*
X128061582Y-72570000D01*
X128222298Y-72328268D01*
X128218063Y-72306967D01*
X128127824Y-72016822D01*
X127982715Y-71749857D01*
X127949857Y-71710386D01*
X128006799Y-71672339D01*
X128292339Y-71386799D01*
X128516686Y-71051039D01*
X128671220Y-70677963D01*
X128750000Y-70281907D01*
X128750000Y-69878093D01*
X128671220Y-69482037D01*
X128516686Y-69108961D01*
X128316927Y-68810000D01*
X128516686Y-68511039D01*
X128671220Y-68137963D01*
X128750000Y-67741907D01*
X128750000Y-67338093D01*
X128671220Y-66942037D01*
X128516686Y-66568961D01*
X128316927Y-66270000D01*
X128516686Y-65971039D01*
X128671220Y-65597963D01*
X128750000Y-65201907D01*
X128750000Y-64798093D01*
X132270000Y-64798093D01*
X132270000Y-65201907D01*
X132348780Y-65597963D01*
X132503314Y-65971039D01*
X132703073Y-66270000D01*
X132503314Y-66568961D01*
X132348780Y-66942037D01*
X132270000Y-67338093D01*
X132270000Y-67741907D01*
X132348780Y-68137963D01*
X132503314Y-68511039D01*
X132703073Y-68810000D01*
X132503314Y-69108961D01*
X132348780Y-69482037D01*
X132270000Y-69878093D01*
X132270000Y-70281907D01*
X132348780Y-70677963D01*
X132503314Y-71051039D01*
X132727661Y-71386799D01*
X133013201Y-71672339D01*
X133070143Y-71710386D01*
X133037285Y-71749857D01*
X132892176Y-72016822D01*
X132801937Y-72306967D01*
X132797702Y-72328268D01*
X132958418Y-72570000D01*
X134270000Y-72570000D01*
X134270000Y-72550000D01*
X134370000Y-72550000D01*
X134370000Y-72570000D01*
X135681582Y-72570000D01*
X135842298Y-72328268D01*
X135838063Y-72306967D01*
X135829177Y-72278394D01*
X162750000Y-72278394D01*
X162750000Y-72721606D01*
X162836466Y-73156301D01*
X163006076Y-73565775D01*
X163252311Y-73934292D01*
X163565708Y-74247689D01*
X163934225Y-74493924D01*
X164343699Y-74663534D01*
X164778394Y-74750000D01*
X165221606Y-74750000D01*
X165656301Y-74663534D01*
X166065775Y-74493924D01*
X166434292Y-74247689D01*
X166747689Y-73934292D01*
X166993924Y-73565775D01*
X167163534Y-73156301D01*
X167250000Y-72721606D01*
X167250000Y-72278394D01*
X170370000Y-72278394D01*
X170370000Y-72721606D01*
X170456466Y-73156301D01*
X170626076Y-73565775D01*
X170872311Y-73934292D01*
X171185708Y-74247689D01*
X171554225Y-74493924D01*
X171963699Y-74663534D01*
X172398394Y-74750000D01*
X172841606Y-74750000D01*
X173276301Y-74663534D01*
X173685775Y-74493924D01*
X174054292Y-74247689D01*
X174367689Y-73934292D01*
X174613924Y-73565775D01*
X174783534Y-73156301D01*
X174870000Y-72721606D01*
X174870000Y-72278394D01*
X174783534Y-71843699D01*
X174613924Y-71434225D01*
X174367689Y-71065708D01*
X174054292Y-70752311D01*
X173685775Y-70506076D01*
X173276301Y-70336466D01*
X172841606Y-70250000D01*
X172398394Y-70250000D01*
X171963699Y-70336466D01*
X171554225Y-70506076D01*
X171185708Y-70752311D01*
X170872311Y-71065708D01*
X170626076Y-71434225D01*
X170456466Y-71843699D01*
X170370000Y-72278394D01*
X167250000Y-72278394D01*
X167163534Y-71843699D01*
X166993924Y-71434225D01*
X166747689Y-71065708D01*
X166434292Y-70752311D01*
X166065775Y-70506076D01*
X165656301Y-70336466D01*
X165221606Y-70250000D01*
X164778394Y-70250000D01*
X164343699Y-70336466D01*
X163934225Y-70506076D01*
X163565708Y-70752311D01*
X163252311Y-71065708D01*
X163006076Y-71434225D01*
X162836466Y-71843699D01*
X162750000Y-72278394D01*
X135829177Y-72278394D01*
X135747824Y-72016822D01*
X135602715Y-71749857D01*
X135569857Y-71710386D01*
X135626799Y-71672339D01*
X135912339Y-71386799D01*
X136136686Y-71051039D01*
X136291220Y-70677963D01*
X136370000Y-70281907D01*
X136370000Y-69878093D01*
X136291220Y-69482037D01*
X136136686Y-69108961D01*
X135936927Y-68810000D01*
X136136686Y-68511039D01*
X136291220Y-68137963D01*
X136370000Y-67741907D01*
X136370000Y-67338093D01*
X136291220Y-66942037D01*
X136136686Y-66568961D01*
X135936927Y-66270000D01*
X136117334Y-66000000D01*
X162043951Y-66000000D01*
X162043951Y-67200000D01*
X162075771Y-67523079D01*
X162170010Y-67833742D01*
X162323045Y-68120051D01*
X162528996Y-68371003D01*
X162779948Y-68576954D01*
X163066257Y-68729989D01*
X163376920Y-68824228D01*
X163699999Y-68856048D01*
X163700001Y-68856048D01*
X164023080Y-68824228D01*
X164333743Y-68729989D01*
X164620052Y-68576954D01*
X164871004Y-68371003D01*
X165059427Y-68141408D01*
X165265708Y-68347689D01*
X165634225Y-68593924D01*
X166043699Y-68763534D01*
X166478394Y-68850000D01*
X166921606Y-68850000D01*
X167356301Y-68763534D01*
X167765775Y-68593924D01*
X168134292Y-68347689D01*
X168200000Y-68281981D01*
X168265708Y-68347689D01*
X168634225Y-68593924D01*
X169043699Y-68763534D01*
X169478394Y-68850000D01*
X169921606Y-68850000D01*
X170356301Y-68763534D01*
X170765775Y-68593924D01*
X171134292Y-68347689D01*
X171200000Y-68281981D01*
X171265708Y-68347689D01*
X171634225Y-68593924D01*
X172043699Y-68763534D01*
X172478394Y-68850000D01*
X172921606Y-68850000D01*
X173356301Y-68763534D01*
X173765775Y-68593924D01*
X174134292Y-68347689D01*
X174340573Y-68141408D01*
X174528996Y-68371003D01*
X174779948Y-68576954D01*
X175066257Y-68729989D01*
X175376920Y-68824228D01*
X175699999Y-68856048D01*
X175700001Y-68856048D01*
X176023080Y-68824228D01*
X176333743Y-68729989D01*
X176620052Y-68576954D01*
X176871004Y-68371003D01*
X177076955Y-68120051D01*
X177229990Y-67833742D01*
X177324229Y-67523079D01*
X177356049Y-67200000D01*
X177356049Y-66000000D01*
X177324229Y-65676921D01*
X177229990Y-65366258D01*
X177076955Y-65079949D01*
X176871004Y-64828997D01*
X176620052Y-64623046D01*
X176333743Y-64470011D01*
X176023080Y-64375772D01*
X175700001Y-64343952D01*
X175699999Y-64343952D01*
X175376920Y-64375772D01*
X175066257Y-64470011D01*
X174779948Y-64623046D01*
X174528996Y-64828997D01*
X174340573Y-65058592D01*
X174134292Y-64852311D01*
X173765775Y-64606076D01*
X173356301Y-64436466D01*
X172921606Y-64350000D01*
X172478394Y-64350000D01*
X172043699Y-64436466D01*
X171634225Y-64606076D01*
X171265708Y-64852311D01*
X171200000Y-64918019D01*
X171134292Y-64852311D01*
X170765775Y-64606076D01*
X170356301Y-64436466D01*
X169921606Y-64350000D01*
X169478394Y-64350000D01*
X169043699Y-64436466D01*
X168634225Y-64606076D01*
X168265708Y-64852311D01*
X168200000Y-64918019D01*
X168134292Y-64852311D01*
X167765775Y-64606076D01*
X167356301Y-64436466D01*
X166921606Y-64350000D01*
X166478394Y-64350000D01*
X166043699Y-64436466D01*
X165634225Y-64606076D01*
X165265708Y-64852311D01*
X165059427Y-65058592D01*
X164871004Y-64828997D01*
X164620052Y-64623046D01*
X164333743Y-64470011D01*
X164023080Y-64375772D01*
X163700001Y-64343952D01*
X163699999Y-64343952D01*
X163376920Y-64375772D01*
X163066257Y-64470011D01*
X162779948Y-64623046D01*
X162528996Y-64828997D01*
X162323045Y-65079949D01*
X162170010Y-65366258D01*
X162075771Y-65676921D01*
X162043951Y-66000000D01*
X136117334Y-66000000D01*
X136136686Y-65971039D01*
X136291220Y-65597963D01*
X136370000Y-65201907D01*
X136370000Y-64798093D01*
X136291220Y-64402037D01*
X136136686Y-64028961D01*
X135912339Y-63693201D01*
X135626799Y-63407661D01*
X135291039Y-63183314D01*
X134917963Y-63028780D01*
X134521907Y-62950000D01*
X134118093Y-62950000D01*
X133722037Y-63028780D01*
X133348961Y-63183314D01*
X133013201Y-63407661D01*
X132727661Y-63693201D01*
X132503314Y-64028961D01*
X132348780Y-64402037D01*
X132270000Y-64798093D01*
X128750000Y-64798093D01*
X128671220Y-64402037D01*
X128516686Y-64028961D01*
X128292339Y-63693201D01*
X128006799Y-63407661D01*
X127671039Y-63183314D01*
X127297963Y-63028780D01*
X126901907Y-62950000D01*
X126498093Y-62950000D01*
X126102037Y-63028780D01*
X125728961Y-63183314D01*
X125393201Y-63407661D01*
X125107661Y-63693201D01*
X124883314Y-64028961D01*
X124728780Y-64402037D01*
X124650000Y-64798093D01*
X106275000Y-64798093D01*
X106275000Y-57445635D01*
X178925076Y-57445635D01*
X179007267Y-57751444D01*
X179309505Y-57917227D01*
X179638278Y-58020862D01*
X179980952Y-58058364D01*
X180324358Y-58028293D01*
X180655299Y-57931805D01*
X180961057Y-57772608D01*
X180992733Y-57751444D01*
X181074924Y-57445635D01*
X180000000Y-56370711D01*
X178925076Y-57445635D01*
X106275000Y-57445635D01*
X106275000Y-56280952D01*
X178241636Y-56280952D01*
X178271707Y-56624358D01*
X178368195Y-56955299D01*
X178527392Y-57261057D01*
X178548556Y-57292733D01*
X178854365Y-57374924D01*
X179929289Y-56300000D01*
X180070711Y-56300000D01*
X181145635Y-57374924D01*
X181451444Y-57292733D01*
X181617227Y-56990495D01*
X181720862Y-56661722D01*
X181758364Y-56319048D01*
X181728293Y-55975642D01*
X181631805Y-55644701D01*
X181472608Y-55338943D01*
X181451444Y-55307267D01*
X181145635Y-55225076D01*
X180070711Y-56300000D01*
X179929289Y-56300000D01*
X178854365Y-55225076D01*
X178548556Y-55307267D01*
X178382773Y-55609505D01*
X178279138Y-55938278D01*
X178241636Y-56280952D01*
X106275000Y-56280952D01*
X106275000Y-55154365D01*
X178925076Y-55154365D01*
X180000000Y-56229289D01*
X181074924Y-55154365D01*
X180992733Y-54848556D01*
X180690495Y-54682773D01*
X180361722Y-54579138D01*
X180019048Y-54541636D01*
X179675642Y-54571707D01*
X179344701Y-54668195D01*
X179038943Y-54827392D01*
X179007267Y-54848556D01*
X178925076Y-55154365D01*
X106275000Y-55154365D01*
X106275000Y-49670054D01*
X125150000Y-49670054D01*
X125150000Y-50329946D01*
X125278739Y-50977159D01*
X125531269Y-51586820D01*
X125897885Y-52135500D01*
X126364500Y-52602115D01*
X126913180Y-52968731D01*
X127522841Y-53221261D01*
X128170054Y-53350000D01*
X128829946Y-53350000D01*
X129477159Y-53221261D01*
X130086820Y-52968731D01*
X130635500Y-52602115D01*
X131102115Y-52135500D01*
X131468731Y-51586820D01*
X131721261Y-50977159D01*
X131850000Y-50329946D01*
X131850000Y-49670054D01*
X131721261Y-49022841D01*
X131468731Y-48413180D01*
X131102115Y-47864500D01*
X130635500Y-47397885D01*
X130086820Y-47031269D01*
X129477159Y-46778739D01*
X128829946Y-46650000D01*
X128170054Y-46650000D01*
X127522841Y-46778739D01*
X126913180Y-47031269D01*
X126364500Y-47397885D01*
X125897885Y-47864500D01*
X125531269Y-48413180D01*
X125278739Y-49022841D01*
X125150000Y-49670054D01*
X106275000Y-49670054D01*
X106275000Y-48056778D01*
X106338858Y-47341260D01*
X106513376Y-46703333D01*
X106798099Y-46106399D01*
X107184028Y-45569322D01*
X107658972Y-45109068D01*
X108207910Y-44740198D01*
X108813493Y-44474366D01*
X109466387Y-44317619D01*
X110046752Y-44275000D01*
X137937640Y-44275000D01*
X138139632Y-44294806D01*
%TA.AperFunction,Conductor*%
G36*
X138139632Y-44294806D02*
G01*
X138273946Y-44335357D01*
X138397822Y-44401223D01*
X138506553Y-44489902D01*
X138595984Y-44598005D01*
X138662714Y-44721419D01*
X138704203Y-44855449D01*
X138730465Y-45105316D01*
X138730296Y-45129520D01*
X138732034Y-45147238D01*
X138772835Y-45535430D01*
X138796069Y-45648620D01*
X138817724Y-45762141D01*
X138822869Y-45779179D01*
X138822870Y-45779185D01*
X138822872Y-45779191D01*
X138938294Y-46152058D01*
X138983081Y-46258603D01*
X139026364Y-46365732D01*
X139034720Y-46381447D01*
X139034722Y-46381452D01*
X139034725Y-46381456D01*
X139220373Y-46724806D01*
X139222597Y-46728103D01*
X138829946Y-46650000D01*
X138170054Y-46650000D01*
X137522841Y-46778739D01*
X136913180Y-47031269D01*
X136364500Y-47397885D01*
X135897885Y-47864500D01*
X135531269Y-48413180D01*
X135278739Y-49022841D01*
X135150000Y-49670054D01*
X135150000Y-50329946D01*
X135278739Y-50977159D01*
X135531269Y-51586820D01*
X135897885Y-52135500D01*
X136364500Y-52602115D01*
X136913180Y-52968731D01*
X137522841Y-53221261D01*
X138170054Y-53350000D01*
X138829946Y-53350000D01*
X139477159Y-53221261D01*
X140086820Y-52968731D01*
X140635500Y-52602115D01*
X141102115Y-52135500D01*
X141468731Y-51586820D01*
X141721261Y-50977159D01*
X141850000Y-50329946D01*
X141850000Y-49670054D01*
X141721261Y-49022841D01*
X141468731Y-48413180D01*
X141325504Y-48198825D01*
X141356353Y-48204934D01*
X141469407Y-48228964D01*
X141487112Y-48230825D01*
X141875581Y-48268915D01*
X141937364Y-48275000D01*
X147123598Y-48275000D01*
X147031269Y-48413180D01*
X146778739Y-49022841D01*
X146650000Y-49670054D01*
X146650000Y-50329946D01*
X146778739Y-50977159D01*
X147031269Y-51586820D01*
X147397885Y-52135500D01*
X147864500Y-52602115D01*
X148413180Y-52968731D01*
X149022841Y-53221261D01*
X149670054Y-53350000D01*
X150329946Y-53350000D01*
X150977159Y-53221261D01*
X151586820Y-52968731D01*
X152135500Y-52602115D01*
X152602115Y-52135500D01*
X152968731Y-51586820D01*
X153221261Y-50977159D01*
X153350000Y-50329946D01*
X153350000Y-49670054D01*
X153221261Y-49022841D01*
X152968731Y-48413180D01*
X152876402Y-48275000D01*
X158062636Y-48275000D01*
X158117276Y-48269618D01*
X158129520Y-48269704D01*
X158147238Y-48267966D01*
X158535430Y-48227165D01*
X158648620Y-48203931D01*
X158674366Y-48199019D01*
X158531269Y-48413180D01*
X158278739Y-49022841D01*
X158150000Y-49670054D01*
X158150000Y-50329946D01*
X158278739Y-50977159D01*
X158531269Y-51586820D01*
X158897885Y-52135500D01*
X159364500Y-52602115D01*
X159913180Y-52968731D01*
X160522841Y-53221261D01*
X161170054Y-53350000D01*
X161829946Y-53350000D01*
X162477159Y-53221261D01*
X163086820Y-52968731D01*
X163635500Y-52602115D01*
X164102115Y-52135500D01*
X164468731Y-51586820D01*
X164721261Y-50977159D01*
X164850000Y-50329946D01*
X164850000Y-49670054D01*
X168150000Y-49670054D01*
X168150000Y-50329946D01*
X168278739Y-50977159D01*
X168531269Y-51586820D01*
X168897885Y-52135500D01*
X169364500Y-52602115D01*
X169913180Y-52968731D01*
X170522841Y-53221261D01*
X171170054Y-53350000D01*
X171829946Y-53350000D01*
X172477159Y-53221261D01*
X173086820Y-52968731D01*
X173635500Y-52602115D01*
X174102115Y-52135500D01*
X174468731Y-51586820D01*
X174627082Y-51204526D01*
X177580000Y-51204526D01*
X177580000Y-51795474D01*
X177695288Y-52375068D01*
X177921434Y-52921033D01*
X178249748Y-53412389D01*
X178667611Y-53830252D01*
X179158967Y-54158566D01*
X179704932Y-54384712D01*
X180284526Y-54500000D01*
X180875474Y-54500000D01*
X181455068Y-54384712D01*
X182001033Y-54158566D01*
X182492389Y-53830252D01*
X182910252Y-53412389D01*
X183238566Y-52921033D01*
X183464712Y-52375068D01*
X183580000Y-51795474D01*
X183580000Y-51204526D01*
X186580000Y-51204526D01*
X186580000Y-51795474D01*
X186695288Y-52375068D01*
X186921434Y-52921033D01*
X187249748Y-53412389D01*
X187667611Y-53830252D01*
X188158967Y-54158566D01*
X188704932Y-54384712D01*
X188914231Y-54426344D01*
X188725708Y-54552311D01*
X188412311Y-54865708D01*
X188166076Y-55234225D01*
X187996466Y-55643699D01*
X187910000Y-56078394D01*
X187910000Y-56521606D01*
X187996466Y-56956301D01*
X188166076Y-57365775D01*
X188412311Y-57734292D01*
X188725708Y-58047689D01*
X189094225Y-58293924D01*
X189503699Y-58463534D01*
X189938394Y-58550000D01*
X190381606Y-58550000D01*
X190816301Y-58463534D01*
X191225775Y-58293924D01*
X191594292Y-58047689D01*
X191907689Y-57734292D01*
X192153924Y-57365775D01*
X192323534Y-56956301D01*
X192410000Y-56521606D01*
X192410000Y-56078394D01*
X192323534Y-55643699D01*
X192153924Y-55234225D01*
X191907689Y-54865708D01*
X191594292Y-54552311D01*
X191225775Y-54306076D01*
X190935344Y-54185775D01*
X191001033Y-54158566D01*
X191492389Y-53830252D01*
X191910252Y-53412389D01*
X192238566Y-52921033D01*
X192464712Y-52375068D01*
X192580000Y-51795474D01*
X192580000Y-51204526D01*
X192464712Y-50624932D01*
X192238566Y-50078967D01*
X191910252Y-49587611D01*
X191492389Y-49169748D01*
X191001033Y-48841434D01*
X190455068Y-48615288D01*
X189875474Y-48500000D01*
X189284526Y-48500000D01*
X188704932Y-48615288D01*
X188158967Y-48841434D01*
X187667611Y-49169748D01*
X187249748Y-49587611D01*
X186921434Y-50078967D01*
X186695288Y-50624932D01*
X186580000Y-51204526D01*
X183580000Y-51204526D01*
X183464712Y-50624932D01*
X183238566Y-50078967D01*
X182910252Y-49587611D01*
X182492389Y-49169748D01*
X182001033Y-48841434D01*
X181455068Y-48615288D01*
X180875474Y-48500000D01*
X180284526Y-48500000D01*
X179704932Y-48615288D01*
X179158967Y-48841434D01*
X178667611Y-49169748D01*
X178249748Y-49587611D01*
X177921434Y-50078967D01*
X177695288Y-50624932D01*
X177580000Y-51204526D01*
X174627082Y-51204526D01*
X174721261Y-50977159D01*
X174850000Y-50329946D01*
X174850000Y-49670054D01*
X174721261Y-49022841D01*
X174468731Y-48413180D01*
X174102115Y-47864500D01*
X173635500Y-47397885D01*
X173086820Y-47031269D01*
X172477159Y-46778739D01*
X171829946Y-46650000D01*
X171170054Y-46650000D01*
X170522841Y-46778739D01*
X169913180Y-47031269D01*
X169364500Y-47397885D01*
X168897885Y-47864500D01*
X168531269Y-48413180D01*
X168278739Y-49022841D01*
X168150000Y-49670054D01*
X164850000Y-49670054D01*
X164721261Y-49022841D01*
X164468731Y-48413180D01*
X164102115Y-47864500D01*
X163635500Y-47397885D01*
X163086820Y-47031269D01*
X162477159Y-46778739D01*
X161829946Y-46650000D01*
X161170054Y-46650000D01*
X160778421Y-46727901D01*
X160783132Y-46721021D01*
X160791599Y-46705361D01*
X160974849Y-46360719D01*
X161018884Y-46253883D01*
X161064411Y-46147662D01*
X161069675Y-46130656D01*
X161182492Y-45756984D01*
X161204934Y-45643647D01*
X161228964Y-45530593D01*
X161230825Y-45512888D01*
X161268915Y-45124419D01*
X161268915Y-45124417D01*
X161294806Y-44860368D01*
X161335357Y-44726054D01*
X161401223Y-44602178D01*
X161489902Y-44493447D01*
X161598005Y-44404016D01*
X161721419Y-44337286D01*
X161855449Y-44295797D01*
X162053320Y-44275000D01*
X189943222Y-44275000D01*
X190658740Y-44338858D01*
X191296667Y-44513376D01*
X191893601Y-44798099D01*
X192430678Y-45184028D01*
X192890932Y-45658972D01*
X193259802Y-46207910D01*
X193525634Y-46813493D01*
X193682381Y-47466387D01*
X193725000Y-48046752D01*
X193725001Y-112959917D01*
X193653700Y-114093218D01*
X193448447Y-115169190D01*
X193109956Y-116210958D01*
X192643567Y-117202086D01*
X192056635Y-118126944D01*
X191358412Y-118970949D01*
X190559917Y-119720786D01*
X189673737Y-120364633D01*
X188713845Y-120892338D01*
X187695394Y-121295571D01*
X186634430Y-121567981D01*
X185527764Y-121707785D01*
X184979966Y-121725000D01*
X115040067Y-121725000D01*
X113906782Y-121653700D01*
X112830810Y-121448447D01*
X111789042Y-121109956D01*
X110797914Y-120643567D01*
X109873056Y-120056635D01*
X109029051Y-119358412D01*
X108279214Y-118559917D01*
X107725717Y-117798093D01*
X124660000Y-117798093D01*
X124660000Y-118201907D01*
X124738780Y-118597963D01*
X124893314Y-118971039D01*
X125117661Y-119306799D01*
X125403201Y-119592339D01*
X125738961Y-119816686D01*
X126112037Y-119971220D01*
X126508093Y-120050000D01*
X126911907Y-120050000D01*
X127307963Y-119971220D01*
X127681039Y-119816686D01*
X128016799Y-119592339D01*
X128302339Y-119306799D01*
X128361168Y-119218755D01*
X128375447Y-119288783D01*
X128643681Y-119434637D01*
X128935214Y-119525358D01*
X129238845Y-119557460D01*
X129542905Y-119529710D01*
X129835708Y-119443174D01*
X130106003Y-119301178D01*
X130124553Y-119288783D01*
X130182735Y-119003446D01*
X129250000Y-118070711D01*
X129235858Y-118084853D01*
X129165147Y-118014142D01*
X129179289Y-118000000D01*
X129320711Y-118000000D01*
X130253446Y-118932735D01*
X130538783Y-118874553D01*
X130684637Y-118606319D01*
X130775358Y-118314786D01*
X130807460Y-118011155D01*
X130805424Y-117988845D01*
X169142540Y-117988845D01*
X169170290Y-118292905D01*
X169256826Y-118585708D01*
X169398822Y-118856003D01*
X169411217Y-118874553D01*
X169696554Y-118932735D01*
X170629289Y-118000000D01*
X169696554Y-117067265D01*
X169411217Y-117125447D01*
X169265363Y-117393681D01*
X169174642Y-117685214D01*
X169142540Y-117988845D01*
X130805424Y-117988845D01*
X130779710Y-117707095D01*
X130693174Y-117414292D01*
X130551178Y-117143997D01*
X130538783Y-117125447D01*
X130253446Y-117067265D01*
X129320711Y-118000000D01*
X129179289Y-118000000D01*
X129165147Y-117985858D01*
X129235858Y-117915147D01*
X129250000Y-117929289D01*
X130182735Y-116996554D01*
X169767265Y-116996554D01*
X170700000Y-117929289D01*
X170714142Y-117915147D01*
X170784853Y-117985858D01*
X170770711Y-118000000D01*
X170784853Y-118014142D01*
X170714142Y-118084853D01*
X170700000Y-118070711D01*
X169767265Y-119003446D01*
X169825447Y-119288783D01*
X170093681Y-119434637D01*
X170385214Y-119525358D01*
X170688845Y-119557460D01*
X170992905Y-119529710D01*
X171285708Y-119443174D01*
X171556003Y-119301178D01*
X171574553Y-119288783D01*
X171588832Y-119218755D01*
X171647661Y-119306799D01*
X171933201Y-119592339D01*
X172268961Y-119816686D01*
X172642037Y-119971220D01*
X173038093Y-120050000D01*
X173441907Y-120050000D01*
X173837963Y-119971220D01*
X174211039Y-119816686D01*
X174546799Y-119592339D01*
X174832339Y-119306799D01*
X175056686Y-118971039D01*
X175211220Y-118597963D01*
X175290000Y-118201907D01*
X175290000Y-117798093D01*
X175211220Y-117402037D01*
X175056686Y-117028961D01*
X174832339Y-116693201D01*
X174546799Y-116407661D01*
X174211039Y-116183314D01*
X173837963Y-116028780D01*
X173441907Y-115950000D01*
X173038093Y-115950000D01*
X172642037Y-116028780D01*
X172268961Y-116183314D01*
X171933201Y-116407661D01*
X171647661Y-116693201D01*
X171588832Y-116781245D01*
X171574553Y-116711217D01*
X171306319Y-116565363D01*
X171014786Y-116474642D01*
X170711155Y-116442540D01*
X170407095Y-116470290D01*
X170114292Y-116556826D01*
X169843997Y-116698822D01*
X169825447Y-116711217D01*
X169767265Y-116996554D01*
X130182735Y-116996554D01*
X130124553Y-116711217D01*
X129856319Y-116565363D01*
X129564786Y-116474642D01*
X129261155Y-116442540D01*
X128957095Y-116470290D01*
X128664292Y-116556826D01*
X128393997Y-116698822D01*
X128375447Y-116711217D01*
X128361168Y-116781245D01*
X128302339Y-116693201D01*
X128016799Y-116407661D01*
X127681039Y-116183314D01*
X127307963Y-116028780D01*
X126911907Y-115950000D01*
X126508093Y-115950000D01*
X126112037Y-116028780D01*
X125738961Y-116183314D01*
X125403201Y-116407661D01*
X125117661Y-116693201D01*
X124893314Y-117028961D01*
X124738780Y-117402037D01*
X124660000Y-117798093D01*
X107725717Y-117798093D01*
X107635367Y-117673737D01*
X107107662Y-116713845D01*
X106704429Y-115695394D01*
X106432019Y-114634430D01*
X106292215Y-113527764D01*
X106284998Y-113298093D01*
X120950000Y-113298093D01*
X120950000Y-113701907D01*
X121028780Y-114097963D01*
X121183314Y-114471039D01*
X121407661Y-114806799D01*
X121693201Y-115092339D01*
X122028961Y-115316686D01*
X122402037Y-115471220D01*
X122798093Y-115550000D01*
X123201907Y-115550000D01*
X123597963Y-115471220D01*
X123971039Y-115316686D01*
X124306799Y-115092339D01*
X124592339Y-114806799D01*
X124816686Y-114471039D01*
X124971220Y-114097963D01*
X125050000Y-113701907D01*
X125050000Y-113298093D01*
X131110000Y-113298093D01*
X131110000Y-113701907D01*
X131188780Y-114097963D01*
X131343314Y-114471039D01*
X131567661Y-114806799D01*
X131853201Y-115092339D01*
X132188961Y-115316686D01*
X132562037Y-115471220D01*
X132958093Y-115550000D01*
X133361907Y-115550000D01*
X133757963Y-115471220D01*
X134131039Y-115316686D01*
X134466799Y-115092339D01*
X134752339Y-114806799D01*
X134976686Y-114471039D01*
X135131220Y-114097963D01*
X135210000Y-113701907D01*
X135210000Y-113298093D01*
X164790000Y-113298093D01*
X164790000Y-113701907D01*
X164868780Y-114097963D01*
X165023314Y-114471039D01*
X165247661Y-114806799D01*
X165533201Y-115092339D01*
X165868961Y-115316686D01*
X166242037Y-115471220D01*
X166638093Y-115550000D01*
X167041907Y-115550000D01*
X167437963Y-115471220D01*
X167811039Y-115316686D01*
X168146799Y-115092339D01*
X168432339Y-114806799D01*
X168656686Y-114471039D01*
X168811220Y-114097963D01*
X168890000Y-113701907D01*
X168890000Y-113298093D01*
X174950000Y-113298093D01*
X174950000Y-113701907D01*
X175028780Y-114097963D01*
X175183314Y-114471039D01*
X175407661Y-114806799D01*
X175693201Y-115092339D01*
X176028961Y-115316686D01*
X176402037Y-115471220D01*
X176798093Y-115550000D01*
X177201907Y-115550000D01*
X177597963Y-115471220D01*
X177971039Y-115316686D01*
X178306799Y-115092339D01*
X178592339Y-114806799D01*
X178816686Y-114471039D01*
X178971220Y-114097963D01*
X179050000Y-113701907D01*
X179050000Y-113298093D01*
X178971220Y-112902037D01*
X178816686Y-112528961D01*
X178592339Y-112193201D01*
X178306799Y-111907661D01*
X177971039Y-111683314D01*
X177597963Y-111528780D01*
X177201907Y-111450000D01*
X176798093Y-111450000D01*
X176402037Y-111528780D01*
X176028961Y-111683314D01*
X175693201Y-111907661D01*
X175407661Y-112193201D01*
X175183314Y-112528961D01*
X175028780Y-112902037D01*
X174950000Y-113298093D01*
X168890000Y-113298093D01*
X168811220Y-112902037D01*
X168656686Y-112528961D01*
X168432339Y-112193201D01*
X168146799Y-111907661D01*
X167811039Y-111683314D01*
X167437963Y-111528780D01*
X167041907Y-111450000D01*
X166638093Y-111450000D01*
X166242037Y-111528780D01*
X165868961Y-111683314D01*
X165533201Y-111907661D01*
X165247661Y-112193201D01*
X165023314Y-112528961D01*
X164868780Y-112902037D01*
X164790000Y-113298093D01*
X135210000Y-113298093D01*
X135131220Y-112902037D01*
X134976686Y-112528961D01*
X134752339Y-112193201D01*
X134466799Y-111907661D01*
X134131039Y-111683314D01*
X133757963Y-111528780D01*
X133361907Y-111450000D01*
X132958093Y-111450000D01*
X132562037Y-111528780D01*
X132188961Y-111683314D01*
X131853201Y-111907661D01*
X131567661Y-112193201D01*
X131343314Y-112528961D01*
X131188780Y-112902037D01*
X131110000Y-113298093D01*
X125050000Y-113298093D01*
X124971220Y-112902037D01*
X124816686Y-112528961D01*
X124592339Y-112193201D01*
X124306799Y-111907661D01*
X123971039Y-111683314D01*
X123597963Y-111528780D01*
X123201907Y-111450000D01*
X122798093Y-111450000D01*
X122402037Y-111528780D01*
X122028961Y-111683314D01*
X121693201Y-111907661D01*
X121407661Y-112193201D01*
X121183314Y-112528961D01*
X121028780Y-112902037D01*
X120950000Y-113298093D01*
X106284998Y-113298093D01*
X106275000Y-112979966D01*
X106275000Y-101788243D01*
X127580000Y-101788243D01*
X127580000Y-102211757D01*
X127662623Y-102627132D01*
X127824695Y-103018407D01*
X128059986Y-103370545D01*
X128359455Y-103670014D01*
X128711593Y-103905305D01*
X129102868Y-104067377D01*
X129518243Y-104150000D01*
X129941757Y-104150000D01*
X130357132Y-104067377D01*
X130748407Y-103905305D01*
X131000000Y-103737196D01*
X131251593Y-103905305D01*
X131642868Y-104067377D01*
X132058243Y-104150000D01*
X132481757Y-104150000D01*
X132897132Y-104067377D01*
X133288407Y-103905305D01*
X133640545Y-103670014D01*
X133940014Y-103370545D01*
X134175305Y-103018407D01*
X134337377Y-102627132D01*
X134420000Y-102211757D01*
X134420000Y-101788243D01*
X165580000Y-101788243D01*
X165580000Y-102211757D01*
X165662623Y-102627132D01*
X165824695Y-103018407D01*
X166059986Y-103370545D01*
X166359455Y-103670014D01*
X166711593Y-103905305D01*
X167102868Y-104067377D01*
X167518243Y-104150000D01*
X167941757Y-104150000D01*
X168357132Y-104067377D01*
X168748407Y-103905305D01*
X169000000Y-103737196D01*
X169251593Y-103905305D01*
X169642868Y-104067377D01*
X170058243Y-104150000D01*
X170481757Y-104150000D01*
X170897132Y-104067377D01*
X171288407Y-103905305D01*
X171640545Y-103670014D01*
X171940014Y-103370545D01*
X172175305Y-103018407D01*
X172337377Y-102627132D01*
X172420000Y-102211757D01*
X172420000Y-101788243D01*
X172337377Y-101372868D01*
X172175305Y-100981593D01*
X171940014Y-100629455D01*
X171640545Y-100329986D01*
X171288407Y-100094695D01*
X170897132Y-99932623D01*
X170481757Y-99850000D01*
X170058243Y-99850000D01*
X169642868Y-99932623D01*
X169251593Y-100094695D01*
X169000000Y-100262804D01*
X168748407Y-100094695D01*
X168357132Y-99932623D01*
X167941757Y-99850000D01*
X167518243Y-99850000D01*
X167102868Y-99932623D01*
X166711593Y-100094695D01*
X166359455Y-100329986D01*
X166059986Y-100629455D01*
X165824695Y-100981593D01*
X165662623Y-101372868D01*
X165580000Y-101788243D01*
X134420000Y-101788243D01*
X134337377Y-101372868D01*
X134175305Y-100981593D01*
X133940014Y-100629455D01*
X133640545Y-100329986D01*
X133288407Y-100094695D01*
X132897132Y-99932623D01*
X132481757Y-99850000D01*
X132058243Y-99850000D01*
X131642868Y-99932623D01*
X131251593Y-100094695D01*
X131000000Y-100262804D01*
X130748407Y-100094695D01*
X130357132Y-99932623D01*
X129941757Y-99850000D01*
X129518243Y-99850000D01*
X129102868Y-99932623D01*
X128711593Y-100094695D01*
X128359455Y-100329986D01*
X128059986Y-100629455D01*
X127824695Y-100981593D01*
X127662623Y-101372868D01*
X127580000Y-101788243D01*
X106275000Y-101788243D01*
X106275000Y-87798093D01*
X123950000Y-87798093D01*
X123950000Y-88201907D01*
X124028780Y-88597963D01*
X124183314Y-88971039D01*
X124407661Y-89306799D01*
X124693201Y-89592339D01*
X125028961Y-89816686D01*
X125402037Y-89971220D01*
X125798093Y-90050000D01*
X126201907Y-90050000D01*
X126597963Y-89971220D01*
X126971039Y-89816686D01*
X127306799Y-89592339D01*
X127592339Y-89306799D01*
X127620520Y-89264622D01*
X127625447Y-89288783D01*
X127893681Y-89434637D01*
X128185214Y-89525358D01*
X128488845Y-89557460D01*
X128792905Y-89529710D01*
X129085708Y-89443174D01*
X129356003Y-89301178D01*
X129374553Y-89288783D01*
X129432735Y-89003446D01*
X128500000Y-88070711D01*
X128485858Y-88084853D01*
X128415147Y-88014142D01*
X128429289Y-88000000D01*
X128570711Y-88000000D01*
X129503446Y-88932735D01*
X129788783Y-88874553D01*
X129934637Y-88606319D01*
X130025358Y-88314786D01*
X130057460Y-88011155D01*
X130029710Y-87707095D01*
X129943174Y-87414292D01*
X129801178Y-87143997D01*
X129788783Y-87125447D01*
X129503446Y-87067265D01*
X128570711Y-88000000D01*
X128429289Y-88000000D01*
X128415147Y-87985858D01*
X128485858Y-87915147D01*
X128500000Y-87929289D01*
X129432735Y-86996554D01*
X129374553Y-86711217D01*
X129106319Y-86565363D01*
X128814786Y-86474642D01*
X128511155Y-86442540D01*
X128207095Y-86470290D01*
X127914292Y-86556826D01*
X127643997Y-86698822D01*
X127625447Y-86711217D01*
X127620520Y-86735378D01*
X127592339Y-86693201D01*
X127306799Y-86407661D01*
X126971039Y-86183314D01*
X126597963Y-86028780D01*
X126201907Y-85950000D01*
X125798093Y-85950000D01*
X125402037Y-86028780D01*
X125028961Y-86183314D01*
X124693201Y-86407661D01*
X124407661Y-86693201D01*
X124183314Y-87028961D01*
X124028780Y-87402037D01*
X123950000Y-87798093D01*
X106275000Y-87798093D01*
X106275000Y-77498093D01*
X124650000Y-77498093D01*
X124650000Y-77901907D01*
X124728780Y-78297963D01*
X124883314Y-78671039D01*
X125083073Y-78970000D01*
X124883314Y-79268961D01*
X124728780Y-79642037D01*
X124650000Y-80038093D01*
X124650000Y-80441907D01*
X124728780Y-80837963D01*
X124883314Y-81211039D01*
X125083073Y-81510000D01*
X124883314Y-81808961D01*
X124728780Y-82182037D01*
X124650000Y-82578093D01*
X124650000Y-82981907D01*
X124728780Y-83377963D01*
X124883314Y-83751039D01*
X125107661Y-84086799D01*
X125393201Y-84372339D01*
X125728961Y-84596686D01*
X126102037Y-84751220D01*
X126498093Y-84830000D01*
X126901907Y-84830000D01*
X127297963Y-84751220D01*
X127671039Y-84596686D01*
X128006799Y-84372339D01*
X128292339Y-84086799D01*
X128516686Y-83751039D01*
X128671220Y-83377963D01*
X128750000Y-82981907D01*
X128750000Y-82578093D01*
X128671220Y-82182037D01*
X128516686Y-81808961D01*
X128316927Y-81510000D01*
X128516686Y-81211039D01*
X128671220Y-80837963D01*
X128750000Y-80441907D01*
X128750000Y-80038093D01*
X128671220Y-79642037D01*
X128516686Y-79268961D01*
X128316927Y-78970000D01*
X128516686Y-78671039D01*
X128671220Y-78297963D01*
X128750000Y-77901907D01*
X128750000Y-77498093D01*
X132270000Y-77498093D01*
X132270000Y-77901907D01*
X132348780Y-78297963D01*
X132503314Y-78671039D01*
X132703073Y-78970000D01*
X132503314Y-79268961D01*
X132348780Y-79642037D01*
X132270000Y-80038093D01*
X132270000Y-80441907D01*
X132348780Y-80837963D01*
X132503314Y-81211039D01*
X132703073Y-81510000D01*
X132503314Y-81808961D01*
X132348780Y-82182037D01*
X132270000Y-82578093D01*
X132270000Y-82981907D01*
X132348780Y-83377963D01*
X132503314Y-83751039D01*
X132727661Y-84086799D01*
X133013201Y-84372339D01*
X133348961Y-84596686D01*
X133722037Y-84751220D01*
X134118093Y-84830000D01*
X134521907Y-84830000D01*
X134917963Y-84751220D01*
X135291039Y-84596686D01*
X135626799Y-84372339D01*
X135887271Y-84111867D01*
X165858844Y-84111867D01*
X165935334Y-84412813D01*
X166229496Y-84573864D01*
X166549425Y-84674432D01*
X166882826Y-84710652D01*
X167216888Y-84681132D01*
X167538772Y-84587008D01*
X167836108Y-84431895D01*
X167864666Y-84412813D01*
X167941156Y-84111867D01*
X166900000Y-83070711D01*
X165858844Y-84111867D01*
X135887271Y-84111867D01*
X135912339Y-84086799D01*
X136136686Y-83751039D01*
X136291220Y-83377963D01*
X136370000Y-82981907D01*
X136370000Y-82578093D01*
X136291220Y-82182037D01*
X136136686Y-81808961D01*
X135936927Y-81510000D01*
X136136686Y-81211039D01*
X136291220Y-80837963D01*
X136370000Y-80441907D01*
X136370000Y-80038093D01*
X136291220Y-79642037D01*
X136136686Y-79268961D01*
X135936927Y-78970000D01*
X136136686Y-78671039D01*
X136291220Y-78297963D01*
X136370000Y-77901907D01*
X136370000Y-77703073D01*
X164697500Y-77703073D01*
X164697500Y-78136927D01*
X164782141Y-78562446D01*
X164948170Y-78963275D01*
X165099663Y-79190000D01*
X164948170Y-79416725D01*
X164782141Y-79817554D01*
X164697500Y-80243073D01*
X164697500Y-80676927D01*
X164782141Y-81102446D01*
X164948170Y-81503275D01*
X165189207Y-81864012D01*
X165442376Y-82117181D01*
X165326136Y-82329496D01*
X165225568Y-82649425D01*
X165189348Y-82982826D01*
X165218868Y-83316888D01*
X165312992Y-83638772D01*
X165468105Y-83936108D01*
X165487187Y-83964666D01*
X165788133Y-84041156D01*
X166829289Y-83000000D01*
X166815147Y-82985858D01*
X166885858Y-82915147D01*
X166900000Y-82929289D01*
X166914142Y-82915147D01*
X166984853Y-82985858D01*
X166970711Y-83000000D01*
X168011867Y-84041156D01*
X168312813Y-83964666D01*
X168473864Y-83670504D01*
X168574432Y-83350575D01*
X168580133Y-83298093D01*
X169150000Y-83298093D01*
X169150000Y-83701907D01*
X169228780Y-84097963D01*
X169383314Y-84471039D01*
X169607661Y-84806799D01*
X169893201Y-85092339D01*
X170228961Y-85316686D01*
X170602037Y-85471220D01*
X170998093Y-85550000D01*
X171401907Y-85550000D01*
X171797963Y-85471220D01*
X172171039Y-85316686D01*
X172506799Y-85092339D01*
X172792339Y-84806799D01*
X172820520Y-84764622D01*
X172825447Y-84788783D01*
X173093681Y-84934637D01*
X173385214Y-85025358D01*
X173688845Y-85057460D01*
X173992905Y-85029710D01*
X174285708Y-84943174D01*
X174556003Y-84801178D01*
X174574553Y-84788783D01*
X174632735Y-84503446D01*
X173700000Y-83570711D01*
X173685858Y-83584853D01*
X173615147Y-83514142D01*
X173629289Y-83500000D01*
X173770711Y-83500000D01*
X174703446Y-84432735D01*
X174988783Y-84374553D01*
X175134637Y-84106319D01*
X175225358Y-83814786D01*
X175257460Y-83511155D01*
X175229710Y-83207095D01*
X175143174Y-82914292D01*
X175001178Y-82643997D01*
X174988783Y-82625447D01*
X174703446Y-82567265D01*
X173770711Y-83500000D01*
X173629289Y-83500000D01*
X173615147Y-83485858D01*
X173685858Y-83415147D01*
X173700000Y-83429289D01*
X174632735Y-82496554D01*
X174574553Y-82211217D01*
X174306319Y-82065363D01*
X174014786Y-81974642D01*
X173711155Y-81942540D01*
X173407095Y-81970290D01*
X173114292Y-82056826D01*
X172843997Y-82198822D01*
X172825447Y-82211217D01*
X172820520Y-82235378D01*
X172792339Y-82193201D01*
X172506799Y-81907661D01*
X172171039Y-81683314D01*
X171797963Y-81528780D01*
X171401907Y-81450000D01*
X170998093Y-81450000D01*
X170602037Y-81528780D01*
X170228961Y-81683314D01*
X169893201Y-81907661D01*
X169607661Y-82193201D01*
X169383314Y-82528961D01*
X169228780Y-82902037D01*
X169150000Y-83298093D01*
X168580133Y-83298093D01*
X168610652Y-83017174D01*
X168581132Y-82683112D01*
X168487008Y-82361228D01*
X168358985Y-82115820D01*
X168610793Y-81864012D01*
X168851830Y-81503275D01*
X169017859Y-81102446D01*
X169102500Y-80676927D01*
X169102500Y-80243073D01*
X169017859Y-79817554D01*
X168851830Y-79416725D01*
X168700337Y-79190000D01*
X168851830Y-78963275D01*
X169017859Y-78562446D01*
X169102500Y-78136927D01*
X169102500Y-77703073D01*
X169021945Y-77298093D01*
X169150000Y-77298093D01*
X169150000Y-77701907D01*
X169228780Y-78097963D01*
X169383314Y-78471039D01*
X169607661Y-78806799D01*
X169893201Y-79092339D01*
X170228961Y-79316686D01*
X170602037Y-79471220D01*
X170998093Y-79550000D01*
X171401907Y-79550000D01*
X171797963Y-79471220D01*
X172171039Y-79316686D01*
X172506799Y-79092339D01*
X172792339Y-78806799D01*
X172820520Y-78764622D01*
X172825447Y-78788783D01*
X173093681Y-78934637D01*
X173385214Y-79025358D01*
X173688845Y-79057460D01*
X173992905Y-79029710D01*
X174285708Y-78943174D01*
X174556003Y-78801178D01*
X174574553Y-78788783D01*
X174632735Y-78503446D01*
X173700000Y-77570711D01*
X173685858Y-77584853D01*
X173615147Y-77514142D01*
X173629289Y-77500000D01*
X173770711Y-77500000D01*
X174703446Y-78432735D01*
X174988783Y-78374553D01*
X175134637Y-78106319D01*
X175225358Y-77814786D01*
X175257460Y-77511155D01*
X175229710Y-77207095D01*
X175143174Y-76914292D01*
X175001178Y-76643997D01*
X174988783Y-76625447D01*
X174703446Y-76567265D01*
X173770711Y-77500000D01*
X173629289Y-77500000D01*
X173615147Y-77485858D01*
X173685858Y-77415147D01*
X173700000Y-77429289D01*
X174632735Y-76496554D01*
X174574553Y-76211217D01*
X174306319Y-76065363D01*
X174014786Y-75974642D01*
X173711155Y-75942540D01*
X173407095Y-75970290D01*
X173114292Y-76056826D01*
X172843997Y-76198822D01*
X172825447Y-76211217D01*
X172820520Y-76235378D01*
X172792339Y-76193201D01*
X172506799Y-75907661D01*
X172171039Y-75683314D01*
X171797963Y-75528780D01*
X171401907Y-75450000D01*
X170998093Y-75450000D01*
X170602037Y-75528780D01*
X170228961Y-75683314D01*
X169893201Y-75907661D01*
X169607661Y-76193201D01*
X169383314Y-76528961D01*
X169228780Y-76902037D01*
X169150000Y-77298093D01*
X169021945Y-77298093D01*
X169017859Y-77277554D01*
X168851830Y-76876725D01*
X168610793Y-76515988D01*
X168304012Y-76209207D01*
X167943275Y-75968170D01*
X167542446Y-75802141D01*
X167116927Y-75717500D01*
X166683073Y-75717500D01*
X166257554Y-75802141D01*
X165856725Y-75968170D01*
X165495988Y-76209207D01*
X165189207Y-76515988D01*
X164948170Y-76876725D01*
X164782141Y-77277554D01*
X164697500Y-77703073D01*
X136370000Y-77703073D01*
X136370000Y-77498093D01*
X136291220Y-77102037D01*
X136136686Y-76728961D01*
X135912339Y-76393201D01*
X135626799Y-76107661D01*
X135569857Y-76069614D01*
X135602715Y-76030143D01*
X135747824Y-75763178D01*
X135838063Y-75473033D01*
X135842298Y-75451732D01*
X135681582Y-75210000D01*
X134370000Y-75210000D01*
X134370000Y-75230000D01*
X134270000Y-75230000D01*
X134270000Y-75210000D01*
X132958418Y-75210000D01*
X132797702Y-75451732D01*
X132801937Y-75473033D01*
X132892176Y-75763178D01*
X133037285Y-76030143D01*
X133070143Y-76069614D01*
X133013201Y-76107661D01*
X132727661Y-76393201D01*
X132503314Y-76728961D01*
X132348780Y-77102037D01*
X132270000Y-77498093D01*
X128750000Y-77498093D01*
X128671220Y-77102037D01*
X128516686Y-76728961D01*
X128292339Y-76393201D01*
X128006799Y-76107661D01*
X127949857Y-76069614D01*
X127982715Y-76030143D01*
X128127824Y-75763178D01*
X128218063Y-75473033D01*
X128222298Y-75451732D01*
X128061582Y-75210000D01*
X126750000Y-75210000D01*
X126750000Y-75230000D01*
X126650000Y-75230000D01*
X126650000Y-75210000D01*
X125338418Y-75210000D01*
X125177702Y-75451732D01*
X125181937Y-75473033D01*
X125272176Y-75763178D01*
X125417285Y-76030143D01*
X125450143Y-76069614D01*
X125393201Y-76107661D01*
X125107661Y-76393201D01*
X124883314Y-76728961D01*
X124728780Y-77102037D01*
X124650000Y-77498093D01*
X106275000Y-77498093D01*
X106275000Y-72911732D01*
X125177702Y-72911732D01*
X125181937Y-72933033D01*
X125272176Y-73223178D01*
X125417285Y-73490143D01*
X125611689Y-73723669D01*
X125817285Y-73890000D01*
X125611689Y-74056331D01*
X125417285Y-74289857D01*
X125272176Y-74556822D01*
X125181937Y-74846967D01*
X125177702Y-74868268D01*
X125338418Y-75110000D01*
X126650000Y-75110000D01*
X126650000Y-72670000D01*
X126750000Y-72670000D01*
X126750000Y-75110000D01*
X128061582Y-75110000D01*
X128222298Y-74868268D01*
X128218063Y-74846967D01*
X128127824Y-74556822D01*
X127982715Y-74289857D01*
X127788311Y-74056331D01*
X127582715Y-73890000D01*
X127788311Y-73723669D01*
X127982715Y-73490143D01*
X128127824Y-73223178D01*
X128218063Y-72933033D01*
X128222298Y-72911732D01*
X132797702Y-72911732D01*
X132801937Y-72933033D01*
X132892176Y-73223178D01*
X133037285Y-73490143D01*
X133231689Y-73723669D01*
X133437285Y-73890000D01*
X133231689Y-74056331D01*
X133037285Y-74289857D01*
X132892176Y-74556822D01*
X132801937Y-74846967D01*
X132797702Y-74868268D01*
X132958418Y-75110000D01*
X134270000Y-75110000D01*
X134270000Y-72670000D01*
X134370000Y-72670000D01*
X134370000Y-75110000D01*
X135681582Y-75110000D01*
X135842298Y-74868268D01*
X135838063Y-74846967D01*
X135747824Y-74556822D01*
X135602715Y-74289857D01*
X135408311Y-74056331D01*
X135202715Y-73890000D01*
X135408311Y-73723669D01*
X135602715Y-73490143D01*
X135747824Y-73223178D01*
X135838063Y-72933033D01*
X135842298Y-72911732D01*
X135681582Y-72670000D01*
X134370000Y-72670000D01*
X134270000Y-72670000D01*
X132958418Y-72670000D01*
X132797702Y-72911732D01*
X128222298Y-72911732D01*
X128061582Y-72670000D01*
X126750000Y-72670000D01*
X126650000Y-72670000D01*
X125338418Y-72670000D01*
X125177702Y-72911732D01*
X106275000Y-72911732D01*
X106275000Y-64798093D01*
X124650000Y-64798093D01*
X124650000Y-65201907D01*
X124728780Y-65597963D01*
X124883314Y-65971039D01*
X125083073Y-66270000D01*
X124883314Y-66568961D01*
X124728780Y-66942037D01*
X124650000Y-67338093D01*
X124650000Y-67741907D01*
X124728780Y-68137963D01*
X124883314Y-68511039D01*
X125083073Y-68810000D01*
X124883314Y-69108961D01*
X124728780Y-69482037D01*
X124650000Y-69878093D01*
X124650000Y-70281907D01*
X124728780Y-70677963D01*
X124883314Y-71051039D01*
X125107661Y-71386799D01*
X125393201Y-71672339D01*
X125450143Y-71710386D01*
X125417285Y-71749857D01*
X125272176Y-72016822D01*
X125181937Y-72306967D01*
X125177702Y-72328268D01*
X125338418Y-72570000D01*
X126650000Y-72570000D01*
X126650000Y-72550000D01*
X126750000Y-72550000D01*
X126750000Y-72570000D01*
X128061582Y-72570000D01*
X128222298Y-72328268D01*
X128218063Y-72306967D01*
X128127824Y-72016822D01*
X127982715Y-71749857D01*
X127949857Y-71710386D01*
X128006799Y-71672339D01*
X128292339Y-71386799D01*
X128516686Y-71051039D01*
X128671220Y-70677963D01*
X128750000Y-70281907D01*
X128750000Y-69878093D01*
X128671220Y-69482037D01*
X128516686Y-69108961D01*
X128316927Y-68810000D01*
X128516686Y-68511039D01*
X128671220Y-68137963D01*
X128750000Y-67741907D01*
X128750000Y-67338093D01*
X128671220Y-66942037D01*
X128516686Y-66568961D01*
X128316927Y-66270000D01*
X128516686Y-65971039D01*
X128671220Y-65597963D01*
X128750000Y-65201907D01*
X128750000Y-64798093D01*
X132270000Y-64798093D01*
X132270000Y-65201907D01*
X132348780Y-65597963D01*
X132503314Y-65971039D01*
X132703073Y-66270000D01*
X132503314Y-66568961D01*
X132348780Y-66942037D01*
X132270000Y-67338093D01*
X132270000Y-67741907D01*
X132348780Y-68137963D01*
X132503314Y-68511039D01*
X132703073Y-68810000D01*
X132503314Y-69108961D01*
X132348780Y-69482037D01*
X132270000Y-69878093D01*
X132270000Y-70281907D01*
X132348780Y-70677963D01*
X132503314Y-71051039D01*
X132727661Y-71386799D01*
X133013201Y-71672339D01*
X133070143Y-71710386D01*
X133037285Y-71749857D01*
X132892176Y-72016822D01*
X132801937Y-72306967D01*
X132797702Y-72328268D01*
X132958418Y-72570000D01*
X134270000Y-72570000D01*
X134270000Y-72550000D01*
X134370000Y-72550000D01*
X134370000Y-72570000D01*
X135681582Y-72570000D01*
X135842298Y-72328268D01*
X135838063Y-72306967D01*
X135829177Y-72278394D01*
X162750000Y-72278394D01*
X162750000Y-72721606D01*
X162836466Y-73156301D01*
X163006076Y-73565775D01*
X163252311Y-73934292D01*
X163565708Y-74247689D01*
X163934225Y-74493924D01*
X164343699Y-74663534D01*
X164778394Y-74750000D01*
X165221606Y-74750000D01*
X165656301Y-74663534D01*
X166065775Y-74493924D01*
X166434292Y-74247689D01*
X166747689Y-73934292D01*
X166993924Y-73565775D01*
X167163534Y-73156301D01*
X167250000Y-72721606D01*
X167250000Y-72278394D01*
X170370000Y-72278394D01*
X170370000Y-72721606D01*
X170456466Y-73156301D01*
X170626076Y-73565775D01*
X170872311Y-73934292D01*
X171185708Y-74247689D01*
X171554225Y-74493924D01*
X171963699Y-74663534D01*
X172398394Y-74750000D01*
X172841606Y-74750000D01*
X173276301Y-74663534D01*
X173685775Y-74493924D01*
X174054292Y-74247689D01*
X174367689Y-73934292D01*
X174613924Y-73565775D01*
X174783534Y-73156301D01*
X174870000Y-72721606D01*
X174870000Y-72278394D01*
X174783534Y-71843699D01*
X174613924Y-71434225D01*
X174367689Y-71065708D01*
X174054292Y-70752311D01*
X173685775Y-70506076D01*
X173276301Y-70336466D01*
X172841606Y-70250000D01*
X172398394Y-70250000D01*
X171963699Y-70336466D01*
X171554225Y-70506076D01*
X171185708Y-70752311D01*
X170872311Y-71065708D01*
X170626076Y-71434225D01*
X170456466Y-71843699D01*
X170370000Y-72278394D01*
X167250000Y-72278394D01*
X167163534Y-71843699D01*
X166993924Y-71434225D01*
X166747689Y-71065708D01*
X166434292Y-70752311D01*
X166065775Y-70506076D01*
X165656301Y-70336466D01*
X165221606Y-70250000D01*
X164778394Y-70250000D01*
X164343699Y-70336466D01*
X163934225Y-70506076D01*
X163565708Y-70752311D01*
X163252311Y-71065708D01*
X163006076Y-71434225D01*
X162836466Y-71843699D01*
X162750000Y-72278394D01*
X135829177Y-72278394D01*
X135747824Y-72016822D01*
X135602715Y-71749857D01*
X135569857Y-71710386D01*
X135626799Y-71672339D01*
X135912339Y-71386799D01*
X136136686Y-71051039D01*
X136291220Y-70677963D01*
X136370000Y-70281907D01*
X136370000Y-69878093D01*
X136291220Y-69482037D01*
X136136686Y-69108961D01*
X135936927Y-68810000D01*
X136136686Y-68511039D01*
X136291220Y-68137963D01*
X136370000Y-67741907D01*
X136370000Y-67338093D01*
X136291220Y-66942037D01*
X136136686Y-66568961D01*
X135936927Y-66270000D01*
X136117334Y-66000000D01*
X162043951Y-66000000D01*
X162043951Y-67200000D01*
X162075771Y-67523079D01*
X162170010Y-67833742D01*
X162323045Y-68120051D01*
X162528996Y-68371003D01*
X162779948Y-68576954D01*
X163066257Y-68729989D01*
X163376920Y-68824228D01*
X163699999Y-68856048D01*
X163700001Y-68856048D01*
X164023080Y-68824228D01*
X164333743Y-68729989D01*
X164620052Y-68576954D01*
X164871004Y-68371003D01*
X165059427Y-68141408D01*
X165265708Y-68347689D01*
X165634225Y-68593924D01*
X166043699Y-68763534D01*
X166478394Y-68850000D01*
X166921606Y-68850000D01*
X167356301Y-68763534D01*
X167765775Y-68593924D01*
X168134292Y-68347689D01*
X168200000Y-68281981D01*
X168265708Y-68347689D01*
X168634225Y-68593924D01*
X169043699Y-68763534D01*
X169478394Y-68850000D01*
X169921606Y-68850000D01*
X170356301Y-68763534D01*
X170765775Y-68593924D01*
X171134292Y-68347689D01*
X171200000Y-68281981D01*
X171265708Y-68347689D01*
X171634225Y-68593924D01*
X172043699Y-68763534D01*
X172478394Y-68850000D01*
X172921606Y-68850000D01*
X173356301Y-68763534D01*
X173765775Y-68593924D01*
X174134292Y-68347689D01*
X174340573Y-68141408D01*
X174528996Y-68371003D01*
X174779948Y-68576954D01*
X175066257Y-68729989D01*
X175376920Y-68824228D01*
X175699999Y-68856048D01*
X175700001Y-68856048D01*
X176023080Y-68824228D01*
X176333743Y-68729989D01*
X176620052Y-68576954D01*
X176871004Y-68371003D01*
X177076955Y-68120051D01*
X177229990Y-67833742D01*
X177324229Y-67523079D01*
X177356049Y-67200000D01*
X177356049Y-66000000D01*
X177324229Y-65676921D01*
X177229990Y-65366258D01*
X177076955Y-65079949D01*
X176871004Y-64828997D01*
X176620052Y-64623046D01*
X176333743Y-64470011D01*
X176023080Y-64375772D01*
X175700001Y-64343952D01*
X175699999Y-64343952D01*
X175376920Y-64375772D01*
X175066257Y-64470011D01*
X174779948Y-64623046D01*
X174528996Y-64828997D01*
X174340573Y-65058592D01*
X174134292Y-64852311D01*
X173765775Y-64606076D01*
X173356301Y-64436466D01*
X172921606Y-64350000D01*
X172478394Y-64350000D01*
X172043699Y-64436466D01*
X171634225Y-64606076D01*
X171265708Y-64852311D01*
X171200000Y-64918019D01*
X171134292Y-64852311D01*
X170765775Y-64606076D01*
X170356301Y-64436466D01*
X169921606Y-64350000D01*
X169478394Y-64350000D01*
X169043699Y-64436466D01*
X168634225Y-64606076D01*
X168265708Y-64852311D01*
X168200000Y-64918019D01*
X168134292Y-64852311D01*
X167765775Y-64606076D01*
X167356301Y-64436466D01*
X166921606Y-64350000D01*
X166478394Y-64350000D01*
X166043699Y-64436466D01*
X165634225Y-64606076D01*
X165265708Y-64852311D01*
X165059427Y-65058592D01*
X164871004Y-64828997D01*
X164620052Y-64623046D01*
X164333743Y-64470011D01*
X164023080Y-64375772D01*
X163700001Y-64343952D01*
X163699999Y-64343952D01*
X163376920Y-64375772D01*
X163066257Y-64470011D01*
X162779948Y-64623046D01*
X162528996Y-64828997D01*
X162323045Y-65079949D01*
X162170010Y-65366258D01*
X162075771Y-65676921D01*
X162043951Y-66000000D01*
X136117334Y-66000000D01*
X136136686Y-65971039D01*
X136291220Y-65597963D01*
X136370000Y-65201907D01*
X136370000Y-64798093D01*
X136291220Y-64402037D01*
X136136686Y-64028961D01*
X135912339Y-63693201D01*
X135626799Y-63407661D01*
X135291039Y-63183314D01*
X134917963Y-63028780D01*
X134521907Y-62950000D01*
X134118093Y-62950000D01*
X133722037Y-63028780D01*
X133348961Y-63183314D01*
X133013201Y-63407661D01*
X132727661Y-63693201D01*
X132503314Y-64028961D01*
X132348780Y-64402037D01*
X132270000Y-64798093D01*
X128750000Y-64798093D01*
X128671220Y-64402037D01*
X128516686Y-64028961D01*
X128292339Y-63693201D01*
X128006799Y-63407661D01*
X127671039Y-63183314D01*
X127297963Y-63028780D01*
X126901907Y-62950000D01*
X126498093Y-62950000D01*
X126102037Y-63028780D01*
X125728961Y-63183314D01*
X125393201Y-63407661D01*
X125107661Y-63693201D01*
X124883314Y-64028961D01*
X124728780Y-64402037D01*
X124650000Y-64798093D01*
X106275000Y-64798093D01*
X106275000Y-57445635D01*
X178925076Y-57445635D01*
X179007267Y-57751444D01*
X179309505Y-57917227D01*
X179638278Y-58020862D01*
X179980952Y-58058364D01*
X180324358Y-58028293D01*
X180655299Y-57931805D01*
X180961057Y-57772608D01*
X180992733Y-57751444D01*
X181074924Y-57445635D01*
X180000000Y-56370711D01*
X178925076Y-57445635D01*
X106275000Y-57445635D01*
X106275000Y-56280952D01*
X178241636Y-56280952D01*
X178271707Y-56624358D01*
X178368195Y-56955299D01*
X178527392Y-57261057D01*
X178548556Y-57292733D01*
X178854365Y-57374924D01*
X179929289Y-56300000D01*
X180070711Y-56300000D01*
X181145635Y-57374924D01*
X181451444Y-57292733D01*
X181617227Y-56990495D01*
X181720862Y-56661722D01*
X181758364Y-56319048D01*
X181728293Y-55975642D01*
X181631805Y-55644701D01*
X181472608Y-55338943D01*
X181451444Y-55307267D01*
X181145635Y-55225076D01*
X180070711Y-56300000D01*
X179929289Y-56300000D01*
X178854365Y-55225076D01*
X178548556Y-55307267D01*
X178382773Y-55609505D01*
X178279138Y-55938278D01*
X178241636Y-56280952D01*
X106275000Y-56280952D01*
X106275000Y-55154365D01*
X178925076Y-55154365D01*
X180000000Y-56229289D01*
X181074924Y-55154365D01*
X180992733Y-54848556D01*
X180690495Y-54682773D01*
X180361722Y-54579138D01*
X180019048Y-54541636D01*
X179675642Y-54571707D01*
X179344701Y-54668195D01*
X179038943Y-54827392D01*
X179007267Y-54848556D01*
X178925076Y-55154365D01*
X106275000Y-55154365D01*
X106275000Y-49670054D01*
X125150000Y-49670054D01*
X125150000Y-50329946D01*
X125278739Y-50977159D01*
X125531269Y-51586820D01*
X125897885Y-52135500D01*
X126364500Y-52602115D01*
X126913180Y-52968731D01*
X127522841Y-53221261D01*
X128170054Y-53350000D01*
X128829946Y-53350000D01*
X129477159Y-53221261D01*
X130086820Y-52968731D01*
X130635500Y-52602115D01*
X131102115Y-52135500D01*
X131468731Y-51586820D01*
X131721261Y-50977159D01*
X131850000Y-50329946D01*
X131850000Y-49670054D01*
X131721261Y-49022841D01*
X131468731Y-48413180D01*
X131102115Y-47864500D01*
X130635500Y-47397885D01*
X130086820Y-47031269D01*
X129477159Y-46778739D01*
X128829946Y-46650000D01*
X128170054Y-46650000D01*
X127522841Y-46778739D01*
X126913180Y-47031269D01*
X126364500Y-47397885D01*
X125897885Y-47864500D01*
X125531269Y-48413180D01*
X125278739Y-49022841D01*
X125150000Y-49670054D01*
X106275000Y-49670054D01*
X106275000Y-48056778D01*
X106338858Y-47341260D01*
X106513376Y-46703333D01*
X106798099Y-46106399D01*
X107184028Y-45569322D01*
X107658972Y-45109068D01*
X108207910Y-44740198D01*
X108813493Y-44474366D01*
X109466387Y-44317619D01*
X110046752Y-44275000D01*
X137937640Y-44275000D01*
X138139632Y-44294806D01*
G37*
%TD.AperFunction*%
%TD*%
M02*
